<svg width="48" height="28" viewBox="0 0 48 28" fill="none" xmlns="http://www.w3.org/2000/svg">
<path d="M40.5217 0H7.47826C6.10956 0 5 0.948103 5 2.11765V21.8824C5 23.0519 6.10956 24 7.47826 24H40.5217C41.8904 24 43 23.0519 43 21.8824V2.11765C43 0.948103 41.8904 0 40.5217 0Z" fill="#00A8E1"/>
<path d="M30 19H31.2301L32 15H30.7694L30 19Z" fill="white"/>
<path d="M34.0133 16.6228C33.6639 16.4435 33.4498 16.3237 33.4521 16.1423C33.4521 15.9804 33.6333 15.8088 34.0267 15.8088C34.3165 15.8011 34.6039 15.8674 34.8644 16.0019L35 15.162C34.7126 15.0524 34.4092 14.9976 34.1037 15.0001C33.1158 15.0001 32.4183 15.5263 32.4141 16.2791C32.4087 16.8361 32.912 17.1469 33.2901 17.3315C33.6793 17.5213 33.8103 17.6424 33.8084 17.812C33.8057 18.0718 33.4977 18.1908 33.21 18.1908C32.8379 18.2 32.4697 18.1088 32.1402 17.9257L32 18.7931C32.3564 18.9323 32.7336 19.0023 33.1135 18.9999C34.1646 18.9999 34.8468 18.4802 34.8544 17.676C34.8564 17.2348 34.5901 16.8992 34.0133 16.6228Z" fill="white"/>
<path d="M38.0983 15.0044H37.2375C37.1165 14.9892 36.9938 15.0135 36.8884 15.0735C36.7829 15.1334 36.7006 15.2257 36.6541 15.336L35 19H36.1697C36.1697 19 36.3609 18.5072 36.404 18.399H37.8307C37.864 18.5393 37.9664 18.9983 37.9664 18.9983H39L38.0983 15.0044ZM36.725 17.5825C36.771 17.4668 37.2255 16.3246 37.3164 16.0828C37.4667 16.7719 37.3203 16.1032 37.6493 17.5825H36.725Z" fill="white"/>
<path d="M28.8419 15.0056L27.7709 17.7334L27.6569 17.1791L27.2735 15.341C27.2456 15.2345 27.18 15.1417 27.0888 15.0796C26.9977 15.0175 26.8871 14.9903 26.7774 15.0031H25.0138L25 15.0866C25.401 15.1809 25.7874 15.3286 26.1489 15.5257L27.121 19H28.2783L30 15.0073L28.8419 15.0056Z" fill="white"/>
<path d="M25.6967 7.43854C25.1243 7.43854 24.5648 7.60827 24.0889 7.92627C23.613 8.24428 23.242 8.69627 23.023 9.22509C22.8039 9.75391 22.7466 10.3358 22.8583 10.8972C22.97 11.4586 23.2456 11.9743 23.6503 12.379C24.0551 12.7838 24.5707 13.0594 25.1321 13.1711C25.6935 13.2827 26.2754 13.2254 26.8042 13.0064C27.3331 12.7873 27.7851 12.4164 28.1031 11.9405C28.4211 11.4645 28.5908 10.905 28.5908 10.3326C28.5908 9.56505 28.2859 8.82893 27.7431 8.28619C27.2004 7.74345 26.4643 7.43854 25.6967 7.43854ZM25.6967 12.1408C25.3391 12.1408 24.9895 12.0347 24.6922 11.836C24.3948 11.6373 24.1631 11.3549 24.0262 11.0246C23.8894 10.6942 23.8536 10.3306 23.9233 9.97985C23.9931 9.6291 24.1653 9.30692 24.4182 9.05404C24.6711 8.80117 24.9932 8.62896 25.344 8.55919C25.6947 8.48942 26.0583 8.52523 26.3887 8.66208C26.7191 8.79894 27.0015 9.03069 27.2002 9.32804C27.3988 9.62539 27.5049 9.97498 27.5049 10.3326C27.5049 10.57 27.4581 10.8052 27.3673 11.0246C27.2764 11.2439 27.1432 11.4433 26.9753 11.6112C26.8074 11.7791 26.6081 11.9122 26.3887 12.0031C26.1693 12.094 25.9342 12.1408 25.6967 12.1408Z" fill="white"/>
<path d="M14.5619 7.43854C14.4018 7.43854 14.2482 7.50216 14.1349 7.6154C14.0217 7.72864 13.9581 7.88223 13.9581 8.04238V8.07452C13.5971 7.78518 13.1721 7.58658 12.7186 7.49536C12.2651 7.40414 11.7963 7.42297 11.3515 7.55026C10.9068 7.67756 10.4991 7.90961 10.1625 8.22696C9.82592 8.54432 9.57032 8.93773 9.41713 9.37423C9.26395 9.81073 9.21762 10.2776 9.28205 10.7357C9.34648 11.1938 9.51978 11.6297 9.78743 12.007C10.0551 12.3843 10.4093 12.692 10.8203 12.9042C11.2314 13.1164 11.6873 13.227 12.1499 13.2267C12.8076 13.2277 13.4458 13.0032 13.9581 12.5907V13.2267H15.044V7.43854H14.5619ZM12.1499 12.1408C11.7923 12.1408 11.4427 12.0347 11.1454 11.836C10.848 11.6373 10.6162 11.3549 10.4794 11.0245C10.3425 10.6942 10.3067 10.3306 10.3765 9.97985C10.4463 9.6291 10.6185 9.30692 10.8714 9.05404C11.1242 8.80117 11.4464 8.62896 11.7972 8.55919C12.1479 8.48942 12.5115 8.52523 12.8419 8.66208C13.1723 8.79894 13.4547 9.03069 13.6533 9.32804C13.852 9.62539 13.9581 9.97498 13.9581 10.3326C13.9576 10.812 13.767 11.2717 13.428 11.6107C13.089 11.9497 12.6293 12.1403 12.1499 12.1408Z" fill="white"/>
<path d="M38.5178 7.43854C38.3577 7.43854 38.2041 7.50216 38.0908 7.6154C37.9776 7.72864 37.914 7.88224 37.914 8.04238V8.07452C37.4884 7.7334 36.9752 7.51946 36.4333 7.45736C35.8915 7.39526 35.3431 7.48754 34.8514 7.72355C34.3598 7.95956 33.9448 8.3297 33.6543 8.79131C33.3639 9.25292 33.2097 9.78721 33.2097 10.3326C33.2097 10.878 33.3639 11.4123 33.6543 11.8739C33.9448 12.3355 34.3598 12.7056 34.8514 12.9417C35.3431 13.1777 35.8915 13.2699 36.4333 13.2078C36.9752 13.1457 37.4884 12.9318 37.914 12.5907V13.2267H38.9999V7.43854H38.5178ZM36.1075 12.1408C35.7499 12.1408 35.4003 12.0347 35.1029 11.836C34.8056 11.6373 34.5738 11.3549 34.437 11.0246C34.3001 10.6942 34.2643 10.3306 34.3341 9.97985C34.4039 9.6291 34.5761 9.30692 34.8289 9.05404C35.0818 8.80117 35.404 8.62896 35.7548 8.55919C36.1055 8.48942 36.4691 8.52523 36.7995 8.66208C37.1299 8.79894 37.4122 9.03069 37.6109 9.32804C37.8096 9.62539 37.9157 9.97498 37.9157 10.3326C37.9157 10.5701 37.8689 10.8052 37.778 11.0246C37.6872 11.2439 37.554 11.4433 37.3861 11.6112C37.2182 11.7791 37.0188 11.9122 36.7995 12.0031C36.5801 12.094 36.345 12.1408 36.1075 12.1408Z" fill="white"/>
<path d="M21.3091 7.43854C21.2298 7.43854 21.1514 7.45417 21.0782 7.48454C21.0051 7.5149 20.9386 7.55941 20.8827 7.6155C20.8267 7.6716 20.7824 7.73818 20.7523 7.81143C20.7221 7.88468 20.7067 7.96317 20.7069 8.04238V8.07452C20.2814 7.7334 19.7681 7.51946 19.2263 7.45736C18.6844 7.39526 18.1361 7.48754 17.6444 7.72355C17.1527 7.95956 16.7377 8.3297 16.4473 8.79131C16.1568 9.25292 16.0027 9.78721 16.0027 10.3326C16.0027 10.878 16.1568 11.4123 16.4473 11.8739C16.7377 12.3355 17.1527 12.7056 17.6444 12.9417C18.1361 13.1777 18.6844 13.2699 19.2263 13.2078C19.7681 13.1457 20.2814 12.9318 20.7069 12.5907V12.6042C20.7134 13.057 20.5536 13.4965 20.2577 13.8394C19.9619 14.1823 19.5506 14.4048 19.1017 14.4648C18.9005 14.487 18.697 14.4755 18.4996 14.431C18.4013 14.4072 18.2978 14.4171 18.2058 14.4591C18.1138 14.5011 18.0386 14.5728 17.9921 14.6627L17.6725 15.2885C18.1737 15.524 18.7322 15.6098 19.281 15.5355C19.9836 15.4295 20.6243 15.0734 21.0852 14.5326C21.5461 13.9919 21.7962 13.3029 21.7894 12.5924V7.43854H21.3091ZM18.8971 12.1408C18.5395 12.1404 18.1901 12.0341 17.893 11.8352C17.5958 11.6363 17.3643 11.3538 17.2277 11.0234C17.0912 10.693 17.0556 10.3294 17.1255 9.97881C17.1955 9.62818 17.3678 9.30615 17.6208 9.05345C17.8737 8.80074 18.1959 8.6287 18.5466 8.55907C18.8973 8.48944 19.2608 8.52534 19.5911 8.66225C19.9214 8.79915 20.2037 9.03091 20.4023 9.32822C20.6009 9.62553 20.7069 9.97505 20.7069 10.3326C20.7065 10.8123 20.5156 11.2722 20.1762 11.6113C19.8369 11.9503 19.3768 12.1408 18.8971 12.1408Z" fill="white"/>
<path d="M32.4658 7.43854C31.8081 7.4375 31.1699 7.66197 30.6577 8.07452V7.43854H30.1756C30.0155 7.43854 29.8619 7.50216 29.7486 7.6154C29.6354 7.72865 29.5718 7.88224 29.5718 8.04239V13.2267H30.6577V10.3326C30.6581 9.85319 30.8488 9.39354 31.1878 9.05454C31.5268 8.71554 31.9864 8.5249 32.4658 8.52445C32.5697 8.52451 32.6733 8.53414 32.7754 8.5532L33.0528 7.49774C32.8596 7.45821 32.663 7.43837 32.4658 7.43854Z" fill="white"/>
</svg>
