<svg width="32" height="32" viewBox="0 0 32 32" fill="none" xmlns="http://www.w3.org/2000/svg">
<path d="M3.2002 16.0002C3.2002 18.5318 3.9509 21.0065 5.35739 23.1115C6.76387 25.2164 8.76295 26.8571 11.1018 27.8259C13.4407 28.7947 16.0144 29.0481 18.4974 28.5543C20.9803 28.0604 23.2611 26.8413 25.0512 25.0512C26.8413 23.2611 28.0604 20.9803 28.5543 18.4974C29.0481 16.0144 28.7947 13.4407 27.8259 11.1018C26.8571 8.76295 25.2164 6.76387 23.1115 5.35739C21.0065 3.9509 18.5318 3.2002 16.0002 3.2002C12.6054 3.2002 9.3497 4.54876 6.94923 6.94923C4.54876 9.3497 3.2002 12.6054 3.2002 16.0002Z" fill="#FF7452"/>
<path d="M20.5255 13.2849L17.8102 16.0002L20.5255 18.7155C20.7655 18.9555 20.9004 19.2811 20.9004 19.6206C20.9004 19.9601 20.7655 20.2856 20.5255 20.5257C20.2854 20.7657 19.9599 20.9006 19.6204 20.9006C19.2809 20.9006 18.9553 20.7657 18.7153 20.5257L16 17.8104L13.2847 20.5257C13.0447 20.7657 12.7191 20.9006 12.3796 20.9006C12.0401 20.9006 11.7146 20.7657 11.4745 20.5257C11.2345 20.2856 11.0996 19.9601 11.0996 19.6206C11.0996 19.2811 11.2345 18.9555 11.4745 18.7155L14.1898 16.0002L11.4745 13.2849C11.2345 13.0448 11.0996 12.7193 11.0996 12.3798C11.0996 12.0403 11.2345 11.7147 11.4745 11.4747C11.7146 11.2347 12.0401 11.0998 12.3796 11.0998C12.7191 11.0998 13.0447 11.2347 13.2847 11.4747L16 14.19L18.7153 11.4747C18.9553 11.2347 19.2809 11.0998 19.6204 11.0998C19.9599 11.0998 20.2854 11.2347 20.5255 11.4747C20.7655 11.7147 20.9004 12.0403 20.9004 12.3798C20.9004 12.7193 20.7655 13.0448 20.5255 13.2849Z" fill="white"/>
</svg>
