<svg width="32" height="32" viewBox="0 0 32 32" fill="none" xmlns="http://www.w3.org/2000/svg">
<path d="M15.3332 1.6001C6.87793 1.6001 0 7.28204 0 14.2666C0 21.2512 6.87793 26.9332 15.3332 26.9332C16.7 26.9326 18.0625 26.7789 19.3951 26.4752L27.0857 29.5525C27.1927 29.5952 27.3089 29.6095 27.423 29.594C27.5371 29.5785 27.6453 29.5337 27.7369 29.4639C27.8286 29.3941 27.9006 29.3018 27.9459 29.196C27.9913 29.0901 28.0084 28.9743 27.9957 28.8598L27.2584 22.2259C29.3975 20.1246 30.622 17.2648 30.6664 14.2666C30.6664 7.28204 23.7884 1.6001 15.3332 1.6001Z" fill="#F4F6F7"/>
<path d="M16.8573 6.2666L16.0953 17.3138H14.5713L13.8093 6.2666H16.8573Z" fill="#2697FF"/>
<path d="M15.333 22.9331C16.4375 22.9331 17.333 22.0376 17.333 20.9331C17.333 19.8285 16.4375 18.9331 15.333 18.9331C14.2284 18.9331 13.333 19.8285 13.333 20.9331C13.333 22.0376 14.2284 22.9331 15.333 22.9331Z" fill="#2697FF"/>
</svg>
