<svg width="31" height="29" viewBox="0 0 31 29" fill="none" xmlns="http://www.w3.org/2000/svg">
<path d="M15.3332 0.599976C6.87793 0.599976 0 6.28192 0 13.2665C0 20.2511 6.87793 25.9331 15.3332 25.9331C16.7 25.9324 18.0625 25.7788 19.3951 25.4751L27.0857 28.5524C27.1927 28.5951 27.3089 28.6094 27.423 28.5939C27.5371 28.5784 27.6453 28.5335 27.7369 28.4638C27.8286 28.394 27.9006 28.3017 27.9459 28.1959C27.9913 28.09 28.0084 27.9742 27.9957 27.8597L27.2584 21.2258C29.3975 19.1245 30.622 16.2647 30.6664 13.2665C30.6664 6.28192 23.7884 0.599976 15.3332 0.599976Z" fill="#F4F6F7"/>
<path d="M16.8566 5.2666L16.0946 16.3138H14.5706L13.8086 5.2666H16.8566Z" fill="#2697FF"/>
<path d="M15.334 21.9331C16.4385 21.9331 17.3339 21.0376 17.3339 19.9331C17.3339 18.8285 16.4385 17.9331 15.334 17.9331C14.2294 17.9331 13.334 18.8285 13.334 19.9331C13.334 21.0376 14.2294 21.9331 15.334 21.9331Z" fill="#2697FF"/>
</svg>
