<svg width="48" height="28" viewBox="0 0 48 28" fill="none" xmlns="http://www.w3.org/2000/svg">
<path d="M40.5217 0H7.47826C6.10943 0 5 0.948 5 2.11765V21.8824C5 23.052 6.10943 24 7.47826 24H40.5217C41.8906 24 43 23.052 43 21.8824V2.11765C43 0.948 41.8906 0 40.5217 0Z" fill="#007AC6"/>
<path d="M15.4945 12.2574H16.9661L16.2303 10.5432L15.4945 12.2574ZM36 9H32.2301L31.3105 9.9426L30.4825 9H22.4829L21.7472 10.5426L21.0114 9H17.7928V9.6858L17.4253 9H14.6665L12 15H15.2185L15.5861 14.0574H16.5057L16.8733 15H20.4594V14.3142L20.7354 15H22.5745L22.8505 14.2284V15H30.2072L31.1267 14.0574L31.9541 15H35.724L33.3335 12L36 9ZM24.8735 14.1426H23.8617V10.8L22.2985 14.1426H21.3789L19.8158 10.8V14.1426H17.7006L17.3331 13.2H15.1263L14.7587 14.1426H13.5632L15.4939 9.8568H17.0571L18.804 13.8852V9.8568H20.5509L21.9303 12.771L23.2175 9.8568H24.9644V14.1426H24.8735ZM33.9771 14.1426H32.5977L31.4021 12.6852L30.0227 14.1426H25.8846V9.8568H30.1143L31.4015 11.2284L32.7808 9.8568H34.068L32.0457 12L33.9771 14.1426ZM26.8964 10.7142V11.4858H29.1954V12.3432H26.8964V13.2H29.4714L30.6669 11.9142L29.5636 10.7142H26.8964Z" fill="white"/>
</svg>
