<svg width="48" height="28" viewBox="0 0 48 28" fill="none" xmlns="http://www.w3.org/2000/svg">
<rect x="5" width="38" height="24" rx="2" fill="#4FAD5F"/>
<path d="M19.6222 5.59985C19.192 5.59985 18.7794 5.77436 18.4752 6.08498C18.1711 6.39561 18.0002 6.81691 18.0002 7.2562V17.9199H28.4427C28.8728 17.9199 29.2854 17.7454 29.5896 17.4348C29.8937 17.1241 30.0646 16.7028 30.0646 16.2636V5.59985H19.6222ZM27.2731 14.5288L20.7917 15.7099V9.01931L27.2731 7.84106V14.5288Z" fill="#233E98"/>
<rect x="23" y="19" width="20" height="9" rx="4.5" fill="#F9FAFB"/>
<path d="M29.4561 23.6287H30.0692L29.7626 22.7716L29.4561 23.6287ZM38 22H36.4292L36.0461 22.4713L35.7011 22H32.3679L32.0613 22.7713L31.7547 22H30.4137V22.3429L30.2605 22H29.1111L28 25H29.3411L29.4942 24.5287H29.8774L30.0305 25H31.5247V24.6571L31.6397 25H32.4061L32.5211 24.6142V25H35.5863L35.9695 24.5287L36.3142 25H37.885L36.8889 23.5L38 22ZM33.3639 24.5713H32.9424V22.9L32.2911 24.5713H31.9079L31.2566 22.9V24.5713H30.3753L30.2221 24.1H29.3026L29.1495 24.5713H28.6513L29.4558 22.4284H30.1071L30.835 24.4426V22.4284H31.5629L32.1376 23.8855L32.6739 22.4284H33.4018V24.5713H33.3639ZM37.1571 24.5713H36.5824L36.0842 23.8426L35.5095 24.5713H33.7853V22.4284H35.5476L36.0839 23.1142L36.6587 22.4284H37.195L36.3524 23.5L37.1571 24.5713ZM34.2068 22.8571V23.2429H35.1647V23.6716H34.2068V24.1H35.2797L35.7779 23.4571L35.3182 22.8571H34.2068Z" fill="#007AC6"/>
</svg>
