<svg width="40" height="40" viewBox="0 0 40 40" fill="none" xmlns="http://www.w3.org/2000/svg">
<circle cx="20" cy="20" r="20" fill="#F1F3F5"/>
<path fill-rule="evenodd" clip-rule="evenodd" d="M22.8017 14.1556L14.1445 22.7964C12.1082 21.7222 10.7214 19.5828 10.7244 17.1207C10.7288 13.5839 13.5995 10.7204 17.1363 10.7248C19.5971 10.7279 21.7319 12.1185 22.8017 14.1556Z" fill="#EEC200"/>
<line x1="8.62451" y1="32.2346" x2="31.7096" y2="9.1495" stroke="#D5DCE1" stroke-width="1.5" stroke-linecap="round" stroke-linejoin="round"/>
<path fill-rule="evenodd" clip-rule="evenodd" d="M32.9997 28.4331C32.1352 28.9111 31.1409 29.1832 30.0831 29.1832C26.7493 29.1832 24.0467 26.4806 24.0467 23.1468C24.0467 22.2891 24.2256 21.4731 24.548 20.7343C22.6879 21.7628 21.4282 23.7446 21.4282 26.0206C21.4282 29.3544 24.1308 32.057 27.4647 32.057C29.9408 32.057 32.0687 30.5662 32.9997 28.4331Z" fill="#0065FF"/>
<line x1="16.2729" y1="8.39941" x2="16.2729" y2="6.74996" stroke="#EEC200" stroke-width="1.5" stroke-linecap="round" stroke-linejoin="round"/>
<line x1="22.2729" y1="10.7144" x2="23.4393" y2="9.54803" stroke="#EEC200" stroke-width="1.5" stroke-linecap="round" stroke-linejoin="round"/>
<line x1="10.1893" y1="11.775" x2="9.023" y2="10.6087" stroke="#EEC200" stroke-width="1.5" stroke-linecap="round" stroke-linejoin="round"/>
<line x1="8.39941" y1="17.7732" x2="6.74996" y2="17.7732" stroke="#EEC200" stroke-width="1.5" stroke-linecap="round" stroke-linejoin="round"/>
<line x1="11.25" y1="23.8583" x2="10.0837" y2="25.0246" stroke="#EEC200" stroke-width="1.5" stroke-linecap="round" stroke-linejoin="round"/>
</svg>
