<svg width="6" height="12" viewBox="0 0 6 12" fill="none" xmlns="http://www.w3.org/2000/svg">
<path d="M1.47658 6.00397L5.82821 1.69595L5.88288 1.63509C5.96859 1.51722 6.00942 1.37314 5.99817 1.22834C5.98692 1.08353 5.92433 0.947339 5.82142 0.843833C5.70619 0.730263 5.55021 0.666504 5.38761 0.666504C5.22502 0.666504 5.06903 0.730263 4.95381 0.843833L0.171785 5.5779L0.117122 5.63877C0.0314122 5.75664 -0.00941948 5.90071 0.00183224 6.04552C0.013084 6.19033 0.0757124 6.32652 0.178623 6.43002L4.96065 11.1641L5.02211 11.2182C5.12811 11.2922 5.25448 11.3323 5.38419 11.3332C5.46675 11.3334 5.54854 11.3174 5.62478 11.2861C5.70102 11.2547 5.77015 11.2087 5.82821 11.1506L5.88288 11.0897C5.96859 10.9718 6.00942 10.8278 5.99817 10.683C5.98692 10.5382 5.92433 10.4019 5.82142 10.2984L1.47658 6.00397Z" fill="#6C6FF2"/>
</svg>
