<svg width="24" height="24" viewBox="0 0 24 24" fill="none" xmlns="http://www.w3.org/2000/svg">
<path fill="currentColor" d="M14.2851 11.9938L7.75768 18.4558L7.67568 18.5471C7.54712 18.7239 7.48587 18.94 7.50275 19.1573C7.51963 19.3745 7.61351 19.5787 7.76787 19.734C7.94071 19.9044 8.17468 20 8.41858 20C8.66247 20 8.89645 19.9044 9.06929 19.734L16.2423 12.6329L16.3243 12.5416C16.4529 12.3648 16.5141 12.1487 16.4973 11.9315C16.4804 11.7143 16.3864 11.51 16.2321 11.3547L9.05903 4.25361L8.96684 4.17244C8.80783 4.06142 8.61828 4.00125 8.42371 4C8.29988 3.99959 8.17719 4.02359 8.06283 4.07062C7.94847 4.11765 7.84477 4.18674 7.75768 4.27389L7.67568 4.36519C7.54712 4.54199 7.48587 4.75811 7.50275 4.97532C7.51963 5.19252 7.61351 5.39684 7.76787 5.5521L14.2851 11.9938Z"/>
</svg>
