<svg width="24" height="24" viewBox="0 0 24 24" fill="none" xmlns="http://www.w3.org/2000/svg">
<path d="M9.71486 12.0062L16.2423 5.54417L16.3243 5.45288C16.4529 5.27607 16.5141 5.05996 16.4973 4.84275C16.4804 4.62554 16.3865 4.42125 16.2321 4.26599C16.0593 4.09564 15.8253 4 15.5814 4C15.3375 4 15.1036 4.09564 14.9307 4.26599L7.75768 11.3671L7.67568 11.4584C7.54712 11.6352 7.48587 11.8513 7.50275 12.0685C7.51963 12.2857 7.61357 12.49 7.76793 12.6453L14.941 19.7464L15.0332 19.8276C15.1922 19.9386 15.3817 19.9987 15.5763 20C15.7001 20.0004 15.8228 19.9764 15.9372 19.9294C16.0515 19.8824 16.1552 19.8133 16.2423 19.7261L16.3243 19.6348C16.4529 19.458 16.5141 19.2419 16.4973 19.0247C16.4804 18.8075 16.3865 18.6032 16.2321 18.4479L9.71486 12.0062Z" fill="#2F3A51"/>
</svg>
