<svg width="40" height="40" viewBox="0 0 40 40" fill="none" xmlns="http://www.w3.org/2000/svg">
<path d="M20.0002 39.1667C30.5856 39.1667 39.1668 30.5855 39.1668 20C39.1668 9.41458 30.5856 0.833374 20.0002 0.833374C9.41471 0.833374 0.833496 9.41458 0.833496 20C0.833496 30.5855 9.41471 39.1667 20.0002 39.1667Z" fill="#DBE9FF"/>
<path fill-rule="evenodd" clip-rule="evenodd" d="M31.8976 29.3767L24.1668 25.8334V19.7827H15.8334V25.8334L8.10258 29.3767C6.84749 29.9519 5.8338 31.5325 5.8335 32.9091C9.33885 36.7537 14.3876 39.1668 20.0001 39.1668C25.6127 39.1668 30.6614 36.7537 34.1667 32.9091C34.1664 31.5345 33.1507 29.951 31.8976 29.3767Z" fill="#405261"/>
<path fill-rule="evenodd" clip-rule="evenodd" d="M20.0002 24.1667C16.3183 24.1667 13.3335 21.1819 13.3335 17.5V15C13.3335 11.3181 16.3183 8.33337 20.0002 8.33337C23.6821 8.33337 26.6668 11.3181 26.6668 15V17.5C26.6668 21.1819 23.6821 24.1667 20.0002 24.1667Z" fill="#748494"/>
</svg>
