<svg width="32" height="32" viewBox="0 0 32 32" fill="none" xmlns="http://www.w3.org/2000/svg">
<path d="M25.9554 29.6001H6.04425C5.35669 29.6001 4.7998 29.0553 4.7998 28.3827V8.9044C4.7998 8.23179 5.35669 7.68701 6.04425 7.68701H25.9554C26.6429 7.68701 27.1998 8.23179 27.1998 8.9044V28.3827C27.1998 29.0553 26.6429 29.6001 25.9554 29.6001Z" fill="#F4F6F7"/>
<path d="M19.1997 26.4001C19.1997 27.3494 19.4812 28.2775 20.0087 29.0668C20.5361 29.8562 21.2857 30.4714 22.1628 30.8347C23.0399 31.198 24.005 31.2931 24.9361 31.1079C25.8673 30.9227 26.7225 30.4655 27.3938 29.7942C28.0651 29.1229 28.5223 28.2676 28.7075 27.3365C28.8927 26.4054 28.7976 25.4403 28.4343 24.5632C28.071 23.6861 27.4558 22.9365 26.6664 22.409C25.8771 21.8816 24.9491 21.6001 23.9997 21.6001C22.7267 21.6001 21.5058 22.1058 20.6056 23.006C19.7054 23.9062 19.1997 25.1271 19.1997 26.4001Z" fill="#D35530"/>
<path d="M25.6966 25.3819L24.6783 26.4001L25.6966 27.4183C25.7866 27.5083 25.8372 27.6304 25.8372 27.7577C25.8372 27.885 25.7866 28.0071 25.6966 28.0972C25.6066 28.1872 25.4845 28.2377 25.3572 28.2377C25.2299 28.2377 25.1078 28.1872 25.0177 28.0972L23.9995 27.0789L22.9813 28.0972C22.8913 28.1872 22.7692 28.2377 22.6419 28.2377C22.5146 28.2377 22.3925 28.1872 22.3025 28.0972C22.2124 28.0071 22.1619 27.885 22.1619 27.7577C22.1619 27.6304 22.2124 27.5083 22.3025 27.4183L23.3207 26.4001L22.3025 25.3819C22.2124 25.2918 22.1619 25.1698 22.1619 25.0424C22.1619 24.9151 22.2124 24.7931 22.3025 24.703C22.3925 24.613 22.5146 24.5624 22.6419 24.5624C22.7692 24.5624 22.8913 24.613 22.9813 24.703L23.9995 25.7213L25.0177 24.703C25.1078 24.613 25.2299 24.5624 25.3572 24.5624C25.4845 24.5624 25.6066 24.613 25.6966 24.703C25.7866 24.7931 25.8372 24.9151 25.8372 25.0424C25.8372 25.1698 25.7866 25.2918 25.6966 25.3819Z" fill="white"/>
<path d="M11.0219 13.774C12.0529 13.774 12.8886 12.9564 12.8886 11.9479C12.8886 10.9394 12.0529 10.1218 11.0219 10.1218C9.99101 10.1218 9.15527 10.9394 9.15527 11.9479C9.15527 12.9564 9.99101 13.774 11.0219 13.774Z" fill="#6478A6"/>
<path d="M20.9775 13.774C22.0084 13.774 22.8442 12.9564 22.8442 11.9479C22.8442 10.9394 22.0084 10.1218 20.9775 10.1218C19.9466 10.1218 19.1108 10.9394 19.1108 11.9479C19.1108 12.9564 19.9466 13.774 20.9775 13.774Z" fill="#6478A6"/>
<path d="M20.9777 11.7566C20.6336 11.7566 20.3555 11.4839 20.3555 11.1479V6.27831C20.3555 3.92874 18.4011 2.01744 15.9999 2.01744C13.5987 2.01744 11.6443 3.92874 11.6443 6.27831V11.1479C11.6443 11.4839 11.3662 11.7566 11.0221 11.7566C10.678 11.7566 10.3999 11.4839 10.3999 11.1479V6.27831C10.3999 3.25796 12.9118 0.800049 15.9999 0.800049C19.088 0.800049 21.5999 3.25796 21.5999 6.27831V11.1479C21.5999 11.4839 21.3218 11.7566 20.9777 11.7566Z" fill="#16A2FF"/>
</svg>
