<svg width="24" height="25" viewBox="0 0 24 25" fill="none" xmlns="http://www.w3.org/2000/svg">
<path fill-rule="evenodd" clip-rule="evenodd" d="M11.9879 2.43896C14.6017 2.43896 16.761 4.43062 17.0273 6.97789L17.1016 6.97877C18.5516 6.97877 20.3146 7.94176 20.9096 10.6428L21.6986 16.7498C21.9816 18.7208 21.6276 20.3018 20.6446 21.4358C19.6666 22.5638 18.1186 23.1608 16.1676 23.1608H7.81956C5.67656 23.1608 4.18356 22.6358 3.25456 21.5568C2.32156 20.4748 2.00956 18.8518 2.32756 16.7338L3.10356 10.7078C3.61356 7.94476 5.47856 6.97877 6.92256 6.97877C7.04722 5.82924 7.56556 4.73567 8.38786 3.91596C9.33286 2.97696 10.6359 2.43896 11.9669 2.43896H11.9879ZM17.1016 8.47877H6.92256C6.48156 8.47877 5.00756 8.65676 4.58456 10.9408L3.81256 16.9408C3.56156 18.6238 3.75556 19.8418 4.39056 20.5788C5.01756 21.3068 6.13956 21.6608 7.81956 21.6608H16.1676C17.2156 21.6608 18.6466 21.4518 19.5106 20.4538C20.1966 19.6628 20.4326 18.4848 20.2126 16.9518L19.4336 10.8998C19.1016 9.40876 18.2256 8.47877 17.1016 8.47877ZM14.9044 11.2629C15.3184 11.2629 15.6774 11.5989 15.6774 12.0129C15.6774 12.4269 15.3644 12.7629 14.9504 12.7629H14.9044C14.4904 12.7629 14.1544 12.4269 14.1544 12.0129C14.1544 11.5989 14.4904 11.2629 14.9044 11.2629ZM9.07426 11.2629C9.48826 11.2629 9.84726 11.5989 9.84726 12.0129C9.84726 12.4269 9.53326 12.7629 9.11926 12.7629H9.07426C8.66026 12.7629 8.32426 12.4269 8.32426 12.0129C8.32426 11.5989 8.66026 11.2629 9.07426 11.2629ZM11.9849 3.93896H11.9699C11.0289 3.93896 10.1119 4.31796 9.44686 4.97896C8.90516 5.51823 8.55088 6.22716 8.43628 6.9783L15.5156 6.97858C15.2586 5.26034 13.7728 3.93896 11.9849 3.93896Z" fill="#1D2B36"/>
</svg>
