<svg width="40" height="40" viewBox="0 0 40 40" fill="none" xmlns="http://www.w3.org/2000/svg">
<path d="M37.5002 37.4999H2.50016C1.57933 37.4999 0.833496 36.7541 0.833496 35.8333V7.49992C0.833496 6.57909 1.57933 5.83325 2.50016 5.83325H37.5002C38.421 5.83325 39.1668 6.57909 39.1668 7.49992V35.8333C39.1668 36.7541 38.421 37.4999 37.5002 37.4999Z" fill="#0065FF"/>
<path d="M20 33.3333C20 33.3333 15.9833 31.7533 5.83333 31.67C5.375 31.6667 5 31.2967 5 30.8383V5C15.7642 5 20 6.66667 20 6.66667V33.3333Z" fill="#003D99"/>
<path d="M20 33.3333C20 33.3333 24.0167 31.7533 34.1667 31.67C34.625 31.6667 35 31.2967 35 30.8375V5C24.2358 5 20 6.66667 20 6.66667V33.3333Z" fill="#003D99"/>
<path d="M20.0002 32.5C20.0002 32.5 14.4002 29.3375 4.16183 29.1733C3.706 29.1658 3.3335 28.8 3.3335 28.3441V3.34413C3.3335 2.87996 3.71933 2.49913 4.1835 2.50746C14.4077 2.67496 20.0002 5.83329 20.0002 5.83329V32.5Z" fill="#D5DCE1"/>
<path d="M20 32.5C20 32.5 25.6 29.3375 35.8383 29.1733C36.2942 29.1658 36.6667 28.8 36.6667 28.3441V3.34413C36.6667 2.87996 36.2808 2.49913 35.8167 2.50746C25.5925 2.67496 20 5.83329 20 5.83329V32.5Z" fill="#E5E9EC"/>
</svg>
