<svg width="40" height="40" viewBox="0 0 40 40" fill="none" xmlns="http://www.w3.org/2000/svg">
<path d="M1.6665 34.1667C1.6665 34.6087 1.8421 35.0326 2.15466 35.3452C2.46722 35.6577 2.89114 35.8333 3.33317 35.8333H35.8332C36.4962 35.8333 37.1321 35.5699 37.6009 35.1011C38.0698 34.6323 38.3332 33.9964 38.3332 33.3333V12.5H1.6665V34.1667Z" fill="#E5E9EC"/>
<path d="M36.6665 4.16675H3.33317C2.89114 4.16675 2.46722 4.34234 2.15466 4.6549C1.8421 4.96746 1.6665 5.39139 1.6665 5.83341V12.5001H38.3332V5.83341C38.3332 5.39139 38.1576 4.96746 37.845 4.6549C37.5325 4.34234 37.1085 4.16675 36.6665 4.16675Z" fill="#1265E5"/>
<path d="M8.33301 8.33337V1.66671C8.33301 1.44569 8.42081 1.23373 8.57709 1.07745C8.73337 0.921171 8.94533 0.833374 9.16634 0.833374H10.833C11.054 0.833374 11.266 0.921171 11.4223 1.07745C11.5785 1.23373 11.6663 1.44569 11.6663 1.66671V8.33337C11.6663 8.55439 11.5785 8.76635 11.4223 8.92263C11.266 9.07891 11.054 9.16671 10.833 9.16671H9.16634C8.94533 9.16671 8.73337 9.07891 8.57709 8.92263C8.42081 8.76635 8.33301 8.55439 8.33301 8.33337Z" fill="#1D2B36"/>
<path d="M28.333 8.33337V1.66671C28.333 1.44569 28.4208 1.23373 28.5771 1.07745C28.7334 0.921171 28.9453 0.833374 29.1663 0.833374H30.833C31.054 0.833374 31.266 0.921171 31.4223 1.07745C31.5785 1.23373 31.6663 1.44569 31.6663 1.66671V8.33337C31.6663 8.55439 31.5785 8.76635 31.4223 8.92263C31.266 9.07891 31.054 9.16671 30.833 9.16671H29.1663C28.9453 9.16671 28.7334 9.07891 28.5771 8.92263C28.4208 8.76635 28.333 8.55439 28.333 8.33337Z" fill="#1D2B36"/>
<path d="M30.8333 39.1667C32.4815 39.1667 34.0927 38.6779 35.4631 37.7623C36.8335 36.8466 37.9016 35.5451 38.5323 34.0224C39.1631 32.4996 39.3281 30.8241 39.0065 29.2076C38.685 27.5911 37.8913 26.1062 36.7259 24.9408C35.5605 23.7753 34.0756 22.9817 32.4591 22.6601C30.8426 22.3386 29.167 22.5036 27.6443 23.1343C26.1216 23.7651 24.8201 24.8332 23.9044 26.2036C22.9887 27.574 22.5 29.1852 22.5 30.8333C22.5 33.0435 23.378 35.1631 24.9408 36.7259C26.5036 38.2887 28.6232 39.1667 30.8333 39.1667Z" fill="#405261"/>
<path d="M30 26.6667C30 26.4457 30.0878 26.2337 30.2441 26.0775C30.4004 25.9212 30.6123 25.8334 30.8333 25.8334C31.0543 25.8334 31.2663 25.9212 31.4226 26.0775C31.5789 26.2337 31.6667 26.4457 31.6667 26.6667V30H35C35.221 30 35.433 30.0878 35.5893 30.2441C35.7455 30.4004 35.8333 30.6124 35.8333 30.8334C35.8333 31.0544 35.7455 31.2664 35.5893 31.4226C35.433 31.5789 35.221 31.6667 35 31.6667H30.8333C30.6123 31.6667 30.4004 31.5789 30.2441 31.4226C30.0878 31.2664 30 31.0544 30 30.8334V26.6667Z" fill="white"/>
</svg>
