<svg width="16" height="16" viewBox="0 0 16 16" fill="none" xmlns="http://www.w3.org/2000/svg">
<path fill-rule="evenodd" clip-rule="evenodd" d="M8.60567 1.45605C8.33874 1.45605 8.12234 1.67245 8.12234 1.93939C8.12234 2.20633 8.33874 2.42272 8.60567 2.42272H9.94052V4.36157C9.94052 4.36227 9.94052 4.36297 9.94052 4.36367C9.94052 4.36437 9.94052 4.36507 9.94052 4.36577V8.60606C9.94052 9.00881 9.61449 9.33484 9.21173 9.33484H7.99961C7.59685 9.33484 7.27082 9.00881 7.27082 8.60606V6.78787L7.27082 6.7861V5.57574C7.27082 4.63911 6.512 3.88029 5.57537 3.88029H2.54506C1.60843 3.88029 0.849609 4.63911 0.849609 5.57574V11.0303C0.849609 11.8132 1.37978 12.4718 2.1008 12.667C2.30001 13.7353 3.23718 14.5439 4.36324 14.5439C5.46854 14.5439 6.39185 13.7648 6.61392 12.7258H10.5974C10.8195 13.7648 11.7428 14.5439 12.8481 14.5439C14.1192 14.5439 15.1496 13.5135 15.1496 12.2424C15.1496 11.579 14.8689 10.9812 14.4199 10.5612L12.9135 6.05912H13.4542C13.7211 6.05912 13.9375 5.84273 13.9375 5.57579V3.15155C13.9375 2.88461 13.7211 2.66821 13.4542 2.66821H11.636C11.3751 2.66821 11.1279 2.7271 10.9072 2.8323V1.93939C10.9072 1.67245 10.6908 1.45605 10.4239 1.45605H8.60567ZM10.9072 4.36269C10.9072 4.36302 10.9072 4.36334 10.9072 4.36367C10.9072 4.36399 10.9072 4.36432 10.9072 4.36464C10.9077 4.76695 11.2335 5.09246 11.636 5.09246H12.9708V3.63488H11.636C11.2335 3.63488 10.9077 3.96038 10.9072 4.36269ZM10.9072 5.89503V8.60606C10.9072 9.54269 10.1484 10.3015 9.21173 10.3015H7.99961C7.06298 10.3015 6.30416 9.54269 6.30416 8.60606V7.2712H1.81628V11.0303C1.81628 11.2839 1.94562 11.5072 2.142 11.6377C2.40756 10.66 3.30143 9.94092 4.36324 9.94092C5.46855 9.94092 6.39187 10.7201 6.61392 11.7591H10.5974C10.8195 10.7201 11.7428 9.94092 12.8481 9.94092C12.9684 9.94092 13.0866 9.95016 13.202 9.96796L11.8941 6.05912H11.636C11.3751 6.05912 11.1279 6.00024 10.9072 5.89503ZM4.36324 10.9076C3.62603 10.9076 3.02839 11.5052 3.02839 12.2424C3.02839 12.9797 3.62603 13.5773 4.36324 13.5773C5.10046 13.5773 5.69809 12.9797 5.69809 12.2424C5.69809 11.5052 5.10046 10.9076 4.36324 10.9076ZM1.81628 5.57574C1.81628 5.17299 2.1423 4.84696 2.54506 4.84696H5.57537C5.97813 4.84696 6.30415 5.17299 6.30415 5.57574V6.30453H1.81628V5.57574ZM12.8481 10.9076C12.1109 10.9076 11.5132 11.5052 11.5132 12.2424C11.5132 12.9797 12.1109 13.5773 12.8481 13.5773C13.5853 13.5773 14.1829 12.9797 14.1829 12.2424C14.1829 11.5052 13.5853 10.9076 12.8481 10.9076Z" fill="#3D4852"/>
</svg>
