<svg width="23" height="22" viewBox="0 0 23 22" fill="none" xmlns="http://www.w3.org/2000/svg">
<path d="M21.276 16.6873H3.60109C3.51236 16.6875 3.42515 16.6637 3.34824 16.6184C3.27133 16.5731 3.20744 16.5079 3.163 16.4292C3.11856 16.3506 3.09514 16.2614 3.09509 16.1705C3.09505 16.0797 3.11838 15.9905 3.16275 15.9118L5.18274 12.2926C5.21475 12.232 5.25827 12.1785 5.31076 12.1354C5.36325 12.0922 5.42364 12.0602 5.48837 12.0413C5.55311 12.0224 5.62089 12.0169 5.68772 12.0252C5.75456 12.0335 5.8191 12.0553 5.87755 12.0895C5.936 12.1237 5.98719 12.1696 6.02809 12.2243C6.069 12.279 6.0988 12.3416 6.11574 12.4083C6.13269 12.475 6.13643 12.5445 6.12676 12.6127C6.11709 12.681 6.09419 12.7465 6.05941 12.8055L4.4717 15.6533H21.276C21.4099 15.6533 21.5384 15.7077 21.6331 15.8047C21.7278 15.9017 21.781 16.0332 21.781 16.1703C21.781 16.3074 21.7278 16.4389 21.6331 16.5359C21.5384 16.6328 21.4099 16.6873 21.276 16.6873Z" fill="#CBD2D9"/>
<path d="M4.61149 3.76212C4.51722 3.76264 4.42468 3.73614 4.34436 3.68561C4.26403 3.63508 4.19913 3.56254 4.15699 3.4762L3.26012 1.63457L0.975512 1.16666C0.910521 1.15308 0.848779 1.12653 0.793811 1.08852C0.738843 1.05051 0.691725 1.00179 0.655149 0.945141C0.581279 0.830727 0.554827 0.690957 0.581614 0.556576C0.608401 0.422196 0.686231 0.304214 0.797983 0.228584C0.909736 0.152955 1.04626 0.125874 1.17751 0.153299L3.70249 0.670321C3.77804 0.685619 3.84917 0.718404 3.91044 0.766167C3.9717 0.81393 4.02149 0.875406 4.05599 0.945894L5.06599 3.01398C5.10456 3.09302 5.12271 3.18087 5.1187 3.26913C5.11469 3.3574 5.08865 3.44314 5.04307 3.51817C4.99749 3.5932 4.93389 3.65502 4.85833 3.69772C4.78278 3.74043 4.69779 3.7626 4.61149 3.76212Z" fill="#CBD2D9"/>
<path d="M5.62119 17.7213C5.22167 17.7213 4.83113 17.8426 4.49894 18.0699C4.16676 18.2971 3.90785 18.6201 3.75496 18.998C3.60207 19.3759 3.56207 19.7917 3.64001 20.1929C3.71795 20.5941 3.91034 20.9626 4.19284 21.2518C4.47534 21.541 4.83527 21.738 5.22711 21.8178C5.61894 21.8976 6.0251 21.8566 6.3942 21.7001C6.76331 21.5436 7.07878 21.2785 7.30074 20.9384C7.5227 20.5983 7.64117 20.1985 7.64117 19.7894C7.64117 19.2409 7.42835 18.7149 7.04953 18.3271C6.67071 17.9392 6.15692 17.7213 5.62119 17.7213Z" fill="#3D4852"/>
<path d="M19.2555 17.7213C18.8559 17.7213 18.4654 17.8426 18.1332 18.0699C17.801 18.2971 17.5421 18.6201 17.3892 18.998C17.2363 19.3759 17.1963 19.7917 17.2743 20.1929C17.3522 20.5941 17.5446 20.9626 17.8271 21.2518C18.1096 21.541 18.4695 21.738 18.8614 21.8178C19.2532 21.8976 19.6594 21.8566 20.0285 21.7001C20.3976 21.5436 20.7131 21.2785 20.935 20.9384C21.157 20.5983 21.2755 20.1985 21.2755 19.7894C21.2755 19.2409 21.0626 18.7149 20.6838 18.3271C20.305 17.9392 19.7912 17.7213 19.2555 17.7213Z" fill="#3D4852"/>
<path d="M5.62132 20.8235C6.17913 20.8235 6.63132 20.3606 6.63132 19.7895C6.63132 19.2184 6.17913 18.7554 5.62132 18.7554C5.06352 18.7554 4.61133 19.2184 4.61133 19.7895C4.61133 20.3606 5.06352 20.8235 5.62132 20.8235Z" fill="white"/>
<path d="M19.256 20.8235C19.8138 20.8235 20.266 20.3606 20.266 19.7895C20.266 19.2184 19.8138 18.7554 19.256 18.7554C18.6982 18.7554 18.246 19.2184 18.246 19.7895C18.246 20.3606 18.6982 20.8235 19.256 20.8235Z" fill="white"/>
<path d="M20.2659 13.0682H5.62096C5.49664 13.0682 5.37669 13.0213 5.28407 12.9363C5.19145 12.8514 5.13267 12.7345 5.11899 12.608L4.109 3.30163C4.10046 3.2254 4.1086 3.14818 4.13284 3.07557C4.15707 3.00296 4.19678 2.93678 4.24909 2.88184C4.3014 2.82689 4.36501 2.78456 4.43529 2.75791C4.50556 2.73125 4.58076 2.72095 4.65541 2.72774L21.8253 4.2788C21.896 4.28517 21.9646 4.30672 22.0266 4.34205C22.0886 4.37738 22.1427 4.4257 22.1852 4.48385C22.2278 4.542 22.2579 4.60867 22.2736 4.67953C22.2892 4.75039 22.2902 4.82384 22.2763 4.8951L20.7613 12.6504C20.7388 12.7681 20.6771 12.874 20.5867 12.9502C20.4964 13.0264 20.3829 13.0681 20.2659 13.0682Z" fill="#2697FF"/>
</svg>
