<svg width="20" height="20" viewBox="0 0 20 20" fill="none" xmlns="http://www.w3.org/2000/svg">
<path d="M8.00022 4.35989C8.25366 4.6162 8.2519 5.02999 7.99629 5.28413L5.16839 8.0957C4.91708 8.34556 4.51285 8.34867 4.25775 8.10271L2.70002 6.60079C2.44055 6.35062 2.43246 5.9369 2.68195 5.67673C2.93144 5.41655 3.34404 5.40844 3.6035 5.65861L4.7025 6.71824L7.0785 4.35596C7.33411 4.10182 7.74677 4.10359 8.00022 4.35989Z" fill="#9DABC9"/>
<path d="M9.12023 6.68594C9.12023 6.29922 9.43288 5.98572 9.81854 5.98572H16.8017C17.1874 5.98572 17.5 6.29922 17.5 6.68594C17.5 7.07266 17.1874 7.38616 16.8017 7.38616H9.81854C9.43288 7.38616 9.12023 7.07266 9.12023 6.68594Z" fill="#9DABC9"/>
<path d="M9.12023 14.1993C9.12023 13.8126 9.43288 13.4991 9.81854 13.4991H16.8017C17.1874 13.4991 17.5 13.8126 17.5 14.1993C17.5 14.586 17.1874 14.8995 16.8017 14.8995H9.81854C9.43288 14.8995 9.12023 14.586 9.12023 14.1993Z" fill="#9DABC9"/>
<path d="M7.99629 12.8321C8.2519 12.578 8.25366 12.1642 8.00022 11.9079C7.74677 11.6516 7.33411 11.6498 7.0785 11.904L4.7025 14.2662L3.6035 13.2066C3.34404 12.9565 2.93144 12.9646 2.68195 13.2247C2.43246 13.4849 2.44055 13.8986 2.70002 14.1488L4.25775 15.6507C4.51285 15.8967 4.91708 15.8936 5.16839 15.6437L7.99629 12.8321Z" fill="#9DABC9"/>
</svg>
