<svg width="32" height="32" viewBox="0 0 32 32" fill="none" xmlns="http://www.w3.org/2000/svg">
<path d="M3.2002 15.9992C3.2002 18.5308 3.9509 21.0056 5.35739 23.1105C6.76387 25.2155 8.76295 26.8561 11.1018 27.8249C13.4407 28.7937 16.0144 29.0472 18.4974 28.5533C20.9803 28.0594 23.2611 26.8403 25.0512 25.0502C26.8413 23.2601 28.0604 20.9793 28.5543 18.4964C29.0481 16.0134 28.7947 13.4398 27.8259 11.1009C26.8571 8.76198 25.2164 6.76289 23.1115 5.35641C21.0065 3.94993 18.5318 3.19922 16.0002 3.19922C12.6066 3.20295 9.353 4.55271 6.95335 6.95237C4.55369 9.35203 3.20392 12.6056 3.2002 15.9992Z" fill="#57D9A3"/>
<path d="M23.3047 11.2556C23.5446 11.4957 23.6795 11.8212 23.6795 12.1606C23.6795 12.5 23.5446 12.8255 23.3047 13.0655L14.3447 22.0255C14.1046 22.2655 13.7791 22.4003 13.4397 22.4003C13.1003 22.4003 12.7748 22.2655 12.5348 22.0255L8.69476 18.1855C8.4616 17.9441 8.33258 17.6208 8.3355 17.2852C8.33841 16.9496 8.47303 16.6285 8.71035 16.3912C8.94768 16.1539 9.26871 16.0193 9.60433 16.0164C9.93994 16.0134 10.2633 16.1425 10.5047 16.3756L13.4397 19.3107L21.4948 11.2556C21.7348 11.0157 22.0603 10.8809 22.3997 10.8809C22.7391 10.8809 23.0647 11.0157 23.3047 11.2556Z" fill="#EFFDF6"/>
</svg>
