<svg width="28" height="29" viewBox="0 0 28 29" fill="none" xmlns="http://www.w3.org/2000/svg">
<circle cx="14" cy="14.7632" r="14" fill="#2697FF"/>
<path d="M19.9352 11.3645C19.9393 11.4432 19.9275 11.522 19.9004 11.5961C19.8733 11.6702 19.8314 11.7381 19.7774 11.7958L12.6234 18.5867C12.4989 18.7027 12.3338 18.766 12.1631 18.7632C12.0607 18.7646 11.9594 18.7422 11.8673 18.6978C11.7761 18.6692 11.6928 18.62 11.624 18.554L8.13904 15.286C8.04357 15.2026 7.97879 15.0899 7.95493 14.9658C7.94038 14.8505 7.96343 14.7337 8.02068 14.6325C8.07279 14.5174 8.15728 14.4198 8.26397 14.3514C8.37096 14.2799 8.49672 14.2413 8.62561 14.2403C8.79945 14.2375 8.96731 14.3033 9.09246 14.4233L12.1566 17.2795L18.8437 10.9135C18.9655 10.8131 19.1195 10.7598 19.2777 10.7632C19.4438 10.7637 19.6035 10.8268 19.7248 10.9396C19.8459 11.0501 19.921 11.2017 19.9352 11.3645Z" fill="white"/>
</svg>
