<svg width="48" height="48" viewBox="0 0 48 48" fill="none" xmlns="http://www.w3.org/2000/svg">
<g id="circle semantic">
<path id="Vector" d="M4.79999 24.0008C4.79999 27.7982 5.92605 31.5103 8.03577 34.6677C10.1455 37.8252 13.1441 40.2861 16.6525 41.7393C20.1608 43.1925 24.0213 43.5727 27.7457 42.8319C31.4702 42.091 34.8913 40.2624 37.5764 37.5772C40.2616 34.8921 42.0902 31.471 42.8311 27.7465C43.5719 24.0221 43.1917 20.1616 41.7385 16.6533C40.2853 13.1449 37.8244 10.1463 34.6669 8.03657C31.5095 5.92684 27.7974 4.80078 24 4.80078C18.9095 4.80637 14.0292 6.83102 10.4297 10.4305C6.83022 14.03 4.80558 18.9103 4.79999 24.0008Z" fill="#38B57D"/>
<path id="Vector_2" d="M34.9573 16.8825C35.3173 17.2425 35.5195 17.7308 35.5195 18.2399C35.5195 18.749 35.3173 19.2373 34.9573 19.5973L21.5173 33.0373C21.1573 33.3973 20.669 33.5995 20.1599 33.5995C19.6508 33.5995 19.1625 33.3973 18.8024 33.0373L13.0424 27.2773C12.6927 26.9152 12.4992 26.4302 12.5036 25.9268C12.5079 25.4234 12.7099 24.9418 13.0658 24.5858C13.4218 24.2299 13.9034 24.0279 14.4068 24.0236C14.9102 24.0192 15.3952 24.2127 15.7573 24.5625L20.1599 28.965L32.2425 16.8825C32.6025 16.5225 33.0908 16.3203 33.5999 16.3203C34.109 16.3203 34.5973 16.5225 34.9573 16.8825Z" fill="white"/>
</g>
</svg>
