<svg width="48" height="48" viewBox="0 0 48 48" fill="none" xmlns="http://www.w3.org/2000/svg">
<path d="M4.7998 24C4.7998 27.7974 5.92587 31.5095 8.03559 34.6669C10.1453 37.8244 13.1439 40.2853 16.6523 41.7385C20.1606 43.1917 24.0211 43.5719 27.7455 42.8311C31.47 42.0902 34.8911 40.2616 37.5763 37.5764C40.2614 34.8913 42.0901 31.4702 42.8309 27.7457C43.5717 24.0213 43.1915 20.1608 41.7383 16.6525C40.2851 13.1441 37.8242 10.1455 34.6668 8.03577C31.5093 5.92605 27.7972 4.79999 23.9998 4.79999C18.9094 4.80558 14.029 6.83022 10.4295 10.4297C6.83004 14.0292 4.80539 18.9095 4.7998 24Z" fill="#38B57D"/>
<path d="M34.9578 16.8826C35.3177 17.2427 35.5199 17.7309 35.5199 18.2401C35.5199 18.7492 35.3177 19.2374 34.9578 19.5975L21.5178 33.0375C21.1577 33.3974 20.6694 33.5996 20.1603 33.5996C19.6512 33.5996 19.1629 33.3974 18.8029 33.0375L13.0429 27.2775C12.6931 26.9154 12.4996 26.4304 12.504 25.927C12.5084 25.4235 12.7103 24.942 13.0663 24.586C13.4222 24.23 13.9038 24.0281 14.4072 24.0237C14.9106 24.0193 15.3956 24.2129 15.7578 24.5626L20.1603 28.9652L32.2429 16.8826C32.6029 16.5227 33.0912 16.3205 33.6003 16.3205C34.1094 16.3205 34.5977 16.5227 34.9578 16.8826Z" fill="white"/>
</svg>
