<svg width="20" height="20" viewBox="0 0 20 20" fill="none" xmlns="http://www.w3.org/2000/svg">
<path d="M8.00022 4.36008C8.25366 4.61638 8.2519 5.03018 7.99629 5.28431L5.16839 8.09589C4.91708 8.34574 4.51285 8.34885 4.25775 8.10289L2.70002 6.60098C2.44055 6.35081 2.43246 5.93709 2.68195 5.67691C2.93144 5.41674 3.34404 5.40863 3.6035 5.6588L4.7025 6.71842L7.0785 4.35614C7.33411 4.10201 7.74677 4.10377 8.00022 4.36008Z" fill="white"/>
<path d="M9.12023 6.68612C9.12023 6.2994 9.43288 5.9859 9.81854 5.9859H16.8017C17.1874 5.9859 17.5 6.2994 17.5 6.68612C17.5 7.07284 17.1874 7.38634 16.8017 7.38634H9.81854C9.43288 7.38634 9.12023 7.07284 9.12023 6.68612Z" fill="white"/>
<path d="M9.12023 14.1995C9.12023 13.8128 9.43288 13.4993 9.81854 13.4993H16.8017C17.1874 13.4993 17.5 13.8128 17.5 14.1995C17.5 14.5862 17.1874 14.8997 16.8017 14.8997H9.81854C9.43288 14.8997 9.12023 14.5862 9.12023 14.1995Z" fill="white"/>
<path d="M7.99629 12.8323C8.2519 12.5782 8.25366 12.1644 8.00022 11.9081C7.74677 11.6518 7.33411 11.65 7.0785 11.9042L4.7025 14.2664L3.6035 13.2068C3.34404 12.9566 2.93144 12.9647 2.68195 13.2249C2.43246 13.4851 2.44055 13.8988 2.70002 14.149L4.25775 15.6509C4.51285 15.8969 4.91708 15.8938 5.16839 15.6439L7.99629 12.8323Z" fill="white"/>
</svg>
