<svg width="16" height="16" viewBox="0 0 16 16" fill="none" xmlns="http://www.w3.org/2000/svg">
<path d="M12.3855 3.61442C12.1836 3.41257 11.8564 3.41257 11.6545 3.61442L7.99992 7.26897L4.34547 3.61425L4.29253 3.56824L4.28742 3.56444C4.08501 3.41426 3.79774 3.4307 3.61418 3.61425L3.56817 3.66719L3.56437 3.67231C3.41419 3.87471 3.43079 4.16182 3.61435 4.34537L7.26876 7.99992L3.61418 11.6543L3.56817 11.7072L3.56437 11.7124C3.41419 11.9148 3.43079 12.2019 3.61435 12.3854C3.8162 12.5873 4.14346 12.5873 4.34531 12.3854L7.99992 8.73087L11.6544 12.3856L11.7073 12.4316L11.7124 12.4354C11.9148 12.5856 12.2021 12.5691 12.3856 12.3856L12.4317 12.3326L12.4355 12.3275C12.5856 12.1251 12.569 11.838 12.3855 11.6545L8.73107 7.99992L12.3856 4.34553L12.4317 4.29259L12.4355 4.28748C12.5856 4.08507 12.569 3.79797 12.3855 3.61442Z" fill="#304165"/>
<path fill-rule="evenodd" clip-rule="evenodd" d="M4.34547 3.61425L7.99992 7.26897L11.6545 3.61442C11.8564 3.41257 12.1836 3.41257 12.3855 3.61442C12.569 3.79797 12.5856 4.08507 12.4355 4.28748L12.4317 4.29259L12.3856 4.34553L8.73107 7.99992L12.3855 11.6545C12.569 11.838 12.5856 12.1251 12.4355 12.3275L12.4317 12.3326L12.3856 12.3856C12.2021 12.5691 11.9148 12.5856 11.7124 12.4354L11.7073 12.4316L11.6544 12.3856L7.99992 8.73087L4.34531 12.3854C4.14346 12.5873 3.8162 12.5873 3.61435 12.3854C3.43079 12.2019 3.41419 11.9148 3.56437 11.7124L3.56817 11.7072L3.61418 11.6543L7.26876 7.99992L3.61435 4.34537C3.43079 4.16182 3.41419 3.87471 3.56437 3.67231L3.56817 3.66719L3.61418 3.61425C3.79774 3.4307 4.08501 3.41426 4.28742 3.56444L4.29253 3.56824L4.34547 3.61425ZM4.36466 3.46034L4.37379 3.46712L4.43736 3.52237L7.99992 7.08564L11.5629 3.52275C11.8153 3.27029 12.2247 3.27029 12.4771 3.52275C12.7068 3.75243 12.7274 4.1115 12.5396 4.36472L12.5328 4.37385L12.4775 4.43742L8.91439 7.99992L12.4771 11.5628C12.7068 11.7925 12.7274 12.1516 12.5396 12.4048L12.5328 12.4139L12.4775 12.4775C12.2478 12.7072 11.8883 12.7273 11.6352 12.5395L11.626 12.5327L11.5625 12.4775L7.99991 8.91419L4.43697 12.4771C4.1845 12.7295 3.77516 12.7295 3.52269 12.4771C3.293 12.2474 3.27239 11.8883 3.46027 11.6351L3.46705 11.626L3.5223 11.5624L7.08544 7.99991L3.52269 4.43703C3.52268 4.43703 3.52269 4.43703 3.52269 4.43703C3.29301 4.20735 3.27239 3.84828 3.46027 3.59506C3.46027 3.59506 3.46027 3.59506 3.46027 3.59506L3.46705 3.58593L3.5223 3.52237C3.75204 3.29263 4.1115 3.27251 4.36466 3.46034C4.36466 3.46034 4.36466 3.46034 4.36466 3.46034Z" fill="#304165"/>
</svg>
