<svg width="16" height="16" viewBox="0 0 16 16" fill="none" xmlns="http://www.w3.org/2000/svg">
<path fill-rule="evenodd" clip-rule="evenodd" d="M8.00016 14.6668C11.6821 14.6668 14.6668 11.6821 14.6668 8.00016C14.6668 4.31826 11.6821 1.3335 8.00016 1.3335C4.31826 1.3335 1.3335 4.31826 1.3335 8.00016C1.3335 11.6821 4.31826 14.6668 8.00016 14.6668ZM6.81328 6.13976L7.99985 7.32602L9.18577 6.14109C9.37194 5.95497 9.6731 5.95497 9.85927 6.14109C10.0454 6.32722 10.0454 6.62833 9.85927 6.81446L8.67334 7.99938L9.86054 9.18705C10.0467 9.37317 10.0467 9.67428 9.86054 9.86041C9.76777 9.95379 9.64515 10.0002 9.52379 10.0002C9.4018 10.0002 9.27981 9.95379 9.18704 9.86041L7.99985 8.67275L6.81455 9.85857C6.72179 9.95195 6.5998 9.99832 6.47781 9.99832C6.35581 9.99832 6.23382 9.95195 6.14106 9.85857C5.95489 9.67244 5.95489 9.37133 6.14106 9.1852L7.32635 7.99938L6.13979 6.81312C5.95362 6.62699 5.95362 6.32589 6.13979 6.13976C6.32659 5.95363 6.62775 5.95363 6.81328 6.13976Z" fill="#304165"/>
</svg>
