<svg width="40" height="40" viewBox="0 0 40 40" fill="none" xmlns="http://www.w3.org/2000/svg">
<path d="M36.3023 16.4565L31.9783 16.0982C31.6927 15.0455 31.273 14.0339 30.7297 13.0882L33.538 9.76924C33.6613 9.62357 33.7254 9.43689 33.7175 9.2462C33.7096 9.05552 33.6304 8.87477 33.4954 8.73979L30.2602 5.51142C30.1252 5.3765 29.9445 5.29724 29.7538 5.28935C29.5631 5.28145 29.3764 5.34551 29.2308 5.46881L25.9126 8.27642C24.9666 7.73162 23.9548 7.30998 22.9018 7.02174L22.5435 2.69772C22.5276 2.50707 22.4405 2.32939 22.2995 2.20008C22.1585 2.07078 21.9739 1.99934 21.7826 2H17.2174C17.0261 1.99934 16.8415 2.07078 16.7005 2.20008C16.5595 2.32939 16.4724 2.50707 16.4565 2.69772L16.0982 7.02174C15.0455 7.30733 14.0339 7.72696 13.0882 8.27033L9.76924 5.465C9.62357 5.3417 9.43689 5.27765 9.2462 5.28554C9.05552 5.29343 8.87477 5.3727 8.73979 5.50761L5.51142 8.73979C5.3765 8.87477 5.29724 9.05552 5.28935 9.2462C5.28145 9.43689 5.34551 9.62357 5.46881 9.76924L8.27642 13.0874C7.73162 14.0334 7.30998 15.0452 7.02174 16.0982L2.69772 16.4565C2.50707 16.4724 2.32939 16.5595 2.20008 16.7005C2.07078 16.8415 1.99934 17.0261 2 17.2174V21.7826C1.99934 21.9739 2.07078 22.1585 2.20008 22.2995C2.32939 22.4405 2.50707 22.5276 2.69772 22.5435L7.02479 22.9049C7.31038 23.9575 7.73001 24.9692 8.27337 25.9149L5.465 29.2308C5.3417 29.3764 5.27765 29.5631 5.28554 29.7538C5.29343 29.9445 5.3727 30.1252 5.50761 30.2602L8.73598 33.4886C8.87092 33.6233 9.05152 33.7024 9.24203 33.7103C9.43253 33.7182 9.61906 33.6543 9.76468 33.5312L13.0836 30.7236C14.0306 31.269 15.0438 31.6907 16.0982 31.9783L16.4565 36.3023C16.4724 36.4929 16.5595 36.6706 16.7005 36.7999C16.8415 36.9292 17.0261 37.0007 17.2174 37H21.7826C21.9739 37.0007 22.1585 36.9292 22.2995 36.7999C22.4405 36.6706 22.5276 36.4929 22.5435 36.3023L22.9057 31.9722C23.9579 31.6856 24.9691 31.2658 25.9149 30.7228L29.2338 33.5312C29.3795 33.6545 29.5662 33.7185 29.7568 33.7107C29.9475 33.7028 30.1283 33.6235 30.2633 33.4886L33.4916 30.2602C33.6265 30.1252 33.7058 29.9445 33.7137 29.7538C33.7216 29.5631 33.6575 29.3764 33.5342 29.2308L30.7266 25.9126C31.27 24.9663 31.6906 23.9545 31.9783 22.9018L36.3023 22.5435C36.4929 22.5276 36.6706 22.4405 36.7999 22.2995C36.9292 22.1585 37.0007 21.9739 37 21.7826V17.2174C37.0007 17.0261 36.9292 16.8415 36.7999 16.7005C36.6706 16.5595 36.4929 16.4724 36.3023 16.4565ZM19.5 24.8261C18.4466 24.8261 17.4169 24.5137 16.541 23.9285C15.6651 23.3432 14.9825 22.5114 14.5793 21.5382C14.1762 20.565 14.0707 19.4941 14.2763 18.4609C14.4818 17.4278 14.989 16.4788 15.7339 15.7339C16.4788 14.989 17.4278 14.4818 18.4609 14.2763C19.4941 14.0707 20.565 14.1762 21.5382 14.5793C22.5114 14.9825 23.3432 15.6651 23.9285 16.541C24.5137 17.4169 24.8261 18.4466 24.8261 19.5C24.8261 20.9126 24.2649 22.2673 23.2661 23.2661C22.2673 24.2649 20.9126 24.8261 19.5 24.8261Z" fill="#D5DCE1"/>
<path d="M19.5003 11.8914C17.9954 11.8914 16.5244 12.3376 15.2731 13.1737C14.0219 14.0097 13.0467 15.198 12.4708 16.5883C11.8949 17.9786 11.7442 19.5085 12.0378 20.9844C12.3314 22.4604 13.056 23.8161 14.1201 24.8802C15.1842 25.9443 16.54 26.669 18.0159 26.9626C19.4919 27.2561 21.0217 27.1055 22.412 26.5296C23.8023 25.9537 24.9906 24.9785 25.8267 23.7272C26.6628 22.476 27.109 21.0049 27.109 19.5001C27.109 17.4821 26.3074 15.5468 24.8805 14.1199C23.4536 12.693 21.5183 11.8914 19.5003 11.8914ZM19.5003 24.8261C18.4469 24.8261 17.4172 24.5138 16.5413 23.9285C15.6654 23.3433 14.9828 22.5115 14.5796 21.5383C14.1765 20.565 14.071 19.4941 14.2766 18.461C14.4821 17.4278 14.9893 16.4788 15.7342 15.7339C16.4791 14.9891 17.4281 14.4818 18.4612 14.2763C19.4944 14.0708 20.5653 14.1763 21.5385 14.5794C22.5117 14.9825 23.3435 15.6652 23.9288 16.541C24.514 17.4169 24.8264 18.4467 24.8264 19.5001C24.8264 20.9126 24.2652 22.2673 23.2664 23.2662C22.2676 24.265 20.9129 24.8261 19.5003 24.8261Z" fill="#748494"/>
</svg>
