<svg width="40" height="40" viewBox="0 0 40 40" fill="none" xmlns="http://www.w3.org/2000/svg">
<path d="M37.5003 8.33333H11.667V5H37.5003C37.9606 5 38.3337 5.3731 38.3337 5.83333V7.5C38.3337 7.96024 37.9606 8.33333 37.5003 8.33333Z" fill="#D5DCE1"/>
<path d="M11.667 8.33333H2.50033C2.04009 8.33333 1.66699 7.96024 1.66699 7.5V5.83333C1.66699 5.3731 2.04009 5 2.50033 5H11.667V8.33333Z" fill="#1265E5"/>
<path d="M37.5003 21.6662H26.667V18.3329H37.5003C37.9606 18.3329 38.3337 18.706 38.3337 19.1662V20.8329C38.3337 21.2931 37.9606 21.6662 37.5003 21.6662Z" fill="#D5DCE1"/>
<path d="M26.667 21.6662H2.50033C2.04009 21.6662 1.66699 21.2931 1.66699 20.8329V19.1662C1.66699 18.706 2.04009 18.3329 2.50033 18.3329H26.667V21.6662Z" fill="#1265E5"/>
<path d="M37.5003 34.9991H11.667V31.6658H37.5003C37.9606 31.6658 38.3337 32.0389 38.3337 32.4991V34.1658C38.3337 34.626 37.9606 34.9991 37.5003 34.9991Z" fill="#D5DCE1"/>
<path d="M11.667 34.9991H2.50033C2.04009 34.9991 1.66699 34.626 1.66699 34.1658V32.4991C1.66699 32.0389 2.04009 31.6658 2.50033 31.6658H11.667V34.9991Z" fill="#1265E5"/>
<path d="M15.834 12.4996H9.16732C8.70711 12.4996 8.33398 12.1264 8.33398 11.6662V1.66622C8.33398 1.20601 8.70711 0.832886 9.16732 0.832886H15.834C16.2942 0.832886 16.6673 1.20601 16.6673 1.66622V11.6662C16.6673 12.1264 16.2942 12.4996 15.834 12.4996Z" fill="#D5DCE1"/>
<path d="M30.834 25.8324H24.1673C23.7071 25.8324 23.334 25.4593 23.334 24.9991V14.9991C23.334 14.5389 23.7071 14.1658 24.1673 14.1658H30.834C31.2942 14.1658 31.6673 14.5389 31.6673 14.9991V24.9991C31.6673 25.4593 31.2942 25.8324 30.834 25.8324Z" fill="#D5DCE1"/>
<path d="M15.834 39.1667H9.16732C8.70711 39.1667 8.33398 38.7935 8.33398 38.3333V28.3333C8.33398 27.8731 8.70711 27.5 9.16732 27.5H15.834C16.2942 27.5 16.6673 27.8731 16.6673 28.3333V38.3333C16.6673 38.7935 16.2942 39.1667 15.834 39.1667Z" fill="#D5DCE1"/>
<path d="M19.167 5H16.667V8.33333H19.167V5Z" fill="#A5B2BD"/>
<path d="M34.167 18.3329H31.667V21.6662H34.167V18.3329Z" fill="#A5B2BD"/>
<path d="M19.167 31.6658H16.667V34.9991H19.167V31.6658Z" fill="#A5B2BD"/>
</svg>
