<svg width="24" height="25" viewBox="0 0 24 25" fill="none" xmlns="http://www.w3.org/2000/svg">
<path fill-rule="evenodd" clip-rule="evenodd" d="M2.62671 12.5952V12.5978C2.62671 17.7745 6.82332 21.9712 12.0001 21.9712C17.1769 21.9712 21.3735 17.7745 21.3735 12.5978C21.3735 7.42098 17.1769 3.22437 12.0001 3.22437C6.82417 3.22437 2.62808 7.4196 2.62671 12.5952ZM12.7484 7.72276V4.75624C16.5012 5.10992 19.4878 8.09652 19.8416 11.8492H16.875C16.4617 11.8492 16.1266 12.1843 16.1266 12.5976C16.1266 13.011 16.4617 13.346 16.875 13.346H19.8416C19.488 17.0989 16.5013 20.0856 12.7484 20.4393V17.4728C12.7484 17.0594 12.4134 16.7244 12 16.7244C11.5867 16.7244 11.2516 17.0594 11.2516 17.4728V20.4393C7.49887 20.0855 4.51223 17.0988 4.15858 13.346H7.1251C7.53843 13.346 7.8735 13.011 7.8735 12.5976C7.8735 12.1843 7.53843 11.8492 7.1251 11.8492H4.1586C4.51236 8.09656 7.49895 5.10998 11.2516 4.75625V7.72276C11.2516 8.13609 11.5867 8.47116 12 8.47116C12.4134 8.47116 12.7484 8.13609 12.7484 7.72276Z" fill="#1D2B36"/>
</svg>
