<svg width="28" height="28" viewBox="0 0 28 28" fill="none" xmlns="http://www.w3.org/2000/svg">
<rect width="28" height="28" rx="14" fill="#6C6FF2"/>
<path d="M19.9251 10.6639C19.9292 10.7412 19.9175 10.8185 19.8907 10.8913C19.8639 10.964 19.8225 11.0307 19.7691 11.0873L12.6949 17.7532C12.5717 17.867 12.4085 17.9291 12.2397 17.9264C12.1385 17.9278 12.0383 17.9058 11.9471 17.8622C11.8569 17.8342 11.7746 17.7859 11.7066 17.7211L8.26047 14.5133C8.16606 14.4314 8.10201 14.3208 8.07841 14.1989C8.06403 14.0858 8.08682 13.9711 8.14343 13.8717C8.19495 13.7588 8.27851 13.663 8.38401 13.5958C8.4898 13.5257 8.61416 13.4878 8.74162 13.4868C8.91352 13.4841 9.0795 13.5487 9.20326 13.6664L12.2332 16.47L18.8458 10.2212C18.9662 10.1227 19.1186 10.0703 19.2749 10.0737C19.4392 10.0742 19.5972 10.1361 19.7171 10.2469C19.8368 10.3554 19.911 10.5041 19.9251 10.6639Z" fill="white"/>
<path fill-rule="evenodd" clip-rule="evenodd" d="M19.9991 10.6601C20.0037 10.7473 19.9905 10.8345 19.9603 10.9165C19.93 10.9986 19.8834 11.0738 19.8232 11.1376L19.7691 11.0873C19.8225 11.0307 19.8639 10.964 19.8907 10.8913C19.9175 10.8185 19.9292 10.7412 19.9251 10.6639C19.911 10.5041 19.8368 10.3554 19.7171 10.2469C19.5972 10.1361 19.4392 10.0742 19.2749 10.0737C19.1186 10.0703 18.9662 10.1227 18.8458 10.2212L12.2332 16.47L9.20326 13.6664C9.0795 13.5487 8.91352 13.4841 8.74162 13.4868C8.61416 13.4878 8.4898 13.5257 8.38401 13.5958C8.27851 13.663 8.19495 13.7588 8.14343 13.8717C8.08682 13.9711 8.06403 14.0858 8.07841 14.1989C8.10201 14.3208 8.16606 14.4314 8.26047 14.5133L11.7066 17.7211C11.7746 17.7859 11.8569 17.8342 11.9471 17.8622C12.0383 17.9058 12.1385 17.9278 12.2397 17.9264C12.4085 17.9291 12.5717 17.867 12.6949 17.7532L19.7691 11.0873L19.8201 11.1407L12.7459 17.8065C12.6089 17.9331 12.4271 18.0027 12.2396 17.9999C12.1291 18.0013 12.0197 17.9776 11.9198 17.9308C11.8209 17.8992 11.7305 17.8457 11.6556 17.7744C11.6555 17.7743 11.6557 17.7745 11.6556 17.7744L8.21071 14.5678C8.10447 14.4752 8.03231 14.3504 8.00567 14.2128L8.00477 14.2081C7.98852 14.0804 8.01406 13.9509 8.07732 13.8384C8.13477 13.714 8.22715 13.6085 8.34345 13.5343C8.46107 13.4565 8.5992 13.4144 8.74075 13.4133C8.9318 13.4103 9.11635 13.4821 9.25412 13.613C9.25399 13.6128 9.25425 13.6131 9.25412 13.613L12.2327 16.369L18.7986 10.1644C18.9325 10.0548 19.102 9.99659 19.2759 10.0002C19.4583 10.0009 19.6339 10.0697 19.7673 10.1928C19.9005 10.3137 19.9832 10.4794 19.9989 10.6575L19.9991 10.6601Z" fill="white"/>
</svg>
