<svg width="24" height="24" viewBox="0 0 24 24" fill="none" xmlns="http://www.w3.org/2000/svg">
<path d="M17.8273 6.12097C17.8464 6.13741 17.8643 6.15528 17.8808 6.1744C17.91 6.20832 17.9338 6.24522 17.9523 6.284C17.9829 6.34808 18 6.41971 18 6.49528V10.2181C18 10.4916 17.7759 10.7134 17.4994 10.7134C17.223 10.7134 16.9989 10.4916 16.9989 10.2181V7.69105L13.3386 11.3129C13.1432 11.5063 12.8262 11.5063 12.6307 11.3129C12.4353 11.1195 12.4353 10.8058 12.6307 10.6124L16.291 6.99059H13.7372C13.4607 6.99059 13.2366 6.76884 13.2366 6.49528C13.2366 6.22173 13.4607 5.99997 13.7372 5.99997H17.4994C17.5711 5.99997 17.6392 6.01487 17.7009 6.0417C17.7458 6.06125 17.7885 6.08767 17.8273 6.12097Z" fill="#1A8FF1"/>
<path d="M13.8941 17.0403C14.7345 17.0403 15.4157 16.3662 15.4157 15.5346V14.1136C15.4157 13.8486 15.6328 13.6338 15.9007 13.6338C16.1685 13.6338 16.3856 13.8486 16.3856 14.1136L16.3856 15.5346C16.3856 16.8962 15.2701 18 13.8941 18L8.49146 18C7.11547 18 6 16.8962 6 15.5346V10.1564C6 8.79486 7.11547 7.6911 8.49146 7.6911L10.0796 7.6911C10.3474 7.6911 10.5645 7.90593 10.5645 8.17093C10.5645 8.43593 10.3474 8.65076 10.0796 8.65076H8.49146C7.65109 8.65076 6.96983 9.32487 6.96983 10.1564L6.96983 15.5346C6.96983 16.3662 7.65109 17.0403 8.49146 17.0403H13.8941Z" fill="#1A8FF1"/>
<rect x="0.6" y="0.6" width="22.8" height="22.8" rx="7.4" stroke="#1A8FF1" stroke-width="1.2"/>
</svg>
