<svg width="24" height="24" viewBox="0 0 24 24" fill="none" xmlns="http://www.w3.org/2000/svg">
<path d="M18.3672 17.6893L16.4219 15.7853C17.1243 15.0105 17.6208 14.0781 17.8673 13.0708C18.1139 12.0634 18.1029 11.0121 17.8355 10.0099C17.5074 8.78961 16.8108 7.69462 15.8367 6.86805C14.8627 6.04147 13.6565 5.52176 12.3759 5.37685C11.4044 5.26445 10.4195 5.37131 9.49669 5.68925C8.57392 6.00718 7.73779 6.52775 7.05244 7.21102C6.36866 7.88915 5.85157 8.71075 5.54038 9.61353C5.22919 10.5163 5.13206 11.4766 5.25635 12.4216C5.45911 13.919 6.20673 15.2945 7.36202 16.2959C8.51732 17.2973 10.0028 17.8574 11.5459 17.8733C12.995 17.8971 14.408 17.4308 15.5466 16.5532L17.5437 18.5016C17.5972 18.5543 17.6608 18.5961 17.731 18.6244C17.8011 18.6527 17.8763 18.6671 17.9522 18.6666C18.0298 18.6687 18.1071 18.6545 18.1786 18.6249C18.2502 18.5954 18.3145 18.5512 18.3672 18.4953C18.4761 18.3882 18.5372 18.2433 18.5372 18.0923C18.5372 17.9412 18.4761 17.7963 18.3672 17.6893ZM15.3197 15.2268C14.8361 15.7046 14.2604 16.0836 13.6259 16.3418C12.9914 16.6 12.3108 16.7323 11.6237 16.7309C11.2757 16.7304 10.9284 16.6985 10.5863 16.6357C9.56677 16.4443 8.62938 15.958 7.89534 15.2395C7.16131 14.521 6.66439 13.6035 6.46887 12.6056C6.29563 11.7771 6.33656 10.9194 6.58794 10.1103C6.83932 9.30125 7.29319 8.56643 7.90834 7.97261C8.3919 7.49479 8.96764 7.11577 9.60211 6.85756C10.2366 6.59935 10.9171 6.46709 11.6043 6.46847C11.9523 6.46899 12.2996 6.50085 12.6417 6.56367C13.6612 6.75505 14.5986 7.24142 15.3326 7.95989C16.0667 8.67836 16.5636 9.59587 16.7591 10.5938C16.9324 11.4223 16.8914 12.28 16.64 13.0891C16.3887 13.8981 15.9348 14.633 15.3197 15.2268Z" fill="#1A8FF1"/>
<rect x="0.6" y="0.6" width="22.8" height="22.8" rx="7.4" stroke="#1A8FF1" stroke-width="1.2"/>
</svg>
