<svg width="32" height="32" viewBox="0 0 32 32" fill="none" xmlns="http://www.w3.org/2000/svg">
<path d="M24.9044 6.51562H7.09572C4.9476 6.51562 3.20007 8.26315 3.20007 10.4113V24.8808C3.20007 27.0289 4.9476 28.7764 7.09572 28.7764H24.9044C27.0525 28.7764 28.8 27.0289 28.8 24.8808V10.4113C28.8 8.26315 27.0525 6.51562 24.9044 6.51562Z" fill="#42547B"/>
<path d="M24.9044 9.85498H7.0957C6.78839 9.85498 6.53918 10.1042 6.53918 10.4115V24.881C6.53918 25.1883 6.78839 25.4375 7.0957 25.4375H24.9044C25.2117 25.4375 25.4609 25.1883 25.4609 24.881V10.4115C25.4609 10.1042 25.2117 9.85498 24.9044 9.85498Z" fill="#EEF0F5"/>
<path d="M21.5652 14.2397L18.2261 17.5789L15.5109 14.8637L20.5196 9.85498H18.1587L9.87831 18.1354L6.53918 14.7963V17.1571L8.69787 19.3158L6.53918 21.4745V23.8354L9.87831 20.4963L14.8196 25.4375H18.2935L24.3478 19.3832L25.4609 20.4963V18.1354L21.5652 14.2397ZM16.5566 24.8136L11.0587 19.3158L14.3305 16.0441L18.2261 19.9397L21.5652 16.6006L23.1674 18.2028L16.5566 24.8136Z" fill="white"/>
<path d="M14.9544 9.85498H12.5935L10.4348 12.0137L8.27614 9.85498H7.0957C6.78839 9.85498 6.53918 10.1042 6.53918 10.4115V10.4789L10.4348 14.3745L14.9544 9.85498Z" fill="white"/>
<path d="M15.841 2.93799C12.5479 2.93799 9.8783 5.60758 9.8783 8.90071C9.8783 12.4581 14.3933 17.0484 15.5656 18.1803C15.7201 18.3294 15.9619 18.3294 16.1164 18.1803C17.2887 17.0484 21.8037 12.4581 21.8037 8.90071C21.8037 5.60758 19.1341 2.93799 15.841 2.93799Z" fill="#888BFF"/>
<path d="M15.841 10.8882C16.9387 10.8882 17.8286 9.99837 17.8286 8.90066C17.8286 7.80295 16.9387 6.91309 15.841 6.91309C14.7433 6.91309 13.8535 7.80295 13.8535 8.90066C13.8535 9.99837 14.7433 10.8882 15.841 10.8882Z" fill="white"/>
</svg>
