<svg width="48" height="28" viewBox="0 0 48 28" fill="none" xmlns="http://www.w3.org/2000/svg">
<path d="M40.5217 0H7.47826C6.10943 0 5 0.948 5 2.11765V21.8824C5 23.052 6.10943 24 7.47826 24H40.5217C41.8906 24 43 23.052 43 21.8824V2.11765C43 0.948 41.8906 0 40.5217 0Z" fill="#0068AC"/>
<path d="M21.6411 8.6759V14.5007C22.9443 14.1633 23.9129 12.9909 23.9129 11.5883C23.9129 10.1857 22.9443 9.01334 21.6411 8.6759Z" fill="white"/>
<path d="M26.9421 5.54901H20.8841C17.5386 5.54901 14.8261 8.25307 14.8261 11.5882C14.8261 14.9234 17.5386 17.6274 20.8841 17.6274H26.9421C30.2876 17.6274 33 14.9234 33 11.5882C33 8.25307 30.2876 5.54901 26.9421 5.54901ZM20.8841 16.1176C18.3784 16.1176 16.3406 14.0862 16.3406 11.5882C16.3406 9.09026 18.3784 7.05882 20.8841 7.05882C23.3898 7.05882 25.4276 9.09026 25.4276 11.5882C25.4276 14.0862 23.3898 16.1176 20.8841 16.1176Z" fill="white"/>
<path d="M20.1271 8.6759C18.8239 9.01334 17.8554 10.1857 17.8554 11.5883C17.8554 12.9909 18.8239 14.1633 20.1271 14.5007V8.6759Z" fill="white"/>
</svg>
