<svg width="28" height="29" viewBox="0 0 28 29" fill="none" xmlns="http://www.w3.org/2000/svg">
<circle cx="14" cy="14.7632" r="14" fill="#2697FF"/>
<rect width="16" height="16" transform="translate(6 6.76318)" fill="#2697FF"/>
<path d="M19.9352 11.3644C19.9394 11.4431 19.9275 11.5219 19.9004 11.596C19.8733 11.6701 19.8315 11.7381 19.7774 11.7958L12.6235 18.5866C12.4989 18.7026 12.3338 18.7659 12.1632 18.7631C12.0608 18.7645 11.9595 18.7421 11.8673 18.6977C11.7761 18.6692 11.6928 18.6199 11.624 18.5539L8.13908 15.286C8.04361 15.2025 7.97883 15.0898 7.95497 14.9657C7.94042 14.8505 7.96347 14.7336 8.02072 14.6324C8.07282 14.5173 8.15732 14.4197 8.26401 14.3513C8.37099 14.2799 8.49675 14.2412 8.62565 14.2402C8.79949 14.2375 8.96735 14.3033 9.0925 14.4232L12.1566 17.2794L18.8437 10.9134C18.9655 10.8131 19.1196 10.7597 19.2777 10.7631C19.4438 10.7637 19.6036 10.8267 19.7248 10.9396C19.8459 11.0501 19.921 11.2016 19.9352 11.3644Z" fill="white"/>
</svg>
