<svg width="20" height="20" viewBox="0 0 20 20" fill="none" xmlns="http://www.w3.org/2000/svg">
<path d="M10.0005 2.0835C10.3457 2.0835 10.6255 2.37124 10.6255 2.72619V11.4886L11.9876 10.0821C12.2312 9.8306 12.6269 9.82976 12.8715 10.0802C13.1161 10.3307 13.1169 10.7376 12.8733 10.9891L10.4433 13.4982C10.3261 13.6193 10.1667 13.6874 10.0005 13.6874C9.83429 13.6874 9.67493 13.6193 9.55764 13.4982L7.12764 10.9891C6.88407 10.7376 6.88488 10.3307 7.12946 10.0802C7.37404 9.82976 7.76976 9.8306 8.01334 10.0821L9.37548 11.4886V2.72619C9.37548 2.37124 9.6553 2.0835 10.0005 2.0835Z" fill="#1A8FF1"/>
<path d="M14.6387 7.42463C15.9892 7.42463 17.0837 8.54985 17.0837 9.93971V14.1249C17.0837 15.5095 15.9926 16.6314 14.6462 16.6314H5.36283C4.01217 16.6314 2.91699 15.5053 2.91699 14.1164V9.93028C2.91699 8.54676 4.00862 7.42463 5.35449 7.42463H6.13949C6.48467 7.42463 6.76449 7.13689 6.76449 6.78194C6.76449 6.42699 6.48467 6.13925 6.13949 6.13925H5.35449C3.3187 6.13925 1.66699 7.8364 1.66699 9.93028V14.1164C1.66699 16.2152 3.32181 17.9168 5.36283 17.9168H14.6462C16.683 17.9168 18.3337 16.2194 18.3337 14.1249V9.93971C18.3337 7.84017 16.6798 6.13925 14.6387 6.13925H13.8612C13.516 6.13925 13.2362 6.42699 13.2362 6.78194C13.2362 7.13689 13.516 7.42463 13.8612 7.42463H14.6387Z" fill="#1A8FF1"/>
</svg>
