<svg width="16" height="16" viewBox="0 0 16 16" fill="none" xmlns="http://www.w3.org/2000/svg">
<g id="download">
<g id="vector">
<path d="M8.00004 1.66667C8.27618 1.66667 8.50004 1.89687 8.50004 2.18083V9.19075L9.58977 8.06555C9.78463 7.86435 10.1012 7.86368 10.2969 8.06406C10.4925 8.26444 10.4932 8.58998 10.2983 8.79118L8.35433 10.7984C8.2605 10.8953 8.13302 10.9498 8.00005 10.9498C7.86709 10.9498 7.7396 10.8953 7.64577 10.7984L5.70177 8.79118C5.50691 8.58998 5.50756 8.26444 5.70322 8.06406C5.89889 7.86368 6.21547 7.86435 6.41033 8.06555L7.50004 9.19073V2.18083C7.50004 1.89687 7.7239 1.66667 8.00004 1.66667Z" fill="#136FCF"/>
<path d="M11.7106 5.93958C12.791 5.93958 13.6666 6.83975 13.6666 7.95164V11.2998C13.6666 12.4075 12.7938 13.305 11.7166 13.305H4.28992C3.2094 13.305 2.33325 12.4041 2.33325 11.293V7.9441C2.33325 6.83728 3.20655 5.93958 4.28325 5.93958H4.91125C5.18739 5.93958 5.41125 5.70939 5.41125 5.42543C5.41125 5.14147 5.18739 4.91127 4.91125 4.91127H4.28325C2.65462 4.91127 1.33325 6.269 1.33325 7.9441V11.293C1.33325 12.972 2.65711 14.3333 4.28992 14.3333H11.7166C13.3461 14.3333 14.6666 12.9754 14.6666 11.2998V7.95164C14.6666 6.27201 13.3435 4.91127 11.7106 4.91127H11.0886C10.8124 4.91127 10.5886 5.14147 10.5886 5.42543C10.5886 5.70939 10.8124 5.93958 11.0886 5.93958H11.7106Z" fill="#136FCF"/>
</g>
</g>
</svg>
