<svg width="16" height="16" viewBox="0 0 16 16" fill="none" xmlns="http://www.w3.org/2000/svg">
<path fill-rule="evenodd" clip-rule="evenodd" d="M2.66628 7.99987C2.66628 7.72373 2.89013 7.49987 3.16628 7.49987H12.8329C13.1091 7.49987 13.3329 7.72373 13.3329 7.99987C13.3329 8.27601 13.1091 8.49987 12.8329 8.49987H3.16628C2.89013 8.49987 2.66628 8.27601 2.66628 7.99987Z" fill="#304165"/>
<path fill-rule="evenodd" clip-rule="evenodd" d="M2.66628 4.65083C2.66628 4.37469 2.89013 4.15083 3.16628 4.15083H12.8329C13.1091 4.15083 13.3329 4.37469 13.3329 4.65083C13.3329 4.92698 13.1091 5.15083 12.8329 5.15083H3.16628C2.89013 5.15083 2.66628 4.92698 2.66628 4.65083Z" fill="#304165"/>
<path fill-rule="evenodd" clip-rule="evenodd" d="M2.66628 11.3492C2.66628 11.0731 2.89013 10.8492 3.16628 10.8492H12.8329C13.1091 10.8492 13.3329 11.0731 13.3329 11.3492C13.3329 11.6253 13.1091 11.8492 12.8329 11.8492H3.16628C2.89013 11.8492 2.66628 11.6253 2.66628 11.3492Z" fill="#304165"/>
<path fill-rule="evenodd" clip-rule="evenodd" d="M2.59961 7.99987C2.59961 7.68691 2.85331 7.4332 3.16628 7.4332H12.8329C13.1459 7.4332 13.3996 7.68691 13.3996 7.99987C13.3996 8.31283 13.1459 8.56654 12.8329 8.56654H3.16628C2.85331 8.56654 2.59961 8.31283 2.59961 7.99987ZM2.59961 4.65083C2.59961 4.33787 2.85331 4.08417 3.16628 4.08417H12.8329C13.1459 4.08417 13.3996 4.33787 13.3996 4.65083C13.3996 4.9638 13.1459 5.2175 12.8329 5.2175H3.16628C2.85331 5.2175 2.59961 4.9638 2.59961 4.65083ZM2.59961 11.3492C2.59961 11.0362 2.85331 10.7825 3.16628 10.7825H12.8329C13.1459 10.7825 13.3996 11.0362 13.3996 11.3492C13.3996 11.6622 13.1459 11.9159 12.8329 11.9159H3.16628C2.85331 11.9159 2.59961 11.6622 2.59961 11.3492ZM2.66628 4.65083C2.66628 4.37469 2.89013 4.15083 3.16628 4.15083H12.8329C13.1091 4.15083 13.3329 4.37469 13.3329 4.65083C13.3329 4.92698 13.1091 5.15083 12.8329 5.15083H3.16628C2.89013 5.15083 2.66628 4.92698 2.66628 4.65083ZM2.66628 7.99987C2.66628 7.72373 2.89013 7.49987 3.16628 7.49987H12.8329C13.1091 7.49987 13.3329 7.72373 13.3329 7.99987C13.3329 8.27601 13.1091 8.49987 12.8329 8.49987H3.16628C2.89013 8.49987 2.66628 8.27601 2.66628 7.99987ZM3.16628 10.8492C2.89013 10.8492 2.66628 11.0731 2.66628 11.3492C2.66628 11.6253 2.89013 11.8492 3.16628 11.8492H12.8329C13.1091 11.8492 13.3329 11.6253 13.3329 11.3492C13.3329 11.0731 13.1091 10.8492 12.8329 10.8492H3.16628Z" fill="#304165"/>
</svg>
