<svg width="24" height="22" viewBox="0 0 24 22" fill="none" xmlns="http://www.w3.org/2000/svg">
<path d="M21.8854 7.6815C21.7904 7.5665 21.6489 7.5 21.4999 7.5H2.49989C2.35089 7.5 2.20939 7.5665 2.11439 7.6815C2.01939 7.7965 1.98039 7.948 2.00889 8.0945L4.50889 21.0945C4.55389 21.33 4.76039 21.5 4.99989 21.5H18.9999C19.2394 21.5 19.4459 21.33 19.4909 21.0945L21.9909 8.0945C22.0194 7.948 21.9804 7.7965 21.8854 7.6815Z" fill="#D5DCE1"/>
<path d="M22.5 6H1.5C0.9475 6 0.5 6.4475 0.5 7V9C0.5 9.5525 0.9475 10 1.5 10H22.5C23.0525 10 23.5 9.5525 23.5 9V7C23.5 6.4475 23.0525 6 22.5 6Z" fill="#E5E9EC"/>
<path d="M4.99942 8.49998C4.89892 8.49998 4.79742 8.46948 4.70942 8.40698C4.48442 8.24648 4.43242 7.93398 4.59292 7.70948L9.59292 0.709483C9.75342 0.484483 10.0659 0.432483 10.2904 0.592983C10.5154 0.753484 10.5674 1.06598 10.4069 1.29048L5.40692 8.29048C5.30942 8.42698 5.15542 8.49998 4.99942 8.49998Z" fill="#008AF8"/>
<path d="M19.0004 8.49998C18.8444 8.49998 18.6904 8.42698 18.5929 8.29048L13.5929 1.29048C13.4324 1.06598 13.4844 0.753484 13.7094 0.592983C13.9334 0.432483 14.2459 0.484483 14.4069 0.709483L19.4069 7.70948C19.5674 7.93398 19.5154 8.24648 19.2904 8.40698C19.2024 8.46948 19.1009 8.49998 19.0004 8.49998Z" fill="#008AF8"/>
<path d="M12 19C11.7235 19 11.5 18.776 11.5 18.5V13C11.5 12.724 11.7235 12.5 12 12.5C12.2765 12.5 12.5 12.724 12.5 13V18.5C12.5 18.776 12.2765 19 12 19Z" fill="#A5B2BD"/>
<path d="M8 19C7.7235 19 7.5 18.776 7.5 18.5V13C7.5 12.724 7.7235 12.5 8 12.5C8.2765 12.5 8.5 12.724 8.5 13V18.5C8.5 18.776 8.2765 19 8 19Z" fill="#A5B2BD"/>
<path d="M16 19C15.7235 19 15.5 18.776 15.5 18.5V13C15.5 12.724 15.7235 12.5 16 12.5C16.2765 12.5 16.5 12.724 16.5 13V18.5C16.5 18.776 16.2765 19 16 19Z" fill="#A5B2BD"/>
</svg>
