<svg width="24" height="24" viewBox="0 0 24 24" fill="none" xmlns="http://www.w3.org/2000/svg">
<circle cx="12" cy="12" r="11.5" stroke="#2697FF"/>
<path fill-rule="evenodd" clip-rule="evenodd" d="M16.5002 15.9848C16.7072 15.9848 16.8752 16.1528 16.8752 16.3598C16.8752 16.5668 16.7072 16.7348 16.5002 16.7348H12.8737C12.6667 16.7348 12.4987 16.5668 12.4987 16.3598C12.4987 16.1528 12.6667 15.9848 12.8737 15.9848H16.5002ZM14.1831 7.5919C14.2081 7.6114 15.0446 8.2614 15.0446 8.2614C15.3486 8.4424 15.5861 8.7659 15.6761 9.1489C15.7656 9.5279 15.7006 9.9189 15.4921 10.2494C15.4907 10.2516 15.4894 10.2538 15.4845 10.2603L15.4808 10.2653C15.4469 10.3099 15.2998 10.4959 14.5573 11.4262C14.5504 11.4384 14.5426 11.4498 14.534 11.4609C14.5215 11.4773 14.5079 11.4923 14.4933 11.506C14.4427 11.5697 14.3892 11.6367 14.333 11.7072L14.219 11.8499C13.9838 12.1444 13.7049 12.4936 13.374 12.9078L13.2042 13.1204C12.5654 13.9199 11.7472 14.9437 10.6991 16.2549C10.4696 16.5409 10.1256 16.7074 9.75614 16.7119L7.93664 16.7349H7.93164C7.75814 16.7349 7.60714 16.6159 7.56664 16.4464L7.15714 14.7109C7.07264 14.3514 7.15664 13.9804 7.38714 13.6924L12.0971 7.8014C12.0991 7.7994 12.1006 7.7969 12.1026 7.7949C12.6191 7.1774 13.5531 7.0864 14.1831 7.5919ZM11.572 9.65858L7.97264 14.1609C7.88714 14.2679 7.85564 14.4059 7.88714 14.5384L8.22764 15.9809L9.74714 15.9619C9.89164 15.9604 10.0251 15.8959 10.1136 15.7859C10.5694 15.2157 11.1422 14.499 11.7311 13.7621L11.9394 13.5014L12.1481 13.2402C12.7004 12.549 13.246 11.8661 13.7026 11.2945L11.572 9.65858ZM12.6801 8.2734L12.0405 9.07258L14.1709 10.708C14.5809 10.1944 14.8507 9.85614 14.8756 9.8239C14.9576 9.6909 14.9896 9.5029 14.9466 9.3219C14.9026 9.1364 14.7871 8.9789 14.6206 8.8784C14.5851 8.8539 13.7426 8.1999 13.7166 8.1794C13.3996 7.9254 12.9371 7.9694 12.6801 8.2734Z" fill="#2697FF"/>
</svg>
