<svg width="32" height="32" viewBox="0 0 32 32" fill="none" xmlns="http://www.w3.org/2000/svg">
<circle cx="16" cy="16" r="15.5" stroke="#1B75DB"/>
<path fill-rule="evenodd" clip-rule="evenodd" d="M22.0001 21.3131C22.2761 21.3131 22.5001 21.5371 22.5001 21.8131C22.5001 22.0891 22.2761 22.3131 22.0001 22.3131H17.1647C16.8887 22.3131 16.6647 22.0891 16.6647 21.8131C16.6647 21.5371 16.8887 21.3131 17.1647 21.3131H22.0001ZM18.9106 10.1225C18.9439 10.1485 20.0593 11.0152 20.0593 11.0152C20.4646 11.2565 20.7813 11.6879 20.9013 12.1985C21.0206 12.7039 20.9339 13.2252 20.6559 13.6659C20.6541 13.6688 20.6522 13.6717 20.6458 13.6803L20.6408 13.687C20.5957 13.7465 20.3995 13.9945 19.4095 15.2349C19.4003 15.2512 19.3898 15.2664 19.3785 15.2812C19.3618 15.303 19.3436 15.3231 19.3242 15.3413C19.2567 15.4263 19.1854 15.5157 19.1104 15.6096L18.9584 15.7999C18.6449 16.1926 18.273 16.6582 17.8318 17.2104L17.6054 17.4938C16.7536 18.5599 15.6627 19.9249 14.2653 21.6732C13.9593 22.0545 13.5006 22.2765 13.0079 22.2825L10.5819 22.3132H10.5753C10.3439 22.3132 10.1426 22.1545 10.0886 21.9285L9.54261 19.6145C9.42994 19.1352 9.54194 18.6405 9.84927 18.2565L16.1293 10.4019C16.1319 10.3992 16.1339 10.3959 16.1366 10.3932C16.8253 9.56986 18.0706 9.44853 18.9106 10.1225ZM15.4291 12.8781L10.6299 18.8812C10.5159 19.0239 10.4739 19.2079 10.5159 19.3845L10.9699 21.3079L12.9959 21.2825C13.1886 21.2805 13.3666 21.1945 13.4846 21.0479C14.0923 20.2876 14.856 19.332 15.6412 18.3494L15.919 18.0018L16.1972 17.6536C16.9336 16.732 17.6611 15.8215 18.2698 15.0593L15.4291 12.8781ZM16.9066 11.0312L16.0538 12.0968L18.8943 14.2774C19.441 13.5926 19.8007 13.1415 19.8339 13.0985C19.9433 12.9212 19.9859 12.6705 19.9286 12.4292C19.8699 12.1819 19.7159 11.9719 19.4939 11.8379C19.4466 11.8052 18.3233 10.9332 18.2886 10.9059C17.8659 10.5672 17.2493 10.6259 16.9066 11.0312Z" fill="#1B75DB"/>
</svg>
