<svg width="24" height="24" viewBox="0 0 24 24" fill="none" xmlns="http://www.w3.org/2000/svg">
<circle cx="12" cy="12" r="11.5" stroke="#2697FF"/>
<path fill-rule="evenodd" clip-rule="evenodd" d="M16.5002 15.9849C16.7072 15.9849 16.8752 16.1529 16.8752 16.3599C16.8752 16.5669 16.7072 16.7349 16.5002 16.7349H12.8737C12.6667 16.7349 12.4987 16.5669 12.4987 16.3599C12.4987 16.1529 12.6667 15.9849 12.8737 15.9849H16.5002ZM14.1831 7.59196C14.2081 7.61146 15.0446 8.26146 15.0446 8.26146C15.3486 8.44246 15.5861 8.76596 15.6761 9.14896C15.7656 9.52796 15.7006 9.91896 15.4921 10.2495C15.4907 10.2517 15.4894 10.2538 15.4845 10.2603L15.4808 10.2653C15.4469 10.3099 15.2998 10.496 14.5573 11.4263C14.5504 11.4384 14.5426 11.4499 14.534 11.461C14.5215 11.4773 14.5079 11.4923 14.4933 11.506C14.4427 11.5698 14.3892 11.6368 14.333 11.7073L14.219 11.85C13.9838 12.1445 13.7049 12.4937 13.374 12.9079L13.2042 13.1204C12.5654 13.92 11.7472 14.9438 10.6991 16.255C10.4696 16.541 10.1256 16.7075 9.75614 16.712L7.93664 16.735H7.93164C7.75814 16.735 7.60714 16.616 7.56664 16.4465L7.15714 14.711C7.07264 14.3515 7.15664 13.9805 7.38714 13.6925L12.0971 7.80146C12.0991 7.79946 12.1006 7.79696 12.1026 7.79496C12.6191 7.17746 13.5531 7.08646 14.1831 7.59196ZM11.572 9.65864L7.97264 14.161C7.88714 14.268 7.85564 14.406 7.88714 14.5385L8.22764 15.981L9.74714 15.962C9.89164 15.9605 10.0251 15.896 10.1136 15.786C10.5694 15.2157 11.1422 14.4991 11.7311 13.7621L11.9394 13.5014L12.1481 13.2402C12.7004 12.5491 13.246 11.8662 13.7026 11.2946L11.572 9.65864ZM12.6801 8.27346L12.0405 9.07264L14.1709 10.7081C14.5809 10.1945 14.8507 9.85621 14.8756 9.82396C14.9576 9.69096 14.9896 9.50296 14.9466 9.32196C14.9026 9.13646 14.7871 8.97896 14.6206 8.87846C14.5851 8.85396 13.7426 8.19996 13.7166 8.17946C13.3996 7.92546 12.9371 7.96946 12.6801 8.27346Z" fill="#2697FF"/>
</svg>
