<svg width="41" height="40" viewBox="0 0 41 40" fill="none" xmlns="http://www.w3.org/2000/svg">
<path d="M37.5834 22.565H3.41675L0.854248 19.1483L4.27091 15.7317H36.7292L40.1459 19.1483L37.5834 22.565Z" fill="#082D63"/>
<path d="M35.021 39.6483H5.97933C5.03548 39.6483 4.271 38.8838 4.271 37.94V2.06498C4.271 1.12113 5.03548 0.356651 5.97933 0.356651H26.4793L36.7293 10.6067V37.94C36.7293 38.8838 35.9648 39.6483 35.021 39.6483Z" fill="#F4F6F7"/>
<path d="M26.4792 0.356651V8.89832C26.4792 9.84217 27.2437 10.6067 28.1876 10.6067H36.7292L26.4792 0.356651Z" fill="#E9ECEE"/>
<path d="M38.4376 34.5234H2.56258C1.61873 34.5234 0.854248 33.7589 0.854248 32.815V19.1484H40.1459V32.815C40.1459 33.7589 39.3814 34.5234 38.4376 34.5234Z" fill="#2697FF"/>
<path d="M6 24.0739H10.4754V25.2575H7.61219V26.3589H10.2904V27.5424H7.61219V28.7424H10.4754V29.926H6V24.0739Z" fill="white"/>
<path d="M17.639 29.926H15.7097L14.3089 28.1013L12.8994 29.926H10.9788L13.3663 26.9671L11.0317 24.0739H12.9434L14.3001 25.8493L15.6833 24.0739H17.6038L15.2428 26.9671L17.639 29.926Z" fill="white"/>
<path d="M21.3082 30C20.6562 30 20.0865 29.8767 19.5991 29.6301C19.1175 29.378 18.7445 29.0246 18.4802 28.5698C18.2218 28.115 18.0926 27.589 18.0926 26.9917C18.0926 26.4 18.2218 25.8794 18.4802 25.4301C18.7445 24.9753 19.1175 24.6246 19.5991 24.378C20.0865 24.126 20.6562 24 21.3082 24C21.7193 24 22.1157 24.0575 22.4975 24.1726C22.8851 24.2876 23.1964 24.4438 23.4313 24.6411L22.9292 25.7342C22.4182 25.389 21.8896 25.2164 21.3434 25.2164C20.8383 25.2164 20.4507 25.3671 20.1805 25.6685C19.9103 25.9643 19.7753 26.4054 19.7753 26.9917C19.7753 27.5835 19.9103 28.0301 20.1805 28.3315C20.4507 28.6328 20.8383 28.7835 21.3434 28.7835C21.8896 28.7835 22.4182 28.6109 22.9292 28.2657L23.4313 29.3589C23.1964 29.5561 22.8851 29.7123 22.4975 29.8274C22.1157 29.9424 21.7193 30 21.3082 30Z" fill="white"/>
<path d="M24.833 24.0739H29.3084V25.2575H26.4452V26.3589H29.1234V27.5424H26.4452V28.7424H29.3084V29.926H24.833V24.0739Z" fill="white"/>
<path d="M30.692 24.0739H32.3483V28.6767H35V29.926H30.692V24.0739Z" fill="white"/>
</svg>
