<svg width="48" height="48" viewBox="0 0 48 48" fill="none" xmlns="http://www.w3.org/2000/svg">
<path d="M24.0001 43.1998C20.2027 43.1998 16.4905 42.0737 13.3331 39.964C10.1757 37.8543 7.71477 34.8557 6.26157 31.3473C4.80837 27.839 4.42814 23.9785 5.16898 20.2541C5.90982 16.5296 7.73844 13.1085 10.4236 10.4234C13.1088 7.73819 16.5299 5.90957 20.2543 5.16874C23.9788 4.4279 27.8392 4.80812 31.3476 6.26133C34.8559 7.71453 37.8545 10.1754 39.9643 13.3329C42.074 16.4903 43.2001 20.2024 43.2001 23.9998C43.1943 29.0902 41.1696 33.9704 37.5701 37.5699C33.9707 41.1693 29.0904 43.194 24.0001 43.1998Z" fill="#F9DB74"/>
<path d="M36.6001 15.5999C35.4866 15.5985 34.4191 15.1334 33.6318 14.3066C32.8444 13.4799 32.4015 12.3589 32.4001 11.1897C32.4001 9.10629 35.2956 3.83873 35.8769 2.80409C35.9567 2.67966 36.0644 2.57772 36.1905 2.50724C36.3166 2.43676 36.4573 2.3999 36.6001 2.3999C36.743 2.3999 36.8837 2.43676 37.0098 2.50724C37.1359 2.57772 37.2436 2.67966 37.3234 2.80409C37.9047 3.83873 40.8001 9.10629 40.8001 11.1897C40.7988 12.3589 40.3559 13.4799 39.5685 14.3066C38.7812 15.1334 37.7136 15.5985 36.6001 15.5999Z" fill="#21C2F5"/>
<path d="M18.256 35.9931C18.0908 35.9931 17.929 35.9395 17.7904 35.8388C17.6517 35.738 17.5421 35.5945 17.4746 35.4255C17.4072 35.2565 17.3849 35.0693 17.4104 34.8864C17.4359 34.7035 17.5081 34.5328 17.6184 34.3949C18.4212 33.3896 19.4043 32.5855 20.5036 32.0349C21.6028 31.4843 22.7934 31.1997 23.9975 31.1997C25.2016 31.1997 26.3922 31.4843 27.4914 32.0349C28.5906 32.5855 29.5738 33.3896 30.3766 34.3949C30.4528 34.4884 30.5117 34.598 30.5499 34.7172C30.5881 34.8364 30.6048 34.9629 30.5991 35.0894C30.5933 35.2159 30.5653 35.3399 30.5166 35.4542C30.4679 35.5684 30.3994 35.6708 30.3152 35.7553C30.2309 35.8397 30.1326 35.9047 30.0258 35.9464C29.919 35.988 29.8059 36.0056 29.6931 35.998C29.5802 35.9904 29.4698 35.9579 29.3682 35.9022C29.2666 35.8466 29.1759 35.769 29.1013 35.6738C28.459 34.8694 27.6724 34.2259 26.793 33.7854C25.9135 33.3448 24.9609 33.117 23.9975 33.117C23.034 33.117 22.0815 33.3448 21.202 33.7854C20.3225 34.2259 19.5359 34.8694 18.8937 35.6738C18.8134 35.7743 18.7151 35.8546 18.6052 35.9096C18.4954 35.9646 18.3764 35.9931 18.256 35.9931Z" fill="#304165"/>
<path d="M35.1 21.6001C34.8614 21.6001 34.6324 21.7012 34.4637 21.8813C34.2949 22.0613 34.2 22.3055 34.2 22.5601C34.2 23.0693 34.0104 23.5577 33.6728 23.9177C33.3353 24.2778 32.8774 24.4801 32.4 24.4801C31.9227 24.4801 31.4648 24.2778 31.1273 23.9177C30.7897 23.5577 30.6 23.0693 30.6 22.5601C30.6 22.3055 30.5052 22.0613 30.3364 21.8813C30.1677 21.7012 29.9387 21.6001 29.7 21.6001C29.4614 21.6001 29.2324 21.7012 29.0637 21.8813C28.8949 22.0613 28.8 22.3055 28.8 22.5601C28.8 23.5785 29.1793 24.5552 29.8545 25.2754C30.5296 25.9955 31.4453 26.4001 32.4 26.4001C33.3548 26.4001 34.2705 25.9955 34.9456 25.2754C35.6208 24.5552 36 23.5785 36 22.5601C36 22.3055 35.9052 22.0613 35.7364 21.8813C35.5677 21.7012 35.3387 21.6001 35.1 21.6001Z" fill="#304165"/>
<path d="M12.9 21.6001C13.1387 21.6001 13.3676 21.7012 13.5364 21.8813C13.7052 22.0613 13.8 22.3055 13.8 22.5601C13.8 23.0693 13.9896 23.5577 14.3272 23.9177C14.6648 24.2778 15.1226 24.4801 15.6 24.4801C16.0774 24.4801 16.5352 24.2778 16.8728 23.9177C17.2104 23.5577 17.4 23.0693 17.4 22.5601C17.4 22.3055 17.4948 22.0613 17.6636 21.8813C17.8324 21.7012 18.0613 21.6001 18.3 21.6001C18.5387 21.6001 18.7676 21.7012 18.9364 21.8813C19.1052 22.0613 19.2 22.3055 19.2 22.5601C19.2 23.5785 18.8207 24.5552 18.1456 25.2754C17.4705 25.9955 16.5548 26.4001 15.6 26.4001C14.6452 26.4001 13.7295 25.9955 13.0544 25.2754C12.3793 24.5552 12 23.5785 12 22.5601C12 22.3055 12.0948 22.0613 12.2636 21.8813C12.4324 21.7012 12.6613 21.6001 12.9 21.6001Z" fill="#304165"/>
</svg>
