<svg width="24" height="26" viewBox="0 0 24 26" fill="none" xmlns="http://www.w3.org/2000/svg">
<path d="M22.1164 22.5825H5.86035C5.26158 22.5825 4.77661 22.0817 4.77661 21.4634V1.31912C4.77661 0.700806 5.26158 0.199997 5.86035 0.199997H22.1164C22.7152 0.199997 23.2001 0.700806 23.2001 1.31912V21.4634C23.2001 22.0817 22.7152 22.5825 22.1164 22.5825Z" fill="#A5B2BD"/>
<path d="M18.1398 25.8H1.88379C1.28502 25.8 0.800049 25.2992 0.800049 24.6809V4.53661C0.800049 3.91829 1.28502 3.41748 1.88379 3.41748H18.1398C18.7386 3.41748 19.2236 3.91829 19.2236 4.53661V24.6809C19.2236 25.2992 18.7386 25.8 18.1398 25.8Z" fill="#F0F2F4"/>
<path d="M14.0118 10.2721H5.34192C5.04281 10.2721 4.80005 10.0214 4.80005 9.71257C4.80005 9.40369 5.04281 9.15301 5.34192 9.15301H14.0118C14.3109 9.15301 14.5537 9.40369 14.5537 9.71257C14.5537 10.0214 14.3109 10.2721 14.0118 10.2721Z" fill="#A5B2BD"/>
<path d="M14.0118 14.7486H5.34192C5.04281 14.7486 4.80005 14.4979 4.80005 14.1891C4.80005 13.8802 5.04281 13.6295 5.34192 13.6295H14.0118C14.3109 13.6295 14.5537 13.8802 14.5537 14.1891C14.5537 14.4979 14.3109 14.7486 14.0118 14.7486Z" fill="#A5B2BD"/>
<path d="M9.67686 19.2251H5.34192C5.04281 19.2251 4.80005 18.9744 4.80005 18.6656C4.80005 18.3567 5.04281 18.106 5.34192 18.106H9.67686C9.97597 18.106 10.2187 18.3567 10.2187 18.6656C10.2187 18.9744 9.97597 19.2251 9.67686 19.2251Z" fill="#A5B2BD"/>
</svg>
