<svg width="24" height="26" viewBox="0 0 24 26" fill="none" xmlns="http://www.w3.org/2000/svg">
<path d="M22.1163 22.5825H5.86023C5.26146 22.5825 4.77649 22.0817 4.77649 21.4633V1.31908C4.77649 0.70076 5.26146 0.199951 5.86023 0.199951H22.1163C22.715 0.199951 23.2 0.70076 23.2 1.31908V21.4633C23.2 22.0817 22.715 22.5825 22.1163 22.5825Z" fill="#A5B2BD"/>
<path d="M18.1398 25.8H1.88379C1.28502 25.8 0.800049 25.2992 0.800049 24.6809V4.53661C0.800049 3.91829 1.28502 3.41748 1.88379 3.41748H18.1398C18.7386 3.41748 19.2236 3.91829 19.2236 4.53661V24.6809C19.2236 25.2992 18.7386 25.8 18.1398 25.8Z" fill="#F0F2F4"/>
<path d="M14.0118 10.2722H5.34192C5.04281 10.2722 4.80005 10.0215 4.80005 9.71264C4.80005 9.40376 5.04281 9.15308 5.34192 9.15308H14.0118C14.3109 9.15308 14.5537 9.40376 14.5537 9.71264C14.5537 10.0215 14.3109 10.2722 14.0118 10.2722Z" fill="#A5B2BD"/>
<path d="M14.0118 14.7485H5.34192C5.04281 14.7485 4.80005 14.4978 4.80005 14.189C4.80005 13.8801 5.04281 13.6294 5.34192 13.6294H14.0118C14.3109 13.6294 14.5537 13.8801 14.5537 14.189C14.5537 14.4978 14.3109 14.7485 14.0118 14.7485Z" fill="#A5B2BD"/>
<path d="M9.67686 19.2251H5.34192C5.04281 19.2251 4.80005 18.9744 4.80005 18.6655C4.80005 18.3566 5.04281 18.106 5.34192 18.106H9.67686C9.97597 18.106 10.2187 18.3566 10.2187 18.6655C10.2187 18.9744 9.97597 19.2251 9.67686 19.2251Z" fill="#A5B2BD"/>
</svg>
