<svg width="24" height="24" viewBox="0 0 24 24" fill="none" xmlns="http://www.w3.org/2000/svg">
<path d="M13.5234 11.9958L9.17178 16.3039L9.11712 16.3647C9.03141 16.4826 8.99058 16.6267 9.00183 16.7715C9.01308 16.9163 9.07567 17.0525 9.17858 17.156C9.29381 17.2696 9.44979 17.3333 9.61239 17.3333C9.77498 17.3333 9.93096 17.2696 10.0462 17.156L14.8282 12.4219L14.8829 12.361C14.9686 12.2432 15.0094 12.0991 14.9982 11.9543C14.9869 11.8095 14.9243 11.6733 14.8214 11.5698L10.0394 6.83572L9.97789 6.78161C9.87189 6.70759 9.74552 6.66748 9.6158 6.66665C9.53325 6.66637 9.45146 6.68238 9.37522 6.71373C9.29898 6.74508 9.22985 6.79114 9.17178 6.84924L9.11712 6.91011C9.03141 7.02798 8.99058 7.17205 9.00183 7.31686C9.01308 7.46166 9.07567 7.59788 9.17858 7.70138L13.5234 11.9958Z" fill="#1A8FF1"/>
<rect x="0.6" y="0.6" width="22.8" height="22.8" rx="7.4" stroke="#1A8FF1" stroke-width="1.2"/>
</svg>
