<svg width="16" height="16" viewBox="0 0 16 16" fill="none" xmlns="http://www.w3.org/2000/svg">
<path fill-rule="evenodd" clip-rule="evenodd" d="M8.95419 10.1936C9.73728 10.1936 10.3747 10.7969 10.3747 11.5384V13.4456C10.3747 13.6049 10.5087 13.7326 10.6804 13.7363H11.92C12.897 13.7363 13.6911 12.9886 13.6911 12.0698V6.66085C13.6865 6.34465 13.5285 6.04705 13.2573 5.84927L8.96915 2.58929C8.39354 2.15467 7.58833 2.15467 7.01077 2.59053L2.75191 5.84803C2.47028 6.05201 2.31224 6.34961 2.30898 6.67139V12.0698C2.30898 12.9886 3.10313 13.7363 4.08004 13.7363H5.33142C5.50768 13.7363 5.65077 13.603 5.65077 13.4394C5.65077 13.4034 5.65532 13.3674 5.66313 13.3333V11.5384C5.66313 10.8012 6.29663 10.1986 7.07386 10.1936H8.95419ZM11.92 14.6663H10.6687C9.95191 14.6502 9.39907 14.1139 9.39907 13.4456V11.5384C9.39907 11.3096 9.19939 11.1236 8.95419 11.1236H7.07711C6.83711 11.1249 6.63874 11.3115 6.63874 11.5384V13.4394C6.63874 13.4859 6.63224 13.5305 6.61858 13.5727C6.54833 14.1865 5.99809 14.6663 5.33142 14.6663H4.08004C2.56524 14.6663 1.33337 13.5014 1.33337 12.0698V6.66705C1.33988 6.05077 1.63776 5.48657 2.15224 5.11519L6.40264 1.86327C7.33858 1.15646 8.64264 1.15646 9.57663 1.86203L13.8576 5.11705C14.3604 5.48223 14.6583 6.04519 14.6667 6.65403V12.0698C14.6667 13.5014 13.4348 14.6663 11.92 14.6663Z" fill="#3D4852"/>
</svg>
