<svg width="16" height="16" viewBox="0 0 16 16" fill="none" xmlns="http://www.w3.org/2000/svg">
<path fill-rule="evenodd" clip-rule="evenodd" d="M4.50001 1.5C4.23479 1.5 3.98044 1.60536 3.7929 1.79289C3.60537 1.98043 3.50001 2.23478 3.50001 2.5L3.5 4.75L3.50002 4.75308C3.50097 4.9072 3.53731 5.05904 3.60623 5.19689C3.67516 5.33474 3.77482 5.45492 3.89754 5.54815L7.16667 7.99999L3.89999 10.45L3.89754 10.4519C3.77482 10.5451 3.67515 10.6653 3.60622 10.8031C3.5373 10.941 3.50095 11.0928 3.5 11.2469V13.5C3.5 13.7652 3.60536 14.0196 3.79289 14.2071C3.98043 14.3946 4.23478 14.5 4.5 14.5H11.5C11.7652 14.5 12.0196 14.3946 12.2071 14.2071C12.3946 14.0196 12.5 13.7652 12.5 13.5L12.5 11.275L12.5 11.2719C12.499 11.1178 12.4627 10.966 12.3938 10.8281C12.3249 10.6903 12.2252 10.5701 12.1025 10.4769L8.82871 8L12.1025 5.52314C12.2252 5.42991 12.3249 5.30974 12.3938 5.17189C12.4627 5.03404 12.4991 4.8822 12.5 4.72808V2.5C12.5 2.23478 12.3947 1.98043 12.2071 1.79289C12.0196 1.60536 11.7652 1.5 11.5 1.5H4.50001ZM4.50001 2.5H11.5V4.72223L11.4994 4.72467L11.4985 4.72595L11.4975 4.72686L7.9987 7.37401L4.50223 4.75166L4.50066 4.74967L4.50001 4.74723L4.50001 2.5ZM4.50065 11.2503L4.5 11.2528V13.5H11.5V11.2778L11.4993 11.2753L11.4985 11.2741L11.4975 11.2731L7.99869 8.62598L4.50222 11.2483L4.50065 11.2503Z" fill="#1D2B36"/>
</svg>
