<svg width="16" height="16" viewBox="0 0 16 16" fill="none" xmlns="http://www.w3.org/2000/svg">
<path d="M10.8933 1.33334C13.1533 1.33334 14.6666 2.92001 14.6666 5.28001V10.7273C14.6666 13.0807 13.1533 14.6667 10.8933 14.6667H5.11325C2.85325 14.6667 1.33325 13.0807 1.33325 10.7273V5.28001C1.33325 2.92001 2.85325 1.33334 5.11325 1.33334H10.8933ZM7.99325 6.98734C7.67325 6.98734 7.41325 7.25334 7.41325 7.57401V10.5207C7.41325 10.8407 7.67325 11.1007 7.99325 11.1007C8.31992 11.1007 8.57992 10.8407 8.57992 10.5207V7.57401C8.57992 7.25334 8.31992 6.98734 7.99325 6.98734ZM8.00659 4.87401C7.67992 4.87401 7.41992 5.13401 7.41992 5.46068C7.41992 5.78001 7.67992 6.04068 7.99325 6.04068C8.32659 6.04068 8.58659 5.78001 8.58659 5.46068C8.58659 5.13401 8.32659 4.87401 8.00659 4.87401Z" fill="#304165"/>
</svg>
