<svg width="51" height="51" viewBox="0 0 51 51" fill="none" xmlns="http://www.w3.org/2000/svg">
<path d="M-4.47217e-06 25.5012C-4.47217e-06 39.575 11.4268 51 25.5 51C39.5732 51 51 39.575 51 25.5012C51 11.4274 39.5732 0 25.5 0C11.4268 0 -4.47217e-06 11.4274 -4.47217e-06 25.5012Z" fill="#00A651"/>
<path d="M20.4296 8.60599V14.4342H14.6039V20.2599H8.7757V30.5704H14.6039V36.3961H20.4296V42.2243H30.7401V36.3961H36.5658V30.5704H42.394V20.2599H36.5658V14.4342H30.7401V8.60599H20.4296Z" fill="#FFFF00"/>
<path d="M28.4977 16.6741H34.3259V22.5022H40.1517V28.328H34.3259V34.1562H28.4977V39.9819H22.672V34.1562H16.8438V28.328H11.018V22.5022H16.8438V16.6741H22.672V10.8483H28.4977V16.6741Z" fill="white"/>
<path d="M28.4977 22.5023H34.3259V28.328H28.4977V34.1562H22.672V28.328H16.8438V22.5023H22.672V16.6741H28.4977V22.5023Z" fill="#ED1E25"/>
</svg>
