<svg width="16" height="16" viewBox="0 0 16 16" fill="none" xmlns="http://www.w3.org/2000/svg">
<path fill-rule="evenodd" clip-rule="evenodd" d="M14.8363 7.99601C14.8363 11.7748 11.7743 14.8368 7.99551 14.8368C4.22556 14.8368 1.16357 11.7748 1.16357 7.99601C1.16357 4.21721 4.22556 1.16408 7.99551 1.16408C11.7832 1.15523 14.8363 4.21721 14.8363 7.99601Z" fill="#A5B2BD"/>
<path fill-rule="evenodd" clip-rule="evenodd" d="M12.5617 6.47299H11.0485V4.95085H9.52631V3.42871H6.48203V4.95085H4.95989V6.47299H3.43774V9.51727H4.95989V11.0394H6.48203V12.5616H9.52631V11.0394H11.0485V9.51727H12.5617V6.47299Z" fill="#C4CDD4"/>
<path fill-rule="evenodd" clip-rule="evenodd" d="M11.8099 7.23373H10.2878V5.71159H8.76564V4.18945H7.2435V5.71159H5.72136V7.23373H4.19922V8.75587H5.72136V10.278H7.2435V11.7913H8.76564V10.278H10.2878V8.75587H11.8099V7.23373Z" fill="#F0F2F4"/>
<path fill-rule="evenodd" clip-rule="evenodd" d="M10.2874 7.23405H8.76523V5.71191H7.24309V7.23405H5.72095V8.75619H7.24309V10.2783H8.76523V8.75619H10.2874V7.23405Z" fill="#7E8FA0"/>
</svg>
