<svg width="32" height="32" viewBox="0 0 32 32" fill="none" xmlns="http://www.w3.org/2000/svg">
<circle cx="16" cy="16" r="15.5" stroke="#1B75DB"/>
<path d="M12.4515 12.583C12.4515 11.7454 13.1305 11.0663 13.9682 11.0663H19.3532C20.1908 11.0663 20.8698 11.7454 20.8698 12.583V18.0005C20.8698 18.8381 20.1908 19.5172 19.3532 19.5172H17.7702C17.5033 19.5172 17.2869 19.7336 17.2869 20.0005C17.2869 20.2674 17.5033 20.4838 17.7702 20.4838H19.3532C20.7247 20.4838 21.8365 19.372 21.8365 18.0005V12.583C21.8365 11.2115 20.7247 10.0997 19.3532 10.0997H13.9682C12.5966 10.0997 11.4848 11.2115 11.4848 12.583V14.0144C11.4848 14.2813 11.7012 14.4977 11.9682 14.4977C12.2351 14.4977 12.4515 14.2813 12.4515 14.0144V12.583Z" fill="#1B75DB"/>
<path d="M15.38 16.6767C15.3636 16.6575 15.3458 16.6395 15.3267 16.6229C15.2881 16.5894 15.2455 16.5628 15.2007 16.5431C15.1393 16.516 15.0713 16.501 14.9999 16.501H11.2499C10.9744 16.501 10.751 16.7244 10.751 17C10.751 17.2755 10.9744 17.4989 11.2499 17.4989H13.7954L10.1471 21.1472C9.95227 21.342 9.95227 21.6579 10.1471 21.8528C10.342 22.0476 10.6579 22.0476 10.8527 21.8528L14.501 18.2045V20.75C14.501 21.0255 14.7244 21.2489 14.9999 21.2489C15.2755 21.2489 15.4989 21.0255 15.4989 20.75V17C15.4989 16.9238 15.4818 16.8517 15.4513 16.7871C15.4329 16.7481 15.4091 16.7109 15.38 16.6767Z" fill="#1B75DB"/>
</svg>
