<svg width="24" height="24" viewBox="0 0 24 24" fill="none" xmlns="http://www.w3.org/2000/svg">
<circle cx="12" cy="12" r="11.5" stroke="#2697FF"/>
<path d="M9.33886 9.43721C9.33886 8.80898 9.84814 8.29971 10.4764 8.29971H14.5151C15.1433 8.29971 15.6526 8.80898 15.6526 9.43721V13.5003C15.6526 14.1286 15.1433 14.6378 14.5151 14.6378H13.3279C13.1277 14.6378 12.9654 14.8001 12.9654 15.0003C12.9654 15.2005 13.1277 15.3628 13.3279 15.3628H14.5151C15.5438 15.3628 16.3776 14.529 16.3776 13.5003V9.43721C16.3776 8.40858 15.5438 7.57471 14.5151 7.57471H10.4764C9.44773 7.57471 8.61386 8.40858 8.61386 9.43721V10.5108C8.61386 10.711 8.77616 10.8733 8.97636 10.8733C9.17656 10.8733 9.33886 10.711 9.33886 10.5108V9.43721Z" fill="#2697FF"/>
<path d="M11.5353 12.5075C11.523 12.4931 11.5096 12.4796 11.4953 12.4671C11.4663 12.442 11.4344 12.422 11.4008 12.4073C11.3547 12.387 11.3038 12.3757 11.2502 12.3757H8.43769C8.23103 12.3757 8.06349 12.5433 8.06349 12.7499C8.06349 12.9566 8.23103 13.1241 8.43769 13.1241H10.3468L7.61058 15.8603C7.46444 16.0065 7.46444 16.2434 7.61058 16.3895C7.75671 16.5357 7.99364 16.5357 8.13977 16.3895L10.876 13.6533V15.5624C10.876 15.7691 11.0435 15.9366 11.2502 15.9366C11.4569 15.9366 11.6244 15.7691 11.6244 15.5624V12.7499C11.6244 12.6928 11.6116 12.6387 11.5887 12.5903C11.5749 12.561 11.5571 12.5331 11.5353 12.5075Z" fill="#2697FF"/>
</svg>
