<svg width="32" height="32" viewBox="0 0 32 32" fill="none" xmlns="http://www.w3.org/2000/svg">
<g clip-path="url(#clip0)">
<path d="M19.368 31.6414C10.7434 33.4984 2.21558 27.9924 0.358511 19.3678C-1.49856 10.7432 4.00745 2.21542 12.632 0.358346C21.2566 -1.49873 29.7845 4.00728 31.6415 12.6319C33.4986 21.2565 27.9926 29.7843 19.368 31.6414ZM13.474 4.26872C7.00559 5.66153 2.87608 12.0574 4.26889 18.5258C5.66169 24.9943 12.0575 29.1238 18.526 27.731C24.9944 26.3382 29.124 19.9423 27.7311 13.4739C26.3383 7.00543 19.9425 2.87592 13.474 4.26872Z" fill="#F9FBFB"/>
<path d="M31.6415 12.6319L27.7311 13.4739C26.3383 7.00548 19.9425 2.87597 13.474 4.26878L12.632 0.358398C21.2566 -1.49867 29.7844 4.00733 31.6415 12.6319Z" fill="#008AF8"/>
</g>
<defs>
<clipPath id="clip0">
<rect width="32" height="32" fill="white"/>
</clipPath>
</defs>
</svg>
