<svg width="24" height="25" viewBox="0 0 24 25" fill="none" xmlns="http://www.w3.org/2000/svg">
<path fill-rule="evenodd" clip-rule="evenodd" d="M12.725 16.3486C16.0982 15.9871 18.725 13.1314 18.725 9.66226C18.725 5.94814 15.7141 2.93726 12 2.93726C8.28591 2.93726 5.27502 5.94814 5.27502 9.66226C5.27502 13.1314 7.90187 15.9871 11.275 16.3486V21.2123H7.41512C7.01472 21.2123 6.69012 21.5369 6.69012 21.9373C6.69012 22.3377 7.01472 22.6623 7.41512 22.6623H16.585C16.9854 22.6623 17.31 22.3377 17.31 21.9373C17.31 21.5369 16.9854 21.2123 16.585 21.2123H12.725V16.3486ZM6.72502 9.66226C6.72502 6.74895 9.08672 4.38726 12 4.38726C14.9133 4.38726 17.275 6.74895 17.275 9.66226C17.275 12.5756 14.9133 14.9373 12 14.9373C9.08672 14.9373 6.72502 12.5756 6.72502 9.66226Z" fill="#1D2B36"/>
</svg>
