<svg width="32" height="32" viewBox="0 0 32 32" fill="none" xmlns="http://www.w3.org/2000/svg">
<path d="M11.0718 23.7086L9.21117 21.8367C9.07162 21.6963 9.07162 21.4155 9.21117 21.2751L11.0718 19.4033C11.2114 19.2629 11.4905 19.2629 11.63 19.4033L13.4906 21.2751C13.6302 21.4155 13.6302 21.6963 13.4906 21.8367L11.63 23.7086C11.4905 23.849 11.2114 23.849 11.0718 23.7086Z" fill="white"/>
<path d="M19.8634 24.2233L18.0492 22.3046C17.9097 22.1642 17.9097 21.8835 18.0492 21.7431L19.9564 19.918C20.096 19.7776 20.375 19.7776 20.5146 19.918L22.3287 21.8367C22.4683 21.9771 22.4683 22.2578 22.3287 22.3982L20.4216 24.2233C20.282 24.4105 20.0494 24.4105 19.8634 24.2233Z" fill="white"/>
<path d="M15.8164 21.5559C15.6769 21.5559 15.5838 21.5091 15.4908 21.4155L14.6535 20.5732C14.5605 20.4796 14.514 20.386 14.514 20.2456C14.514 20.1052 14.5605 20.0116 14.6535 19.918L15.4908 19.0757C15.6769 18.8885 15.956 18.8885 16.142 19.0757L16.9793 19.918C17.0724 20.0116 17.1189 20.1052 17.1189 20.2456C17.1189 20.386 17.0724 20.4796 16.9793 20.5732L16.142 21.4155C16.049 21.5091 15.956 21.5559 15.8164 21.5559ZM15.1187 20.2456L15.8164 20.9476L16.5142 20.2456L15.8164 19.5437L15.1187 20.2456Z" fill="white"/>
<path d="M15.3979 18.0462C15.2583 18.0462 15.1188 17.9994 15.0258 17.9058L13.9559 16.7827C13.7698 16.5955 13.7698 16.2679 13.9559 16.0339L15.0258 14.9576C15.2118 14.7704 15.5374 14.7704 15.77 14.9576L16.8399 16.0339C17.026 16.2211 17.026 16.5487 16.8399 16.7827L15.77 17.859C15.677 17.9994 15.5374 18.0462 15.3979 18.0462ZM14.4211 16.4083L15.4444 17.4378L16.4678 16.4083L15.3979 15.4256L14.4211 16.4083Z" fill="white"/>
<path d="M18.2351 18.9353L17.5374 18.2334C17.4909 18.1866 17.4909 18.093 17.5374 17.9994L18.2351 17.2974C18.2816 17.2506 18.3747 17.2506 18.4677 17.2974L19.1655 17.9994C19.212 18.0462 19.212 18.1398 19.1655 18.2334L18.4677 18.9353C18.3747 18.9821 18.2816 18.9821 18.2351 18.9353Z" fill="white"/>
<path d="M15.2584 23.8958L14.6072 23.2407C14.5606 23.1939 14.5606 23.1003 14.6072 23.0535L15.2584 22.3983C15.3049 22.3515 15.3979 22.3515 15.4444 22.3983L16.0957 23.0535C16.1422 23.1003 16.1422 23.1939 16.0957 23.2407L15.4444 23.8958C15.3979 23.9426 15.3049 23.9426 15.2584 23.8958Z" fill="white"/>
<path d="M16.3745 26.9844L15.2581 25.8612C15.1651 25.7677 15.1651 25.6273 15.2581 25.5337L16.328 24.4573C16.421 24.3637 16.5606 24.3637 16.6536 24.4573L17.77 25.5805C17.863 25.6741 17.863 25.8144 17.77 25.908L16.7001 26.9844C16.6071 27.078 16.4675 27.078 16.3745 26.9844Z" fill="white"/>
<path d="M31.6319 9.06121C30.2364 4.70912 24.9336 3.21163 21.3983 6.25341C19.5377 7.8445 17.7236 9.57598 15.8629 11.2607L15.9094 12.3838C16.049 12.4774 16.142 12.571 16.1885 12.6646C18.4678 15.1916 20.8867 17.625 23.1194 20.1988C23.7707 20.9476 24.3288 21.1348 25.1196 20.386C26.7477 18.8417 28.3292 17.4846 29.9573 15.8935C31.8645 13.9749 32.4692 11.6818 31.6319 9.06121ZM29.2596 14.1621C27.678 15.8935 25.8639 17.391 24.0963 19.0757C21.91 16.6423 19.8633 14.3024 17.677 11.869C19.4912 10.2311 21.2123 8.54645 23.0729 7.09575C24.9336 5.69185 27.6315 6.25341 29.1665 8.03169C30.655 9.76316 30.8411 12.4306 29.2596 14.1621Z" fill="white"/>
<path d="M16.0025 11.2137C14.1418 9.529 12.4207 7.89111 10.6531 6.34682C7.9552 4.00698 4.00133 4.19417 1.67553 6.81479C-0.696793 9.529 -0.557245 13.5067 2.14069 16.0337C3.6292 17.4844 4.97817 18.514 6.5132 19.9179C7.76914 21.041 7.86217 21.041 8.97855 19.7775C11.2113 17.2505 13.6767 15.051 15.956 12.4772V11.2137H16.0025Z" fill="white"/>
</svg>
