<svg width="32" height="32" viewBox="0 0 32 32" fill="none" xmlns="http://www.w3.org/2000/svg">
    <path d="M30.1342 6.3878C28.8903 5.12349 27.2716 4.5 25.6358 4.5C24 4.5 22.3813 5.12349 21.1374 6.3878L16.0937 11.7568L10.8626 6.68223C8.39191 4.15361 4.35357 4.15361 1.86581 6.68223C-0.621938 9.21084 -0.621938 13.2982 1.86581 15.8268L7.57402 21.369L16.1448 12.6574L24.6816 21.3343L30.1342 15.5324C32.6219 13.0211 32.6219 8.91642 30.1342 6.3878ZM28.9414 14.32L28.9073 14.3547L24.6645 18.875L18.0703 12.1724L22.3472 7.61747C23.2332 6.73419 24.3919 6.24925 25.6358 6.24925C26.8797 6.24925 28.0554 6.73419 28.9244 7.63479C30.7476 9.47063 30.7476 12.4669 28.9414 14.32Z"
          fill="#F1F3F5"/>
    <path d="M15.4473 18.4073C15.6006 18.4073 15.7369 18.3554 15.8562 18.2342L16.8956 17.1777C17.1171 16.9525 17.1171 16.5715 16.8956 16.3464L15.8562 15.2726C15.7369 15.1513 15.6006 15.0994 15.4473 15.0994C15.2939 15.0994 15.1576 15.1513 15.0383 15.2726L13.9989 16.329C13.7774 16.5542 13.7774 16.9352 13.9989 17.1604L15.0383 18.2168C15.1406 18.3381 15.2939 18.4073 15.4473 18.4073ZM15.4473 15.8441L16.3503 16.762L15.4473 17.6626L14.5442 16.7447L15.4473 15.8441Z"
          fill="#F1F3F5"/>
    <path d="M18.6166 19.2906L19.2811 18.6151C19.4004 18.4939 19.4004 18.3207 19.2811 18.1995L18.6166 17.524C18.4973 17.4028 18.3269 17.4028 18.2076 17.524L17.5431 18.1995C17.4238 18.3207 17.4238 18.4939 17.5431 18.6151L18.2076 19.2906C18.3269 19.3945 18.4973 19.3945 18.6166 19.2906Z"
          fill="#F1F3F5"/>
    <path d="M15.6005 24.192L16.0947 23.6898C16.214 23.5685 16.214 23.3953 16.0947 23.2741L15.6005 22.7718C15.4813 22.6506 15.3109 22.6506 15.1916 22.7718L14.6975 23.2741C14.5782 23.3953 14.5782 23.5685 14.6975 23.6898L15.1916 24.192C15.2938 24.3132 15.4813 24.3132 15.6005 24.192Z"
          fill="#F1F3F5"/>
    <path d="M16.8275 24.8501C16.6912 24.7116 16.4697 24.7116 16.3334 24.8501L15.3451 25.8547C15.2087 25.9932 15.2087 26.2184 15.3451 26.3569L16.3334 27.3614C16.4697 27.5 16.6912 27.5 16.8275 27.3614L17.8158 26.3569C17.9521 26.2184 17.9521 25.9932 17.8158 25.8547L16.8275 24.8501Z"
          fill="#F1F3F5"/>
    <path d="M20.508 20.1566C20.3717 20.0181 20.1502 20.0181 20.0139 20.1566L18.0714 22.131C17.935 22.2696 17.935 22.4948 18.0714 22.6333L20.0139 24.6077C20.1502 24.7463 20.3717 24.7463 20.508 24.6077L22.4505 22.6333C22.5868 22.4948 22.5868 22.2696 22.4505 22.131L20.508 20.1566Z"
          fill="#F1F3F5"/>
    <path d="M11.6134 19.5851C11.4771 19.4466 11.2556 19.4466 11.1193 19.5851L9.17679 21.5595C9.04048 21.6981 9.04048 21.9232 9.17679 22.0618L11.1193 24.0362C11.2556 24.1747 11.4771 24.1747 11.6134 24.0362L13.5559 22.0618C13.6922 21.9232 13.6922 21.6981 13.5559 21.5595L11.6134 19.5851Z"
          fill="#F1F3F5"/>
    <path d="M15.4303 21.7847C15.5495 21.9059 15.6859 21.9578 15.8392 21.9578C15.9926 21.9578 16.1289 21.9059 16.2482 21.7847L17.032 20.988C17.2535 20.7628 17.2535 20.3818 17.032 20.1566L16.2482 19.36C16.1289 19.2387 15.9926 19.1868 15.8392 19.1868C15.6859 19.1868 15.5495 19.2387 15.4303 19.36L14.6635 20.1566C14.442 20.3818 14.442 20.7628 14.6635 20.988L15.4303 21.7847ZM15.8563 19.7929L16.623 20.5723L15.8563 21.369L15.0724 20.5896L15.8563 19.7929Z"
          fill="#F1F3F5"/>
</svg>
