<svg width="40" height="40" viewBox="0 0 40 40" fill="none" xmlns="http://www.w3.org/2000/svg">
<path d="M31.1305 8.14444H8.86967C6.18453 8.14444 4.00012 10.3289 4.00012 13.014V31.1009C4.00012 33.786 6.18453 35.9705 8.86967 35.9705H31.1305C33.8156 35.9705 36 33.786 36 31.1009V13.014C36 10.3289 33.8156 8.14444 31.1305 8.14444Z" fill="#42547B"/>
<path d="M31.1305 12.3183H8.86972C8.48558 12.3183 8.17407 12.6298 8.17407 13.014V31.1009C8.17407 31.485 8.48558 31.7965 8.86972 31.7965H31.1305C31.5147 31.7965 31.8262 31.485 31.8262 31.1009V13.014C31.8262 12.6298 31.5147 12.3183 31.1305 12.3183Z" fill="#EEF0F5"/>
<path d="M26.9566 17.7993L22.7827 21.9732L19.3887 18.5792L25.6496 12.3183H22.6985L12.348 22.6688L8.17407 18.4949V21.446L10.8724 24.1444L8.17407 26.8427V29.7938L12.348 25.6199L18.5246 31.7965H22.867L30.4349 24.2286L31.8262 25.6199V22.6688L26.9566 17.7993ZM20.6958 31.0166L13.8235 24.1444L17.9132 20.0547L22.7827 24.9243L26.9566 20.7504L28.9593 22.7531L20.6958 31.0166Z" fill="white"/>
<path d="M18.6931 12.3183H15.742L13.0436 15.0167L10.3453 12.3183H8.86972C8.48558 12.3183 8.17407 12.6298 8.17407 13.014V13.0982L13.0436 17.9678L18.6931 12.3183Z" fill="white"/>
<path d="M19.8013 3.67239C15.6849 3.67239 12.3479 7.00938 12.3479 11.1258C12.3479 15.5726 17.9917 21.3104 19.4571 22.7253C19.6501 22.9117 19.9525 22.9117 20.1455 22.7253C21.6109 21.3104 27.2547 15.5726 27.2547 11.1258C27.2547 7.00938 23.9177 3.67239 19.8013 3.67239Z" fill="#16A2FF"/>
<path d="M19.8012 13.6103C21.1734 13.6103 22.2857 12.4979 22.2857 11.1258C22.2857 9.75366 21.1734 8.64133 19.8012 8.64133C18.4291 8.64133 17.3168 9.75366 17.3168 11.1258C17.3168 12.4979 18.4291 13.6103 19.8012 13.6103Z" fill="white"/>
<path d="M24 31C24 32.3845 24.4105 33.7378 25.1797 34.889C25.9489 36.0401 27.0421 36.9373 28.3212 37.4672C29.6003 37.997 31.0078 38.1356 32.3656 37.8655C33.7235 37.5954 34.9708 36.9287 35.9497 35.9497C36.9287 34.9708 37.5954 33.7235 37.8655 32.3656C38.1356 31.0078 37.997 29.6003 37.4672 28.3212C36.9373 27.0421 36.0401 25.9489 34.889 25.1797C33.7378 24.4105 32.3845 24 31 24C29.1441 24.002 27.3648 24.7402 26.0525 26.0525C24.7402 27.3648 24.002 29.1441 24 31Z" fill="#38B57D"/>
<path d="M34.1016 28.7478L34.1016 28.7478C33.9856 28.6318 33.8283 28.5667 33.6643 28.5667C33.5003 28.5667 33.343 28.6318 33.227 28.7478L33.227 28.7478L30.0345 31.9402L28.9162 30.8219L28.9162 30.8219L28.9149 30.8207C28.7983 30.708 28.642 30.6457 28.4798 30.6471C28.3177 30.6485 28.1625 30.7136 28.0478 30.8283C27.9332 30.9429 27.8681 31.0981 27.8667 31.2603C27.8653 31.4224 27.9276 31.5787 28.0403 31.6953L28.0403 31.6954L28.0415 31.6966L29.5972 33.2522L29.5972 33.2522C29.7132 33.3682 29.8705 33.4333 30.0345 33.4333C30.1985 33.4333 30.3558 33.3682 30.4718 33.2522L30.4718 33.2522L34.1016 29.6224L34.1016 29.6224C34.2176 29.5064 34.2827 29.3491 34.2827 29.1851C34.2827 29.0211 34.2176 28.8638 34.1016 28.7478Z" fill="white" stroke="white" stroke-width="0.2"/>
</svg>
