<svg width="40" height="40" viewBox="0 0 40 40" fill="none" xmlns="http://www.w3.org/2000/svg">
<path d="M31.1304 8.14444H8.86955C6.18441 8.14444 4 10.3289 4 13.014V31.1009C4 33.786 6.18441 35.9705 8.86955 35.9705H31.1304C33.8155 35.9705 35.9999 33.786 35.9999 31.1009V13.014C35.9999 10.3289 33.8155 8.14444 31.1304 8.14444Z" fill="#42547B"/>
<path d="M31.1303 12.3183H8.86948C8.48534 12.3183 8.17383 12.6298 8.17383 13.014V31.1009C8.17383 31.485 8.48534 31.7965 8.86948 31.7965H31.1303C31.5144 31.7965 31.8259 31.485 31.8259 31.1009V13.014C31.8259 12.6298 31.5144 12.3183 31.1303 12.3183Z" fill="#EEF0F5"/>
<path d="M26.9564 17.7993L22.7825 21.9732L19.3885 18.5792L25.6493 12.3183H22.6982L12.3477 22.6688L8.17383 18.4949V21.446L10.8722 24.1444L8.17383 26.8427V29.7938L12.3477 25.6199L18.5243 31.7965H22.8667L30.4346 24.2286L31.8259 25.6199V22.6688L26.9564 17.7993ZM20.6955 31.0166L13.8233 24.1444L17.9129 20.0547L22.7825 24.9243L26.9564 20.7504L28.9591 22.7531L20.6955 31.0166Z" fill="white"/>
<path d="M18.6928 12.3183H15.7417L13.0434 15.0167L10.345 12.3183H8.86948C8.48534 12.3183 8.17383 12.6298 8.17383 13.014V13.0982L13.0434 17.9678L18.6928 12.3183Z" fill="white"/>
<path d="M19.8013 3.67239C15.6849 3.67239 12.3479 7.00938 12.3479 11.1258C12.3479 15.5726 17.9917 21.3104 19.4571 22.7253C19.6501 22.9117 19.9525 22.9117 20.1455 22.7253C21.6109 21.3104 27.2547 15.5726 27.2547 11.1258C27.2547 7.00938 23.9177 3.67239 19.8013 3.67239Z" fill="#16A2FF"/>
<path d="M19.8014 13.6103C21.1735 13.6103 22.2858 12.4979 22.2858 11.1258C22.2858 9.75366 21.1735 8.64133 19.8014 8.64133C18.4292 8.64133 17.3169 9.75366 17.3169 11.1258C17.3169 12.4979 18.4292 13.6103 19.8014 13.6103Z" fill="white"/>
<path d="M24 31C24 32.3845 24.4105 33.7378 25.1797 34.889C25.9489 36.0401 27.0421 36.9373 28.3212 37.4672C29.6003 37.997 31.0078 38.1356 32.3656 37.8655C33.7235 37.5954 34.9708 36.9287 35.9497 35.9497C36.9287 34.9708 37.5954 33.7235 37.8655 32.3656C38.1356 31.0078 37.997 29.6003 37.4672 28.3212C36.9373 27.0421 36.0401 25.9489 34.889 25.1797C33.7378 24.4105 32.3845 24 31 24C29.1441 24.002 27.3648 24.7402 26.0525 26.0525C24.7402 27.3648 24.002 29.1441 24 31Z" fill="#EBB11A"/>
<path d="M31.5197 31.3177L31.7311 28.2389C31.7586 27.8393 31.4418 27.5 31.0412 27.5C30.6418 27.5 30.3254 27.8375 30.3512 28.2362L30.5506 31.3158C30.5671 31.5713 30.7792 31.7701 31.0352 31.7701C31.2905 31.7701 31.5022 31.5724 31.5197 31.3177Z" fill="white"/>
<path d="M30.5291 34.4569C30.6787 34.5612 30.8545 34.6168 31.0343 34.6168C31.2755 34.6168 31.5068 34.5168 31.6773 34.3388C31.8478 34.1608 31.9436 33.9194 31.9436 33.6677C31.9436 33.48 31.8903 33.2965 31.7904 33.1404C31.6905 32.9843 31.5484 32.8627 31.3823 32.7908C31.2161 32.719 31.0333 32.7002 30.8569 32.7368C30.6805 32.7734 30.5185 32.8638 30.3913 32.9966C30.2642 33.1293 30.1776 33.2984 30.1425 33.4825C30.1074 33.6667 30.1254 33.8575 30.1942 34.0309C30.263 34.2044 30.3796 34.3526 30.5291 34.4569Z" fill="white"/>
<circle cx="31" cy="31" r="5" fill="white"/>
<path d="M24 31C24 32.3845 24.4105 33.7378 25.1797 34.889C25.9489 36.0401 27.0421 36.9373 28.3212 37.4672C29.6003 37.997 31.0078 38.1356 32.3656 37.8655C33.7235 37.5954 34.9708 36.9287 35.9497 35.9497C36.9287 34.9708 37.5954 33.7235 37.8655 32.3656C38.1356 31.0078 37.997 29.6003 37.4672 28.3212C36.9373 27.0421 36.0401 25.9489 34.889 25.1797C33.7378 24.4105 32.3845 24 31 24C29.1435 24 27.363 24.7375 26.0503 26.0503C24.7375 27.363 24 29.1435 24 31Z" fill="#D35530"/>
<path d="M33.4749 29.5151L31.9899 31L33.4749 32.4849C33.6061 32.6162 33.6799 32.7942 33.6799 32.9799C33.6799 33.1655 33.6061 33.3436 33.4749 33.4749C33.3436 33.6061 33.1656 33.6799 32.9799 33.6799C32.7942 33.6799 32.6162 33.6061 32.4849 33.4749L31 31.9899L29.5151 33.4749C29.3838 33.6061 29.2058 33.6799 29.0201 33.6799C28.8344 33.6799 28.6564 33.6061 28.5251 33.4749C28.3939 33.3436 28.3201 33.1655 28.3201 32.9799C28.3201 32.7942 28.3939 32.6162 28.5251 32.4849L30.0101 31L28.5251 29.5151C28.3939 29.3838 28.3201 29.2057 28.3201 29.0201C28.3201 28.8344 28.3939 28.6564 28.5251 28.5251C28.6564 28.3938 28.8344 28.3201 29.0201 28.3201C29.2058 28.3201 29.3838 28.3938 29.5151 28.5251L31 30.01L32.4849 28.5251C32.6162 28.3938 32.7942 28.3201 32.9799 28.3201C33.1656 28.3201 33.3436 28.3938 33.4749 28.5251C33.6061 28.6564 33.6799 28.8344 33.6799 29.0201C33.6799 29.2057 33.6061 29.3838 33.4749 29.5151Z" fill="white"/>
</svg>
