<svg width="48" height="28" viewBox="0 0 48 28" fill="none" xmlns="http://www.w3.org/2000/svg">
<path d="M40.5217 0H7.47826C6.10956 0 5 0.948103 5 2.11765V21.8824C5 23.0519 6.10956 24 7.47826 24H40.5217C41.8904 24 43 23.0519 43 21.8824V2.11765C43 0.948103 41.8904 0 40.5217 0Z" fill="#243747"/>
<path d="M20.5 18C23.5376 18 26 15.5376 26 12.5C26 9.46243 23.5376 7 20.5 7C17.4624 7 15 9.46243 15 12.5C15 15.5376 17.4624 18 20.5 18Z" fill="#E61C24"/>
<path d="M27.5 18C30.5376 18 33 15.5376 33 12.5C33 9.46243 30.5376 7 27.5 7C24.4624 7 22 9.46243 22 12.5C22 15.5376 24.4624 18 27.5 18Z" fill="#F99F1B"/>
<path d="M24 8C23.3765 8.53699 22.8727 9.22079 22.5263 10.0001C22.1799 10.7795 22 11.6341 22 12.5C22 13.3659 22.1799 14.2205 22.5263 14.9999C22.8727 15.7792 23.3765 16.463 24 17C24.6235 16.463 25.1273 15.7792 25.4737 14.9999C25.8201 14.2205 26 13.3659 26 12.5C26 11.6341 25.8201 10.7795 25.4737 10.0001C25.1273 9.22079 24.6235 8.53699 24 8Z" fill="#F26622"/>
</svg>
