<svg width="48" height="28" viewBox="0 0 48 28" fill="none" xmlns="http://www.w3.org/2000/svg">
<rect x="5" width="38" height="24" rx="2" fill="#4FAD5F"/>
<path d="M19.6222 5.59985C19.192 5.59985 18.7794 5.77436 18.4752 6.08498C18.1711 6.39561 18.0002 6.81691 18.0002 7.2562V17.9199H28.4427C28.8728 17.9199 29.2854 17.7454 29.5896 17.4348C29.8937 17.1241 30.0646 16.7028 30.0646 16.2636V5.59985H19.6222ZM27.2731 14.5288L20.7917 15.7099V9.01931L27.2731 7.84106V14.5288Z" fill="#233E98"/>
<rect x="23" y="19" width="20" height="9" rx="4.5" fill="#F9FAFB"/>
<path d="M31.1944 26.3889C32.9587 26.3889 34.3889 24.9587 34.3889 23.1944C34.3889 21.4302 32.9587 20 31.1944 20C29.4302 20 28 21.4302 28 23.1944C28 24.9587 29.4302 26.3889 31.1944 26.3889Z" fill="#E61C24"/>
<path d="M35.2601 26.3889C37.0244 26.3889 38.4546 24.9587 38.4546 23.1944C38.4546 21.4302 37.0244 20 35.2601 20C33.4959 20 32.0657 21.4302 32.0657 23.1944C32.0657 24.9587 33.4959 26.3889 35.2601 26.3889Z" fill="#F99F1B"/>
<path d="M33.2273 20.5807C32.8652 20.8926 32.5725 21.2897 32.3714 21.7424C32.1702 22.195 32.0657 22.6914 32.0657 23.1943C32.0657 23.6972 32.1702 24.1936 32.3714 24.6463C32.5725 25.0989 32.8652 25.4961 33.2273 25.808C33.5894 25.4961 33.8821 25.0989 34.0832 24.6463C34.2844 24.1936 34.3889 23.6972 34.3889 23.1943C34.3889 22.6914 34.2844 22.195 34.0832 21.7424C33.8821 21.2897 33.5894 20.8926 33.2273 20.5807Z" fill="#F26622"/>
</svg>
