<svg width="16" height="16" viewBox="0 0 16 16" fill="none" xmlns="http://www.w3.org/2000/svg">
<circle cx="7.99994" cy="8.00043" r="6.83636" fill="#A5B2BD"/>
<path d="M10.596 8.84494L9.44843 8.86596C9.28382 8.86596 9.18133 8.71355 9.23102 8.54889L9.7792 6.55889H9.77765L7.88154 6.55714C7.7278 6.55889 7.63152 6.36444 7.68121 6.18927L8.05702 4.89296C8.05702 4.89296 8.28685 4.19401 8.8987 3.9873H8.82105C8.82105 3.9873 7.77439 4.01708 7.48555 5.06814C7.43275 5.25733 7.07868 6.55714 7.07868 6.55714C7.07868 6.55714 5.86896 6.55539 5.69969 6.55539H5.69814C4.72291 6.55539 4.3735 7.62046 4.3735 7.62046L4.30518 7.85344C4.64837 7.15449 5.41396 7.13347 5.41396 7.13347L6.62368 7.13522C6.78829 7.13522 6.87991 7.28412 6.83022 7.44878L6.27893 9.4563L8.13311 9.45805C8.2884 9.4563 8.38468 9.61396 8.33344 9.78914L7.95763 11.0854C7.95763 11.0854 7.74644 11.7494 7.19049 11.9946C7.26348 11.9929 8.29617 11.9508 8.57569 10.9365C8.62694 10.7509 8.981 9.46681 8.981 9.46681C8.981 9.46681 10.1395 9.46856 10.3072 9.46856C11.2824 9.46856 11.6334 8.3632 11.6334 8.3632L11.6458 8.32116C11.2591 8.83968 10.596 8.84494 10.596 8.84494Z" fill="#CBD2D9"/>
<path d="M12.062 6.84419C12.062 6.8477 12.062 6.85295 12.062 6.85646C12.062 6.86521 12.0604 6.87222 12.0589 6.88098C12.0589 6.88448 12.0573 6.88799 12.0573 6.89149C12.0558 6.90375 12.0526 6.91602 12.048 6.92828L11.6442 8.32093L11.6318 8.36297C11.6318 8.36297 11.2824 9.46833 10.3056 9.46833H10.3041C10.1364 9.46833 8.97788 9.46658 8.97788 9.46658C8.97788 9.46658 8.62381 10.7506 8.57256 10.9363C8.29459 11.9506 7.26035 11.9926 7.18892 11.9944C7.18581 11.9944 7.18426 11.9944 7.18426 11.9944L5.91397 12.0171C5.73228 12.0171 5.61892 11.849 5.67327 11.6668L6.28046 9.46308H4.18092H4.17937C4.17471 9.46308 4.17005 9.46308 4.16539 9.46132C4.16073 9.46132 4.15452 9.46132 4.14986 9.45957C4.1452 9.45782 4.14054 9.45782 4.13433 9.45607C4.12967 9.45432 4.12501 9.45432 4.12036 9.45257C4.1157 9.45081 4.11104 9.44906 4.10638 9.44731C4.10017 9.44556 4.09551 9.44381 4.09085 9.44206C4.08619 9.4403 4.08153 9.4368 4.07687 9.4333C4.07222 9.43154 4.06911 9.42804 4.06445 9.42629C4.05979 9.42279 4.05513 9.41928 4.05203 9.41578C4.04892 9.41228 4.04426 9.41052 4.04116 9.40702C4.0365 9.40352 4.03339 9.39826 4.02873 9.39476C4.02563 9.39125 4.02252 9.38775 4.01942 9.38425C4.01631 9.37899 4.01165 9.37549 4.00855 9.37023C4.00544 9.36673 4.00233 9.36323 4.00078 9.35972C3.99768 9.35447 3.99457 9.34921 3.99146 9.34396C3.98991 9.34045 3.9868 9.33695 3.98525 9.33169C3.98215 9.32644 3.98059 9.32118 3.97749 9.31418C3.97593 9.30892 3.97283 9.30542 3.97128 9.30016C3.96817 9.29491 3.96662 9.2879 3.96506 9.28264C3.96351 9.27739 3.96196 9.27389 3.96041 9.26863C3.95885 9.26162 3.9573 9.25637 3.95575 9.24936C3.95419 9.24411 3.95264 9.2406 3.95264 9.23535C3.95109 9.22834 3.95109 9.22133 3.94953 9.21433C3.94953 9.20907 3.94798 9.20557 3.94798 9.20031C3.94798 9.19331 3.94643 9.1863 3.94643 9.17929C3.94643 9.17404 3.94643 9.16878 3.94643 9.16353C3.94643 9.15652 3.94643 9.14951 3.94643 9.1425C3.94643 9.13725 3.94643 9.13199 3.94798 9.12674C3.94798 9.11973 3.94953 9.11272 3.95109 9.10397C3.95109 9.09871 3.95264 9.09521 3.95264 9.08995C3.95419 9.07769 3.9573 9.06543 3.96196 9.05316L4.31136 7.8497L4.37814 7.61672C4.37814 7.61672 4.72755 6.55165 5.70278 6.55165H5.70433C5.8736 6.55165 7.08332 6.5534 7.08332 6.5534C7.08332 6.5534 7.43738 5.25535 7.49018 5.0644C7.77902 4.01335 8.82569 3.98357 8.82569 3.98357H8.90334L10.1643 3.98532C10.346 3.98532 10.4485 4.14998 10.3926 4.33392L9.78229 6.5569H9.78384L11.8321 6.55866H11.8337C11.8383 6.55866 11.843 6.55866 11.8477 6.56041C11.8523 6.56041 11.8585 6.56041 11.8632 6.56216C11.8679 6.56216 11.8725 6.56391 11.8772 6.56391C11.8818 6.56566 11.888 6.56566 11.8927 6.56741C11.8974 6.56917 11.902 6.57092 11.9051 6.57092C11.9098 6.57267 11.9144 6.57442 11.9207 6.57617C11.9253 6.57793 11.9284 6.57968 11.9331 6.58143C11.9377 6.58318 11.9424 6.58493 11.9471 6.58844C11.9502 6.59019 11.9548 6.59369 11.9579 6.59544C11.9626 6.59895 11.9672 6.6007 11.9703 6.6042C11.9734 6.60595 11.9766 6.60946 11.9797 6.61296C11.9843 6.61646 11.9874 6.61997 11.9921 6.62347C11.9952 6.62697 11.9983 6.63048 12.0014 6.63398C12.0045 6.63749 12.0076 6.64099 12.0107 6.64624C12.0138 6.64975 12.0154 6.65325 12.0185 6.65851C12.0216 6.66201 12.0247 6.66727 12.0262 6.67077C12.0294 6.67427 12.0309 6.67953 12.0325 6.68478C12.034 6.69004 12.0371 6.69354 12.0387 6.6988C12.0402 6.70405 12.0433 6.70931 12.0449 6.71281C12.0464 6.71807 12.048 6.72157 12.0495 6.72683C12.0511 6.73208 12.0526 6.73734 12.0542 6.74259C12.0558 6.74785 12.0573 6.75135 12.0573 6.75661C12.0589 6.76186 12.0589 6.76887 12.0604 6.77412C12.0604 6.77938 12.062 6.78288 12.062 6.78814C12.0635 6.79514 12.0635 6.8004 12.0635 6.80741C12.0635 6.81266 12.0635 6.81616 12.0635 6.82142C12.0635 6.82843 12.062 6.83543 12.062 6.84419ZM12.2685 6.37472C12.1862 6.2048 12.0076 6.12597 11.829 6.12597H11.8275L10.1969 6.12422L10.683 4.44078C10.7389 4.24808 10.7156 4.04838 10.6162 3.89072C10.5153 3.73131 10.3491 3.63847 10.1628 3.63847L8.82414 3.63672H8.82103H8.81637C8.78376 3.63847 8.48871 3.65073 8.14707 3.80839C7.66721 4.03262 7.338 4.43202 7.19202 4.96455C7.15475 5.10119 6.95753 5.71431 6.85193 6.09969C6.49321 6.09969 5.8239 6.09969 5.70122 6.09794C5.2105 6.09794 4.77569 6.43078 4.44181 6.8547C4.20111 7.16126 4.09706 7.46432 4.08619 7.4976L4.08464 7.50461L4.08309 7.50986L3.6669 8.94631C3.60634 9.15652 3.6374 9.386 3.74921 9.55942C3.8517 9.71883 4.00855 9.80993 4.17937 9.80993H4.18092H4.18247H5.86428L5.38288 11.5599C5.32697 11.7491 5.35182 11.9471 5.4512 12.1047C5.55525 12.2694 5.72452 12.364 5.91553 12.364H5.91863H5.92174L7.19047 12.3412C7.2324 12.3412 7.53522 12.3325 7.88152 12.1836C8.38 11.9698 8.72164 11.5739 8.86917 11.0379C8.90644 10.903 9.10211 10.1936 9.20771 9.81343H10.3072C10.7994 9.81343 11.2358 9.58044 11.5712 9.139C11.8104 8.82368 11.9129 8.51187 11.9238 8.47683L11.9253 8.47158L11.9269 8.46632L12.343 6.9458C12.3989 6.74785 12.3306 6.5026 12.2685 6.37472Z" fill="white"/>
<path d="M7.95765 11.0848L8.33345 9.78848C8.3847 9.61155 8.28842 9.45565 8.13313 9.4574L6.28205 9.45565L6.83334 7.44813C6.88303 7.28346 6.79141 7.13456 6.6268 7.13456L5.41708 7.13281C5.41708 7.13281 4.64994 7.15383 4.30829 7.85279L3.95889 9.05625C3.95578 9.06851 3.95268 9.08077 3.94957 9.09303C3.94802 9.09829 3.94802 9.10354 3.94802 9.10705C3.94647 9.11405 3.94491 9.12281 3.94491 9.12982C3.94491 9.13508 3.94491 9.14033 3.94491 9.14559C3.94491 9.15259 3.94336 9.1596 3.94336 9.16661C3.94336 9.17186 3.94336 9.17712 3.94491 9.18062C3.94491 9.18763 3.94491 9.19464 3.94647 9.20164C3.94647 9.2069 3.94802 9.21215 3.94802 9.21566C3.94957 9.22266 3.94957 9.22967 3.95112 9.23668C3.95268 9.24193 3.95423 9.24544 3.95423 9.25069C3.95578 9.2577 3.95734 9.26471 3.95889 9.26996C3.96044 9.27522 3.96199 9.27872 3.96355 9.28398C3.9651 9.29098 3.96821 9.29624 3.96976 9.30149C3.97131 9.30675 3.97442 9.31025 3.97597 9.31551C3.97908 9.32076 3.98063 9.32602 3.98374 9.33302C3.98529 9.33653 3.98839 9.34003 3.98995 9.34529C3.99305 9.35054 3.99616 9.3558 3.99926 9.36105C4.00237 9.36456 4.00548 9.36806 4.00703 9.37156C4.01013 9.37682 4.01324 9.38207 4.0179 9.38558C4.02101 9.38908 4.02411 9.39258 4.02722 9.39609C4.03188 9.39959 4.03498 9.40485 4.03964 9.40835C4.04275 9.41185 4.0474 9.41361 4.05051 9.41711C4.05517 9.42061 4.05828 9.42412 4.06293 9.42762C4.06759 9.43112 4.0707 9.43288 4.07536 9.43463C4.08002 9.43813 4.08467 9.43988 4.08933 9.44339C4.09555 9.44339 4.1002 9.44514 4.10486 9.44689C4.10952 9.44864 4.11418 9.45214 4.11884 9.45214C4.1235 9.4539 4.12816 9.4539 4.13282 9.45565C4.13747 9.4574 4.14213 9.4574 4.14834 9.45915C4.153 9.45915 4.15921 9.45915 4.16387 9.4609C4.17009 9.4609 4.17474 9.46266 4.18096 9.46266L6.28205 9.46441L5.67486 11.6681C5.61896 11.8503 5.73387 12.0185 5.91556 12.0185L7.18585 11.9957C7.18585 11.9957 7.1874 11.9957 7.19051 11.9957C7.74645 11.7505 7.95765 11.0848 7.95765 11.0848Z" fill="#7E8FA0"/>
<path d="M8.05714 4.89081L7.68134 6.18711C7.63009 6.36229 7.72637 6.55674 7.88166 6.55498L9.77932 6.55674L10.3896 4.33375C10.4455 4.14982 10.343 3.9869 10.1613 3.98515L8.90037 3.9834C8.28697 4.19361 8.05714 4.89081 8.05714 4.89081Z" fill="#E1E6E9"/>
<path d="M12.0621 6.78807C12.0621 6.78282 12.0605 6.77932 12.0605 6.77406C12.059 6.76881 12.059 6.7618 12.0574 6.75654C12.0559 6.75129 12.0543 6.74778 12.0543 6.74253C12.0527 6.73727 12.0512 6.73202 12.0496 6.72676C12.0481 6.72151 12.0465 6.718 12.045 6.71275C12.0434 6.70749 12.0419 6.70224 12.0388 6.69873C12.0372 6.69348 12.0341 6.68998 12.031 6.68472C12.0295 6.68122 12.0263 6.67596 12.0248 6.67071C12.0217 6.6672 12.0186 6.66195 12.017 6.65844C12.0139 6.65494 12.0124 6.64969 12.0093 6.64618C12.0062 6.64268 12.0031 6.63917 11.9999 6.63392C11.9968 6.63042 11.9937 6.62691 11.9906 6.62341C11.9875 6.61991 11.9829 6.6164 11.9782 6.6129C11.9751 6.6094 11.972 6.60764 11.9689 6.60414C11.9642 6.60064 11.9611 6.59888 11.9565 6.59538C11.9534 6.59363 11.9487 6.59013 11.9456 6.58837C11.9409 6.58662 11.9363 6.58312 11.9316 6.58137C11.927 6.57962 11.9239 6.57786 11.9192 6.57611C11.9145 6.57436 11.9099 6.57261 11.9037 6.57086C11.899 6.5691 11.8943 6.56735 11.8912 6.56735C11.8866 6.5656 11.8804 6.5656 11.8757 6.56385C11.8711 6.56385 11.8664 6.5621 11.8617 6.5621C11.8571 6.5621 11.8509 6.5621 11.8462 6.56035C11.8416 6.56035 11.8353 6.55859 11.8307 6.55859H9.77928L9.2311 8.54684C9.18141 8.71151 9.2839 8.86391 9.44851 8.86391L10.5961 8.84289C10.5961 8.84289 11.2592 8.83763 11.6443 8.31911L12.0481 6.92822C12.0512 6.91595 12.0543 6.90369 12.0574 6.89143C12.0574 6.88793 12.059 6.88442 12.059 6.88092C12.0605 6.87216 12.0621 6.8634 12.0621 6.85639C12.0621 6.85114 12.0621 6.84763 12.0621 6.84413C12.0621 6.83712 12.0636 6.83012 12.0636 6.82136C12.0636 6.8161 12.0636 6.8126 12.0636 6.80734C12.0621 6.80209 12.0621 6.79508 12.0621 6.78807Z" fill="#E1E6E9"/>
</svg>
