<svg width="56" height="56" viewBox="0 0 56 56" fill="none" xmlns="http://www.w3.org/2000/svg">
<path d="M56 28.0014C56 43.4555 43.4526 56 27.9986 56C12.5474 56 0 43.4555 0 28.0014C0 12.5474 12.5474 0 27.9986 0C43.4526 0 56 12.5474 56 28.0014Z" fill="#FF9D29"/>
<path d="M17.7115 19.7838C14.5974 19.7838 12.7085 20.8757 11.1801 22.4734C9.65172 24.0711 8.80734 26.618 7.72171 29.7914C6.63607 32.9648 6.81502 33.8715 7.53517 34.7776C8.25531 35.6836 8.85244 35.7619 10.2797 35.7503C13.182 35.7503 14.8092 35.7503 17.7115 35.7503C17.7115 35.7503 17.0908 37.7249 16.1841 40.5961C15.2774 43.4673 14.7786 44.5458 15.708 45.7066C16.6375 46.8674 17.7222 46.6407 20.642 46.6407C23.891 46.6407 26.9561 46.6583 29.3311 44.9029C31.0689 43.6184 31.7804 42.1639 32.3534 40.445C32.9578 38.6316 33.789 35.7604 33.789 35.7604C33.789 35.7604 37.016 35.7648 38.7531 35.7503C41.3587 35.7243 42.6776 34.9859 44.5181 33.7589C45.6514 33.0033 46.7848 30.547 47.2381 29.2255C47.4648 28.5647 47.8167 27.3888 47.9937 26.7691C47.9937 26.7691 48.5226 24.7676 48.5982 24.5409C49.8323 20.8386 47.9182 20.0075 46.1803 20.0075H38.4735C38.4735 20.0075 39.8335 16.0785 40.8158 13.2073C41.6171 10.8651 40.2113 9.23986 38.0202 9.23986C38.0202 9.23986 36.1591 9.19064 32.1233 9.23986C28.0846 9.28908 25.1754 11.5821 24.0421 14.9822C22.9087 18.3823 22.4971 19.7838 22.4971 19.7838C22.4971 19.7838 20.8255 19.7838 17.7115 19.7838Z" fill="white"/>
<path d="M16.713 21.7068C15.1263 21.7068 12.784 22.3868 11.424 24.578C10.064 26.7691 9.38397 29.4136 8.93062 30.7737C8.47728 32.1337 8.20104 33.1414 8.58899 33.7204C8.97693 34.2994 10.4418 34.1737 11.0462 34.1737C11.6507 34.1737 19.8109 34.0982 19.8109 34.0982C19.8109 34.0982 17.6953 40.5961 17.2419 41.9561C16.6938 43.6005 16.4108 44.1473 16.8641 44.6762C17.3175 45.2051 18.5937 45.118 21.5446 45.118C24.4954 45.118 26.3731 45.0639 28.3488 43.8451C30.23 42.6845 31.4467 39.5383 32.7312 34.1426C32.7312 34.1426 36.7008 34.16 38.2468 34.1426C40.5629 34.1195 41.3364 34.1876 43.2336 32.8137C45.4248 31.227 46.8415 26.0135 47.3893 23.8224C47.7671 22.3112 47.6159 21.7068 45.5759 21.7068C43.5358 21.7068 40.3767 21.7068 36.5846 21.7068C36.5846 21.7068 39.0024 14.3022 39.5313 12.3377C39.9378 10.828 39.0262 10.6737 36.509 10.6754C35.7507 10.676 34.8466 10.6754 33.789 10.6754C30.5204 10.6754 29.18 11.1288 28.4244 11.5821C27.6688 12.0355 26.1577 13.0933 25.4777 15.36C24.7976 17.6267 23.6643 21.7068 23.6643 21.7068C23.6643 21.7068 18.2997 21.7068 16.713 21.7068Z" fill="#6FB744"/>
<path d="M45.5759 21.7068C46.7092 21.7068 47.3893 21.8579 47.5404 22.5379C47.6915 23.218 46.7848 26.0891 46.4826 26.9958C46.1803 27.9025 45.7119 29.2776 44.7448 30.2448C43.2336 31.7559 40.1358 31.7559 38.9269 31.7559H36.3579C34.0156 31.7559 33.6619 31.1515 34.1667 29.5648C34.6716 27.9781 34.8719 27.3736 35.3001 26.0136L36.5846 21.7068H41.5261C43.116 21.6829 44.4425 21.7068 45.5759 21.7068Z" fill="#F8EB17"/>
<path d="M28.2821 21.7679C27.0644 21.7679 26.5355 21.6312 26.3843 20.9512C26.2332 20.2712 27.4422 16.8711 27.7444 15.9644C28.0466 15.0578 29.1195 12.9271 30.0867 11.9599C31.5978 10.4488 33.7134 10.6754 34.9223 10.6754H37.4913C39.8335 10.6754 39.8851 11.3554 39.3802 12.9421C38.8753 14.5288 38.4483 15.8889 38.0202 17.2489L36.5846 21.7068H32.3534C30.7635 21.7307 29.4999 21.7679 28.2821 21.7679Z" fill="#F8EB17"/>
<path d="M27.8955 34.0982C29.1133 34.0982 29.4066 34.2493 29.5578 34.9293C29.7089 35.6093 28.4999 39.0094 28.1977 39.9161C27.8955 40.8228 27.0662 42.9534 26.099 43.9206C24.8901 45.1295 22.6065 45.1295 21.3976 45.1295L18.8455 45.1295C16.5032 45.1295 16.4348 44.4495 16.9397 42.8628C17.4446 41.2761 17.8716 40.0672 18.2997 38.7072L19.8109 34.0982H23.9665C25.5564 34.0743 26.6777 34.0982 27.8955 34.0982Z" fill="#006A3A"/>
<path d="M10.3662 34.1737C9.23285 34.1737 8.62839 34.0982 8.40172 33.3426C8.17505 32.587 9.23285 29.7159 9.53508 28.8092C9.83731 27.9025 10.4737 26.603 11.4409 25.6358C12.784 24.2926 15.2019 24.2002 16.1841 24.2002L19.8109 24.2002C22.1531 24.2002 22.5824 24.7291 22.0776 26.3158C21.5727 27.9025 21.4479 28.507 21.0198 29.867L19.8109 34.0982L14.416 34.1737C12.8261 34.1976 11.4996 34.1737 10.3662 34.1737Z" fill="#006A3A"/>
</svg>
