<svg width="16" height="16" viewBox="0 0 16 16" fill="none" xmlns="http://www.w3.org/2000/svg">
<path d="M6.48425 10.6914C6.22958 10.6914 5.9849 10.6639 5.7502 10.609C5.5155 10.5541 5.31825 10.4767 5.15846 10.3768C4.93375 10.237 4.82139 10.0797 4.82139 9.90491C4.82139 9.77008 4.86384 9.65523 4.94873 9.56035C5.03362 9.46048 5.14098 9.41055 5.27081 9.41055C5.31076 9.41055 5.35321 9.42053 5.39815 9.44051C5.44809 9.45549 5.50052 9.47546 5.55545 9.50043C5.73022 9.58033 5.88752 9.64275 6.02734 9.68769C6.17215 9.73263 6.33195 9.7551 6.50672 9.7551C6.68649 9.7551 6.84129 9.72514 6.97113 9.66522C7.10595 9.6003 7.20832 9.51541 7.27823 9.41055C7.34814 9.30069 7.3831 9.17335 7.3831 9.02854C7.3831 8.85876 7.31818 8.71644 7.18835 8.60159C7.06351 8.48673 6.85877 8.37937 6.57414 8.2795C6.16966 8.14467 5.85756 8.02483 5.63784 7.91996C5.41812 7.8101 5.24085 7.66279 5.10602 7.47803C4.97619 7.28828 4.91128 7.04109 4.91128 6.73648C4.91128 6.4169 4.99117 6.13975 5.15097 5.90505C5.31076 5.67035 5.52549 5.49059 5.79514 5.36575C6.06479 5.24091 6.35941 5.17849 6.679 5.17849C6.86876 5.17849 7.05352 5.19846 7.23329 5.23841C7.41306 5.27836 7.56536 5.33329 7.6902 5.4032C7.81504 5.46312 7.90992 5.53553 7.97484 5.62042C8.04475 5.70531 8.0797 5.79769 8.0797 5.89756C8.0797 6.0274 8.03975 6.13725 7.95986 6.22714C7.87996 6.31203 7.78009 6.35448 7.66024 6.35448C7.57535 6.35448 7.49046 6.337 7.40557 6.30204C7.3806 6.29206 7.32068 6.26459 7.2258 6.21965C7.13092 6.17471 7.03355 6.14225 6.93368 6.12227C6.8388 6.09731 6.73893 6.08482 6.63406 6.08482C6.49923 6.08482 6.37689 6.10979 6.26703 6.15973C6.15717 6.20966 6.06979 6.27957 6.00487 6.36946C5.94495 6.45435 5.91499 6.55422 5.91499 6.66907C5.91499 6.77394 5.94495 6.86382 6.00487 6.93872C6.06979 7.01363 6.15967 7.07854 6.27452 7.13347C6.38938 7.1884 6.55167 7.25332 6.7614 7.32822C7.15589 7.45806 7.46549 7.58789 7.6902 7.71772C7.91991 7.84756 8.09219 8.01234 8.20704 8.21209C8.32688 8.40684 8.38681 8.65901 8.38681 8.96861C8.38681 9.31816 8.30941 9.62277 8.15461 9.88244C7.9998 10.1421 7.77759 10.3419 7.48796 10.4817C7.20333 10.6215 6.86876 10.6914 6.48425 10.6914Z" fill="#1D2B36"/>
<path d="M10.8625 5.36256C11.1193 5.46423 11.245 5.75478 11.1433 6.01153L9.36404 10.5048C9.26237 10.7615 8.97182 10.8873 8.71507 10.7856C8.45833 10.6839 8.33261 10.3934 8.43428 10.1366L10.2136 5.64336C10.3152 5.38661 10.6058 5.2609 10.8625 5.36256Z" fill="#1D2B36"/>
<path fill-rule="evenodd" clip-rule="evenodd" d="M7.99998 1.33301C11.676 1.33301 14.6666 4.32367 14.6666 7.99967C14.6666 11.6757 11.676 14.6663 7.99998 14.6663C4.32398 14.6663 1.33331 11.6757 1.33331 7.99967C1.33331 4.32367 4.32398 1.33301 7.99998 1.33301ZM7.99998 2.33301C4.87531 2.33301 2.33331 4.87501 2.33331 7.99967C2.33331 11.1243 4.87531 13.6663 7.99998 13.6663C11.1246 13.6663 13.6666 11.1243 13.6666 7.99967C13.6666 4.87501 11.1246 2.33301 7.99998 2.33301Z" fill="#1D2B36"/>
</svg>
