<svg width="18" height="16" viewBox="0 0 18 16" fill="none" xmlns="http://www.w3.org/2000/svg">
<path d="M3.33988 15.0548C1.49978 15.0548 0.00292969 13.5579 0.00292969 11.7178C0.00292969 9.87771 1.49978 8.38086 3.33988 8.38086C5.17999 8.38086 6.67684 9.87771 6.67684 11.7178C6.67684 13.5579 5.17999 15.0548 3.33988 15.0548Z" fill="#1D2B36"/>
<path d="M3.34019 13.572C2.31791 13.572 1.48633 12.7404 1.48633 11.7181C1.48633 10.6958 2.31791 9.86426 3.34019 9.86426C4.36247 9.86426 5.19406 10.6958 5.19406 11.7181C5.19406 12.7404 4.36247 13.572 3.34019 13.572Z" fill="white"/>
<path d="M7.78912 11.7176H3.33984L7.78912 8.75146V11.7176Z" fill="#CBD2D9"/>
<path d="M7.7898 12.0887H3.34052C3.17722 12.0887 3.03312 11.9818 2.98568 11.8254C2.93825 11.669 2.99908 11.4999 3.13486 11.4094L7.58413 8.44322C7.69746 8.36736 7.84447 8.36012 7.96468 8.42475C8.08526 8.48938 8.16057 8.61502 8.16057 8.75171V11.7179C8.16057 11.9228 7.99473 12.0887 7.7898 12.0887ZM4.56508 11.3471H7.41902V9.44437L4.56508 11.3471Z" fill="#CBD2D9"/>
<path fill-rule="evenodd" clip-rule="evenodd" d="M13.4598 1.07402L12.7183 1.81556C12.6367 1.89713 12.5978 2.01244 12.613 2.12701C12.6282 2.24158 12.6964 2.34243 12.7965 2.39953C13.4387 2.7666 14.0927 3.53966 14.0927 3.93156C14.0927 4.23931 13.8376 4.51368 13.4598 4.65568C10.0142 2.63386 7.30108 5.8873 7.30108 5.8873C7.16134 6.03581 6.88085 6.1562 6.6807 6.1562H5.19077C4.98873 6.1562 4.70653 6.03931 4.56366 5.89644L3.60201 4.93479C3.45809 4.79087 3.17547 4.64956 2.97397 4.62077L1.11127 4.35467C0.909773 4.32588 0.683068 4.45695 0.607474 4.64594L0.135978 5.82469C0.061949 6.00977 0.147494 6.22025 0.329647 6.30121L3.34033 7.63929C5.59314 7.63929 7.41883 9.46535 7.41883 11.7178C7.41883 11.8431 7.41142 11.9662 7.40029 12.0886H10.7558C10.8285 12.0886 10.8989 12.0674 10.9597 12.0278C10.9597 12.0278 15.1424 9.2718 15.162 9.25586C15.8687 8.53841 17.0589 7.03382 17.0589 5.04388C17.0589 2.0751 13.9693 1.02693 13.8376 0.98392C13.7057 0.940169 13.5588 0.975022 13.4598 1.07402Z" fill="#2697FF"/>
<path fill-rule="evenodd" clip-rule="evenodd" d="M7.11794 6.02559C6.97934 6.10405 6.81208 6.15657 6.67988 6.15657H5.18995C4.9879 6.15657 4.7057 6.03968 4.56283 5.89681L3.60119 4.93517C3.45726 4.79124 3.17464 4.64993 2.97315 4.62114L1.11044 4.35504C0.908947 4.32625 0.682242 4.45733 0.606648 4.64631L0.334961 5.32553L4.26643 6.89812H6.15211C6.25044 6.89812 6.34475 6.85905 6.41428 6.78952L7.15317 6.05064L7.11794 6.02559Z" fill="#1D2B36"/>
<path d="M14.6592 15.0548C12.8191 15.0548 11.3223 13.5579 11.3223 11.7178C11.3223 9.87771 12.8191 8.38086 14.6592 8.38086C16.4993 8.38086 17.9962 9.87771 17.9962 11.7178C17.9962 13.5579 16.4993 15.0548 14.6592 15.0548Z" fill="#1D2B36"/>
<path d="M14.6595 13.572C13.6372 13.572 12.8057 12.7404 12.8057 11.7181C12.8057 10.6958 13.6372 9.86426 14.6595 9.86426C15.6818 9.86426 16.5134 10.6958 16.5134 11.7181C16.5134 12.7404 15.6818 13.572 14.6595 13.572Z" fill="white"/>
<path d="M12.6091 6.52671C12.5142 6.52671 12.4193 6.4905 12.3469 6.41809C12.2021 6.27326 12.2021 6.03862 12.3469 5.89379L13.4592 4.78148C13.6041 4.63664 13.8387 4.63664 13.9835 4.78148C14.1284 4.92631 14.1284 5.16094 13.9835 5.30577L12.8712 6.41809C12.7988 6.4905 12.7039 6.52671 12.6091 6.52671Z" fill="#1D2B36"/>
<path d="M16.8361 3.7583L15.4576 4.21778C15.3062 4.26827 15.2041 4.40993 15.2041 4.56954V5.04385C15.2041 5.24861 15.3701 5.41462 15.5749 5.41462H17.044C17.0531 5.29299 17.058 5.16942 17.058 5.04385C17.058 4.56495 16.9715 4.14109 16.8361 3.7583Z" fill="white"/>
</svg>
