<svg width="40" height="40" viewBox="0 0 40 40" fill="none" xmlns="http://www.w3.org/2000/svg">
<g clip-path="url(#clip0)">
<path d="M7.82609 36.5437C3.51053 36.5437 0 33.0331 0 28.7176C0 24.402 3.51053 20.8915 7.82609 20.8915C12.1416 20.8915 15.6522 24.402 15.6522 28.7176C15.6522 33.0331 12.1416 36.5437 7.82609 36.5437Z" fill="#1D2B36"/>
<path d="M7.82634 33.0658C5.42881 33.0658 3.47852 31.1155 3.47852 28.7179C3.47852 26.3204 5.42881 24.3701 7.82634 24.3701C10.2239 24.3701 12.1742 26.3204 12.1742 28.7179C12.1742 31.1155 10.2239 33.0658 7.82634 33.0658Z" fill="white"/>
<path d="M18.2614 28.7176H7.82666L18.2614 21.7611V28.7176Z" fill="#D5DCE1"/>
<path d="M18.2614 29.5873H7.82665C7.44367 29.5873 7.1057 29.3368 6.99445 28.97C6.88321 28.6031 7.02587 28.2065 7.34431 27.9942L17.7791 21.0377C18.0449 20.8598 18.3897 20.8428 18.6716 20.9944C18.9544 21.146 19.131 21.4407 19.131 21.7612V28.7177C19.131 29.1984 18.7421 29.5873 18.2614 29.5873ZM10.6986 27.8482H17.3919V23.3857L10.6986 27.8482Z" fill="#D5DCE1"/>
<path clip-rule="evenodd" d="M31.5591 3.7549L29.8199 5.49403C29.6286 5.68533 29.5373 5.95577 29.573 6.22446C29.6086 6.49316 29.7686 6.72968 30.0034 6.8636C31.5095 7.72446 33.0434 9.53751 33.0434 10.4566C33.0434 11.1784 32.4452 11.8219 31.5591 12.1549C23.4782 7.41316 17.1151 15.0434 17.1151 15.0434C16.7874 15.3917 16.1295 15.674 15.6601 15.674H12.1658C11.692 15.674 11.0301 15.3999 10.6951 15.0648L8.43974 12.8095C8.10219 12.4719 7.43938 12.1405 6.96681 12.073L2.59826 11.4489C2.12569 11.3814 1.594 11.6888 1.41672 12.132L0.310925 14.8966C0.137308 15.3306 0.337934 15.8243 0.765134 16.0141L7.82602 19.1523C13.1095 19.1523 17.3912 23.4349 17.3912 28.7175C17.3912 29.0114 17.3738 29.3001 17.3478 29.5871H25.2173C25.3878 29.5871 25.553 29.5375 25.6956 29.4445C25.6956 29.4445 35.5051 22.981 35.5512 22.9436C37.2086 21.261 39.9999 17.7323 39.9999 13.0653C39.9999 6.10273 32.7538 3.64446 32.4452 3.54359C32.1356 3.44099 31.7912 3.52273 31.5591 3.7549Z" fill="#008AF8" fill-rule="evenodd"/>
<path fill-rule="evenodd" clip-rule="evenodd" d="M16.6873 15.367C16.3622 15.551 15.9699 15.6742 15.6599 15.6742H12.1656C11.6917 15.6742 11.0299 15.4001 10.6948 15.065L8.43951 12.8097C8.10196 12.4721 7.43914 12.1407 6.96658 12.0732L2.59802 11.4491C2.12545 11.3816 1.59377 11.689 1.41648 12.1322L0.779297 13.7252L9.9997 17.4133H14.4221C14.6527 17.4133 14.8739 17.3217 15.037 17.1587L16.7699 15.4258L16.6873 15.367Z" fill="#1D2B36"/>
<path d="M32.1733 36.5437C27.8577 36.5437 24.3472 33.0331 24.3472 28.7176C24.3472 24.402 27.8577 20.8915 32.1733 20.8915C36.4888 20.8915 39.9993 24.402 39.9993 28.7176C39.9993 33.0331 36.4888 36.5437 32.1733 36.5437Z" fill="#1D2B36"/>
<path d="M32.1735 33.0658C29.776 33.0658 27.8257 31.1155 27.8257 28.7179C27.8257 26.3204 29.776 24.3701 32.1735 24.3701C34.571 24.3701 36.5213 26.3204 36.5213 28.7179C36.5213 31.1155 34.571 33.0658 32.1735 33.0658Z" fill="white"/>
<path d="M29.5649 16.5428C29.3424 16.5428 29.1199 16.4578 28.9501 16.288C28.6104 15.9483 28.6104 15.3981 28.9501 15.0584L31.5588 12.4497C31.8984 12.11 32.4487 12.11 32.7884 12.4497C33.128 12.7894 33.128 13.3396 32.7884 13.6793L30.1797 16.288C30.0098 16.4578 29.7874 16.5428 29.5649 16.5428Z" fill="#1D2B36"/>
<path d="M39.4798 10.0507L36.2469 11.1283C35.8919 11.2467 35.6523 11.5789 35.6523 11.9533V13.0656C35.6523 13.5459 36.0416 13.9352 36.5219 13.9352H39.9675C39.9888 13.6499 40.0002 13.3601 40.0002 13.0656C40.0002 11.9425 39.7973 10.9484 39.4798 10.0507Z" fill="#FFEA8A"/>
</g>
<defs>
<clipPath id="clip0">
<rect width="40" height="40" fill="white"/>
</clipPath>
</defs>
</svg>
