<svg width="28" height="22" viewBox="0 0 28 22" fill="none" xmlns="http://www.w3.org/2000/svg">
<g id="Group 18298">
<path id="Union" fill-rule="evenodd" clip-rule="evenodd" d="M16.9042 0C15.7907 0 14.8498 0.898842 14.8498 2.05484C14.8498 3.21084 15.7907 4.10968 16.9042 4.10968H17.5622L17.5622 11.6287H16.2461L16.2461 9.21096L16.2461 9.20834V7.42192C16.2461 5.27748 14.4959 3.57805 12.3834 3.57805H7.86268C6.24619 3.57805 4.84185 4.57313 4.2715 6.00123C4.24768 6.00041 4.22384 6 4.2 6H1.8C1.38364 6 0.968204 6.12532 0.634315 6.37574C0.300118 6.62638 0 7.04899 0 7.6C0 8.15101 0.300118 8.57362 0.634315 8.82426C0.803299 8.951 0.993172 9.0457 1.19348 9.10832C1.07833 9.2961 1 9.52512 1 9.80001C1 10.0749 1.07832 10.3039 1.19347 10.4917C0.993164 10.5543 0.803295 10.649 0.634315 10.7757C0.300118 11.0264 0 11.449 0 12C0 12.551 0.300118 12.9736 0.634315 13.2243C0.968204 13.4747 1.38364 13.6 1.8 13.6H4V15.4725C4 16.9738 4.85991 18.2582 6.09832 18.8924C6.77019 20.716 8.53033 22 10.5751 22C12.4577 22 14.0985 20.9119 14.8715 19.3165H18.9368C19.7098 20.9119 21.3505 22 23.2332 22C25.8446 22 28 19.8997 28 17.2616C28 16.0206 27.519 14.8931 26.7402 14.0524L25.1098 9.23164C25.7482 8.88806 26.1917 8.21563 26.1917 7.42198V3.84392C26.1917 2.68792 25.2507 1.78908 24.1373 1.78908H21.6541C21.523 0.763968 20.6431 0 19.6166 0H16.9042Z" fill="white"/>
<path id="vector" fill-rule="evenodd" clip-rule="evenodd" d="M16.9043 1.34143C16.5061 1.34143 16.1833 1.66082 16.1833 2.05481C16.1833 2.44879 16.5061 2.76818 16.9043 2.76818H18.8957V5.62982L18.8957 5.63292L18.8957 5.63602V11.8945C18.8957 12.4889 18.4093 12.9701 17.8085 12.9701H16.0002C15.3993 12.9701 14.9129 12.4889 14.9129 11.8945V9.21093L14.9129 9.20831V7.42189C14.9129 6.03946 13.7809 4.91948 12.3836 4.91948H7.86285C6.46554 4.91948 5.3335 6.03946 5.3335 7.42189V15.4725C5.3335 16.628 6.12442 17.6002 7.20008 17.8882C7.49726 19.4649 8.89538 20.6585 10.5753 20.6585C12.2242 20.6585 13.6016 19.5085 13.9329 17.975H19.8757C20.207 19.5085 21.5844 20.6585 23.2333 20.6585C25.1296 20.6585 26.6668 19.1377 26.6668 17.2616C26.6668 16.2824 26.2481 15.4001 25.5782 14.7802L23.3308 8.13533H24.1375C24.5357 8.13533 24.8585 7.81594 24.8585 7.42195V3.84389C24.8585 3.4499 24.5357 3.13052 24.1375 3.13052H21.425C21.0358 3.13052 20.6671 3.21742 20.3378 3.3727V2.05481C20.3378 1.66082 20.015 1.34143 19.6168 1.34143H16.9043ZM20.3378 5.63148L20.3378 5.63292L20.3378 5.63436C20.3386 6.22815 20.8247 6.70857 21.425 6.70857H23.4164V4.55727H21.425C20.8247 4.55727 20.3386 5.03769 20.3378 5.63148ZM10.5753 15.2914C9.47547 15.2914 8.5839 16.1735 8.5839 17.2616C8.5839 18.3497 9.47547 19.2318 10.5753 19.2318C11.6751 19.2318 12.5667 18.3497 12.5667 17.2616C12.5667 16.1735 11.6751 15.2914 10.5753 15.2914ZM6.77561 7.42189C6.77561 6.82743 7.26199 6.34623 7.86285 6.34623H12.3836C12.9844 6.34623 13.4708 6.82743 13.4708 7.42189V8.49754H6.77561V7.42189ZM23.2333 15.2914C22.1335 15.2914 21.242 16.1735 21.242 17.2616C21.242 18.3497 22.1335 19.2318 23.2333 19.2318C24.3331 19.2318 25.2247 18.3497 25.2247 17.2616C25.2247 16.1735 24.3331 15.2914 23.2333 15.2914Z" fill="#304165"/>
<g id="Group 18284">
<path id="Line 108 (Stroke)" fill-rule="evenodd" clip-rule="evenodd" d="M1 7.6C1 7.26863 1.26863 7 1.6 7H3.4C3.73137 7 4 7.26863 4 7.6C4 7.93137 3.73137 8.2 3.4 8.2H1.6C1.26863 8.2 1 7.93137 1 7.6Z" fill="#304165"/>
<path id="Line 109 (Stroke)" fill-rule="evenodd" clip-rule="evenodd" d="M2 9.80001C2 9.46864 2.26863 9.20001 2.6 9.20001H3.4C3.73137 9.20001 4 9.46864 4 9.80001C4 10.1314 3.73137 10.4 3.4 10.4H2.6C2.26863 10.4 2 10.1314 2 9.80001Z" fill="#304165"/>
<path id="Line 110 (Stroke)" fill-rule="evenodd" clip-rule="evenodd" d="M1 12C1 11.6687 1.26863 11.4 1.6 11.4H3.4C3.73137 11.4 4 11.6687 4 12C4 12.3314 3.73137 12.6 3.4 12.6H1.6C1.26863 12.6 1 12.3314 1 12Z" fill="#304165"/>
</g>
</g>
</svg>
