<svg width="40" height="40" viewBox="0 0 40 40" fill="none" xmlns="http://www.w3.org/2000/svg">
<path d="M33.3335 5.83337H6.66683C3.45025 5.83337 0.833496 8.45012 0.833496 11.6667V33.3334C0.833496 36.55 3.45025 39.1667 6.66683 39.1667H33.3335C36.5501 39.1667 39.1668 36.55 39.1668 33.3334V11.6667C39.1668 8.45012 36.5501 5.83337 33.3335 5.83337Z" fill="#1D2B36"/>
<path d="M33.3335 10.8334H6.66683C6.20666 10.8334 5.8335 11.2065 5.8335 11.6667V33.3334C5.8335 33.7935 6.20666 34.1667 6.66683 34.1667H33.3335C33.7937 34.1667 34.1668 33.7935 34.1668 33.3334V11.6667C34.1668 11.2065 33.7937 10.8334 33.3335 10.8334Z" fill="#D5DCE1"/>
<path d="M28.3335 17.3991L23.3335 22.3991L19.2677 18.3334L26.7677 10.8334H23.2326L10.8335 23.2325L5.8335 18.2325V21.7676L9.06591 25L5.8335 28.2325V31.7676L10.8335 26.7676L18.2326 34.1667H23.4344L32.5002 25.101L34.1668 26.7676V23.2325L28.3335 17.3991ZM20.8335 33.2325L12.6011 25L17.5002 20.101L23.3335 25.9343L28.3335 20.9343L30.7326 23.3334L20.8335 33.2325Z" fill="white"/>
<path d="M18.4344 10.8334H14.8992L11.6668 14.0658L8.43441 10.8334H6.66683C6.20666 10.8334 5.8335 11.2065 5.8335 11.6667V11.7676L11.6668 17.601L18.4344 10.8334Z" fill="white"/>
<path d="M20.0002 0.833374C15.4942 0.833374 10.8335 4.26229 10.8335 10C10.8335 15.424 19.0586 23.7757 19.4085 24.1289C19.5652 24.2864 19.778 24.375 20.0002 24.375C20.2223 24.375 20.4352 24.2864 20.5918 24.1289C20.9417 23.7757 29.1668 15.424 29.1668 10C29.1668 4.26229 24.5062 0.833374 20.0002 0.833374Z" fill="#1265E5"/>
<path d="M20.0002 11.6667C20.9206 11.6667 21.6668 10.9205 21.6668 10C21.6668 9.07957 20.9206 8.33337 20.0002 8.33337C19.0797 8.33337 18.3335 9.07957 18.3335 10C18.3335 10.9205 19.0797 11.6667 20.0002 11.6667Z" fill="white"/>
</svg>
