<svg width="48" height="28" viewBox="0 0 48 28" fill="none" xmlns="http://www.w3.org/2000/svg">
<path d="M40.5217 0H7.47826C6.10956 0 5 0.948103 5 2.11765V21.8824C5 23.0519 6.10956 24 7.47826 24H40.5217C41.8904 24 43 23.0519 43 21.8824V2.11765C43 0.948103 41.8904 0 40.5217 0Z" fill="#CD0B0F"/>
<path d="M18.8561 18C16.1916 18 14 15.9219 14 13.383C14 10.8347 16.1621 8.73779 18.8561 8.73779C21.5402 8.73779 23.6727 10.8065 23.6727 13.3548C23.6776 15.9783 21.6091 18 18.8561 18ZM18.8561 10.6467C17.3047 10.6467 16.1818 11.9772 16.1818 13.383C16.1818 14.8358 17.2801 16.0958 18.8561 16.0958C20.3976 16.0958 21.4909 14.8264 21.4909 13.4018C21.4909 12.0054 20.3976 10.6467 18.8561 10.6467Z" fill="white"/>
<path d="M30.2029 17.7226V13.2749C30.2029 12.0242 29.9862 10.6467 28.3314 10.6467C26.7062 10.6467 26.4895 12.0995 26.4895 13.3078V17.7226H24.3126V5H26.4895V9.64521C27.1741 9.034 27.9276 8.73309 28.8584 8.73309C29.8877 8.73309 31.0402 9.28788 31.6607 10.0684C32.2517 10.8018 32.3847 11.7703 32.3847 12.6825V17.7226H30.2029Z" fill="white"/>
<path d="M33.808 5H35.9996V14.7747H33.808V5ZM35.9996 17.7226H33.808V15.7338H35.9996V17.7226Z" fill="white"/>
</svg>
