<svg width="48" height="28" viewBox="0 0 48 28" fill="none" xmlns="http://www.w3.org/2000/svg">
<path d="M40.5217 0H7.47826C6.10956 0 5 0.948103 5 2.11765V21.8824C5 23.0519 6.10956 24 7.47826 24H40.5217C41.8904 24 43 23.0519 43 21.8824V2.11765C43 0.948103 41.8904 0 40.5217 0Z" fill="#CD0B0F"/>
<path d="M18.8561 18C16.1916 18 14 15.9219 14 13.383C14 10.8347 16.1621 8.73779 18.8561 8.73779C21.5402 8.73779 23.6727 10.8065 23.6727 13.3548C23.6776 15.9783 21.6091 18 18.8561 18ZM18.8561 10.6467C17.3047 10.6467 16.1818 11.9772 16.1818 13.383C16.1818 14.8358 17.2801 16.0958 18.8561 16.0958C20.3976 16.0958 21.4909 14.8264 21.4909 13.4018C21.4909 12.0054 20.3976 10.6467 18.8561 10.6467Z" fill="white"/>
<path d="M30.2029 17.7226V13.2749C30.2029 12.0242 29.9862 10.6467 28.3314 10.6467C26.7062 10.6467 26.4895 12.0995 26.4895 13.3078V17.7226H24.3126V5H26.4895V9.64521C27.1741 9.034 27.9276 8.73309 28.8584 8.73309C29.8877 8.73309 31.0402 9.28788 31.6607 10.0684C32.2517 10.8018 32.3847 11.7703 32.3847 12.6825V17.7226H30.2029Z" fill="white"/>
<path d="M33.808 5H35.9996V14.7747H33.808V5ZM35.9996 17.7226H33.808V15.7338H35.9996V17.7226Z" fill="white"/>
<rect x="19" y="19" width="24" height="9" rx="4.5" fill="#F9FAFB"/>
<path d="M29.0233 25.4149H30.177L30.8995 21.0745H29.745L29.0233 25.4149Z" fill="#1A1876"/>
<path d="M33.2275 22.8181C32.8238 22.6173 32.5768 22.4833 32.5794 22.2802C32.5794 22.0998 32.7885 21.9068 33.2406 21.9068C33.6104 21.9009 33.9084 21.9781 34.2082 22.1234L34.3649 21.1826C34.1357 21.0945 33.7773 21 33.3299 21C32.1892 21 31.3855 21.5887 31.379 22.4325C31.3724 23.056 31.9528 23.4039 32.3907 23.6115C32.8399 23.8243 32.9911 23.9598 32.9889 24.1498C32.986 24.4407 32.63 24.5736 32.2981 24.5736C31.7859 24.5736 31.5276 24.4925 31.0628 24.2768L30.9006 25.2485C31.1702 25.3695 31.669 25.4748 32.1867 25.48C33.4002 25.48 34.1878 24.898 34.197 23.9971C34.201 23.5036 33.8935 23.1276 33.2275 22.8181Z" fill="#1A1876"/>
<path d="M37.3239 21.0796H36.4317C36.1552 21.0796 35.9486 21.1569 35.8273 21.4395L34.1129 25.417H35.3249C35.3249 25.417 35.5231 24.882 35.5679 24.7648C35.7005 24.7648 36.878 24.7666 37.0463 24.7666C37.0809 24.9186 37.1869 25.417 37.1869 25.417H38.258L37.3239 21.0796ZM35.9002 23.877C35.9479 23.7519 36.4193 22.5121 36.5133 22.2496C36.6692 22.9978 36.5173 22.272 36.8587 23.877H35.9002Z" fill="#1A1876"/>
<path d="M28.0548 21.0777L26.9247 24.0375L26.8041 23.4361L26.3994 21.4417C26.3294 21.167 26.1269 21.0848 25.8762 21.0755H24.0146L24 21.1658C24.4528 21.2782 24.8576 21.4402 25.2124 21.6418L26.2387 25.4114L27.4603 25.4099L29.2778 21.0781H28.0548V21.0777Z" fill="#1A1876"/>
</svg>
