<svg width="16" height="16" viewBox="0 0 16 16" fill="none" xmlns="http://www.w3.org/2000/svg">
<g clip-path="url(#clip0_4432_28092)">
<path fill-rule="evenodd" clip-rule="evenodd" d="M13.5071 9.01537V11.5015C13.5071 12.8731 12.3953 13.9849 11.0237 13.9849H4.94268C3.57118 13.9849 2.45935 12.8731 2.45935 11.5015V8.99058C2.3836 8.93371 2.31092 8.87237 2.24174 8.80671C1.77029 8.35922 1.50024 7.74656 1.50024 7.10187V6.15268C1.50024 6.12781 1.50206 6.10337 1.50557 6.07947C1.50115 6.02157 1.50716 5.96189 1.52497 5.90297L2.17781 3.74254C2.4945 2.69452 3.46016 1.97754 4.55498 1.97754H11.381C12.456 1.97754 13.409 2.66928 13.7421 3.69142L14.4596 5.89302C14.4737 5.93655 14.4814 5.98063 14.4831 6.02422C14.494 6.06521 14.4998 6.10827 14.4998 6.15268V7.10187C14.4998 7.74656 14.2297 8.35922 13.7583 8.80671C13.6789 8.88202 13.595 8.95165 13.5071 9.01537ZM3.10315 4.02216C3.29657 3.38209 3.88633 2.94421 4.55498 2.94421H11.381C12.0376 2.94421 12.6196 3.36668 12.823 3.99094L13.505 6.08363C13.5019 6.1062 13.5002 6.12925 13.5002 6.15268V7.10187C13.5002 7.46415 13.3489 7.81721 13.0702 8.08175C12.7906 8.34713 12.4061 8.50049 12 8.50049C11.594 8.50049 11.2094 8.34713 10.9299 8.08175C10.6512 7.81721 10.4998 7.46415 10.4998 7.10187V6.78548C10.4998 6.78547 10.4998 6.78548 10.4998 6.78548C10.4998 6.74927 10.4959 6.71394 10.4886 6.67992C10.4402 6.45459 10.2398 6.28569 10 6.28569C9.7585 6.28569 9.557 6.457 9.5104 6.68473C9.50374 6.71727 9.50024 6.75095 9.50024 6.78545C9.50024 6.78546 9.50024 6.78545 9.50024 6.78545V7.10185C9.50024 7.46413 9.34887 7.81719 9.07017 8.08173C8.79058 8.34711 8.40606 8.50046 8.00001 8.50046C7.59396 8.50046 7.20945 8.34711 6.92986 8.08173C6.65116 7.81719 6.49978 7.46413 6.49978 7.10185V6.78548C6.49978 6.50946 6.27603 6.28569 6.00001 6.28569C5.7427 6.28569 5.53081 6.48015 5.50327 6.73012C5.5015 6.7462 5.50049 6.76251 5.50029 6.77902L5.50024 6.78545V7.10185C5.50024 7.46413 5.34887 7.81721 5.07017 8.08175C4.79058 8.34713 4.40606 8.50049 4.00001 8.50049C3.59396 8.50049 3.20945 8.34713 2.92986 8.08175C2.65116 7.81721 2.49978 7.46415 2.49978 7.10187V6.15268C2.49978 6.11829 2.49631 6.0847 2.48969 6.05226L3.10315 4.02216ZM10 8.54071C9.92669 8.63451 9.84597 8.72345 9.75829 8.80669C9.28773 9.25334 8.65483 9.5 8.00001 9.5C7.3452 9.5 6.7123 9.25334 6.24174 8.80669C6.15405 8.72346 6.07333 8.63451 6.00002 8.54071C5.92671 8.63452 5.84598 8.72347 5.75829 8.80671C5.28773 9.25336 4.65483 9.50002 4.00001 9.50002C3.80552 9.50002 3.61296 9.47826 3.42602 9.43596V11.5015C3.42602 12.3392 4.10505 13.0182 4.94268 13.0182H11.0237C11.8614 13.0182 12.5404 12.3392 12.5404 11.5015V9.44333C12.364 9.48079 12.1829 9.50002 12 9.50002C11.3452 9.50002 10.7123 9.25336 10.2417 8.80671C10.154 8.72347 10.0733 8.63452 10 8.54071Z" fill="#305787"/>
</g>
<defs>
<clipPath id="clip0_4432_28092">
<rect width="16" height="16" fill="white"/>
</clipPath>
</defs>
</svg>
