<svg width="16" height="16" viewBox="0 0 16 16" fill="none" xmlns="http://www.w3.org/2000/svg">
<path fill-rule="evenodd" clip-rule="evenodd" d="M7.99187 1.09277C9.73444 1.09277 11.174 2.42055 11.3515 4.11872L11.401 4.11931C12.3677 4.11931 13.543 4.76131 13.9397 6.56197L14.4657 10.6333C14.6543 11.9473 14.4183 13.0013 13.763 13.7573C13.111 14.5093 12.079 14.9073 10.7783 14.9073H5.213C3.78433 14.9073 2.789 14.5573 2.16967 13.838C1.54767 13.1166 1.33967 12.0346 1.55167 10.6226L2.069 6.60531C2.409 4.76331 3.65233 4.11931 4.615 4.11931C4.69811 3.35296 5.04367 2.62391 5.59187 2.07744C6.22187 1.45144 7.09053 1.09277 7.97787 1.09277H7.99187ZM11.401 5.11931H4.615C4.321 5.11931 3.33833 5.23797 3.05633 6.76064L2.54167 10.7606C2.37433 11.8826 2.50367 12.6946 2.927 13.186C3.345 13.6713 4.093 13.9073 5.213 13.9073H10.7783C11.477 13.9073 12.431 13.768 13.007 13.1026C13.4643 12.5753 13.6217 11.79 13.475 10.768L12.9557 6.73331C12.7343 5.73931 12.1503 5.11931 11.401 5.11931ZM9.9362 6.97537C10.2122 6.97537 10.4515 7.19937 10.4515 7.47537C10.4515 7.75137 10.2429 7.97537 9.96687 7.97537H9.9362C9.6602 7.97537 9.4362 7.75137 9.4362 7.47537C9.4362 7.19937 9.6602 6.97537 9.9362 6.97537ZM6.04947 6.97537C6.32547 6.97537 6.5648 7.19937 6.5648 7.47537C6.5648 7.75137 6.35547 7.97537 6.07947 7.97537H6.04947C5.77347 7.97537 5.54947 7.75137 5.54947 7.47537C5.54947 7.19937 5.77347 6.97537 6.04947 6.97537ZM7.98987 2.09277H7.97987C7.35253 2.09277 6.7412 2.34544 6.29787 2.78611C5.93673 3.14562 5.70055 3.61824 5.62414 4.119L10.3437 4.11918C10.1723 2.97369 9.1818 2.09277 7.98987 2.09277Z" fill="#3D4852"/>
</svg>
