<svg width="24" height="26" viewBox="0 0 24 26" fill="none" xmlns="http://www.w3.org/2000/svg">
<path d="M22.1161 22.5825H5.8601C5.26134 22.5825 4.77637 22.0817 4.77637 21.4633V1.31908C4.77637 0.70076 5.26134 0.199951 5.8601 0.199951H22.1161C22.7149 0.199951 23.1999 0.70076 23.1999 1.31908V21.4633C23.1999 22.0817 22.7149 22.5825 22.1161 22.5825Z" fill="#A5B2BD"/>
<path d="M18.1396 25.8H1.88354C1.28478 25.8 0.799805 25.2992 0.799805 24.6809V4.53661C0.799805 3.91829 1.28478 3.41748 1.88354 3.41748H18.1396C18.7383 3.41748 19.2233 3.91829 19.2233 4.53661V24.6809C19.2233 25.2992 18.7383 25.8 18.1396 25.8Z" fill="#F0F2F4"/>
<path d="M14.0116 10.2721H5.34167C5.04256 10.2721 4.7998 10.0214 4.7998 9.71252C4.7998 9.40364 5.04256 9.15295 5.34167 9.15295H14.0116C14.3107 9.15295 14.5534 9.40364 14.5534 9.71252C14.5534 10.0214 14.3107 10.2721 14.0116 10.2721Z" fill="#A5B2BD"/>
<path d="M14.0116 14.7486H5.34167C5.04256 14.7486 4.7998 14.498 4.7998 14.1891C4.7998 13.8802 5.04256 13.6295 5.34167 13.6295H14.0116C14.3107 13.6295 14.5534 13.8802 14.5534 14.1891C14.5534 14.498 14.3107 14.7486 14.0116 14.7486Z" fill="#A5B2BD"/>
<path d="M9.67662 19.2251H5.34167C5.04256 19.2251 4.7998 18.9744 4.7998 18.6655C4.7998 18.3566 5.04256 18.106 5.34167 18.106H9.67662C9.97573 18.106 10.2185 18.3566 10.2185 18.6655C10.2185 18.9744 9.97573 19.2251 9.67662 19.2251Z" fill="#A5B2BD"/>
</svg>
