<svg width="32" height="32" viewBox="0 0 32 32" fill="none" xmlns="http://www.w3.org/2000/svg">
<path d="M26.6665 4.66669H5.33317C2.7599 4.66669 0.666504 6.76009 0.666504 9.33335V26.6667C0.666504 29.24 2.7599 31.3334 5.33317 31.3334H26.6665C29.2398 31.3334 31.3332 29.24 31.3332 26.6667V9.33335C31.3332 6.76009 29.2398 4.66669 26.6665 4.66669Z" fill="#1D2B36"/>
<path d="M26.6665 8.66669H5.33317C4.96504 8.66669 4.6665 8.96522 4.6665 9.33335V26.6667C4.6665 27.0348 4.96504 27.3334 5.33317 27.3334H26.6665C27.0346 27.3334 27.3332 27.0348 27.3332 26.6667V9.33335C27.3332 8.96522 27.0346 8.66669 26.6665 8.66669Z" fill="#E9ECEE"/>
<path d="M22.6665 13.9193L18.6665 17.9193L15.4139 14.6667L21.4139 8.66669H18.5858L8.6665 18.586L4.6665 14.586V17.4141L7.25244 20L4.6665 22.586V25.4141L8.6665 21.4141L14.5858 27.3334H18.7472L25.9998 20.0808L27.3332 21.4141V18.586L22.6665 13.9193ZM16.6665 26.586L10.0806 20L13.9998 16.0808L18.6665 20.7474L22.6665 16.7474L24.5858 18.6667L16.6665 26.586Z" fill="white"/>
<path d="M14.7472 8.66669H11.9191L9.33317 11.2526L6.74724 8.66669H5.33317C4.96504 8.66669 4.6665 8.96522 4.6665 9.33335V9.41409L9.33317 14.0808L14.7472 8.66669Z" fill="white"/>
<path d="M15.9998 0.666687C12.395 0.666687 8.6665 3.40982 8.6665 8.00002C8.6665 12.3392 15.2466 19.0206 15.5265 19.3031C15.6518 19.4291 15.8221 19.5 15.9998 19.5C16.1776 19.5 16.3478 19.4291 16.4732 19.3031C16.7531 19.0206 23.3332 12.3392 23.3332 8.00002C23.3332 3.40982 19.6046 0.666687 15.9998 0.666687Z" fill="#2697FF"/>
<path d="M15.9998 9.33335C16.7362 9.33335 17.3332 8.7364 17.3332 8.00002C17.3332 7.26364 16.7362 6.66669 15.9998 6.66669C15.2635 6.66669 14.6665 7.26364 14.6665 8.00002C14.6665 8.7364 15.2635 9.33335 15.9998 9.33335Z" fill="white"/>
</svg>
