<svg width="4" height="16" viewBox="0 0 4 16" fill="none" xmlns="http://www.w3.org/2000/svg">
<path d="M3.51006 2.03579C3.51006 2.86997 2.83383 3.5462 1.99966 3.5462C1.16549 3.5462 0.489258 2.86997 0.489258 2.03579C0.489258 1.20162 1.16549 0.525391 1.99966 0.525391C2.83383 0.525391 3.51006 1.20162 3.51006 2.03579Z" fill="#1D2B36"/>
<path d="M1.99966 9.55743C2.83383 9.55743 3.51006 8.8812 3.51006 8.04702C3.51006 7.21285 2.83383 6.53662 1.99966 6.53662C1.16549 6.53662 0.489258 7.21285 0.489258 8.04702C0.489258 8.8812 1.16549 9.55743 1.99966 9.55743Z" fill="#1D2B36"/>
<path d="M1.99966 15.4746C2.83383 15.4746 3.51006 14.7984 3.51006 13.9642C3.51006 13.13 2.83383 12.4538 1.99966 12.4538C1.16549 12.4538 0.489258 13.13 0.489258 13.9642C0.489258 14.7984 1.16549 15.4746 1.99966 15.4746Z" fill="#1D2B36"/>
</svg>
