<svg width="14" height="14" viewBox="0 0 14 14" fill="none" xmlns="http://www.w3.org/2000/svg">
<path d="M5.48419 9.69189C5.22952 9.69189 4.98483 9.66442 4.75014 9.60949C4.51544 9.55457 4.31819 9.47716 4.1584 9.37729C3.93369 9.23747 3.82133 9.08018 3.82133 8.9054C3.82133 8.77057 3.86378 8.65572 3.94867 8.56084C4.03356 8.46097 4.14092 8.41104 4.27075 8.41104C4.3107 8.41104 4.35315 8.42102 4.39809 8.441C4.44802 8.45598 4.50046 8.47595 4.55539 8.50092C4.73016 8.58082 4.88746 8.64324 5.02728 8.68818C5.17209 8.73312 5.33189 8.75559 5.50666 8.75559C5.68643 8.75559 5.84123 8.72563 5.97107 8.66571C6.10589 8.60079 6.20826 8.5159 6.27817 8.41104C6.34808 8.30118 6.38304 8.17384 6.38304 8.02903C6.38304 7.85924 6.31812 7.71693 6.18829 7.60208C6.06345 7.48722 5.85871 7.37986 5.57408 7.27999C5.1696 7.14516 4.8575 7.02532 4.63778 6.92045C4.41806 6.81059 4.24079 6.66328 4.10596 6.47852C3.97613 6.28876 3.91121 6.04158 3.91121 5.73697C3.91121 5.41738 3.99111 5.14024 4.15091 4.90554C4.3107 4.67084 4.52542 4.49107 4.79508 4.36623C5.06473 4.2414 5.35935 4.17898 5.67894 4.17898C5.8687 4.17898 6.05346 4.19895 6.23323 4.2389C6.413 4.27885 6.5653 4.33378 6.69014 4.40369C6.81498 4.46361 6.90986 4.53602 6.97478 4.62091C7.04469 4.7058 7.07964 4.79818 7.07964 4.89805C7.07964 5.02788 7.03969 5.13774 6.9598 5.22763C6.8799 5.31252 6.78003 5.35496 6.66018 5.35496C6.57529 5.35496 6.4904 5.33749 6.40551 5.30253C6.38054 5.29254 6.32062 5.26508 6.22574 5.22014C6.13086 5.17519 6.03349 5.14274 5.93361 5.12276C5.83874 5.09779 5.73887 5.08531 5.634 5.08531C5.49917 5.08531 5.37683 5.11028 5.26697 5.16021C5.15711 5.21015 5.06973 5.28006 5.00481 5.36994C4.94489 5.45484 4.91492 5.55471 4.91492 5.66956C4.91492 5.77442 4.94489 5.86431 5.00481 5.93921C5.06973 6.01412 5.15961 6.07903 5.27446 6.13396C5.38931 6.18889 5.55161 6.25381 5.76134 6.32871C6.15583 6.45855 6.46543 6.58838 6.69014 6.71821C6.91985 6.84804 7.09213 7.01283 7.20698 7.21258C7.32682 7.40733 7.38675 7.6595 7.38675 7.9691C7.38675 8.31865 7.30935 8.62326 7.15455 8.88293C6.99974 9.14259 6.77753 9.34234 6.4879 9.48216C6.20327 9.62198 5.8687 9.69189 5.48419 9.69189Z" fill="#1D2B36"/>
<path d="M9.86247 4.36305C10.1192 4.46472 10.2449 4.75527 10.1433 5.01202L8.36398 9.50529C8.26231 9.76203 7.97176 9.88775 7.71501 9.78608C7.45827 9.68441 7.33255 9.39386 7.43422 9.13711L9.21351 4.64384C9.31518 4.3871 9.60573 4.26138 9.86247 4.36305Z" fill="#1D2B36"/>
<path fill-rule="evenodd" clip-rule="evenodd" d="M6.99992 0.333496C10.6759 0.333496 13.6666 3.32416 13.6666 7.00016C13.6666 10.6762 10.6759 13.6668 6.99992 13.6668C3.32392 13.6668 0.333252 10.6762 0.333252 7.00016C0.333252 3.32416 3.32392 0.333496 6.99992 0.333496ZM6.99992 1.3335C3.87525 1.3335 1.33325 3.8755 1.33325 7.00016C1.33325 10.1248 3.87525 12.6668 6.99992 12.6668C10.1246 12.6668 12.6666 10.1248 12.6666 7.00016C12.6666 3.8755 10.1246 1.3335 6.99992 1.3335Z" fill="#1D2B36"/>
</svg>
