<svg width="64" height="64" viewBox="0 0 64 64" fill="none" xmlns="http://www.w3.org/2000/svg">
<rect width="64" height="64" rx="12" fill="white"/>
<rect x="8" y="8" width="48" height="48" rx="8" fill="#F4F6F7"/>
<path d="M41.7526 19.9111H22.2478C20.5647 19.9111 19.2002 21.2377 19.2002 22.8741V41.8371C19.2002 43.4735 20.5647 44.8 22.2478 44.8H41.7526C43.4357 44.8 44.8002 43.4735 44.8002 41.8371V22.8741C44.8002 21.2377 43.4357 19.9111 41.7526 19.9111Z" fill="#FACEA6"/>
<path d="M37.0572 19.2H26.9436C26.776 19.2 26.6152 19.2612 26.4967 19.3704C26.3781 19.4795 26.3115 19.6275 26.3115 19.7818V31.4181C26.3115 31.5262 26.3442 31.6321 26.4059 31.724C26.4676 31.8159 26.5559 31.8902 26.6609 31.9385C26.7659 31.9868 26.8835 32.0073 27.0004 31.9976C27.1173 31.9879 27.229 31.9484 27.3229 31.8836L32.0004 28.6545L36.6779 31.8836C36.7719 31.9484 36.8835 31.9879 37.0004 31.9976C37.1173 32.0073 37.2349 31.9868 37.3399 31.9385C37.4449 31.8902 37.5332 31.8159 37.5949 31.724C37.6566 31.6321 37.6893 31.5262 37.6893 31.4181V19.7818C37.6893 19.6275 37.6227 19.4795 37.5042 19.3704C37.3856 19.2612 37.2248 19.2 37.0572 19.2Z" fill="#888BFF"/>
</svg>
