<svg width="24" height="24" viewBox="0 0 24 24" fill="none" xmlns="http://www.w3.org/2000/svg">
<path d="M17.8273 6.121C17.8464 6.13744 17.8643 6.15531 17.8808 6.17443C17.91 6.20835 17.9338 6.24525 17.9523 6.28403C17.9829 6.34811 18 6.41974 18 6.49531V10.2181C18 10.4917 17.7759 10.7134 17.4994 10.7134C17.223 10.7134 16.9989 10.4917 16.9989 10.2181V7.69108L13.3386 11.3129C13.1432 11.5064 12.8262 11.5064 12.6307 11.3129C12.4353 11.1195 12.4353 10.8059 12.6307 10.6124L16.291 6.99063H13.7372C13.4607 6.99063 13.2366 6.76887 13.2366 6.49531C13.2366 6.22176 13.4607 6 13.7372 6H17.4994C17.5711 6 17.6392 6.0149 17.7009 6.04173C17.7458 6.06128 17.7885 6.0877 17.8273 6.121Z" fill="#1A8FF1"/>
<path d="M13.8941 17.0403C14.7345 17.0403 15.4157 16.3662 15.4157 15.5347V14.1137C15.4157 13.8487 15.6328 13.6338 15.9007 13.6338C16.1685 13.6338 16.3856 13.8487 16.3856 14.1137L16.3856 15.5347C16.3856 16.8962 15.2701 18 13.8941 18L8.49146 18C7.11547 18 6 16.8962 6 15.5347V10.1565C6 8.79489 7.11547 7.69113 8.49146 7.69113L10.0796 7.69113C10.3474 7.69113 10.5645 7.90596 10.5645 8.17096C10.5645 8.43596 10.3474 8.65079 10.0796 8.65079H8.49146C7.65109 8.65079 6.96983 9.3249 6.96983 10.1565L6.96983 15.5347C6.96983 16.3662 7.65109 17.0403 8.49146 17.0403H13.8941Z" fill="#1A8FF1"/>
<rect x="0.6" y="0.6" width="22.8" height="22.8" rx="7.4" stroke="#1A8FF1" stroke-width="1.2"/>
</svg>
