<svg width="24" height="25" viewBox="0 0 24 25" fill="none" xmlns="http://www.w3.org/2000/svg">
<path fill-rule="evenodd" clip-rule="evenodd" d="M12.9091 2.98389C12.5087 2.98389 12.1841 3.30848 12.1841 3.70889C12.1841 4.10929 12.5087 4.43389 12.9091 4.43389H14.9114V7.34216C14.9114 7.34321 14.9114 7.34426 14.9114 7.34531C14.9114 7.34636 14.9114 7.34741 14.9114 7.34846V13.7089C14.9114 14.313 14.4224 14.8021 13.8182 14.8021H12C11.3959 14.8021 10.9068 14.313 10.9068 13.7089V10.9816L10.9068 10.979V9.16342C10.9068 7.75847 9.76861 6.62024 8.36366 6.62024H3.81821C2.41325 6.62024 1.27502 7.75847 1.27502 9.16342V17.3452C1.27502 18.5196 2.07027 19.5076 3.15181 19.8002C3.45062 21.4027 4.85639 22.6157 6.54547 22.6157C8.20342 22.6157 9.58839 21.447 9.92148 19.8885H15.8967C16.2298 21.447 17.6148 22.6157 19.2728 22.6157C21.1794 22.6157 22.725 21.0701 22.725 19.1635C22.725 18.1684 22.304 17.2716 21.6304 16.6416L19.3708 9.88849H20.1818C20.5823 9.88849 20.9068 9.56389 20.9068 9.16349V5.52712C20.9068 5.12672 20.5823 4.80212 20.1818 4.80212H17.4546C17.0632 4.80212 16.6925 4.89045 16.3614 5.04826V3.70889C16.3614 3.30848 16.0368 2.98389 15.6364 2.98389H12.9091ZM16.3614 7.34384C16.3614 7.34433 16.3614 7.34482 16.3614 7.34531C16.3614 7.34579 16.3614 7.34628 16.3614 7.34677C16.3622 7.95023 16.8509 8.43849 17.4546 8.43849H19.4568V6.25212H17.4546C16.8509 6.25212 16.3622 6.74038 16.3614 7.34384ZM16.3614 9.64235V13.7089C16.3614 15.1138 15.2232 16.2521 13.8182 16.2521H12C10.5951 16.2521 9.45685 15.1138 9.45685 13.7089V11.7066H2.72502V17.3452C2.72502 17.7257 2.91903 18.0606 3.21362 18.2563C3.61196 16.7898 4.95276 15.7112 6.54547 15.7112C8.20343 15.7112 9.58842 16.8799 9.9215 18.4385H15.8967C16.2298 16.8799 17.6148 15.7112 19.2728 15.7112C19.4533 15.7112 19.6306 15.725 19.8036 15.7517L17.8418 9.88849H17.4546C17.0632 9.88849 16.6925 9.80016 16.3614 9.64235ZM6.54547 17.1612C5.43965 17.1612 4.5432 18.0576 4.5432 19.1635C4.5432 20.2693 5.43965 21.1657 6.54547 21.1657C7.6513 21.1657 8.54775 20.2693 8.54775 19.1635C8.54775 18.0576 7.6513 17.1612 6.54547 17.1612ZM2.72502 9.16342C2.72502 8.55928 3.21407 8.07024 3.81821 8.07024H8.36366C8.9678 8.07024 9.45684 8.55928 9.45684 9.16342V10.2566H2.72502V9.16342ZM19.2728 17.1612C18.1669 17.1612 17.2705 18.0576 17.2705 19.1635C17.2705 20.2693 18.1669 21.1657 19.2728 21.1657C20.3786 21.1657 21.275 20.2693 21.275 19.1635C21.275 18.0576 20.3786 17.1612 19.2728 17.1612Z" fill="#2F3A51"/>
</svg>
