<svg width="12" height="12" viewBox="0 0 12 12" fill="none" xmlns="http://www.w3.org/2000/svg">
<path d="M9.525 8.42236C10.2 7.52795 10.575 6.48447 10.575 5.29193C10.575 2.38509 8.25 0 5.325 0C2.4 0 0 2.38509 0 5.29193C0 8.19876 2.4 10.5839 5.325 10.5839C6.525 10.5839 7.65 10.2112 8.475 9.54037L10.725 11.7764C10.875 11.9255 11.1 12 11.25 12C11.4 12 11.625 11.9255 11.775 11.7764C12.075 11.4783 12.075 11.0311 11.775 10.7329L9.525 8.42236ZM5.325 9.01863C3.225 9.01863 1.5 7.37888 1.5 5.29193C1.5 3.20497 3.225 1.49068 5.325 1.49068C7.425 1.49068 9.15 3.20497 9.15 5.29193C9.15 7.37888 7.425 9.01863 5.325 9.01863Z" fill="#A5B2BD"/>
</svg>
