<svg width="20" height="20" viewBox="0 0 20 20" fill="none" xmlns="http://www.w3.org/2000/svg">
<path d="M17.959 17.1112L15.5275 14.7312C16.4055 13.7627 17.026 12.5973 17.3342 11.3381C17.6424 10.0789 17.6287 8.76476 17.2944 7.51197C16.8843 5.98664 16.0135 4.61791 14.796 3.58469C13.5784 2.55147 12.0707 1.90184 10.4699 1.7207C9.25552 1.58019 8.02439 1.71377 6.87092 2.11119C5.71746 2.50861 4.6723 3.15932 3.81561 4.01341C2.96088 4.86107 2.31453 5.88807 1.92554 7.01655C1.53655 8.14503 1.41513 9.34538 1.57049 10.5266C1.82394 12.3983 2.75847 14.1178 4.20259 15.3696C5.64671 16.6213 7.50357 17.3214 9.43245 17.3413C11.2437 17.371 13.0101 16.7882 14.4333 15.6912L16.9297 18.1267C16.9965 18.1925 17.0761 18.2447 17.1638 18.2801C17.2514 18.3156 17.3455 18.3335 17.4403 18.3329C17.5374 18.3355 17.6339 18.3177 17.7233 18.2808C17.8128 18.2438 17.8932 18.1886 17.959 18.1187C18.0951 17.9849 18.1716 17.8038 18.1716 17.615C18.1716 17.4261 18.0951 17.245 17.959 17.1112ZM14.1496 14.0331C13.5452 14.6304 12.8255 15.1042 12.0324 15.4269C11.2393 15.7497 10.3886 15.915 9.52971 15.9133C9.09463 15.9126 8.66052 15.8728 8.23289 15.7943C6.95852 15.5551 5.78678 14.9471 4.86924 14.049C3.9517 13.1509 3.33055 12.004 3.08615 10.7567C2.8696 9.72106 2.92076 8.6489 3.23498 7.63754C3.54921 6.62619 4.11655 5.70768 4.88548 4.9654C5.48994 4.36813 6.20961 3.89435 7.0027 3.57158C7.79579 3.24882 8.64649 3.0835 9.5054 3.08522C9.94048 3.08587 10.3746 3.1257 10.8022 3.20422C12.0766 3.44344 13.2483 4.05141 14.1659 4.9495C15.0834 5.84759 15.7046 6.99448 15.949 8.24183C16.1655 9.27745 16.1143 10.3496 15.8001 11.361C15.4859 12.3723 14.9186 13.2908 14.1496 14.0331Z" fill="white"/>
</svg>
