<svg width="24" height="24" viewBox="0 0 24 24" fill="none" xmlns="http://www.w3.org/2000/svg">
<g id="bold=off">
<path fill="currentColor" id="vector" fill-rule="evenodd" clip-rule="evenodd" d="M21.5508 20.5336L18.6329 17.6777C19.6865 16.5154 20.4311 15.1169 20.801 13.6059C21.1708 12.0949 21.1544 10.5179 20.7532 9.01456C20.261 7.18417 19.2161 5.54169 17.7551 4.30183C16.294 3.06196 14.4847 2.2824 12.5638 2.06504C11.1065 1.89643 9.62919 2.05672 8.24503 2.53362C6.86087 3.01053 5.60669 3.79138 4.57866 4.81629C3.55299 5.83348 2.77736 7.06587 2.31057 8.42005C1.84378 9.77423 1.69809 11.2146 1.88452 12.6321C2.18866 14.8782 3.31009 16.9416 5.04303 18.4437C6.77598 19.9458 9.00421 20.7858 11.3189 20.8097C13.4924 20.8454 15.612 20.146 17.3199 18.8296L20.3155 21.7522C20.3957 21.8313 20.4912 21.8939 20.5964 21.9364C20.7016 21.9789 20.8145 22.0004 20.9283 21.9997C21.0448 22.0028 21.1606 21.9815 21.2679 21.9371C21.3753 21.8928 21.4717 21.8265 21.5508 21.7427C21.7141 21.5821 21.8058 21.3647 21.8058 21.1382C21.8058 20.9116 21.7141 20.6942 21.5508 20.5336ZM16.9795 16.8399C16.2541 17.5567 15.3905 18.1252 14.4388 18.5125C13.4871 18.8998 12.4663 19.0982 11.4356 19.0961C10.9135 19.0954 10.3926 19.0476 9.8794 18.9533C8.35015 18.6663 6.94407 17.9367 5.84301 16.859C4.74196 15.7813 3.99659 14.405 3.70331 12.9082C3.44345 11.6655 3.50484 10.3789 3.88191 9.16525C4.25898 7.95162 4.93978 6.84941 5.86251 5.95868C6.58786 5.24195 7.45146 4.67341 8.40316 4.2861C9.35487 3.89878 10.3757 3.70039 11.4064 3.70246C11.9285 3.70323 12.4494 3.75104 12.9626 3.84526C14.4918 4.13233 15.8979 4.86189 16.999 5.9396C18.1 7.0173 18.8454 8.39357 19.1387 9.89039C19.3985 11.1331 19.3371 12.4197 18.9601 13.6334C18.583 14.847 17.9022 15.9492 16.9795 16.8399Z"/>
</g>
</svg>
