<svg width="14" height="8" viewBox="0 0 14 8" fill="none" xmlns="http://www.w3.org/2000/svg">
<path d="M7.13033 5.90428L1.74531 0.464732L1.66923 0.396402C1.52189 0.289266 1.34179 0.238226 1.16079 0.252291C0.979779 0.266355 0.80954 0.344589 0.680158 0.473227C0.538194 0.617259 0.458496 0.812237 0.458496 1.01548C0.458496 1.21873 0.538194 1.41371 0.680158 1.55774L6.59775 7.53527L6.67383 7.6036C6.82116 7.71073 7.00126 7.76177 7.18227 7.74771C7.36327 7.73364 7.53351 7.65536 7.66289 7.52672L13.5805 1.54919L13.6481 1.47237C13.7406 1.33986 13.7908 1.1819 13.7918 1.01976C13.7922 0.916562 13.7722 0.814323 13.733 0.719024C13.6938 0.623725 13.6362 0.537306 13.5636 0.464731L13.4875 0.396402C13.3402 0.289265 13.1601 0.238226 12.9791 0.25229C12.7981 0.266355 12.6278 0.344588 12.4984 0.473226L7.13033 5.90428Z" fill="#2F3A51"/>
</svg>
