<svg width="40" height="40" viewBox="0 0 40 40" fill="none" xmlns="http://www.w3.org/2000/svg">
<path d="M32.1379 12.9945H4.41658C3.93839 12.9945 3.55029 13.3826 3.55029 13.8608V35.518C3.55029 36.4753 4.32562 37.2506 5.28287 37.2506H31.2716C32.2288 37.2506 33.0042 36.4753 33.0042 35.518V13.8608C33.0042 13.3826 32.6161 12.9945 32.1379 12.9945Z" fill="#D5DCE1"/>
<path d="M29.3629 0.479058C29.2156 0.185386 28.9159 0 28.5876 0H7.79661C7.46829 0 7.16855 0.185386 7.02128 0.479058C7.02128 0.479058 0 11.1275 0 11.2618C0 15.4503 2.611 17.3258 5.19774 17.3258C7.02561 17.3258 8.60572 16.4275 9.52919 15.0388C10.4527 16.4275 12.0328 17.3258 13.8606 17.3258C15.6885 17.3258 17.2686 16.4275 18.1921 15.0388C19.1156 16.4275 20.6957 17.3258 22.5235 17.3258C24.3514 17.3258 25.9315 16.4275 26.855 15.0388C27.7785 16.4275 29.3586 17.3258 31.1864 17.3258C33.7732 17.3258 36.3842 15.4503 36.3842 11.2618C36.3842 11.1275 29.3629 0.479058 29.3629 0.479058Z" fill="#1265E5"/>
<path d="M5.19774 17.3257C7.02561 17.3257 8.60572 16.4274 9.52919 15.0387C10.4527 16.4274 12.0328 17.3257 13.8606 17.3257C15.6885 17.3257 17.2686 16.4274 18.1921 15.0387C19.1156 16.4274 20.6957 17.3257 22.5235 17.3257C24.3514 17.3257 25.9315 16.4274 26.855 15.0387C27.7785 16.4274 29.3586 17.3257 31.1864 17.3257C33.7732 17.3257 36.3842 15.4502 36.3842 11.2617H0C0 15.4502 2.611 17.3257 5.19774 17.3257Z" fill="#003D99"/>
<path d="M20.876 28.5874H15.6783C15.2001 28.5874 14.812 28.9755 14.812 29.4537V37.2503H21.7423V29.4537C21.7423 28.9755 21.3542 28.5874 20.876 28.5874Z" fill="white"/>
<path d="M20.876 25.9891H15.6783C15.2001 25.9891 14.812 25.601 14.812 25.1228V21.6577C14.812 21.1795 15.2001 20.7914 15.6783 20.7914H20.876C21.3542 20.7914 21.7423 21.1795 21.7423 21.6577V25.1228C21.7423 25.601 21.3542 25.9891 20.876 25.9891Z" fill="white"/>
<path d="M32.1379 19.9242C27.8316 19.9242 24.3413 23.4145 24.3413 27.7208C24.3413 32.3719 30.2451 38.3744 31.7775 39.8541C31.9794 40.049 32.2956 40.049 32.4974 39.8541C34.0308 38.3744 39.9345 32.3719 39.9345 27.7208C39.9345 23.4145 36.4442 19.9242 32.1379 19.9242Z" fill="#1265E5"/>
<path d="M32.1379 30.3203C33.5732 30.3203 34.7368 29.1567 34.7368 27.7214C34.7368 26.2861 33.5732 25.1226 32.1379 25.1226C30.7026 25.1226 29.5391 26.2861 29.5391 27.7214C29.5391 29.1567 30.7026 30.3203 32.1379 30.3203Z" fill="white"/>
<path fill-rule="evenodd" clip-rule="evenodd" d="M39.0805 27.6161C39.0805 31.3908 35.9736 34.4496 32.1393 34.4496C28.314 34.4496 25.207 31.3908 25.207 27.6161C25.207 23.8413 28.314 20.7914 32.1393 20.7914C35.9826 20.7826 39.0805 23.8413 39.0805 27.6161Z" fill="#1265E5"/>
<path d="M32.1379 30.3223C33.5732 30.3223 34.7368 29.1587 34.7368 27.7234C34.7368 26.2881 33.5732 25.1245 32.1379 25.1245C30.7026 25.1245 29.5391 26.2881 29.5391 27.7234C29.5391 29.1587 30.7026 30.3223 32.1379 30.3223Z" fill="white"/>
</svg>
