<svg width="32" height="32" viewBox="0 0 32 32" fill="none" xmlns="http://www.w3.org/2000/svg">
<path d="M22.6141 2.13933C22.5096 1.92845 22.2968 1.79533 22.0637 1.79533H7.30331C7.07022 1.79533 6.85742 1.92845 6.75287 2.13933C6.75287 2.13933 1.76817 9.78579 1.76817 9.88221C1.76817 12.2079 2.8765 13.5405 4.22818 14.0253V27.3002C4.22818 27.9876 4.77862 28.5443 5.45821 28.5443H22.2376C23.2073 29.4805 24.0877 30.0819 24.4437 30.1615C25.4092 29.9447 30.2318 25.8908 30.2318 21.7307C30.2318 18.7014 28.0039 16.1944 25.1387 15.8414V14.0253C26.4904 13.5406 27.5988 12.208 27.5988 9.88221C27.5988 9.78579 22.6141 2.13933 22.6141 2.13933Z" fill="white"/>
<path fill-rule="evenodd" clip-rule="evenodd" d="M8.22184 3.1266C8.22182 3.12662 8.22186 3.12657 8.22184 3.1266V3.1266ZM7.92743 3.59066L7.44938 4.32509C6.98242 5.04291 6.36001 6.00069 5.73777 6.96122C5.11511 7.92239 4.49427 8.88376 4.02979 9.60974C3.84188 9.90345 3.6816 10.1554 3.55794 10.352C3.61621 10.959 3.78451 11.3751 3.96588 11.6534C4.18947 11.9965 4.48585 12.2137 4.81706 12.3324L5.99635 12.7554V26.749H22.9441L23.456 27.2432C23.8211 27.5957 24.1613 27.8843 24.4434 28.0985C24.5094 28.0484 24.5796 27.9934 24.6537 27.9335C25.1576 27.5259 25.7713 26.946 26.3612 26.2519C27.5956 24.7996 28.4637 23.1604 28.4637 21.7307C28.4637 19.6081 26.902 17.8671 24.9257 17.6236L23.3705 17.432V12.7554L24.5499 12.3325C24.8811 12.2137 25.1775 11.9965 25.4011 11.6534C25.5825 11.3751 25.7508 10.959 25.809 10.352C25.6854 10.1554 25.5251 9.90345 25.3372 9.60974C24.8727 8.88376 24.2519 7.92239 23.6292 6.96122C23.007 6.00069 22.3846 5.04291 21.9176 4.32509L21.4396 3.59066H7.92743ZM21.1452 3.12667C21.1452 3.12665 21.1452 3.1267 21.1452 3.12667V3.12667ZM24.1277 1.20847L24.8684 2.34611C25.336 3.06501 25.9598 4.02487 26.5837 4.98801C27.2072 5.9505 27.8326 6.91882 28.3027 7.65367C28.5372 8.02023 28.7363 8.33359 28.878 8.56058C28.9479 8.67254 29.0095 8.77245 29.0559 8.85035C29.0776 8.88687 29.1054 8.93425 29.1314 8.98186C29.1428 9.00269 29.1671 9.04788 29.1931 9.10359C29.2052 9.12937 29.231 9.18586 29.2575 9.25916C29.2614 9.26902 29.367 9.53576 29.367 9.88221C29.367 11.9602 28.6451 13.5953 27.4874 14.658C30.1489 15.8593 32 18.583 32 21.7307C32 24.4611 30.4568 26.929 29.0385 28.5978C28.3021 29.4643 27.5291 30.1984 26.8572 30.7419C26.5219 31.0132 26.1946 31.2508 25.8943 31.4378C25.6451 31.5931 25.2522 31.8186 24.8255 31.9144L24.4445 32L24.0634 31.9148C23.726 31.8393 23.4283 31.6886 23.2355 31.5813C23.0128 31.4574 22.7805 31.3057 22.5491 31.1394C22.2403 30.9174 21.9034 30.6479 21.5542 30.3396H5.45821C3.8085 30.3396 2.46001 28.9856 2.46001 27.3002V15.1184C0.968048 14.1011 0 12.2886 0 9.88221C0 9.53585 0.105411 9.26944 0.109363 9.25945C0.135901 9.18615 0.161825 9.12937 0.173854 9.10359C0.199845 9.04788 0.224228 9.00269 0.235587 8.98186C0.261549 8.93425 0.289363 8.88687 0.311117 8.85035C0.357511 8.77245 0.419077 8.67254 0.488977 8.56058C0.630696 8.33359 0.829739 8.02023 1.06426 7.65367C1.53442 6.91882 2.15975 5.9505 2.78327 4.98801C3.4072 4.02487 4.03097 3.06501 4.49863 2.34611L5.23929 1.20847C5.66379 0.462977 6.44943 0 7.30331 0H22.0637C22.9176 0 23.7032 0.462979 24.1277 1.20847Z" fill="white"/>
<path d="M24.5238 11.1265H4.84329C4.5038 11.1265 4.22827 11.4052 4.22827 11.7485V27.3002C4.22827 27.9876 4.77871 28.5444 5.4583 28.5444H23.9088C24.5884 28.5444 25.1388 27.9876 25.1388 27.3002V11.7485C25.1388 11.4052 24.8633 11.1265 24.5238 11.1265Z" fill="#DDE2ED"/>
<path d="M22.6143 2.13917C22.5097 1.92829 22.2969 1.79517 22.0638 1.79517H7.30345C7.07036 1.79517 6.85756 1.92829 6.75301 2.13917C6.75301 2.13917 1.76831 9.78562 1.76831 9.88204C1.76831 12.8897 3.62197 14.2365 5.4584 14.2365C6.75609 14.2365 7.87787 13.5914 8.53348 12.5943C9.18909 13.5914 10.3109 14.2365 11.6086 14.2365C12.9062 14.2365 14.028 13.5914 14.6836 12.5943C15.3392 13.5914 16.461 14.2365 17.7587 14.2365C19.0564 14.2365 20.1782 13.5914 20.8338 12.5943C21.4894 13.5914 22.6112 14.2365 23.9089 14.2365C25.7453 14.2365 27.599 12.8897 27.599 9.88204C27.599 9.78562 22.6143 2.13917 22.6143 2.13917Z" fill="#01B258"/>
<path d="M5.4584 14.2367C6.75609 14.2367 7.87787 13.5916 8.53348 12.5944C9.18909 13.5916 10.3109 14.2367 11.6086 14.2367C12.9062 14.2367 14.028 13.5916 14.6836 12.5944C15.3392 13.5916 16.461 14.2367 17.7587 14.2367C19.0564 14.2367 20.1782 13.5916 20.8338 12.5944C21.4894 13.5916 22.6112 14.2367 23.9089 14.2367C25.7453 14.2367 27.599 12.8899 27.599 9.88223H1.76831C1.76831 12.8899 3.62197 14.2367 5.4584 14.2367Z" fill="#17A15B"/>
<path d="M16.5287 22.3237H12.8386C12.4992 22.3237 12.2236 22.6024 12.2236 22.9458V28.5444H17.1438V22.9458C17.1438 22.6024 16.8682 22.3237 16.5287 22.3237Z" fill="white"/>
<path d="M16.5287 20.4575H12.8386C12.4992 20.4575 12.2236 20.1788 12.2236 19.8354V17.3472C12.2236 17.0038 12.4992 16.7251 12.8386 16.7251H16.5287C16.8682 16.7251 17.1438 17.0038 17.1438 17.3472V19.8354C17.1438 20.1788 16.8682 20.4575 16.5287 20.4575Z" fill="white"/>
<path fill-rule="evenodd" clip-rule="evenodd" d="M24.4437 15.7988C21.252 15.7988 18.6555 18.4605 18.6555 21.7307C18.6555 25.8917 23.4781 29.9455 24.4437 30.1615C25.4092 29.9447 30.2318 25.8908 30.2318 21.7307C30.2318 18.4605 27.6353 15.7988 24.4437 15.7988ZM24.4437 20.3716C23.7752 20.3716 23.2314 20.9238 23.2314 21.6032C23.2314 22.282 23.7752 22.8334 24.4437 22.8334C25.1122 22.8334 25.6559 22.282 25.6559 21.6032C25.6559 20.9238 25.1122 20.3716 24.4437 20.3716Z" fill="#17A15B"/>
<path fill-rule="evenodd" clip-rule="evenodd" d="M29.4161 21.7108C29.4161 24.5015 27.189 26.7629 24.4404 26.7629C21.6983 26.7629 19.4712 24.5015 19.4712 21.7108C19.4712 18.92 21.6983 16.6652 24.4404 16.6652C27.1954 16.6587 29.4161 18.92 29.4161 21.7108Z" fill="#17A15B"/>
<path fill-rule="evenodd" clip-rule="evenodd" d="M27.7616 20.5866H26.6609V19.4625H25.5538V18.3383H23.3395V19.4625H22.2324V20.5866H21.1252V22.8349H22.2324V23.9591H23.3395V25.0832H25.5538V23.9591H26.6609V22.8349H27.7616V20.5866Z" fill="#F9DB74"/>
<path fill-rule="evenodd" clip-rule="evenodd" d="M27.2147 21.1487H26.1075V20.0246H25.0004V18.9005H23.8932V20.0246H22.7861V21.1487H21.679V22.2729H22.7861V23.397H23.8932V24.5146H25.0004V23.397H26.1075V22.2729H27.2147V21.1487Z" fill="white"/>
<path fill-rule="evenodd" clip-rule="evenodd" d="M26.1073 21.1488H25.0002V20.0246H23.893V21.1488H22.7859V22.2729H23.893V23.3971H25.0002V22.2729H26.1073V21.1488Z" fill="#CD0B0F"/>
</svg>
