<svg width="24" height="25" viewBox="0 0 24 25" fill="none" xmlns="http://www.w3.org/2000/svg">
<path fill-rule="evenodd" clip-rule="evenodd" d="M20.2607 14.3229V18.0521C20.2607 20.1094 18.593 21.7771 16.5357 21.7771H7.41415C5.35689 21.7771 3.68915 20.1094 3.68915 18.0521V14.2857C3.57552 14.2004 3.4665 14.1084 3.36273 14.0099C2.65556 13.3386 2.25049 12.4196 2.25049 11.4526V10.0288C2.25049 9.99152 2.25321 9.95486 2.25847 9.91902C2.25184 9.83217 2.26086 9.74265 2.28757 9.65426L3.26684 6.41361C3.74188 4.84158 5.19036 3.76611 6.83259 3.76611H17.0716C18.6842 3.76611 20.1136 4.80373 20.6133 6.33694L21.6895 9.63934C21.7107 9.70463 21.7222 9.77075 21.7248 9.83613C21.7411 9.89762 21.7498 9.96221 21.7498 10.0288V11.4526C21.7498 12.4196 21.3447 13.3386 20.6376 14.0099C20.5185 14.1228 20.3926 14.2273 20.2607 14.3229ZM4.65485 6.83304C4.94497 5.87294 5.82962 5.21611 6.83259 5.21611H17.0716C18.0565 5.21611 18.9295 5.84982 19.2346 6.78622L20.2576 9.92525C20.2529 9.9591 20.2505 9.99368 20.2505 10.0288V11.4526C20.2505 11.996 20.0234 12.5256 19.6054 12.9224C19.186 13.3205 18.6092 13.5505 18.0001 13.5505C17.3911 13.5505 16.8143 13.3205 16.3949 12.9224C15.9769 12.5256 15.7498 11.996 15.7498 11.4526V10.978C15.7498 10.978 15.7498 10.978 15.7498 10.978C15.7498 10.9237 15.744 10.8707 15.7331 10.8197C15.6604 10.4817 15.3599 10.2283 15.0001 10.2283C14.6379 10.2283 14.3356 10.4853 14.2657 10.8269C14.2557 10.8757 14.2505 10.9262 14.2505 10.978C14.2505 10.978 14.2505 10.978 14.2505 10.978V11.4526C14.2505 11.996 14.0234 12.5256 13.6054 12.9224C13.186 13.3205 12.6092 13.5505 12.0001 13.5505C11.3911 13.5505 10.8143 13.3205 10.3949 12.9224C9.97686 12.5256 9.74979 11.996 9.74979 11.4526V10.978C9.74979 10.564 9.41416 10.2283 9.00014 10.2283C8.61417 10.2283 8.29633 10.52 8.25503 10.895C8.25238 10.9191 8.25086 10.9436 8.25055 10.9683L8.25049 10.978V11.4526C8.25049 11.996 8.02342 12.5256 7.60537 12.9224C7.18599 13.3205 6.60922 13.5505 6.00014 13.5505C5.39106 13.5505 4.81429 13.3205 4.39491 12.9224C3.97686 12.5256 3.74979 11.996 3.74979 11.4526V10.0288C3.74979 9.97724 3.74458 9.92686 3.73466 9.8782L4.65485 6.83304ZM15.0001 13.6109C14.8902 13.7516 14.7691 13.885 14.6376 14.0098C13.9317 14.6798 12.9824 15.0498 12.0001 15.0498C11.0179 15.0498 10.0686 14.6798 9.36273 14.0098C9.2312 13.885 9.11012 13.7516 9.00016 13.6109C8.89018 13.7516 8.76909 13.885 8.63755 14.0099C7.93172 14.6798 6.98236 15.0498 6.00014 15.0498C5.7084 15.0498 5.41957 15.0172 5.13915 14.9538V18.0521C5.13915 19.3086 6.1577 20.3271 7.41415 20.3271H16.5357C17.7922 20.3271 18.8107 19.3086 18.8107 18.0521V14.9648C18.5462 15.021 18.2744 15.0498 18.0001 15.0498C17.0179 15.0498 16.0686 14.6798 15.3627 14.0099C15.2312 13.885 15.1101 13.7516 15.0001 13.6109Z" fill="#1D2B36"/>
</svg>
