<svg width="24" height="25" viewBox="0 0 24 25" fill="none" xmlns="http://www.w3.org/2000/svg">
<path fill-rule="evenodd" clip-rule="evenodd" d="M12 2.19922C17.514 2.19922 22 6.68522 22 12.1992C22 17.7132 17.514 22.1992 12 22.1992C6.486 22.1992 2 17.7132 2 12.1992C2 6.68522 6.486 2.19922 12 2.19922ZM12 3.69922C7.313 3.69922 3.5 7.51222 3.5 12.1992C3.5 16.8862 7.313 20.6992 12 20.6992C16.687 20.6992 20.5 16.8862 20.5 12.1992C20.5 7.51222 16.687 3.69922 12 3.69922ZM11.6612 7.29462C12.0762 7.29462 12.4112 7.63062 12.4112 8.04462V12.4666L15.8162 14.4966C16.1712 14.7096 16.2882 15.1696 16.0762 15.5256C15.9352 15.7606 15.6862 15.8916 15.4312 15.8916C15.3002 15.8916 15.1682 15.8576 15.0472 15.7866L11.2772 13.5376C11.0512 13.4016 10.9112 13.1566 10.9112 12.8926V8.04462C10.9112 7.63062 11.2472 7.29462 11.6612 7.29462Z" fill="#1D2B36"/>
</svg>
