<svg width="24" height="24" viewBox="0 0 24 24" fill="none" xmlns="http://www.w3.org/2000/svg">
<g id="bold=off">
<path fill="currentColor" id="vector" fill-rule="evenodd" clip-rule="evenodd" d="M12.9511 2.20761C14.8545 2.52852 16.4558 3.79491 17.1643 5.5128H17.2258C17.7068 5.5128 18.0968 5.89163 18.0968 6.35895C18.0968 6.71719 17.8676 7.02343 17.544 7.14688L17.7618 10.0256H17.8065C18.2875 10.0256 18.6774 10.4045 18.6774 10.8718C18.6774 11.3118 18.3316 11.6734 17.8896 11.7141L18.6157 21.3077H20.129C20.6101 21.3077 21 21.6865 21 22.1538C21 22.6212 20.6101 23 20.129 23H3.87097C3.38995 23 3 22.6212 3 22.1538C3 21.6865 3.38995 21.3077 3.87097 21.3077H5.38427L6.11037 11.7141C5.66836 11.6734 5.32258 11.3118 5.32258 10.8718C5.32258 10.4045 5.71253 10.0256 6.19355 10.0256H6.23816L6.45604 7.14688C6.13238 7.02343 5.90323 6.71719 5.90323 6.35895C5.90323 5.89163 6.29317 5.5128 6.77419 5.5128H6.83569C7.564 3.74692 9.23563 2.45813 11.2091 2.18294L11.2091 1.84615C11.2091 1.37883 11.5991 0.999996 12.0801 1C12.5611 1 12.9511 1.37884 12.9511 1.84616L12.9511 2.20761ZM8.1983 7.20511C8.19795 7.2095 8.19761 7.21388 8.19727 7.21828L7.9848 10.0256H16.0152L15.8027 7.21828C15.8024 7.21388 15.8021 7.2095 15.8017 7.20511H8.1983ZM15.2095 5.5128H8.79048C9.47339 4.49323 10.6659 3.82049 12 3.82049C13.3341 3.82049 14.5266 4.49323 15.2095 5.5128ZM16.2348 12.9272L8.4257 21.3077H16.8691L16.2348 12.9272ZM7.22417 20.0755L15.0119 11.7179H7.85672L7.22417 20.0755Z"/>
</g>
</svg>
