<svg width="40" height="40" viewBox="0 0 40 40" fill="none" xmlns="http://www.w3.org/2000/svg">
<path d="M39.5875 23.1902L36.9141 21.8539L35.5078 16.2272C35.4251 15.8957 35.1272 15.6633 34.7853 15.6633H27.3366C26.9254 15.6633 26.5917 15.997 26.5917 16.4082V28.3261H5.73535V29.071C5.73535 29.8941 6.40201 30.5607 7.22509 30.5607H39.2545C39.6657 30.5607 39.9994 30.227 39.9994 29.8159V23.8569C39.9994 23.5746 39.84 23.3169 39.5875 23.1902Z" fill="#D5DCE1"/>
<path d="M35.4329 22.3666L34.1294 17.1525H29.4971V22.3666H35.4329Z" fill="white"/>
<path d="M5.73535 11.1943V28.3263H28.0815V11.1943C28.0815 10.3712 27.4148 9.70459 26.5917 9.70459H7.22509C6.40201 9.70459 5.73535 10.3712 5.73535 11.1943Z" fill="#008AF8"/>
<path d="M30.4057 35.7745C27.941 35.7745 25.9365 33.7701 25.9365 31.3053C25.9365 28.8405 27.941 26.8361 30.4057 26.8361C32.8705 26.8361 34.875 28.8405 34.875 31.3053C34.875 33.7701 32.8705 35.7745 30.4057 35.7745Z" fill="#1D2B36"/>
<path d="M30.406 33.5394C29.174 33.5394 28.1714 32.5368 28.1714 31.3048C28.1714 30.0728 29.174 29.0702 30.406 29.0702C31.638 29.0702 32.6406 30.0728 32.6406 31.3048C32.6406 32.5368 31.638 33.5394 30.406 33.5394Z" fill="white"/>
<path d="M12.6631 35.7745C10.1983 35.7745 8.19385 33.7701 8.19385 31.3053C8.19385 28.8405 10.1983 26.8361 12.6631 26.8361C15.1278 26.8361 17.1323 28.8405 17.1323 31.3053C17.1323 33.7701 15.1278 35.7745 12.6631 35.7745Z" fill="#1D2B36"/>
<path d="M12.6633 33.5394C11.4313 33.5394 10.4287 32.5368 10.4287 31.3048C10.4287 30.0728 11.4313 29.0702 12.6633 29.0702C13.8953 29.0702 14.8979 30.0728 14.8979 31.3048C14.8979 32.5368 13.8953 33.5394 12.6633 33.5394Z" fill="white"/>
<path d="M8.26804 18.6431C12.3818 18.6431 15.7167 15.3082 15.7167 11.1944C15.7167 7.08062 12.3818 3.74573 8.26804 3.74573C4.15423 3.74573 0.819336 7.08062 0.819336 11.1944C0.819336 15.3082 4.15423 18.6431 8.26804 18.6431Z" fill="white"/>
<path d="M8.19357 19.3871C3.67593 19.3871 0 15.7112 0 11.1936C0 6.67593 3.67593 3 8.19357 3C12.7112 3 16.3871 6.67593 16.3871 11.1936C16.3871 15.7112 12.7112 19.3871 8.19357 19.3871ZM8.19357 4.48974C4.49678 4.48974 1.48974 7.49678 1.48974 11.1936C1.48974 14.8904 4.49678 17.8974 8.19357 17.8974C11.8904 17.8974 14.8974 14.8904 14.8974 11.1936C14.8974 7.49678 11.8904 4.48974 8.19357 4.48974Z" fill="#D5DCE1"/>
<path d="M11.0989 11.9381H8.11938C7.70747 11.9381 7.37451 11.6051 7.37451 11.1932V8.21374C7.37451 7.80183 7.70747 7.46887 8.11938 7.46887C8.53129 7.46887 8.86425 7.80183 8.86425 8.21374V10.4484H11.0989C11.5108 10.4484 11.8437 10.7813 11.8437 11.1932C11.8437 11.6051 11.5108 11.9381 11.0989 11.9381Z" fill="#008AF8"/>
<path d="M40 29.0705H39.2551C38.844 29.0705 38.5103 28.7368 38.5103 28.3257V26.8359C38.5103 26.4248 38.844 26.0911 39.2551 26.0911H40V29.0705Z" fill="#FFEA8A"/>
</svg>
