<svg width="16" height="16" viewBox="0 0 16 16" fill="none" xmlns="http://www.w3.org/2000/svg">
<path fill-rule="evenodd" clip-rule="evenodd" d="M4.91216 5.68033C5.18816 5.68033 5.41216 5.90433 5.41216 6.18033C5.41216 6.45633 5.18816 6.68033 4.91216 6.68033H4.29016C3.21083 6.68033 2.3335 7.55766 2.3335 8.63633V11.8863C2.3335 12.9657 3.21083 13.843 4.29016 13.843H11.7102C12.7888 13.843 13.6668 12.9657 13.6668 11.8863V8.63033C13.6668 7.55499 12.7922 6.68033 11.7175 6.68033H11.0888C10.8128 6.68033 10.5888 6.45633 10.5888 6.18033C10.5888 5.90433 10.8128 5.68033 11.0888 5.68033H11.7175C13.3435 5.68033 14.6668 7.00366 14.6668 8.63033V11.8863C14.6668 13.517 13.3402 14.843 11.7102 14.843H4.29016C2.66016 14.843 1.3335 13.517 1.3335 11.8863V8.63633C1.3335 7.00633 2.66016 5.68033 4.29016 5.68033H4.91216ZM8.3539 1.29873L10.2979 3.25073C10.4926 3.44673 10.4919 3.76273 10.2966 3.95739C10.1006 4.15206 9.78456 4.15206 9.5899 3.95606L8.4995 2.86189L8.4999 10.1783H7.4999L7.4995 2.86189L6.41056 3.95606C6.31323 4.05473 6.18456 4.10339 6.05656 4.10339C5.92923 4.10339 5.80123 4.05473 5.7039 3.95739C5.50856 3.76273 5.50723 3.44673 5.70256 3.25073L7.6459 1.29873C7.83323 1.11006 8.16656 1.11006 8.3539 1.29873Z" fill="white"/>
</svg>
