<svg width="16" height="16" viewBox="0 0 16 16" fill="none" xmlns="http://www.w3.org/2000/svg">
<path fill-rule="evenodd" clip-rule="evenodd" d="M4.91204 5.68022C5.18804 5.68022 5.41204 5.90422 5.41204 6.18022C5.41204 6.45622 5.18804 6.68022 4.91204 6.68022H4.29004C3.21071 6.68022 2.33337 7.55755 2.33337 8.63622V11.8862C2.33337 12.9656 3.21071 13.8429 4.29004 13.8429H11.71C12.7887 13.8429 13.6667 12.9656 13.6667 11.8862V8.63022C13.6667 7.55489 12.792 6.68022 11.7174 6.68022H11.0887C10.8127 6.68022 10.5887 6.45622 10.5887 6.18022C10.5887 5.90422 10.8127 5.68022 11.0887 5.68022H11.7174C13.3434 5.68022 14.6667 7.00355 14.6667 8.63022V11.8862C14.6667 13.5169 13.34 14.8429 11.71 14.8429H4.29004C2.66004 14.8429 1.33337 13.5169 1.33337 11.8862V8.63622C1.33337 7.00622 2.66004 5.68022 4.29004 5.68022H4.91204ZM8.35377 1.29862L10.2978 3.25062C10.4924 3.44662 10.4918 3.76262 10.2964 3.95729C10.1004 4.15195 9.78444 4.15195 9.58978 3.95595L8.49937 2.86179L8.49977 10.1782H7.49977L7.49937 2.86179L6.41044 3.95595C6.31311 4.05462 6.18444 4.10329 6.05644 4.10329C5.92911 4.10329 5.80111 4.05462 5.70377 3.95729C5.50844 3.76262 5.50711 3.44662 5.70244 3.25062L7.64577 1.29862C7.83311 1.10995 8.16644 1.10995 8.35377 1.29862Z" fill="white"/>
</svg>
