<svg width="24" height="25" viewBox="0 0 24 25" fill="none" xmlns="http://www.w3.org/2000/svg">
<path fill-rule="evenodd" clip-rule="evenodd" d="M16.84 18.9932C16.84 22.2892 12.32 22.6702 8.921 22.6702L8.67776 22.67C6.51221 22.6647 1 22.528 1 18.9732C1 15.7445 5.33835 15.313 8.71148 15.2967L9.16423 15.2964C11.3296 15.3017 16.84 15.4384 16.84 18.9932ZM8.921 16.7962C4.66 16.7962 2.5 17.5282 2.5 18.9732C2.5 20.4312 4.66 21.1702 8.921 21.1702C13.181 21.1702 15.34 20.4382 15.34 18.9932C15.34 17.5352 13.181 16.7962 8.921 16.7962ZM8.921 2.7998C11.849 2.7998 14.23 5.1818 14.23 8.1098C14.23 11.0378 11.849 13.4188 8.921 13.4188H8.889C5.967 13.4098 3.6 11.0268 3.60997 8.1068C3.60997 5.1818 5.992 2.7998 8.921 2.7998ZM8.921 4.2278C6.78 4.2278 5.03798 5.9688 5.03798 8.1098C5.031 10.2438 6.76 11.9838 8.892 11.9918L8.921 12.7058V11.9918C11.061 11.9918 12.802 10.2498 12.802 8.1098C12.802 5.9688 11.061 4.2278 8.921 4.2278Z" fill="#1D2B36"/>
<path d="M18.1117 10.7561C19.2767 8.98365 19.2491 6.71188 18.0426 4.96885C17.8124 4.63214 17.3403 4.54296 16.9994 4.77893C16.6586 5.01491 16.5735 5.48122 16.8095 5.82211C17.6664 7.06012 17.6854 8.67362 16.8574 9.93366C16.6573 10.2387 16.708 10.6348 16.9598 10.8807C16.9941 10.9143 17.032 10.9442 17.0733 10.972C17.419 11.1992 17.8832 11.1032 18.1117 10.7561Z" fill="#1D2B36"/>
<path d="M20.6164 13.2711C23.1381 10.035 23.0824 5.5594 20.4814 2.386C20.2201 2.05814 19.7459 2.01849 19.4265 2.28108C19.1057 2.54369 19.0597 3.01591 19.3216 3.33598C21.4755 5.96378 21.5207 9.67016 19.433 12.3502C19.1962 12.6542 19.2303 13.0831 19.5 13.3465C19.52 13.3661 19.5422 13.3849 19.5643 13.4023C19.8905 13.6566 20.3614 13.598 20.6164 13.2711Z" fill="#1D2B36"/>
</svg>
