<svg width="20" height="20" viewBox="0 0 20 20" fill="none" xmlns="http://www.w3.org/2000/svg">
<path fill-rule="evenodd" clip-rule="evenodd" d="M16.6663 15.2491C16.6663 18.0137 12.8616 18.3333 10.0005 18.3333L9.79577 18.3331C7.97291 18.3287 3.33301 18.214 3.33301 15.2324C3.33301 12.5242 6.98482 12.1623 9.82416 12.1486L10.2053 12.1484C12.028 12.1528 16.6663 12.2675 16.6663 15.2491ZM10.0005 13.4064C6.41382 13.4064 4.59563 14.0203 4.59563 15.2324C4.59563 16.4553 6.41382 17.0751 10.0005 17.0751C13.5864 17.0751 15.4037 16.4612 15.4037 15.2491C15.4037 14.0262 13.5864 13.4064 10.0005 13.4064ZM10.0005 1.66663C12.4652 1.66663 14.4694 3.66457 14.4694 6.12049C14.4694 8.5764 12.4652 10.5735 10.0005 10.5735H9.97358C7.51398 10.566 5.52156 8.56717 5.52995 6.11797C5.52995 3.66457 7.53503 1.66663 10.0005 1.66663ZM10.0005 2.86439C8.19833 2.86439 6.73198 4.32468 6.73198 6.12049C6.72611 7.91042 8.18149 9.36988 9.97611 9.37659L10.0005 9.97547V9.37659C11.8019 9.37659 13.2674 7.91545 13.2674 6.12049C13.2674 4.32468 11.8019 2.86439 10.0005 2.86439Z" fill="#304165"/>
</svg>
