<svg width="48" height="28" viewBox="0 0 48 28" fill="none" xmlns="http://www.w3.org/2000/svg">
<rect x="5" width="38" height="24" rx="2" fill="#4FAD5F"/>
<path d="M19.6222 5.59985C19.192 5.59985 18.7794 5.77436 18.4752 6.08498C18.1711 6.39561 18.0002 6.81691 18.0002 7.2562V17.9199H28.4427C28.8728 17.9199 29.2854 17.7454 29.5896 17.4348C29.8937 17.1241 30.0646 16.7028 30.0646 16.2636V5.59985H19.6222ZM27.2731 14.5288L20.7917 15.7099V9.01931L27.2731 7.84106V14.5288Z" fill="#233E98"/>
<rect x="23" y="19" width="20" height="9" rx="4.5" fill="#F9FAFB"/>
<path d="M31.0233 25.4149H32.177L32.8995 21.0745H31.745L31.0233 25.4149Z" fill="#1A1876"/>
<path d="M35.2275 22.8181C34.8238 22.6173 34.5768 22.4833 34.5794 22.2802C34.5794 22.0998 34.7885 21.9068 35.2406 21.9068C35.6104 21.9009 35.9084 21.9781 36.2082 22.1234L36.3649 21.1826C36.1357 21.0945 35.7773 21 35.3299 21C34.1892 21 33.3855 21.5887 33.379 22.4325C33.3724 23.056 33.9528 23.4039 34.3907 23.6115C34.8399 23.8243 34.9911 23.9598 34.9889 24.1498C34.986 24.4407 34.63 24.5736 34.2981 24.5736C33.7859 24.5736 33.5276 24.4925 33.0628 24.2768L32.9006 25.2485C33.1702 25.3695 33.669 25.4748 34.1867 25.48C35.4002 25.48 36.1878 24.898 36.197 23.9971C36.201 23.5036 35.8935 23.1276 35.2275 22.8181Z" fill="#1A1876"/>
<path d="M39.3239 21.0796H38.4317C38.1552 21.0796 37.9486 21.1569 37.8273 21.4395L36.1129 25.417H37.3249C37.3249 25.417 37.5231 24.882 37.5679 24.7648C37.7005 24.7648 38.878 24.7666 39.0463 24.7666C39.0809 24.9186 39.1869 25.417 39.1869 25.417H40.258L39.3239 21.0796ZM37.9002 23.877C37.9479 23.7519 38.4193 22.5121 38.5133 22.2496C38.6692 22.9978 38.5173 22.272 38.8587 23.877H37.9002Z" fill="#1A1876"/>
<path d="M30.0548 21.0777L28.9247 24.0375L28.8041 23.4361L28.3994 21.4417C28.3294 21.167 28.1269 21.0848 27.8762 21.0755H26.0146L26 21.1658C26.4528 21.2782 26.8576 21.4402 27.2124 21.6418L28.2387 25.4114L29.4603 25.4099L31.2778 21.0781H30.0548V21.0777Z" fill="#1A1876"/>
</svg>
