<svg width="48" height="28" viewBox="0 0 48 28" fill="none" xmlns="http://www.w3.org/2000/svg">
<path d="M40.5217 0H7.47826C6.10956 0 5 0.948103 5 2.11765V21.8824C5 23.0519 6.10956 24 7.47826 24H40.5217C41.8904 24 43 23.0519 43 21.8824V2.11765C43 0.948103 41.8904 0 40.5217 0Z" fill="#1A1876"/>
<path d="M20.066 15.9654H22.2213L23.5703 8.05475H21.4142L20.066 15.9654Z" fill="white"/>
<path d="M27.918 11.231C27.1646 10.865 26.7028 10.6205 26.7077 10.2504C26.7077 9.91995 27.0985 9.56969 27.9469 9.56969C28.572 9.55405 29.1917 9.68921 29.7535 9.96373L30.046 8.2496C29.4262 8.02604 28.7717 7.91416 28.1129 7.91917C25.9824 7.91917 24.4781 8.99308 24.4691 10.5296C24.4575 11.6663 25.543 12.3007 26.3583 12.6774C27.1976 13.0649 27.4801 13.3119 27.476 13.658C27.4702 14.1883 26.8061 14.4312 26.1857 14.4312C25.3831 14.45 24.589 14.2637 23.8784 13.8901L23.576 15.6604C24.3446 15.9445 25.1581 16.0875 25.9775 16.0826C28.2443 16.0826 29.7155 15.0219 29.732 13.3804C29.7362 12.48 29.1621 11.7952 27.918 11.231Z" fill="white"/>
<path d="M35.5711 8.06204H33.9048C33.6707 8.03206 33.4332 8.08006 33.2291 8.19863C33.0249 8.31719 32.8656 8.49971 32.7756 8.71796L29.5737 15.9652H31.838C31.838 15.9652 32.2081 14.9904 32.2915 14.7765H35.0531C35.1175 15.054 35.3158 15.9619 35.3158 15.9619H37.3166L35.5711 8.06204ZM32.9127 13.1615C33.0019 12.9327 33.8817 10.6733 34.0577 10.195C34.3485 11.558 34.0651 10.2355 34.702 13.1615H32.9127Z" fill="white"/>
<path d="M18.2578 8.06029L16.1463 13.4546L15.9216 12.3584L15.1657 8.72364C15.1106 8.51306 14.9813 8.32947 14.8016 8.20667C14.6219 8.08387 14.4038 8.03012 14.1876 8.05533H10.7106L10.6834 8.22055C11.4739 8.40708 12.2358 8.6991 12.9485 9.08877L14.865 15.9593H17.1467L20.5411 8.06359L18.2578 8.06029Z" fill="white"/>
</svg>
