<svg width="31" height="23" viewBox="0 0 31 23" fill="none" xmlns="http://www.w3.org/2000/svg">
<path d="M28.9783 0H2.02174C0.905163 0 0 0.905163 0 2.02174V20.8913C0 22.0079 0.905163 22.913 2.02174 22.913H28.9783C30.0948 22.913 31 22.0079 31 20.8913V2.02174C31 0.905163 30.0948 0 28.9783 0Z" fill="#1A1876"/>
<path d="M12.2905 14.6913H14.0488L15.1493 8.23792H13.3904L12.2905 14.6913Z" fill="white"/>
<path d="M18.6964 10.8292C18.0818 10.5307 17.7051 10.3312 17.7091 10.0293C17.7091 9.7597 18.0279 9.47396 18.72 9.47396C19.2299 9.4612 19.7355 9.57146 20.1938 9.79542L20.4324 8.39705C19.9268 8.21467 19.3929 8.1234 18.8554 8.12748C17.1174 8.12748 15.8902 9.00357 15.8828 10.257C15.8734 11.1844 16.7589 11.7019 17.424 12.0092C18.1087 12.3253 18.3392 12.5268 18.3358 12.8092C18.3311 13.2418 17.7893 13.4399 17.2832 13.4399C16.6284 13.4552 15.9806 13.3033 15.4009 12.9985L15.1543 14.4427C15.7813 14.6744 16.4449 14.7911 17.1134 14.7871C18.9626 14.7871 20.1628 13.9218 20.1763 12.5827C20.1797 11.8482 19.7113 11.2895 18.6964 10.8292Z" fill="white"/>
<path d="M24.9395 8.24404H23.5802C23.3892 8.21957 23.1954 8.25873 23.0289 8.35546C22.8624 8.45218 22.7324 8.60108 22.659 8.77912L20.0469 14.6914H21.8941C21.8941 14.6914 22.196 13.8961 22.264 13.7216H24.5169C24.5695 13.948 24.7312 14.6887 24.7312 14.6887H26.3635L24.9395 8.24404ZM22.7708 12.4041C22.8436 12.2174 23.5613 10.3743 23.7049 9.98408C23.9421 11.096 23.7109 10.0171 24.2305 12.4041H22.7708Z" fill="white"/>
<path d="M10.8153 8.24264L9.09282 12.6433L8.90951 11.749L8.29288 8.7838C8.24794 8.61201 8.14245 8.46224 7.99583 8.36206C7.84922 8.26188 7.67135 8.21803 7.49497 8.2386H4.65847L4.63623 8.37338C5.28116 8.52555 5.90269 8.76378 6.4841 9.08167L8.04758 14.6866H9.90893L12.678 8.24534L10.8153 8.24264Z" fill="white"/>
</svg>
