<svg width="16" height="15" viewBox="0 0 16 15" fill="none" xmlns="http://www.w3.org/2000/svg">
<path d="M15.9098 13.6668L8.57647 1.00009C8.51314 0.905211 8.42738 0.827424 8.32678 0.773626C8.22619 0.719828 8.11388 0.691681 7.9998 0.691681C7.88573 0.691681 7.77342 0.719828 7.67283 0.773626C7.57223 0.827424 7.48647 0.905211 7.42314 1.00009L0.0898049 13.6668C0.0313216 13.7681 0.000518332 13.883 0.000488303 13.9999C0.000458274 14.1169 0.0312025 14.2318 0.0896338 14.3331C0.148065 14.4345 0.232127 14.5186 0.333378 14.5772C0.434629 14.6357 0.549505 14.6666 0.666472 14.6668H15.3331C15.4501 14.6666 15.565 14.6357 15.6662 14.5772C15.7675 14.5186 15.8515 14.4345 15.91 14.3331C15.9684 14.2318 15.9992 14.1169 15.9991 13.9999C15.9991 13.883 15.9683 13.7681 15.9098 13.6668ZM8.80381 5.33342L8.48847 9.73342H7.51114L7.21381 5.33342H8.80381ZM7.9998 12.6668C7.80638 12.6668 7.61729 12.6094 7.45646 12.5019C7.29563 12.3945 7.17027 12.2417 7.09625 12.063C7.02223 11.8843 7.00286 11.6877 7.0406 11.498C7.07833 11.3082 7.17148 11.134 7.30825 10.9972C7.44503 10.8604 7.61929 10.7673 7.80901 10.7295C7.99872 10.6918 8.19536 10.7112 8.37407 10.7852C8.55278 10.8592 8.70552 10.9846 8.81298 11.1454C8.92045 11.3062 8.97781 11.4953 8.97781 11.6888C8.97781 11.9481 8.87477 12.1969 8.69136 12.3803C8.50795 12.5637 8.25919 12.6668 7.9998 12.6668Z" fill="#EEC200"/>
</svg>
