<svg width="200" height="200" viewBox="0 0 200 200" fill="none" xmlns="http://www.w3.org/2000/svg">
<path d="M34.9114 60.8232L35.6813 62.3774L37.4018 62.6292L36.1566 63.8412L36.4513 65.5521L34.9114 64.7442L33.3763 65.5521L33.671 63.8412L32.4258 62.6292L34.1462 62.3774L34.9114 60.8232Z" fill="#F2F4F6"/>
<path d="M188.732 134.124L189.502 135.683L191.223 135.935L189.977 137.142L190.272 138.858L188.732 138.05L187.197 138.858L187.492 137.142L186.247 135.935L187.967 135.683L188.732 134.124Z" fill="#F2F4F6"/>
<path d="M158.268 179.317L159.038 180.871L160.753 181.123L159.508 182.335L159.803 184.046L158.268 183.238L156.733 184.046L157.022 182.335L155.782 181.123L157.498 180.871L158.268 179.317Z" fill="#F2F4F6"/>
<path d="M88.5648 33.211L88.8499 33.7908L89.4915 33.8859C89.5274 33.8906 89.5611 33.9053 89.5888 33.9285C89.6165 33.9516 89.637 33.9822 89.648 34.0166C89.659 34.051 89.6599 34.0878 89.6507 34.1228C89.6415 34.1577 89.6226 34.1893 89.5961 34.2138L89.1208 34.6653L89.2301 35.3022C89.2358 35.3376 89.2315 35.3739 89.2178 35.4071C89.2041 35.4402 89.1815 35.469 89.1525 35.4901C89.1235 35.5112 89.0892 35.524 89.0534 35.5269C89.0176 35.5298 88.9818 35.5227 88.9497 35.5065L88.3794 35.2023L87.8091 35.5065C87.7771 35.5227 87.7412 35.5298 87.7054 35.5269C87.6697 35.524 87.6354 35.5112 87.6064 35.4901C87.5774 35.469 87.5548 35.4402 87.5411 35.4071C87.5274 35.3739 87.5231 35.3376 87.5287 35.3022L87.6333 34.6653L87.158 34.2138C87.1314 34.189 87.1125 34.157 87.1035 34.1217C87.0945 34.0864 87.0959 34.0493 87.1074 34.0148C87.1189 33.9802 87.1401 33.9497 87.1685 33.9269C87.1968 33.904 87.2311 33.8898 87.2673 33.8859L87.9042 33.7908L88.1893 33.211C88.2007 33.17 88.2253 33.1338 88.2592 33.1081C88.2931 33.0823 88.3345 33.0684 88.3771 33.0684C88.4196 33.0684 88.461 33.0823 88.4949 33.1081C88.5288 33.1338 88.5534 33.17 88.5648 33.211Z" fill="#F2F4F6"/>
<path d="M10.071 171.917L10.3562 172.492L10.993 172.587C11.0292 172.592 11.0632 172.607 11.0912 172.63C11.1193 172.654 11.1402 172.685 11.1515 172.719C11.1629 172.754 11.1644 172.791 11.1557 172.827C11.147 172.862 11.1285 172.894 11.1023 172.92L10.6271 173.367L10.7364 174.003C10.742 174.039 10.7377 174.075 10.724 174.108C10.7103 174.141 10.6877 174.17 10.6587 174.191C10.6297 174.212 10.5954 174.225 10.5596 174.228C10.5239 174.231 10.488 174.224 10.456 174.208L9.88565 173.908L9.31533 174.208C9.2833 174.224 9.24743 174.231 9.21166 174.228C9.17589 174.225 9.14162 174.212 9.11261 174.191C9.08361 174.17 9.06101 174.141 9.0473 174.108C9.03359 174.075 9.02931 174.039 9.03492 174.003L9.14423 173.367L8.66897 172.92C8.6429 172.895 8.62435 172.863 8.61541 172.828C8.60647 172.793 8.60748 172.756 8.61834 172.721C8.6292 172.687 8.64947 172.656 8.67688 172.632C8.7043 172.608 8.73776 172.593 8.77353 172.587L9.41038 172.492L9.70029 171.917C9.71299 171.878 9.73777 171.844 9.77107 171.819C9.80437 171.795 9.84448 171.782 9.88565 171.782C9.92681 171.782 9.96692 171.795 10.0002 171.819C10.0335 171.844 10.0583 171.878 10.071 171.917Z" fill="#F2F4F6"/>
<path d="M22.8945 27.1044L23.1796 27.6842L23.8212 27.7745C23.857 27.7802 23.8905 27.7958 23.9179 27.8195C23.9453 27.8431 23.9655 27.874 23.9764 27.9085C23.9873 27.9431 23.9883 27.98 23.9793 28.0151C23.9704 28.0502 23.9518 28.0821 23.9258 28.1072L23.4505 28.5825L23.5598 29.2146C23.5674 29.2504 23.5645 29.2878 23.5513 29.322C23.5382 29.3562 23.5154 29.386 23.4858 29.4076C23.4562 29.4292 23.4209 29.4417 23.3843 29.4437C23.3477 29.4458 23.3113 29.4371 23.2794 29.4189L22.7091 29.1195L22.1388 29.4189C22.107 29.4371 22.0705 29.4458 22.0339 29.4437C21.9973 29.4417 21.962 29.4292 21.9324 29.4076C21.9028 29.386 21.88 29.3562 21.8669 29.322C21.8537 29.2878 21.8508 29.2504 21.8584 29.2146L21.9629 28.5825L21.4877 28.1072C21.4615 28.0817 21.443 28.0495 21.4343 28.014C21.4256 27.9786 21.4271 27.9414 21.4384 27.9067C21.4498 27.8721 21.4707 27.8413 21.4988 27.8179C21.5268 27.7945 21.5608 27.7795 21.597 27.7745L22.2338 27.6842L22.538 27.1044C22.5533 27.0699 22.5782 27.0405 22.6099 27.0199C22.6415 26.9993 22.6785 26.9883 22.7162 26.9883C22.754 26.9883 22.7909 26.9993 22.8226 27.0199C22.8542 27.0405 22.8792 27.0699 22.8945 27.1044Z" fill="#F2F4F6"/>
<path d="M22.1197 141.652C22.1206 141.777 22.0843 141.9 22.0154 142.004C21.9466 142.109 21.8482 142.191 21.7328 142.239C21.6173 142.288 21.4901 142.301 21.3672 142.277C21.2442 142.253 21.1312 142.193 21.0423 142.105C20.9534 142.017 20.8927 141.904 20.868 141.782C20.8432 141.659 20.8554 141.532 20.9031 141.416C20.9508 141.3 21.0318 141.201 21.1359 141.131C21.2399 141.062 21.3623 141.024 21.4876 141.024C21.6544 141.024 21.8144 141.09 21.9328 141.208C22.0512 141.325 22.1184 141.485 22.1197 141.652Z" fill="#F2F4F6"/>
<path d="M112.201 62.5544C112.202 62.6796 112.166 62.8023 112.097 62.9068C112.028 63.0114 111.93 63.0932 111.815 63.1417C111.699 63.1903 111.572 63.2035 111.449 63.1797C111.326 63.1558 111.213 63.096 111.124 63.0078C111.035 62.9196 110.975 62.8069 110.95 62.6842C110.925 62.5615 110.937 62.4341 110.985 62.3183C111.033 62.2026 111.114 62.1036 111.218 62.0339C111.322 61.9642 111.444 61.927 111.569 61.927C111.652 61.9264 111.734 61.9421 111.811 61.9734C111.888 62.0046 111.957 62.0508 112.016 62.1091C112.075 62.1674 112.121 62.2368 112.153 62.3132C112.185 62.3896 112.201 62.4716 112.201 62.5544Z" fill="#F2F4F6"/>
<path d="M79.4283 27.6262C79.4283 27.7513 79.3912 27.8735 79.3217 27.9774C79.2523 28.0814 79.1536 28.1624 79.0381 28.2102C78.9226 28.2581 78.7955 28.2706 78.6728 28.2462C78.5502 28.2218 78.4376 28.1616 78.3492 28.0732C78.2608 27.9848 78.2006 27.8722 78.1762 27.7496C78.1518 27.6269 78.1643 27.4998 78.2122 27.3843C78.26 27.2688 78.341 27.1701 78.445 27.1007C78.5489 27.0312 78.6711 26.9941 78.7962 26.9941C78.9634 26.9954 79.1235 27.0624 79.2418 27.1807C79.36 27.2989 79.427 27.459 79.4283 27.6262Z" fill="#F2F4F6"/>
<path d="M80.4226 181.681C82.3002 181.238 83.4631 179.356 83.02 177.479C82.5768 175.601 80.6954 174.438 78.8178 174.881C76.9401 175.324 75.7772 177.206 76.2204 179.083C76.6636 180.961 78.545 182.124 80.4226 181.681Z" fill="#F2F4F6"/>
<path d="M78.4258 176.237C77.7102 176.236 77.0127 176.462 76.4344 176.883C76.1391 177.561 76.0666 178.315 76.2273 179.036C76.3881 179.758 76.7739 180.409 77.3291 180.897C77.8842 181.385 78.58 181.684 79.3161 181.751C80.0522 181.818 80.7906 181.65 81.4247 181.27C81.7054 180.751 81.8464 180.168 81.834 179.578C81.8216 178.988 81.6561 178.411 81.3538 177.904C81.0515 177.397 80.6227 176.977 80.1094 176.686C79.5961 176.395 79.016 176.242 78.4258 176.242V176.237Z" fill="#F2F4F6"/>
<path d="M51.3691 117.566H22.4492V104.511L51.3691 70.1299H65.2088V105.252H72.3805V117.566H65.2088V128.25H51.3691V117.566ZM51.3691 105.252V87.268L36.0846 105.252H51.3691Z" fill="#008AF8"/>
<path d="M77.3299 99.4439C77.3299 88.5794 79.2848 80.9752 83.1946 76.6312C87.1045 72.2873 93.0627 70.117 101.069 70.1201C104.913 70.1201 108.07 70.5954 110.541 71.5459C112.786 72.3549 114.842 73.6148 116.582 75.2482C118.048 76.6483 119.291 78.2657 120.265 80.0436C121.23 81.8999 121.956 83.8704 122.428 85.9084C123.502 90.2622 124.039 94.7314 124.025 99.2158C124.025 109.583 122.271 117.17 118.763 121.976C115.256 126.783 109.215 129.188 100.642 129.191C95.8319 129.191 91.9459 128.424 88.9834 126.89C85.9971 125.332 83.4817 123.004 81.6976 120.146C80.3193 118.043 79.2468 115.164 78.48 111.511C77.684 107.539 77.2986 103.495 77.3299 99.4439ZM93.0801 99.482C93.0801 106.769 93.7218 111.739 95.005 114.391C96.2882 117.043 98.1528 118.375 100.599 118.388C101.375 118.397 102.145 118.251 102.865 117.96C103.584 117.669 104.239 117.237 104.791 116.691C105.976 115.56 106.847 113.773 107.405 111.33C107.962 108.887 108.241 105.085 108.241 99.924C108.241 92.3387 107.598 87.2391 106.312 84.6252C105.025 82.0112 103.096 80.7058 100.523 80.709C97.8993 80.709 95.9983 82.0413 94.8196 84.706C93.641 87.3706 93.0611 92.296 93.0801 99.482Z" fill="#008AF8"/>
<path d="M157.857 117.566H128.938V104.511L157.857 70.1299H171.697V105.252H178.893V117.566H171.697V128.25H157.857V117.566ZM157.857 105.252V87.2679L142.578 105.252H157.857Z" fill="#008AF8"/>
<g opacity="0.3">
<path d="M76.7147 50.0671C76.7147 50.2431 76.6625 50.4151 76.5646 50.5614C76.4668 50.7076 76.3277 50.8215 76.165 50.8887C76.0023 50.9558 75.8234 50.9731 75.6509 50.9384C75.4783 50.9038 75.32 50.8186 75.1959 50.6939C75.0718 50.5691 74.9875 50.4103 74.9538 50.2376C74.92 50.0649 74.9383 49.886 75.0063 49.7237C75.0743 49.5614 75.1889 49.4229 75.3357 49.3258C75.4825 49.2288 75.6548 49.1774 75.8308 49.1784C75.9472 49.1784 76.0626 49.2014 76.1701 49.2461C76.2777 49.2909 76.3754 49.3564 76.4575 49.439C76.5397 49.5216 76.6047 49.6196 76.6488 49.7274C76.693 49.8352 76.7154 49.9506 76.7147 50.0671Z" fill="#407BFF" opacity="0.3"/>
<path d="M15.8654 84.2059C16.2119 84.2059 16.4927 83.925 16.4927 83.5785C16.4927 83.232 16.2119 82.9512 15.8654 82.9512C15.5189 82.9512 15.238 83.232 15.238 83.5785C15.238 83.925 15.5189 84.2059 15.8654 84.2059Z" fill="#407BFF" opacity="0.3"/>
<path d="M119.515 175.822C120.011 175.822 120.413 175.42 120.413 174.924C120.413 174.428 120.011 174.026 119.515 174.026C119.019 174.026 118.617 174.428 118.617 174.924C118.617 175.42 119.019 175.822 119.515 175.822Z" fill="#407BFF" opacity="0.3"/>
<path d="M141.108 139.274C141.455 139.274 141.735 138.993 141.735 138.647C141.735 138.3 141.455 138.019 141.108 138.019C140.762 138.019 140.481 138.3 140.481 138.647C140.481 138.993 140.762 139.274 141.108 139.274Z" fill="#407BFF" opacity="0.3"/>
<path d="M182.779 26.305C182.779 26.429 182.742 26.5503 182.673 26.6535C182.604 26.7567 182.506 26.8371 182.391 26.8846C182.277 26.932 182.151 26.9445 182.029 26.9203C181.907 26.896 181.795 26.8363 181.708 26.7486C181.62 26.6608 181.56 26.549 181.536 26.4273C181.512 26.3057 181.524 26.1795 181.572 26.0649C181.619 25.9503 181.7 25.8523 181.803 25.7833C181.906 25.7144 182.027 25.6776 182.151 25.6776C182.318 25.6776 182.477 25.7437 182.595 25.8614C182.713 25.979 182.779 26.1386 182.779 26.305Z" fill="#407BFF" opacity="0.3"/>
<path d="M63.2857 13.6524C63.2857 13.7765 63.2489 13.8978 63.18 14.0009C63.111 14.1041 63.0131 14.1845 62.8984 14.232C62.7838 14.2795 62.6577 14.2919 62.536 14.2677C62.4143 14.2435 62.3025 14.1837 62.2148 14.096C62.127 14.0083 62.0673 13.8965 62.0431 13.7748C62.0189 13.6531 62.0313 13.527 62.0788 13.4123C62.1262 13.2977 62.2066 13.1997 62.3098 13.1308C62.413 13.0618 62.5343 13.0251 62.6584 13.0251C62.8244 13.0263 62.9832 13.0928 63.1006 13.2102C63.218 13.3276 63.2845 13.4864 63.2857 13.6524Z" fill="#407BFF" opacity="0.3"/>
<path d="M113.162 46.5694C113.509 46.5694 113.79 46.2885 113.79 45.942C113.79 45.5956 113.509 45.3147 113.162 45.3147C112.816 45.3147 112.535 45.5956 112.535 45.942C112.535 46.2885 112.816 46.5694 113.162 46.5694Z" fill="#407BFF" opacity="0.3"/>
</g>
<path d="M48.3076 46.5736C54.0585 46.5736 58.7206 41.9115 58.7206 36.1605C58.7206 30.4095 54.0585 25.7475 48.3076 25.7475C42.5566 25.7475 37.8945 30.4095 37.8945 36.1605C37.8945 41.9115 42.5566 46.5736 48.3076 46.5736Z" fill="#407BFF"/>
<path d="M48.3076 46.5736C54.0585 46.5736 58.7206 41.9115 58.7206 36.1605C58.7206 30.4095 54.0585 25.7475 48.3076 25.7475C42.5566 25.7475 37.8945 30.4095 37.8945 36.1605C37.8945 41.9115 42.5566 46.5736 48.3076 46.5736Z" fill="#EAFAFF" opacity="0.7"/>
<path d="M44.7164 28.3056C43.2983 28.3012 41.8943 28.5875 40.5911 29.1468C38.9895 30.9071 38.0388 33.1628 37.8973 35.5385C37.7559 37.9142 38.4321 40.2668 39.8135 42.2047C41.1949 44.1427 43.1982 45.5493 45.4902 46.1904C47.7821 46.8316 50.2245 46.6687 52.4109 45.7288C53.7665 44.2349 54.6592 42.3795 54.9806 40.3879C55.302 38.3964 55.0383 36.3544 54.2215 34.5099C53.4047 32.6653 52.0699 31.0976 50.3792 29.9971C48.6885 28.8966 46.7147 28.3106 44.6974 28.3103L44.7164 28.3056Z" fill="#407BFF" opacity="0.2"/>
<path d="M43.6821 31.0566C43.6821 31.2446 43.6263 31.4284 43.5219 31.5847C43.4174 31.741 43.269 31.8629 43.0953 31.9348C42.9216 32.0068 42.7305 32.0256 42.5461 31.9889C42.3617 31.9522 42.1923 31.8617 42.0594 31.7288C41.9265 31.5958 41.8359 31.4265 41.7993 31.2421C41.7626 31.0577 41.7814 30.8666 41.8534 30.6929C41.9253 30.5192 42.0471 30.3707 42.2034 30.2663C42.3598 30.1619 42.5435 30.1061 42.7315 30.1061C42.9836 30.1061 43.2254 30.2063 43.4037 30.3845C43.5819 30.5628 43.6821 30.8045 43.6821 31.0566Z" fill="#008AF8" opacity="0.2"/>
<path d="M54.8803 30.1061C54.8803 30.2941 54.8246 30.4779 54.7201 30.6342C54.6157 30.7905 54.4672 30.9124 54.2935 30.9843C54.1198 31.0563 53.9287 31.0751 53.7443 31.0384C53.56 31.0017 53.3906 30.9112 53.2576 30.7783C53.1247 30.6453 53.0342 30.476 52.9975 30.2916C52.9608 30.1072 52.9797 29.9161 53.0516 29.7424C53.1235 29.5687 53.2454 29.4202 53.4017 29.3158C53.558 29.2114 53.7418 29.1556 53.9298 29.1556C54.1819 29.1556 54.4236 29.2558 54.6019 29.434C54.7802 29.6123 54.8803 29.854 54.8803 30.1061Z" fill="#008AF8" opacity="0.2"/>
<path d="M52.9761 36.8932C52.9761 37.2015 52.8847 37.5029 52.7134 37.7592C52.5421 38.0156 52.2987 38.2154 52.0138 38.3334C51.729 38.4514 51.4155 38.4822 51.1131 38.4221C50.8108 38.362 50.533 38.2135 50.315 37.9955C50.097 37.7775 49.9485 37.4997 49.8884 37.1973C49.8282 36.8949 49.8591 36.5815 49.9771 36.2966C50.0951 36.0118 50.2949 35.7683 50.5512 35.597C50.8076 35.4257 51.109 35.3343 51.4173 35.3343C51.8307 35.3343 52.2272 35.4986 52.5196 35.7909C52.8119 36.0832 52.9761 36.4797 52.9761 36.8932Z" fill="#008AF8" opacity="0.2"/>
<path d="M48.0303 41.3372C48.0303 41.7489 47.9082 42.1514 47.6794 42.4937C47.4507 42.836 47.1256 43.1028 46.7452 43.2604C46.3648 43.4179 45.9463 43.4592 45.5425 43.3788C45.1387 43.2985 44.7678 43.1003 44.4766 42.8091C44.1855 42.518 43.9873 42.1471 43.9069 41.7433C43.8266 41.3395 43.8678 40.9209 44.0254 40.5406C44.183 40.1602 44.4498 39.8351 44.7921 39.6063C45.1344 39.3776 45.5369 39.2555 45.9486 39.2555C46.5007 39.2555 47.0302 39.4748 47.4206 39.8652C47.8109 40.2556 48.0303 40.7851 48.0303 41.3372Z" fill="#008AF8" opacity="0.2"/>
<path d="M171.721 161.767C172.881 156.855 169.838 151.932 164.926 150.773C160.013 149.614 155.091 152.656 153.931 157.569C152.772 162.481 155.814 167.403 160.727 168.563C165.639 169.722 170.562 166.68 171.721 161.767Z" fill="#407BFF"/>
<path d="M171.721 161.767C172.881 156.855 169.838 151.932 164.926 150.773C160.013 149.614 155.091 152.656 153.931 157.569C152.772 162.481 155.814 167.403 160.727 168.563C165.639 169.722 170.562 166.68 171.721 161.767Z" fill="#EAFAFF" opacity="0.3"/>
<path d="M168.595 152.591C166.569 151.98 164.393 152.091 162.44 152.905C160.487 153.72 158.877 155.187 157.885 157.057C156.894 158.926 156.582 161.082 157.004 163.156C157.426 165.23 158.554 167.093 160.197 168.427C161.049 168.686 161.935 168.817 162.825 168.817C164.712 168.817 166.552 168.232 168.094 167.144C169.635 166.056 170.802 164.517 171.434 162.74C172.066 160.962 172.133 159.032 171.624 157.215C171.116 155.398 170.058 153.783 168.595 152.591Z" fill="#008AF8" opacity="0.4"/>
<path d="M154.105 162.41C144.348 167.001 151.624 170.542 165.374 165.599C178.106 161.022 182.959 155.253 171.552 157.044C172.165 159.444 156.22 165.656 154.105 162.41Z" fill="#008AF8"/>
<path d="M168.499 70.129C155.719 78.7645 139.175 90.1709 134.608 117.565H133.634C138.077 90.475 154.018 78.7978 166.802 70.129H168.499Z" fill="black" opacity="0.2"/>
<path d="M102.384 155.886C94.3044 155.886 86.3152 152.241 82.4228 146.291C80.0227 142.612 77.2329 134.908 85.5405 124.628L86.2772 125.227C80.4029 132.498 79.3193 139.794 83.2212 145.773C87.9739 153.044 99.1854 156.704 108.757 154.099C118.562 151.433 124.512 142.907 125.087 130.707C127.05 88.9738 149.221 76.1179 165.409 66.7314C175.47 60.8999 182.737 56.6891 181.14 47.7969C180.917 46.5659 180.427 45.7152 179.633 45.1924C177.566 43.8284 173.526 44.7742 168.85 45.8625C159.672 48.0012 147.106 50.9289 139.621 38.1965L140.443 37.7213C147.572 49.8548 159.249 47.1315 168.636 44.9453C173.526 43.8094 177.747 42.8256 180.156 44.4082C181.178 45.0783 181.805 46.1382 182.057 47.64C183.773 57.1833 175.879 61.7649 165.874 67.5631C149.872 76.8403 127.963 89.5441 126.024 130.773C125.425 143.415 119.218 152.26 108.99 155.04C106.835 155.614 104.614 155.899 102.384 155.886Z" fill="#407BFF"/>
<path d="M102.384 155.886C94.3044 155.886 86.3152 152.241 82.4228 146.291C80.0227 142.612 77.2329 134.908 85.5405 124.628L86.2772 125.227C80.4029 132.498 79.3193 139.794 83.2212 145.773C87.9739 153.044 99.1854 156.704 108.757 154.099C118.562 151.433 124.512 142.907 125.087 130.707C127.05 88.9738 149.221 76.1179 165.409 66.7314C175.47 60.8999 182.737 56.6891 181.14 47.7969C180.917 46.5659 180.427 45.7152 179.633 45.1924C177.566 43.8284 173.526 44.7742 168.85 45.8625C159.672 48.0012 147.106 50.9289 139.621 38.1965L140.443 37.7213C147.572 49.8548 159.249 47.1315 168.636 44.9453C173.526 43.8094 177.747 42.8256 180.156 44.4082C181.178 45.0783 181.805 46.1382 182.057 47.64C183.773 57.1833 175.879 61.7649 165.874 67.5631C149.872 76.8403 127.963 89.5441 126.024 130.773C125.425 143.415 119.218 152.26 108.99 155.04C106.835 155.614 104.614 155.899 102.384 155.886Z" fill="#EAFAFF" opacity="0.2"/>
<path d="M129.832 26.9607C132.022 26.9733 134.197 27.3145 136.286 27.973C136.286 27.973 141.514 36.8937 142.132 38.9373C141.913 40.9524 138.515 44.2555 138.515 44.2555L129.832 26.9607Z" fill="#407BFF"/>
<path d="M129.832 26.9607C132.022 26.9733 134.197 27.3145 136.286 27.973C136.286 27.973 141.514 36.8937 142.132 38.9373C141.913 40.9524 138.515 44.2555 138.515 44.2555L129.832 26.9607Z" fill="#EAFAFF" opacity="0.3"/>
<path d="M145.321 70.2703C143.308 67.8086 141.472 65.2071 139.827 62.4855C139.428 61.7979 139.049 61.0977 138.691 60.3848C138.487 59.9808 138.292 59.5768 138.102 59.1681C137.852 58.7704 137.659 58.3402 137.527 57.8897C136.957 51.8681 139.019 47.4338 137.052 42.6004L129.219 45.6611C129.219 45.6611 129.885 54.2729 131.405 59.4438C132.356 62.6423 134.485 65.4083 136.543 67.97C137.185 68.7685 137.803 69.5907 138.444 70.3939C139.086 71.1971 139.732 71.8482 140.345 72.6038C141.272 73.7492 141.576 74.8471 140.877 76.1968L140.759 76.4107C140.559 76.7624 141.491 77.1616 142.08 76.4107C143.03 75.1845 142.897 75.2606 143.724 74.215C144.228 73.5829 144.803 72.8938 145.302 72.3139C145.543 72.0288 145.677 71.6687 145.68 71.2955C145.683 70.9224 145.557 70.5598 145.321 70.2703Z" fill="#407BFF"/>
<path d="M145.321 70.2703C143.308 67.8086 141.472 65.2071 139.827 62.4855C139.428 61.7979 139.049 61.0977 138.691 60.3848C138.487 59.9808 138.292 59.5768 138.102 59.1681C137.852 58.7704 137.659 58.3402 137.527 57.8897C136.957 51.8681 139.019 47.4338 137.052 42.6004L129.219 45.6611C129.219 45.6611 129.885 54.2729 131.405 59.4438C132.356 62.6423 134.485 65.4083 136.543 67.97C137.185 68.7685 137.803 69.5907 138.444 70.3939C139.086 71.1971 139.732 71.8482 140.345 72.6038C141.272 73.7492 141.576 74.8471 140.877 76.1968L140.759 76.4107C140.559 76.7624 141.491 77.1616 142.08 76.4107C143.03 75.1845 142.897 75.2606 143.724 74.215C144.228 73.5829 144.803 72.8938 145.302 72.3139C145.543 72.0288 145.677 71.6687 145.68 71.2955C145.683 70.9224 145.557 70.5598 145.321 70.2703Z" fill="#EAFAFF" opacity="0.7"/>
<path d="M143.405 67.7957C142.162 69.128 140.782 70.3259 139.289 71.3697C139.493 71.5978 139.693 71.845 139.897 72.0636C141.392 71.0535 142.75 69.8537 143.937 68.4944L143.405 67.7957Z" fill="#407BFF" opacity="0.3"/>
<path d="M145.321 70.2717L145.264 70.2052C144.898 70.6247 144.686 71.1558 144.66 71.7118C144.63 72.0932 144.692 72.4763 144.841 72.8287L145.293 72.2916C145.529 72.0094 145.66 71.6546 145.665 71.2867C145.671 70.9189 145.549 70.5605 145.321 70.2717Z" fill="#407BFF" opacity="0.3"/>
<path d="M127.972 32.6636C127.123 33.9349 126.105 35.0846 124.945 36.0807C124.302 36.635 123.597 37.1135 122.844 37.5065C122.449 37.7091 122.039 37.8823 121.618 38.0245L121.295 38.1291L121.19 38.1576L120.967 38.2194C120.829 38.252 120.689 38.2743 120.549 38.2859C120.148 38.3166 119.744 38.2796 119.356 38.1766C118.865 38.0375 118.396 37.8346 117.958 37.573C117.606 37.3673 117.265 37.1437 116.937 36.9029C116.342 36.4609 115.774 35.9849 115.235 35.4771C114.195 34.4921 113.242 33.4205 112.384 32.2738C112.218 32.0505 112.136 31.7764 112.151 31.499C112.167 31.2216 112.278 30.9582 112.467 30.7542C112.656 30.5503 112.91 30.4186 113.185 30.382C113.461 30.3453 113.74 30.4059 113.976 30.5534H114.014C115.135 31.2663 116.266 32.0172 117.369 32.6873C117.93 33.0153 118.472 33.3479 119.009 33.6046C119.254 33.7329 119.506 33.8472 119.764 33.9468C119.925 34.0178 120.097 34.0596 120.273 34.0703C120.301 34.0703 120.273 34.0371 120.097 34.0418C120.042 34.0385 119.986 34.0385 119.931 34.0418L119.826 34.0656L119.983 33.9848C120.194 33.8712 120.399 33.7458 120.596 33.6093C121.021 33.3095 121.419 32.9723 121.784 32.6018C122.615 31.7316 123.392 30.8128 124.113 29.85C124.508 29.4081 125.054 29.1298 125.643 29.0696C126.233 29.0094 126.824 29.1716 127.3 29.5246C127.776 29.8775 128.103 30.3956 128.217 30.9772C128.331 31.5588 128.223 32.1619 127.915 32.6683L127.972 32.6636Z" fill="#407BFF"/>
<path d="M127.972 32.6636C127.123 33.9349 126.105 35.0846 124.945 36.0807C124.302 36.635 123.597 37.1135 122.844 37.5065C122.449 37.7091 122.039 37.8823 121.618 38.0245L121.295 38.1291L121.19 38.1576L120.967 38.2194C120.829 38.252 120.689 38.2743 120.549 38.2859C120.148 38.3166 119.744 38.2796 119.356 38.1766C118.865 38.0375 118.396 37.8346 117.958 37.573C117.606 37.3673 117.265 37.1437 116.937 36.9029C116.342 36.4609 115.774 35.9849 115.235 35.4771C114.195 34.4921 113.242 33.4205 112.384 32.2738C112.218 32.0505 112.136 31.7764 112.151 31.499C112.167 31.2216 112.278 30.9582 112.467 30.7542C112.656 30.5503 112.91 30.4186 113.185 30.382C113.461 30.3453 113.74 30.4059 113.976 30.5534H114.014C115.135 31.2663 116.266 32.0172 117.369 32.6873C117.93 33.0153 118.472 33.3479 119.009 33.6046C119.254 33.7329 119.506 33.8472 119.764 33.9468C119.925 34.0178 120.097 34.0596 120.273 34.0703C120.301 34.0703 120.273 34.0371 120.097 34.0418C120.042 34.0385 119.986 34.0385 119.931 34.0418L119.826 34.0656L119.983 33.9848C120.194 33.8712 120.399 33.7458 120.596 33.6093C121.021 33.3095 121.419 32.9723 121.784 32.6018C122.615 31.7316 123.392 30.8128 124.113 29.85C124.508 29.4081 125.054 29.1298 125.643 29.0696C126.233 29.0094 126.824 29.1716 127.3 29.5246C127.776 29.8775 128.103 30.3956 128.217 30.9772C128.331 31.5588 128.223 32.1619 127.915 32.6683L127.972 32.6636Z" fill="#EAFAFF" opacity="0.7"/>
<path d="M110.606 29.5363L111.162 30.4868C111.162 30.4868 111.585 31.732 112.435 31.9601L114.745 31.214L114.626 31.0191C114.332 30.5723 114.365 29.7026 114.465 28.9802C114.565 28.2578 114.194 28.234 113.918 28.4146C113.723 28.6393 113.586 28.9087 113.519 29.1988C113.406 29.0419 113.28 28.8941 113.144 28.7568L112.44 28.0534C112.293 27.9092 112.096 27.8261 111.89 27.8208C111.683 27.8155 111.483 27.8884 111.328 28.0249L110.758 28.5335C110.622 28.6586 110.534 28.826 110.506 29.0082C110.478 29.1904 110.514 29.3766 110.606 29.5363Z" fill="#407BFF"/>
<path d="M110.606 29.5363L111.162 30.4868C111.162 30.4868 111.585 31.732 112.435 31.9601L114.745 31.214L114.626 31.0191C114.332 30.5723 114.365 29.7026 114.465 28.9802C114.565 28.2578 114.194 28.234 113.918 28.4146C113.723 28.6393 113.586 28.9087 113.519 29.1988C113.406 29.0419 113.28 28.8941 113.144 28.7568L112.44 28.0534C112.293 27.9092 112.096 27.8261 111.89 27.8208C111.683 27.8155 111.483 27.8884 111.328 28.0249L110.758 28.5335C110.622 28.6586 110.534 28.826 110.506 29.0082C110.478 29.1904 110.514 29.3766 110.606 29.5363Z" fill="#EAFAFF" opacity="0.7"/>
<path d="M132.173 26.1151C129.611 26.7942 127.157 27.8293 124.882 29.1901C124.528 29.4121 124.249 29.7374 124.084 30.1222C123.919 30.507 123.876 30.933 123.96 31.343C124.878 35.8295 126.964 41.8369 129.217 45.6627L139.725 41.3141C139.796 39.4605 137.244 33.4627 134.644 27.6645C134.179 26.6236 133.28 25.849 132.173 26.1151Z" fill="#407BFF"/>
<path d="M132.173 26.1151C129.611 26.7942 127.157 27.8293 124.882 29.1901C124.528 29.4121 124.249 29.7374 124.084 30.1222C123.919 30.507 123.876 30.933 123.96 31.343C124.878 35.8295 126.964 41.8369 129.217 45.6627L139.725 41.3141C139.796 39.4605 137.244 33.4627 134.644 27.6645C134.179 26.6236 133.28 25.849 132.173 26.1151Z" fill="#EAFAFF" opacity="0.8"/>
<path d="M136.267 31.338L134.18 30.6393C134.656 31.8608 136.333 33.4054 137.507 34.3131C137.127 33.3626 136.704 32.3646 136.267 31.338Z" fill="#407BFF" opacity="0.3"/>
<path d="M131.475 21.4096C130.605 19.7556 128.727 18.9239 126.475 19.1093C124.574 19.2709 122.891 21.21 123.091 22.2555C123.29 23.3011 124.887 23.7479 125.192 24.1091L123.875 25.0596C123.719 25.1722 123.588 25.3151 123.488 25.4799C123.389 25.6446 123.324 25.8277 123.297 26.0182C123.271 26.2087 123.283 26.4026 123.333 26.5882C123.384 26.7739 123.471 26.9474 123.59 27.0985C124.146 27.8019 124.878 28.5243 125.301 29.0566C128.941 28.9615 131.636 27.5737 132.61 26.2383C132.244 24.5463 132.32 23.054 131.475 21.4096Z" fill="#407BFF"/>
<path d="M131.475 21.4096C130.605 19.7556 128.727 18.9239 126.475 19.1093C124.574 19.2709 122.891 21.21 123.091 22.2555C123.29 23.3011 124.887 23.7479 125.192 24.1091L123.875 25.0596C123.719 25.1722 123.588 25.3151 123.488 25.4799C123.389 25.6446 123.324 25.8277 123.297 26.0182C123.271 26.2087 123.283 26.4026 123.333 26.5882C123.384 26.7739 123.471 26.9474 123.59 27.0985C124.146 27.8019 124.878 28.5243 125.301 29.0566C128.941 28.9615 131.636 27.5737 132.61 26.2383C132.244 24.5463 132.32 23.054 131.475 21.4096Z" fill="#EAFAFF" opacity="0.8"/>
<path d="M129.692 22.4347C129.951 23.0975 130.007 23.822 129.854 24.5168C129.7 25.2115 129.345 25.8451 128.831 26.3377C128.318 26.8302 127.67 27.1595 126.97 27.284C126.269 27.4084 125.548 27.3224 124.896 27.0368C124.245 26.7512 123.692 26.2788 123.309 25.6794C122.926 25.08 122.729 24.3804 122.743 23.6692C122.758 22.9579 122.983 22.2669 123.39 21.6834C123.797 21.0999 124.367 20.6502 125.03 20.391C125.919 20.0446 126.91 20.0652 127.784 20.4484C128.658 20.8315 129.344 21.5459 129.692 22.4347Z" fill="#405261"/>
<path d="M160.55 65.2677C160.498 63.7041 160.427 63.8419 160.384 62.5254C160.355 61.7175 160.35 60.8192 160.346 60.0445C160.344 59.6766 160.216 59.3206 159.982 59.0366C159.748 58.7525 159.423 58.5579 159.063 58.4857C158.435 58.3573 157.803 58.2385 157.161 58.1055C156.339 57.9296 155.527 57.7395 154.723 57.5066C154.096 57.326 153.478 57.1264 152.865 56.903C152.252 56.6797 151.563 56.4278 150.926 56.1331C150.175 55.8147 149.434 55.4725 148.702 55.116C147.88 54.7263 147.067 54.3176 146.254 53.9041C143.127 48.7285 143.06 45.3161 139.705 41.3144L132.5 44.5747C132.5 44.5747 137.794 53.9659 141.397 57.9486C143.474 60.2394 146.729 61.2755 149.633 62.0264C151.729 62.5634 153.854 62.9769 155.978 63.3714C156.805 63.5235 157.703 63.5805 158.416 64.0748C158.944 64.4792 159.305 65.0622 159.433 65.7144C159.465 65.8475 159.493 65.9806 159.519 66.1137C159.609 66.5129 160.583 66.2087 160.55 65.2677Z" fill="#407BFF"/>
<path d="M160.55 65.2677C160.498 63.7041 160.427 63.8419 160.384 62.5254C160.355 61.7175 160.35 60.8192 160.346 60.0445C160.344 59.6766 160.216 59.3206 159.982 59.0366C159.748 58.7525 159.423 58.5579 159.063 58.4857C158.435 58.3573 157.803 58.2385 157.161 58.1055C156.339 57.9296 155.527 57.7395 154.723 57.5066C154.096 57.326 153.478 57.1264 152.865 56.903C152.252 56.6797 151.563 56.4278 150.926 56.1331C150.175 55.8147 149.434 55.4725 148.702 55.116C147.88 54.7263 147.067 54.3176 146.254 53.9041C143.127 48.7285 143.06 45.3161 139.705 41.3144L132.5 44.5747C132.5 44.5747 137.794 53.9659 141.397 57.9486C143.474 60.2394 146.729 61.2755 149.633 62.0264C151.729 62.5634 153.854 62.9769 155.978 63.3714C156.805 63.5235 157.703 63.5805 158.416 64.0748C158.944 64.4792 159.305 65.0622 159.433 65.7144C159.465 65.8475 159.493 65.9806 159.519 66.1137C159.609 66.5129 160.583 66.2087 160.55 65.2677Z" fill="#EAFAFF" opacity="0.8"/>
<path d="M156.891 58.0433C156.606 57.9815 156.321 57.9197 156.031 57.8484C156.055 59.4929 155.285 62.3254 155.004 63.1857L155.907 63.3568C156.499 61.6448 156.831 59.8537 156.891 58.0433Z" fill="#407BFF" opacity="0.3"/>
<path d="M160.367 60.0435C160.366 59.6763 160.238 59.3208 160.005 59.0368C159.772 58.7529 159.449 58.5579 159.089 58.4846L158.614 58.3943C158.69 58.9346 158.967 59.4265 159.388 59.7726C159.66 60.0234 159.985 60.2088 160.339 60.3144C160.367 60.2289 160.367 60.1338 160.367 60.0435Z" fill="#407BFF" opacity="0.3"/>
<path d="M129.025 22.465C129.215 23.1874 128.407 23.943 127.765 23.3205C127.166 22.6784 126.511 22.0915 125.807 21.5667C125.147 21.1532 126.026 20.4308 127.067 20.7113C127.511 20.8228 127.921 21.0408 128.262 21.3463C128.603 21.6518 128.865 22.0358 129.025 22.465Z" fill="white"/>
<path d="M129.077 45.4301C128.745 45.5537 129.353 46.124 129.353 46.124C129.353 46.124 136.007 43.8475 140.046 41.5045C140.056 41.3626 140.032 41.2205 139.976 41.0899C139.919 40.9593 139.833 40.844 139.723 40.7535C136.266 42.5123 132.711 44.0737 129.077 45.4301Z" fill="#407BFF"/>
<path d="M129.077 45.4301C128.745 45.5537 129.353 46.124 129.353 46.124C129.353 46.124 136.007 43.8475 140.046 41.5045C140.056 41.3626 140.032 41.2205 139.976 41.0899C139.919 40.9593 139.833 40.844 139.723 40.7535C136.266 42.5123 132.711 44.0737 129.077 45.4301Z" fill="#EAFAFF" opacity="0.5"/>
<path d="M133.973 25.8009C135.285 26.4663 136.516 27.1649 137.775 27.9396C138.388 28.3293 138.997 28.7238 139.6 29.1515C140.204 29.5793 140.803 30.0165 141.406 30.5108L141.63 30.6961L141.91 30.9528C142.077 31.1023 142.236 31.2609 142.385 31.428C142.537 31.5944 142.666 31.756 142.789 31.9033C142.913 32.0506 143.046 32.2265 143.155 32.3786C143.598 32.9896 144.008 33.6242 144.381 34.2796C145.118 35.5506 145.754 36.8775 146.283 38.2481C146.38 38.507 146.385 38.7918 146.297 39.0541C146.208 39.3163 146.032 39.5398 145.797 39.6866C145.562 39.8333 145.284 39.8943 145.01 39.859C144.735 39.8238 144.481 39.6945 144.291 39.4933L144.267 39.4648C143.317 38.4524 142.4 37.3879 141.478 36.3945C140.556 35.4012 139.619 34.3937 138.845 33.9517C137.766 33.2816 136.563 32.6114 135.37 31.9556L131.777 29.9595C131.22 29.6645 130.803 29.1603 130.618 28.5578C130.432 27.9553 130.494 27.3038 130.789 26.7467C131.084 26.1896 131.588 25.7724 132.191 25.587C132.793 25.4016 133.445 25.4632 134.002 25.7581L133.973 25.8009Z" fill="#407BFF"/>
<path d="M133.973 25.8009C135.285 26.4663 136.516 27.1649 137.775 27.9396C138.388 28.3293 138.997 28.7238 139.6 29.1515C140.204 29.5793 140.803 30.0165 141.406 30.5108L141.63 30.6961L141.91 30.9528C142.077 31.1023 142.236 31.2609 142.385 31.428C142.537 31.5944 142.666 31.756 142.789 31.9033C142.913 32.0506 143.046 32.2265 143.155 32.3786C143.598 32.9896 144.008 33.6242 144.381 34.2796C145.118 35.5506 145.754 36.8775 146.283 38.2481C146.38 38.507 146.385 38.7918 146.297 39.0541C146.208 39.3163 146.032 39.5398 145.797 39.6866C145.562 39.8333 145.284 39.8943 145.01 39.859C144.735 39.8238 144.481 39.6945 144.291 39.4933L144.267 39.4648C143.317 38.4524 142.4 37.3879 141.478 36.3945C140.556 35.4012 139.619 34.3937 138.845 33.9517C137.766 33.2816 136.563 32.6114 135.37 31.9556L131.777 29.9595C131.22 29.6645 130.803 29.1603 130.618 28.5578C130.432 27.9553 130.494 27.3038 130.789 26.7467C131.084 26.1896 131.588 25.7724 132.191 25.587C132.793 25.4016 133.445 25.4632 134.002 25.7581L133.973 25.8009Z" fill="#EAFAFF" opacity="0.8"/>
<path d="M147.41 40.6202L147.006 39.6078C147.006 39.6078 146.782 38.3151 145.979 37.9539L143.603 38.3294L143.684 38.5385C143.902 39.0138 143.736 39.8835 143.522 40.5774C143.308 41.2713 143.669 41.3616 143.974 41.2237C144.145 41.1477 144.311 40.8388 144.492 40.5108C144.58 40.6761 144.68 40.8349 144.791 40.9861L145.376 41.7893C145.498 41.9557 145.678 42.0698 145.881 42.1086C146.084 42.1474 146.294 42.108 146.469 41.9984L147.115 41.5849C147.266 41.4814 147.378 41.3295 147.431 41.1542C147.485 40.9789 147.477 40.7905 147.41 40.6202Z" fill="#407BFF"/>
<path d="M147.41 40.6202L147.006 39.6078C147.006 39.6078 146.782 38.3151 145.979 37.9539L143.603 38.3294L143.684 38.5385C143.902 39.0138 143.736 39.8835 143.522 40.5774C143.308 41.2713 143.669 41.3616 143.974 41.2237C144.145 41.1477 144.311 40.8388 144.492 40.5108C144.58 40.6761 144.68 40.8349 144.791 40.9861L145.376 41.7893C145.498 41.9557 145.678 42.0698 145.881 42.1086C146.084 42.1474 146.294 42.108 146.469 41.9984L147.115 41.5849C147.266 41.4814 147.378 41.3295 147.431 41.1542C147.485 40.9789 147.477 40.7905 147.41 40.6202Z" fill="#EAFAFF" opacity="0.8"/>
<path d="M131.964 31.2661L131.384 31.3136L127.825 39.9064C128.019 39.9204 128.215 39.9044 128.405 39.8589C128.405 39.8589 133.043 38.1289 134.445 37.4825C133.504 35.5387 131.964 31.2661 131.964 31.2661Z" fill="#407BFF" opacity="0.3"/>
<path d="M125.473 33.5195C125.906 35.7657 126.709 37.9243 127.849 39.907C129.589 39.3082 132.488 38.1771 133.895 37.5307C132.949 35.5037 132.11 33.4287 131.381 31.3143C129.893 31.4141 126.628 32.664 125.473 33.5195Z" fill="white"/>
<path d="M129.003 35.377C128.934 35.6094 128.797 35.816 128.61 35.9706C128.423 36.1252 128.194 36.2209 127.953 36.2456C127.712 36.2703 127.468 36.2228 127.254 36.1093C127.04 35.9957 126.864 35.8211 126.749 35.6075C126.634 35.394 126.585 35.1511 126.608 34.9096C126.631 34.6681 126.725 34.4389 126.878 34.2509C127.031 34.0629 127.237 33.9246 127.469 33.8535C127.701 33.7824 127.949 33.7817 128.181 33.8514C128.492 33.9449 128.753 34.158 128.908 34.4441C129.062 34.7301 129.096 35.0657 129.003 35.377Z" fill="#008AF8" opacity="0.3"/>
<path d="M129.903 33.7437C129.885 33.823 129.843 33.8949 129.783 33.9499C129.723 34.0049 129.647 34.0404 129.567 34.0518C129.486 34.0632 129.404 34.05 129.331 34.0138C129.258 33.9777 129.197 33.9203 129.157 33.8492C129.118 33.7781 129.1 33.6967 129.108 33.6156C129.115 33.5344 129.147 33.4574 129.198 33.3946C129.25 33.3318 129.32 33.2861 129.398 33.2636C129.477 33.2411 129.56 33.2428 129.637 33.2684C129.733 33.2992 129.814 33.3654 129.864 33.4536C129.913 33.5418 129.927 33.6455 129.903 33.7437Z" fill="#008AF8" opacity="0.6"/>
<path d="M130.968 33.3298C130.957 33.385 130.935 33.4372 130.902 33.4831C130.87 33.529 130.828 33.5676 130.78 33.5965C130.731 33.6253 130.678 33.6438 130.622 33.6507C130.566 33.6575 130.509 33.6527 130.455 33.6364C130.402 33.6201 130.352 33.5927 130.309 33.5561C130.266 33.5194 130.232 33.4742 130.208 33.4235C130.184 33.3727 130.17 33.3174 130.169 33.2612C130.167 33.205 130.177 33.149 130.198 33.0969C130.214 33.0467 130.239 32.9999 130.272 32.9592C130.305 32.9186 130.346 32.885 130.393 32.8603C130.439 32.8355 130.49 32.8202 130.542 32.8151C130.594 32.8101 130.647 32.8154 130.697 32.8308C130.799 32.8616 130.885 32.9313 130.935 33.0247C130.986 33.1181 130.998 33.2277 130.968 33.3298Z" fill="#008AF8" opacity="0.6"/>
<path d="M132.463 37.0307L128.066 38.7654L127.805 37.9005L132.196 36.1657L132.463 37.0307Z" fill="#008AF8" opacity="0.5"/>
<path d="M108.203 103.084C108.193 105.851 107.925 108.612 107.404 111.33C106.843 113.772 105.972 115.559 104.79 116.691C104.24 117.237 103.586 117.668 102.867 117.96C102.148 118.251 101.379 118.396 100.603 118.387C98.1604 118.387 96.2958 117.055 95.0094 114.39C94.7834 113.912 94.5912 113.418 94.4343 112.912C91.7176 115.246 89.1878 117.788 86.8681 120.516L84.3445 123.492C85.7026 124.868 87.2697 126.021 88.9878 126.909C91.9471 128.439 95.8316 129.206 100.641 129.209C101.487 129.209 102.305 129.185 103.098 129.138C106.008 124.832 108.416 120.208 110.275 115.355L117.333 96.9528L108.203 103.084Z" fill="#1D2B36" opacity="0.2"/>
<path d="M44.582 128.191L52.8992 136.508L76.1871 114.565C68.1599 111.5 52.5522 120.202 44.582 128.191Z" fill="#405261"/>
<path d="M73.5823 157.183C70.9255 154.521 65.2651 148.865 65.2651 148.865L87.2081 125.578C90.2545 133.586 81.5524 149.208 73.5823 157.183Z" fill="#405261"/>
<path d="M105.421 104.761L114.494 87.2666L96.9992 96.3489C91.3799 99.2632 86.1914 102.942 81.5816 107.28L51.7588 135.354L66.4112 150.006L94.4851 120.183C98.8252 115.572 102.506 110.382 105.421 104.761Z" fill="#407BFF"/>
<path d="M105.421 104.761L114.494 87.2666L96.9992 96.3489C91.3799 99.2632 86.1914 102.942 81.5816 107.28L51.7588 135.354L66.4112 150.006L94.4851 120.183C98.8252 115.572 102.506 110.382 105.421 104.761Z" fill="#EAFAFF" opacity="0.6"/>
<path d="M86.784 121.101C90.17 121.101 92.9149 118.356 92.9149 114.97C92.9149 111.584 90.17 108.839 86.784 108.839C83.398 108.839 80.6531 111.584 80.6531 114.97C80.6531 118.356 83.398 121.101 86.784 121.101Z" fill="white"/>
<path d="M86.7837 118.91C88.9597 118.91 90.7236 117.146 90.7236 114.97C90.7236 112.794 88.9597 111.03 86.7837 111.03C84.6077 111.03 82.8438 112.794 82.8438 114.97C82.8438 117.146 84.6077 118.91 86.7837 118.91Z" fill="#008AF8"/>
<path d="M71.3646 144.74L57.0164 130.392L68.7649 119.337L82.4192 132.996L71.3646 144.74Z" fill="#008AF8" opacity="0.3"/>
<path d="M47.8246 141.318C37.0836 142.188 33.5239 149.065 32.3072 158.205C31.6893 162.867 31.4137 167.586 27.5023 170.314C27.2669 170.474 27.0898 170.706 26.9973 170.975C26.9048 171.244 26.902 171.536 26.9892 171.807C27.0764 172.078 27.249 172.313 27.4812 172.477C27.7133 172.642 27.9925 172.727 28.2769 172.719C42.6965 172.268 49.4214 165.21 50.2674 162.263C50.0454 163.804 49.6483 165.314 49.084 166.764C48.9803 167.02 48.96 167.302 49.026 167.57C49.092 167.839 49.2409 168.079 49.4516 168.258C49.6623 168.436 49.9239 168.544 50.1993 168.565C50.4746 168.586 50.7496 168.52 50.9851 168.375C55.0296 165.842 60.1054 161.175 60.4428 153.604C57.4677 149.388 47.8246 141.318 47.8246 141.318Z" fill="#407BFF"/>
<path d="M47.8246 141.318C37.0836 142.188 33.5239 149.065 32.3072 158.205C31.6893 162.867 31.4137 167.586 27.5023 170.314C27.2669 170.474 27.0898 170.706 26.9973 170.975C26.9048 171.244 26.902 171.536 26.9892 171.807C27.0764 172.078 27.249 172.313 27.4812 172.477C27.7133 172.642 27.9925 172.727 28.2769 172.719C42.6965 172.268 49.4214 165.21 50.2674 162.263C50.0454 163.804 49.6483 165.314 49.084 166.764C48.9803 167.02 48.96 167.302 49.026 167.57C49.092 167.839 49.2409 168.079 49.4516 168.258C49.6623 168.436 49.9239 168.544 50.1993 168.565C50.4746 168.586 50.7496 168.52 50.9851 168.375C55.0296 165.842 60.1054 161.175 60.4428 153.604C57.4677 149.388 47.8246 141.318 47.8246 141.318Z" fill="#EAFAFF" opacity="0.2"/>
<path d="M62.1116 156.85L44.907 139.646L54.0701 137.664L64.0934 147.687L62.1116 156.85Z" fill="#008AF8"/>
</svg>
