<svg width="200" height="200" viewBox="0 0 200 200" fill="none" xmlns="http://www.w3.org/2000/svg">
<path d="M34.9114 60.8232L35.6813 62.3774L37.4018 62.6292L36.1566 63.8412L36.4513 65.5521L34.9114 64.7442L33.3763 65.5521L33.671 63.8412L32.4258 62.6292L34.1462 62.3774L34.9114 60.8232Z" fill="#F1F3F5"/>
<path d="M188.732 134.124L189.502 135.683L191.222 135.935L189.977 137.142L190.272 138.858L188.732 138.05L187.197 138.858L187.491 137.142L186.246 135.935L187.967 135.683L188.732 134.124Z" fill="#F1F3F5"/>
<path d="M158.267 179.317L159.037 180.871L160.753 181.123L159.507 182.335L159.802 184.046L158.267 183.238L156.732 184.046L157.022 182.335L155.781 181.123L157.497 180.871L158.267 179.317Z" fill="#F1F3F5"/>
<path d="M88.5648 33.211L88.8499 33.7908L89.4915 33.8859C89.5274 33.8906 89.5611 33.9053 89.5888 33.9285C89.6165 33.9516 89.637 33.9822 89.648 34.0166C89.659 34.051 89.6599 34.0878 89.6507 34.1228C89.6415 34.1577 89.6226 34.1893 89.5961 34.2138L89.1208 34.6653L89.2301 35.3022C89.2358 35.3376 89.2315 35.3739 89.2178 35.4071C89.2041 35.4402 89.1815 35.469 89.1525 35.4901C89.1235 35.5112 89.0892 35.524 89.0534 35.5269C89.0176 35.5298 88.9818 35.5227 88.9497 35.5065L88.3794 35.2023L87.8091 35.5065C87.7771 35.5227 87.7412 35.5298 87.7054 35.5269C87.6697 35.524 87.6354 35.5112 87.6064 35.4901C87.5774 35.469 87.5548 35.4402 87.5411 35.4071C87.5274 35.3739 87.5231 35.3376 87.5287 35.3022L87.6333 34.6653L87.158 34.2138C87.1314 34.189 87.1125 34.157 87.1035 34.1217C87.0945 34.0864 87.0959 34.0493 87.1074 34.0148C87.1189 33.9802 87.1401 33.9497 87.1685 33.9269C87.1968 33.904 87.2311 33.8898 87.2673 33.8859L87.9042 33.7908L88.1893 33.211C88.2007 33.17 88.2253 33.1338 88.2592 33.1081C88.2931 33.0823 88.3345 33.0684 88.3771 33.0684C88.4196 33.0684 88.461 33.0823 88.4949 33.1081C88.5288 33.1338 88.5534 33.17 88.5648 33.211Z" fill="#F1F3F5"/>
<path d="M10.071 171.917L10.3562 172.492L10.993 172.587C11.0292 172.592 11.0632 172.607 11.0912 172.63C11.1193 172.654 11.1402 172.685 11.1515 172.719C11.1629 172.754 11.1644 172.791 11.1557 172.827C11.147 172.862 11.1285 172.894 11.1023 172.92L10.6271 173.367L10.7364 174.003C10.742 174.039 10.7377 174.075 10.724 174.108C10.7103 174.141 10.6877 174.17 10.6587 174.191C10.6297 174.212 10.5954 174.225 10.5596 174.228C10.5239 174.231 10.488 174.224 10.456 174.208L9.88565 173.908L9.31533 174.208C9.2833 174.224 9.24743 174.231 9.21166 174.228C9.17589 174.225 9.14162 174.212 9.11261 174.191C9.08361 174.17 9.06101 174.141 9.0473 174.108C9.03359 174.075 9.02931 174.039 9.03492 174.003L9.14423 173.367L8.66897 172.92C8.6429 172.895 8.62435 172.863 8.61541 172.828C8.60647 172.793 8.60748 172.756 8.61834 172.721C8.6292 172.687 8.64947 172.656 8.67688 172.632C8.7043 172.608 8.73776 172.593 8.77353 172.587L9.41038 172.492L9.70029 171.917C9.71299 171.878 9.73777 171.844 9.77107 171.819C9.80437 171.795 9.84448 171.782 9.88565 171.782C9.92681 171.782 9.96692 171.795 10.0002 171.819C10.0335 171.844 10.0583 171.878 10.071 171.917Z" fill="#F1F3F5"/>
<path d="M22.8954 27.1044L23.1806 27.6842L23.8222 27.7745C23.858 27.7802 23.8914 27.7958 23.9188 27.8194C23.9463 27.8431 23.9665 27.8739 23.9774 27.9085C23.9882 27.943 23.9893 27.9799 23.9803 28.015C23.9714 28.0501 23.9528 28.082 23.9268 28.1072L23.4515 28.5824L23.5608 29.2145C23.5684 29.2504 23.5655 29.2877 23.5523 29.322C23.5392 29.3562 23.5164 29.3859 23.4868 29.4075C23.4571 29.4291 23.4219 29.4417 23.3853 29.4437C23.3486 29.4457 23.3122 29.4371 23.2804 29.4189L22.7101 29.1195L22.1398 29.4189C22.1079 29.4371 22.0715 29.4457 22.0349 29.4437C21.9983 29.4417 21.963 29.4291 21.9334 29.4075C21.9037 29.3859 21.881 29.3562 21.8678 29.322C21.8547 29.2877 21.8518 29.2504 21.8594 29.2145L21.9639 28.5824L21.4887 28.1072C21.4625 28.0817 21.444 28.0494 21.4353 28.014C21.4266 27.9785 21.428 27.9414 21.4394 27.9067C21.4508 27.872 21.4717 27.8412 21.4997 27.8179C21.5278 27.7945 21.5618 27.7795 21.598 27.7745L22.2348 27.6842L22.539 27.1044C22.5543 27.0698 22.5792 27.0405 22.6109 27.0199C22.6425 26.9993 22.6794 26.9883 22.7172 26.9883C22.755 26.9883 22.7919 26.9993 22.8236 27.0199C22.8552 27.0405 22.8802 27.0698 22.8954 27.1044Z" fill="#F1F3F5"/>
<path d="M22.1197 141.652C22.1206 141.777 22.0843 141.9 22.0154 142.004C21.9466 142.109 21.8482 142.191 21.7328 142.239C21.6173 142.288 21.4901 142.301 21.3672 142.277C21.2442 142.253 21.1312 142.193 21.0423 142.105C20.9534 142.017 20.8927 141.904 20.868 141.782C20.8432 141.659 20.8554 141.532 20.9031 141.416C20.9508 141.3 21.0318 141.201 21.1359 141.131C21.2399 141.062 21.3623 141.024 21.4876 141.024C21.6544 141.024 21.8144 141.09 21.9328 141.208C22.0512 141.325 22.1184 141.485 22.1197 141.652Z" fill="#F1F3F5"/>
<path d="M112.202 62.5541C112.203 62.6793 112.166 62.802 112.097 62.9066C112.029 63.0112 111.93 63.0929 111.815 63.1415C111.699 63.1901 111.572 63.2033 111.449 63.1794C111.326 63.1556 111.213 63.0957 111.124 63.0075C111.035 62.9193 110.975 62.8067 110.95 62.684C110.925 62.5612 110.937 62.4339 110.985 62.3181C111.033 62.2023 111.114 62.1033 111.218 62.0336C111.322 61.964 111.444 61.9268 111.57 61.9268C111.652 61.9261 111.734 61.9419 111.811 61.9732C111.888 62.0044 111.957 62.0505 112.016 62.1088C112.075 62.1671 112.122 62.2365 112.153 62.3129C112.185 62.3894 112.202 62.4713 112.202 62.5541Z" fill="#F1F3F5"/>
<path d="M79.4283 27.6262C79.4283 27.7513 79.3912 27.8735 79.3217 27.9774C79.2523 28.0814 79.1536 28.1624 79.0381 28.2102C78.9226 28.2581 78.7955 28.2706 78.6728 28.2462C78.5502 28.2218 78.4376 28.1616 78.3492 28.0732C78.2608 27.9848 78.2006 27.8722 78.1762 27.7496C78.1518 27.6269 78.1643 27.4998 78.2122 27.3843C78.26 27.2688 78.341 27.1701 78.445 27.1007C78.5489 27.0312 78.6711 26.9941 78.7962 26.9941C78.9634 26.9954 79.1235 27.0624 79.2418 27.1807C79.36 27.2989 79.427 27.459 79.4283 27.6262Z" fill="#F1F3F5"/>
<path d="M80.4226 181.681C82.3002 181.238 83.4631 179.356 83.02 177.479C82.5768 175.601 80.6954 174.438 78.8178 174.881C76.9401 175.324 75.7772 177.206 76.2204 179.083C76.6636 180.961 78.545 182.124 80.4226 181.681Z" fill="#F1F3F5"/>
<path d="M78.4265 176.237C77.7109 176.236 77.0135 176.462 76.4352 176.884C76.1398 177.561 76.0673 178.315 76.2281 179.037C76.3889 179.758 76.7747 180.41 77.3298 180.898C77.885 181.386 78.5808 181.685 79.3169 181.752C80.053 181.819 80.7913 181.65 81.4254 181.27C81.7061 180.751 81.8472 180.168 81.8347 179.578C81.8223 178.988 81.6568 178.411 81.3545 177.904C81.0522 177.397 80.6234 176.978 80.1101 176.686C79.5969 176.395 79.0167 176.242 78.4265 176.242V176.237Z" fill="#F1F3F5"/>
<path d="M51.3691 117.566H22.4492V104.511L51.3691 70.1299H65.2088V105.252H72.3805V117.566H65.2088V128.25H51.3691V117.566ZM51.3691 105.252V87.2679L36.0846 105.252H51.3691Z" fill="#1265E5"/>
<path d="M77.3299 99.4439C77.3299 88.5794 79.2848 80.9752 83.1946 76.6312C87.1045 72.2873 93.0627 70.117 101.069 70.1201C104.913 70.1201 108.07 70.5954 110.541 71.5459C112.786 72.3549 114.842 73.6148 116.582 75.2482C118.048 76.6483 119.291 78.2657 120.265 80.0436C121.23 81.8999 121.956 83.8704 122.428 85.9084C123.502 90.2622 124.039 94.7314 124.025 99.2158C124.025 109.583 122.271 117.17 118.763 121.976C115.256 126.783 109.215 129.188 100.642 129.191C95.8319 129.191 91.9459 128.424 88.9834 126.89C85.9971 125.332 83.4817 123.004 81.6976 120.146C80.3193 118.043 79.2468 115.164 78.48 111.511C77.684 107.539 77.2986 103.495 77.3299 99.4439ZM93.0801 99.482C93.0801 106.769 93.7218 111.739 95.005 114.391C96.2882 117.043 98.1528 118.375 100.599 118.388C101.375 118.397 102.145 118.251 102.865 117.96C103.584 117.669 104.239 117.237 104.791 116.691C105.976 115.56 106.847 113.773 107.405 111.33C107.962 108.887 108.241 105.085 108.241 99.924C108.241 92.3387 107.598 87.2391 106.312 84.6252C105.025 82.0112 103.096 80.7058 100.523 80.709C97.8993 80.709 95.9983 82.0413 94.8196 84.706C93.641 87.3706 93.0611 92.296 93.0801 99.482Z" fill="#1265E5"/>
<path d="M157.857 117.566H128.938V104.511L157.857 70.1299H171.697V105.252H178.893V117.566H171.697V128.25H157.857V117.566ZM157.857 105.252V87.2679L142.578 105.252H157.857Z" fill="#1265E5"/>
<g opacity="0.3">
<path opacity="0.3" d="M76.715 50.0675C76.715 50.2434 76.6627 50.4155 76.5649 50.5617C76.467 50.708 76.3279 50.8219 76.1652 50.889C76.0026 50.9561 75.8236 50.9735 75.6511 50.9388C75.4786 50.9041 75.3202 50.819 75.1961 50.6942C75.072 50.5694 74.9878 50.4106 74.954 50.2379C74.9202 50.0652 74.9385 49.8864 75.0065 49.7241C75.0745 49.5617 75.1892 49.4233 75.3359 49.3262C75.4827 49.2291 75.655 49.1778 75.831 49.1787C75.9475 49.1787 76.0628 49.2017 76.1704 49.2465C76.278 49.2912 76.3756 49.3567 76.4578 49.4393C76.5399 49.5219 76.6049 49.6199 76.6491 49.7277C76.6932 49.8355 76.7156 49.951 76.715 50.0675Z" fill="#407BFF"/>
<path opacity="0.3" d="M15.8656 84.2059C16.2121 84.2059 16.493 83.925 16.493 83.5785C16.493 83.232 16.2121 82.9512 15.8656 82.9512C15.5192 82.9512 15.2383 83.232 15.2383 83.5785C15.2383 83.925 15.5192 84.2059 15.8656 84.2059Z" fill="#407BFF"/>
<path opacity="0.3" d="M119.515 175.823C120.012 175.823 120.414 175.421 120.414 174.925C120.414 174.429 120.012 174.026 119.515 174.026C119.019 174.026 118.617 174.429 118.617 174.925C118.617 175.421 119.019 175.823 119.515 175.823Z" fill="#407BFF"/>
<path opacity="0.3" d="M141.108 139.274C141.454 139.274 141.735 138.993 141.735 138.647C141.735 138.3 141.454 138.02 141.108 138.02C140.761 138.02 140.48 138.3 140.48 138.647C140.48 138.993 140.761 139.274 141.108 139.274Z" fill="#407BFF"/>
<path opacity="0.3" d="M182.778 26.3051C182.778 26.4292 182.741 26.5505 182.672 26.6536C182.603 26.7568 182.505 26.8372 182.391 26.8847C182.276 26.9322 182.15 26.9446 182.028 26.9204C181.907 26.8962 181.795 26.8364 181.707 26.7487C181.619 26.6609 181.56 26.5492 181.535 26.4275C181.511 26.3058 181.524 26.1796 181.571 26.065C181.619 25.9504 181.699 25.8524 181.802 25.7835C181.905 25.7145 182.027 25.6777 182.151 25.6777C182.317 25.6777 182.477 25.7438 182.594 25.8615C182.712 25.9791 182.778 26.1387 182.778 26.3051Z" fill="#407BFF"/>
<path opacity="0.3" d="M63.2859 13.6527C63.2859 13.7768 63.2492 13.8981 63.1802 14.0013C63.1113 14.1044 63.0133 14.1849 62.8987 14.2323C62.784 14.2798 62.6579 14.2922 62.5362 14.268C62.4145 14.2438 62.3027 14.1841 62.215 14.0963C62.1273 14.0086 62.0675 13.8968 62.0433 13.7751C62.0191 13.6534 62.0315 13.5273 62.079 13.4127C62.1265 13.298 62.2069 13.2001 62.3101 13.1311C62.4132 13.0622 62.5345 13.0254 62.6586 13.0254C62.8246 13.0266 62.9834 13.0931 63.1008 13.2105C63.2182 13.3279 63.2847 13.4867 63.2859 13.6527Z" fill="#407BFF"/>
<path opacity="0.3" d="M113.163 46.5701C113.509 46.5701 113.79 46.2893 113.79 45.9428C113.79 45.5963 113.509 45.3154 113.163 45.3154C112.816 45.3154 112.535 45.5963 112.535 45.9428C112.535 46.2893 112.816 46.5701 113.163 46.5701Z" fill="#407BFF"/>
</g>
<path d="M48.3076 46.5741C54.0585 46.5741 58.7206 41.9121 58.7206 36.1611C58.7206 30.4101 54.0585 25.748 48.3076 25.748C42.5566 25.748 37.8945 30.4101 37.8945 36.1611C37.8945 41.9121 42.5566 46.5741 48.3076 46.5741Z" fill="#407BFF"/>
<path opacity="0.7" d="M48.3076 46.5741C54.0585 46.5741 58.7206 41.9121 58.7206 36.1611C58.7206 30.4101 54.0585 25.748 48.3076 25.748C42.5566 25.748 37.8945 30.4101 37.8945 36.1611C37.8945 41.9121 42.5566 46.5741 48.3076 46.5741Z" fill="#DBE9FF"/>
<path opacity="0.2" d="M44.7164 28.3057C43.2983 28.3014 41.8943 28.5877 40.5911 29.1469C38.9895 30.9073 38.0388 33.1629 37.8973 35.5386C37.7559 37.9143 38.4321 40.2669 39.8135 42.2049C41.1949 44.1428 43.1982 45.5494 45.4902 46.1906C47.7821 46.8317 50.2245 46.6688 52.4109 45.7289C53.7665 44.235 54.6592 42.3796 54.9806 40.3881C55.302 38.3965 55.0383 36.3545 54.2215 34.51C53.4047 32.6654 52.0699 31.0977 50.3792 29.9972C48.6885 28.8967 46.7147 28.3107 44.6974 28.3105L44.7164 28.3057Z" fill="#407BFF"/>
<path opacity="0.2" d="M43.6823 31.057C43.6823 31.245 43.6266 31.4287 43.5221 31.5851C43.4177 31.7414 43.2692 31.8632 43.0955 31.9351C42.9218 32.0071 42.7307 32.0259 42.5463 31.9892C42.362 31.9526 42.1926 31.862 42.0597 31.7291C41.9267 31.5962 41.8362 31.4268 41.7995 31.2424C41.7628 31.058 41.7817 30.8669 41.8536 30.6932C41.9255 30.5195 42.0474 30.3711 42.2037 30.2666C42.36 30.1622 42.5438 30.1064 42.7318 30.1064C42.9839 30.1064 43.2256 30.2066 43.4039 30.3848C43.5822 30.5631 43.6823 30.8049 43.6823 31.057Z" fill="#1265E5"/>
<path opacity="0.2" d="M54.8815 30.1068C54.8815 30.2948 54.8258 30.4785 54.7213 30.6349C54.6169 30.7912 54.4684 30.913 54.2947 30.985C54.1211 31.0569 53.9299 31.0757 53.7456 31.039C53.5612 31.0024 53.3918 30.9118 53.2589 30.7789C53.1259 30.646 53.0354 30.4766 52.9987 30.2922C52.9621 30.1078 52.9809 29.9167 53.0528 29.743C53.1248 29.5693 53.2466 29.4209 53.4029 29.3164C53.5592 29.212 53.743 29.1562 53.931 29.1562C54.1831 29.1562 54.4249 29.2564 54.6031 29.4347C54.7814 29.6129 54.8815 29.8547 54.8815 30.1068Z" fill="#1265E5"/>
<path opacity="0.2" d="M52.9771 36.8938C52.9771 37.2021 52.8857 37.5035 52.7144 37.7599C52.5431 38.0162 52.2996 38.216 52.0148 38.334C51.73 38.452 51.4165 38.4829 51.1141 38.4227C50.8117 38.3626 50.534 38.2141 50.316 37.9961C50.0979 37.7781 49.9495 37.5003 49.8893 37.1979C49.8292 36.8956 49.8601 36.5821 49.978 36.2973C50.096 36.0124 50.2958 35.769 50.5522 35.5977C50.8085 35.4264 51.1099 35.335 51.4182 35.335C51.8317 35.335 52.2282 35.4992 52.5205 35.7915C52.8129 36.0839 52.9771 36.4804 52.9771 36.8938Z" fill="#1265E5"/>
<path opacity="0.2" d="M48.0305 41.3375C48.0305 41.7492 47.9084 42.1517 47.6797 42.494C47.4509 42.8363 47.1258 43.1032 46.7455 43.2607C46.3651 43.4183 45.9465 43.4595 45.5427 43.3792C45.1389 43.2989 44.768 43.1006 44.4769 42.8095C44.1858 42.5183 43.9875 42.1474 43.9072 41.7436C43.8269 41.3398 43.8681 40.9213 44.0256 40.5409C44.1832 40.1605 44.45 39.8354 44.7923 39.6067C45.1347 39.3779 45.5371 39.2559 45.9488 39.2559C46.5009 39.2559 47.0304 39.4752 47.4208 39.8656C47.8112 40.2559 48.0305 40.7854 48.0305 41.3375Z" fill="#1265E5"/>
<path d="M171.721 161.768C172.881 156.855 169.838 151.933 164.926 150.773C160.013 149.614 155.091 152.656 153.931 157.569C152.772 162.481 155.814 167.404 160.727 168.563C165.64 169.723 170.562 166.68 171.721 161.768Z" fill="#407BFF"/>
<path opacity="0.3" d="M171.721 161.768C172.881 156.855 169.838 151.933 164.926 150.773C160.013 149.614 155.091 152.656 153.931 157.569C152.772 162.481 155.814 167.404 160.727 168.563C165.64 169.723 170.562 166.68 171.721 161.768Z" fill="#DBE9FF"/>
<path opacity="0.4" d="M168.594 152.592C166.568 151.98 164.393 152.091 162.44 152.906C160.486 153.72 158.876 155.187 157.885 157.057C156.893 158.927 156.582 161.083 157.003 163.157C157.425 165.23 158.554 167.093 160.196 168.428C161.048 168.686 161.934 168.818 162.825 168.817C164.711 168.817 166.552 168.233 168.093 167.144C169.635 166.056 170.802 164.518 171.434 162.74C172.066 160.962 172.132 159.033 171.624 157.215C171.116 155.398 170.057 153.783 168.594 152.592Z" fill="#1265E5"/>
<path d="M154.105 162.41C144.348 167.001 151.625 170.542 165.374 165.599C178.106 161.023 182.959 155.253 171.552 157.045C172.166 159.445 156.22 165.656 154.105 162.41Z" fill="#1265E5"/>
<path opacity="0.2" d="M168.498 70.1289C155.718 78.7645 139.174 90.1708 134.607 117.565H133.633C138.077 90.475 154.017 78.7977 166.802 70.1289H168.498Z" fill="black"/>
<path d="M102.383 155.887C94.3039 155.887 86.3147 152.241 82.4223 146.291C80.0222 142.613 77.2324 134.909 85.54 124.629L86.2767 125.227C80.4024 132.499 79.3188 139.794 83.2208 145.773C87.9734 153.045 99.1849 156.704 108.757 154.1C118.561 151.433 124.512 142.907 125.087 130.707C127.05 88.9742 149.221 76.1183 165.408 66.7318C175.47 60.9003 182.736 56.6895 181.139 47.7973C180.916 46.5663 180.427 45.7156 179.633 45.1928C177.566 43.8288 173.526 44.7746 168.849 45.863C159.672 48.0017 147.106 50.9293 139.62 38.1969L140.443 37.7217C147.572 49.8552 159.249 47.1319 168.635 44.9457C173.526 43.8098 177.746 42.826 180.156 44.4087C181.178 45.0788 181.805 46.1386 182.057 47.6404C183.772 57.1838 175.878 61.7653 165.874 67.5635C149.872 76.8407 127.962 89.5445 126.023 130.774C125.424 143.416 119.217 152.26 108.99 155.041C106.835 155.615 104.613 155.899 102.383 155.887Z" fill="#407BFF"/>
<path opacity="0.2" d="M102.383 155.887C94.3039 155.887 86.3147 152.241 82.4223 146.291C80.0222 142.613 77.2324 134.909 85.54 124.629L86.2767 125.227C80.4024 132.499 79.3188 139.794 83.2208 145.773C87.9734 153.045 99.1849 156.704 108.757 154.1C118.561 151.433 124.512 142.907 125.087 130.707C127.05 88.9742 149.221 76.1183 165.408 66.7318C175.47 60.9003 182.736 56.6895 181.139 47.7973C180.916 46.5663 180.427 45.7156 179.633 45.1928C177.566 43.8288 173.526 44.7746 168.849 45.863C159.672 48.0017 147.106 50.9293 139.62 38.1969L140.443 37.7217C147.572 49.8552 159.249 47.1319 168.635 44.9457C173.526 43.8098 177.746 42.826 180.156 44.4087C181.178 45.0788 181.805 46.1386 182.057 47.6404C183.772 57.1838 175.878 61.7653 165.874 67.5635C149.872 76.8407 127.962 89.5445 126.023 130.774C125.424 143.416 119.217 152.26 108.99 155.041C106.835 155.615 104.613 155.899 102.383 155.887Z" fill="#DBE9FF"/>
<path d="M129.832 26.9609C132.022 26.9736 134.198 27.3148 136.286 27.9732C136.286 27.9732 141.514 36.894 142.132 38.9376C141.913 40.9527 138.515 44.2558 138.515 44.2558L129.832 26.9609Z" fill="#407BFF"/>
<path opacity="0.3" d="M129.832 26.9609C132.022 26.9736 134.198 27.3148 136.286 27.9732C136.286 27.9732 141.514 36.894 142.132 38.9376C141.913 40.9527 138.515 44.2558 138.515 44.2558L129.832 26.9609Z" fill="#DBE9FF"/>
<path d="M145.321 70.2705C143.307 67.8088 141.472 65.2073 139.827 62.4856C139.427 61.7981 139.049 61.0979 138.691 60.385C138.486 59.981 138.292 59.577 138.101 59.1683C137.852 58.7706 137.658 58.3404 137.526 57.8898C136.956 51.8682 139.019 47.434 137.051 42.6006L129.219 45.6613C129.219 45.6613 129.884 54.2731 131.405 59.444C132.355 62.6425 134.485 65.4085 136.543 67.9702C137.184 68.7686 137.802 69.5909 138.444 70.394C139.085 71.1972 139.732 71.8484 140.345 72.604C141.271 73.7494 141.576 74.8473 140.877 76.197L140.758 76.4109C140.559 76.7626 141.49 77.1618 142.079 76.4109C143.03 75.1847 142.897 75.2608 143.724 74.2152C144.228 73.5831 144.803 72.8939 145.302 72.3141C145.542 72.029 145.676 71.6688 145.68 71.2957C145.683 70.9226 145.556 70.56 145.321 70.2705Z" fill="#407BFF"/>
<path opacity="0.7" d="M145.321 70.2705C143.307 67.8088 141.472 65.2073 139.827 62.4856C139.427 61.7981 139.049 61.0979 138.691 60.385C138.486 59.981 138.292 59.577 138.101 59.1683C137.852 58.7706 137.658 58.3404 137.526 57.8898C136.956 51.8682 139.019 47.434 137.051 42.6006L129.219 45.6613C129.219 45.6613 129.884 54.2731 131.405 59.444C132.355 62.6425 134.485 65.4085 136.543 67.9702C137.184 68.7686 137.802 69.5909 138.444 70.394C139.085 71.1972 139.732 71.8484 140.345 72.604C141.271 73.7494 141.576 74.8473 140.877 76.197L140.758 76.4109C140.559 76.7626 141.49 77.1618 142.079 76.4109C143.03 75.1847 142.897 75.2608 143.724 74.2152C144.228 73.5831 144.803 72.8939 145.302 72.3141C145.542 72.029 145.676 71.6688 145.68 71.2957C145.683 70.9226 145.556 70.56 145.321 70.2705Z" fill="#DBE9FF"/>
<path opacity="0.3" d="M143.405 67.7959C142.162 69.1282 140.782 70.3261 139.289 71.3699C139.493 71.598 139.693 71.8451 139.897 72.0638C141.393 71.0536 142.75 69.8539 143.937 68.4945L143.405 67.7959Z" fill="#407BFF"/>
<path opacity="0.3" d="M145.321 70.2716L145.264 70.2051C144.898 70.6246 144.685 71.1557 144.66 71.7117C144.629 72.0931 144.691 72.4762 144.841 72.8285L145.292 72.2915C145.528 72.0093 145.66 71.6545 145.665 71.2866C145.67 70.9188 145.549 70.5604 145.321 70.2716Z" fill="#407BFF"/>
<path d="M127.971 32.6639C127.122 33.9353 126.103 35.0849 124.944 36.081C124.3 36.6354 123.595 37.1138 122.843 37.5068C122.447 37.7095 122.038 37.8826 121.617 38.0249L121.293 38.1294L121.189 38.1579L120.966 38.2197C120.828 38.2524 120.688 38.2746 120.547 38.2863C120.146 38.3169 119.743 38.28 119.354 38.177C118.864 38.0378 118.394 37.8349 117.957 37.5734C117.605 37.3677 117.264 37.144 116.935 36.9033C116.341 36.4613 115.773 35.9852 115.234 35.4775C114.194 34.4924 113.24 33.4208 112.382 32.2742C112.217 32.0508 112.135 31.7767 112.15 31.4993C112.165 31.2219 112.277 30.9585 112.466 30.7546C112.655 30.5506 112.909 30.419 113.184 30.3823C113.459 30.3456 113.739 30.4063 113.974 30.5537H114.012C115.134 31.2666 116.265 32.0175 117.368 32.6877C117.929 33.0156 118.47 33.3483 119.007 33.6049C119.253 33.7333 119.505 33.8475 119.763 33.9471C119.924 34.0181 120.096 34.06 120.272 34.0707C120.3 34.0707 120.272 34.0374 120.096 34.0422C120.04 34.0388 119.985 34.0388 119.929 34.0422L119.825 34.0659L119.982 33.9851C120.193 33.8715 120.398 33.7462 120.595 33.6097C121.02 33.3098 121.418 32.9726 121.783 32.6021C122.613 31.732 123.391 30.8131 124.112 29.8503C124.507 29.4085 125.053 29.1301 125.642 29.0699C126.232 29.0097 126.823 29.172 127.299 29.5249C127.775 29.8778 128.102 30.3959 128.216 30.9775C128.329 31.5591 128.222 32.1623 127.914 32.6686L127.971 32.6639Z" fill="#407BFF"/>
<path opacity="0.7" d="M127.971 32.6639C127.122 33.9353 126.103 35.0849 124.944 36.081C124.3 36.6354 123.595 37.1138 122.843 37.5068C122.447 37.7095 122.038 37.8826 121.617 38.0249L121.293 38.1294L121.189 38.1579L120.966 38.2197C120.828 38.2524 120.688 38.2746 120.547 38.2863C120.146 38.3169 119.743 38.28 119.354 38.177C118.864 38.0378 118.394 37.8349 117.957 37.5734C117.605 37.3677 117.264 37.144 116.935 36.9033C116.341 36.4613 115.773 35.9852 115.234 35.4775C114.194 34.4924 113.24 33.4208 112.382 32.2742C112.217 32.0508 112.135 31.7767 112.15 31.4993C112.165 31.2219 112.277 30.9585 112.466 30.7546C112.655 30.5506 112.909 30.419 113.184 30.3823C113.459 30.3456 113.739 30.4063 113.974 30.5537H114.012C115.134 31.2666 116.265 32.0175 117.368 32.6877C117.929 33.0156 118.47 33.3483 119.007 33.6049C119.253 33.7333 119.505 33.8475 119.763 33.9471C119.924 34.0181 120.096 34.06 120.272 34.0707C120.3 34.0707 120.272 34.0374 120.096 34.0422C120.04 34.0388 119.985 34.0388 119.929 34.0422L119.825 34.0659L119.982 33.9851C120.193 33.8715 120.398 33.7462 120.595 33.6097C121.02 33.3098 121.418 32.9726 121.783 32.6021C122.613 31.732 123.391 30.8131 124.112 29.8503C124.507 29.4085 125.053 29.1301 125.642 29.0699C126.232 29.0097 126.823 29.172 127.299 29.5249C127.775 29.8778 128.102 30.3959 128.216 30.9775C128.329 31.5591 128.222 32.1623 127.914 32.6686L127.971 32.6639Z" fill="#DBE9FF"/>
<path d="M110.605 29.536L111.161 30.4866C111.161 30.4866 111.584 31.7317 112.435 31.9599L114.744 31.2137L114.626 31.0189C114.331 30.5721 114.364 29.7024 114.464 28.98C114.564 28.2576 114.193 28.2338 113.917 28.4144C113.722 28.6391 113.585 28.9084 113.518 29.1986C113.405 29.0416 113.279 28.8939 113.143 28.7566L112.439 28.0532C112.292 27.909 112.095 27.8259 111.889 27.8206C111.683 27.8153 111.482 27.8882 111.327 28.0247L110.757 28.5332C110.622 28.6584 110.533 28.8258 110.505 29.008C110.478 29.1902 110.513 29.3764 110.605 29.536Z" fill="#407BFF"/>
<path opacity="0.7" d="M110.605 29.536L111.161 30.4866C111.161 30.4866 111.584 31.7317 112.435 31.9599L114.744 31.2137L114.626 31.0189C114.331 30.5721 114.364 29.7024 114.464 28.98C114.564 28.2576 114.193 28.2338 113.917 28.4144C113.722 28.6391 113.585 28.9084 113.518 29.1986C113.405 29.0416 113.279 28.8939 113.143 28.7566L112.439 28.0532C112.292 27.909 112.095 27.8259 111.889 27.8206C111.683 27.8153 111.482 27.8882 111.327 28.0247L110.757 28.5332C110.622 28.6584 110.533 28.8258 110.505 29.008C110.478 29.1902 110.513 29.3764 110.605 29.536Z" fill="#DBE9FF"/>
<path d="M132.172 26.1153C129.61 26.7944 127.156 27.8294 124.882 29.1903C124.527 29.4123 124.249 29.7376 124.084 30.1224C123.919 30.5072 123.876 30.9331 123.96 31.3432C124.877 35.8297 126.964 41.837 129.216 45.6629L139.724 41.3142C139.796 39.4607 137.243 33.4629 134.644 27.6647C134.178 26.6238 133.28 25.8491 132.172 26.1153Z" fill="#407BFF"/>
<path opacity="0.8" d="M132.172 26.1153C129.61 26.7944 127.156 27.8294 124.882 29.1903C124.527 29.4123 124.249 29.7376 124.084 30.1224C123.919 30.5072 123.876 30.9331 123.96 31.3432C124.877 35.8297 126.964 41.837 129.216 45.6629L139.724 41.3142C139.796 39.4607 137.243 33.4629 134.644 27.6647C134.178 26.6238 133.28 25.8491 132.172 26.1153Z" fill="#DBE9FF"/>
<path opacity="0.3" d="M136.266 31.3383L134.18 30.6396C134.655 31.8611 136.333 33.4057 137.507 34.3134C137.126 33.3629 136.703 32.3649 136.266 31.3383Z" fill="#407BFF"/>
<path d="M131.474 21.4097C130.604 19.7558 128.727 18.9241 126.474 19.1095C124.573 19.2711 122.891 21.2101 123.09 22.2557C123.29 23.3013 124.887 23.748 125.191 24.1092L123.875 25.0598C123.719 25.1723 123.587 25.3153 123.488 25.48C123.389 25.6448 123.324 25.8279 123.297 26.0184C123.27 26.2089 123.283 26.4028 123.333 26.5884C123.383 26.7741 123.47 26.9476 123.589 27.0987C124.145 27.8021 124.877 28.5245 125.3 29.0568C128.941 28.9617 131.636 27.5739 132.61 26.2384C132.244 24.5465 132.32 23.0542 131.474 21.4097Z" fill="#407BFF"/>
<path opacity="0.8" d="M131.474 21.4097C130.604 19.7558 128.727 18.9241 126.474 19.1095C124.573 19.2711 122.891 21.2101 123.09 22.2557C123.29 23.3013 124.887 23.748 125.191 24.1092L123.875 25.0598C123.719 25.1723 123.587 25.3153 123.488 25.48C123.389 25.6448 123.324 25.8279 123.297 26.0184C123.27 26.2089 123.283 26.4028 123.333 26.5884C123.383 26.7741 123.47 26.9476 123.589 27.0987C124.145 27.8021 124.877 28.5245 125.3 29.0568C128.941 28.9617 131.636 27.5739 132.61 26.2384C132.244 24.5465 132.32 23.0542 131.474 21.4097Z" fill="#DBE9FF"/>
<path d="M129.692 22.4349C129.95 23.0977 130.006 23.8222 129.853 24.5169C129.7 25.2116 129.344 25.8453 128.831 26.3379C128.318 26.8304 127.67 27.1597 126.969 27.2841C126.269 27.4086 125.547 27.3226 124.896 27.037C124.244 26.7514 123.692 26.279 123.309 25.6796C122.925 25.0802 122.729 24.3806 122.743 23.6694C122.757 22.9581 122.982 22.267 123.389 21.6836C123.796 21.1001 124.367 20.6503 125.03 20.3912C125.919 20.0448 126.909 20.0654 127.783 20.4486C128.658 20.8317 129.344 21.5461 129.692 22.4349Z" fill="#405261"/>
<path d="M160.55 65.2678C160.498 63.7042 160.427 63.842 160.384 62.5255C160.355 61.7176 160.35 60.8193 160.346 60.0446C160.344 59.6767 160.216 59.3207 159.982 59.0366C159.748 58.7526 159.423 58.558 159.063 58.4858C158.435 58.3574 157.803 58.2386 157.161 58.1055C156.339 57.9297 155.527 57.7396 154.723 57.5067C154.096 57.3261 153.478 57.1265 152.865 56.9031C152.252 56.6798 151.563 56.4279 150.926 56.1332C150.175 55.8148 149.434 55.4726 148.702 55.1161C147.88 54.7264 147.067 54.3177 146.254 53.9042C143.127 48.7286 143.06 45.3162 139.705 41.3145L132.5 44.5748C132.5 44.5748 137.794 53.966 141.397 57.9487C143.474 60.2395 146.729 61.2756 149.633 62.0265C151.729 62.5635 153.854 62.977 155.978 63.3715C156.805 63.5236 157.703 63.5806 158.416 64.0749C158.944 64.4793 159.305 65.0623 159.433 65.7145C159.465 65.8476 159.493 65.9807 159.519 66.1138C159.609 66.513 160.583 66.2088 160.55 65.2678Z" fill="#407BFF"/>
<path opacity="0.8" d="M160.55 65.2678C160.498 63.7042 160.427 63.842 160.384 62.5255C160.355 61.7176 160.35 60.8193 160.346 60.0446C160.344 59.6767 160.216 59.3207 159.982 59.0366C159.748 58.7526 159.423 58.558 159.063 58.4858C158.435 58.3574 157.803 58.2386 157.161 58.1055C156.339 57.9297 155.527 57.7396 154.723 57.5067C154.096 57.3261 153.478 57.1265 152.865 56.9031C152.252 56.6798 151.563 56.4279 150.926 56.1332C150.175 55.8148 149.434 55.4726 148.702 55.1161C147.88 54.7264 147.067 54.3177 146.254 53.9042C143.127 48.7286 143.06 45.3162 139.705 41.3145L132.5 44.5748C132.5 44.5748 137.794 53.966 141.397 57.9487C143.474 60.2395 146.729 61.2756 149.633 62.0265C151.729 62.5635 153.854 62.977 155.978 63.3715C156.805 63.5236 157.703 63.5806 158.416 64.0749C158.944 64.4793 159.305 65.0623 159.433 65.7145C159.465 65.8476 159.493 65.9807 159.519 66.1138C159.609 66.513 160.583 66.2088 160.55 65.2678Z" fill="#DBE9FF"/>
<path opacity="0.3" d="M156.891 58.0435C156.606 57.9817 156.32 57.9199 156.03 57.8486C156.054 59.493 155.284 62.3256 155.004 63.1859L155.907 63.3569C156.499 61.645 156.83 59.8539 156.891 58.0435Z" fill="#407BFF"/>
<path opacity="0.3" d="M160.367 60.0437C160.366 59.6765 160.238 59.321 160.005 59.037C159.772 58.7531 159.448 58.5581 159.089 58.4848L158.613 58.3945C158.69 58.9348 158.966 59.4267 159.388 59.7728C159.659 60.0236 159.984 60.209 160.338 60.3146C160.367 60.229 160.367 60.134 160.367 60.0437Z" fill="#407BFF"/>
<path d="M129.024 22.4652C129.214 23.1876 128.406 23.9432 127.765 23.3206C127.166 22.6786 126.511 22.0916 125.807 21.5669C125.146 21.1534 126.025 20.431 127.066 20.7114C127.51 20.823 127.921 21.041 128.262 21.3465C128.603 21.652 128.865 22.0359 129.024 22.4652Z" fill="white"/>
<path d="M129.076 45.4305C128.743 45.5541 129.352 46.1244 129.352 46.1244C129.352 46.1244 136.005 43.8479 140.045 41.5048C140.055 41.363 140.031 41.2208 139.974 41.0902C139.918 40.9596 139.832 40.8443 139.722 40.7539C136.265 42.5127 132.71 44.074 129.076 45.4305Z" fill="#407BFF"/>
<path opacity="0.5" d="M129.076 45.4305C128.743 45.5541 129.352 46.1244 129.352 46.1244C129.352 46.1244 136.005 43.8479 140.045 41.5048C140.055 41.363 140.031 41.2208 139.974 41.0902C139.918 40.9596 139.832 40.8443 139.722 40.7539C136.265 42.5127 132.71 44.074 129.076 45.4305Z" fill="#DBE9FF"/>
<path d="M133.972 25.8014C135.284 26.4668 136.515 27.1654 137.774 27.9401C138.387 28.3298 138.996 28.7243 139.599 29.152C140.203 29.5798 140.802 30.017 141.405 30.5113L141.629 30.6966L141.909 30.9533C142.076 31.1028 142.235 31.2615 142.384 31.4286C142.536 31.5949 142.665 31.7565 142.788 31.9038C142.912 32.0512 143.045 32.227 143.154 32.3791C143.597 32.9901 144.007 33.6247 144.38 34.2801C145.117 35.5512 145.753 36.8781 146.282 38.2486C146.379 38.5075 146.384 38.7924 146.296 39.0546C146.207 39.3169 146.031 39.5404 145.796 39.6871C145.561 39.8339 145.283 39.8948 145.009 39.8595C144.734 39.8243 144.48 39.6951 144.29 39.4938L144.266 39.4653C143.316 38.453 142.399 37.3884 141.477 36.3951C140.555 35.4018 139.618 34.3942 138.844 33.9522C137.765 33.2821 136.562 32.612 135.369 31.9561L131.776 29.96C131.219 29.665 130.802 29.1608 130.617 28.5583C130.431 27.9558 130.493 27.3043 130.788 26.7472C131.083 26.1901 131.587 25.7729 132.19 25.5875C132.792 25.4021 133.444 25.4637 134.001 25.7587L133.972 25.8014Z" fill="#407BFF"/>
<path opacity="0.8" d="M133.972 25.8014C135.284 26.4668 136.515 27.1654 137.774 27.9401C138.387 28.3298 138.996 28.7243 139.599 29.152C140.203 29.5798 140.802 30.017 141.405 30.5113L141.629 30.6966L141.909 30.9533C142.076 31.1028 142.235 31.2615 142.384 31.4286C142.536 31.5949 142.665 31.7565 142.788 31.9038C142.912 32.0512 143.045 32.227 143.154 32.3791C143.597 32.9901 144.007 33.6247 144.38 34.2801C145.117 35.5512 145.753 36.8781 146.282 38.2486C146.379 38.5075 146.384 38.7924 146.296 39.0546C146.207 39.3169 146.031 39.5404 145.796 39.6871C145.561 39.8339 145.283 39.8948 145.009 39.8595C144.734 39.8243 144.48 39.6951 144.29 39.4938L144.266 39.4653C143.316 38.453 142.399 37.3884 141.477 36.3951C140.555 35.4018 139.618 34.3942 138.844 33.9522C137.765 33.2821 136.562 32.612 135.369 31.9561L131.776 29.96C131.219 29.665 130.802 29.1608 130.617 28.5583C130.431 27.9558 130.493 27.3043 130.788 26.7472C131.083 26.1901 131.587 25.7729 132.19 25.5875C132.792 25.4021 133.444 25.4637 134.001 25.7587L133.972 25.8014Z" fill="#DBE9FF"/>
<path d="M147.409 40.6203L147.005 39.608C147.005 39.608 146.782 38.3153 145.979 37.9541L143.602 38.3296L143.683 38.5387C143.902 39.0139 143.735 39.8837 143.522 40.5776C143.308 41.2714 143.669 41.3617 143.973 41.2239C144.144 41.1479 144.31 40.839 144.491 40.511C144.58 40.6762 144.68 40.835 144.791 40.9863L145.375 41.7895C145.497 41.9559 145.678 42.07 145.881 42.1088C146.083 42.1476 146.293 42.1082 146.468 41.9986L147.115 41.5851C147.266 41.4816 147.377 41.3297 147.431 41.1544C147.485 40.979 147.477 40.7907 147.409 40.6203Z" fill="#407BFF"/>
<path opacity="0.8" d="M147.409 40.6203L147.005 39.608C147.005 39.608 146.782 38.3153 145.979 37.9541L143.602 38.3296L143.683 38.5387C143.902 39.0139 143.735 39.8837 143.522 40.5776C143.308 41.2714 143.669 41.3617 143.973 41.2239C144.144 41.1479 144.31 40.839 144.491 40.511C144.58 40.6762 144.68 40.835 144.791 40.9863L145.375 41.7895C145.497 41.9559 145.678 42.07 145.881 42.1088C146.083 42.1476 146.293 42.1082 146.468 41.9986L147.115 41.5851C147.266 41.4816 147.377 41.3297 147.431 41.1544C147.485 40.979 147.477 40.7907 147.409 40.6203Z" fill="#DBE9FF"/>
<path opacity="0.3" d="M131.964 31.2666L131.384 31.3141L127.824 39.9069C128.019 39.9209 128.214 39.9049 128.404 39.8594C128.404 39.8594 133.043 38.1294 134.445 37.4831C133.504 35.5392 131.964 31.2666 131.964 31.2666Z" fill="#407BFF"/>
<path d="M125.473 33.5197C125.905 35.7659 126.708 37.9245 127.849 39.9072C129.588 39.3084 132.488 38.1773 133.894 37.5309C132.949 35.5039 132.11 33.4289 131.38 31.3145C129.893 31.4143 126.628 32.6642 125.473 33.5197Z" fill="white"/>
<path opacity="0.3" d="M129.003 35.3772C128.933 35.6096 128.796 35.8162 128.609 35.9708C128.422 36.1254 128.194 36.2211 127.952 36.2458C127.711 36.2705 127.468 36.223 127.254 36.1095C127.039 35.9959 126.863 35.8213 126.748 35.6077C126.633 35.3942 126.584 35.1513 126.607 34.9098C126.63 34.6683 126.724 34.4391 126.877 34.2511C127.031 34.0631 127.236 33.9248 127.468 33.8537C127.7 33.7826 127.948 33.7818 128.18 33.8516C128.492 33.945 128.753 34.1582 128.907 34.4443C129.061 34.7303 129.096 35.0659 129.003 35.3772Z" fill="#1265E5"/>
<path opacity="0.6" d="M129.903 33.7439C129.884 33.8232 129.842 33.8951 129.782 33.9501C129.722 34.0051 129.647 34.0406 129.566 34.052C129.485 34.0634 129.403 34.0502 129.33 34.014C129.257 33.9779 129.197 33.9205 129.157 33.8494C129.117 33.7783 129.1 33.6969 129.107 33.6157C129.114 33.5346 129.146 33.4576 129.198 33.3948C129.25 33.3319 129.32 33.2863 129.398 33.2638C129.476 33.2413 129.559 33.2429 129.637 33.2686C129.733 33.2994 129.814 33.3656 129.863 33.4538C129.913 33.542 129.927 33.6457 129.903 33.7439Z" fill="#1265E5"/>
<path opacity="0.6" d="M130.968 33.33C130.957 33.3851 130.934 33.4373 130.902 33.4832C130.869 33.5292 130.827 33.5678 130.779 33.5966C130.731 33.6255 130.677 33.644 130.621 33.6508C130.565 33.6577 130.509 33.6528 130.455 33.6366C130.401 33.6203 130.351 33.5929 130.309 33.5563C130.266 33.5196 130.231 33.4744 130.207 33.4236C130.183 33.3729 130.17 33.3176 130.168 33.2614C130.167 33.2051 130.177 33.1492 130.198 33.0971C130.213 33.0468 130.238 33 130.272 32.9594C130.305 32.9188 130.346 32.8852 130.392 32.8604C130.439 32.8357 130.489 32.8204 130.542 32.8153C130.594 32.8103 130.647 32.8156 130.697 32.831C130.799 32.8618 130.884 32.9315 130.935 33.0249C130.986 33.1183 130.997 33.2279 130.968 33.33Z" fill="#1265E5"/>
<path opacity="0.5" d="M132.462 37.031L128.066 38.7657L127.805 37.9007L132.196 36.166L132.462 37.031Z" fill="#1265E5"/>
<path opacity="0.2" d="M108.202 103.084C108.192 105.851 107.925 108.612 107.404 111.33C106.843 113.773 105.971 115.56 104.79 116.691C104.239 117.237 103.585 117.669 102.867 117.96C102.148 118.251 101.378 118.397 100.603 118.388C98.1597 118.388 96.2951 117.055 95.0087 114.391C94.7826 113.912 94.5905 113.418 94.4336 112.913C91.7169 115.246 89.1871 117.788 86.8674 120.517L84.3438 123.492C85.7019 124.868 87.269 126.022 88.9871 126.909C91.9464 128.439 95.8309 129.206 100.641 129.209C101.487 129.209 102.304 129.186 103.098 129.138C106.008 124.832 108.415 120.208 110.274 115.355L117.332 96.9531L108.202 103.084Z" fill="#1D2B36"/>
<path d="M44.582 128.191L52.8992 136.508L76.1871 114.565C68.1599 111.5 52.5522 120.202 44.582 128.191Z" fill="#405261"/>
<path d="M73.5828 157.182C70.926 154.521 65.2656 148.865 65.2656 148.865L87.2086 125.577C90.255 133.585 81.5529 149.207 73.5828 157.182Z" fill="#405261"/>
<path d="M105.42 104.761L114.493 87.2666L96.9982 96.3489C91.3789 99.2632 86.1904 102.942 81.5807 107.28L51.7578 135.354L66.4102 150.006L94.4841 120.183C98.8243 115.572 102.505 110.382 105.42 104.761Z" fill="#407BFF"/>
<path opacity="0.6" d="M105.42 104.761L114.493 87.2666L96.9982 96.3489C91.3789 99.2632 86.1904 102.942 81.5807 107.28L51.7578 135.354L66.4102 150.006L94.4841 120.183C98.8243 115.572 102.505 110.382 105.42 104.761Z" fill="#DBE9FF"/>
<path d="M86.7833 121.101C90.1693 121.101 92.9142 118.356 92.9142 114.97C92.9142 111.584 90.1693 108.839 86.7833 108.839C83.3972 108.839 80.6523 111.584 80.6523 114.97C80.6523 118.356 83.3972 121.101 86.7833 121.101Z" fill="white"/>
<path d="M86.7837 118.91C88.9597 118.91 90.7236 117.146 90.7236 114.97C90.7236 112.794 88.9597 111.03 86.7837 111.03C84.6077 111.03 82.8438 112.794 82.8438 114.97C82.8438 117.146 84.6077 118.91 86.7837 118.91Z" fill="#1265E5"/>
<path opacity="0.3" d="M71.3639 144.74L57.0156 130.392L68.7642 119.337L82.4185 132.996L71.3639 144.74Z" fill="#1265E5"/>
<path d="M47.8246 141.318C37.0836 142.188 33.5239 149.065 32.3072 158.205C31.6893 162.867 31.4137 167.586 27.5023 170.314C27.2669 170.474 27.0898 170.706 26.9973 170.975C26.9048 171.244 26.902 171.536 26.9892 171.807C27.0764 172.078 27.249 172.313 27.4812 172.477C27.7133 172.642 27.9925 172.727 28.2769 172.719C42.6965 172.268 49.4214 165.21 50.2674 162.263C50.0454 163.804 49.6483 165.314 49.084 166.764C48.9803 167.02 48.96 167.302 49.026 167.57C49.092 167.838 49.2409 168.079 49.4516 168.257C49.6623 168.436 49.9239 168.543 50.1993 168.565C50.4746 168.586 50.7496 168.519 50.9851 168.375C55.0296 165.842 60.1054 161.175 60.4428 153.604C57.4677 149.388 47.8246 141.318 47.8246 141.318Z" fill="#407BFF"/>
<path opacity="0.2" d="M47.8246 141.318C37.0836 142.188 33.5239 149.065 32.3072 158.205C31.6893 162.867 31.4137 167.586 27.5023 170.314C27.2669 170.474 27.0898 170.706 26.9973 170.975C26.9048 171.244 26.902 171.536 26.9892 171.807C27.0764 172.078 27.249 172.313 27.4812 172.477C27.7133 172.642 27.9925 172.727 28.2769 172.719C42.6965 172.268 49.4214 165.21 50.2674 162.263C50.0454 163.804 49.6483 165.314 49.084 166.764C48.9803 167.02 48.96 167.302 49.026 167.57C49.092 167.838 49.2409 168.079 49.4516 168.257C49.6623 168.436 49.9239 168.543 50.1993 168.565C50.4746 168.586 50.7496 168.519 50.9851 168.375C55.0296 165.842 60.1054 161.175 60.4428 153.604C57.4677 149.388 47.8246 141.318 47.8246 141.318Z" fill="#DBE9FF"/>
<path d="M62.1108 156.85L44.9062 139.646L54.0693 137.664L64.0927 147.687L62.1108 156.85Z" fill="#1265E5"/>
</svg>
