<svg width="200" height="200" viewBox="0 0 200 200" fill="none" xmlns="http://www.w3.org/2000/svg">
<path d="M165.027 43.8856C151.617 31.9768 131.642 26.9688 114.029 28.5986C105.168 29.4186 98.0401 33.0908 89.9634 36.3659C78.6167 40.9561 71.1176 38.9447 59.5337 37.7068C25.9013 34.0501 10.377 66.5428 9.79422 90.7833C9.08247 120.274 29.7282 147.186 58.7911 154.68C78.3537 159.724 97.1994 159.936 114.328 153.587C127.696 148.625 131.033 137.733 135.278 125.189C138.527 115.607 141.42 104.791 148.605 97.2612C155.17 90.3707 161.932 96.173 169.493 91.985C188.71 81.3295 176.332 53.9222 165.027 43.8856Z" fill="#1265E5"/>
<path opacity="0.9" d="M165.027 43.8856C151.617 31.9768 131.642 26.9688 114.029 28.5986C105.168 29.4186 98.0401 33.0908 89.9634 36.3659C78.6167 40.9561 71.1176 38.9447 59.5337 37.7068C25.9013 34.0501 10.377 66.5428 9.79422 90.7833C9.08247 120.274 29.7282 147.186 58.7911 154.68C78.3537 159.724 97.1994 159.936 114.328 153.587C127.696 148.625 131.033 137.733 135.278 125.189C138.527 115.607 141.42 104.791 148.605 97.2612C155.17 90.3707 161.932 96.173 169.493 91.985C188.71 81.3295 176.332 53.9222 165.027 43.8856Z" fill="white"/>
<path d="M100 190.097C155.228 190.097 200 187.483 200 184.259C200 181.035 155.228 178.421 100 178.421C44.7715 178.421 0 181.035 0 184.259C0 187.483 44.7715 190.097 100 190.097Z" fill="#F1F3F5"/>
<path d="M134.298 20.7952H15.4055L23.2295 182.712H142.122L134.298 20.7952Z" fill="#A5B2BD"/>
<path opacity="0.2" d="M134.298 20.7952H15.4055L23.2295 182.712H142.122L134.298 20.7952Z" fill="#1D2B36"/>
<path d="M135.396 20.7952H16.5042L24.3333 182.712H143.225L135.396 20.7952Z" fill="#A5B2BD"/>
<path opacity="0.2" d="M129.119 26.2415H21.9399L29.4287 175.393L122.626 175.269L138.114 161.54L129.119 26.2415Z" fill="#1D2B36"/>
<path d="M129.939 26.2364C131.082 70.9042 134.689 115.475 140.744 159.745C132.252 165.59 123.802 171.436 115.395 177.281H35.2361C27.6702 127.258 23.2295 76.8119 21.9399 26.2364H129.939Z" fill="white"/>
<path d="M140.744 159.745C132.252 165.59 123.802 171.436 115.395 177.281C117.231 169.544 119.145 161.808 121.135 154.072L140.744 159.745Z" fill="#E5E9EC"/>
<path d="M51.0029 39.8833C51.2057 45.3434 51.443 50.807 51.7146 56.274H35.3291C35.054 50.807 34.8167 45.3434 34.6173 39.8833H51.0029ZM52.6739 38.1555H32.8276C33.058 44.7675 33.3451 51.3829 33.6889 58.0018H53.5404C53.1966 51.3864 52.9095 44.771 52.6791 38.1555H52.6739Z" fill="#405261"/>
<path d="M117.958 46.0363H61.8339C61.7823 44.8036 61.7359 43.5658 61.6895 42.3331H117.809C117.855 43.5658 117.907 44.8036 117.958 46.0363Z" fill="#D5DCE1"/>
<path d="M106.101 53.8242H62.1795C62.1227 52.5864 62.0609 51.3538 62.0093 50.1211H105.926C105.984 51.3555 106.043 52.5898 106.101 53.8242Z" fill="#D5DCE1"/>
<path d="M52.6121 71.984C52.9559 77.451 53.3393 82.918 53.7622 88.385H37.3715C36.9486 82.918 36.5652 77.451 36.2213 71.984H52.6121ZM54.2316 70.2562H34.3853C34.791 76.875 35.2534 83.4939 35.7726 90.1128H55.6447C55.129 83.4973 54.6648 76.8785 54.2522 70.2562H54.2316Z" fill="#405261"/>
<path d="M84.2179 78.1421H63.5876C63.5051 76.9043 63.4175 75.6717 63.3401 74.4338H83.9703C84.0477 75.6717 84.1302 76.9043 84.2179 78.1421Z" fill="#D5DCE1"/>
<path d="M103.749 78.1421H88.5811C88.4985 76.9043 88.4109 75.6717 88.3335 74.4338H103.502C103.579 75.6717 103.662 76.9043 103.749 78.1421Z" fill="#D5DCE1"/>
<path d="M113.27 85.9352H64.1547C64.0619 84.6973 63.9742 83.4647 63.8813 82.2269H112.997C113.09 83.4647 113.177 84.6973 113.27 85.9352Z" fill="#D5DCE1"/>
<path d="M55.0723 104.1C55.564 109.567 56.0935 115.034 56.6609 120.501H40.2701C39.7028 115.034 39.1733 109.567 38.6816 104.1H55.0723ZM56.6505 102.372H36.7991C37.3836 108.995 38.0231 115.615 38.7177 122.234H58.5692C57.8815 115.612 57.2419 108.991 56.6505 102.372Z" fill="#405261"/>
<path d="M122.745 114.348H66.6147L66.9861 118.051H123.116L122.745 114.348Z" fill="#D5DCE1"/>
<path d="M109.799 106.555H65.8774C65.9909 107.788 66.1044 109.026 66.223 110.258H110.14C110.026 109.026 109.908 107.803 109.799 106.555Z" fill="#D5DCE1"/>
<path d="M58.3885 136.216C59.0281 141.683 59.7037 147.149 60.4154 152.612H44.0247C43.313 147.152 42.6373 141.687 41.9978 136.216H58.3885ZM59.9358 134.488H40.0688C40.8253 141.111 41.6419 147.728 42.5187 154.34H62.3495C61.4796 147.728 60.663 141.111 59.8997 134.488H59.9358Z" fill="#405261"/>
<path d="M125.834 142.359H69.7043C69.5547 141.121 69.4052 139.888 69.2607 138.651H125.385C125.535 139.904 125.679 141.137 125.834 142.359Z" fill="#D5DCE1"/>
<path d="M96.2296 150.162H70.679C70.5192 148.93 70.3644 147.692 70.2097 146.459H95.7603C95.915 147.692 96.0697 148.93 96.2296 150.162Z" fill="#D5DCE1"/>
<path d="M111.486 150.162H100.454C100.294 148.93 100.139 147.692 99.9844 146.459H111.016C111.171 147.692 111.346 148.93 111.486 150.162Z" fill="#D5DCE1"/>
<path d="M43.7825 53.9325L43.0553 52.7772C41.4668 50.25 38.2278 47.9961 37.1086 47.3359L37.9442 45.8557C40.1399 47.1891 42.1018 48.874 43.7516 50.8431C46.2478 47.4443 49.9407 43.932 54.9951 40.1566L56.0627 41.5492C50.6679 45.5875 46.8925 49.2855 44.5097 52.8442L43.7825 53.9325Z" fill="#1265E5"/>
<path d="M45.7423 86.0435L44.9841 84.8882C43.3337 82.361 40.0329 80.102 38.8982 79.4418L39.6873 77.9616C41.9249 79.2954 43.9329 80.9812 45.634 82.9541C48.0374 79.5501 51.6322 76.0378 56.5886 72.2573C56.9548 72.7215 57.3262 73.1857 57.6924 73.655C52.4059 77.6985 48.7285 81.3914 46.4437 84.9552C46.2065 85.3163 45.9744 85.6824 45.7423 86.0435Z" fill="#1265E5"/>
<path d="M48.5893 118.242L47.8002 117.087C46.0776 114.56 42.7148 112.301 41.5647 111.646C41.8123 111.13 42.0805 110.655 42.3177 110.165C44.5902 111.501 46.6401 113.184 48.3933 115.153C50.7091 111.749 54.211 108.242 59.0591 104.456L60.2041 105.854C55.0466 109.897 51.4363 113.59 49.2546 117.154L48.5893 118.242Z" fill="#1265E5"/>
<path d="M100.583 168.384C97.5396 168.384 95.786 167.26 94.2387 166.269C92.6915 165.279 91.3608 164.423 88.7924 164.423C86.2239 164.423 85.0789 165.32 83.8669 166.269C82.6549 167.218 81.1695 168.384 78.1265 168.384C75.0836 168.384 73.33 167.26 71.7879 166.269C70.2458 165.279 68.9151 164.423 66.3415 164.423C63.7679 164.423 62.628 165.32 61.416 166.269C60.204 167.218 58.7186 168.384 55.6808 168.384C52.643 168.384 50.8843 167.26 49.337 166.269C47.7897 165.279 46.4643 164.423 43.8906 164.423C43.8236 163.907 43.7514 163.433 43.6843 162.938C46.7273 162.938 48.4757 164.062 50.023 165.052C51.5702 166.042 52.8957 166.899 55.4642 166.899C58.0327 166.899 59.1776 166.001 60.3897 165.052C61.6017 164.103 63.0922 162.938 66.1352 162.938C69.1781 162.938 70.9214 164.062 72.4687 165.052C74.0159 166.042 75.3466 166.899 77.9151 166.899C80.4835 166.899 81.6285 166.001 82.8405 165.052C84.0526 164.103 85.5431 162.938 88.586 162.938C91.629 162.938 93.3774 164.062 94.9247 165.052C96.472 166.042 97.7975 166.899 100.371 166.899C100.438 167.394 100.515 167.889 100.583 168.384Z" fill="#E5E9EC"/>
<path d="M104.946 24.8026C103.203 20.1608 99.1747 17.1127 94.8423 17.1127H86.0126C85.3553 17.1069 84.7141 16.9084 84.1686 16.5417C83.6231 16.1749 83.1972 15.6561 82.9438 15.0496C82.3196 13.5672 81.2758 12.2996 79.9408 11.4025C78.6057 10.5054 77.0376 10.0181 75.4292 10.0004C73.8734 9.9846 72.353 10.4658 71.0896 11.374C69.8261 12.2821 68.8855 13.5698 68.4047 15.0496C68.2087 15.6551 67.8242 16.182 67.3073 16.5532C66.7904 16.9244 66.1682 17.1204 65.5319 17.1127H56.7073C52.3698 17.1127 48.6357 20.1762 47.3463 24.8026L46.8306 26.6438H105.627L104.946 24.8026Z" fill="#405261"/>
<path d="M105.261 28.4593H47.3927C46.9047 28.4536 46.4369 28.2631 46.0837 27.9262C45.7306 27.5893 45.5183 27.1311 45.4896 26.6439C45.4769 26.4098 45.5123 26.1755 45.5935 25.9556C45.6748 25.7357 45.8002 25.5348 45.9621 25.3652C46.124 25.1956 46.3189 25.0609 46.5347 24.9695C46.7506 24.8781 46.9829 24.8318 47.2174 24.8335H105.085C105.572 24.8391 106.039 25.0289 106.393 25.3647C106.746 25.7005 106.958 26.1575 106.988 26.6439C107.002 26.8784 106.967 27.1132 106.886 27.3337C106.805 27.5542 106.68 27.7558 106.518 27.9259C106.356 28.0961 106.161 28.2312 105.944 28.323C105.728 28.4147 105.495 28.4611 105.261 28.4593Z" fill="#1265E5"/>
<path opacity="0.2" d="M105.261 28.4593H47.3927C46.9047 28.4536 46.4369 28.2631 46.0837 27.9262C45.7306 27.5893 45.5183 27.1311 45.4896 26.6439C45.4769 26.4098 45.5123 26.1755 45.5935 25.9556C45.6748 25.7357 45.8002 25.5348 45.9621 25.3652C46.124 25.1956 46.3189 25.0609 46.5347 24.9695C46.7506 24.8781 46.9829 24.8318 47.2174 24.8335H105.085C105.572 24.8391 106.039 25.0289 106.393 25.3647C106.746 25.7005 106.958 26.1575 106.988 26.6439C107.002 26.8784 106.967 27.1132 106.886 27.3337C106.805 27.5542 106.68 27.7558 106.518 27.9259C106.356 28.0961 106.161 28.2312 105.944 28.323C105.728 28.4147 105.495 28.4611 105.261 28.4593Z" fill="#1D2B36"/>
<path d="M157.208 181.159H153.427L153.051 172.407H156.831L157.208 181.159Z" fill="#B97964"/>
<path d="M179.896 181.159H176.115L174.217 172.407H177.993L179.896 181.159Z" fill="#B97964"/>
<path d="M175.847 180.721H180.092C180.167 180.72 180.239 180.746 180.298 180.793C180.356 180.84 180.396 180.906 180.411 180.979L181.159 184.341C181.176 184.423 181.175 184.507 181.155 184.588C181.135 184.669 181.097 184.745 181.044 184.809C180.991 184.873 180.924 184.925 180.849 184.96C180.773 184.995 180.691 185.013 180.607 185.012C179.127 184.986 178.405 184.899 176.538 184.899C175.388 184.899 173.021 185.017 171.437 185.017C169.854 185.017 169.642 183.47 170.292 183.31C173.206 182.67 174.3 181.794 175.233 180.953C175.403 180.803 175.621 180.721 175.847 180.721Z" fill="#405261"/>
<path d="M153.453 180.721H157.579C157.654 180.72 157.726 180.746 157.785 180.793C157.843 180.84 157.883 180.906 157.899 180.979L158.646 184.341C158.665 184.42 158.665 184.502 158.648 184.581C158.631 184.66 158.597 184.735 158.547 184.799C158.498 184.863 158.435 184.915 158.363 184.952C158.291 184.989 158.212 185.01 158.131 185.012C156.64 184.986 154.489 184.899 152.617 184.899C150.43 184.899 148.543 185.017 145.974 185.017C144.427 185.017 143.994 183.47 144.644 183.31C147.599 182.66 150.013 182.593 152.566 181.015C152.83 180.839 153.136 180.738 153.453 180.721Z" fill="#405261"/>
<path d="M160.859 43.2925C160.343 46.0569 160.044 49.4816 161.978 51.328C161.978 51.328 160.869 54.1337 155.732 54.1337C151.039 54.1337 153.391 51.328 153.391 51.328C156.485 50.5904 156.31 46.779 155.774 44.6231L160.859 43.2925Z" fill="#B97964"/>
<path d="M151.916 51.7147C152.019 51.0288 153.226 50.2294 154.598 49.9302C155.97 49.6311 161.241 48.9658 162.85 49.6311C164.459 50.2964 162.572 52.2666 162.572 52.2666L151.916 51.7147Z" fill="#1265E5"/>
<path opacity="0.4" d="M151.916 51.7147C152.019 51.0288 153.226 50.2294 154.598 49.9302C155.97 49.6311 161.241 48.9658 162.85 49.6311C164.459 50.2964 162.572 52.2666 162.572 52.2666L151.916 51.7147Z" fill="white"/>
<path opacity="0.2" d="M153.051 172.412L153.247 176.92H157.027L156.831 172.412H153.051Z" fill="#1D2B36"/>
<path opacity="0.2" d="M177.998 172.412H174.217L175.197 176.92H178.978L177.998 172.412Z" fill="#1D2B36"/>
<path d="M169.807 54.7319L165.253 57.7749C165.253 57.7749 171.793 69.4052 171.246 71.2671C170.498 73.8046 169.457 79.349 168.038 82.165C168.224 82.7736 169.168 84.161 169.694 84.3982C173.304 81.6544 176.951 73.0516 176.816 70.643C176.502 65.1812 169.807 54.7319 169.807 54.7319Z" fill="#B97964"/>
<path d="M168.039 82.1753L164.428 81.8968L166.321 85.8733C166.321 85.8733 169.472 86.0125 169.998 83.6039L168.039 82.1753Z" fill="#DE3618"/>
<path d="M185.883 101.568L185.579 102.14L183.537 106.003L111.032 67.6671L113.373 63.2316L185.883 101.568Z" fill="#003D99"/>
<path d="M190.572 92.7122L189.076 95.5386L188.23 97.1374L115.72 58.8012L118.061 54.3657L190.572 92.7122Z" fill="#003D99"/>
<path d="M115.744 58.7882L113.397 63.2183L185.878 101.611L188.224 97.1808L115.744 58.7882Z" fill="#003D99"/>
<path opacity="0.2" d="M115.744 58.7882L113.397 63.2183L185.878 101.611L188.224 97.1808L115.744 58.7882Z" fill="#1D2B36"/>
<path d="M107.906 54.9537L105.797 58.9457L111.032 67.6671L118.062 54.3709L107.906 54.9537Z" fill="#1265E5"/>
<path opacity="0.8" d="M107.906 54.9537L105.797 58.9457L111.032 67.6671L118.062 54.3709L107.906 54.9537Z" fill="white"/>
<path d="M103.553 55.2064L105.797 58.9456L107.906 54.9537L103.553 55.2064Z" fill="#1265E5"/>
<path d="M161.524 83.7071L163.412 87.2245L166.336 85.8733L164.444 81.8968L161.524 83.7071Z" fill="#DE3618"/>
<path d="M168.724 52.1841C172.299 52.6998 176.394 65.078 176.394 65.078L168.884 69.3175C168.884 69.3175 165.578 63.4482 163.954 59.0643C162.241 54.4792 164.892 51.6271 168.724 52.1841Z" fill="#405261"/>
<path opacity="0.2" d="M166.646 56.4288C165.021 54.9434 166.016 61.3027 166.79 65.372C167.187 66.1662 167.564 66.8883 167.883 67.4917C169.694 64.294 168.884 58.4763 166.646 56.4288Z" fill="#1D2B36"/>
<path d="M147.558 52.3801C147.558 52.3801 143.096 63.7886 147.331 85.0378H167.564C167.703 81.9432 165.754 66.8006 168.745 52.1841C166.51 51.7526 164.25 51.4666 161.978 51.3279C159.118 51.1627 156.251 51.1627 153.391 51.3279C151.422 51.5248 149.471 51.8766 147.558 52.3801Z" fill="#405261"/>
<path d="M150.668 57.6821L145.572 55.6655C145.572 55.6655 139.703 67.6465 137.836 68.2499C135.324 69.0751 130.166 71.3445 127.041 71.788C126.649 72.3038 126.04 73.851 126.138 74.4184C130.445 75.8264 139.61 73.9593 141.508 72.4843C145.861 69.1216 150.668 57.6821 150.668 57.6821Z" fill="#B97964"/>
<path opacity="0.2" d="M151.24 56.3204C150.399 54.3812 148.79 53.5714 147.114 53.8551C146.464 56.2327 145.366 61.4574 145.567 69.3278L146.768 69.9055C146.768 69.9055 152.679 59.6367 151.24 56.3204Z" fill="#1D2B36"/>
<path d="M152.045 54.964C153.314 58.3474 146.887 68.3015 146.887 68.3015L139.326 64.1754C140.462 61.0794 141.927 58.114 143.695 55.3302C146.351 51.364 150.647 51.2557 152.045 54.964Z" fill="#405261"/>
<path d="M127.227 71.7776L122.729 72.7318L125.009 76.894C126.266 76.2686 127.408 75.4351 128.387 74.4286L127.227 71.7776Z" fill="#B97964"/>
<path d="M120.604 73.6756L122.399 76.1616L125.009 76.9146L122.729 72.7524L120.604 73.6756Z" fill="#B97964"/>
<path d="M152.287 39.316C152.287 39.6203 152.096 39.8317 151.895 39.8317C151.694 39.8317 151.549 39.5635 151.57 39.2592C151.591 38.9549 151.761 38.7435 151.962 38.7435C152.163 38.7435 152.308 39.0117 152.287 39.316Z" fill="#1D2B36"/>
<path d="M152.555 39.3417C152.139 40.2504 151.599 41.0974 150.951 41.8586C151.151 42.0197 151.383 42.1351 151.631 42.1966C151.88 42.2581 152.139 42.2642 152.39 42.2145L152.555 39.3417Z" fill="#A24E3F"/>
<path d="M151.9 38.2638C151.873 38.258 151.847 38.2476 151.823 38.2329C151.803 38.2203 151.786 38.2039 151.772 38.1845C151.759 38.1651 151.749 38.1432 151.744 38.1201C151.74 38.0969 151.739 38.0731 151.744 38.0499C151.749 38.0268 151.758 38.0048 151.771 37.9853C151.921 37.7438 152.125 37.5412 152.368 37.3941C152.611 37.2471 152.886 37.1598 153.169 37.1395C153.216 37.1419 153.261 37.1618 153.294 37.1951C153.327 37.2284 153.347 37.2729 153.35 37.32C153.35 37.3679 153.331 37.4138 153.297 37.4476C153.263 37.4815 153.217 37.5005 153.169 37.5005C152.949 37.521 152.737 37.5928 152.55 37.7102C152.363 37.8275 152.205 37.9871 152.091 38.1761C152.072 38.2088 152.044 38.2349 152.01 38.2506C151.976 38.2663 151.937 38.2709 151.9 38.2638Z" fill="#1D2B36"/>
<path d="M162.54 39.0529C162.097 42.7766 162.025 44.9738 160.029 46.7892C157.022 49.5124 152.509 47.5371 151.828 43.7514C151.22 40.3474 152.05 34.834 155.794 33.5549C156.618 33.2698 157.501 33.2 158.36 33.3521C159.218 33.5042 160.024 33.8732 160.7 34.424C161.375 34.9748 161.899 35.6891 162.221 36.4992C162.544 37.3094 162.653 38.1884 162.54 39.0529Z" fill="#B97964"/>
<path d="M155.036 39.7801C153.731 40.038 151.647 37.1395 153.349 34.6793C152.488 34.2512 149.677 35.9429 148.62 34.3647C147.563 32.7865 150.497 31.9458 149.935 30.61C151.926 31.0174 148.646 33.5034 150.539 33.261C152.431 33.0186 154.613 29.5217 156.728 30.9555C160.467 33.4673 165.563 29.2793 163.484 34.5246C166.032 34.0088 167.775 37.0208 165.346 39.1096C160.503 43.2615 163.484 43.8082 160.415 44.0196C158.878 44.1331 155.304 42.3022 155.036 39.7801Z" fill="#1D2B36"/>
<path d="M156.97 40.7549C156.792 41.1272 156.541 41.46 156.231 41.7337C155.922 42.0074 155.562 42.2165 155.17 42.3486C154.139 42.7045 153.546 41.7813 153.788 40.7652C154.005 39.8472 154.82 38.5578 155.887 38.6506C156.122 38.6735 156.346 38.7548 156.541 38.887C156.736 39.0193 156.895 39.1983 157.002 39.4076C157.11 39.6169 157.164 39.8499 157.158 40.0853C157.152 40.3207 157.088 40.5509 156.97 40.7549Z" fill="#B97964"/>
<path d="M154.5 85.0378C154.5 85.0378 158.791 113.92 161.143 124.751C163.721 136.613 173.433 176.064 173.433 176.064H180.355C180.355 176.064 173.954 137.557 172.479 125.824C170.885 113.095 167.543 85.0533 167.543 85.0533L154.5 85.0378Z" fill="#1265E5"/>
<path opacity="0.2" d="M154.5 85.0378C154.5 85.0378 158.791 113.92 161.143 124.751C163.721 136.613 173.433 176.064 173.433 176.064H180.355C180.355 176.064 173.954 137.557 172.479 125.824C170.885 113.095 167.543 85.0533 167.543 85.0533L154.5 85.0378Z" fill="white"/>
<path opacity="0.2" d="M159.595 95.1363C159.276 94.6824 158.987 94.5277 158.719 94.6205H158.662C158.601 94.6472 158.544 94.6819 158.492 94.7237C158.437 94.7683 158.387 94.8184 158.342 94.8732L158.26 94.9764L158.151 95.1466C158.062 95.2967 157.984 95.4536 157.919 95.6159C157.878 95.7139 157.837 95.8171 157.801 95.9202C157.764 96.0234 157.708 96.1832 157.666 96.3277C157.625 96.4721 157.548 96.7196 157.491 96.9311C157.491 96.9878 157.465 97.0394 157.45 97.0961C157.434 97.1529 157.393 97.3334 157.367 97.452C157.342 97.5706 157.321 97.6583 157.3 97.7615C157.254 97.9626 157.213 98.1741 157.171 98.3907C157.13 98.6073 157.084 98.86 157.042 99.1024C157.042 99.185 157.017 99.2675 157.001 99.3551C156.95 99.6646 156.903 99.9792 156.857 100.304C158.002 107.494 159.363 115.736 160.467 121.486C160.519 121.301 160.575 121.105 160.622 120.893C160.847 119.934 161.019 118.963 161.137 117.984C162.112 110.573 161.664 98.0915 159.595 95.1363Z" fill="#1D2B36"/>
<path d="M147.331 85.0378C147.331 85.0378 146.815 113.291 147.222 124.818C147.65 136.804 151.838 176.048 151.838 176.048H158.239C158.239 176.048 158.471 137.501 158.755 125.731C159.064 112.899 160.611 85.0378 160.611 85.0378H147.331Z" fill="#1265E5"/>
<path opacity="0.2" d="M147.331 85.0378C147.331 85.0378 146.815 113.291 147.222 124.818C147.65 136.804 151.838 176.048 151.838 176.048H158.239C158.239 176.048 158.471 137.501 158.755 125.731C159.064 112.899 160.611 85.0378 160.611 85.0378H147.331Z" fill="white"/>
<path d="M158.662 174.088C158.688 174.088 158.662 176.177 158.662 176.177H151.282L150.972 173.83L158.662 174.088Z" fill="#405261"/>
<path d="M180.355 174.243C180.386 174.243 180.7 176.177 180.7 176.177H173.093L172.422 173.959L180.355 174.243Z" fill="#405261"/>
<path d="M174.599 181.381C174.342 181.402 174.085 181.335 173.871 181.19C173.802 181.134 173.748 181.061 173.716 180.977C173.683 180.894 173.673 180.804 173.686 180.716C173.686 180.664 173.7 180.614 173.727 180.569C173.753 180.525 173.79 180.488 173.835 180.463C174.253 180.252 175.475 180.979 175.615 181.082C175.629 181.092 175.64 181.107 175.646 181.123C175.653 181.14 175.654 181.157 175.651 181.175C175.648 181.192 175.64 181.208 175.628 181.221C175.616 181.234 175.601 181.243 175.584 181.247C175.261 181.327 174.931 181.372 174.599 181.381ZM174.036 180.602C173.997 180.594 173.957 180.594 173.918 180.602C173.9 180.613 173.885 180.628 173.875 180.646C173.865 180.664 173.86 180.685 173.861 180.705C173.853 180.766 173.86 180.827 173.882 180.883C173.904 180.94 173.939 180.991 173.985 181.03C174.406 181.226 174.886 181.252 175.326 181.103C174.932 180.854 174.494 180.684 174.036 180.602Z" fill="#1265E5"/>
<path d="M175.563 181.252C175.55 181.256 175.536 181.256 175.522 181.252C175.13 181.041 174.377 180.221 174.455 179.792C174.468 179.727 174.503 179.668 174.555 179.626C174.607 179.583 174.671 179.56 174.738 179.56C174.806 179.55 174.876 179.555 174.942 179.575C175.008 179.594 175.068 179.628 175.12 179.674C175.558 180.03 175.636 181.123 175.636 181.17C175.635 181.186 175.631 181.201 175.624 181.215C175.617 181.23 175.607 181.242 175.594 181.252C175.584 181.254 175.574 181.254 175.563 181.252ZM174.8 179.705H174.785C174.666 179.705 174.656 179.772 174.65 179.798C174.604 180.045 175.084 180.669 175.476 180.963C175.449 180.533 175.292 180.122 175.027 179.782C174.994 179.754 174.955 179.733 174.913 179.721C174.871 179.71 174.827 179.708 174.785 179.715L174.8 179.705Z" fill="#1265E5"/>
<path d="M151.88 181.381C151.556 181.411 151.232 181.329 150.962 181.149C150.903 181.095 150.857 181.027 150.828 180.952C150.799 180.877 150.789 180.796 150.797 180.716C150.797 180.667 150.811 180.619 150.836 180.577C150.861 180.535 150.898 180.501 150.941 180.478C151.4 180.221 152.922 180.994 153.092 181.082C153.109 181.09 153.123 181.103 153.132 181.12C153.14 181.137 153.142 181.156 153.138 181.175C153.136 181.193 153.128 181.21 153.115 181.223C153.102 181.236 153.085 181.245 153.066 181.247C152.676 181.33 152.279 181.375 151.88 181.381ZM151.194 180.602C151.137 180.6 151.081 180.611 151.029 180.633C151.012 180.643 150.997 180.657 150.988 180.675C150.978 180.692 150.972 180.711 150.972 180.731C150.965 180.784 150.971 180.837 150.99 180.887C151.009 180.937 151.04 180.981 151.081 181.015C151.313 181.221 151.937 181.257 152.772 181.118C152.279 180.859 151.745 180.684 151.194 180.602Z" fill="#1265E5"/>
<path d="M153.051 181.252H153.014C152.555 181.046 151.653 180.221 151.725 179.803C151.725 179.705 151.813 179.576 152.055 179.555C152.147 179.542 152.24 179.548 152.329 179.574C152.418 179.6 152.501 179.644 152.571 179.705C153.051 180.102 153.149 181.118 153.154 181.164C153.156 181.179 153.154 181.195 153.147 181.209C153.141 181.222 153.131 181.234 153.118 181.242C153.097 181.254 153.073 181.257 153.051 181.252ZM152.127 179.705H152.091C151.931 179.705 151.921 179.782 151.916 179.808C151.875 180.061 152.488 180.705 152.947 180.984C152.903 180.551 152.722 180.143 152.432 179.818C152.344 179.752 152.237 179.716 152.127 179.715V179.705Z" fill="#1265E5"/>
</svg>
