<svg width="200" height="200" viewBox="0 0 200 200" fill="none" xmlns="http://www.w3.org/2000/svg">
<path d="M100.678 34.3584C80.5888 24.5833 64.6559 2.71116 38.9174 6.88744C19.611 10.0273 9.27696 27.5504 6.16254 46.6587C-2.02747 96.8249 60.1037 131.449 101.994 135.25C145.387 139.213 206.218 116.589 199.486 65.3656C196.712 44.2606 180.266 33.9723 158.414 31.6098C139.88 29.603 116.438 42.0302 100.678 34.3584Z" fill="#1265E5"/>
<path opacity="0.9" d="M100.678 34.3584C80.5888 24.5833 64.6559 2.71116 38.9174 6.88744C19.611 10.0273 9.27696 27.5504 6.16254 46.6587C-2.02747 96.8249 60.1037 131.449 101.994 135.25C145.387 139.213 206.218 116.589 199.486 65.3656C196.712 44.2606 180.266 33.9723 158.414 31.6098C139.88 29.603 116.438 42.0302 100.678 34.3584Z" fill="white"/>
<path d="M98.5086 187.631C44.1039 187.631 9.15527e-05 184.016 9.15527e-05 179.558C9.15527e-05 175.099 44.1039 171.484 98.5086 171.484C152.913 171.484 197.017 175.099 197.017 179.558C197.017 184.016 152.913 187.631 98.5086 187.631Z" fill="#F1F3F5"/>
<path d="M128.855 73.619C128.855 73.619 125.818 88.2779 123.764 92.023C121.71 95.7681 109.933 95.5955 109.933 95.5955L96.2981 94.9167C96.2981 94.9167 93.7022 86.4202 104.818 90.8263C104.818 90.8263 114.196 89.04 117.774 86.063L121.526 70.6837L128.855 73.619Z" fill="#B97964"/>
<path d="M169.432 182.9H165.794L155.922 129.2L155.583 127.349L159.096 126.7L159.554 129.2L169.432 182.9Z" fill="#1265E5"/>
<path opacity="0.5" d="M169.432 182.9H165.794L155.922 129.2L155.583 127.349L159.096 126.7L159.554 129.2L169.432 182.9Z" fill="white"/>
<path d="M153.743 182.9H150.153L145.223 129.2L144.699 123.484L144.58 122.216L148.135 121.889L148.283 123.484L148.807 129.2L153.743 182.9Z" fill="#1265E5"/>
<path opacity="0.5" d="M153.743 182.9H150.153L145.223 129.2L144.699 123.484L144.58 122.216L148.135 121.889L148.283 123.484L148.807 129.2L153.743 182.9Z" fill="white"/>
<path d="M117.03 124.163L116.649 129.2L112.565 182.9H108.98L113.059 129.2L113.464 123.895L117.03 124.163Z" fill="#1265E5"/>
<path opacity="0.5" d="M117.03 124.163L116.649 129.2L112.565 182.9H108.98L113.059 129.2L113.464 123.895L117.03 124.163Z" fill="white"/>
<path d="M106.676 124.324L105.872 129.2L97.0186 182.9H93.3986L102.258 129.2L103.157 123.74L106.676 124.324Z" fill="#1265E5"/>
<path opacity="0.5" d="M106.676 124.324L105.872 129.2L97.0186 182.9H93.3986L102.258 129.2L103.157 123.74L106.676 124.324Z" fill="white"/>
<path d="M165.068 122.645L164.74 123.484L163.174 127.444C162.973 127.963 162.619 128.409 162.158 128.723C161.698 129.036 161.153 129.203 160.596 129.2H101.615C101.043 129.201 100.484 129.026 100.015 128.698C99.5464 128.369 99.1903 127.904 98.9954 127.366L97.6081 123.484L97.2806 122.561C97.1305 122.143 97.0834 121.694 97.1433 121.254C97.2032 120.813 97.3683 120.393 97.6247 120.03C97.8811 119.667 98.2212 119.371 98.6163 119.167C99.0114 118.963 99.4498 118.857 99.8945 118.858H162.49C162.941 118.857 163.387 118.967 163.786 119.178C164.186 119.389 164.527 119.695 164.782 120.069C165.036 120.442 165.195 120.872 165.245 121.321C165.295 121.77 165.234 122.225 165.068 122.645Z" fill="#1265E5"/>
<path opacity="0.3" d="M164.74 123.484L163.174 127.444C162.973 127.963 162.619 128.409 162.158 128.723C161.698 129.036 161.153 129.203 160.596 129.2H101.615C101.043 129.201 100.484 129.026 100.015 128.698C99.5465 128.369 99.1903 127.904 98.9955 127.366L97.6082 123.484H164.74Z" fill="#1D2B36"/>
<path d="M105.009 157.72L107.796 151.391C107.957 151.022 108.248 150.725 108.612 150.554C108.977 150.383 109.391 150.35 109.778 150.462L114.184 151.713C114.415 151.779 114.628 151.893 114.811 152.049C114.993 152.205 115.139 152.398 115.24 152.615C115.341 152.833 115.395 153.069 115.396 153.309C115.398 153.549 115.348 153.786 115.25 154.005C114.059 156.696 111.797 161.709 111.082 163.502C110.112 165.996 109.296 169.003 107.998 169.843C107.919 169.895 107.835 169.941 107.748 169.98C107.475 170.092 107.176 170.129 106.883 170.086C106.591 170.044 106.315 169.923 106.085 169.738C105.855 169.552 105.679 169.308 105.576 169.031C105.472 168.754 105.445 168.455 105.497 168.164C105.843 166.068 106.218 162.15 104.956 158.988C104.879 158.784 104.844 158.567 104.853 158.349C104.862 158.131 104.915 157.917 105.009 157.72Z" fill="#405261"/>
<path d="M129.069 97.5603C129.069 97.5603 98.9716 93.452 89.8797 102.002C89.8797 102.002 84.2471 109.689 86.9562 124.735C88.7281 134.02 92.5771 142.785 98.2154 150.373L106.116 143.657C106.116 143.657 99.0847 126.336 101.466 115.619L112.398 114.97L128.075 104.253L129.718 99.8109L129.069 97.5603Z" fill="#405261"/>
<path d="M98.9419 153.398L95.9946 149.819L106.795 140.936L108.838 143.061L98.9419 153.398Z" fill="#1265E5"/>
<path d="M158.655 97.2328C158.655 97.2328 159.489 105.807 156.768 112.082C154.047 118.358 144.431 120.656 137.947 120.239C131.463 119.823 123.098 119.287 119.543 120.287C119.543 120.287 114.941 146.384 106.992 165.413L97.3701 164.579C97.3701 164.579 102.598 127.747 103.437 119.191C104.277 110.635 103.854 109.361 109.082 105.182C114.309 101.002 141.085 95.3513 158.655 97.2328Z" fill="#405261"/>
<path d="M104.545 168.86L103.634 172.844L95.9946 175.517L98.2155 167.032L104.545 168.86Z" fill="#B97964"/>
<path d="M95.8934 175.267L102.383 172.855C102.761 172.716 103.177 172.718 103.554 172.862C103.93 173.005 104.242 173.28 104.432 173.635L106.599 177.666C106.717 177.878 106.787 178.114 106.804 178.356C106.821 178.598 106.786 178.841 106.699 179.067C106.613 179.294 106.479 179.499 106.305 179.669C106.131 179.838 105.923 179.968 105.694 180.048C102.925 181.054 97.763 182.936 95.9946 183.686C93.5297 184.734 90.8027 186.24 89.2963 185.889C89.2033 185.869 89.1118 185.844 89.0224 185.812C88.7511 185.693 88.5167 185.503 88.3437 185.263C88.1706 185.022 88.0651 184.74 88.0384 184.445C88.0116 184.15 88.0645 183.853 88.1915 183.586C88.3185 183.318 88.515 183.09 88.7604 182.924C90.505 181.733 93.5773 179.256 94.9646 176.148C95.0517 175.946 95.1789 175.764 95.3386 175.612C95.4983 175.461 95.687 175.343 95.8934 175.267Z" fill="#405261"/>
<path d="M128.855 99.5311C128.855 99.5311 124.937 73.619 124.092 67.3136C123.246 61.0083 124.092 57.7871 126.473 55.7211C128.855 53.655 139.775 49.243 147.104 50.4339C154.434 51.6247 158.012 57.7633 159.012 64.7236L157.309 65.5751C157.309 65.5751 159.489 89.7248 158.697 98.0783L128.855 99.5311Z" fill="#1265E5"/>
<path d="M126.468 55.7032C126.468 55.7032 120.674 60.8177 120.674 70.7015L129.707 74.1608L126.468 55.7032Z" fill="#1265E5"/>
<path d="M157.447 65.4798C157.447 65.4798 160.727 77.0783 159.828 81.8713C158.929 86.6643 150.766 93.0947 139.418 95.2382C139.418 95.2382 134.375 96.1194 131.469 93.7259L127.057 92.4636L128.319 88.5518C131.682 88.6114 134.993 89.3889 138.03 90.8322C138.03 90.8322 148.873 85.9141 152.279 82.1333C152.279 82.1333 151.898 74.4406 150.01 69.0343L157.447 65.4798Z" fill="#B97964"/>
<path d="M108.331 165.413L95.6671 163.508L95.2086 167.491L106.7 169.837L108.331 165.413Z" fill="#1265E5"/>
<path d="M63.5627 93.5234H97.5009C97.8455 93.5237 98.1857 93.4454 98.4956 93.2945C98.8055 93.1436 99.0769 92.9241 99.2893 92.6526C99.5016 92.3811 99.6493 92.0648 99.7212 91.7277C99.793 91.3906 99.7871 91.0416 99.7039 90.7071L93.6665 66.6468C93.5441 66.1551 93.2607 65.7186 92.8615 65.4067C92.4622 65.0949 91.9701 64.9257 91.4634 64.926H57.5253C57.1806 64.9258 56.8404 65.0041 56.5305 65.155C56.2206 65.3058 55.9492 65.5254 55.7368 65.7968C55.5245 66.0683 55.3768 66.3846 55.3049 66.7217C55.2331 67.0588 55.239 67.4078 55.3223 67.7423L61.3239 91.8027C61.4477 92.3003 61.7364 92.7413 62.143 93.0538C62.5495 93.3663 63.05 93.5318 63.5627 93.5234Z" fill="#405261"/>
<path d="M119.394 93.4401H96.328V91.6539H118.215C118.531 91.6539 118.834 91.7793 119.057 92.0027C119.281 92.226 119.406 92.5289 119.406 92.8447V93.4758L119.394 93.4401Z" fill="#405261"/>
<path opacity="0.3" d="M63.5627 93.5234H97.5009C97.8455 93.5237 98.1857 93.4454 98.4956 93.2945C98.8055 93.1436 99.0769 92.9241 99.2893 92.6526C99.5016 92.3811 99.6493 92.0648 99.7212 91.7277C99.793 91.3906 99.7871 91.0416 99.7039 90.7071L93.6665 66.6468C93.5441 66.1551 93.2607 65.7186 92.8615 65.4067C92.4622 65.0949 91.9701 64.9257 91.4634 64.926H57.5253C57.1806 64.9258 56.8404 65.0041 56.5305 65.155C56.2206 65.3058 55.9492 65.5254 55.7368 65.7968C55.5245 66.0683 55.3768 66.3846 55.3049 66.7217C55.2331 67.0588 55.239 67.4078 55.3223 67.7423L61.3239 91.8027C61.4477 92.3003 61.7364 92.7413 62.143 93.0538C62.5495 93.3663 63.05 93.5318 63.5627 93.5234Z" fill="#1D2B36"/>
<path d="M61.7824 93.5234H95.7206C96.0652 93.5237 96.4054 93.4454 96.7153 93.2945C97.0252 93.1436 97.2966 92.9241 97.509 92.6526C97.7213 92.3811 97.869 92.0648 97.9409 91.7277C98.0127 91.3906 98.0068 91.0416 97.9236 90.7071L91.8802 66.6468C91.7579 66.1551 91.4745 65.7186 91.0752 65.4067C90.676 65.0949 90.1838 64.9257 89.6772 64.926H55.739C55.3943 64.9258 55.0541 65.0041 54.7443 65.155C54.4344 65.3058 54.163 65.5254 53.9506 65.7968C53.7382 66.0683 53.5905 66.3846 53.5187 66.7217C53.4469 67.0588 53.4528 67.4078 53.536 67.7423L59.5377 91.8027C59.6626 92.3008 59.9525 92.742 60.36 93.0544C60.7676 93.3668 61.2689 93.5321 61.7824 93.5234Z" fill="#405261"/>
<path opacity="0.2" d="M61.7824 93.5234H95.7206C96.0652 93.5237 96.4054 93.4454 96.7153 93.2945C97.0252 93.1436 97.2966 92.9241 97.509 92.6526C97.7213 92.3811 97.869 92.0648 97.9409 91.7277C98.0127 91.3906 98.0068 91.0416 97.9236 90.7071L91.8802 66.6468C91.7579 66.1551 91.4745 65.7186 91.0752 65.4067C90.676 65.0949 90.1838 64.9257 89.6772 64.926H55.739C55.3943 64.9258 55.0541 65.0041 54.7443 65.155C54.4344 65.3058 54.163 65.5254 53.9506 65.7968C53.7382 66.0683 53.5905 66.3846 53.5187 66.7217C53.4469 67.0588 53.4528 67.4078 53.536 67.7423L59.5377 91.8027C59.6626 92.3008 59.9525 92.742 60.36 93.0544C60.7676 93.3668 61.2689 93.5321 61.7824 93.5234Z" fill="white"/>
<path opacity="0.3" d="M77.2392 78.5192C77.7096 80.5257 76.7629 82.4727 75.1196 82.8597C73.4763 83.2467 71.7496 81.9368 71.2733 79.9303C70.7969 77.9238 71.7496 75.9768 73.3929 75.5898C75.0362 75.2027 76.7629 76.5424 77.2392 78.5192Z" fill="#1D2B36"/>
<path d="M53.548 95.6133L41.0266 173.266H38.252L50.8448 95.1727L53.548 95.6133Z" fill="#1265E5"/>
<path opacity="0.5" d="M53.548 95.6133L41.0266 173.266H38.252L50.8448 95.1727L53.548 95.6133Z" fill="white"/>
<path d="M71.9699 173.266H69.1894L57.0907 95.6074L59.7998 95.1846L71.9699 173.266Z" fill="#1265E5"/>
<path opacity="0.5" d="M71.9699 173.266H69.1894L57.0907 95.6074L59.7998 95.1846L71.9699 173.266Z" fill="white"/>
<path d="M100.859 95.6133L88.3377 173.266H85.5571L98.15 95.1727L100.859 95.6133Z" fill="#1265E5"/>
<path opacity="0.5" d="M100.859 95.6133L88.3377 173.266H85.5571L98.15 95.1727L100.859 95.6133Z" fill="white"/>
<path d="M142.651 173.266H139.876L127.771 95.6074L130.48 95.1846L142.651 173.266Z" fill="#1265E5"/>
<path opacity="0.5" d="M142.651 173.266H139.876L127.771 95.6074L130.48 95.1846L142.651 173.266Z" fill="white"/>
<path d="M146.062 92.9637H31V96.5779H146.062V92.9637Z" fill="#1265E5"/>
<path opacity="0.3" d="M146.116 92.9637H99.7399V96.5779H146.116V92.9637Z" fill="#1D2B36"/>
<path d="M150.01 69.0105L149.605 67.5756L158.721 63.0327L159.03 64.7534L150.01 69.0105Z" fill="#405261"/>
<path opacity="0.1" d="M149.605 67.5756L146.842 63.4375L151.23 73.6904L149.605 67.5756Z" fill="#1D2B36"/>
<path d="M124.789 72.2734L124.539 70.7194L120.674 69.2487V70.7194L124.789 72.2734Z" fill="#405261"/>
<path opacity="0.1" d="M124.789 72.2734C124.711 71.9757 123.764 65.4798 123.764 65.4798V71.8863L124.789 72.2734Z" fill="#1D2B36"/>
<path d="M132.487 52.6904C132.487 52.6904 129.879 58.5135 136.024 58.3289C142.168 58.1444 143.716 53.6074 144.026 50.2314L142.109 49.5705C142.109 49.5705 141.001 54.3337 136.845 55.2804C132.69 56.2271 133.035 51.8926 133.035 51.8926L132.487 52.6904Z" fill="#405261"/>
<path opacity="0.1" d="M97.5723 169.479L104.056 171.004L104.425 169.378L97.9474 168.05L97.5723 169.479Z" fill="#1D2B36"/>
<path d="M132.888 52.2635C133.244 50.4838 132.739 49.1491 132.443 48.7041C134.519 44.4032 138.672 36.6912 138.672 40.2506C138.672 43.81 141.045 47.9626 142.231 49.594C143.121 53.1534 140.452 56.7128 136.892 57.1577C132.822 57.6665 132.443 54.4882 132.888 52.2635Z" fill="#B97964"/>
<path d="M132.443 48.7042C134.519 44.4033 136.892 36.2463 136.892 39.8057C136.892 42.4752 138.132 41.8218 136.447 46.0346C135.557 48.2593 133.017 51.3355 133.009 50.9288C132.987 49.8283 132.659 49.0291 132.443 48.7042Z" fill="#A24E3F"/>
<path d="M121.284 29.2569C118.886 29.7074 117.285 32.2716 119.759 36.8172C122.233 41.3628 127.69 41.515 126.193 34.7004C125.286 30.5906 123.059 28.9144 121.284 29.2569Z" fill="#1D2B36"/>
<path d="M136.724 33.2336C137.967 39.4322 138.675 43.6643 135.821 47.1808C130.149 54.1563 125.047 51.9548 121.972 46.2417C119.204 41.0964 117.641 31.8273 122.98 27.8737C124.164 26.996 125.552 26.4331 127.013 26.2376C128.474 26.0422 129.96 26.2205 131.333 26.756C132.707 27.2915 133.921 28.1667 134.864 29.2995C135.807 30.4324 136.447 31.786 136.724 33.2336Z" fill="#B97964"/>
<path d="M135.527 39.3114C132.832 39.5605 133.123 38.5385 133.123 38.5385C133.123 38.5385 133.799 35.6117 133.45 34.3173C133.101 33.023 130.05 31.5288 129.948 29.9183C129.845 28.3079 135.874 24.1658 140.378 25.9354C139.821 26.4244 139.214 26.8516 138.565 27.2092C139.442 27.5087 140.207 28.0658 140.762 28.8077C141.317 29.5495 141.635 30.4416 141.674 31.367C141.88 34.6801 138.414 39.0739 135.527 39.3114Z" fill="#1D2B36"/>
<path d="M124.032 46.3805L129.687 43.3681C129.687 43.3681 129.641 45.1595 127.401 46.6694C125.162 48.1793 124.032 46.3805 124.032 46.3805Z" fill="#405261"/>
<path d="M124.145 46.3176C124.52 46.5814 125.351 46.8289 126.882 45.7973C127.73 45.2569 128.459 44.5505 129.026 43.7207C128.028 44.2594 126.02 45.3252 124.145 46.3176Z" fill="white"/>
<path d="M140.486 38.394C140.347 39.1653 140.057 39.9017 139.634 40.5611C139.21 41.2205 138.66 41.79 138.017 42.237C136.276 43.4278 134.716 42.0399 134.622 40.0528C134.524 38.2479 135.336 35.4879 137.354 35.0918C139.373 34.6957 140.803 36.4774 140.486 38.394Z" fill="#B97964"/>
<path d="M127.499 37.2884C127.631 37.7855 127.476 38.2557 127.152 38.3418C126.827 38.428 126.462 38.1031 126.322 37.5917C126.182 37.0802 126.345 36.6244 126.672 36.5429C126.999 36.4615 127.37 36.7959 127.499 37.2884Z" fill="#405261"/>
<path d="M122.255 38.7542C122.387 39.2513 122.231 39.7215 121.904 39.8029C121.577 39.8843 121.215 39.5641 121.077 39.0575C120.94 38.5508 121.101 38.0901 121.428 38.0087C121.754 37.9273 122.123 38.257 122.255 38.7542Z" fill="#405261"/>
<path d="M124.07 38.6991L125.191 42.8705C125.191 42.8705 123.71 43.6889 122.571 43.2088C122.551 40.9078 124.07 38.6991 124.07 38.6991Z" fill="#A24E3F"/>
<path d="M128.709 35.2259C128.757 35.2142 128.801 35.1897 128.837 35.155C128.862 35.1241 128.881 35.0885 128.892 35.0502C128.903 35.0119 128.907 34.9717 128.902 34.932C128.898 34.8924 128.885 34.854 128.866 34.8193C128.846 34.7845 128.819 34.7541 128.788 34.7297C128.417 34.4232 127.978 34.2092 127.508 34.1057C127.039 34.0021 126.551 34.0119 126.085 34.1342C126.045 34.145 126.008 34.164 125.976 34.1898C125.943 34.2156 125.916 34.2478 125.897 34.2843C125.877 34.3208 125.866 34.361 125.862 34.4022C125.859 34.4435 125.864 34.485 125.877 34.5243C125.89 34.5635 125.911 34.5996 125.939 34.6304C125.967 34.6612 126 34.686 126.038 34.7033C126.076 34.7206 126.116 34.73 126.158 34.731C126.199 34.732 126.24 34.7245 126.279 34.7089C126.648 34.6193 127.034 34.6174 127.404 34.7034C127.774 34.7894 128.119 34.9608 128.412 35.2041C128.455 35.2334 128.505 35.2509 128.557 35.2547C128.609 35.2585 128.662 35.2486 128.709 35.2259Z" fill="#1D2B36"/>
<path d="M118.997 38.0067C119.045 37.9937 119.089 37.969 119.125 37.9349C119.162 37.9008 119.189 37.8583 119.205 37.8112C119.311 37.4481 119.502 37.1152 119.761 36.8396C120.02 36.564 120.34 36.3535 120.696 36.2252C120.734 36.2151 120.77 36.1976 120.801 36.1735C120.832 36.1494 120.858 36.1193 120.877 36.085C120.896 36.0506 120.908 36.0128 120.913 35.9737C120.917 35.9346 120.913 35.895 120.902 35.8574C120.88 35.7807 120.829 35.7156 120.76 35.6762C120.691 35.6368 120.609 35.6263 120.532 35.6468C120.079 35.7994 119.671 36.0584 119.34 36.402C119.008 36.7456 118.765 37.1637 118.629 37.6212C118.607 37.6984 118.616 37.7812 118.655 37.8515C118.694 37.9218 118.759 37.9739 118.836 37.9963C118.888 38.0139 118.943 38.0175 118.997 38.0067Z" fill="#1D2B36"/>
<path d="M135.984 26.3976C132.982 28.558 122.961 32.9223 117.864 31.0533C112.766 29.1843 113.69 25.4946 118.169 25.7283C118.169 25.7283 114.294 23.9402 118.267 22.7305C122.018 21.5883 129.213 25.2237 134.124 22.1885C138.303 19.601 138.959 24.2771 135.984 26.3976Z" fill="#1D2B36"/>
<path d="M141.611 40.1275C140.784 42.1645 138.837 43.2958 137.264 42.6587C135.692 42.0216 135.092 39.8489 135.915 37.8266C136.738 35.8042 138.689 34.6582 140.262 35.2953C141.834 35.9324 142.433 38.093 141.611 40.1275Z" fill="#405261"/>
<path d="M130.25 48.8203C130.044 48.8497 129.833 48.8208 129.642 48.7366C129.451 48.6524 129.287 48.5164 129.169 48.344C129.052 48.1716 128.985 47.9696 128.976 47.7611C128.967 47.5525 129.017 47.3456 129.12 47.1639C129.222 46.9822 129.374 46.8329 129.557 46.733C129.741 46.633 129.948 46.5864 130.157 46.5984C130.365 46.6103 130.566 46.6805 130.736 46.8008C130.907 46.9211 131.04 47.0868 131.122 47.2791C131.206 47.5989 131.162 47.9389 130.999 48.2267C130.836 48.5145 130.568 48.7275 130.25 48.8203Z" fill="#405261"/>
<path d="M139.754 37.0012C139.671 37.0464 139.578 37.0719 139.484 37.0758C139.389 37.0797 139.295 37.0618 139.208 37.0236C139.135 36.9915 139.069 36.9453 139.014 36.8877C138.959 36.8301 138.916 36.7622 138.887 36.6879C138.858 36.6136 138.844 36.5343 138.845 36.4545C138.847 36.3747 138.864 36.296 138.896 36.223C139.591 34.6429 139.064 31.9598 137.577 29.5152C136.634 27.9659 133.899 24.327 128.96 24.0127C128.88 24.008 128.802 23.9876 128.73 23.9527C128.657 23.9178 128.593 23.8691 128.54 23.8092C128.487 23.7494 128.446 23.6797 128.42 23.6041C128.393 23.5285 128.382 23.4484 128.387 23.3685C128.392 23.2886 128.412 23.2104 128.447 23.1384C128.482 23.0664 128.531 23.0019 128.59 22.9487C128.65 22.8955 128.72 22.8547 128.796 22.8284C128.871 22.8022 128.951 22.7911 129.031 22.7958C132.921 23.039 136.421 25.2578 138.626 28.8796C140.319 31.663 140.867 34.7314 140.008 36.6872C139.962 36.818 139.872 36.9289 139.754 37.0012Z" fill="#405261"/>
<path d="M132.895 47.3591C132.115 47.7888 131.307 48.1667 130.477 48.4903C130.44 48.5056 130.4 48.5133 130.36 48.5129C130.32 48.5126 130.28 48.5042 130.243 48.4884C130.206 48.4725 130.172 48.4494 130.144 48.4204C130.116 48.3915 130.094 48.3572 130.079 48.3197C130.052 48.2445 130.054 48.1615 130.087 48.0881C130.119 48.0148 130.178 47.9568 130.253 47.9265C136.362 45.5244 138.474 41.3028 138.494 41.2607C138.529 41.1878 138.592 41.1318 138.669 41.1052C138.745 41.0786 138.829 41.0836 138.902 41.1189C138.975 41.1542 139.031 41.217 139.058 41.2936C139.084 41.3701 139.079 41.4541 139.044 41.527C138.97 41.6854 137.378 44.883 132.895 47.3591Z" fill="#405261"/>
</svg>
