<svg fill="none" height="200" viewBox="0 0 205 200" width="205" xmlns="http://www.w3.org/2000/svg">
<path d="M204.06 161.021H5V161.12H204.06V161.021Z" fill="#EBEBEB"/>
<path d="M184.114 167.427H170.929V167.526H184.114V167.427Z" fill="#EBEBEB"/>
<path d="M113.774 166.181H108.643V166.28H113.774V166.181Z" fill="#EBEBEB"/>
<path d="M144.211 166.603H133.406V166.702H144.211V166.603Z" fill="#EBEBEB"/>
<path d="M170.531 163.732H148.192V163.832H170.531V163.732Z" fill="#EBEBEB"/>
<path d="M36.4475 168.338H25.8854V168.438H36.4475V168.338Z" fill="#EBEBEB"/>
<path d="M49.1475 168.338H39.9907V168.438H49.1475V168.338Z" fill="#EBEBEB"/>
<path d="M81.3637 166.133H57.1539V166.232H81.3637V166.133Z" fill="#EBEBEB"/>
<path d="M99.3546 143.265H22.4814C21.8792 143.264 21.302 143.024 20.8766 142.598C20.4511 142.171 20.2122 141.594 20.2122 140.991V32.9296C20.2174 32.3308 20.4587 31.7583 20.8836 31.3364C21.3085 30.9145 21.8827 30.6772 22.4814 30.6762H99.3546C99.9575 30.6762 100.536 30.9157 100.962 31.342C101.388 31.7684 101.628 32.3466 101.628 32.9495V140.991C101.628 141.594 101.388 142.173 100.962 142.599C100.536 143.025 99.9575 143.265 99.3546 143.265ZM22.4814 30.7558C21.9056 30.7569 21.3537 30.9864 20.947 31.3939C20.5402 31.8015 20.3117 32.3537 20.3117 32.9296V140.991C20.3117 141.567 20.5402 142.12 20.947 142.527C21.3537 142.935 21.9056 143.164 22.4814 143.165H99.3546C99.9308 143.164 100.483 142.935 100.89 142.527C101.298 142.12 101.527 141.568 101.528 140.991V32.9296C101.527 32.3534 101.298 31.8011 100.89 31.3937C100.483 30.9862 99.9308 30.7569 99.3546 30.7558H22.4814Z" fill="#EBEBEB"/>
<path d="M185.472 143.265H108.595C107.992 143.264 107.415 143.024 106.989 142.598C106.563 142.172 106.323 141.594 106.322 140.991V32.9296C106.328 32.3304 106.57 31.7579 106.996 31.3361C107.421 30.9143 107.996 30.6772 108.595 30.6762H185.472C186.07 30.6783 186.643 30.916 187.067 31.3378C187.492 31.7596 187.732 32.3315 187.737 32.9296V140.991C187.737 141.593 187.499 142.17 187.074 142.596C186.65 143.022 186.074 143.263 185.472 143.265ZM108.595 30.7558C108.019 30.7569 107.467 30.9862 107.059 31.3937C106.652 31.8011 106.422 32.3534 106.421 32.9296V140.991C106.422 141.568 106.652 142.12 107.059 142.527C107.467 142.935 108.019 143.164 108.595 143.165H185.472C186.048 143.164 186.601 142.935 187.008 142.527C187.415 142.12 187.645 141.568 187.646 140.991V32.9296C187.645 32.3534 187.415 31.8011 187.008 31.3937C186.601 30.9862 186.048 30.7569 185.472 30.7558H108.595Z" fill="#EBEBEB"/>
<path d="M78.1586 127.419C78.143 125.88 78.4582 124.355 79.0831 122.948C79.7079 121.54 80.6278 120.284 81.7805 119.263C82.9331 118.242 84.2916 117.481 85.764 117.031C87.2364 116.58 88.7884 116.452 90.3148 116.653C91.8413 116.855 93.3066 117.382 94.6117 118.199C95.9167 119.016 97.0309 120.104 97.879 121.389C98.7271 122.674 99.2892 124.127 99.5273 125.648C99.7654 127.169 99.6739 128.724 99.259 130.206C98.0894 134.772 97.5245 139.472 97.579 144.184V157.912C97.579 158.39 97.389 158.849 97.0507 159.187C96.7125 159.525 96.2538 159.715 95.7755 159.715H82.0085C81.7718 159.715 81.5375 159.668 81.3189 159.578C81.1003 159.487 80.9018 159.354 80.7346 159.187C80.5675 159.019 80.435 158.82 80.3448 158.601C80.2546 158.383 80.2084 158.148 80.209 157.912V143.38C80.2488 138.959 79.689 134.553 78.5448 130.282C78.2889 129.349 78.1591 128.387 78.1586 127.419Z" fill="#F5F5F5"/>
<path d="M131.543 127.419C131.527 125.88 131.842 124.355 132.467 122.948C133.092 121.54 134.012 120.284 135.164 119.263C136.317 118.242 137.676 117.481 139.148 117.031C140.62 116.58 142.172 116.452 143.699 116.653C145.225 116.855 146.691 117.382 147.996 118.199C149.301 119.016 150.415 120.104 151.263 121.389C152.111 122.674 152.673 124.127 152.911 125.648C153.149 127.169 153.058 128.724 152.643 130.206C151.47 134.771 150.904 139.471 150.959 144.184V157.912C150.96 158.148 150.913 158.383 150.823 158.601C150.733 158.82 150.601 159.019 150.433 159.187C150.266 159.354 150.068 159.487 149.849 159.578C149.63 159.668 149.396 159.715 149.16 159.715H135.396C134.918 159.715 134.459 159.525 134.121 159.187C133.783 158.849 133.593 158.39 133.593 157.912V143.38C133.632 138.959 133.074 134.553 131.933 130.282C131.674 129.35 131.542 128.387 131.543 127.419Z" fill="#F5F5F5"/>
<path d="M39.9112 92.0066L164.702 92.0066V40.6729L39.9112 40.6729V92.0066Z" fill="#E6E6E6"/>
<path d="M38.3307 92.0066L163.962 92.0066V40.6729L38.3307 40.6729V92.0066Z" fill="#F5F5F5"/>
<path d="M39.9112 93.9534L164.702 93.9534V92.0106L39.9112 92.0106V93.9534Z" fill="#E6E6E6"/>
<path d="M36.9213 93.9534L159.105 93.9534V92.0106L36.9213 92.0106V93.9534Z" fill="#F5F5F5"/>
<path d="M161.76 89.0686V43.6191L40.5402 43.6191V89.0686H161.76Z" fill="#FAFAFA"/>
<path d="M40.8508 89.0646V43.6151H40.5363V89.0646H40.8508Z" fill="#E6E6E6"/>
<path d="M153.929 89.0646L145.768 43.6151H135.07L143.232 89.0646H153.929Z" fill="white"/>
<path d="M110.446 89.0646L102.285 43.6151H97.4517L105.613 89.0646H110.446Z" fill="white"/>
<path d="M160.179 86.8033V39.0367C160.179 38.9026 160.071 38.7939 159.937 38.7939H159.917C159.783 38.7939 159.674 38.9026 159.674 39.0367V86.8033C159.674 86.9374 159.783 87.0461 159.917 87.0461H159.937C160.071 87.0461 160.179 86.9374 160.179 86.8033Z" fill="#EBEBEB"/>
<path d="M37.1722 72.889L165.554 72.889V38.7979L37.1722 38.7979V72.889Z" fill="#E6E6E6" opacity="0.5"/>
<path d="M37.1722 39.7016L165.554 39.7016V38.7979L37.1722 38.7979V39.7016Z" fill="#E0E0E0"/>
<path d="M37.2636 39.192L165.467 39.192C165.658 39.192 165.813 39.0369 165.813 38.8456V38.7461C165.813 38.5548 165.658 38.3997 165.467 38.3997L37.2636 38.3997C37.0724 38.3997 36.9173 38.5548 36.9173 38.7461V38.8456C36.9173 39.0369 37.0724 39.192 37.2636 39.192Z" fill="#EBEBEB"/>
<path d="M37.1085 73.076H165.626C165.676 73.0749 165.723 73.0543 165.758 73.0186C165.793 72.9829 165.813 72.9349 165.813 72.8849C165.813 72.8352 165.793 72.7876 165.758 72.7526C165.723 72.7175 165.675 72.6978 165.626 72.6978H37.1085C37.0585 72.6977 37.0104 72.7173 36.9747 72.7523C36.939 72.7873 36.9184 72.8349 36.9174 72.8849C36.9184 72.9352 36.9388 72.9833 36.9745 73.0189C37.0101 73.0545 37.0581 73.0749 37.1085 73.076Z" fill="white"/>
<path d="M159.904 33.9353C113.094 6.65965 90.5129 47.5558 82.7129 78.3267C74.9128 109.098 23.6346 80.3014 13.1044 114.459C4.71194 141.734 43.1842 180.434 114.619 156.244C186.054 132.053 193.509 53.5145 159.904 33.9353Z" fill="#008AF8"/>
<path d="M159.904 33.9353C113.094 6.65965 90.5131 47.5558 82.713 78.3267C74.9129 109.098 23.6347 80.3014 13.1046 114.459C4.71207 141.734 43.1843 180.434 114.619 156.244C186.054 132.053 193.509 53.5145 159.904 33.9353Z" fill="white" opacity="0.9"/>
<path d="M104.53 179C147.162 179 181.722 176.982 181.722 174.493C181.722 172.004 147.162 169.987 104.53 169.987C61.8986 169.987 27.3387 172.004 27.3387 174.493C27.3387 176.982 61.8986 179 104.53 179Z" fill="#F5F5F5"/>
<path d="M95.3947 62.5432C95.5182 62.4079 96.7842 61.114 96.3144 60.3297C95.9163 61.1538 95.1519 62.4039 92.8109 62.6109C93.0718 61.9006 93.2065 61.1501 93.2091 60.3934C92.8284 61.2562 92.2534 62.0192 91.529 62.6229C90.0775 62.5146 88.6445 62.2312 87.2611 61.7789C81.361 62.3203 81.2177 57.6742 81.1699 56.6391C81.017 57.3317 80.9488 58.0402 80.9668 58.7492C79.6929 56.7267 79.8959 53.6572 81.576 53.0839C81.8825 46.5547 86.6003 45.9735 87.7867 45.7147C89.9285 45.2449 93.6669 43.4494 95.5182 47.3072C98.1179 48.7046 99.1012 51.9891 97.9905 56.9974C100.22 60.5845 95.6296 62.4517 95.3947 62.5432Z" fill="#1D2B36"/>
<path d="M86.8951 174.246C89.9765 174.246 90.3826 174.198 92.1144 174.138C93.5954 174.086 93.9498 174.27 95.1441 174.246C96.1394 174.222 96.0996 173.27 95.7931 172.175C95.6418 171.626 95.395 170.46 95.1919 169.572L90.51 170.061C90.1412 170.72 89.6174 171.279 88.9841 171.689C88.3508 172.1 87.6269 172.35 86.8752 172.418C85.215 172.641 85.6689 174.246 86.8951 174.246Z" fill="#263238"/>
<path d="M84.3708 163.094C86.1942 160.678 86.656 159.75 87.6393 158.357C88.4794 157.162 88.6426 157.461 89.5384 156.282C90.1276 155.486 89.5822 154.395 88.7421 154.152C87.9543 153.994 87.1827 153.763 86.437 153.464L83.3635 155.729C83.9249 157.182 83.9886 160.507 82.7265 162.437C81.8148 163.823 83.6343 164.062 84.3708 163.094Z" fill="#263238"/>
<path d="M72.7698 89.223C72.7698 89.223 63.9156 114.535 62.769 123.8C61.6503 132.861 83.5947 156.422 83.5947 156.422C84.1242 156.82 86.3219 154.089 86.4453 153.372C86.4453 153.372 77.7344 134.183 71.667 124.09C84.805 104.626 87.0862 91.4922 87.0862 91.4922L72.7698 89.223Z" fill="#008AF8"/>
<path d="M77.0614 89.9038C77.0614 89.9038 82.01 115.384 83.8971 127.662C85.8877 140.545 91.0076 161.637 90.5099 170.061C91.2305 170.483 93.882 169.771 95.2874 169.325C95.2874 169.325 98.9302 141.691 92.6478 128.936C96.7126 99.1243 89.1802 91.8267 89.1802 91.8267L77.0614 89.9038Z" fill="#008AF8"/>
<path d="M90.1555 166.379C90.1555 167.135 90.1038 168.453 89.9923 169.46C89.9525 169.822 90.0918 170.161 90.2948 170.221C92.0068 170.706 94.4871 169.998 95.2753 169.747C95.4266 169.699 95.5381 169.488 95.562 169.217L95.8168 166.335C95.8526 165.937 95.6814 165.583 95.4545 165.59L90.5098 165.762C90.3227 165.77 90.1635 166.036 90.1555 166.379Z" fill="#263238"/>
<path d="M80.8913 153.715C81.369 154.364 82.213 155.518 82.8222 156.39C83.0252 156.677 83.3238 156.828 83.5069 156.744C84.8804 156.107 86.5167 154.356 87.0462 153.79C87.1497 153.675 87.1258 153.44 86.9865 153.209L85.4816 150.721C85.2786 150.382 84.9123 150.183 84.7252 150.323L80.8117 153.03C80.6524 153.133 80.6843 153.452 80.8913 153.715Z" fill="#263238"/>
<path d="M78.3992 70.2924C78.2599 70.0893 78.1803 69.9619 78.0807 69.8027L77.806 69.3488C77.6309 69.0502 77.4676 68.7477 77.3084 68.4451C76.9899 67.84 76.6926 67.2282 76.4166 66.6098C75.8646 65.3671 75.4004 64.0873 75.0272 62.7798C74.6461 61.4664 74.364 60.1263 74.1831 58.7708C74.0836 58.09 74.0279 57.4052 73.9881 56.7165C73.9881 56.3701 73.9562 56.0277 73.9602 55.6813V55.1638C73.9602 54.9408 73.9602 54.698 73.996 54.4949C74.0735 53.7455 74.2187 53.0046 74.43 52.2814C74.6171 51.6046 74.8281 50.9676 75.059 50.3425C75.5168 49.0925 76.0344 47.9021 76.5758 46.7316C77.6662 44.4058 78.8918 42.1459 80.2465 39.9635C80.4109 39.7039 80.665 39.5136 80.9604 39.4289C81.2559 39.3442 81.5722 39.3709 81.8492 39.504C82.1263 39.6371 82.3448 39.8674 82.4632 40.151C82.5817 40.4346 82.5919 40.7518 82.4919 41.0425V41.0663C81.6598 43.3993 80.8397 45.7642 80.0833 48.0932C79.709 49.2636 79.3547 50.4301 79.0641 51.5767C78.9168 52.146 78.7814 52.7153 78.666 53.2648C78.5706 53.7586 78.5134 54.2591 78.4948 54.7617C78.4948 54.8692 78.4948 54.9408 78.4948 55.0324L78.5306 55.4584C78.5505 55.7371 78.5903 56.0198 78.6182 56.3024C78.7018 56.8638 78.7814 57.4251 78.8969 57.9825C79.1213 59.1051 79.4152 60.2126 79.7767 61.2988C80.1396 62.3929 80.5609 63.4667 81.0388 64.5156C81.2737 65.0451 81.5245 65.5627 81.7872 66.0683L82.1854 66.8128L82.3884 67.1751L82.5715 67.4816L82.6392 67.5931C82.9582 68.1569 83.0478 68.8219 82.8895 69.45C82.7311 70.0781 82.337 70.6211 81.789 70.9663C81.2409 71.3116 80.5809 71.4325 79.946 71.3041C79.3111 71.1756 78.7501 70.8076 78.3793 70.2765L78.3992 70.2924Z" fill="#B97964"/>
<path d="M84.7053 38.8608C84.65 39.4442 84.3822 39.9868 83.9528 40.3856L81.9821 42.0856C81.8478 42.2042 81.6802 42.2785 81.5021 42.2985C81.324 42.3184 81.1441 42.283 80.9868 42.1971L79.9079 41.6397C79.8516 40.0985 80.1959 38.569 80.9072 37.2006L81.3929 35.3255C81.4015 35.2559 81.4264 35.1892 81.4656 35.1311C81.5048 35.0729 81.5572 35.0247 81.6185 34.9906C81.6798 34.9565 81.7483 34.9373 81.8184 34.9346C81.8885 34.9319 81.9582 34.9458 82.022 34.9751L84.5978 36.3168C84.7211 36.394 84.8189 36.5057 84.8791 36.6381C84.9393 36.7705 84.9591 36.9177 84.9362 37.0613L84.7053 38.8608Z" fill="#B97964"/>
<path d="M79.7766 73.3819C86.2979 71.1723 83.1885 66.4108 81.4249 61.9239C79.7129 60.6261 74.6568 65.9649 74.6568 65.9649C74.6568 65.9649 73.3709 72.8882 79.7766 73.3819Z" fill="#263238"/>
<path d="M74.8995 69.7391C74.4107 72.2299 74.0493 74.7439 73.8166 77.2715C73.4185 80.556 73.1438 83.8007 72.7695 89.2152L89.196 91.8189C89.5941 87.137 90.9716 81.9495 95.5659 72.0044C95.8256 71.4875 95.9664 70.9191 95.9781 70.3407C95.9898 69.7624 95.8721 69.1887 95.6336 68.6617C95.3951 68.1347 95.0418 67.6677 94.5996 67.2948C94.1574 66.9218 93.6374 66.6525 93.0777 66.5064C92.4367 66.3391 91.7559 66.1759 91.0512 66.0286C88.5971 65.4541 86.1052 65.0549 83.5944 64.8343C82.7703 64.7825 81.9144 64.7506 81.0942 64.7347C79.6415 64.7208 78.2291 65.2125 77.0989 66.1254C75.9688 67.0384 75.1913 68.3159 74.8995 69.7391Z" fill="#263238"/>
<path d="M91.8635 57.5565C90.8324 59.8537 89.3394 64.1215 90.6453 65.9728C90.6453 65.9728 88.4277 65.2681 83.1287 67.4896C82.0459 65.2641 83.1885 64.7904 83.1885 64.7904C86.0111 64.5834 86.4053 62.6087 86.3734 60.6937L91.8635 57.5565Z" fill="#B97964"/>
<path d="M84.2356 67.0597C85.7922 67.5375 85.9077 70.0177 85.9077 70.0177C85.9077 70.0177 90.1556 67.9196 91.6645 66.2077C91.2277 65.8607 90.8091 65.4913 90.4104 65.101C90.4104 65.101 85.3105 66.2635 84.2356 67.0597Z" fill="white"/>
<path d="M82.7584 66.554C82.7584 66.554 81.3251 66.7093 80.5249 68.5446C80.716 64.9854 82.4438 64.651 82.4438 64.651C82.9166 64.4688 83.4402 64.4688 83.9129 64.651C83.5266 64.7806 83.1987 65.0428 82.9873 65.3912C82.776 65.7396 82.6949 66.1515 82.7584 66.554Z" fill="white"/>
<path d="M89.6222 58.8345L86.3735 60.6898C86.3886 61.1397 86.3633 61.59 86.2979 62.0354C87.3529 62.0354 89.021 61.1635 89.3793 60.1244C89.5382 59.7129 89.6205 59.2757 89.6222 58.8345Z" fill="black" opacity="0.2"/>
<path d="M94.6744 53.0618C93.3327 56.824 92.843 58.4364 90.3388 59.9453C86.5686 62.2146 82.2331 60.0129 82.4242 55.9919C82.5914 52.377 84.7572 46.8351 88.9534 46.1862C93.1097 45.5612 96.016 49.3035 94.6744 53.0618Z" fill="#B97964"/>
<path d="M93.9456 47.9481C91.9152 49.1664 91.9829 55.7194 95.359 55.2417C98.4882 51.4516 96.1233 46.7896 93.9456 47.9481Z" fill="#1D2B36"/>
<path d="M95.5223 47.3765C93.1774 51.0591 84.3152 47.8702 82.2251 46.1144C83.73 46.5643 86.266 46.1702 88.0974 45.7163C89.9287 45.2625 95.0048 42.8737 95.5223 47.3765Z" fill="#1D2B36"/>
<path d="M83.73 45.394C86.2559 46.0336 88.9093 45.9634 91.3978 45.191L94.0771 44.972C92.1224 43.6821 86.8194 45.3422 83.73 45.394Z" fill="#263238"/>
<path d="M89.622 52.9264C89.5225 53.2449 89.2756 53.4639 89.0686 53.4161C88.8616 53.3683 88.77 53.0697 88.8696 52.7473C88.9691 52.4248 89.2199 52.2058 89.4269 52.2576C89.6339 52.3093 89.7215 52.6039 89.622 52.9264Z" fill="#263238"/>
<path d="M85.6131 51.8514C85.5136 52.1739 85.2628 52.3929 85.0557 52.3451C84.8487 52.2973 84.7611 51.9948 84.8607 51.6763C84.9602 51.3578 85.207 51.1348 85.414 51.1826C85.6211 51.2304 85.7087 51.5329 85.6131 51.8514Z" fill="#263238"/>
<path d="M85.5016 51.2223L84.8088 50.8242C84.8088 50.8242 85.0119 51.5329 85.5016 51.2223Z" fill="#263238"/>
<path d="M86.6283 52.8467C86.117 53.5113 85.5245 54.1091 84.8646 54.6263C85.1473 55.116 85.9435 55.116 85.9435 55.116L86.6283 52.8467Z" fill="#A24E3F"/>
<path d="M87.3886 56.7085C87.2049 56.6996 87.0224 56.6743 86.8432 56.6329C86.8308 56.6297 86.8193 56.6241 86.8092 56.6162C86.7992 56.6083 86.7909 56.5985 86.7849 56.5872C86.7789 56.576 86.7754 56.5636 86.7744 56.5509C86.7735 56.5382 86.7752 56.5255 86.7795 56.5135C86.7869 56.4888 86.8032 56.4678 86.8253 56.4545C86.8474 56.4413 86.8736 56.4367 86.8989 56.4418C87.3048 56.5388 87.7274 56.5433 88.1353 56.4551C88.5432 56.3669 88.9262 56.1882 89.2558 55.9322C89.2744 55.914 89.2994 55.9037 89.3254 55.9037C89.3515 55.9037 89.3765 55.914 89.3951 55.9322C89.404 55.9411 89.4111 55.9516 89.4159 55.9632C89.4207 55.9748 89.4232 55.9873 89.4232 55.9999C89.4232 56.0125 89.4207 56.0249 89.4159 56.0365C89.4111 56.0481 89.404 56.0587 89.3951 56.0676C88.8279 56.5209 88.1135 56.7491 87.3886 56.7085Z" fill="#263238"/>
<path d="M94.9567 56.7086C94.6933 57.0359 94.3677 57.3078 93.9987 57.5086C93.6298 57.7095 93.2247 57.8354 92.8069 57.8791C91.724 57.9707 91.4533 56.8758 91.9748 55.8885C92.4486 55.0047 93.5673 53.8979 94.5546 54.2562C95.542 54.6145 95.6335 55.8606 94.9567 56.7086Z" fill="#B97964"/>
<path d="M91.1589 50.5735C91.1337 50.5702 91.1096 50.5614 91.0882 50.5476C91.0669 50.5338 91.0489 50.5155 91.0355 50.4939C90.9098 50.2894 90.7343 50.1201 90.5254 50.0017C90.3166 49.8834 90.0812 49.8199 89.8411 49.8171C89.8162 49.8176 89.7915 49.8132 89.7683 49.804C89.7451 49.7948 89.724 49.7811 89.7062 49.7637C89.6884 49.7463 89.6743 49.7255 89.6646 49.7025C89.655 49.6795 89.65 49.6549 89.65 49.63C89.653 49.5775 89.6754 49.5279 89.713 49.4911C89.7505 49.4543 89.8005 49.4328 89.8531 49.4309C90.1539 49.4327 90.4493 49.5107 90.7117 49.6576C90.9742 49.8045 91.1952 50.0155 91.354 50.2709C91.3794 50.3162 91.3866 50.3694 91.374 50.4198C91.3614 50.4701 91.33 50.5137 91.2863 50.5417C91.2484 50.5658 91.2037 50.577 91.1589 50.5735Z" fill="#263238"/>
<path d="M84.8048 49.7414C84.7808 49.7416 84.7571 49.7367 84.7352 49.7271C84.7132 49.7175 84.6936 49.7034 84.6774 49.6857C84.6412 49.6492 84.6208 49.5998 84.6208 49.5484C84.6208 49.4969 84.6412 49.4475 84.6774 49.411C84.8998 49.1877 85.1706 49.0184 85.4688 48.9162C85.767 48.8141 86.0846 48.7817 86.3973 48.8218C86.4216 48.8268 86.4446 48.8368 86.4649 48.8513C86.4851 48.8657 86.5022 48.8841 86.5149 48.9055C86.5276 48.9268 86.5358 48.9506 86.5388 48.9752C86.5419 48.9999 86.5398 49.0249 86.5326 49.0487C86.5186 49.099 86.4864 49.1423 86.4423 49.1703C86.3982 49.1982 86.3452 49.2088 86.2938 49.2C86.0457 49.1717 85.7945 49.2004 85.5593 49.2839C85.324 49.3673 85.1109 49.5034 84.9362 49.6817C84.9004 49.7159 84.8541 49.737 84.8048 49.7414Z" fill="#263238"/>
<path d="M89.5264 52.2974L88.8336 51.8992C88.8336 51.8992 89.0247 52.588 89.5264 52.2974Z" fill="#263238"/>
<path d="M84.7927 90.9827L85.6128 90.0551C85.7655 89.8825 85.957 89.7487 86.1717 89.6649C86.3863 89.5811 86.6178 89.5498 86.847 89.5734L89.0168 89.8043C89.4439 89.8479 89.8543 89.9936 90.2132 90.2292C90.5722 90.4648 90.8691 90.7833 91.079 91.1579L91.3458 91.6277C90.0877 93.2639 87.5238 94.104 87.5238 94.104L86.8192 94.4264C86.6775 94.494 86.5239 94.5329 86.3672 94.541C86.2104 94.5492 86.0536 94.5263 85.9057 94.4738C85.7579 94.4213 85.6218 94.3402 85.5052 94.235C85.3887 94.1299 85.2941 94.0029 85.2267 93.8611L84.5698 92.4757C84.4596 92.2317 84.422 91.9611 84.4616 91.6964C84.5011 91.4316 84.6161 91.1838 84.7927 90.9827Z" fill="#B97964"/>
<path d="M97.0907 71.658C97.2261 71.9765 97.3296 72.2353 97.4411 72.5179C97.5526 72.8006 97.6441 73.0753 97.7437 73.354C97.9387 73.9114 98.1418 74.4687 98.297 75.0301C98.6354 76.1528 98.9301 77.2954 99.1689 78.4539C99.4148 79.6241 99.5956 80.807 99.7104 81.9972C99.8276 83.2197 99.8569 84.4491 99.798 85.6758V85.8032C99.7917 85.9216 99.773 86.0391 99.7422 86.1536C99.5368 86.889 99.1696 87.5691 98.6673 88.1442C98.2735 88.6006 97.8302 89.0119 97.3455 89.3704C96.51 89.9782 95.6086 90.4897 94.6582 90.8952C93.7782 91.2793 92.8738 91.6052 91.951 91.8706C91.0364 92.1393 90.1055 92.3494 89.1642 92.4996C88.8694 92.5491 88.5666 92.492 88.3101 92.3385C88.0536 92.1851 87.8601 91.9453 87.7643 91.6622C87.6684 91.379 87.6766 91.071 87.7872 90.7934C87.8978 90.5157 88.1037 90.2864 88.3679 90.1467L88.4237 90.1149C89.1602 89.7168 89.9485 89.3186 90.685 88.8887C91.4215 88.4587 92.1501 88.0287 92.8229 87.5669C93.4603 87.1467 94.0574 86.6682 94.6065 86.1376C94.819 85.9325 95.0061 85.7026 95.1638 85.4529C95.2833 85.2498 95.3151 85.1065 95.2912 85.0906L95.2315 85.5683C95.182 84.5668 95.0783 83.5687 94.921 82.5784C94.7458 81.5672 94.5229 80.556 94.284 79.5408C94.0451 78.5256 93.7386 77.5144 93.424 76.5071C93.2688 76.0055 93.1056 75.5038 92.9304 75.0062L92.6676 74.2697L92.4168 73.573L92.381 73.4774C92.1397 72.8529 92.1564 72.158 92.4274 71.5458C92.6985 70.9336 93.2016 70.4541 93.8262 70.2128C94.4507 69.9715 95.1455 69.9883 95.7578 70.2593C96.37 70.5303 96.8495 71.0334 97.0907 71.658Z" fill="#B97964"/>
<path d="M92.7831 66.4387C95.4823 66.9084 96.5612 68.4293 98.6713 73.9034C97.6282 75.9139 92.8906 77.7652 92.8906 77.7652C92.8906 77.7652 90.474 70.0178 92.7831 66.4387Z" fill="#263238"/>
<path d="M147.882 167.43L151.684 166.387L149.605 157.469L145.803 158.513L147.882 167.43Z" fill="#DFA977"/>
<path d="M151.162 164.803L146.99 165.874C146.915 165.892 146.849 165.937 146.803 166C146.758 166.063 146.737 166.139 146.743 166.216L147.029 169.768C147.037 169.855 147.064 169.94 147.108 170.017C147.151 170.093 147.212 170.159 147.284 170.21C147.356 170.261 147.438 170.295 147.525 170.311C147.611 170.327 147.701 170.323 147.786 170.301C149.283 169.903 151.433 169.242 153.324 168.756C155.537 168.187 155.338 168.33 157.93 167.665C159.499 167.267 159.447 165.583 158.746 165.611C155.561 165.731 155.243 165.774 152.173 164.863C151.848 164.752 151.498 164.731 151.162 164.803Z" fill="#263238"/>
<path d="M149.605 157.469L150.676 162.068L146.874 163.111L145.803 158.513L149.605 157.469Z" fill="black" opacity="0.2"/>
<path d="M151.906 164.982C151.889 164.981 151.873 164.975 151.859 164.964C151.846 164.954 151.836 164.939 151.831 164.922C151.824 164.904 151.823 164.885 151.828 164.866C151.833 164.848 151.844 164.831 151.859 164.819C152.014 164.684 153.391 163.497 153.909 163.625C153.958 163.638 154.002 163.664 154.037 163.7C154.072 163.737 154.097 163.782 154.108 163.832C154.134 163.913 154.141 164 154.128 164.085C154.114 164.17 154.082 164.251 154.032 164.321C153.686 164.803 152.559 164.934 151.918 164.966L151.906 164.982ZM153.817 163.816C153.511 163.792 152.742 164.325 152.193 164.775C153.069 164.699 153.69 164.5 153.881 164.23C153.914 164.184 153.936 164.13 153.945 164.075C153.954 164.019 153.95 163.961 153.933 163.907C153.928 163.887 153.919 163.869 153.905 163.854C153.891 163.84 153.873 163.829 153.853 163.824L153.817 163.816Z" fill="#407BFF"/>
<path d="M151.907 164.982C151.893 164.974 151.881 164.963 151.872 164.95C151.863 164.937 151.857 164.922 151.855 164.906C151.855 164.863 151.74 163.792 152.142 163.262C152.255 163.109 152.424 163.008 152.611 162.98C152.866 162.94 152.966 163.047 153.01 163.147C153.169 163.545 152.428 164.64 152.006 164.966C151.995 164.981 151.978 164.992 151.96 164.995C151.941 164.998 151.922 164.993 151.907 164.982ZM152.703 163.155H152.607C152.468 163.178 152.343 163.255 152.261 163.37C152.047 163.775 151.957 164.235 152.002 164.691C152.4 164.293 152.902 163.465 152.799 163.214C152.81 163.203 152.799 163.163 152.703 163.155Z" fill="#407BFF"/>
<path d="M134.903 122.686C126.311 103.835 120.153 96.1311 120.013 85.971L133.701 83.4669C133.701 83.4669 144.346 109.309 145.469 121.133C146.636 133.427 151.254 159.209 151.254 159.209L145.011 160.404C145.011 160.404 135.209 136.608 134.903 122.686Z" fill="#263238"/>
<path d="M121.307 93.7145C122.879 98.7746 125.798 104.125 129.584 111.63C128.915 102.827 126.076 92.5639 121.307 93.7145Z" fill="black" opacity="0.2"/>
<path d="M151.807 157.382L151.958 160.149L145.206 161.968L144.31 159.54L151.807 157.382Z" fill="#263238"/>
<path d="M114.897 162.036L114.587 171.193L118.966 171.129L119.277 161.972L114.897 162.036Z" fill="#DFA977"/>
<path d="M118.863 169.935L114.559 170.003C114.484 170.003 114.411 170.031 114.355 170.082C114.299 170.133 114.264 170.202 114.256 170.277L113.882 173.801C113.875 173.889 113.886 173.979 113.916 174.063C113.945 174.147 113.991 174.224 114.052 174.289C114.113 174.354 114.186 174.406 114.268 174.441C114.35 174.476 114.438 174.494 114.527 174.493C116.08 174.442 116.565 174.314 118.508 174.286C120.789 174.25 119.738 174.342 122.414 174.286C124.03 174.258 124.289 172.622 123.608 172.475C121.415 172.017 120.821 171.145 119.854 170.214C119.57 169.999 119.216 169.899 118.863 169.935Z" fill="#263238"/>
<path d="M114.897 162.036L114.734 166.758L119.117 166.694L119.277 161.976L114.897 162.036Z" fill="black" opacity="0.2"/>
<path d="M118.066 170.233C118.049 170.234 118.032 170.23 118.017 170.222C118.002 170.213 117.99 170.201 117.983 170.186C117.971 170.17 117.965 170.151 117.965 170.132C117.965 170.113 117.971 170.094 117.983 170.078C118.118 169.927 119.308 168.609 119.854 168.689C119.905 168.695 119.953 168.714 119.995 168.745C120.036 168.776 120.068 168.817 120.089 168.864C120.128 168.939 120.149 169.022 120.149 169.107C120.149 169.191 120.128 169.275 120.089 169.35C119.822 169.863 118.707 170.126 118.07 170.233H118.066ZM119.802 168.872C119.488 168.872 118.803 169.497 118.325 169.998C119.189 169.819 119.782 169.553 119.918 169.266C119.944 169.216 119.958 169.161 119.958 169.105C119.958 169.048 119.944 168.993 119.918 168.943C119.91 168.924 119.898 168.907 119.882 168.895C119.866 168.882 119.846 168.874 119.826 168.872H119.802Z" fill="#407BFF"/>
<path d="M118.066 170.233C118.05 170.229 118.035 170.221 118.023 170.209C118.011 170.197 118.003 170.182 117.998 170.166C117.998 170.122 117.704 169.091 118.026 168.529C118.07 168.447 118.13 168.374 118.204 168.315C118.277 168.257 118.362 168.215 118.452 168.191C118.703 168.123 118.819 168.219 118.87 168.31C119.097 168.709 118.524 169.835 118.154 170.206C118.144 170.219 118.13 170.228 118.114 170.233C118.099 170.238 118.082 170.238 118.066 170.233ZM118.572 168.358C118.54 168.354 118.508 168.354 118.476 168.358C118.41 168.375 118.348 168.405 118.294 168.448C118.24 168.491 118.197 168.544 118.166 168.605C118.013 169.03 117.994 169.491 118.114 169.927C118.464 169.481 118.823 168.625 118.683 168.39C118.691 168.39 118.671 168.354 118.588 168.358H118.572Z" fill="#407BFF"/>
<path d="M114.953 125.787C113.711 111.67 110.259 97.8352 111.41 87.4283L125.742 85.0396C125.742 85.0396 127.804 114.218 126.232 126.245C124.599 138.75 120.351 163.871 120.351 163.871L113.982 163.959C113.982 163.959 113.265 139.602 114.953 125.787Z" fill="#263238"/>
<path d="M121.259 162.442L120.845 165.165L113.707 165.293L113.305 162.717L121.259 162.442Z" fill="#263238"/>
<path d="M124.102 47.7953C125.296 48.1616 126.598 48.5478 127.852 48.9061C129.106 49.2644 130.38 49.6028 131.634 49.9213C132.888 50.2398 134.146 50.5105 135.369 50.7175C135.978 50.825 136.583 50.9007 137.164 50.9683C137.693 51.029 138.225 51.053 138.757 51.04L137.507 51.4939C137.405 51.5707 137.329 51.6761 137.288 51.7964C137.288 51.8522 137.319 51.7964 137.351 51.681C137.419 51.2564 137.419 50.8236 137.351 50.399C137.179 49.2063 136.896 48.0321 136.507 46.8916C136.109 45.6733 135.651 44.4431 135.162 43.2169C134.672 41.9907 134.13 40.7446 133.613 39.5463L133.593 39.5025C133.452 39.1704 133.435 38.7983 133.547 38.455C133.659 38.1118 133.891 37.8207 134.201 37.6357C134.511 37.4506 134.877 37.3841 135.233 37.4484C135.588 37.5128 135.908 37.7036 136.133 37.9856C137.005 39.1006 137.819 40.2593 138.573 41.4572C139.341 42.6644 140.043 43.9123 140.676 45.1956C140.994 45.8485 141.289 46.5253 141.567 47.23C141.86 47.9607 142.097 48.7127 142.276 49.4794C142.504 50.3897 142.591 51.3295 142.535 52.2662C142.488 52.9048 142.329 53.53 142.065 54.1135C141.727 54.8508 141.201 55.4864 140.54 55.9568C140.2 56.1971 139.807 56.3503 139.394 56.4027H139.286C137.72 56.5701 136.14 56.5567 134.576 56.3629C133.115 56.2076 131.702 55.9648 130.312 55.6821C128.923 55.3994 127.561 55.065 126.208 54.6987C124.854 54.3325 123.544 53.9304 122.171 53.4447C121.503 53.1368 120.971 52.5936 120.678 51.9187C120.384 51.2438 120.35 50.4846 120.581 49.7859C120.812 49.0872 121.292 48.4981 121.93 48.1309C122.567 47.7637 123.318 47.6443 124.038 47.7953H124.102Z" fill="#DFA977"/>
<path d="M134.306 40.5017L131.148 37.7746L135.277 35.3461C135.277 35.3461 138.159 38.1329 136.662 39.8846L134.306 40.5017Z" fill="#DFA977"/>
<path d="M130.512 34.7529L132.335 33.6063C132.559 33.4636 132.825 33.4031 133.089 33.4351C133.352 33.467 133.597 33.5895 133.78 33.7814L135.277 35.3461L131.149 37.7746L130.181 36.3812C130.093 36.2535 130.032 36.1093 130.001 35.9574C129.97 35.8055 129.97 35.6488 130.001 35.4969C130.031 35.3449 130.093 35.2007 130.18 35.0729C130.268 34.945 130.381 34.8362 130.512 34.7529Z" fill="#DFA977"/>
<path d="M121.526 46.5412C125.388 45.96 131.682 49.555 131.682 49.555L130.304 58.1186C130.304 58.1186 127.378 57.8957 123.536 55.9568C122.37 55.3596 116.959 47.234 121.526 46.5412Z" fill="#008AF8"/>
<path d="M121.972 46.4975C117.712 46.8956 111.191 48.4084 106.895 50.1442C105.779 50.5896 104.835 51.379 104.198 52.3977C103.562 53.4165 103.267 54.6116 103.356 55.8095C103.794 61.5186 107.034 70.6315 111.159 87.703C113.301 88.1449 119.392 87.4561 124.201 86.5922C124.723 86.5006 125.881 85.1271 125.881 85.1271C125.881 85.1271 127.151 86.0109 127.812 85.8597C130.997 85.1351 133.478 84.307 134.003 83.6143C132.379 79.7366 131.009 68.3543 129.731 61.5424C129.421 58.8392 128.605 53.8786 127.267 51.1356C126.001 48.5398 124.834 46.2028 121.972 46.4975Z" fill="#008AF8"/>
<path d="M111.509 41.1665C112.019 44.0847 112.477 47.5086 111.004 49.7261C112.353 51.4261 115.276 52.6125 118.122 53.0902C119.734 50.8209 119.348 48.8144 118.452 47.7076C116.729 46.6805 116.836 44.8969 116.8 43.6667L111.509 41.1665Z" fill="#DFA977"/>
<path d="M118.122 53.0903C118.445 52.573 118.634 51.9832 118.671 51.3744C118.671 50.4866 120.264 50.9484 120.264 50.9484C119.745 51.8338 119.007 52.5713 118.122 53.0903Z" fill="#263238"/>
<path d="M118.122 53.0903C118.009 52.7806 117.803 52.5129 117.534 52.323C117.264 52.133 116.943 52.0299 116.613 52.0273C115.835 51.9872 115.058 52.1233 114.34 52.4254C114.34 52.4254 116.605 53.2535 118.122 53.0903Z" fill="#263238"/>
<path d="M112.771 42.2693C112.735 42.0862 112.708 41.8991 112.68 41.7159L116.8 43.6707C116.76 44.5253 116.873 45.3801 117.135 46.1948C115.22 45.6335 113.118 44.029 112.771 42.2693Z" fill="black" opacity="0.2"/>
<path d="M116.414 30.0111C118.803 29.613 120.471 32.3998 118.405 36.3452C116.987 35.6684 115.813 33.3951 115.813 33.3951L116.414 30.0111Z" fill="#405261"/>
<path d="M109.176 37.4442C110.817 40.9955 111.597 43.1612 114.161 44.2959C118.019 46.0038 121.852 42.5402 121.303 38.559C120.805 34.9759 118.206 29.7685 114.085 29.7446C113.173 29.7382 112.273 29.9635 111.472 30.3994C110.67 30.8354 109.992 31.4677 109.502 32.2371C109.011 33.0066 108.724 33.888 108.667 34.7987C108.61 35.7094 108.785 36.6197 109.176 37.4442Z" fill="#DFA977"/>
<path d="M119.957 39.3034C119.957 39.3034 118.735 39.3034 115.53 40.0359C116.187 40.9238 117.123 41.5568 118.755 41.1626C118.964 41.1346 119.163 41.0617 119.341 40.949C119.519 40.8363 119.67 40.6865 119.784 40.5098C119.898 40.3331 119.973 40.1338 120.003 39.9256C120.033 39.7173 120.017 39.5051 119.957 39.3034Z" fill="#263238"/>
<path d="M117.772 40.5734C118.405 40.3913 119.078 40.4122 119.699 40.6331C119.453 40.909 119.122 41.0953 118.759 41.1626C118.128 41.3467 117.455 41.3258 116.836 41.1029C117.079 40.8258 117.409 40.6391 117.772 40.5734Z" fill="#CF8362"/>
<path d="M119.802 39.3073C119.807 39.4314 119.775 39.5542 119.711 39.6604C119.646 39.7666 119.552 39.8515 119.44 39.9045C118.483 40.1212 117.509 40.2544 116.53 40.3026C116.372 40.3244 116.211 40.3075 116.061 40.2534C115.912 40.1993 115.777 40.1096 115.67 39.9921C117.027 39.6564 118.409 39.4275 119.802 39.3073Z" fill="white"/>
<path d="M115.279 39.4985C115.279 39.4985 114.372 39.6219 114.698 40.2947C114.726 39.9643 115.279 39.4985 115.279 39.4985Z" fill="black" opacity="0.2"/>
<path d="M111.227 39.833L112.847 39.5344C112.847 39.5344 111.728 36.3972 110.383 35.5532C111.179 34.7848 112.373 33.2242 112.747 32.1413C113.077 31.2523 113.134 30.2855 112.912 29.3638C112.69 28.4422 112.199 27.6074 111.501 26.9657C111.346 27.7859 111.011 28.5615 110.52 29.2368C110.029 29.912 109.395 30.4702 108.663 30.8713C107.098 31.7193 105.43 33.8452 107.397 34.6853C105.279 35.9553 106.35 38.6386 111.227 39.833Z" fill="#405261"/>
<path d="M112.23 33.0211C115.415 33.1007 117.616 29.8361 114.857 25.8987C114.503 28.1282 111.426 29.4818 111.426 29.4818L112.23 33.0211Z" fill="#405261"/>
<path d="M115.049 31.7391C117.099 32.2327 118.715 29.9077 117.179 26.3684C116.812 28.1162 114.75 28.7571 114.75 28.7571L115.049 31.7391Z" fill="#405261"/>
<path d="M113.966 36.6479C113.406 36.5566 112.834 36.6912 112.373 37.0222C112.923 37.0011 113.464 36.874 113.966 36.6479Z" fill="black" opacity="0.2"/>
<path d="M114.03 37.0142C113.774 37.027 113.525 37.0952 113.299 37.2142C113.073 37.3331 112.875 37.4999 112.72 37.7029C113.2 37.5692 113.647 37.3344 114.03 37.0142Z" fill="black" opacity="0.2"/>
<path d="M119.05 34.6574C119.05 34.6574 119.344 34.108 119.683 34.1756C119.522 34.3932 119.302 34.5603 119.05 34.6574Z" fill="black" opacity="0.2"/>
<path d="M119.121 34.9164C119.121 34.9164 119.436 34.5177 119.736 34.7649C119.559 34.8942 119.338 34.9486 119.121 34.9164Z" fill="black" opacity="0.2"/>
<path d="M108.838 40.6769C109.11 41.0775 109.459 41.4203 109.864 41.6854C110.269 41.9505 110.723 42.1328 111.199 42.2216C112.481 42.4565 113.018 41.282 112.572 40.1315C112.174 39.0963 111.02 37.7427 109.785 38.0135C108.551 38.2842 108.173 39.6736 108.838 40.6769Z" fill="#DFA977"/>
<path d="M114.559 36.6479C114.674 36.9425 114.925 37.1217 115.12 37.046C115.315 36.9704 115.375 36.6479 115.26 36.3692C115.144 36.0906 114.893 35.8955 114.698 35.9711C114.503 36.0468 114.443 36.3453 114.559 36.6479Z" fill="#263238"/>
<path d="M118.249 35.175C118.365 35.4696 118.616 35.6487 118.811 35.5731C119.006 35.4974 119.066 35.175 118.95 34.8963C118.835 34.6176 118.584 34.4225 118.393 34.4982C118.202 34.5738 118.134 34.8764 118.249 35.175Z" fill="#263238"/>
<path d="M117.031 35.6724C117.031 35.6724 118.425 37.0619 119.504 37.5516C119.201 38.2602 118.23 38.4314 118.23 38.4314L117.031 35.6724Z" fill="#CF8362"/>
<path d="M113.078 35.1828C113.047 35.1929 113.013 35.1929 112.982 35.1828C112.959 35.1764 112.936 35.1653 112.917 35.1501C112.898 35.1349 112.881 35.116 112.87 35.0944C112.858 35.0729 112.85 35.0492 112.848 35.0247C112.845 35.0002 112.848 34.9754 112.855 34.9519C112.928 34.6632 113.069 34.3962 113.267 34.1732C113.464 33.9502 113.712 33.7777 113.99 33.67C114.013 33.6626 114.037 33.6598 114.061 33.6618C114.085 33.6638 114.108 33.6705 114.13 33.6816C114.151 33.6927 114.17 33.7079 114.186 33.7264C114.202 33.745 114.213 33.7663 114.221 33.7894C114.236 33.8364 114.232 33.8874 114.209 33.9314C114.187 33.9754 114.148 34.0088 114.101 34.0243C113.883 34.1146 113.689 34.255 113.534 34.4341C113.38 34.6132 113.27 34.826 113.213 35.0554C113.203 35.0862 113.185 35.114 113.162 35.1363C113.138 35.1585 113.109 35.1745 113.078 35.1828Z" fill="#263238"/>
<path d="M118.807 32.9294C118.779 32.9432 118.748 32.9503 118.717 32.9503C118.686 32.9503 118.655 32.9432 118.627 32.9294C118.425 32.8107 118.197 32.7425 117.963 32.7307C117.729 32.719 117.495 32.7639 117.282 32.8618C117.238 32.8845 117.188 32.8893 117.141 32.8752C117.094 32.861 117.055 32.8291 117.031 32.7861C117.008 32.7421 117.003 32.691 117.017 32.6434C117.031 32.5959 117.063 32.5557 117.107 32.5313C117.375 32.4049 117.669 32.345 117.965 32.3568C118.261 32.3686 118.55 32.4517 118.807 32.599C118.828 32.6103 118.847 32.6258 118.863 32.6446C118.879 32.6634 118.89 32.6851 118.897 32.7085C118.904 32.7319 118.907 32.7564 118.904 32.7807C118.901 32.8049 118.894 32.8285 118.882 32.8498C118.863 32.8818 118.838 32.909 118.807 32.9294Z" fill="#263238"/>
<path d="M108.746 56.3389C108.316 57.585 107.838 58.8431 107.393 60.0972L106.015 63.8514L104.642 67.5978C104.2 68.8479 103.746 70.09 103.32 71.3282L103.3 69.7357C103.715 71.0738 104.236 72.3771 104.857 73.6333C105.494 74.9789 106.178 76.3405 106.895 77.6941C107.612 79.0477 108.34 80.4053 109.077 81.7629L111.298 85.8476C111.477 86.1697 111.53 86.5467 111.447 86.9055C111.364 87.2644 111.151 87.5798 110.849 87.7907C110.547 88.0016 110.177 88.0931 109.812 88.0475C109.446 88.0018 109.11 87.8223 108.87 87.5436C107.815 86.3493 106.831 85.1191 105.86 83.869C104.888 82.6189 103.953 81.3409 103.041 80.039C102.129 78.7372 101.25 77.3955 100.425 75.9902C99.5264 74.5312 98.7679 72.9902 98.1602 71.3879C97.9995 70.9446 97.9759 70.4632 98.0925 70.0064L98.1443 69.8073C98.4827 68.4657 98.833 67.1399 99.2232 65.8261C99.6133 64.5123 100.019 63.2105 100.418 61.9166C100.816 60.6227 101.269 59.3328 101.723 58.0548C102.177 56.7768 102.635 55.5029 103.149 54.2289C103.425 53.4855 103.986 52.8825 104.707 52.5525C105.428 52.2225 106.251 52.1925 106.994 52.4692C107.738 52.7458 108.341 53.3064 108.671 54.0277C109.001 54.7489 109.031 55.5717 108.754 56.315L108.746 56.3389Z" fill="#DFA977"/>
<path d="M106.664 50.2477C102.384 51.7765 100.043 60.137 100.043 60.137L106.863 66.2123C106.863 66.2123 109.674 64.1978 110.247 59.93C110.685 56.6375 111.012 48.6791 106.664 50.2477Z" fill="#008AF8"/>
<path d="M109.988 83.9684L113.5 85.8675L110.136 89.2754C110.136 89.2754 107.162 87.1693 108.026 85.4096L109.988 83.9684Z" fill="#DFA977"/>
<path d="M114.718 89.8328L113.337 90.8281C113.07 91.02 112.744 91.111 112.417 91.0847C112.089 91.0584 111.782 90.9167 111.549 90.6848L110.136 89.2755L113.5 85.8676L115.017 87.8781C115.127 88.0254 115.207 88.1932 115.252 88.3718C115.297 88.5504 115.305 88.7361 115.278 88.9181C115.25 89.1001 115.186 89.2747 115.09 89.4318C114.994 89.5888 114.867 89.7252 114.718 89.8328Z" fill="#DFA977"/>
<path d="M111.613 48.0062C111.796 48.894 112.608 51.86 116.613 52.0272C115.232 52.4771 114.905 55.1087 114.905 55.1087C114.905 55.1087 110.785 52.513 110.383 49.2643C110.502 48.4083 111.613 48.0062 111.613 48.0062Z" fill="white"/>
<path d="M117.334 46.4536C117.513 47.3215 118.863 48.7747 118.671 51.3744C120.061 50.9484 121.817 52.1228 121.817 52.1228C121.407 50.1264 120.441 48.2867 119.03 46.8159C118.498 46.5728 117.919 46.4492 117.334 46.4536Z" fill="white"/>
</svg>
