<svg width="200" height="200" viewBox="0 0 200 200" fill="none" xmlns="http://www.w3.org/2000/svg">
<path d="M161.763 26.9227C114.732 -0.481707 92.0445 40.6075 84.2076 71.5236C76.3707 102.44 24.8504 73.5076 14.2706 107.826C5.83849 135.231 44.4923 174.113 116.264 149.808C188.037 125.504 195.526 46.5943 161.763 26.9227Z" fill="#008AF8"/>
<path opacity="0.9" d="M161.763 26.9227C114.732 -0.481707 92.0445 40.6075 84.2076 71.5236C76.3707 102.44 24.8504 73.5076 14.2706 107.826C5.83849 135.231 44.4923 174.113 116.264 149.808C188.037 125.504 195.526 46.5943 161.763 26.9227Z" fill="white"/>
<path d="M96.8165 186.77C149.933 186.77 192.993 184.256 192.993 181.155C192.993 178.054 149.933 175.54 96.8165 175.54C43.6996 175.54 0.639771 178.054 0.639771 181.155C0.639771 184.256 43.6996 186.77 96.8165 186.77Z" fill="#F2F4F6"/>
<path d="M151.691 185.18C157.089 185.18 161.466 184.911 161.466 184.579C161.466 184.248 157.089 183.979 151.691 183.979C146.292 183.979 141.916 184.248 141.916 184.579C141.916 184.911 146.292 185.18 151.691 185.18Z" fill="#E5E9EC"/>
<path d="M85.2907 170.38H170.743C179.06 170.38 185.802 163.637 185.802 155.32V107.025C185.802 98.7078 179.06 91.9654 170.743 91.9654L85.2907 91.9654C76.9735 91.9654 70.231 98.7078 70.231 107.025L70.231 155.32C70.231 163.637 76.9735 170.38 85.2907 170.38Z" fill="#224763"/>
<path d="M155.84 184.579H147.753L131.319 145.643H143.696L155.84 184.579Z" fill="#224763"/>
<path d="M178.094 145.643L155.823 184.579L139.39 145.643H178.094Z" fill="#008AF8"/>
<path opacity="0.2" d="M178.099 145.643L155.829 184.579L139.395 145.643H178.099Z" fill="#1D2B36"/>
<path d="M92.0902 170.38H170.743C179.06 170.38 185.802 163.637 185.802 155.32V107.025C185.802 98.7078 179.06 91.9654 170.743 91.9654L92.0902 91.9654C83.7729 91.9654 77.0305 98.7078 77.0305 107.025L77.0305 155.32C77.0305 163.637 83.7729 170.38 92.0902 170.38Z" fill="#008AF8"/>
<path opacity="0.2" d="M92.0902 170.38H170.743C179.06 170.38 185.802 163.637 185.802 155.32V107.025C185.802 98.7078 179.06 91.9654 170.743 91.9654L92.0902 91.9654C83.7729 91.9654 77.0305 98.7078 77.0305 107.025L77.0305 155.32C77.0305 163.637 83.7729 170.38 92.0902 170.38Z" fill="#1D2B36"/>
<path d="M119.299 170.38H104.91L120.132 91.9654H134.527L119.299 170.38Z" fill="#008AF8" opacity="0.7"/>
<path d="M132.298 170.38H124.114L139.341 91.9654H147.52L132.298 170.38Z" fill="#008AF8" opacity="0.7"/>
<path d="M166.29 117.265H126.304C125.223 117.226 124.2 116.769 123.449 115.991C122.698 115.213 122.278 114.173 122.278 113.092C122.278 112.01 122.698 110.971 123.449 110.192C124.2 109.414 125.223 108.957 126.304 108.918H166.29C166.851 108.898 167.41 108.991 167.934 109.192C168.458 109.392 168.936 109.697 169.34 110.086C169.744 110.476 170.065 110.943 170.284 111.459C170.504 111.975 170.617 112.531 170.617 113.092C170.617 113.653 170.504 114.208 170.284 114.724C170.065 115.241 169.744 115.708 169.34 116.097C168.936 116.487 168.458 116.791 167.934 116.992C167.41 117.192 166.851 117.285 166.29 117.265Z" fill="white"/>
<path d="M112.603 117.265H94.492C93.4111 117.226 92.3875 116.769 91.6367 115.991C90.8858 115.213 90.4662 114.173 90.4662 113.092C90.4662 112.01 90.8858 110.971 91.6367 110.192C92.3875 109.414 93.4111 108.957 94.492 108.918H112.603C113.163 108.898 113.722 108.991 114.246 109.192C114.77 109.392 115.248 109.697 115.652 110.086C116.056 110.476 116.377 110.943 116.596 111.459C116.816 111.975 116.929 112.531 116.929 113.092C116.929 113.653 116.816 114.208 116.596 114.724C116.377 115.241 116.056 115.708 115.652 116.097C115.248 116.487 114.77 116.791 114.246 116.992C113.722 117.192 113.163 117.285 112.603 117.265Z" fill="white"/>
<path d="M166.291 134.856H98.7383C97.6575 134.817 96.6339 134.361 95.883 133.582C95.1321 132.804 94.7125 131.765 94.7125 130.683C94.7125 129.601 95.1321 128.562 95.883 127.784C96.6339 127.005 97.6575 126.549 98.7383 126.51H166.291C166.851 126.489 167.41 126.582 167.934 126.783C168.458 126.984 168.936 127.288 169.34 127.677C169.744 128.067 170.065 128.534 170.284 129.05C170.504 129.567 170.617 130.122 170.617 130.683C170.617 131.244 170.504 131.799 170.284 132.316C170.065 132.832 169.744 133.299 169.34 133.689C168.936 134.078 168.458 134.382 167.934 134.583C167.41 134.784 166.851 134.877 166.291 134.856Z" fill="white"/>
<path d="M166.29 152.442H134.997C133.916 152.403 132.893 151.947 132.142 151.168C131.391 150.39 130.971 149.35 130.971 148.269C130.971 147.187 131.391 146.148 132.142 145.37C132.893 144.591 133.916 144.134 134.997 144.096H166.29C166.851 144.075 167.41 144.168 167.934 144.369C168.458 144.57 168.936 144.874 169.34 145.263C169.744 145.653 170.065 146.12 170.284 146.636C170.504 147.153 170.617 147.708 170.617 148.269C170.617 148.83 170.504 149.385 170.284 149.902C170.065 150.418 169.744 150.885 169.34 151.274C168.936 151.664 168.458 151.968 167.934 152.169C167.41 152.369 166.851 152.462 166.29 152.442Z" fill="white"/>
<path opacity="0.1" d="M96.5638 91.9492C96.5638 91.9492 90.581 124.297 90.581 137.961C90.581 151.977 95.5252 170.364 95.5252 170.364H79.7244L78.6804 152.615C77.6964 136.017 79.3395 119.368 83.5488 103.282L86.5131 91.9221L96.5638 91.9492Z" fill="#1D2B36"/>
<path d="M95.6292 184.158C95.6292 184.796 92.3667 185.315 88.3424 185.316C84.318 185.316 81.0554 184.775 81.0554 184.159C81.0553 183.542 84.3178 183.001 88.3422 183.001C92.3666 183 95.6291 183.519 95.6292 184.158Z" fill="#E5E9EC"/>
<path d="M72.7462 50.9831C71.1387 51.5294 69.6158 51.9293 68.0405 52.3438C66.4653 52.7582 64.8651 53.0287 63.2641 53.2939C60.0079 53.8552 56.7 54.0576 53.3997 53.8977C52.3425 53.7966 51.3162 53.4846 50.3816 52.9801C49.5975 52.567 48.8449 52.0969 48.1298 51.5735C46.8064 50.5864 45.5559 49.5051 44.388 48.3381C42.1062 46.0839 40.0012 43.6575 38.0914 41.0806L39.8835 39.5363C40.9878 40.5919 42.1224 41.6642 43.2745 42.6786C44.4266 43.693 45.5742 44.7137 46.7686 45.6549C47.918 46.5898 49.123 47.4543 50.3769 48.2437C50.9559 48.6074 51.5614 48.9268 52.1885 49.1992C52.6481 49.4184 53.1436 49.5524 53.651 49.5947C55.1146 49.5879 56.5768 49.5024 58.0312 49.3386C59.5082 49.1497 60.9912 48.9323 62.4748 48.6544C63.9583 48.3766 65.4371 48.0391 66.906 47.676C68.3749 47.3128 69.8674 46.8962 71.24 46.4837L72.7462 50.9831Z" fill="#EBBE8B"/>
<path d="M76.7971 45.8271C72.3165 44.0694 67.1234 46.8041 67.1234 46.8041L71.5611 55.9193C71.5611 55.9193 75.7402 53.9249 77.1393 51.7568C78.6073 49.511 79.4986 46.8816 76.7971 45.8271Z" fill="#224763"/>
<path d="M40.3968 40.4743L40.8076 37.0001L36.2639 38.3767C36.7922 39.6367 37.5809 40.7708 38.578 41.7047L40.3968 40.4743Z" fill="#EBBE8B"/>
<path d="M39.8069 33.2039L36.0617 34.5636L36.2639 38.3767L40.8076 37.0001L39.8069 33.2039Z" fill="#EBBE8B"/>
<path d="M90.5085 12.2499C94.6278 11.6271 94.0676 15.2534 94.0676 15.2534C94.0676 15.2534 98.0527 11.6566 100.045 14.7108C102.038 17.7649 99.0088 19.3633 97.2179 20.1827C98.5128 20.6565 98.9556 22.8417 97.4273 23.8464C95.8989 24.8511 92.7911 23.3506 90.7061 23.7378L88.2283 21.6566C90.7089 19.3623 86.3838 12.8735 90.5085 12.2499Z" fill="#1D2B36"/>
<path d="M92.0915 25.2444C93.9369 25.2499 95.1989 24.8017 94.5059 22.8847C94.0925 21.8254 93.4183 20.8876 92.546 20.1581C91.6736 19.4287 90.6313 18.9313 89.5155 18.7119C87.1118 18.2702 87.2491 22.089 87.2491 22.089L92.0915 25.2444Z" fill="#008AF8"/>
<path d="M63.542 172.424L58.8772 172.685L57.9571 161.909L62.6209 161.642L63.542 172.424Z" fill="#EBBE8B"/>
<path d="M95.9833 179.645L91.3525 180.23L88.5127 169.686L93.1498 169.106L95.9833 179.645Z" fill="#EBBE8B"/>
<path d="M90.9364 178.869L96.1072 177.977C96.196 177.96 96.2877 177.977 96.3653 178.023C96.4429 178.069 96.5011 178.142 96.5292 178.228L97.8218 182.221C97.8508 182.322 97.8582 182.428 97.8433 182.532C97.8285 182.636 97.7917 182.736 97.7356 182.825C97.6794 182.914 97.605 182.99 97.5173 183.049C97.4297 183.107 97.3307 183.146 97.2269 183.163C95.4196 183.442 94.5385 183.49 92.257 183.883C90.8604 184.124 88.8382 184.621 86.9085 184.954C84.9789 185.287 84.5484 183.396 85.3176 183.082C88.7932 181.687 89.1787 180.517 90.2185 179.289C90.4001 179.068 90.6547 178.919 90.9364 178.869Z" fill="#224763"/>
<path d="M58.434 171.038L63.4626 169.544C63.5496 169.517 63.6436 169.522 63.7269 169.56C63.8102 169.597 63.877 169.663 63.9146 169.746L65.6695 173.555C65.7093 173.653 65.7282 173.757 65.7249 173.862C65.7217 173.968 65.6963 174.071 65.6506 174.166C65.6049 174.261 65.5397 174.345 65.4594 174.413C65.3791 174.481 65.2854 174.531 65.1843 174.561C63.4245 175.051 62.5502 175.202 60.336 175.858C58.9786 176.263 56.1837 177.244 54.3246 177.796C52.4655 178.347 51.7944 176.525 52.5267 176.124C55.8123 174.328 56.8802 172.881 57.7734 171.536C57.9294 171.298 58.1628 171.122 58.434 171.038Z" fill="#224763"/>
<path d="M57.9626 161.908L58.4325 167.464L63.0972 167.203L62.6273 161.647L57.9626 161.908Z" fill="#BF8356"/>
<path d="M93.1498 169.106L88.5135 169.691L89.9779 175.126L94.6141 174.54L93.1498 169.106Z" fill="#BF8356"/>
<path d="M72.1302 45.3751C72.1302 45.3751 69.8362 45.919 71.3842 73.6362L90.2436 75.6308C90.7415 67.9203 91.2313 63.1864 96.5681 47.8235C93.9841 46.9896 91.3429 46.3444 88.6654 45.8932C85.8353 45.3888 82.9729 45.0865 80.0998 44.9884C76.3904 44.964 72.1302 45.3751 72.1302 45.3751Z" fill="#224763"/>
<path d="M88.8417 36.1906C88.0112 38.8864 86.935 43.8806 88.67 45.9198C88.67 45.9198 87.6183 48.6372 82.4998 48.082C76.8698 47.4887 80.1026 45.0043 80.1026 45.0043C83.2547 44.5978 83.4142 42.3087 83.0984 40.0961L88.8417 36.1906Z" fill="#EBBE8B"/>
<path d="M74.9534 45.1625C76.4523 45.0686 78.3434 44.9894 80.1044 45.015C82.9775 45.1117 85.8401 45.414 88.67 45.9198C90.2918 46.189 91.8749 46.5197 93.1903 46.8582C93.0934 47.7916 92.128 52.7283 81.1722 51.8736C70.9724 51.0421 73.9956 46.2609 74.9534 45.1625Z" fill="#EBBE8B"/>
<path d="M86.5028 37.7798L83.1108 40.105C83.1901 40.6184 83.2245 41.1377 83.2139 41.6571C84.4026 41.6113 86.2849 40.7486 86.5412 39.5297C86.6309 38.9486 86.6179 38.3563 86.5028 37.7798Z" fill="#BF8356"/>
<path d="M90.1749 29.9499C89.8356 34.57 89.7961 36.5365 87.434 38.8817C83.8826 42.4146 78.2773 41.0101 77.2238 36.3668C76.2744 32.1995 76.9692 25.3444 81.5283 23.5479C82.5294 23.1481 83.6161 23.0109 84.6851 23.1492C85.7542 23.2876 86.7701 23.6969 87.6364 24.3383C88.5028 24.9798 89.1908 25.832 89.635 26.8142C90.0793 27.7963 90.2652 28.8758 90.1749 29.9499Z" fill="#EBBE8B"/>
<path d="M89.4733 34.4734C88.0157 34.0112 86.604 32.2237 88.2174 30.0571C88.2174 30.0571 85.29 28.9976 86.2666 26.6718C87.2433 24.3461 92.2892 21.6807 93.6116 24.3509C94.9341 27.0211 92.5322 28.6266 92.5322 28.6266C92.5322 28.6266 95.2273 31.5211 91.5803 33.2591C91.5803 33.2591 92.0617 38.023 88.9497 36.4026L89.4733 34.4734Z" fill="#1D2B36"/>
<path d="M90.8469 34.1321C90.7386 35.019 90.287 35.8281 89.5888 36.3856C88.6467 37.0971 87.7328 36.3819 87.6171 35.2656C87.5145 34.2568 87.8816 32.662 89.0014 32.3755C89.2476 32.3171 89.5045 32.321 89.7488 32.387C89.9932 32.453 90.2171 32.579 90.4004 32.7534C90.5837 32.9279 90.7206 33.1454 90.7985 33.3861C90.8765 33.6269 90.8931 33.8833 90.8469 34.1321Z" fill="#EBBE8B"/>
<path d="M71.3844 73.6362C71.3844 73.6362 54.7481 101.872 53.5568 116.064C52.3154 130.825 56.6858 166.025 56.6858 166.025L64.0315 165.713C64.0315 165.713 63.3184 132.939 67.1125 118.88C71.1505 103.911 85.2233 75.1024 85.2233 75.1024L71.3844 73.6362Z" fill="#008AF8"/>
<path d="M65.0113 165.665L55.6633 166.048L55.0712 163.57L65.4823 163.877L65.0113 165.665Z" fill="#008AF8"/>
<path opacity="0.3" d="M65.0113 165.665L55.6633 166.048L55.0712 163.57L65.4823 163.877L65.0113 165.665Z" fill="#1D2B36"/>
<path opacity="0.2" d="M72.9591 84.8975C72.2942 91.2437 72.0713 97.6284 72.2919 104.005C73.667 100.584 75.1369 97.1087 76.5713 93.8093C77.0099 92.1197 77.4673 90.4435 77.9045 88.8091C77.9045 88.8091 77.899 88.7771 77.8953 88.7558L72.9591 84.8975Z" fill="#1D2B36"/>
<path d="M76.3654 74.1602C76.3654 74.1602 75.6877 106.318 76.5863 124.574C77.3084 139.325 88.923 173.403 88.923 173.403L94.9781 172.737C94.9781 172.737 88.3171 141.664 88.6859 127.191C89.6265 90.5747 95.3958 84.6885 90.2221 75.6344L76.3654 74.1602Z" fill="#008AF8"/>
<path d="M95.7267 172.652L87.8888 173.515L87.1456 171.371L95.6975 170.796L95.7267 172.652Z" fill="#008AF8"/>
<path opacity="0.3" d="M95.7267 172.652L87.8888 173.515L87.1456 171.371L95.6975 170.796L95.7267 172.652Z" fill="#1D2B36"/>
<path d="M90.6447 74.5515L91.3138 76.3299C91.3653 76.4692 91.1988 76.5858 90.9807 76.563L71.2067 74.4847C71.0341 74.4706 70.9019 74.3726 70.9049 74.2623L70.913 72.5593C70.8928 72.442 71.0701 72.3565 71.2543 72.3741L90.3539 74.3931C90.4114 74.3949 90.4677 74.4102 90.5182 74.4377C90.5687 74.4652 90.612 74.5042 90.6447 74.5515Z" fill="#008AF8"/>
<path opacity="0.4" d="M90.6447 74.5515L91.3138 76.3299C91.3653 76.4692 91.1988 76.5858 90.9807 76.563L71.2067 74.4847C71.0341 74.4706 70.9019 74.3726 70.9049 74.2623L70.913 72.5593C70.8928 72.442 71.0701 72.3565 71.2543 72.3741L90.3539 74.3931C90.4114 74.3949 90.4677 74.4102 90.5182 74.4377C90.5687 74.4652 90.612 74.5042 90.6447 74.5515Z" fill="#1D2B36"/>
<path d="M87.8539 76.4162L88.3629 76.4712C88.4634 76.4813 88.5494 76.439 88.5491 76.3732L88.5437 74.1784C88.5327 74.1144 88.4612 74.0499 88.3606 74.0398L87.8463 73.9858C87.7458 73.9757 87.6651 74.0171 87.6654 74.0829L87.6654 76.2786C87.6658 76.3444 87.7533 76.4061 87.8539 76.4162Z" fill="#008AF8"/>
<path d="M72.6181 74.8066L73.1324 74.8606C73.233 74.8707 73.319 74.8285 73.3186 74.7627L73.3133 72.5679C73.3032 72.5092 73.2317 72.4447 73.1258 72.4355L72.6168 72.3806C72.5153 72.3652 72.4302 72.4128 72.4306 72.4786L72.4359 74.6734C72.4354 74.7339 72.4979 74.778 72.6181 74.8066Z" fill="#008AF8"/>
<path d="M80.2434 75.6376L80.7524 75.6925C80.8483 75.676 80.9389 75.6604 80.9386 75.5946L80.9332 73.3998C80.9222 73.3358 80.8507 73.2713 80.7501 73.2612L80.2358 73.2072C80.1343 73.1918 80.0492 73.2394 80.0496 73.3052L80.0549 75.5C80.0507 75.5391 80.1329 75.6018 80.2434 75.6376Z" fill="#008AF8"/>
<path d="M83.1449 31.1681C83.1381 31.5426 82.9379 31.8461 82.712 31.8411C82.4861 31.8362 82.2683 31.5279 82.275 31.1535C82.2818 30.779 82.481 30.4702 82.7079 30.4805C82.9347 30.4908 83.1454 30.7893 83.1449 31.1681Z" fill="#405261"/>
<path d="M78.8873 31.1175C78.8815 31.4973 78.6813 31.8008 78.4545 31.7905C78.2277 31.7803 78.0117 31.4827 78.0184 31.1082C78.0252 30.7338 78.2244 30.425 78.4503 30.4299C78.6763 30.4349 78.8888 30.744 78.8873 31.1175Z" fill="#405261"/>
<path d="M78.575 30.4523L77.677 30.1791C77.677 30.1791 78.1026 30.8961 78.575 30.4523Z" fill="#405261"/>
<path d="M80.0036 31.7648C79.6567 32.6196 79.1952 33.4231 78.6316 34.1533C78.8225 34.2919 79.0414 34.3873 79.273 34.4327C79.5045 34.478 79.7432 34.4724 79.9724 34.4161L80.0036 31.7648Z" fill="#BF8356"/>
<path d="M81.9379 35.883C81.7212 35.9189 81.5015 35.9347 81.2819 35.9303C81.2535 35.9298 81.2265 35.9183 81.2066 35.8981C81.1867 35.8779 81.1755 35.8507 81.1754 35.8224C81.1757 35.7926 81.1876 35.7642 81.2086 35.7431C81.2296 35.722 81.258 35.71 81.2877 35.7097C81.756 35.7246 82.2211 35.6291 82.6456 35.431C83.0701 35.2328 83.442 34.9376 83.7313 34.5691C83.7495 34.548 83.7749 34.5343 83.8025 34.5307C83.8302 34.527 83.8582 34.5337 83.8812 34.5494C83.9043 34.5651 83.9208 34.5887 83.9275 34.6158C83.9343 34.6428 83.9309 34.6714 83.9179 34.6961C83.435 35.3315 82.7259 35.7565 81.9379 35.883Z" fill="#405261"/>
<path d="M84.5001 29.798C84.4604 29.8051 84.4195 29.801 84.382 29.7862C84.3445 29.7713 84.312 29.7463 84.2879 29.7138C84.1289 29.486 83.9184 29.2988 83.6736 29.1675C83.4287 29.0362 83.1563 28.9644 82.8785 28.9579C82.8478 28.9632 82.8163 28.962 82.7861 28.9543C82.7559 28.9466 82.7276 28.9326 82.7031 28.9132C82.6787 28.8938 82.6586 28.8695 82.6442 28.8419C82.6298 28.8142 82.6213 28.7838 82.6195 28.7527C82.6176 28.7216 82.6223 28.6904 82.6333 28.6612C82.6443 28.632 82.6613 28.6055 82.6833 28.5833C82.7052 28.5611 82.7316 28.5438 82.7607 28.5326C82.7898 28.5213 82.8209 28.5163 82.852 28.5179C83.2058 28.5157 83.5548 28.599 83.8694 28.7608C84.184 28.9225 84.4549 29.1578 84.6591 29.4467C84.694 29.4939 84.7088 29.5529 84.7003 29.611C84.6918 29.669 84.6607 29.7213 84.6137 29.7565C84.5801 29.7801 84.5409 29.7944 84.5001 29.798Z" fill="#405261"/>
<path d="M77.0138 29.1352C76.9859 29.1399 76.9573 29.139 76.9298 29.1324C76.9022 29.1258 76.8763 29.1138 76.8535 29.097C76.8291 29.0807 76.8083 29.0596 76.7923 29.035C76.7763 29.0104 76.7655 28.9828 76.7605 28.9539C76.7555 28.9249 76.7564 28.8953 76.7633 28.8668C76.7701 28.8382 76.7826 28.8114 76.8002 28.7878C76.9923 28.4939 77.2516 28.25 77.5566 28.0761C77.8617 27.9023 78.2037 27.8036 78.5545 27.7881C78.6124 27.7913 78.6669 27.8165 78.7068 27.8586C78.7468 27.9007 78.7691 27.9565 78.7692 28.0145C78.769 28.0437 78.7629 28.0725 78.7513 28.0992C78.7397 28.1259 78.7228 28.1501 78.7017 28.1701C78.6805 28.1902 78.6556 28.2057 78.6282 28.2159C78.6009 28.2261 78.5718 28.2306 78.5427 28.2292C78.2672 28.243 77.9988 28.3214 77.7592 28.4581C77.5196 28.5947 77.3155 28.7859 77.1634 29.0161C77.149 29.0458 77.128 29.072 77.1021 29.0926C77.0762 29.1132 77.0461 29.1278 77.0138 29.1352Z" fill="#405261"/>
<path d="M97.9988 52.7751C98.6426 54.3437 99.1367 55.8394 99.6239 57.3912C100.111 58.9429 100.501 60.5335 100.862 62.085C101.611 65.3037 102.008 68.5944 102.044 71.899C102.009 72.9608 101.76 74.0046 101.311 74.9677C100.953 75.773 100.537 76.5512 100.066 77.2959C99.1627 78.6817 98.1634 80.0023 97.0752 81.248C94.96 83.6636 92.6611 85.9119 90.199 87.9728L88.5513 86.2809C89.5353 85.1121 90.5361 83.913 91.4808 82.7071C92.4256 81.5012 93.3738 80.2836 94.2347 79.0373C95.1003 77.8323 95.8918 76.5757 96.6047 75.2745C96.9315 74.677 97.2134 74.0559 97.4479 73.4164C97.6352 72.944 97.7345 72.4413 97.741 71.9332C97.6476 70.4725 97.4737 69.0182 97.22 67.5767C96.9663 66.1055 96.6316 64.6427 96.264 63.18C95.8964 61.7174 95.4702 60.2649 95.0174 58.817C94.5645 57.3691 94.06 55.9082 93.565 54.5664L97.9988 52.7751Z" fill="#EBBE8B"/>
<path d="M96.5682 47.8235C98.394 48.6064 99.9787 55.3428 99.9787 55.3428L92.0927 59.8101C92.0927 59.8101 90.0086 54.093 91.0492 51.7562C92.1424 49.2786 94.4778 46.938 96.5682 47.8235Z" fill="#224763"/>
<path d="M89.4974 179.946C89.1914 180.027 88.8665 179.995 88.5818 179.857C88.4924 179.797 88.4197 179.716 88.3706 179.621C88.3215 179.526 88.2976 179.419 88.3013 179.312C88.2954 179.245 88.3076 179.177 88.3366 179.116C88.3657 179.055 88.4105 179.003 88.4665 178.965C88.9573 178.628 90.5102 179.293 90.6876 179.367C90.7072 179.377 90.7239 179.391 90.7358 179.41C90.7476 179.428 90.7542 179.449 90.7549 179.471C90.7533 179.492 90.7459 179.513 90.7334 179.531C90.721 179.548 90.704 179.562 90.6843 179.571C90.3042 179.741 89.906 179.866 89.4974 179.946ZM88.7261 179.102C88.6787 179.1 88.6316 179.108 88.5875 179.126C88.5624 179.142 88.5426 179.165 88.5308 179.193C88.5189 179.22 88.5154 179.25 88.5208 179.28C88.5153 179.351 88.5285 179.423 88.5589 179.488C88.5894 179.553 88.6361 179.609 88.6945 179.651C88.9658 179.823 89.5728 179.746 90.3501 179.447C89.8377 179.223 89.2852 179.106 88.7261 179.102Z" fill="#008AF8"/>
<path d="M90.6639 179.58C90.6474 179.588 90.6288 179.591 90.6106 179.589C90.1249 179.415 89.1169 178.568 89.1344 178.032C89.1347 177.944 89.1666 177.858 89.2244 177.791C89.2822 177.723 89.3621 177.679 89.4498 177.665C89.5301 177.64 89.6151 177.632 89.6986 177.643C89.7822 177.655 89.8622 177.684 89.933 177.73C90.5104 178.086 90.7714 179.408 90.7806 179.461C90.784 179.48 90.7824 179.5 90.776 179.518C90.7695 179.537 90.7585 179.553 90.7438 179.566C90.7321 179.574 90.719 179.579 90.7053 179.581C90.6915 179.584 90.6774 179.583 90.6639 179.58ZM89.5584 177.849L89.5051 177.858C89.3665 177.882 89.3527 177.962 89.3513 178.017C89.3416 178.342 89.9936 179.004 90.4905 179.275C90.4127 178.757 90.1763 178.276 89.8139 177.899C89.738 177.851 89.6468 177.833 89.5584 177.849Z" fill="#008AF8"/>
<path d="M56.5857 172.416C56.3312 172.476 56.0644 172.459 55.8198 172.367C55.7298 172.324 55.6516 172.26 55.592 172.181C55.5323 172.101 55.493 172.008 55.4774 171.91C55.4629 171.85 55.4641 171.787 55.4807 171.727C55.4973 171.668 55.5289 171.613 55.5725 171.57C56.0412 171.104 58.0834 171.488 58.3113 171.536C58.3342 171.541 58.355 171.552 58.3708 171.569C58.3866 171.586 58.3965 171.608 58.399 171.631C58.4028 171.654 58.3994 171.677 58.3891 171.697C58.3788 171.718 58.3623 171.735 58.3419 171.745C57.791 172.05 57.1998 172.276 56.5857 172.416ZM56.0502 171.602C55.9324 171.613 55.8201 171.658 55.7263 171.73C55.7093 171.747 55.6973 171.768 55.6917 171.791C55.686 171.814 55.6868 171.839 55.6942 171.861C55.703 171.927 55.728 171.99 55.767 172.043C55.8059 172.097 55.8576 172.14 55.9173 172.169C56.258 172.33 57.0129 172.155 57.9494 171.697C57.3239 171.577 56.6846 171.546 56.0502 171.602Z" fill="#008AF8"/>
<path d="M58.3163 171.755L58.2843 171.761C57.6773 171.679 56.3352 171.026 56.2708 170.494C56.2487 170.366 56.2905 170.194 56.577 170.073C56.6796 170.032 56.7894 170.011 56.9 170.013C57.0106 170.015 57.1197 170.039 57.2209 170.083C57.9208 170.385 58.381 171.557 58.4008 171.609C58.4074 171.626 58.4096 171.645 58.407 171.664C58.4045 171.683 58.3974 171.7 58.3863 171.715C58.3689 171.737 58.3438 171.751 58.3163 171.755ZM56.7914 170.234C56.7462 170.236 56.7015 170.244 56.6581 170.257C56.4682 170.334 56.482 170.414 56.4813 170.441C56.5365 170.761 57.4653 171.309 58.1093 171.478C57.9151 170.981 57.5715 170.557 57.1259 170.264C57.0186 170.231 56.904 170.228 56.795 170.255L56.7914 170.234Z" fill="#008AF8"/>
<path d="M54.7098 33.6469C48.2576 33.2737 41.8238 34.6412 36.0812 37.6063C30.3386 40.5714 25.4983 45.0253 22.0667 50.5019C18.6351 55.9785 16.7382 62.2766 16.5745 68.7375C16.4108 75.1983 17.9863 81.5844 21.1361 87.2278L12.6803 100.038L28.1374 96.1204C32.3825 100.057 37.5129 102.915 43.095 104.451C48.677 105.987 54.5469 106.157 60.2087 104.947C65.8704 103.737 71.1577 101.182 75.6239 97.4977C80.0901 93.8135 83.604 89.1085 85.8686 83.7801C88.1333 78.4518 89.0823 72.6566 88.6353 66.8842C88.1884 61.1118 86.3587 55.5318 83.3008 50.6156C80.243 45.6993 76.0468 41.5913 71.0667 38.6384C66.0866 35.6856 60.469 33.9748 54.6885 33.6505L54.7098 33.6469Z" fill="#008AF8" opacity="0.6"/>
<path opacity="0.1" d="M54.7098 33.6469C48.2576 33.2737 41.8238 34.6412 36.0812 37.6063C30.3386 40.5714 25.4983 45.0253 22.0667 50.5019C18.6351 55.9785 16.7382 62.2766 16.5745 68.7375C16.4108 75.1983 17.9863 81.5844 21.1361 87.2278L12.6803 100.038L28.1374 96.1204C32.3825 100.057 37.5129 102.915 43.095 104.451C48.677 105.987 54.5469 106.157 60.2087 104.947C65.8704 103.737 71.1577 101.182 75.6239 97.4977C80.0901 93.8135 83.604 89.1085 85.8686 83.7801C88.1333 78.4518 89.0823 72.6566 88.6353 66.8842C88.1884 61.1118 86.3587 55.5318 83.3008 50.6156C80.243 45.6993 76.0468 41.5913 71.0667 38.6384C66.0866 35.6856 60.469 33.9748 54.6885 33.6505L54.7098 33.6469Z" fill="#1D2B36"/>
<path d="M47.8747 67.3176L43.013 66.7118L42.9586 67.1479C42.6212 69.6461 41.5778 70.7016 39.3992 71.6676C36.8229 72.7926 35.023 74.4833 34.6473 77.4978C34.0878 81.9875 37.3792 85.0552 42.4718 85.6898C47.1283 86.2701 51.229 84.306 51.9839 79.1892L46.7502 78.537C46.4126 80.6184 44.7214 81.541 43.0409 81.3315C41.3092 81.1157 40.0548 79.787 40.277 78.0039C40.4864 76.3235 41.8442 75.3593 43.5467 74.5554C45.8712 73.4642 47.248 72.2419 47.8203 67.7537L47.8747 67.3176ZM46.3707 58.7929C44.7287 58.5883 43.1338 59.7834 42.9084 61.4879C42.7118 63.17 43.9646 64.72 45.6066 64.9246C47.2999 65.1356 48.8691 63.9373 49.0657 62.2552C49.2911 60.5507 48.064 59.0039 46.3707 58.7929Z" fill="white"/>
<path d="M56.7523 72.1626L61.614 72.7685L61.6684 72.3323C62.0057 69.8341 63.0492 68.7787 65.2278 67.8126C67.804 66.6876 69.604 64.997 69.9797 61.9824C70.5392 57.4927 67.2478 54.425 62.1552 53.7904C57.4987 53.2102 53.3979 55.1743 52.6431 60.291L57.8768 60.9432C58.2143 58.8619 59.9056 57.9393 61.586 58.1487C63.3178 58.3645 64.5721 59.6932 64.35 61.4763C64.1405 63.1567 62.7828 64.1209 61.0803 64.9248C58.7558 66.016 57.3789 67.2383 56.8066 71.7265L56.7523 72.1626ZM58.2563 80.6873C59.8983 80.892 61.4932 79.6968 61.7186 77.9923C61.9152 76.3103 60.6624 74.7603 59.0204 74.5556C57.3271 74.3446 55.7579 75.543 55.5613 77.225C55.3358 78.9295 56.563 80.4763 58.2563 80.6873Z" fill="white"/>
<path d="M89.4781 85.7038L85.0421 84.1086L86.6939 88.561C86.6939 88.561 89.6578 89.0048 90.8157 87.4437L89.4781 85.7038Z" fill="#EBBE8B"/>
<path d="M81.313 85.3393L82.898 88.9907L86.6938 88.561L85.042 84.1087L81.313 85.3393Z" fill="#EBBE8B"/>
<path d="M82.8154 30.5003L81.9121 30.228C81.9121 30.228 82.3697 30.9395 82.8154 30.5003Z" fill="#405261"/>
<path d="M88.1666 27.409C85.8603 27.6586 84.0136 26.9452 83.5626 25.6671C83.5626 25.6671 78.7031 28.745 76.0277 25.869C76.0277 25.869 73.7076 26.6755 72.829 25.1144C71.9504 23.5533 74.3536 22.6557 75.6551 23.1997C75.6551 23.1997 71.4679 20.6284 75.0458 19.0945C78.6236 17.5606 79.9446 20.4452 79.9446 20.4452C79.9446 20.4452 80.6545 15.7776 84.3192 17.1655C87.9839 18.5534 86.243 20.8079 86.243 20.8079C86.243 20.8079 94.2488 20.0582 91.8442 23.6842C89.4396 27.3102 88.1666 27.409 88.1666 27.409Z" fill="#1D2B36"/>
<path d="M87.9522 43.2221C88.4073 43.1875 88.4786 44.7781 88.2944 44.9197C87.8739 45.2502 82.0897 45.0678 82.1273 44.172C82.2485 43.7239 82.4511 43.302 82.7249 42.9272C82.9389 42.7036 83.9674 43.5746 87.9522 43.2221Z" fill="#224763"/>
<path d="M127.44 57.4752C125.146 57.4681 122.934 58.3326 121.253 59.8939C119.572 61.4552 118.547 63.5967 118.385 65.8853C118.222 68.1739 118.936 70.4387 120.38 72.2215C121.824 74.0042 123.891 75.172 126.164 75.4885C126.209 77.7739 125.407 79.9955 123.913 81.7255C123.913 81.7255 136.495 78.5934 136.495 66.5305C136.495 64.1289 135.541 61.8257 133.843 60.1275C132.145 58.4293 129.842 57.4752 127.44 57.4752Z" fill="#008AF8"/>
<path d="M147.817 57.4752C145.523 57.468 143.312 58.3325 141.631 59.8939C139.949 61.4552 138.924 63.5967 138.762 65.8853C138.6 68.1739 139.313 70.4386 140.757 72.2214C142.201 74.0042 144.268 75.172 146.541 75.4884C146.594 77.7704 145.802 79.9915 144.318 81.7255C144.318 81.7255 156.9 78.5934 156.9 66.5305C156.901 65.3389 156.666 64.1588 156.209 63.0581C155.753 61.9574 155.083 60.9576 154.24 60.1163C153.396 59.2749 152.394 58.6085 151.292 58.1553C150.19 57.702 149.009 57.4709 147.817 57.4752Z" fill="#008AF8"/>
</svg>
