<svg width="200" height="200" viewBox="0 0 200 200" fill="none" xmlns="http://www.w3.org/2000/svg">
<path d="M168.193 59.2053C144.417 33.7088 84.9604 12.6178 50.9618 23.0655C18.9849 32.9059 -1.12963 72.2417 22.7602 98.5668C50.2706 128.875 97.6635 141.402 136.577 136.081C172.087 131.222 197.086 90.1881 168.193 59.2053Z" fill="#2697FF"/>
<path opacity="0.9" d="M168.193 59.2053C144.417 33.7088 84.9604 12.6178 50.9618 23.0655C18.9849 32.9059 -1.12963 72.2417 22.7602 98.5668C50.2706 128.875 97.6635 141.402 136.577 136.081C172.087 131.222 197.086 90.1881 168.193 59.2053Z" fill="white"/>
<path d="M100 180.486C155.228 180.486 200 177.878 200 174.66C200 171.442 155.228 168.834 100 168.834C44.7715 168.834 0 171.442 0 174.66C0 177.878 44.7715 180.486 100 180.486Z" fill="#F4F6F7"/>
<g opacity="0.8">
<path d="M157.109 170.352L124.261 109.766L91.4121 170.352H157.109Z" fill="#F1FBFF"/>
<path d="M157.109 67.8567L124.261 128.438L91.4121 67.8567H157.109Z" fill="#F1FBFF"/>
</g>
<path d="M130.28 103.626L125.473 112.488C125.355 112.707 125.18 112.889 124.967 113.016C124.754 113.143 124.51 113.21 124.261 113.21C124.013 113.21 123.769 113.143 123.556 113.016C123.342 112.889 123.167 112.707 123.049 112.488L118.242 103.626C117.809 102.825 117.592 101.925 117.612 101.015C117.632 100.105 117.888 99.2156 118.356 98.4342C118.824 97.6528 119.487 97.0061 120.281 96.5575C121.075 96.1089 121.972 95.8737 122.884 95.8751H125.664C126.574 95.8782 127.468 96.1165 128.258 96.567C129.048 97.0174 129.708 97.6646 130.173 98.4452C130.638 99.2259 130.892 100.114 130.911 101.022C130.93 101.929 130.712 102.827 130.28 103.626Z" fill="#D1A17D"/>
<path d="M124.781 155.056L139.713 161.181C140.004 161.303 140.244 161.522 140.393 161.801C140.542 162.079 140.59 162.4 140.529 162.71C140.469 163.02 140.303 163.299 140.061 163.502C139.818 163.704 139.513 163.817 139.197 163.821H109.35C109.034 163.817 108.729 163.704 108.486 163.502C108.244 163.299 108.078 163.02 108.018 162.71C107.957 162.4 108.005 162.079 108.154 161.801C108.303 161.522 108.543 161.303 108.834 161.181L123.724 155.056C123.892 154.986 124.071 154.95 124.253 154.95C124.434 154.95 124.614 154.986 124.781 155.056Z" fill="#D1A17D"/>
<path d="M124.261 143.404C125.318 143.404 126.175 142.55 126.175 141.495C126.175 140.44 125.318 139.586 124.261 139.586C123.204 139.586 122.348 140.44 122.348 141.495C122.348 142.55 123.204 143.404 124.261 143.404Z" fill="#D1A17D"/>
<path d="M124.26 122.535C124.805 122.535 125.246 122.095 125.246 121.552C125.246 121.009 124.805 120.569 124.26 120.569C123.716 120.569 123.275 121.009 123.275 121.552C123.275 122.095 123.716 122.535 124.26 122.535Z" fill="#D1A17D"/>
<path d="M124.261 132.174C124.879 132.174 125.38 131.674 125.38 131.058C125.38 130.441 124.879 129.941 124.261 129.941C123.643 129.941 123.142 130.441 123.142 131.058C123.142 131.674 123.643 132.174 124.261 132.174Z" fill="#D1A17D"/>
<path d="M156.944 167.362H91.5773C90.7839 167.365 90.0238 167.681 89.4633 168.241C88.9027 168.801 88.5873 169.56 88.5859 170.352C88.5887 171.143 88.9047 171.901 89.4651 172.46C90.0255 173.019 90.7848 173.335 91.5773 173.337H156.944C157.737 173.335 158.496 173.019 159.057 172.46C159.617 171.901 159.933 171.143 159.936 170.352C159.934 169.56 159.619 168.801 159.058 168.241C158.498 167.681 157.738 167.365 156.944 167.362Z" fill="#305787"/>
<path d="M156.944 64.8717H91.5773C90.7848 64.8744 90.0255 65.1898 89.4651 65.749C88.9047 66.3082 88.5887 67.0659 88.5859 67.8567C88.5887 68.6476 88.9047 69.4053 89.4651 69.9645C90.0255 70.5237 90.7848 70.8391 91.5773 70.8418H156.944C157.737 70.8391 158.496 70.5237 159.057 69.9645C159.617 69.4053 159.933 68.6476 159.936 67.8567C159.933 67.0659 159.617 66.3082 159.057 65.749C158.496 65.1898 157.737 64.8744 156.944 64.8717Z" fill="#305787"/>
<path d="M71.4427 169.225L67.8066 168.047L70.0657 159.488L73.7017 160.666L71.4427 169.225Z" fill="#D1A17D"/>
<path d="M67.7501 167.563L71.8349 168.885C71.9038 168.906 71.9621 168.952 71.9977 169.014C72.0333 169.077 72.0433 169.15 72.0257 169.22L71.1747 172.514C71.1202 172.683 71.0007 172.825 70.8422 172.907C70.6837 172.989 70.4992 173.005 70.3288 172.951C68.9157 172.467 68.2658 172.164 66.4658 171.582C65.357 171.222 61.7157 170.285 60.1891 169.791C58.6624 169.297 59.1937 167.805 59.8848 167.877C62.9793 168.201 65.7644 168.057 67.0538 167.583C67.2772 167.5 67.5221 167.493 67.7501 167.563Z" fill="#3D4852"/>
<path opacity="0.2" d="M73.7011 160.671L70.065 159.488L68.8994 163.903L72.5407 165.082L73.7011 160.671Z" fill="#1D2B36"/>
<path d="M83.6401 74.0327C83.6401 74.0327 77.1157 104.166 75.584 115C73.9077 126.863 67.6104 162.488 67.6104 162.488L74.3616 164.351C74.3616 164.351 83.7174 129.802 86.4509 118.268C89.4165 105.746 97.2818 74.007 97.2818 74.007L83.6401 74.0327Z" fill="#2697FF"/>
<path opacity="0.3" d="M91.7061 83.9143C89.1273 89.7506 87.8534 102.442 88.8539 108.284C90.6797 100.795 92.8768 91.8916 94.5737 85.0414C94.0012 83.0548 93.0522 80.8675 91.7061 83.9143Z" fill="#1D2B36"/>
<path d="M74.5317 164.485L67.3008 162.498L67.4452 159.56L75.5838 162.365L74.5317 164.485Z" fill="#3D4852"/>
<path d="M66.2541 167.779C66.5904 167.877 66.9362 167.939 67.2856 167.964C67.3029 167.965 67.3201 167.961 67.3353 167.953C67.3505 167.945 67.3631 167.933 67.3717 167.918C67.3802 167.903 67.3845 167.886 67.3838 167.868C67.3832 167.851 67.3778 167.834 67.3681 167.82C67.2753 167.702 66.4759 166.667 65.9756 166.698C65.918 166.701 65.8621 166.719 65.8133 166.749C65.7646 166.78 65.7245 166.823 65.6971 166.873C65.6454 166.948 65.6144 167.035 65.6071 167.125C65.5999 167.215 65.6167 167.306 65.6558 167.388C65.8021 167.585 66.0143 167.724 66.2541 167.779ZM67.0742 167.779C66.3831 167.697 65.9085 167.522 65.7951 167.3C65.7713 167.248 65.7621 167.19 65.7685 167.133C65.7748 167.076 65.7965 167.022 65.8312 166.976C65.8443 166.951 65.8634 166.93 65.8869 166.915C65.9103 166.9 65.9373 166.891 65.9653 166.889C66.2335 166.858 66.7389 167.362 67.0742 167.763V167.779Z" fill="#3D4852"/>
<path d="M67.2494 167.959H67.2907C67.3057 167.956 67.3197 167.949 67.3314 167.939C67.3431 167.929 67.3521 167.917 67.3578 167.902C67.3578 167.861 67.7961 166.842 67.5434 166.358C67.512 166.298 67.4667 166.245 67.4112 166.205C67.3556 166.164 67.2914 166.138 67.2236 166.127C67.1504 166.105 67.0719 166.108 67.0008 166.136C66.9297 166.164 66.8701 166.215 66.8317 166.281C66.6202 166.652 66.9142 167.583 67.2082 167.918L67.2494 167.959ZM67.2494 166.328C67.284 166.338 67.316 166.355 67.3436 166.378C67.3711 166.401 67.3935 166.429 67.4093 166.461C67.4957 166.876 67.4469 167.307 67.2701 167.691C67.0203 167.306 66.9263 166.841 67.007 166.389C67.007 166.343 67.0792 166.292 67.2082 166.317L67.2494 166.328Z" fill="#3D4852"/>
<path d="M90.582 45.4225C90.386 45.8857 90.221 46.2357 90.0404 46.6268C89.8599 47.018 89.6639 47.3782 89.4731 47.7488C89.0915 48.4951 88.6892 49.2207 88.2714 49.9464C87.4275 51.4036 86.4975 52.8094 85.4863 54.1564C84.4513 55.5493 83.3043 56.8557 82.0565 58.0627C80.7272 59.3684 79.2201 60.4807 77.5798 61.3668L77.4508 61.4337C77.2422 61.5413 77.0202 61.6209 76.7907 61.6705C75.616 61.9143 74.3993 61.8666 73.2474 61.5315C72.2904 61.2457 71.38 60.8227 70.5449 60.2758C69.1438 59.3356 67.8861 58.1985 66.8108 56.8995C65.8118 55.715 64.9032 54.4574 64.0928 53.1373C63.2923 51.8401 62.5807 50.4903 61.9627 49.0972C61.8035 48.7288 61.7828 48.3154 61.9044 47.933C62.0259 47.5505 62.2816 47.2247 62.6245 47.0151C62.9674 46.8056 63.3745 46.7264 63.7711 46.7922C64.1677 46.8579 64.5273 47.0642 64.7839 47.3731L64.8354 47.4349C65.6864 48.4642 66.6096 49.5604 67.538 50.5589C68.4426 51.553 69.4035 52.4947 70.4159 53.3792C71.3107 54.1886 72.3056 54.8804 73.3764 55.4379C73.7766 55.6433 74.2064 55.7857 74.6503 55.8599C74.8989 55.906 75.1554 55.8847 75.393 55.7982L74.6039 56.1018C75.6698 55.3847 76.6417 54.5375 77.4973 53.58C78.4285 52.5362 79.29 51.4324 80.076 50.2758C80.8909 49.0921 81.6646 47.8517 82.3918 46.5754C82.7631 45.9423 83.119 45.299 83.4542 44.6454L83.97 43.6727C84.1299 43.3587 84.3052 42.9984 84.429 42.7463L84.46 42.6742C84.8359 41.8825 85.5082 41.2695 86.3322 40.967C87.1562 40.6646 88.0663 40.6968 88.8668 41.0568C89.6673 41.4167 90.2943 42.0757 90.6131 42.8921C90.9319 43.7084 90.917 44.617 90.5717 45.4225H90.582Z" fill="#FFC452"/>
<path opacity="0.3" d="M82.1492 52.4117C83.7686 48.1194 87.2087 48.0473 88.6993 49.1847C88.591 49.3854 88.4775 49.5862 88.364 49.7869C87.555 51.192 86.6682 52.5511 85.7079 53.8579C84.7223 55.2024 83.6379 56.472 82.4638 57.6561C82.0924 58.0215 81.7108 58.3818 81.3136 58.7318C81.177 56.5909 81.4608 54.444 82.1492 52.4117Z" fill="#1D2B36"/>
<path d="M61.8339 49.3649L58.4814 49.4884L59.317 45.9115C60.4712 45.9686 61.6167 46.141 62.7364 46.4261C62.9403 46.4877 63.1268 46.5964 63.2807 46.7433C63.4347 46.8902 63.5518 47.0712 63.6227 47.2716C63.6935 47.4721 63.716 47.6864 63.6883 47.8972C63.6607 48.1079 63.5837 48.3092 63.4636 48.4848C63.2823 48.7508 63.0396 48.9696 62.7561 49.1227C62.4725 49.2758 62.1562 49.3589 61.8339 49.3649Z" fill="#D1A17D"/>
<path d="M63.711 46.3438C63.3819 46.0834 63.0053 45.8894 62.6021 45.7725C62.3236 47.2342 60.5391 49.6994 60.5391 49.6994H61.9368C62.1166 49.6999 62.2943 49.661 62.4574 49.5854C62.6205 49.5098 62.765 49.3994 62.8806 49.2619L63.8605 48.0885C63.9679 47.9652 64.0493 47.8217 64.1 47.6664C64.1507 47.5111 64.1696 47.3473 64.1557 47.1846C64.1417 47.0218 64.0952 46.8636 64.0188 46.7192C63.9424 46.5747 63.8377 46.4471 63.711 46.3438Z" fill="#305787"/>
<path d="M55.9131 47.8415L56.8518 45.3196L59.3068 45.9166L58.4712 49.4884L55.9131 47.8415Z" fill="#D1A17D"/>
<path d="M98.0662 170.893H94.2444L94.1104 162.056H97.9321L98.0662 170.893Z" fill="#D1A17D"/>
<path d="M94.0428 170.45H98.3391C98.375 170.449 98.4108 170.454 98.4445 170.467C98.4782 170.479 98.5091 170.498 98.5355 170.523C98.5618 170.547 98.5831 170.576 98.5981 170.609C98.613 170.641 98.6214 170.677 98.6228 170.713L98.8291 174.104C98.8291 174.283 98.7588 174.454 98.6333 174.581C98.5079 174.708 98.3373 174.781 98.1586 174.783C96.6629 174.758 95.9511 174.67 94.0325 174.67C92.8721 174.67 88.9884 174.789 87.3844 174.789C85.7804 174.789 85.8372 173.203 86.5025 173.059C89.5558 172.421 92.279 171.515 93.3569 170.687C93.5508 170.53 93.7935 170.447 94.0428 170.45Z" fill="#3D4852"/>
<path opacity="0.2" d="M97.9373 162.061H94.1104L94.1826 166.616H98.0043L97.9373 162.061Z" fill="#1D2B36"/>
<path d="M91.0981 74.0328C91.0981 74.0328 89.6385 107.182 90.2574 118.109C90.9382 130.069 92.3617 165.514 92.3617 165.514H99.3657C99.3657 165.514 101.13 131.032 101.552 119.195C102.012 106.328 104.09 74.0328 104.09 74.0328H91.0981Z" fill="#2697FF"/>
<path d="M99.6497 165.514H92.0835L91.5059 162.704L99.856 163.121L99.6497 165.514Z" fill="#3D4852"/>
<path d="M92.6869 171.114C93.0345 171.105 93.3802 171.06 93.7184 170.98C93.7348 170.975 93.7494 170.965 93.7612 170.953C93.7729 170.94 93.7812 170.925 93.7855 170.908C93.7874 170.892 93.7851 170.875 93.7788 170.86C93.7724 170.844 93.7623 170.831 93.7494 170.821C93.6256 170.733 92.5425 169.997 92.0732 170.182C92.021 170.203 91.9749 170.237 91.9389 170.28C91.9029 170.323 91.8781 170.374 91.8669 170.429C91.8433 170.513 91.8414 170.601 91.8612 170.686C91.8811 170.77 91.922 170.849 91.9803 170.913C92.1832 171.064 92.4347 171.136 92.6869 171.114ZM93.4606 170.851C92.7746 170.985 92.2743 170.965 92.0938 170.79C92.0567 170.746 92.0315 170.694 92.0207 170.638C92.0098 170.582 92.0137 170.525 92.0319 170.471C92.0356 170.443 92.0467 170.417 92.0639 170.395C92.0812 170.374 92.104 170.357 92.1299 170.347C92.3826 170.249 93.017 170.568 93.4606 170.851Z" fill="#3D4852"/>
<path d="M93.6873 170.98C93.7007 170.984 93.7151 170.984 93.7285 170.98C93.7415 170.973 93.7525 170.962 93.7606 170.95C93.7687 170.937 93.7736 170.923 93.775 170.908C93.775 170.862 93.8626 169.766 93.4758 169.395C93.4267 169.347 93.3673 169.311 93.302 169.289C93.2367 169.268 93.1674 169.262 93.0993 169.271C93.0238 169.274 92.9514 169.302 92.8935 169.351C92.8356 169.399 92.7955 169.465 92.7796 169.539C92.6867 169.956 93.2592 170.754 93.6409 170.98C93.656 170.985 93.6722 170.985 93.6873 170.98ZM93.1715 169.436C93.2069 169.435 93.2422 169.442 93.275 169.455C93.3078 169.468 93.3376 169.488 93.3624 169.513C93.5754 169.881 93.664 170.307 93.6151 170.728C93.285 170.445 92.9033 169.838 92.9601 169.565C92.9601 169.513 93.0013 169.452 93.1303 169.436H93.1715Z" fill="#3D4852"/>
<path d="M106.003 43.2661C106.06 42.9443 106.052 42.6144 105.978 42.2959C105.905 41.9775 105.768 41.6772 105.575 41.4129C105.382 41.1486 105.138 40.9258 104.857 40.7579C104.577 40.5899 104.265 40.4803 103.94 40.4354H103.899C102.666 40.2553 101.119 40.07 99.6027 39.998C96.7082 39.8332 93.8067 39.8332 90.9122 39.998C89.5764 40.1215 88.2715 40.3428 87.2297 40.5435H87.1885C86.5371 40.6748 85.934 40.9809 85.4442 41.4289C84.9543 41.877 84.5962 42.4499 84.4085 43.086C83.1604 47.2805 81.6699 55.8445 83.6194 74.0276H104.069C104.214 72.2057 103.806 66.2768 104.105 58.7266C104.404 53.5378 105.038 48.3735 106.003 43.2661Z" fill="#FFC452"/>
<path opacity="0.3" d="M105.807 44.388C105.385 46.8276 104.864 50.1471 104.503 53.652C104.503 53.652 102.636 49.9979 102.295 46.8739C101.955 43.7499 104.642 43.5131 105.807 44.388Z" fill="#1D2B36"/>
<g opacity="0.2">
<path opacity="0.2" d="M92.0931 44.8718C92.0507 44.8699 92.01 44.8542 91.9773 44.8272C91.9446 44.8001 91.9215 44.7632 91.9116 44.722C91.9017 44.6808 91.9055 44.6375 91.9225 44.5986C91.9394 44.5597 91.9685 44.5274 92.0054 44.5064L98.3802 41.2074C98.4255 41.1854 98.4776 41.1817 98.5257 41.197C98.5737 41.2124 98.6139 41.2456 98.6381 41.2898C98.6617 41.3356 98.6663 41.3888 98.6509 41.4379C98.6354 41.4871 98.6012 41.5282 98.5555 41.5522L92.1808 44.841C92.1538 44.8568 92.1241 44.8673 92.0931 44.8718Z" fill="white"/>
<path opacity="0.2" d="M95.0126 45.1703C94.9875 45.1714 94.9624 45.1669 94.9392 45.1571C94.916 45.1473 94.8953 45.1325 94.8785 45.1137L91.3817 41.65C91.3473 41.6129 91.3281 41.5642 91.3281 41.5136C91.3281 41.4631 91.3473 41.4144 91.3817 41.3773C91.4183 41.3417 91.4673 41.3219 91.5184 41.3219C91.5694 41.3219 91.6185 41.3417 91.655 41.3773L95.1467 44.8461C95.1823 44.8826 95.2022 44.9315 95.2022 44.9825C95.2022 45.0334 95.1823 45.0824 95.1467 45.1189C95.1289 45.1359 95.1079 45.1492 95.0849 45.1581C95.0618 45.1669 95.0373 45.1711 95.0126 45.1703Z" fill="white"/>
<path opacity="0.2" d="M99.6182 39.9928C96.7254 39.828 93.8256 39.828 90.9328 39.9928H90.7884C90.7182 40.2577 90.7016 40.5338 90.7397 40.8051C90.7778 41.0764 90.8697 41.3374 91.0102 41.5728C91.495 42.3448 92.511 42.7771 94.0377 42.8595H94.6102C98.7362 42.8595 100.33 40.3582 100.397 40.2501L100.541 40.0185L99.6182 39.9928Z" fill="white"/>
</g>
<path d="M91.3453 39.9619C93.8725 39.3649 94.3161 37.8055 94.1459 36.0917C94.1058 35.6624 94.0386 35.2361 93.9447 34.8153L97.1115 32.1905L99.4375 30.2657C98.7928 33.0603 98.0656 38.1503 99.9533 40.0134C99.9533 40.0134 98.406 42.5867 94.0582 42.3603C90.4118 42.1596 91.3453 39.9619 91.3453 39.9619Z" fill="#D1A17D"/>
<path opacity="0.2" d="M93.9453 34.8153C94.0392 35.2361 94.1064 35.6624 94.1465 36.0917C95.3275 35.8549 96.9058 34.5991 97.0708 33.3948C97.1288 32.9961 97.1427 32.5922 97.1121 32.1905L93.9453 34.8153Z" fill="#1D2B36"/>
<path d="M92.2638 21.4237C90.5463 22.4531 90.8196 25.0264 90.3555 26.8689C91.4489 26.977 93.1715 25.0367 93.1715 25.0367L94.203 22.0876L92.2638 21.4237Z" fill="#1D2B36"/>
<path d="M101.397 26.6012C100.299 30.2348 99.8501 32.4118 97.5188 33.9301C96.7691 34.4304 95.8966 34.7166 94.9957 34.7578C94.0947 34.7989 93.1996 34.5935 92.4072 34.1637C91.6148 33.7339 90.9553 33.0961 90.4999 32.3192C90.0446 31.5423 89.8108 30.656 89.8238 29.7561C89.8238 26.2924 91.6083 20.9296 95.5899 20.1885C96.4481 20.0055 97.3395 20.051 98.1745 20.3204C99.0095 20.5898 99.7588 21.0736 100.347 21.7233C100.936 22.3731 101.342 23.1658 101.527 24.022C101.711 24.8782 101.666 25.7677 101.397 26.6012Z" fill="#D1A17D"/>
<path d="M97.9676 29.6841C100.546 26.699 97.3229 25.2271 99.9584 23.153C96.9928 23.292 92.1086 23.0809 91.237 21.0532C90.3654 19.0254 93.0473 16.2771 95.2805 16.0197C97.8593 15.7212 97.3023 18.907 97.3023 18.907C97.3023 18.907 107.169 18.2946 104.038 22.5097C106.411 22.3656 105.756 26.1947 101.629 29.4268C100.593 29.7716 97.9676 29.6841 97.9676 29.6841Z" fill="#1D2B36"/>
<path d="M103.445 22.5611C103.445 22.5611 105.477 21.959 105.41 20.3532C106.143 20.8576 106.22 22.3913 103.445 22.5611Z" fill="#3D4852"/>
<path d="M102.001 30.3943C101.407 31.126 100.578 31.6298 99.6543 31.8199C98.4836 32.031 98.2102 30.9502 98.793 29.8951C99.3088 28.9481 100.562 27.6975 101.614 27.96C102.666 28.2224 102.749 29.4731 102.001 30.3943Z" fill="#D1A17D"/>
<path d="M95.5228 26.5086C95.4506 26.8071 95.234 27.0233 95.0328 26.9769C94.8317 26.9306 94.7337 26.663 94.8059 26.3645C94.8781 26.066 95.0947 25.8498 95.2907 25.891C95.4867 25.9322 95.595 26.205 95.5228 26.5086Z" fill="#1D2B36"/>
<path d="M92.1036 25.8241C92.0314 26.1226 91.8148 26.3388 91.6188 26.2976C91.4228 26.2564 91.3145 25.9837 91.3867 25.6851C91.4589 25.3866 91.6756 25.1705 91.8715 25.2117C92.0675 25.2528 92.1758 25.5256 92.1036 25.8241Z" fill="#1D2B36"/>
<path d="M93.1558 26.1895C92.5736 27.0368 91.8797 27.802 91.0928 28.4643C91.2681 28.653 91.4827 28.8009 91.7215 28.8979C91.9603 28.9948 92.2175 29.0383 92.475 29.0253L93.1558 26.1895Z" fill="#99593C"/>
<path d="M95.1164 29.2991C94.7594 29.2657 94.3993 29.305 94.0579 29.4147C93.7166 29.5244 93.4011 29.7022 93.1308 29.9373C93.122 29.945 93.115 29.9545 93.1102 29.9652C93.1053 29.9758 93.1028 29.9874 93.1028 29.9991C93.1028 30.0107 93.1053 30.0223 93.1102 30.0329C93.115 30.0436 93.122 30.0531 93.1308 30.0608C93.1481 30.0775 93.1712 30.0868 93.1953 30.0868C93.2193 30.0868 93.2424 30.0775 93.2597 30.0608C93.5561 29.8093 93.9069 29.6297 94.2845 29.5359C94.662 29.4422 95.0562 29.4369 95.4362 29.5204C95.4477 29.5226 95.4596 29.5225 95.4711 29.5201C95.4826 29.5176 95.4935 29.5129 95.5031 29.5062C95.5127 29.4995 95.5209 29.4909 95.5271 29.4809C95.5333 29.471 95.5375 29.4599 95.5394 29.4484C95.5439 29.4245 95.5389 29.3998 95.5254 29.3796C95.5119 29.3594 95.491 29.3453 95.4672 29.3403L95.1164 29.2991Z" fill="#1D2B36"/>
<path d="M96.4535 25.8687C96.4734 25.8911 96.5 25.9065 96.5294 25.9126C96.5529 25.9152 96.5766 25.9131 96.5992 25.9064C96.6219 25.8997 96.6429 25.8884 96.661 25.8734C96.6792 25.8583 96.6941 25.8398 96.7048 25.8188C96.7156 25.7978 96.722 25.7749 96.7237 25.7514C96.7594 25.4681 96.7243 25.1803 96.6216 24.9136C96.5189 24.6469 96.3518 24.4097 96.1351 24.223C96.0968 24.194 96.0487 24.1809 96.0009 24.1866C95.9532 24.1923 95.9096 24.2163 95.8793 24.2536C95.8649 24.2726 95.8546 24.2944 95.8487 24.3175C95.8429 24.3406 95.8417 24.3647 95.8452 24.3883C95.8488 24.4119 95.857 24.4346 95.8694 24.455C95.8818 24.4754 95.8981 24.4932 95.9174 24.5073C96.0835 24.6564 96.2113 24.8433 96.2898 25.0521C96.3683 25.2609 96.3953 25.4854 96.3684 25.7067C96.3673 25.7387 96.3746 25.7705 96.3896 25.7989C96.4045 25.8273 96.4265 25.8513 96.4535 25.8687Z" fill="#1D2B36"/>
<path d="M91.2575 23.734C91.2853 23.7441 91.3152 23.7465 91.3443 23.7411C91.3733 23.7357 91.4003 23.7226 91.4226 23.7032C91.6006 23.5552 91.8108 23.4507 92.0365 23.398C92.2621 23.3453 92.4969 23.3458 92.7223 23.3995C92.745 23.4069 92.7689 23.4098 92.7927 23.408C92.8165 23.4063 92.8398 23.3998 92.8611 23.389C92.8824 23.3783 92.9014 23.3635 92.9169 23.3454C92.9325 23.3273 92.9443 23.3064 92.9518 23.2837C92.9592 23.2611 92.9622 23.2372 92.9604 23.2134C92.9586 23.1897 92.9521 23.1665 92.9413 23.1452C92.9305 23.1239 92.9157 23.105 92.8975 23.0895C92.8794 23.0739 92.8584 23.0621 92.8357 23.0547C92.5535 22.9851 92.2589 22.9819 91.9752 23.0453C91.6914 23.1087 91.4263 23.237 91.2008 23.4201C91.1633 23.4495 91.139 23.4926 91.1332 23.5398C91.1274 23.5871 91.1406 23.6347 91.1698 23.6723C91.1908 23.7026 91.2219 23.7246 91.2575 23.734Z" fill="#1D2B36"/>
<path d="M106.189 41.7993L106.617 42.3809L107.004 42.9264C107.262 43.2918 107.494 43.6572 107.736 44.0226C108.205 44.7586 108.649 45.5049 109.077 46.2563C109.935 47.7584 110.713 49.3045 111.408 50.8883C111.769 51.6706 112.079 52.4837 112.409 53.2815C112.739 54.0792 113.017 54.9078 113.27 55.7416C113.814 57.401 114.261 59.0902 114.611 60.8007L114.652 60.9963C114.728 61.3417 114.735 61.6986 114.672 62.0466C114.609 62.3946 114.478 62.7267 114.286 63.0241C113.622 64.0418 112.833 64.9736 111.94 65.7981C111.02 66.6388 109.976 67.3332 108.845 67.8568C107.728 68.3762 106.532 68.7066 105.307 68.8346C104.707 68.8963 104.103 68.9066 103.502 68.8655C103.203 68.8655 102.903 68.8089 102.604 68.7626L102.15 68.6751L101.635 68.5464C101.574 68.5317 101.522 68.4938 101.489 68.4408C101.456 68.3878 101.445 68.3241 101.459 68.2633L102.171 65.2783C102.171 65.2526 102.305 65.2474 102.388 65.2268L102.671 65.1702C102.867 65.129 103.058 65.0827 103.254 65.0313C103.636 64.928 104.01 64.7973 104.373 64.6401C105.076 64.3522 105.734 63.9657 106.328 63.4924C107.489 62.5386 108.417 61.3328 109.041 59.967L108.716 62.1903C108.272 60.7338 107.803 59.2927 107.236 57.8671C106.668 56.4415 106.05 55.0416 105.374 53.6623C104.698 52.283 103.976 50.9191 103.197 49.5913C102.816 48.9274 102.413 48.2738 102.011 47.6253L101.397 46.668L101.093 46.2048L100.809 45.7931L100.706 45.6387C100.196 44.9132 99.9956 44.0152 100.149 43.1422C100.302 42.2692 100.797 41.4927 101.524 40.9835C102.251 40.4744 103.151 40.2743 104.026 40.4273C104.9 40.5803 105.679 41.0738 106.189 41.7993Z" fill="#FFC452"/>
<path d="M99.3706 68.2479L98.2617 70.0595L103.074 69.8691C103.074 69.8691 104.337 66.637 102.615 66.1275L101.944 66.3076C100.872 66.6073 99.9525 67.3004 99.3706 68.2479Z" fill="#D1A17D"/>
<path d="M101.351 65.7106C101.005 65.9445 100.707 66.2434 100.475 66.5907C101.785 67.3009 103.61 69.7198 103.61 69.7198L104.033 68.392C104.087 68.2207 104.103 68.0398 104.078 67.8619C104.054 67.684 103.991 67.5136 103.894 67.3627L103.095 66.076C103.007 65.9344 102.892 65.812 102.756 65.7163C102.619 65.6207 102.465 65.5537 102.302 65.5195C102.139 65.4853 101.97 65.4846 101.807 65.5175C101.643 65.5503 101.488 65.616 101.351 65.7106Z" fill="#305787"/>
<path d="M98.6846 72.849L102.651 72.4991L103.074 69.8691L98.2617 70.0595L98.6846 72.849Z" fill="#D1A17D"/>
</svg>
