<svg width="200" height="200" viewBox="0 0 200 200" fill="none" xmlns="http://www.w3.org/2000/svg">
<path d="M84.0735 65.8742C84.9709 65.6851 85.8615 65.4857 86.7451 65.2759C108.52 60.2576 133.421 57.3488 152.303 66.1991C170.813 74.869 168.539 93.2454 157.713 110.121C139.182 139.003 69.0031 166.411 50.0645 137.043C43.9425 127.554 54.4949 110.843 46.9029 99.6563C38.2589 86.9171 -1.74319 94.9732 6.25103 66.8284C10.6814 51.2216 22.0486 52.1396 34.2618 57.2044C41.2709 60.1081 47.9654 63.7235 55.2169 66.1785C64.0209 69.1647 74.2948 67.9682 84.0735 65.8742Z" fill="#1265E5"/>
<path opacity="0.9" d="M84.0735 65.8742C84.9709 65.6851 85.8615 65.4857 86.7451 65.2759C108.52 60.2576 133.421 57.3488 152.303 66.1991C170.813 74.869 168.539 93.2454 157.713 110.121C139.182 139.003 69.0031 166.411 50.0645 137.043C43.9425 127.554 54.4949 110.843 46.9029 99.6563C38.2589 86.9171 -1.74319 94.9732 6.25103 66.8284C10.6814 51.2216 22.0486 52.1396 34.2618 57.2044C41.2709 60.1081 47.9654 63.7235 55.2169 66.1785C64.0209 69.1647 74.2948 67.9682 84.0735 65.8742Z" fill="white"/>
<path d="M100 191.647C155.228 191.647 200 189.033 200 185.808C200 182.584 155.228 179.97 100 179.97C44.7715 179.97 0 182.584 0 185.808C0 189.033 44.7715 191.647 100 191.647Z" fill="#F1F3F5"/>
<path d="M36.1025 145.811H102.346V180.011C102.346 180.449 102.26 180.883 102.092 181.288C101.925 181.693 101.679 182.061 101.369 182.371C101.059 182.681 100.691 182.926 100.286 183.094C99.8815 183.262 99.4476 183.348 99.0093 183.348H39.4395C39.0013 183.348 38.5673 183.262 38.1625 183.094C37.7576 182.926 37.3898 182.681 37.0799 182.371C36.77 182.061 36.5242 181.693 36.3565 181.288C36.1889 180.883 36.1025 180.449 36.1025 180.011V145.811Z" fill="#003D99"/>
<path d="M36.1027 145.811H82.9798L77.2136 138.431C76.5793 137.621 75.0114 136.966 73.7065 136.966H31.5486C30.2489 136.966 29.7022 137.621 30.3365 138.431L36.1027 145.811Z" fill="#003D99"/>
<path opacity="0.2" d="M36.1027 145.811H82.9798L77.2136 138.431C76.5793 137.621 75.0114 136.966 73.7065 136.966H31.5486C30.2489 136.966 29.7022 137.621 30.3365 138.431L36.1027 145.811Z" fill="#1D2B36"/>
<path d="M102.346 145.811H55.4744L61.2405 140.999C61.8749 140.483 63.4428 140.045 64.7477 140.045H106.9C108.205 140.045 108.747 140.473 108.112 140.999L102.346 145.811Z" fill="#003D99"/>
<path opacity="0.2" d="M55.4744 145.811H102.346V180.011C102.346 180.449 102.26 180.883 102.092 181.288C101.925 181.693 101.679 182.061 101.369 182.371C101.059 182.681 100.691 182.926 100.286 183.094C99.8815 183.262 99.4476 183.348 99.0094 183.348H58.8113C58.3731 183.348 57.9392 183.262 57.5343 183.094C57.1295 182.926 56.7616 182.681 56.4517 182.371C56.1419 182.061 55.8961 181.693 55.7284 181.288C55.5607 180.883 55.4744 180.449 55.4744 180.011V145.811Z" fill="white"/>
<path opacity="0.5" d="M41.9204 145.811V169.268L43.5399 167.989L44.6797 169.268L45.67 167.844L46.686 169.268L48.0992 168.2L49.6568 169.268V145.811H41.9204Z" fill="white"/>
<path d="M52.4064 94.6431L44.0769 87.6494" stroke="#748494" stroke-miterlimit="10"/>
<path d="M56.7231 98.2688L54.1855 96.1336" stroke="#748494" stroke-miterlimit="10"/>
<path d="M81.6748 112.906L109.154 78.5618L72.5665 47.8434L48.326 75.6581L44.7157 82.6157C44.5364 82.8132 44.3999 83.0456 44.3145 83.2982C44.2292 83.5509 44.1968 83.8185 44.2196 84.0843C44.2423 84.35 44.3197 84.6082 44.4467 84.8427C44.5738 85.0772 44.7479 85.283 44.9581 85.4472L77.9665 113.164C78.5032 113.596 79.1835 113.81 79.8712 113.762C80.5588 113.715 81.203 113.409 81.6748 112.906Z" fill="#748494"/>
<path opacity="0.5" d="M62.8299 87.5772L58.874 93.9468L60.4677 94.2924L61.0093 95.7674L62.0666 95.8293L62.5565 97.0929L63.8511 97.4694L64.8465 99.0528L68.8023 92.6832L62.8299 87.5772Z" fill="white"/>
<path opacity="0.1" d="M107.958 77.5561L83.3154 105.046L48.311 75.6581L72.5671 47.8434L107.958 77.5561Z" fill="#1D2B36"/>
<path d="M107.958 77.5561L83.3154 105.046L93.5171 105.799L117.778 77.9842L107.958 77.5561Z" fill="#748494"/>
<path opacity="0.3" d="M107.958 77.5561L83.3154 105.046L93.5171 105.799L117.778 77.9842L107.958 77.5561Z" fill="#1D2B36"/>
<path d="M62.7521 47.4101L38.1041 74.9051L48.3109 75.6581L72.567 47.8433L62.7521 47.4101Z" fill="#748494"/>
<path opacity="0.4" d="M62.7521 47.4101L38.1041 74.9051L48.3109 75.6581L72.567 47.8433L62.7521 47.4101Z" fill="#1D2B36"/>
<path opacity="0.1" d="M100.372 86.0197L107.959 77.5561L72.5674 47.8434L68.0391 58.7568L100.372 86.0197Z" fill="#1D2B36"/>
<path opacity="0.2" d="M48.311 75.6581L72.5671 47.8434L68.0387 58.7568L50.9569 77.881L48.311 75.6581Z" fill="#1D2B36"/>
<path d="M116.504 25.8C116.602 26.13 116.504 26.455 116.288 26.5169C116.071 26.5787 115.818 26.3621 115.72 26.032C115.622 25.702 115.72 25.377 115.937 25.31C116.153 25.2429 116.411 25.4699 116.504 25.8Z" fill="#405261"/>
<path d="M116.54 26.4498C116.443 27.5846 116.189 28.7006 115.787 29.7661C116.063 29.8618 116.356 29.8961 116.646 29.8667C116.937 29.8373 117.217 29.7449 117.468 29.5959L116.54 26.4498Z" fill="#CF8362"/>
<path d="M117.19 23.5977C117.234 23.5725 117.267 23.5321 117.283 23.4842C117.293 23.4592 117.297 23.4325 117.296 23.4057C117.295 23.3789 117.289 23.3526 117.277 23.3284C117.266 23.3043 117.249 23.2827 117.229 23.2652C117.209 23.2476 117.185 23.2344 117.159 23.2263C116.857 23.1105 116.532 23.0692 116.21 23.106C115.889 23.1428 115.581 23.2566 115.313 23.4378C115.278 23.4732 115.257 23.5199 115.254 23.5695C115.251 23.6191 115.266 23.6681 115.296 23.7077C115.326 23.7472 115.369 23.7745 115.418 23.7846C115.467 23.7947 115.517 23.7869 115.561 23.7627C115.775 23.6222 116.019 23.5348 116.274 23.5079C116.529 23.481 116.787 23.5153 117.025 23.608C117.052 23.6177 117.081 23.6219 117.109 23.6201C117.137 23.6183 117.165 23.6107 117.19 23.5977Z" fill="#405261"/>
<path d="M127.974 28.0074C128.201 30.7409 128.877 35.7437 130.491 36.899C130.491 36.899 130.11 40.1844 124.302 41.0251C117.938 41.9637 120.795 38.3122 120.795 38.3122C124.142 36.9712 123.673 34.4079 122.714 32.0767L125.169 29.2607C126.113 28.2188 127.851 26.6097 127.974 28.0074Z" fill="#DFA977"/>
<path d="M132.57 38.2348C133.086 37.7654 132.054 35.8881 131.42 35.6251C129.759 34.9288 122.966 35.6251 120.413 37.817C120.202 38.1797 120.074 38.5851 120.039 39.0037C120.004 39.4222 120.063 39.8432 120.212 40.2359L132.57 38.2348Z" fill="white"/>
<path d="M154.201 176.096C154.033 176.173 153.852 176.215 153.668 176.22C153.483 176.226 153.3 176.194 153.128 176.127C153.06 176.074 153.01 176 152.985 175.917C152.961 175.834 152.962 175.746 152.989 175.663C153.003 175.596 153.031 175.532 153.072 175.477C153.113 175.422 153.166 175.376 153.226 175.343C153.783 175.019 155.16 175.447 155.217 175.467C155.236 175.472 155.253 175.483 155.266 175.497C155.279 175.512 155.287 175.53 155.289 175.55C155.292 175.57 155.288 175.591 155.279 175.609C155.27 175.628 155.256 175.643 155.238 175.653C154.908 175.836 154.561 175.984 154.201 176.096ZM153.448 175.467L153.329 175.519C153.294 175.538 153.263 175.564 153.239 175.596C153.215 175.628 153.199 175.665 153.19 175.704C153.154 175.89 153.226 175.947 153.247 175.962C153.494 176.138 154.335 175.885 154.918 175.591C154.443 175.442 153.941 175.4 153.448 175.467Z" fill="#1265E5"/>
<path d="M155.217 175.658C155.2 175.663 155.182 175.663 155.165 175.658C154.65 175.555 153.572 174.91 153.515 174.425C153.507 174.349 153.526 174.272 153.568 174.208C153.61 174.144 153.674 174.097 153.747 174.075C153.818 174.043 153.896 174.026 153.974 174.026C154.052 174.026 154.129 174.043 154.201 174.075C154.799 174.322 155.263 175.478 155.279 175.524C155.289 175.539 155.294 175.557 155.294 175.576C155.294 175.594 155.289 175.612 155.279 175.627C155.272 175.637 155.262 175.645 155.252 175.65C155.241 175.655 155.229 175.658 155.217 175.658ZM153.876 174.25C153.861 174.246 153.845 174.246 153.83 174.25C153.711 174.302 153.716 174.364 153.721 174.389C153.752 174.678 154.485 175.199 155.005 175.39C154.851 175.055 154.49 174.405 154.124 174.25C154.044 174.22 153.956 174.22 153.876 174.25Z" fill="#1265E5"/>
<path d="M123.973 181.636C123.421 181.636 122.89 181.558 122.709 181.311C122.663 181.246 122.638 181.169 122.638 181.089C122.638 181.01 122.663 180.932 122.709 180.867C122.744 180.808 122.79 180.755 122.844 180.714C122.899 180.672 122.962 180.642 123.029 180.625C123.746 180.434 125.252 181.29 125.314 181.326C125.333 181.335 125.348 181.351 125.358 181.369C125.368 181.388 125.371 181.41 125.368 181.431C125.364 181.452 125.354 181.471 125.339 181.486C125.324 181.5 125.304 181.509 125.283 181.512C124.851 181.593 124.412 181.634 123.973 181.636ZM123.292 180.8C123.226 180.798 123.159 180.806 123.096 180.826C123.013 180.844 122.941 180.894 122.895 180.965C122.823 181.094 122.848 181.156 122.895 181.192C123.096 181.471 124.184 181.476 124.958 181.362C124.444 181.069 123.878 180.878 123.292 180.8Z" fill="#1265E5"/>
<path d="M125.272 181.517H125.231C124.715 181.285 123.683 180.352 123.761 179.867C123.761 179.753 123.864 179.609 124.142 179.583C124.243 179.572 124.345 179.582 124.442 179.612C124.539 179.642 124.628 179.692 124.705 179.758C125.257 180.207 125.37 181.368 125.375 181.414C125.378 181.432 125.376 181.45 125.368 181.467C125.361 181.483 125.349 181.497 125.334 181.507C125.315 181.517 125.293 181.521 125.272 181.517ZM124.24 179.774H124.179C123.993 179.774 123.983 179.867 123.977 179.887C123.931 180.181 124.632 180.919 125.159 181.233C125.114 180.741 124.915 180.276 124.591 179.903C124.495 179.817 124.369 179.771 124.24 179.774Z" fill="#1265E5"/>
<path d="M130.007 181.414H125.7L125.272 171.45H129.579L130.007 181.414Z" fill="#DFA977"/>
<path d="M160.256 174.611L156.289 175.978L152.174 166.586L156.14 165.219L160.256 174.611Z" fill="#DFA977"/>
<path d="M155.346 174.993L159.988 173.574C160.07 173.549 160.158 173.553 160.238 173.585C160.317 173.617 160.384 173.675 160.426 173.75L162.36 177.154C162.407 177.237 162.434 177.33 162.439 177.425C162.445 177.52 162.429 177.615 162.393 177.704C162.357 177.792 162.301 177.871 162.23 177.934C162.16 177.998 162.075 178.045 161.984 178.072C160.359 178.541 159.549 178.686 157.517 179.31C156.264 179.691 153.107 180.888 151.328 181.244C149.549 181.6 148.976 179.898 149.667 179.593C152.762 178.227 154.031 176.674 154.768 175.467C154.897 175.244 155.102 175.076 155.346 174.993Z" fill="#405261"/>
<path d="M125.731 180.914H130.43C130.515 180.915 130.597 180.944 130.663 180.998C130.73 181.051 130.776 181.125 130.796 181.208L131.647 185.035C131.668 185.127 131.668 185.223 131.646 185.315C131.625 185.407 131.583 185.493 131.523 185.567C131.463 185.64 131.388 185.699 131.302 185.739C131.216 185.779 131.122 185.799 131.028 185.798C129.331 185.772 126.902 185.669 124.751 185.669C122.26 185.669 121.213 185.808 118.289 185.808C116.525 185.808 116.035 184.024 116.772 183.859C120.14 183.121 121.785 183.044 124.694 181.249C125.003 181.045 125.361 180.929 125.731 180.914Z" fill="#405261"/>
<path d="M138.238 39.6428C139.492 40.793 140.575 41.9431 141.699 43.1448C142.824 44.3465 143.865 45.5895 144.876 46.915C145.932 48.2616 146.89 49.6818 147.744 51.1648C148.21 51.9822 148.614 52.834 148.951 53.7127C149.038 53.9551 149.126 54.1872 149.198 54.4502C149.283 54.7162 149.353 54.9865 149.41 55.2599L149.497 55.688L149.559 56.1625C149.617 56.5973 149.617 57.0378 149.559 57.4725C149.441 58.2932 149.138 59.0762 148.672 59.7625C148.333 60.2636 147.934 60.7225 147.486 61.1292C146.765 61.7833 145.977 62.359 145.134 62.8467C143.65 63.6957 142.097 64.4185 140.492 65.0077C137.448 66.1379 134.31 67.0008 131.116 67.5865L130.213 64.492C133.014 63.2799 135.85 61.9699 138.465 60.5722C139.738 59.9045 140.963 59.1497 142.132 58.3132C142.619 57.9673 143.067 57.5696 143.468 57.127C143.59 56.9961 143.693 56.8485 143.772 56.6886C143.814 56.6009 143.772 56.6112 143.721 56.7969C143.685 57.1424 143.69 56.8742 143.607 56.6886C143.582 56.6009 143.535 56.4823 143.489 56.3688C143.442 56.2553 143.386 56.1264 143.329 56.0026C143.05 55.4401 142.738 54.8942 142.395 54.3677C141.599 53.185 140.738 52.0469 139.817 50.9585C138.868 49.8342 137.867 48.715 136.841 47.6164C135.814 46.5179 134.736 45.409 133.746 44.3878L138.238 39.6428Z" fill="#DFA977"/>
<path d="M131.394 64.002L127.335 65.2295L129.944 69.5206C129.944 69.5206 132.343 68.5303 132.874 66.4931L131.394 64.002Z" fill="#DFA977"/>
<path d="M125.695 66.751L127.294 70.2891L129.919 69.5258L127.31 65.2296L125.695 66.751Z" fill="#DFA977"/>
<path d="M128.727 40.8084C128.341 44.9345 137.067 51.3195 137.067 51.3195L145.469 45.5689C144.01 42.8781 141.877 40.6122 139.28 38.993C134.463 35.9088 129.212 35.6818 128.727 40.8084Z" fill="#1265E5"/>
<g opacity="0.3">
<path opacity="0.3" d="M128.727 40.8084C128.341 44.9345 137.067 51.3195 137.067 51.3195L145.469 45.5689C144.01 42.8781 141.877 40.6122 139.28 38.993C134.463 35.9088 129.212 35.6818 128.727 40.8084Z" fill="white"/>
</g>
<path d="M114.442 40.4784C114.442 40.4784 110.671 46.2651 119.625 77.3033L142.39 73.9406C142.071 70.7945 138.264 57.0702 138.135 42.0669C138.13 41.3423 137.978 40.6264 137.689 39.9622C137.399 39.298 136.978 38.6994 136.451 38.2025C135.923 37.7056 135.301 37.3206 134.621 37.0709C133.94 36.8211 133.217 36.7118 132.493 36.7494C131.833 36.7855 131.152 36.8319 130.477 36.899C127.227 37.1888 123.996 37.6658 120.801 38.3276C118.629 38.8802 116.503 39.5993 114.442 40.4784Z" fill="#1265E5"/>
<g opacity="0.3">
<path opacity="0.3" d="M114.442 40.4784C114.442 40.4784 110.671 46.2651 119.625 77.3033L142.39 73.9406C142.071 70.7945 138.264 57.0702 138.135 42.0669C138.13 41.3423 137.978 40.6264 137.689 39.9622C137.399 39.298 136.978 38.6994 136.451 38.2025C135.923 37.7056 135.301 37.3206 134.621 37.0709C133.94 36.8211 133.217 36.7118 132.493 36.7494C131.833 36.7855 131.152 36.8319 130.477 36.899C127.227 37.1888 123.996 37.6658 120.801 38.3276C118.629 38.8802 116.503 39.5993 114.442 40.4784Z" fill="white"/>
</g>
<path opacity="0.2" d="M113.884 50.4531L113.962 50.3654L119.315 50.8399C120.13 54.2955 117.149 59.0095 115.576 61.1963C114.819 57.6484 114.254 54.0621 113.884 50.4531Z" fill="#1D2B36"/>
<path opacity="0.2" d="M125.272 171.455L125.494 176.592H129.801L129.579 171.455H125.272Z" fill="#1D2B36"/>
<path opacity="0.2" d="M156.14 165.219L152.174 166.586L154.299 171.429L158.265 170.062L156.14 165.219Z" fill="#1D2B36"/>
<path d="M127.413 21.8389C128.362 26.0011 129.125 28.389 127.676 31.1225C125.499 35.1918 119.898 34.7999 117.727 31.0039C115.772 27.5844 114.544 21.3541 118.072 18.5484C118.845 17.9277 119.764 17.5144 120.741 17.3478C121.719 17.1811 122.722 17.2665 123.658 17.596C124.593 17.9254 125.428 18.488 126.085 19.2304C126.742 19.9729 127.199 20.8707 127.413 21.8389Z" fill="#DFA977"/>
<path d="M119.052 25.9186L117.469 26.8882L117.618 21.4727C116.597 21.5166 115.59 21.2249 114.751 20.6424C115.323 20.0957 124.235 16.9753 127.015 17.5169C127.304 17.3983 127.655 16.8619 127.655 16.8619C127.655 16.8619 127.763 17.5375 127.294 17.7954C127.634 17.7284 128.485 17.8934 128.722 18.3937C128.332 18.287 127.917 18.3106 127.541 18.4607C127.541 18.4607 130.636 18.9301 129.537 23.2212C128.305 27.9506 128.712 30.6687 128.712 30.6687C128.712 30.6687 126.412 32.448 124.411 32.118C122.275 29.7661 119.191 26.9398 119.052 25.9186Z" fill="#1D2B36"/>
<path d="M116.02 20.2143C113.508 20.2143 112.605 18.9868 111.961 17.9553C113.766 17.7645 117.526 16.604 120.316 16.408C123.106 16.212 126.165 16.7329 125.241 17.9553C124.318 19.1776 116.02 20.2143 116.02 20.2143Z" fill="#1D2B36"/>
<path d="M116.572 19.0951C114.509 18.8063 112.497 16.8619 114.044 15C114.617 16.3668 118.48 16.2069 121.224 15.6344C124.834 14.8814 127.335 16.0986 126.056 18.5587C125.355 19.9048 116.572 19.0951 116.572 19.0951Z" fill="#1D2B36"/>
<path d="M121.281 24.6859C121.576 25.7043 121.529 26.7914 121.146 27.7804C120.631 29.075 119.486 28.8119 118.887 27.6928C118.372 26.6612 117.98 24.789 118.856 23.8555C119.733 22.922 120.909 23.4635 121.281 24.6859Z" fill="#DFA977"/>
<path d="M127.702 76.112C127.702 76.112 131.394 107.547 134.076 119.864C137.011 133.356 151.488 170.139 151.488 170.139L158.709 167.643C158.709 167.643 149.425 139.947 146.96 121.086C145.067 106.603 142.37 73.9406 142.37 73.9406L127.702 76.112Z" fill="#405261"/>
<path d="M149.641 167.829C149.605 167.829 151.122 170.923 151.122 170.923L159.554 168.185L158.564 165.668L149.641 167.829Z" fill="#1265E5"/>
<path opacity="0.3" d="M129.739 92.2396C130.894 100.977 132.374 111.323 133.674 117.929C135.587 107.805 136.036 95.0196 129.739 92.2396Z" fill="#1D2B36"/>
<path d="M119.624 77.3034C119.624 77.3034 116.561 106.836 117.046 119.956C117.53 133.603 123.905 175.596 123.905 175.596H131.193C131.193 175.596 129.852 134.398 130.161 120.998C130.517 106.387 135.995 74.8845 135.995 74.8845L119.624 77.3034Z" fill="#405261"/>
<path d="M122.487 172.692C122.456 172.692 122.899 175.715 122.899 175.715H131.765L132.008 173.017L122.487 172.692Z" fill="#1265E5"/>
<path d="M118.212 47.7299C117.407 49.0089 116.592 50.1591 115.746 51.3402C114.9 52.5212 114.013 53.6611 113.111 54.7957C111.271 57.0975 109.277 59.2721 107.143 61.3046C106.566 61.8203 106.035 62.3361 105.41 62.8054L104.957 63.1716L104.73 63.3521C104.647 63.4192 104.611 63.4553 104.441 63.5791C103.93 63.9435 103.369 64.2319 102.775 64.4352C101.855 64.7492 100.894 64.9231 99.9228 64.951C99.1012 64.9785 98.2787 64.9423 97.4626 64.8427C94.4796 64.4515 91.5694 63.628 88.8237 62.398L89.716 59.3034C92.3548 59.6165 95.0123 59.744 97.6689 59.6851C98.2566 59.6543 98.842 59.5906 99.4225 59.4943C99.86 59.4303 100.285 59.2981 100.681 59.1023C100.805 59.0352 100.872 58.9682 100.856 58.9527C100.841 58.9372 100.923 58.8857 100.97 58.8393L101.145 58.6794L101.491 58.3544C101.955 57.9418 102.393 57.4416 102.847 56.9877C103.739 56.0284 104.627 55.0433 105.467 53.9963C106.308 52.9493 107.159 51.8972 107.984 50.8141C108.809 49.731 109.609 48.6324 110.413 47.5339C111.218 46.4353 112.002 45.28 112.745 44.2124L118.212 47.7299Z" fill="#DFA977"/>
<path d="M121.208 46.3631C122.941 52.0365 112.878 58.3235 112.878 58.3235L106.339 49.9941C107.813 47.2476 109.633 44.7014 111.754 42.4176C116.205 37.5747 119.887 42.0463 121.208 46.3631Z" fill="#1265E5"/>
<g opacity="0.3">
<path opacity="0.3" d="M121.208 46.3631C122.941 52.0365 112.878 58.3235 112.878 58.3235L106.339 49.9941C107.813 47.2476 109.633 44.7014 111.754 42.4176C116.205 37.5747 119.887 42.0463 121.208 46.3631Z" fill="white"/>
</g>
<path d="M91.2322 59.4943L85.9354 58.5247L86.4924 63.1046C86.4924 63.1046 89.2466 64.6519 91.2426 62.233L91.2322 59.4943Z" fill="#DFA977"/>
<path d="M83.8928 59.5562L85.0378 62.8622L86.4819 63.1046L85.9249 58.5247L83.8928 59.5562Z" fill="#DFA977"/>
</svg>
