<svg width="200" height="200" viewBox="0 0 200 200" fill="none" xmlns="http://www.w3.org/2000/svg">
<path d="M168.193 59.2053C144.417 33.7088 84.9605 12.6178 50.9619 23.0655C18.985 32.9059 -1.12951 72.2417 22.7603 98.5668C50.2708 128.875 97.6636 141.402 136.577 136.081C172.087 131.222 197.086 90.1881 168.193 59.2053Z" fill="#1265E5"/>
<path opacity="0.9" d="M168.193 59.2053C144.417 33.7088 84.9605 12.6178 50.9619 23.0655C18.985 32.9059 -1.12951 72.2417 22.7603 98.5668C50.2708 128.875 97.6636 141.402 136.577 136.081C172.087 131.222 197.086 90.1881 168.193 59.2053Z" fill="white"/>
<path d="M100 180.486C155.228 180.486 200 177.878 200 174.66C200 171.442 155.228 168.834 100 168.834C44.7715 168.834 0 171.442 0 174.66C0 177.878 44.7715 180.486 100 180.486Z" fill="#F1F3F5"/>
<g opacity="0.8">
<path d="M157.11 170.352L124.261 109.766L91.4126 170.352H157.11Z" fill="#DBE9FF"/>
<path d="M157.11 67.8567L124.261 128.438L91.4126 67.8567H157.11Z" fill="#DBE9FF"/>
</g>
<path d="M130.28 103.626L125.473 112.488C125.355 112.707 125.18 112.889 124.967 113.016C124.754 113.143 124.51 113.21 124.261 113.21C124.013 113.21 123.769 113.143 123.555 113.016C123.342 112.889 123.167 112.707 123.049 112.488L118.242 103.626C117.809 102.825 117.592 101.925 117.611 101.015C117.631 100.105 117.888 99.2156 118.356 98.4342C118.824 97.6528 119.487 97.0061 120.281 96.5575C121.075 96.1089 121.972 95.8737 122.884 95.8751H125.664C126.574 95.8782 127.468 96.1165 128.258 96.567C129.048 97.0174 129.708 97.6646 130.173 98.4452C130.638 99.2259 130.892 100.114 130.911 101.022C130.93 101.929 130.712 102.827 130.28 103.626Z" fill="#1265E5"/>
<path d="M124.782 155.056L139.713 161.181C140.005 161.303 140.245 161.522 140.393 161.801C140.542 162.079 140.59 162.4 140.53 162.71C140.469 163.02 140.304 163.299 140.061 163.502C139.819 163.704 139.514 163.817 139.197 163.821H109.351C109.034 163.817 108.729 163.704 108.487 163.502C108.244 163.299 108.079 163.02 108.018 162.71C107.958 162.4 108.006 162.079 108.155 161.801C108.303 161.522 108.544 161.303 108.835 161.181L123.725 155.056C123.892 154.986 124.072 154.95 124.253 154.95C124.435 154.95 124.615 154.986 124.782 155.056Z" fill="#1265E5"/>
<path d="M124.261 143.404C125.318 143.404 126.175 142.55 126.175 141.495C126.175 140.44 125.318 139.586 124.261 139.586C123.204 139.586 122.348 140.44 122.348 141.495C122.348 142.55 123.204 143.404 124.261 143.404Z" fill="#1265E5"/>
<path d="M124.261 122.535C124.805 122.535 125.246 122.095 125.246 121.552C125.246 121.009 124.805 120.569 124.261 120.569C123.717 120.569 123.276 121.009 123.276 121.552C123.276 122.095 123.717 122.535 124.261 122.535Z" fill="#1265E5"/>
<path d="M124.261 132.174C124.879 132.174 125.38 131.674 125.38 131.058C125.38 130.441 124.879 129.941 124.261 129.941C123.643 129.941 123.142 130.441 123.142 131.058C123.142 131.674 123.643 132.174 124.261 132.174Z" fill="#1265E5"/>
<path d="M156.945 167.362H91.5777C90.7843 167.365 90.0242 167.681 89.4637 168.241C88.9031 168.801 88.5877 169.56 88.5863 170.352C88.589 171.143 88.9051 171.901 89.4655 172.46C90.0259 173.019 90.7852 173.335 91.5777 173.337H156.945C157.737 173.335 158.496 173.019 159.057 172.46C159.617 171.901 159.933 171.143 159.936 170.352C159.935 169.56 159.619 168.801 159.059 168.241C158.498 167.681 157.738 167.365 156.945 167.362Z" fill="#003D99"/>
<path d="M156.945 64.8717H91.5777C90.7852 64.8744 90.0259 65.1898 89.4655 65.749C88.9051 66.3082 88.589 67.0659 88.5863 67.8567C88.589 68.6476 88.9051 69.4053 89.4655 69.9645C90.0259 70.5237 90.7852 70.8391 91.5777 70.8418H156.945C157.737 70.8391 158.496 70.5237 159.057 69.9645C159.617 69.4053 159.933 68.6476 159.936 67.8567C159.933 67.0659 159.617 66.3082 159.057 65.749C158.496 65.1898 157.737 64.8744 156.945 64.8717Z" fill="#003D99"/>
<path d="M71.4426 169.225L67.8065 168.047L70.0655 159.488L73.7016 160.666L71.4426 169.225Z" fill="#DFA977"/>
<path d="M67.7497 167.563L71.8345 168.885C71.9034 168.906 71.9618 168.952 71.9973 169.014C72.0329 169.077 72.0429 169.15 72.0253 169.22L71.1743 172.514C71.1198 172.683 71.0003 172.825 70.8418 172.907C70.6833 172.989 70.4988 173.005 70.3285 172.951C68.9153 172.467 68.2655 172.164 66.4655 171.582C65.3566 171.222 61.7153 170.285 60.1887 169.791C58.6621 169.297 59.1933 167.805 59.8844 167.877C62.979 168.201 65.764 168.057 67.0534 167.583C67.2768 167.5 67.5217 167.493 67.7497 167.563Z" fill="#405261"/>
<path opacity="0.2" d="M73.7016 160.671L70.0655 159.488L68.8999 163.903L72.5411 165.082L73.7016 160.671Z" fill="#1D2B36"/>
<path d="M83.6402 74.0327C83.6402 74.0327 77.1159 104.166 75.5841 115C73.9079 126.863 67.6105 162.488 67.6105 162.488L74.3617 164.351C74.3617 164.351 83.7175 129.802 86.4511 118.268C89.4167 105.746 97.2819 74.007 97.2819 74.007L83.6402 74.0327Z" fill="#1265E5"/>
<path opacity="0.3" d="M91.7067 83.9143C89.1279 89.7506 87.854 102.442 88.8545 108.284C90.6803 100.795 92.8774 91.8916 94.5743 85.0414C94.0018 83.0548 93.0528 80.8675 91.7067 83.9143Z" fill="#1D2B36"/>
<path d="M74.5319 164.485L67.301 162.498L67.4454 159.56L75.5841 162.365L74.5319 164.485Z" fill="#405261"/>
<path d="M66.2541 167.779C66.5904 167.877 66.9362 167.939 67.2856 167.964C67.3029 167.965 67.3201 167.961 67.3353 167.953C67.3505 167.945 67.3631 167.933 67.3717 167.918C67.3802 167.903 67.3845 167.886 67.3838 167.868C67.3832 167.851 67.3778 167.834 67.3681 167.82C67.2753 167.702 66.4759 166.667 65.9756 166.698C65.918 166.701 65.8621 166.719 65.8133 166.749C65.7646 166.78 65.7245 166.823 65.6971 166.873C65.6454 166.948 65.6144 167.035 65.6071 167.125C65.5999 167.215 65.6167 167.306 65.6558 167.388C65.8021 167.585 66.0143 167.724 66.2541 167.779ZM67.0742 167.779C66.3831 167.697 65.9085 167.522 65.7951 167.3C65.7713 167.248 65.7621 167.19 65.7685 167.133C65.7748 167.076 65.7965 167.022 65.8312 166.976C65.8443 166.951 65.8634 166.93 65.8869 166.915C65.9103 166.9 65.9373 166.891 65.9653 166.889C66.2335 166.858 66.7389 167.362 67.0742 167.763V167.779Z" fill="#405261"/>
<path d="M67.2494 167.959H67.2907C67.3057 167.956 67.3197 167.949 67.3314 167.939C67.3431 167.929 67.3521 167.917 67.3578 167.902C67.3578 167.861 67.7961 166.842 67.5434 166.358C67.512 166.298 67.4667 166.245 67.4112 166.205C67.3556 166.164 67.2914 166.138 67.2236 166.127C67.1504 166.105 67.0719 166.108 67.0008 166.136C66.9297 166.164 66.8701 166.215 66.8317 166.281C66.6202 166.652 66.9142 167.583 67.2082 167.918L67.2494 167.959ZM67.2494 166.328C67.284 166.338 67.316 166.355 67.3436 166.378C67.3711 166.401 67.3935 166.429 67.4093 166.461C67.4957 166.876 67.4469 167.307 67.2701 167.691C67.0203 167.306 66.9263 166.841 67.007 166.389C67.007 166.343 67.0792 166.292 67.2082 166.317L67.2494 166.328Z" fill="#405261"/>
<path d="M90.5822 45.4225C90.3862 45.8857 90.2212 46.2357 90.0407 46.6268C89.8602 47.018 89.6642 47.3782 89.4734 47.7488C89.0917 48.4951 88.6894 49.2207 88.2716 49.9464C87.4277 51.4036 86.4977 52.8094 85.4866 54.1564C84.4516 55.5493 83.3045 56.8557 82.0568 58.0627C80.7275 59.3684 79.2204 60.4807 77.58 61.3668L77.4511 61.4337C77.2424 61.5413 77.0205 61.6209 76.7909 61.6705C75.6162 61.9143 74.3995 61.8666 73.2477 61.5315C72.2906 61.2457 71.3803 60.8227 70.5451 60.2758C69.144 59.3356 67.8863 58.1985 66.811 56.8995C65.812 55.715 64.9035 54.4574 64.093 53.1373C63.2926 51.8401 62.5809 50.4903 61.9629 49.0972C61.8038 48.7288 61.7831 48.3154 61.9046 47.933C62.0262 47.5505 62.2818 47.2247 62.6247 47.0151C62.9676 46.8056 63.3747 46.7264 63.7713 46.7922C64.168 46.8579 64.5275 47.0642 64.7841 47.3731L64.8357 47.4349C65.6867 48.4642 66.6099 49.5604 67.5382 50.5589C68.4429 51.553 69.4037 52.4947 70.4162 53.3792C71.311 54.1886 72.3059 54.8804 73.3766 55.4379C73.7769 55.6433 74.2066 55.7857 74.6505 55.8599C74.8992 55.906 75.1556 55.8847 75.3932 55.7982L74.6041 56.1018C75.67 55.3847 76.642 54.5375 77.4975 53.58C78.4288 52.5362 79.2902 51.4324 80.0763 50.2758C80.8912 49.0921 81.6648 47.8517 82.392 46.5754C82.7634 45.9423 83.1192 45.299 83.4545 44.6454L83.9702 43.6727C84.1301 43.3587 84.3055 42.9984 84.4293 42.7463L84.4602 42.6742C84.8362 41.8825 85.5084 41.2695 86.3325 40.967C87.1565 40.6646 88.0665 40.6968 88.867 41.0568C89.6675 41.4167 90.2945 42.0757 90.6133 42.8921C90.9321 43.7084 90.9173 44.617 90.5719 45.4225H90.5822Z" fill="#405261"/>
<path opacity="0.3" d="M82.1497 52.4117C83.7691 48.1194 87.2092 48.0473 88.6998 49.1847C88.5914 49.3854 88.478 49.5862 88.3645 49.7869C87.5555 51.192 86.6687 52.5511 85.7084 53.8579C84.7228 55.2024 83.6384 56.472 82.4643 57.6561C82.0929 58.0215 81.7113 58.3818 81.3141 58.7318C81.1775 56.5909 81.4613 54.444 82.1497 52.4117Z" fill="#1D2B36"/>
<path d="M61.834 49.3649L58.4816 49.4884L59.3171 45.9115C60.4713 45.9686 61.6168 46.141 62.7366 46.4261C62.9404 46.4877 63.1269 46.5964 63.2809 46.7433C63.4348 46.8902 63.552 47.0712 63.6228 47.2716C63.6936 47.4721 63.7161 47.6864 63.6885 47.8972C63.6608 48.1079 63.5839 48.3092 63.4638 48.4848C63.2824 48.7508 63.0398 48.9696 62.7562 49.1227C62.4726 49.2758 62.1564 49.3589 61.834 49.3649Z" fill="#DFA977"/>
<path d="M63.7113 46.3438C63.3823 46.0834 63.0057 45.8894 62.6025 45.7725C62.3239 47.2342 60.5394 49.6994 60.5394 49.6994H61.9371C62.117 49.6999 62.2947 49.661 62.4578 49.5854C62.6209 49.5098 62.7654 49.3994 62.881 49.2619L63.8609 48.0885C63.9682 47.9652 64.0497 47.8217 64.1004 47.6664C64.1511 47.5111 64.17 47.3473 64.1561 47.1846C64.1421 47.0218 64.0955 46.8636 64.0192 46.7192C63.9428 46.5747 63.8381 46.4471 63.7113 46.3438Z" fill="#1265E5"/>
<path d="M55.9132 47.8415L56.8519 45.3196L59.3069 45.9166L58.4714 49.4884L55.9132 47.8415Z" fill="#DFA977"/>
<path d="M98.0659 170.893H94.2442L94.1101 162.056H97.9319L98.0659 170.893Z" fill="#DFA977"/>
<path d="M94.0431 170.45H98.3393C98.3752 170.449 98.4111 170.454 98.4448 170.467C98.4785 170.479 98.5094 170.498 98.5357 170.523C98.5621 170.547 98.5833 170.576 98.5983 170.609C98.6133 170.641 98.6217 170.677 98.623 170.713L98.8293 174.104C98.8293 174.283 98.759 174.454 98.6336 174.581C98.5081 174.708 98.3376 174.781 98.1588 174.783C96.6631 174.758 95.9514 174.67 94.0328 174.67C92.8723 174.67 88.9887 174.789 87.3847 174.789C85.7807 174.789 85.8374 173.203 86.5027 173.059C89.556 172.421 92.2792 171.515 93.3571 170.687C93.5511 170.53 93.7937 170.447 94.0431 170.45Z" fill="#405261"/>
<path opacity="0.2" d="M97.937 162.061H94.1101L94.1823 166.616H98.0041L97.937 162.061Z" fill="#1D2B36"/>
<path d="M91.098 74.0327C91.098 74.0327 89.6384 107.182 90.2573 118.109C90.9381 130.069 92.3616 165.514 92.3616 165.514H99.3656C99.3656 165.514 101.129 131.032 101.552 119.195C102.011 106.328 104.09 74.0327 104.09 74.0327H91.098Z" fill="#1265E5"/>
<path d="M99.6493 165.514H92.0831L91.5055 162.704L99.8556 163.121L99.6493 165.514Z" fill="#405261"/>
<path d="M92.6866 171.114C93.0341 171.105 93.3798 171.06 93.7181 170.98C93.7344 170.975 93.7491 170.965 93.7608 170.953C93.7725 170.94 93.7809 170.925 93.7851 170.908C93.787 170.892 93.7847 170.875 93.7784 170.86C93.7721 170.844 93.762 170.831 93.749 170.821C93.6252 170.733 92.5422 169.997 92.0728 170.182C92.0207 170.203 91.9745 170.237 91.9385 170.28C91.9025 170.323 91.8778 170.374 91.8665 170.429C91.843 170.513 91.841 170.601 91.8609 170.686C91.8807 170.77 91.9217 170.849 91.98 170.913C92.1828 171.064 92.4343 171.136 92.6866 171.114ZM93.4602 170.851C92.7742 170.985 92.274 170.965 92.0934 170.79C92.0564 170.746 92.0312 170.694 92.0203 170.638C92.0095 170.582 92.0133 170.525 92.0316 170.471C92.0353 170.443 92.0463 170.417 92.0636 170.395C92.0808 170.374 92.1036 170.357 92.1295 170.347C92.3823 170.249 93.0167 170.568 93.4602 170.851Z" fill="#405261"/>
<path d="M93.6872 170.98C93.7006 170.984 93.715 170.984 93.7284 170.98C93.7414 170.973 93.7524 170.962 93.7605 170.95C93.7685 170.937 93.7735 170.923 93.7748 170.908C93.7748 170.862 93.8625 169.766 93.4757 169.395C93.4266 169.347 93.3671 169.311 93.3019 169.289C93.2366 169.268 93.1672 169.262 93.0992 169.271C93.0237 169.274 92.9513 169.302 92.8934 169.351C92.8355 169.399 92.7954 169.465 92.7794 169.539C92.6866 169.956 93.2591 170.754 93.6407 170.98C93.6558 170.985 93.672 170.985 93.6872 170.98ZM93.1714 169.436C93.2068 169.435 93.242 169.442 93.2749 169.455C93.3077 169.468 93.3374 169.488 93.3622 169.513C93.5753 169.881 93.6639 170.307 93.6149 170.728C93.2849 170.445 92.9032 169.838 92.96 169.565C92.96 169.513 93.0012 169.452 93.1301 169.436H93.1714Z" fill="#405261"/>
<path d="M106.003 43.2661C106.061 42.9443 106.052 42.6144 105.979 42.2959C105.905 41.9775 105.768 41.6772 105.575 41.4129C105.383 41.1486 105.139 40.9258 104.858 40.7579C104.577 40.5899 104.265 40.4803 103.94 40.4354H103.899C102.666 40.2553 101.119 40.07 99.6028 39.998C96.7084 39.8332 93.8068 39.8332 90.9123 39.998C89.5765 40.1215 88.2717 40.3428 87.2298 40.5435H87.1886C86.5372 40.6748 85.9341 40.9809 85.4443 41.4289C84.9544 41.877 84.5963 42.4499 84.4086 43.086C83.1605 47.2805 81.67 55.8445 83.6195 74.0276H104.069C104.214 72.2057 103.806 66.2768 104.105 58.7266C104.404 53.5378 105.038 48.3735 106.003 43.2661Z" fill="#405261"/>
<path opacity="0.3" d="M105.807 44.388C105.385 46.8276 104.864 50.1471 104.503 53.652C104.503 53.652 102.636 49.9979 102.295 46.8739C101.955 43.7499 104.642 43.5131 105.807 44.388Z" fill="#1D2B36"/>
<g opacity="0.2">
<path opacity="0.2" d="M92.0935 44.8718C92.051 44.8699 92.0104 44.8542 91.9777 44.8272C91.9449 44.8001 91.9219 44.7632 91.912 44.722C91.9021 44.6808 91.9059 44.6375 91.9228 44.5986C91.9397 44.5597 91.9689 44.5274 92.0058 44.5064L98.3805 41.2074C98.4259 41.1854 98.478 41.1817 98.526 41.197C98.5741 41.2124 98.6143 41.2456 98.6384 41.2898C98.6621 41.3356 98.6667 41.3888 98.6512 41.4379C98.6358 41.4871 98.6015 41.5282 98.5559 41.5522L92.1812 44.841C92.1542 44.8568 92.1244 44.8673 92.0935 44.8718Z" fill="white"/>
<path opacity="0.2" d="M95.0126 45.1703C94.9875 45.1714 94.9624 45.1669 94.9392 45.1571C94.916 45.1473 94.8953 45.1325 94.8785 45.1137L91.3817 41.65C91.3473 41.6129 91.3281 41.5642 91.3281 41.5136C91.3281 41.4631 91.3473 41.4144 91.3817 41.3773C91.4183 41.3417 91.4673 41.3219 91.5184 41.3219C91.5694 41.3219 91.6185 41.3417 91.655 41.3773L95.1467 44.8461C95.1823 44.8826 95.2022 44.9315 95.2022 44.9825C95.2022 45.0334 95.1823 45.0824 95.1467 45.1189C95.1289 45.1359 95.1079 45.1492 95.0849 45.1581C95.0618 45.1669 95.0373 45.1711 95.0126 45.1703Z" fill="white"/>
<path opacity="0.2" d="M99.6184 39.9928C96.7256 39.828 93.8258 39.828 90.9331 39.9928H90.7887C90.7184 40.2577 90.7018 40.5338 90.7399 40.8051C90.778 41.0764 90.87 41.3374 91.0104 41.5728C91.4952 42.3448 92.5113 42.7771 94.0379 42.8595H94.6104C98.7365 42.8595 100.33 40.3582 100.397 40.2501L100.542 40.0185L99.6184 39.9928Z" fill="white"/>
</g>
<path d="M91.3456 39.9619C93.8728 39.3649 94.3163 37.8055 94.1461 36.0917C94.106 35.6624 94.0389 35.2361 93.945 34.8153L97.1117 32.1905L99.4378 30.2657C98.7931 33.0603 98.0659 38.1503 99.9535 40.0134C99.9535 40.0134 98.4063 42.5867 94.0584 42.3603C90.4121 42.1596 91.3456 39.9619 91.3456 39.9619Z" fill="#DFA977"/>
<path opacity="0.2" d="M93.9451 34.8153C94.0389 35.2361 94.1061 35.6624 94.1462 36.0917C95.3273 35.8549 96.9055 34.5991 97.0706 33.3948C97.1286 32.9961 97.1424 32.5922 97.1118 32.1905L93.9451 34.8153Z" fill="#1D2B36"/>
<path d="M92.2636 21.4237C90.5462 22.4531 90.8195 25.0264 90.3553 26.8689C91.4487 26.977 93.1714 25.0367 93.1714 25.0367L94.2029 22.0876L92.2636 21.4237Z" fill="#1D2B36"/>
<path d="M101.398 26.6012C100.299 30.2348 99.8504 32.4118 97.5192 33.9301C96.7695 34.4304 95.897 34.7166 94.996 34.7578C94.0951 34.7989 93.2 34.5935 92.4076 34.1637C91.6152 33.7339 90.9556 33.0961 90.5003 32.3192C90.0449 31.5423 89.8111 30.656 89.8241 29.7561C89.8241 26.2924 91.6086 20.9296 95.5903 20.1885C96.4485 20.0055 97.3398 20.051 98.1748 20.3204C99.0099 20.5898 99.7592 21.0736 100.348 21.7233C100.936 22.3731 101.343 23.1658 101.527 24.022C101.711 24.8782 101.667 25.7677 101.398 26.6012Z" fill="#DFA977"/>
<path d="M97.968 29.6841C100.547 26.699 97.3233 25.2271 99.9588 23.153C96.9932 23.292 92.109 23.0809 91.2373 21.0532C90.3657 19.0254 93.0477 16.2771 95.2809 16.0197C97.8597 15.7212 97.3026 18.907 97.3026 18.907C97.3026 18.907 107.169 18.2946 104.038 22.5097C106.411 22.3656 105.756 26.1947 101.63 29.4268C100.593 29.7716 97.968 29.6841 97.968 29.6841Z" fill="#1D2B36"/>
<path d="M103.445 22.5611C103.445 22.5611 105.477 21.959 105.41 20.3532C106.143 20.8576 106.22 22.3913 103.445 22.5611Z" fill="#405261"/>
<path d="M102.001 30.3943C101.408 31.126 100.578 31.6298 99.6544 31.8199C98.4837 32.031 98.2103 30.9502 98.7931 29.8951C99.3089 28.9481 100.562 27.6975 101.614 27.96C102.666 28.2224 102.749 29.4731 102.001 30.3943Z" fill="#DFA977"/>
<path d="M95.5233 26.5086C95.4511 26.8071 95.2345 27.0233 95.0333 26.9769C94.8322 26.9306 94.7342 26.663 94.8064 26.3645C94.8786 26.066 95.0952 25.8498 95.2912 25.891C95.4872 25.9322 95.5955 26.205 95.5233 26.5086Z" fill="#1D2B36"/>
<path d="M92.1038 25.8241C92.0315 26.1226 91.8149 26.3388 91.6189 26.2976C91.423 26.2564 91.3146 25.9837 91.3868 25.6851C91.4591 25.3866 91.6757 25.1705 91.8717 25.2117C92.0677 25.2528 92.176 25.5256 92.1038 25.8241Z" fill="#1D2B36"/>
<path d="M93.1559 26.1895C92.5738 27.0368 91.8798 27.802 91.0929 28.4643C91.2682 28.653 91.4828 28.8009 91.7216 28.8979C91.9604 28.9948 92.2176 29.0383 92.4751 29.0253L93.1559 26.1895Z" fill="#CF8362"/>
<path d="M93.5272 30.0752C93.8843 30.1087 94.2444 30.0694 94.5858 29.9597C94.9271 29.85 95.2425 29.6722 95.5129 29.4371C95.5217 29.4293 95.5287 29.4198 95.5335 29.4092C95.5383 29.3985 95.5408 29.387 95.5408 29.3753C95.5408 29.3636 95.5383 29.3521 95.5335 29.3414C95.5287 29.3308 95.5217 29.3213 95.5129 29.3135C95.4956 29.2969 95.4725 29.2876 95.4484 29.2876C95.4244 29.2876 95.4013 29.2969 95.384 29.3135C95.0875 29.565 94.7368 29.7447 94.3592 29.8384C93.9816 29.9322 93.5874 29.9375 93.2075 29.8539C93.1959 29.8517 93.1841 29.8518 93.1726 29.8543C93.1611 29.8567 93.1502 29.8614 93.1406 29.8682C93.131 29.8749 93.1228 29.8835 93.1166 29.8934C93.1103 29.9033 93.1062 29.9144 93.1043 29.926C93.0997 29.9498 93.1047 29.9745 93.1183 29.9948C93.1318 30.015 93.1527 30.0291 93.1765 30.0341L93.5272 30.0752Z" fill="#1D2B36"/>
<path d="M96.8436 25.6748C96.8721 25.6843 96.9029 25.6843 96.9313 25.6748C96.953 25.6654 96.9725 25.6517 96.9887 25.6346C97.0049 25.6175 97.0175 25.5972 97.0257 25.5751C97.0339 25.553 97.0375 25.5295 97.0364 25.5059C97.0352 25.4824 97.0293 25.4593 97.019 25.4381C96.9083 25.175 96.734 24.9432 96.5117 24.7636C96.2894 24.584 96.0261 24.4621 95.7451 24.4088C95.6973 24.4028 95.6492 24.4156 95.6107 24.4444C95.5722 24.4732 95.5464 24.5158 95.5388 24.5632C95.5359 24.5869 95.5378 24.6109 95.5443 24.6338C95.5508 24.6568 95.5618 24.6782 95.5767 24.6969C95.5915 24.7156 95.61 24.7311 95.6309 24.7426C95.6519 24.7541 95.6749 24.7613 95.6987 24.7639C95.9171 24.8099 96.1212 24.9079 96.2936 25.0495C96.466 25.191 96.6016 25.372 96.6889 25.5771C96.704 25.6053 96.7262 25.6292 96.7534 25.6463C96.7805 25.6635 96.8116 25.6733 96.8436 25.6748Z" fill="#1D2B36"/>
<path d="M91.2579 23.7757C91.2857 23.7858 91.3156 23.7882 91.3446 23.7828C91.3737 23.7774 91.4007 23.7643 91.4229 23.7448C91.601 23.5969 91.8112 23.4924 92.0368 23.4397C92.2624 23.387 92.4973 23.3875 92.7226 23.4412C92.7453 23.4486 92.7693 23.4515 92.7931 23.4497C92.8169 23.4479 92.8401 23.4415 92.8614 23.4307C92.8828 23.42 92.9017 23.4051 92.9173 23.3871C92.9329 23.369 92.9447 23.348 92.9522 23.3254C92.9596 23.3028 92.9625 23.2789 92.9607 23.2551C92.9589 23.2313 92.9524 23.2082 92.9417 23.1869C92.9309 23.1656 92.916 23.1467 92.8979 23.1312C92.8798 23.1156 92.8588 23.1038 92.8361 23.0964C92.5538 23.0268 92.2592 23.0236 91.9755 23.087C91.6918 23.1504 91.4267 23.2787 91.2012 23.4618C91.1637 23.4912 91.1393 23.5342 91.1335 23.5815C91.1277 23.6288 91.1409 23.6764 91.1702 23.714C91.1911 23.7443 91.2222 23.7662 91.2579 23.7757Z" fill="#1D2B36"/>
<path d="M106.189 41.7993L106.617 42.3809L107.004 42.9264C107.262 43.2918 107.494 43.6572 107.736 44.0226C108.206 44.7586 108.649 45.5049 109.077 46.2563C109.935 47.7584 110.713 49.3045 111.409 50.8883C111.77 51.6706 112.079 52.4837 112.409 53.2815C112.739 54.0792 113.018 54.9078 113.27 55.7416C113.814 57.401 114.262 59.0902 114.611 60.8007L114.653 60.9963C114.728 61.3417 114.735 61.6986 114.672 62.0466C114.609 62.3946 114.478 62.7267 114.286 63.0241C113.622 64.0418 112.834 64.9736 111.94 65.7981C111.02 66.6388 109.977 67.3332 108.845 67.8568C107.728 68.3762 106.533 68.7066 105.307 68.8346C104.707 68.8963 104.103 68.9066 103.502 68.8655C103.203 68.8655 102.904 68.8089 102.605 68.7626L102.151 68.6751L101.635 68.5464C101.574 68.5317 101.522 68.4938 101.489 68.4408C101.456 68.3878 101.446 68.3241 101.46 68.2633L102.171 65.2783C102.171 65.2526 102.305 65.2474 102.388 65.2268L102.672 65.1702C102.868 65.129 103.058 65.0827 103.254 65.0313C103.636 64.928 104.01 64.7973 104.374 64.6401C105.077 64.3522 105.735 63.9657 106.328 63.4924C107.49 62.5386 108.418 61.3328 109.041 59.967L108.716 62.1903C108.273 60.7338 107.803 59.2927 107.236 57.8671C106.669 56.4415 106.05 55.0416 105.374 53.6623C104.699 52.283 103.976 50.9191 103.198 49.5913C102.816 48.9274 102.414 48.2738 102.011 47.6253L101.398 46.668L101.093 46.2048L100.81 45.7931L100.707 45.6387C100.196 44.9132 99.9958 44.0152 100.149 43.1422C100.302 42.2692 100.797 41.4927 101.524 40.9835C102.251 40.4744 103.151 40.2743 104.026 40.4273C104.901 40.5803 105.679 41.0738 106.189 41.7993Z" fill="#405261"/>
<path d="M99.3708 68.2479L98.262 70.0595L103.074 69.8691C103.074 69.8691 104.338 66.637 102.615 66.1275L101.944 66.3076C100.872 66.6073 99.9528 67.3004 99.3708 68.2479Z" fill="#DFA977"/>
<path d="M101.351 65.7106C101.005 65.9445 100.707 66.2434 100.474 66.5907C101.785 67.3009 103.61 69.7198 103.61 69.7198L104.033 68.392C104.087 68.2207 104.102 68.0398 104.078 67.8619C104.054 67.684 103.991 67.5136 103.894 67.3627L103.095 66.076C103.007 65.9344 102.892 65.812 102.755 65.7163C102.619 65.6207 102.465 65.5537 102.302 65.5195C102.138 65.4853 101.97 65.4846 101.807 65.5175C101.643 65.5503 101.488 65.616 101.351 65.7106Z" fill="#1265E5"/>
<path d="M98.6849 72.849L102.651 72.499L103.074 69.8691L98.262 70.0595L98.6849 72.849Z" fill="#DFA977"/>
</svg>
