<svg width="200" height="200" viewBox="0 0 200 200" fill="none" xmlns="http://www.w3.org/2000/svg">
<path d="M197.604 74.1883C181.061 25.3555 108.601 19.6811 65.8305 24.6456C45.7733 26.9746 22.6364 32.363 10.7666 50.275C-2.35461 70.0512 0.485157 98.0658 18.9845 113.25C43.8223 133.634 57.2039 113.123 79.5901 103.449C105.066 92.4323 107.334 116.116 122.054 130.851C158.348 167.186 211.997 116.581 197.604 74.1883ZM160.386 117.791H160.467H160.386ZM161.325 117.908H161.397H161.325ZM161.433 117.934H161.54H161.433Z" fill="#008AF8"/>
<path opacity="0.9" d="M197.604 74.1883C181.061 25.3555 108.601 19.6811 65.8305 24.6456C45.7733 26.9746 22.6364 32.363 10.7666 50.275C-2.35461 70.0512 0.485157 98.0658 18.9845 113.25C43.8223 133.634 57.2039 113.123 79.5901 103.449C105.066 92.4323 107.334 116.116 122.054 130.851C158.348 167.186 211.997 116.581 197.604 74.1883ZM160.386 117.791H160.467H160.386ZM161.325 117.908H161.397H161.325ZM161.433 117.934H161.54H161.433Z" fill="white"/>
<path d="M99.0293 177.645C153.722 177.645 198.059 175.057 198.059 171.864C198.059 168.671 153.722 166.082 99.0293 166.082C44.3369 166.082 0 168.671 0 171.864C0 175.057 44.3369 177.645 99.0293 177.645Z" fill="#F2F4F6"/>
<path d="M138.633 53.3142C138.551 54.729 138.388 56.0263 138.204 57.4002C138.02 58.7742 137.764 60.0561 137.473 61.3739C137.182 62.6916 136.865 64.0145 136.452 65.3169C136.053 66.6312 135.581 67.922 135.037 69.1832L134.608 70.1383C134.547 70.2814 134.429 70.4908 134.337 70.6491C134.245 70.8074 134.138 70.9964 134.036 71.1598C133.638 71.7829 133.194 72.3753 132.708 72.9321C131.805 73.9711 130.832 74.9472 129.797 75.8536C127.792 77.6187 125.66 79.2337 123.417 80.6853L122.12 79.0101C123.034 78.1265 123.964 77.2122 124.863 76.3031C125.762 75.394 126.65 74.4644 127.493 73.5246C128.326 72.6119 129.112 71.6572 129.848 70.6644C130.182 70.2063 130.485 69.7268 130.757 69.2292C130.808 69.1168 130.874 68.9994 130.92 68.8921C130.976 68.7773 131.025 68.6596 131.068 68.5397L131.395 67.6867C132.224 65.3415 132.87 62.9354 133.326 60.4903C133.571 59.2594 133.75 58.008 133.934 56.7618C134.118 55.5156 134.256 54.2081 134.368 53.0435L138.633 53.3142Z" fill="#EBBE8B"/>
<path d="M135.722 48.2219C134 48.656 132.795 55.7503 132.795 55.7503L137.545 58.9783C137.545 58.9783 142.096 51.8278 140.773 49.9329C139.378 47.9563 138.24 47.5783 135.722 48.2219Z" fill="#008AF8"/>
<path opacity="0.2" d="M135.88 49.8052L134.557 56.9506L137.223 58.7638L135.88 49.8052Z" fill="#1D2B36"/>
<path d="M122.907 78.4073L118.167 78.7495L120.997 81.9213C120.997 81.9213 123.617 81.3237 124.061 79.6484L122.907 78.4073Z" fill="#EBBE8B"/>
<path d="M115.552 80.4298L117.493 83.4176L120.997 81.9211L118.167 78.7494L115.552 80.4298Z" fill="#EBBE8B"/>
<path d="M145.048 167.594H140.865L140.589 157.91H144.767L145.048 167.594Z" fill="#EBBE8B"/>
<path d="M173.967 155.27L170.095 156.848L165.192 148.395L169.063 146.812L173.967 155.27Z" fill="#EBBE8B"/>
<path d="M169.365 156.271L173.405 153.87C173.474 153.828 173.556 153.812 173.636 153.826C173.716 153.84 173.788 153.883 173.839 153.947L176.198 156.868C176.254 156.944 176.294 157.031 176.314 157.123C176.335 157.215 176.335 157.311 176.317 157.403C176.298 157.495 176.26 157.583 176.205 157.66C176.151 157.737 176.08 157.801 175.999 157.849C174.579 158.661 173.849 158.983 172.072 160.035C170.979 160.684 168.409 162.911 166.903 163.81C165.396 164.708 164.426 163.258 164.977 162.752C166.756 161.143 168.103 159.113 168.895 156.848C168.979 156.607 169.145 156.403 169.365 156.271Z" fill="#748494"/>
<path d="M140.722 167.109H145.421C145.502 167.106 145.581 167.134 145.643 167.187C145.704 167.24 145.744 167.314 145.753 167.395L146.263 171.113C146.273 171.207 146.264 171.302 146.234 171.392C146.205 171.481 146.158 171.564 146.095 171.634C146.031 171.703 145.954 171.759 145.868 171.797C145.782 171.835 145.688 171.855 145.594 171.854C143.955 171.829 143.168 171.731 141.1 171.731C139.828 171.731 137.203 171.864 135.446 171.864C133.689 171.864 133.597 170.128 134.327 169.969C137.606 169.265 138.893 168.294 139.996 167.365C140.2 167.196 140.457 167.105 140.722 167.109Z" fill="#748494"/>
<g opacity="0.2">
<path opacity="0.2" d="M140.589 157.91L140.732 162.905H144.915L144.772 157.91H140.589Z" fill="#1D2B36"/>
<path opacity="0.2" d="M169.063 146.812L165.192 148.395L167.72 152.752L171.591 151.174L169.063 146.812Z" fill="#1D2B36"/>
</g>
<path d="M135.722 48.2221C135.722 48.2221 133.73 48.9218 137.724 73.4582H154.701C154.415 66.5478 154.405 62.283 157.709 48.0995C155.332 47.6069 152.921 47.2894 150.498 47.1495C147.93 46.9654 145.353 46.9654 142.785 47.1495C139.481 47.4508 135.722 48.2221 135.722 48.2221Z" fill="#008AF8"/>
<path d="M150.503 47.1495C147.935 46.9654 145.358 46.9654 142.79 47.1495C141.866 47.2312 140.906 47.3538 140.002 47.4815C139.608 48.9729 139.685 51.0567 141.207 53.7841C141.45 54.2189 141.844 54.5498 142.315 54.7144C142.785 54.879 143.299 54.866 143.761 54.678C144.997 54.1672 151.253 51.5368 153.266 48.2783L153.776 47.4355C152.765 47.3129 151.636 47.2057 150.503 47.1495Z" fill="white"/>
<path d="M157.714 32.6747C157.714 38.8037 152.668 42.8489 147.321 45.4077C141.789 48.0534 136.222 40.4381 136.222 34.3091C136.221 32.8512 136.508 31.4075 137.065 30.0603C137.623 28.7132 138.44 27.4891 139.471 26.458C140.501 25.4268 141.725 24.6088 143.072 24.0508C144.419 23.4927 145.863 23.2054 147.321 23.2054C153.45 23.2054 157.714 26.5457 157.714 32.6747Z" fill="#1D2B36"/>
<path d="M159.124 25.5906C159.124 27.9145 157.51 30.4172 155.181 30.4172C154.065 30.4172 152.994 29.9738 152.205 29.1845C151.416 28.3952 150.972 27.3248 150.972 26.2086C150.972 25.0924 151.416 24.0219 152.205 23.2327C152.994 22.4434 154.065 22 155.181 22C157.51 22 159.124 23.2667 159.124 25.5906Z" fill="#1D2B36"/>
<path d="M149.742 38.4664C149.231 40.9435 148.766 45.4943 150.503 47.1491C150.503 47.1491 149.823 49.6671 145.216 49.6671C140.145 49.6671 142.79 47.1491 142.79 47.1491C145.559 46.4852 145.487 44.432 145.007 42.5064L149.742 38.4664Z" fill="#EBBE8B"/>
<path d="M150.503 47.1495C147.935 46.9654 145.358 46.9654 142.79 47.1495L142.279 47.2006C141.757 48.2673 141.677 49.4968 142.055 50.6226C142.133 50.9118 142.274 51.1802 142.468 51.4089C142.662 51.6375 142.903 51.8206 143.176 51.9454C143.448 52.0702 143.745 52.1335 144.045 52.1308C144.344 52.1282 144.64 52.0597 144.91 51.9301C147.045 50.9086 150.354 49.0852 151.509 47.2159C151.182 47.1904 150.84 47.1648 150.503 47.1495Z" fill="#EBBE8B"/>
<path opacity="0.2" d="M147.811 40.1164L144.997 42.522C145.116 42.9705 145.196 43.4285 145.237 43.8908C146.294 43.7376 147.745 42.5782 147.857 41.4699C147.923 41.0196 147.908 40.5611 147.811 40.1164Z" fill="#1D2B36"/>
<path d="M150.145 32.031C150.916 36.117 151.33 37.8178 149.823 40.3919C147.555 44.2634 142.376 44.3196 140.405 40.5503C138.628 37.164 137.667 31.0606 141.197 28.471C141.971 27.8955 142.88 27.5276 143.837 27.4023C144.794 27.277 145.767 27.3985 146.664 27.7552C147.56 28.1119 148.351 28.6921 148.96 29.4404C149.57 30.1888 149.977 31.0806 150.145 32.031Z" fill="#EBBE8B"/>
<path d="M137.724 73.4582C137.724 73.4582 134.424 105.671 134.7 118.404C134.981 131.684 139.843 161.915 139.843 161.915H145.507C145.507 161.915 144.614 132.44 145.114 119.415C145.656 105.211 150.171 73.4479 150.171 73.4479L137.724 73.4582Z" fill="#748494"/>
<path d="M145.988 162.139H139.353L138.868 160.025L146.294 159.764L145.988 162.139Z" fill="#008AF8"/>
<path opacity="0.2" d="M145.048 81.4716C140.875 89.8632 144.21 105.17 145.686 110.865C146.442 102.315 147.729 91.8551 148.71 84.1786C148.061 79.8372 146.973 77.6052 145.048 81.4716Z" fill="#1D2B36"/>
<path d="M142.208 73.4582C142.208 73.4582 146.054 106.948 148.96 117.699C152.408 130.468 166.423 152.241 166.423 152.241L171.699 150.086C171.699 150.086 162.653 125.289 160.013 118.562C154.394 104.21 159.206 82.81 154.706 73.4582H142.208Z" fill="#748494"/>
<path d="M172.419 150.111L165.871 152.788L164.334 151.01L171.898 147.522L172.419 150.111Z" fill="#008AF8"/>
<path d="M144.011 34.7177C144.093 35.0446 143.985 35.3511 143.776 35.4072C143.567 35.4634 143.321 35.2387 143.235 34.8965C143.148 34.5543 143.26 34.2632 143.475 34.207C143.689 34.1508 143.929 34.3908 144.011 34.7177Z" fill="#1D2B36"/>
<path d="M140.313 35.6525C140.4 35.9794 140.313 36.2909 140.078 36.342C139.843 36.3931 139.624 36.1735 139.542 35.8313C139.46 35.4891 139.542 35.1979 139.777 35.1418C140.012 35.0856 140.231 35.3256 140.313 35.6525Z" fill="#1D2B36"/>
<path d="M139.889 35.1517H139.046C139.046 35.1517 139.593 35.6369 139.889 35.1517Z" fill="#1D2B36"/>
<path d="M141.605 35.9538C141.503 36.7727 141.288 37.5736 140.967 38.3339C141.163 38.4115 141.375 38.4449 141.586 38.4316C141.797 38.4184 142.002 38.3589 142.187 38.2573L141.605 35.9538Z" fill="#BF8356"/>
<path d="M144.297 39.0897C144.142 39.1524 143.984 39.2052 143.822 39.248C143.796 39.2531 143.77 39.2486 143.747 39.2354C143.725 39.2223 143.708 39.2013 143.699 39.1765C143.693 39.1508 143.697 39.1236 143.71 39.1008C143.724 39.0779 143.745 39.0611 143.771 39.0539C144.178 38.9601 144.558 38.7729 144.881 38.5069C145.204 38.241 145.46 37.9037 145.63 37.5217C145.634 37.5096 145.641 37.4985 145.65 37.489C145.658 37.4795 145.669 37.4718 145.68 37.4664C145.692 37.4609 145.705 37.4578 145.718 37.4572C145.73 37.4566 145.743 37.4586 145.755 37.4629C145.767 37.4673 145.778 37.474 145.788 37.4826C145.797 37.4913 145.805 37.5017 145.811 37.5133C145.816 37.525 145.819 37.5375 145.82 37.5504C145.82 37.5632 145.818 37.576 145.814 37.5881C145.673 37.9263 145.466 38.2332 145.206 38.4909C144.946 38.7487 144.637 38.9522 144.297 39.0897Z" fill="#1D2B36"/>
<path d="M139.802 28.9869C139.802 28.9869 145.267 34.6052 150.717 34.6052C155.202 34.6052 155.053 27.0869 149.124 26.7754C143.194 26.4638 137.192 24.8601 139.802 28.9869Z" fill="#1D2B36"/>
<path d="M152.173 35.4634C152.069 36.2589 151.654 36.9808 151.018 37.4706C150.171 38.1142 149.358 37.4706 149.266 36.4491C149.185 35.5451 149.527 34.1201 150.533 33.8954C150.752 33.8466 150.98 33.8526 151.196 33.9128C151.412 33.9731 151.61 34.0858 151.772 34.2409C151.934 34.396 152.056 34.5887 152.126 34.802C152.196 35.0152 152.212 35.2424 152.173 35.4634Z" fill="#EBBE8B"/>
<path d="M144.741 32.7205C144.712 32.7505 144.674 32.7702 144.632 32.7766C144.591 32.783 144.549 32.7759 144.512 32.7562C143.699 32.3374 142.647 32.8737 142.637 32.8788C142.614 32.8909 142.589 32.8983 142.564 32.9008C142.538 32.9032 142.512 32.9005 142.487 32.893C142.463 32.8854 142.44 32.873 142.42 32.8565C142.4 32.8401 142.384 32.8199 142.371 32.7971C142.359 32.7743 142.352 32.7493 142.35 32.7236C142.347 32.698 142.35 32.672 142.357 32.6474C142.365 32.6227 142.377 32.5998 142.394 32.5799C142.41 32.56 142.43 32.5436 142.453 32.5315C142.504 32.5009 143.699 31.8931 144.695 32.4038C144.718 32.4156 144.739 32.432 144.755 32.4518C144.772 32.4717 144.785 32.4946 144.792 32.5194C144.8 32.5441 144.802 32.5702 144.8 32.5959C144.797 32.6217 144.79 32.6467 144.777 32.6694C144.768 32.6883 144.756 32.7056 144.741 32.7205Z" fill="#1D2B36"/>
<path d="M138.398 33.5685C138.366 33.5818 138.331 33.5865 138.297 33.582C138.263 33.5775 138.231 33.5641 138.204 33.543C138.161 33.5123 138.133 33.4661 138.124 33.4145C138.116 33.3629 138.128 33.31 138.158 33.2672C138.339 33.009 138.578 32.7978 138.857 32.6513C139.136 32.5047 139.446 32.4269 139.762 32.4244C139.814 32.4284 139.862 32.4525 139.896 32.4916C139.931 32.5308 139.948 32.5818 139.945 32.6338C139.945 32.6598 139.939 32.6853 139.928 32.709C139.918 32.7326 139.902 32.7539 139.883 32.7715C139.864 32.7891 139.842 32.8027 139.817 32.8115C139.793 32.8204 139.767 32.8242 139.741 32.8228C139.492 32.8285 139.248 32.893 139.029 33.0111C138.81 33.1291 138.621 33.2974 138.48 33.5021C138.459 33.531 138.43 33.5539 138.398 33.5685Z" fill="#1D2B36"/>
<path d="M167.761 157.854H167.71C167.616 157.832 167.53 157.787 167.459 157.723C167.387 157.658 167.333 157.577 167.301 157.486C167.275 157.432 167.263 157.371 167.269 157.311C167.274 157.251 167.296 157.193 167.332 157.144C167.633 156.705 169.145 156.761 169.319 156.771C169.338 156.771 169.356 156.777 169.372 156.788C169.387 156.799 169.399 156.815 169.406 156.833C169.413 156.851 169.415 156.871 169.411 156.891C169.406 156.91 169.395 156.927 169.38 156.94C169.002 157.313 168.277 157.915 167.761 157.854ZM169.068 156.955C168.466 156.955 167.654 157.022 167.49 157.251C167.477 157.275 167.47 157.301 167.47 157.328C167.47 157.355 167.477 157.381 167.49 157.405C167.51 157.465 167.544 157.52 167.591 157.564C167.637 157.608 167.694 157.639 167.756 157.655C168.037 157.716 168.517 157.44 169.068 156.955Z" fill="#008AF8"/>
<path d="M169.16 156.956C168.649 156.894 167.725 156.542 167.582 156.133C167.556 156.059 167.556 155.978 167.582 155.904C167.608 155.83 167.658 155.767 167.725 155.725C167.785 155.678 167.855 155.645 167.928 155.627C168.002 155.61 168.079 155.608 168.154 155.623C168.752 155.74 169.37 156.772 169.395 156.813C169.404 156.828 169.409 156.846 169.409 156.864C169.409 156.882 169.404 156.899 169.395 156.915C169.385 156.929 169.372 156.941 169.357 156.95C169.342 156.959 169.326 156.964 169.308 156.966L169.16 156.956ZM168.088 155.817C168.045 155.811 168.002 155.814 167.961 155.825C167.919 155.837 167.881 155.856 167.848 155.883C167.745 155.96 167.75 156.021 167.771 156.067C167.868 156.343 168.619 156.685 169.124 156.751C168.9 156.419 168.476 155.888 168.103 155.817H168.088Z" fill="#008AF8"/>
<path d="M139.154 167.84C138.794 167.872 138.434 167.782 138.132 167.584C138.066 167.523 138.016 167.447 137.984 167.363C137.953 167.279 137.943 167.188 137.954 167.099C137.957 167.045 137.974 166.992 138.004 166.947C138.033 166.901 138.074 166.864 138.122 166.838C138.633 166.552 140.303 167.405 140.492 167.508C140.51 167.517 140.525 167.532 140.534 167.55C140.543 167.569 140.546 167.589 140.543 167.61C140.54 167.63 140.531 167.648 140.518 167.663C140.504 167.677 140.486 167.687 140.466 167.691C140.034 167.781 139.595 167.831 139.154 167.84ZM138.408 166.976C138.345 166.973 138.282 166.985 138.224 167.012C138.205 167.022 138.188 167.038 138.176 167.057C138.165 167.075 138.158 167.097 138.158 167.119C138.15 167.177 138.156 167.236 138.176 167.291C138.195 167.346 138.228 167.396 138.27 167.436C138.526 167.666 139.215 167.702 140.14 167.548C139.6 167.26 139.014 167.066 138.408 166.976Z" fill="#008AF8"/>
<path d="M140.451 167.691H140.4C139.889 167.461 138.914 166.562 138.99 166.087C138.99 165.975 139.087 165.837 139.363 165.807C139.462 165.797 139.562 165.807 139.657 165.837C139.752 165.867 139.839 165.916 139.915 165.98C140.426 166.419 140.533 167.543 140.538 167.589C140.541 167.607 140.538 167.625 140.531 167.641C140.524 167.657 140.512 167.671 140.497 167.681C140.483 167.688 140.467 167.691 140.451 167.691ZM139.43 165.996H139.379C139.2 165.996 139.184 166.087 139.184 166.108C139.133 166.394 139.808 167.104 140.313 167.41C140.278 166.939 140.1 166.49 139.802 166.123C139.707 166.039 139.583 165.993 139.455 165.996H139.43Z" fill="#008AF8"/>
<path d="M143.572 34.2171L142.729 34.1916C142.729 34.1916 143.291 34.7023 143.572 34.2171Z" fill="#1D2B36"/>
<path d="M154.961 72.462L155.396 73.9943C155.452 74.1168 155.314 74.2343 155.115 74.2343H137.637C137.484 74.2343 137.356 74.1577 137.351 74.0658L137.198 72.5335C137.198 72.4262 137.315 72.3394 137.484 72.3394H154.701C154.751 72.3378 154.801 72.3481 154.846 72.3694C154.891 72.3907 154.931 72.4224 154.961 72.462Z" fill="#008AF8"/>
<path d="M154.961 72.462L155.396 73.9943C155.452 74.1168 155.314 74.2343 155.115 74.2343H137.637C137.484 74.2343 137.356 74.1577 137.351 74.0658L137.198 72.5335C137.198 72.4262 137.315 72.3394 137.484 72.3394H154.701C154.751 72.3378 154.801 72.3481 154.846 72.3694C154.891 72.3907 154.931 72.4224 154.961 72.462Z" fill="#F2F4F6" opacity="0.2"/>
<path d="M152.658 74.3826H153.123C153.215 74.3826 153.281 74.3366 153.276 74.2804L153.061 72.3038C153.047 72.269 153.022 72.2397 152.99 72.2204C152.958 72.201 152.92 72.1927 152.883 72.1965H152.423C152.331 72.1965 152.26 72.2476 152.265 72.3038L152.479 74.2804C152.479 74.3366 152.556 74.3826 152.658 74.3826Z" fill="#748494"/>
<path d="M138.934 74.3824H139.394C139.486 74.3824 139.552 74.3364 139.547 74.2802L139.332 72.3036C139.332 72.2475 139.246 72.1964 139.154 72.1964H138.694C138.602 72.1964 138.531 72.2475 138.536 72.3036L138.755 74.2802C138.76 74.3364 138.868 74.3824 138.934 74.3824Z" fill="#748494"/>
<path d="M145.793 74.3824H146.253C146.345 74.3824 146.411 74.3364 146.406 74.2802L146.192 72.3036C146.192 72.2475 146.105 72.1964 146.013 72.1964H145.553C145.461 72.1964 145.39 72.2475 145.395 72.3036L145.615 74.2802C145.62 74.3364 145.701 74.3824 145.793 74.3824Z" fill="#748494"/>
<path d="M147.79 73.2945L144.113 70.6693L144.455 74.9085C144.455 74.9085 146.907 76.0066 148.281 74.9494L147.79 73.2945Z" fill="#EBBE8B"/>
<path d="M159.696 53.1354C160.013 55.633 160.283 58.1408 160.534 60.6485C160.784 63.1563 161.019 65.6641 161.228 68.1719L161.264 68.6418V68.892C161.264 69.0248 161.264 69.1576 161.264 69.2904C161.268 69.8477 161.166 70.4007 160.963 70.9197C160.582 71.8338 159.941 72.6154 159.119 73.167C158.475 73.6113 157.774 73.967 157.035 74.2243C156.368 74.4607 155.685 74.6518 154.992 74.7963C152.393 75.2925 149.74 75.4436 147.101 75.2458L147.075 73.1313C148.265 72.9729 149.502 72.7839 150.686 72.5439C151.874 72.3219 153.045 72.0181 154.19 71.6348C155.189 71.344 156.129 70.877 156.964 70.2557C157.192 70.0929 157.361 69.8596 157.444 69.5918C157.457 69.5174 157.457 69.4414 157.444 69.367L157.331 68.606C156.964 66.1085 156.621 63.616 156.31 61.1133C155.998 58.6106 155.682 56.108 155.426 53.6002L159.696 53.1354Z" fill="#EBBE8B"/>
<path d="M157.714 48.0993C159.415 48.6101 161.463 54.4735 161.463 54.4735L154.859 59.1928C154.859 59.1928 152.454 54.3049 153.169 52.1036C153.909 49.8154 155.774 47.5068 157.714 48.0993Z" fill="#008AF8"/>
<path d="M140.145 63.6671C138.415 61.9132 136.098 60.8599 133.639 60.7092C131.181 60.5586 128.753 61.3212 126.822 62.8508C124.891 64.3804 123.593 66.5692 123.176 68.9973C122.76 71.4253 123.255 73.9214 124.567 76.0068L124.122 79.674L127.795 79.2348C129.879 80.5453 132.374 81.0405 134.801 80.6254C137.227 80.2103 139.416 78.9141 140.946 76.9852C142.476 75.0563 143.24 72.6306 143.093 70.1729C142.945 67.7152 141.895 65.3986 140.145 63.6671ZM130.129 73.6778C129.546 73.0949 129.149 72.3523 128.988 71.5439C128.827 70.7354 128.91 69.8974 129.225 69.1359C129.541 68.3743 130.075 67.7234 130.76 67.2654C131.446 66.8075 132.252 66.5631 133.076 66.5631C133.9 66.5631 134.706 66.8075 135.391 67.2654C136.077 67.7234 136.611 68.3743 136.926 69.1359C137.242 69.8974 137.324 70.7354 137.163 71.5439C137.003 72.3523 136.606 73.0949 136.023 73.6778C135.636 74.0654 135.177 74.3729 134.671 74.5828C134.165 74.7926 133.623 74.9006 133.076 74.9006C132.528 74.9006 131.986 74.7926 131.48 74.5828C130.975 74.3729 130.515 74.0654 130.129 73.6778Z" fill="#008AF8"/>
<path opacity="0.4" d="M140.145 63.6671C138.415 61.9132 136.098 60.8599 133.639 60.7092C131.181 60.5586 128.753 61.3212 126.822 62.8508C124.891 64.3804 123.593 66.5692 123.176 68.9973C122.76 71.4253 123.255 73.9214 124.567 76.0068L124.122 79.674L127.795 79.2348C129.879 80.5453 132.374 81.0405 134.801 80.6254C137.227 80.2103 139.416 78.9141 140.946 76.9852C142.476 75.0563 143.24 72.6306 143.093 70.1729C142.945 67.7152 141.895 65.3986 140.145 63.6671ZM130.129 73.6778C129.546 73.0949 129.149 72.3523 128.988 71.5439C128.827 70.7354 128.91 69.8974 129.225 69.1359C129.541 68.3743 130.075 67.7234 130.76 67.2654C131.446 66.8075 132.252 66.5631 133.076 66.5631C133.9 66.5631 134.706 66.8075 135.391 67.2654C136.077 67.7234 136.611 68.3743 136.926 69.1359C137.242 69.8974 137.324 70.7354 137.163 71.5439C137.003 72.3523 136.606 73.0949 136.023 73.6778C135.636 74.0654 135.177 74.3729 134.671 74.5828C134.165 74.7926 133.623 74.9006 133.076 74.9006C132.528 74.9006 131.986 74.7926 131.48 74.5828C130.975 74.3729 130.515 74.0654 130.129 73.6778Z" fill="#1D2B36"/>
<path d="M140.599 70.8276L141.079 74.362L144.455 74.9085L144.113 70.6693L140.599 70.8276Z" fill="#EBBE8B"/>
<path d="M80.4021 164.024C69.0676 164.024 57.9875 160.664 48.5631 154.367C39.1387 148.07 31.7932 139.12 27.4556 128.648C23.118 118.177 21.9832 106.654 24.1946 95.5372C26.4059 84.4205 31.8643 74.2093 39.8792 66.1949C39.9749 66.0998 40.1043 66.0464 40.2393 66.0464C40.3742 66.0464 40.5037 66.0998 40.5994 66.1949L46.6671 72.2575C46.7632 72.3537 46.8173 72.4841 46.8173 72.6201C46.8173 72.7561 46.7632 72.8866 46.6671 72.9827C46.5709 73.0789 46.4404 73.133 46.3044 73.133C46.1684 73.133 46.038 73.0789 45.9418 72.9827L40.2418 67.2828C29.8436 77.8702 24.0473 92.1357 24.1142 106.975C24.1811 121.815 30.1058 136.028 40.599 146.521C51.0923 157.014 65.305 162.939 80.1446 163.006C94.9841 163.073 109.25 157.276 119.837 146.878L114.127 141.168C114.031 141.072 113.977 140.941 113.977 140.805C113.977 140.669 114.031 140.539 114.127 140.443C114.223 140.346 114.354 140.292 114.49 140.292C114.626 140.292 114.756 140.346 114.852 140.443L120.925 146.515C120.973 146.563 121.011 146.619 121.037 146.682C121.063 146.744 121.076 146.811 121.076 146.878C121.076 146.945 121.063 147.012 121.037 147.074C121.011 147.137 120.973 147.193 120.925 147.241C115.615 152.578 109.3 156.81 102.344 159.69C95.3886 162.571 87.9307 164.044 80.4021 164.024Z" fill="#224763"/>
<path d="M80.4022 155.464C107.324 155.464 129.148 133.64 129.148 106.718C129.148 79.7962 107.324 57.9719 80.4022 57.9719C53.4806 57.9719 31.6562 79.7962 31.6562 106.718C31.6562 133.64 53.4806 155.464 80.4022 155.464Z" fill="#008AF8"/>
<mask height="81" id="mask0" maskUnits="userSpaceOnUse" style="mask-type:alpha" width="163" x="12" y="64">
<g opacity="0.4">
<path opacity="0.4" d="M116.752 66.7572L121.124 67.5948C120.741 67.8859 120.475 68.3354 120.077 68.6163C123.202 68.6521 126.507 68.2945 129.52 69.1271C132.335 69.9136 134.75 68.9074 137.626 69.2139C139.311 69.3977 157.918 70.6491 157.382 73.1722C156.069 72.9679 154.353 72.3141 153.117 73.0343L155.334 73.9843C154.159 74.6329 150.992 75.1845 151.008 76.3031C151.008 77.105 152.111 77.4625 152.407 78.1775C152.703 78.8926 152.57 80.0264 152.637 80.7773C151.723 79.9498 149.23 78.4738 148.883 77.3654C148.536 76.2571 150.563 74.2039 147.586 74.6431C146.498 74.8015 146.61 75.777 146.329 75.8843C145.634 76.155 144.342 75.9558 143.586 75.9813C141.079 76.0681 141.247 76.5431 140.134 78.7087C141.64 78.9794 143.612 78.959 144.598 79.9498C145.583 80.9407 146.344 84.2197 145.241 85.2259C144.7 85.7366 143.924 85.3382 143.581 85.6089C143.239 85.8796 142.631 87.3149 142.744 87.7081C143.06 88.8165 146.533 90.0576 143.428 90.8748C143.035 90.2261 142.167 87.9329 141.482 87.6622C140.517 87.2791 139.368 88.796 139.337 86.7939L137.948 87.9788C138.278 88.3791 138.714 88.6782 139.206 88.8418C139.699 89.0053 140.227 89.0266 140.731 88.9033C138.765 89.414 140.108 90.9463 140.701 91.646C141.615 92.7186 141.666 92.7492 141.722 93.9495C141.829 96.1559 140.318 97.9231 138.05 98.4237C136.911 98.6739 136.083 98.296 135.348 99.0978C134.229 100.308 135.317 100.405 135.946 101.412C136.385 102.121 137.279 103.552 137.131 104.41C137.003 105.14 135.598 106.039 134.99 106.611C134.219 105.482 133.642 103.981 132.151 103.618C132.018 105.482 131.849 106.197 133.172 107.643C133.581 108.087 134.086 108.312 134.367 108.792C134.648 109.272 134.577 110.288 134.878 110.917C130.976 108.823 131.584 104.828 130.246 101.126C129.357 103.393 128.494 100.293 128.106 99.5933C127.227 98.061 126.313 97.5503 124.581 98.5718C123.744 99.057 121.486 101.202 121.154 102.081C120.388 104.093 121.782 104.905 120.133 106.677C118.897 105.804 118.601 103.889 118.141 102.591C117.63 101.171 116.726 99.5933 116.864 98.0457C115.955 99.9917 114.668 97.5809 113.83 96.871C112.594 95.8495 111.787 96.2989 110.137 96.1457C109.494 96.0251 108.862 95.8438 108.253 95.6043C108.575 95.6911 107.517 94.9812 107.665 95.0425C107.446 94.9454 107.098 95.3643 106.792 95.2468C105.827 94.8688 104.024 92.9178 103.171 93.403C103.539 94.1283 104.269 96.2019 105.015 96.6156C106.174 97.2592 107.058 95.9465 107.951 96.1049C108.641 96.5707 109.245 97.1511 109.739 97.821C109.892 98.49 109.739 98.25 109.228 99.1234C108.643 100.252 107.695 101.152 106.537 101.677C105.633 102.188 103.533 103.516 102.451 103.541C101.041 103.572 101.066 102.969 100.464 101.835C99.8611 100.702 97.0775 93.8422 95.7189 94.6186C96.7813 96.9169 97.6853 99.3941 98.9979 101.575C99.4678 102.356 100.801 104.9 101.654 105.247C102.675 105.661 104.626 104.737 105.52 104.466C105.086 108.552 101.73 110.084 99.7692 113.23C97.9918 116.06 101.225 119.359 99.0848 121.842C98.5127 122.511 96.9243 122.822 96.531 123.583C96.2041 124.211 96.8273 125.172 96.6332 125.871C96.3778 126.786 95.8262 126.454 95.2644 127.261C94.8047 127.914 94.9528 128.854 94.4267 129.6C94.0053 130.29 93.4441 130.885 92.7791 131.346C92.1141 131.807 91.3601 132.124 90.5655 132.276C88.119 132.828 87.9096 132.751 87.1077 130.611L84.6306 124.043C84.0074 122.383 84.2679 121.724 84.7685 119.957C85.269 118.19 85.4529 117.786 84.7123 116.182C84.1625 115.182 83.6796 114.146 83.2669 113.082C82.9962 112.173 83.2669 111.499 83.1494 110.554C83.0472 109.808 83.0779 109.405 82.3833 108.797C82.1943 108.628 81.5405 108.976 81.3056 108.853C81.0706 108.731 80.851 107.985 80.5599 107.929C79.3392 107.699 77.6639 108.516 76.2543 108.572C74.1091 108.654 72.679 108.618 71.2693 107.3C69.8597 105.983 68.6288 104.486 68.5164 102.505C68.2712 98.1734 71.4941 96.5901 73.2817 93.0965C73.8742 91.9371 73.2817 91.5132 74.7884 90.6245C75.5494 90.1699 75.7588 90.2108 76.7139 90.032C78.9817 89.6081 81.3669 89.5213 83.6601 89.2455C83.4609 90.9718 83.3179 90.7113 84.7225 91.5592C85.841 92.2334 87.1383 92.7288 88.2977 93.3008C88.691 90.8441 91.9802 92.6369 93.7883 92.7901C96.5566 93.0353 96.0713 91.7175 96.5361 89.4038C95.4533 89.46 94.0284 89.7818 92.9966 89.4396C91.4644 88.9288 91.6993 88.2802 91.4644 86.8552L89.7585 87.1667C89.9398 87.5086 90.0443 87.8859 90.0646 88.2723C90.0849 88.6587 90.0205 89.0449 89.876 89.4038C89.2945 88.8753 88.7597 88.2977 88.2773 87.6775C88.0526 87.3097 88.0321 86.5947 87.8278 86.324C87.0924 85.3485 85.6878 84.5466 84.7327 83.7702C83.5886 85.3995 86.265 86.6662 87.4295 87.2944C86.3211 88.6019 86.0096 89.9095 84.4211 88.4998C86.2088 88.6122 86.408 88.1525 85.5295 86.9216C84.5948 85.6038 83.3588 84.8786 82.0308 84.9552C81.8265 84.9552 81.6682 85.5119 81.4639 85.5323C81.2596 85.5528 80.6365 85.1186 80.4424 85.2157C80.2483 85.3127 79.8959 85.0931 79.7222 85.1697C79.5486 85.2463 79.8091 85.8694 79.7222 85.9511C78.9408 86.6458 78.3688 87.7081 77.6792 88.4181C76.765 89.3732 75.7844 90.2312 74.3849 89.4396C73.3634 88.842 72.9855 86.8092 73.6597 85.7417C74.482 84.4393 76.2951 86.0635 77.475 85.185C78.6548 84.3065 77.0715 82.9582 76.4535 82.2789C77.4209 81.9917 78.3651 81.6314 79.2779 81.2012C80.2994 80.6138 80.0083 80.149 80.8408 79.5361C81.4843 79.056 81.9185 79.3523 82.3373 78.8058C82.9553 78.0039 81.6018 77.156 83.415 77.0743C82.4241 79.6281 86.8932 79.3114 88.1854 78.3972C88.4612 78.2031 88.2211 77.5544 88.4152 77.2786C88.6617 77.0337 88.9282 76.8099 89.212 76.6095V75.9302H90.0803C90.6625 75.5012 91.0609 76.2827 91.3469 75.2305C90.0905 75.445 89.3703 75.9047 88.5684 75.0875C87.4346 73.9332 88.405 73.6574 89.4112 72.8504C87.5674 71.5327 84.8553 75.2612 87.1128 75.5931C86.6889 76.1039 85.5499 78.1724 84.9217 78.3052C83.6703 78.5759 83.9002 76.8343 83.7316 75.9864C82.894 76.3184 82.3271 76.7321 81.7601 76.3746C81.1064 75.966 81.1268 74.873 81.3158 74.5359C81.704 73.8464 83.4814 73.6114 84.1556 73.0752C84.8298 72.5389 85.1771 71.4305 85.9534 70.9351C88.5429 69.2394 93.6657 69.8625 96.0305 71.6757C94.9528 72.3295 93.6095 71.9004 92.4246 71.7625C93.1192 72.6819 94.0896 73.8055 95.3512 73.4122C95.5095 73.3612 95.8058 72.5542 96.102 72.3652C96.7813 71.9208 97.9509 71.7166 98.7273 71.4407C101.327 70.5265 103.324 70.5061 106.062 71.0066C104.729 67.4314 106.884 69.4744 109.361 69.03C110.546 68.8206 111.634 67.8859 112.778 67.5233C114.086 67.19 115.413 66.9342 116.752 66.7572Z" fill="black"/>
<path opacity="0.4" d="M78.7313 80.6851L75.7485 81.3388C76.0754 80.8587 76.9641 80.0058 77.0152 79.4746C77.1173 78.3458 76.5044 78.9332 76.3206 78.5144C75.4727 76.7676 75.9324 76.7114 77.5106 75.8329C77.7251 76.6961 77.7864 77.9117 78.2206 78.7136C78.6547 79.5155 79.9622 79.8883 78.7313 80.6851Z" fill="black"/>
<path opacity="0.4" d="M76.0344 78.6013C75.1661 80.0927 75.8761 80.0773 73.8484 80.4042C74.3694 79.1989 74.0731 77.83 76.0344 78.6013Z" fill="black"/>
<path opacity="0.4" d="M101.832 69.8319C98.3032 68.7644 103.84 67.2118 104.534 67.0381C103.094 67.0381 101.087 66.747 99.9376 67.8757C98.676 69.1271 100.173 70.5367 101.832 69.8319Z" fill="black"/>
<path opacity="0.4" d="M85.5804 67.0379L86.8572 66.0164C85.7266 65.5501 84.487 65.4137 83.282 65.6231L85.5804 67.0379Z" fill="black"/>
<path opacity="0.4" d="M86.2903 65.2452C87.2301 66.2667 88.5069 65.7559 89.7583 65.5976C88.5989 65.4341 87.4599 65.3218 86.2903 65.2452Z" fill="black"/>
<path opacity="0.4" d="M145.41 91.2322C145.695 91.8251 146.068 92.3711 146.518 92.8513C147.029 90.6296 148.418 91.7634 149.874 90.415C150.66 89.6898 150.604 88.1575 149.557 87.1207C148.086 85.6549 149.261 87.9124 148.673 88.9492C148.02 90.0728 146.252 90.1239 145.41 91.2322Z" fill="black"/>
<path opacity="0.4" d="M148.372 86.4463L148.826 86.2777C148.755 86.1092 148.678 85.9407 148.602 85.767C149.439 86.0734 150.277 86.0683 150.532 85.1541L147.749 84.0049C148.525 85.0724 147.33 85.6444 148.372 86.4463Z" fill="black"/>
<path opacity="0.4" d="M147.55 83.5967H148.26C147.217 81.9356 146.038 80.3639 144.735 78.8978C144.281 79.9448 146.865 82.5445 147.55 83.5967Z" fill="black"/>
<path opacity="0.4" d="M142.805 96.3753C141.993 96.7379 142.028 97.5551 142.595 98.2395L142.805 96.3753Z" fill="black"/>
<path opacity="0.4" d="M136.65 99.6185H137.518C137.253 100.431 137.365 100.323 136.533 100.42L136.65 99.6185Z" fill="black"/>
<path opacity="0.4" d="M129.714 108.143C132.712 109.405 135.644 112.076 135.644 115.248C134.086 115.125 132.963 113.133 132.319 111.969C131.676 110.804 130.026 109.252 129.714 108.143Z" fill="black"/>
<path opacity="0.4" d="M138.571 110.809L137.692 110.615C136.839 112.97 139.602 115.212 141.415 113.465C142.253 112.658 142.079 111.162 142.253 110.207C142.498 108.873 143.009 108.414 141.696 107.397L138.571 110.809Z" fill="black"/>
<path opacity="0.4" d="M141.61 107.004C142.248 106.233 143.142 105.528 143.142 104.486C142.636 105.344 142.12 106.166 141.61 107.004Z" fill="black"/>
<path opacity="0.4" d="M143.801 104.042C142.779 102.617 142.846 102.152 142.973 100.421C144.214 100.564 143.586 102.3 144.337 103.184C145.42 104.456 146.743 104.445 146.829 106.478C146.88 107.704 146.206 108.782 144.837 107.459C143.933 106.585 144.536 105.135 143.801 104.042Z" fill="black"/>
<path opacity="0.4" d="M146.242 110.835C145.047 111.468 143.893 110.488 143.147 111.902C144.168 111.157 144.97 111.484 146.099 111.693C146.179 111.413 146.227 111.125 146.242 110.835Z" fill="black"/>
<path opacity="0.4" d="M145.108 112.066C143.944 112.908 143.326 111.79 142.856 113.332C142.667 113.95 142.973 115.268 143.658 115.248C143.632 114.512 143.362 113.715 143.954 113.24C143.806 114.129 144.117 114.691 145.108 114.333L144.281 112.801C144.659 112.842 145.067 112.643 145.445 112.689L145.108 112.066Z" fill="black"/>
<path opacity="0.4" d="M140.389 116.514C139.26 116.218 136.568 114.926 135.644 115.758C136.809 116.274 139.429 117.602 140.389 116.514Z" fill="black"/>
<path opacity="0.4" d="M148.004 110.166C147.716 110.449 147.532 110.821 147.48 111.222C147.428 111.623 147.512 112.03 147.718 112.377C147.911 112.046 148.035 111.68 148.084 111.3C148.133 110.921 148.106 110.535 148.004 110.166Z" fill="black"/>
<path opacity="0.4" d="M147.79 113.516C147.928 114.185 148.658 114.027 149.424 114.104C149.271 113.373 148.581 113.343 147.79 113.516Z" fill="black"/>
<path opacity="0.4" d="M147.008 113.516L147.32 113.812C147.129 113.886 146.918 113.886 146.727 113.812L147.008 113.516Z" fill="black"/>
<path opacity="0.4" d="M149.536 112.377C149.536 113.909 151.018 114.374 152.09 114.859C153.163 115.345 154.399 115.835 152.713 116.933C153.525 116.816 154.22 117.352 154.858 117.296C155.198 117.321 155.54 117.321 155.88 117.296C156.145 117.234 156.283 116.346 156.549 116.341C157.33 116.341 157.228 116.632 157.923 117.132C158.55 117.68 159.302 118.065 160.114 118.251C159.169 117.107 158.127 115.268 156.973 114.39C156.462 114.001 154.297 113.011 153.602 112.995C152.775 112.995 152.529 113.312 151.733 113.915C151.426 112.888 150.956 111.473 149.536 112.377Z" fill="black"/>
<path opacity="0.4" d="M158.602 114.89C159.501 115.559 162.178 115.355 161.33 113.914C160.553 115.002 159.874 114.89 158.602 114.89Z" fill="black"/>
<path opacity="0.4" d="M149.909 118.527C149.526 119.007 148.612 120.672 148.061 120.851C147.203 121.121 146.871 120.294 146.201 120.417C144.736 120.692 143.173 123.282 141.901 124.028C139.694 125.315 138.525 124.962 138.208 127.812C138.096 128.859 138.637 130.075 138.392 131.096C138.167 132.041 136.86 132.47 138.545 132.996C140.144 133.507 143.372 131.668 145.062 131.352C145.972 131.178 146.38 130.841 147.284 131.352C148.009 131.776 148.035 132.567 148.525 133.282C151.544 137.7 156.697 133.313 158.459 130.08C159.649 127.914 159.062 126.152 157.729 124.217C157.157 123.389 156.825 123.195 156.447 122.26C155.977 121.096 155.819 119.707 155.512 118.506L153.505 122.592C151.61 121.188 150.951 121.31 152.07 119.273L149.909 118.527Z" fill="black"/>
<path opacity="0.4" d="M150.629 136.316L153.015 136.464C152.315 137.384 151.865 138.65 150.461 138.257L150.629 136.316Z" fill="black"/>
<path opacity="0.4" d="M159.532 139.452C161.36 140.418 161.381 140.075 163.107 138.941C164.037 138.329 166.437 137.552 165.15 136.306L159.532 139.452Z" fill="black"/>
<path opacity="0.4" d="M165.63 136.316C165.805 136.586 166.009 136.836 166.238 137.062C166.749 136.653 168.935 135.397 169.017 134.83C169.098 134.263 167.796 133.144 167.372 132.623L165.63 136.316Z" fill="black"/>
<path opacity="0.4" d="M174.088 122.138C173.789 122.268 173.503 122.427 173.235 122.613C174.012 123.185 174.941 123.118 174.088 122.138Z" fill="black"/>
<path opacity="0.4" d="M165.477 124.15C165.477 124.15 167.857 125.978 167.668 125.411C167.428 124.702 166.182 124.099 165.477 124.15Z" fill="black"/>
<path opacity="0.4" d="M141.078 116.739C141.405 117.919 145.507 117.004 146.727 116.739H141.078Z" fill="black"/>
<path opacity="0.4" d="M143.147 117.633C143.402 118.205 144.766 118.823 145.134 118.082L143.147 117.633Z" fill="black"/>
<path opacity="0.4" d="M104.616 119.201C103.451 120.253 101.986 121.131 101.638 122.618C101.454 123.394 100.893 126.642 101.577 127.143C103.16 128.307 103.692 124.707 103.998 123.859C104.687 121.933 105.06 121.177 104.616 119.201Z" fill="black"/>
<path opacity="0.4" d="M72.6584 71.977C73.8331 72.2937 74.3949 71.9259 75.4573 71.4663C74.8751 70.9504 71.1415 70.7206 72.6584 71.977Z" fill="black"/>
<path opacity="0.4" d="M42.1003 108.46C41.1145 110.094 40.1901 111.412 39.853 113.251C39.4035 115.702 40.0522 116.315 41.3495 118.527C41.698 119.291 42.1388 120.01 42.6621 120.667C43.418 121.438 44.7051 121.719 45.4968 122.485C46.6919 123.68 46.4161 124.763 46.5183 126.571C46.7634 130.417 46.6051 134.278 47.8718 137.95C48.5102 139.804 48.8626 141.342 50.1395 142.808C51.968 144.912 52.6371 144.973 55.39 144.973C53.1478 143.201 52.2131 142.93 52.1621 140.233C52.111 137.751 51.9016 137.036 53.4338 135.126C56.3145 131.551 60.3034 127.975 61.8408 123.711C62.3447 122.311 62.847 120.912 63.3475 119.512C63.6386 118.705 64.9563 116.484 64.7418 115.631C64.4405 114.441 60.3954 113.547 58.9601 113.005C58.3524 112.77 57.055 112.536 56.6209 112.071C55.8037 111.202 56.0795 109.445 55.3134 108.531C54.2919 107.3 50.1446 105.875 48.5306 105.405C47.3712 105.068 46.9473 105.119 45.6194 105.308C44.4497 105.472 43.1627 106.085 42.1514 106.223C41.2878 106.225 40.4282 106.106 39.5976 105.87C38.1471 105.114 38.8264 103.603 39.0307 102.423L36.1858 102.091L37.7181 98.5154C36.5178 98.8576 36.2318 99.3377 35.3686 99.7821C34.8068 100.068 33.6167 100.747 32.9272 100.39C31.395 99.5931 31.6606 96.3039 32.5697 95.1087C33.3358 94.0872 36.1756 93.3671 37.6414 93.219C40.5527 92.9278 40.4352 94.2405 41.2422 96.498C42.3352 95.1138 41.0941 93.6633 41.753 92.3609C42.2995 91.3088 44.511 90.6192 45.3946 89.7203C47.8922 87.1972 48.8677 85.1747 52.397 83.9335V84.6792L55.4258 83.4841H53.2653C53.3334 82.89 53.5572 82.3244 53.9139 81.8446L51.6411 82.1817C53.5513 81.1602 56.4881 81.533 58.1123 80.5013C59.8386 79.4032 57.6884 76.686 57.055 75.3172L54.9712 76.5481C54.1897 75.4295 55.6403 75.1333 53.8169 74.4489C52.2846 73.882 52.0548 74.4489 51.2325 75.3887C50.4102 76.3285 48.168 80.7669 46.789 80.7618C47.1925 79.0661 47.693 78.8618 46.3548 78.1161C45.4763 77.6053 42.5446 77.8403 42.9686 76.0731C43.2597 74.8626 48.3774 72.8554 49.6696 72.1199C49.4347 72.5489 49.3836 73.0648 49.1589 73.4989L51.6258 73.4632L50.0935 72.1199C52.0191 71.8798 52.3664 72.0177 53.3164 70.4038C52.0599 70.1586 51.207 70.9145 50.211 71.5223C50.4766 70.1433 48.9341 70.6132 47.9228 70.5979L40.9664 70.4906C39.1635 70.4906 37.3146 70.3169 35.5167 70.4089C34.1735 70.4804 32.8098 70.9911 31.4767 70.9809C28.1006 70.9809 25.7972 69.5253 22.4211 70.3118C18.8459 71.1393 16.8029 72.7788 13.8048 74.8422C14.1674 75.2661 14.5351 75.69 14.9029 76.1088L12.3491 77.9016C15.0101 77.0078 18.6926 74.9699 21.4609 75.1078C23.0698 75.1895 24.7859 75.6798 25.1894 76.8648C25.5929 78.0497 25.3171 80.1489 24.9749 81.2981C24.1985 83.9131 20.3321 87.8408 22.1606 90.8031C22.3956 91.1862 23.1821 91.2322 23.4375 91.6408C23.8716 92.3303 23.4937 93.837 23.6827 94.6389C23.9176 95.6604 24.7042 97.8004 26.027 97.7391C25.1638 95.788 24.5816 94.4192 24.3977 92.3354C25.93 92.7593 27.4213 96.4214 27.7023 97.6778C27.8248 98.2294 27.5695 99.0058 27.7891 99.445C28.0853 100.037 30.21 101.212 30.7821 101.452C31.5788 101.784 32.6208 101.452 33.3767 101.805C33.9385 102.055 34.8579 103.097 35.4197 103.495C35.8385 103.786 36.3646 103.725 36.7374 104.052C37.1103 104.379 37.2482 105.125 37.6108 105.528C38.2595 106.223 39.3627 106.652 40.2207 107.137C40.7059 105.017 41.8551 107.867 42.1003 108.46Z" fill="black"/>
<path opacity="0.4" d="M38.9387 98.1936C41.0175 97.3917 42.2433 99.8178 44.3169 99.4245C42.0901 98.2702 41.2882 97.2998 38.9387 98.1936Z" fill="black"/>
<path opacity="0.4" d="M44.7918 99.6953C45.8133 99.8025 47.223 99.5421 47.5192 100.63C46.2883 100.85 45.2515 101.207 44.1125 100.518C44.4956 100.518 44.9042 100.364 45.2873 100.349L44.7918 99.6953Z" fill="black"/>
<path opacity="0.4" d="M42.0439 100.349C42.4141 100.409 42.7807 100.489 43.1421 100.589C42.7966 100.777 42.4271 100.916 42.0439 101.003V100.349Z" fill="black"/>
<path opacity="0.4" d="M48.0659 100.349C48.1936 100.531 48.3805 100.663 48.5947 100.723C48.809 100.783 49.0373 100.766 49.2406 100.676C48.878 100.569 48.4643 100.436 48.0659 100.349Z" fill="black"/>
<path opacity="0.4" d="M57.9539 80.7413L56.054 82.5595L59.3483 83.3818C59.3023 82.9069 59.4096 81.9671 59.1746 81.5329C58.8937 80.9915 57.8467 82.0181 57.9539 80.7413Z" fill="black"/>
<path opacity="0.4" d="M56.054 71.4662L52.8005 72.9167C53.7454 73.2538 55.865 74.4847 56.8201 74.3366C57.7752 74.1885 59.3228 72.4673 60.1144 71.8748C59.0929 70.9197 57.6577 68.9839 56.34 68.5192C55.443 68.2474 54.4932 68.1984 53.573 68.3764C52.6528 68.5544 51.7898 68.954 51.0588 69.5407C51.4164 69.842 51.9373 70.5162 52.3868 70.6592C52.6983 70.7613 53.2448 70.1893 53.5717 70.2455C54.4962 70.4038 55.7475 70.5111 56.054 71.4662Z" fill="black"/>
<path opacity="0.4" d="M54.9609 71.0169C53.5104 71.4357 54.3888 71.8852 55.3797 71.3335L54.9609 71.0169Z" fill="black"/>
<path opacity="0.4" d="M48.4847 71.0167C46.2629 69.4844 50.8137 67.8092 52.1213 67.8092C51.4522 68.1973 49.9608 68.7336 49.6186 69.3414C49.1742 70.1637 50.257 71.5172 48.4847 71.0167Z" fill="black"/>
<path opacity="0.4" d="M39.0152 71.0166C39.0152 70.4037 39.8835 69.372 40.1849 68.8153C39.3013 69.0502 37.9988 69.8776 37.6311 68.8153C39.2349 68.2739 40.1031 67.8448 41.6865 68.1411C43.5354 68.4884 44.0717 68.8408 45.9614 68.519C45.6192 69.3873 45.1902 70.0819 45.4507 71.0166H39.0152Z" fill="black"/>
<path opacity="0.4" d="M41.5896 67.176C43.8931 68.269 45.1648 67.9319 47.7186 67.6408C46.8503 67.4467 45.6756 66.793 44.8737 66.6908C43.9135 66.5682 42.5651 67.0381 41.5896 67.176Z" fill="black"/>
<path opacity="0.4" d="M48.1833 68.1106C47.6781 68.2012 47.1823 68.338 46.7021 68.5192C46.8524 68.8496 47.0579 69.1519 47.3099 69.4131L49.4296 68.1106C49.0145 68.0877 48.5984 68.0877 48.1833 68.1106Z" fill="black"/>
<path opacity="0.4" d="M48.9749 67.2525C49.9657 67.896 52.8617 67.5947 54.0517 67.6815C55.6912 67.8041 56.013 67.6815 57.4839 66.9511C60.1858 65.5925 62.9285 65.1431 65.9113 64.4893C62.8111 64.4893 59.4605 64.1267 56.3909 64.4893C54.7259 64.6885 49.0821 65.2861 48.9749 67.2525Z" fill="black"/>
<path opacity="0.4" d="M61.0337 66.9615C63.6947 66.1392 65.896 65.4956 68.6949 65.3117C71.4228 65.1193 74.1636 65.2307 76.8669 65.6437C75.6054 66.9257 74.1957 69.0249 72.5715 69.8012C71.3968 70.3631 69.7879 70.1179 68.6132 70.6797C67.7041 71.119 66.8767 72.1456 66.1156 72.7993C64.1952 74.4695 63.281 72.6104 63.613 70.6286C63.7458 69.8114 64.7673 68.3967 63.8581 67.5641C63.2095 67.0381 61.759 67.5795 61.0337 66.9615Z" fill="black"/>
</g>
</mask>
<g mask="url(#mask0)">
<path d="M80.1256 155.3C107.047 155.3 128.872 133.476 128.872 106.554C128.872 79.6324 107.047 57.808 80.1256 57.808C53.2039 57.808 31.3796 79.6324 31.3796 106.554C31.3796 133.476 53.2039 155.3 80.1256 155.3Z" fill="white"/>
</g>
<path d="M80.4021 170.878C80.2666 170.878 80.1367 170.824 80.041 170.729C79.9452 170.633 79.8914 170.503 79.8914 170.367V163.513C79.8914 163.378 79.9452 163.248 80.041 163.152C80.1367 163.056 80.2666 163.002 80.4021 163.002C80.5376 163.002 80.6675 163.056 80.7633 163.152C80.859 163.248 80.9129 163.378 80.9129 163.513V170.367C80.9129 170.503 80.859 170.633 80.7633 170.729C80.6675 170.824 80.5376 170.878 80.4021 170.878Z" fill="#224763"/>
<path d="M95.0403 170.368C95.0403 171.195 88.4874 171.864 80.4022 171.864C72.3171 171.864 65.759 171.195 65.759 170.368C65.759 169.54 72.3171 167.477 80.4022 167.477C88.4874 167.477 95.0403 169.54 95.0403 170.368Z" fill="#224763"/>
</svg>
