<svg width="200" height="203" viewBox="0 0 200 203" fill="none" xmlns="http://www.w3.org/2000/svg">
<path d="M104.444 202.11C155.074 202.11 196.118 199.714 196.118 196.758C196.118 193.802 155.074 191.406 104.444 191.406C53.8142 191.406 12.7704 193.802 12.7704 196.758C12.7704 199.714 53.8142 202.11 104.444 202.11Z" fill="#F1F3F5"/>
<path fill-rule="evenodd" clip-rule="evenodd" d="M53.986 84.9953C53.986 96.9323 46.2109 103.592 36.084 103.592C25.957 103.592 18.1818 96.9323 18.1818 84.9953C18.1818 59.8624 29.608 30.888 36.084 30.888C42.5599 30.888 53.986 59.8624 53.986 84.9953Z" fill="#E5E9EC"/>
<path fill-rule="evenodd" clip-rule="evenodd" d="M36.0839 67.2398V122.259V67.2398Z" fill="#E5E9EC"/>
<path d="M36.0839 67.2398V122.259" stroke="#F1F3F5" stroke-width="2" stroke-linecap="square"/>
<path fill-rule="evenodd" clip-rule="evenodd" d="M36.3636 96.4336L42.6574 90.1177L36.3636 96.4336Z" fill="#E5E9EC"/>
<path d="M36.3636 96.4336L42.6574 90.1177" stroke="#F1F3F5" stroke-width="2" stroke-linecap="square"/>
<path fill-rule="evenodd" clip-rule="evenodd" d="M35.5245 84.3631L30.3497 79.17L35.5245 84.3631Z" fill="#E5E9EC"/>
<path d="M35.5245 84.3631L30.3497 79.17" stroke="#F1F3F5" stroke-width="2" stroke-linecap="square"/>
<path fill-rule="evenodd" clip-rule="evenodd" d="M36.3636 76.2226L40.4196 72.2926L36.3636 76.2226Z" fill="#E5E9EC"/>
<path d="M36.3636 76.2226L40.4196 72.2926" stroke="#F1F3F5" stroke-width="2" stroke-linecap="square"/>
<path fill-rule="evenodd" clip-rule="evenodd" d="M178.613 55.7003H129.371C129.371 55.7003 134.01 48.9107 137.824 48.8044C142.375 48.6777 144.425 53.7004 148.796 53.7004C153.167 53.7004 156.094 41.4146 164.186 41.4146C172.825 41.4146 178.613 55.7003 178.613 55.7003Z" fill="#F1F3F5"/>
<ellipse cx="119.497" cy="156.232" rx="42.1384" ry="1.57233" fill="#F1F3F5"/>
<g opacity="0.3" clip-path="url(#clip0)">
<path d="M97.0232 143.573C97.0367 149.701 102.033 154.646 108.178 154.646C113.944 154.633 118.752 150.238 119.252 144.514C119.265 144.339 119.279 144.151 119.279 143.976V143.963C119.279 143.828 119.292 143.694 119.292 143.56C119.292 137.432 114.309 132.473 108.151 132.473C101.993 132.473 97.0232 137.445 97.0232 143.573Z" fill="#748494"/>
<path d="M108.164 149.62C104.808 149.62 102.087 146.913 102.087 143.573C102.087 140.233 104.808 137.526 108.164 137.526C111.521 137.526 114.242 140.233 114.242 143.573C114.242 146.913 111.521 149.62 108.164 149.62Z" fill="#D5DCE1"/>
<path d="M108.164 147.201C106.151 147.201 104.518 145.577 104.518 143.573C104.518 141.569 106.151 139.945 108.164 139.945C110.178 139.945 111.811 141.569 111.811 143.573C111.811 145.577 110.178 147.201 108.164 147.201Z" fill="#748494"/>
<path d="M137.429 122.516L164.263 123.053V119.116C164.02 115.944 160.752 114.843 157.781 114.493C155.458 114.224 153.108 114.412 150.853 115.004C145.154 116.509 141.535 116.791 139.752 116.818C138.942 116.831 138.253 117.409 138.104 118.202C138.023 118.645 137.942 119.143 137.861 119.626C137.807 120.003 137.74 120.379 137.699 120.728C137.524 121.736 137.429 122.516 137.429 122.516Z" fill="#748494"/>
<path d="M116.024 144.285H171.758C172.636 144.299 173.433 143.775 173.784 142.982C174.202 141.987 173.622 141.342 172.987 140.966C171.704 140.214 170.732 139.031 170.245 137.62C169.651 135.873 169.071 133.145 168.841 128.872C168.611 124.451 167.004 122.274 165.262 121.212C163.02 119.841 160.563 120.366 160.563 120.366L137.969 120.54C137.564 120.728 137.2 120.957 136.862 121.252C134.85 123.12 137.78 125.553 137.78 125.553C144.087 132.178 139.306 138.897 139.306 138.897H127.746C125.586 138.91 123.479 138.265 121.696 137.056C120.13 135.981 119.535 134.946 119.292 134.314C119.117 133.831 118.928 133.347 118.712 132.89C115.673 126.346 119.333 115.689 120.913 111.711C121.318 110.73 121.588 110.153 121.588 110.153L117.969 109.884L115.673 109.709H115.646C110.595 118.377 108.718 127.3 108.084 133.898C108.03 134.516 107.975 135.121 107.935 135.698C107.651 140.146 111.028 143.976 115.498 144.258C115.673 144.285 115.849 144.285 116.024 144.285Z" fill="#A5B2BD"/>
<path d="M174.918 119.895H136.632C136.322 119.895 136.079 120.137 136.079 120.446C136.079 120.755 136.322 120.997 136.632 120.997H174.918C175.229 120.997 175.472 120.755 175.472 120.446C175.472 120.137 175.229 119.895 174.918 119.895Z" fill="#DBE9FF"/>
<path d="M108.083 133.898C109.366 135.282 110.312 135.833 110.271 134.368C110.136 129.933 117.969 109.884 117.969 109.884L115.646 109.709C110.582 118.377 108.705 127.286 108.083 133.898Z" fill="#748494"/>
<path d="M121.399 144.285C121.399 144.285 108.61 142.901 113.013 123.51C113.013 123.51 106.693 129.275 102.763 132.473C98.8328 135.672 91.8239 140.093 91.8239 140.093C91.8239 140.093 96.0104 143.99 121.399 144.285Z" fill="#D5DCE1"/>
<path d="M155.566 154.66C149.413 154.66 144.424 149.696 144.424 143.573C144.424 137.45 149.413 132.487 155.566 132.487C161.719 132.487 166.707 137.45 166.707 143.573C166.707 149.696 161.719 154.66 155.566 154.66Z" fill="#748494"/>
<path d="M155.566 149.62C152.21 149.62 149.489 146.913 149.489 143.573C149.489 140.233 152.21 137.526 155.566 137.526C158.922 137.526 161.643 140.233 161.643 143.573C161.643 146.913 158.922 149.62 155.566 149.62Z" fill="#D5DCE1"/>
<path d="M155.566 147.201C153.552 147.201 151.92 145.577 151.92 143.573C151.92 141.569 153.552 139.945 155.566 139.945C157.58 139.945 159.212 141.569 159.212 143.573C159.212 145.577 157.58 147.201 155.566 147.201Z" fill="#748494"/>
<path d="M143.547 140.132C143.547 133.238 149.043 127.648 155.836 127.648C162.629 127.648 168.125 133.238 168.125 140.132C168.125 140.427 168.112 140.71 168.098 140.992H143.574C143.56 140.723 143.547 140.427 143.547 140.132Z" fill="#D5DCE1"/>
<path d="M172.784 140.885H141.197C140.36 140.885 139.684 141.651 139.684 142.592C139.684 143.533 140.36 144.299 141.197 144.299H172.784C173.622 144.299 174.297 143.533 174.297 142.592C174.297 141.651 173.622 140.885 172.784 140.885Z" fill="#E5E9EC"/>
<path d="M110.142 122.063C109.326 121.696 109.417 119.743 110.345 117.701C111.273 115.659 112.687 114.301 113.502 114.668C114.318 115.034 114.226 116.988 113.298 119.03C112.37 121.072 110.957 122.43 110.142 122.063Z" fill="#D5DCE1"/>
<path d="M115.66 111.55H119.778C123.398 111.55 126.328 108.863 126.328 105.53V104.979C126.328 101.66 123.398 98.9587 119.778 98.9587L115.66 99.335V111.55Z" fill="#A5B2BD"/>
<path d="M122.452 102.52C122.452 102.52 119.995 103.837 121.399 106.041C121.399 106.041 123.141 108.876 125.869 108.607L126.868 102.506C126.868 102.52 123.6 102.211 122.452 102.52Z" fill="#748494"/>
<path d="M115.66 99.335H114.863C113.472 99.335 112.351 100.45 112.351 101.834V109.051C112.351 110.435 113.472 111.55 114.863 111.55H115.66V99.335Z" fill="#DBE9FF"/>
<path d="M127.152 108.997C125.638 108.997 124.411 107.517 124.411 105.691C124.411 103.865 125.638 102.385 127.152 102.385C128.666 102.385 129.893 103.865 129.893 105.691C129.893 107.517 128.666 108.997 127.152 108.997Z" fill="#D5DCE1"/>
<path d="M149.772 97.4268L155.039 102.6L172.352 102.291L167.585 97.4268H149.772Z" fill="#A5B2BD"/>
<path d="M149.772 115.111V97.4268L155.039 102.6V119.895L149.772 115.111Z" fill="#D5DCE1"/>
<path d="M172.352 102.291V119.895H155.039V102.6L172.352 102.291Z" fill="#E5E9EC"/>
<g clip-path="url(#clip1)">
<path d="M167.933 111.05C167.933 108.463 165.824 106.365 163.222 106.365C160.62 106.365 158.51 108.463 158.51 111.05C158.51 113.638 160.62 115.735 163.222 115.735C165.824 115.735 167.933 113.638 167.933 111.05Z" fill="#405261"/>
<path fill-rule="evenodd" clip-rule="evenodd" d="M162.171 107.924L162.171 108.96L161.138 108.96L161.138 110.005L160.105 110.005L160.105 112.091L161.138 112.091L161.138 113.132L162.171 113.132L162.171 114.177L164.237 114.177L164.237 113.132L165.269 113.132L165.269 112.086L166.302 112.086L166.302 110.001L165.269 110.001L165.269 108.955L164.237 108.955L164.237 107.919L162.171 107.919L162.171 107.924Z" fill="#A5B2BD"/>
<path fill-rule="evenodd" clip-rule="evenodd" d="M162.687 108.437L162.687 109.482L161.654 109.482L161.654 110.528L160.621 110.528L160.621 111.568L161.654 111.568L161.654 112.613L162.687 112.613L162.687 113.654L163.72 113.654L163.72 112.609L164.753 112.609L164.753 111.564L165.781 111.564L165.781 110.519L164.753 110.519L164.753 109.473L163.72 109.473L163.72 108.437L162.687 108.437Z" fill="white"/>
<path fill-rule="evenodd" clip-rule="evenodd" d="M162.687 109.482L162.687 110.528L161.654 110.528L161.654 111.568L162.687 111.568L162.687 112.613L163.72 112.613L163.72 111.568L164.753 111.568L164.753 110.523L163.72 110.523L163.72 109.478L162.687 109.478L162.687 109.482Z" fill="#748494"/>
</g>
</g>
<path d="M54.3249 62.3628C54.3249 62.3628 53.5388 60.4403 48.6959 61.0105C43.8531 61.5808 43.3521 67.9917 40.9327 72.5495C38.5133 77.1072 35.9432 79.3189 35.9432 79.3189C35.9432 79.3189 35.5889 82.0967 40.8594 83.6648C46.1299 85.2329 56.4592 82.614 56.4592 82.614C56.4592 82.614 57.7951 70.4804 55.8116 66.778C53.828 63.0756 54.3249 62.3628 54.3249 62.3628Z" fill="#1D2B36"/>
<path d="M68.4828 183.564L61.9211 183.972C61.9211 183.972 59.1392 158.686 56.0763 140.276C56.0763 140.215 56.0763 140.146 56.0478 140.076C54.7933 132.562 53.494 126.228 52.321 123.259C52.321 123.259 50.8139 146.83 50.3659 157.293C49.9179 167.757 47.8284 186.065 47.8284 186.065L41.7636 186.965C41.7636 186.965 40.7617 150.52 41.3563 143.636C41.951 136.753 39.2424 111.256 43.9101 104.942H60.7929C60.7929 104.942 67.3301 140.761 67.8026 150.691C68.2751 160.621 68.4828 183.564 68.4828 183.564Z" fill="#405261"/>
<path d="M46.4028 186.147L46.3051 188.102L46.077 192.627L42.6801 193.132L42.6027 188.248L42.5742 186.371L46.4028 186.147Z" fill="#CF8362"/>
<path d="M67.0246 191.104L63.2245 192.163C63.2245 192.163 63.1349 189.878 63.0453 187.682C62.9882 186.269 62.9312 184.892 62.8946 184.188C62.8946 183.915 62.8701 183.748 62.862 183.711L66.9595 183.304V184.591L66.988 187.499L67.0246 191.104Z" fill="#CF8362"/>
<path d="M47.4455 191.625C47.4455 191.625 48.0768 189.096 49.0747 189.222C50.0726 189.348 47.4455 191.625 47.4455 191.625Z" stroke="#748494" stroke-miterlimit="10"/>
<path d="M47.7307 191.625C47.7307 191.625 50.1052 189.951 50.5451 190.81C50.985 191.67 47.7307 191.625 47.7307 191.625Z" stroke="#748494" stroke-miterlimit="10"/>
<path d="M68.4828 191.882C68.4828 191.882 69.0123 189.206 69.611 189.206C70.2098 189.206 68.4828 191.882 68.4828 191.882Z" stroke="#748494" stroke-miterlimit="10"/>
<path d="M68.3565 192.712C68.3565 192.712 69.7495 189.971 70.4786 190.562C71.2077 191.152 68.3565 192.712 68.3565 192.712Z" stroke="#748494" stroke-miterlimit="10"/>
<path d="M50.4107 194.908C50.4107 194.908 43.1688 195.095 42.6434 195.03C42.118 194.965 41.5355 194.936 41.4948 194.366C41.4948 194.089 41.7433 192.407 41.784 191.82C41.8247 191.234 41.6781 190.928 42.4153 190.741C43.1525 190.554 46.7327 190.138 47.1645 190.582C47.5962 191.026 49.0707 192.716 50.1622 192.912C51.2538 193.107 52.1703 193.03 52.2476 193.649C52.325 194.268 52.3495 194.863 50.4107 194.908Z" fill="#1D2B36"/>
<path d="M71.2606 194.908C71.2606 194.908 64.0228 195.095 63.4933 195.03C62.9638 194.965 62.4425 194.806 62.3569 194.541C62.2714 194.276 62.5972 192.407 62.6339 191.82C62.6706 191.234 62.528 190.928 63.2652 190.741C64.0024 190.554 67.5827 190.138 68.0144 190.582C68.4461 191.026 69.9206 192.716 71.0162 192.912C72.1119 193.107 73.0202 193.03 73.0976 193.649C73.1749 194.268 73.1994 194.863 71.2606 194.908Z" fill="#1D2B36"/>
<path opacity="0.3" d="M56.0478 140.072C54.7933 132.558 53.494 126.224 52.321 123.255L53.0989 118.986C53.0989 118.986 55.1151 134.219 56.0478 140.072Z" fill="#405261"/>
<path opacity="0.2" d="M46.3947 186.147L46.2969 188.102C45.3438 188.138 43.4458 188.208 42.5945 188.248L42.566 186.371L46.3947 186.147Z" fill="#405261"/>
<path opacity="0.2" d="M66.9961 187.495L63.0453 187.682C62.9882 186.269 62.9312 184.892 62.8946 184.188L66.9676 184.595L66.9961 187.495Z" fill="#405261"/>
<path d="M69.6029 183.3L68.996 186.399L61.7623 186.961L60.8132 183.3H69.6029Z" fill="#405261"/>
<path d="M48.8018 184.31L48.1664 187.373L40.615 187.731L40.6191 184.31H48.8018Z" fill="#405261"/>
<path d="M71.1995 95.4807C69.5703 96.2587 65.09 97.1099 65.09 97.1099C65.09 97.1099 62.1574 89.53 61.3835 85.2207C61.1407 83.6801 60.4048 82.2599 59.2863 81.173C58.1679 80.0861 56.7271 79.3912 55.1802 79.1926C53.2007 78.936 44.8428 79.0215 41.9102 79.6244C38.9777 80.2272 38.4685 84.5324 38.2079 87.1187C37.9472 89.7051 36.3139 99.3379 37.6906 102.189C39.0673 105.04 43.8938 103.908 43.8938 103.908V104.942H60.7807L60.3734 97.0407C60.3734 97.0407 61.97 101.236 64.4464 101.407C66.9228 101.578 72.5436 97.448 72.5436 97.448L71.1995 95.4807ZM41.4663 99.9C41.4663 99.9 41.6536 94.9797 41.9876 93.5623L42.4968 96.1894L43.2136 99.9H41.4663Z" fill="#EEC200"/>
<path d="M52.2069 98.7839L54.8625 95.5703L58.5894 95.0001L59.1596 98.3115L56.3085 99.3542C56.3085 99.3542 54.9359 101.008 52.1947 100.723L52.2069 98.7839Z" fill="#CF8362"/>
<path d="M71.1995 95.4807L72.5803 92.9473L75.9487 91.5299L77.2236 94.9797L74.4335 96.0672C74.4335 96.0672 73.7044 97.672 72.5803 97.4643L71.1995 95.4807Z" fill="#CF8362"/>
<path d="M52.2639 76.1052C52.2457 76.3982 52.2457 76.692 52.2639 76.985C52.3047 77.543 52.1988 78.5654 53.2944 79.103C52.7283 80.3249 51.3638 83.3878 50.537 84.4265C49.2784 83.396 46.3214 79.2374 46.3214 79.2374C46.3214 79.2374 48.3986 76.985 46.9079 72.7409C46.9079 72.7409 44.8143 71.2094 45.2339 70.3663C45.7145 69.3847 47.0789 69.9142 47.3681 70.3297C47.0626 69.8816 45.6412 64.9655 47.3681 63.157C48.4434 62.0288 49.5187 62.0166 51.5226 61.9351H51.6896C52.9726 61.8903 53.9257 61.9351 53.9257 61.9351C54.3613 62.4043 54.745 62.9192 55.0703 63.4707C55.979 64.9543 56.5363 66.6261 56.6995 68.3583C57.0783 72.3947 56.284 75.6654 52.2639 76.1052Z" fill="#CF8362"/>
<path d="M53.3718 71.0872C53.3718 71.0872 51.5471 71.7063 50.8832 70.3215" stroke="#1D2B36" stroke-width="0.5" stroke-linecap="round" stroke-linejoin="round"/>
<path d="M51.1683 65.2628C50.8631 65.2538 50.5615 65.3307 50.2979 65.4849C50.0344 65.639 49.8194 65.864 49.6776 66.1344" stroke="#1D2B36" stroke-linecap="round" stroke-linejoin="round"/>
<path d="M55.8115 64.8433C55.6636 64.6815 55.4846 64.5512 55.2851 64.4602C55.0857 64.3692 54.8699 64.3194 54.6507 64.3138" stroke="#1D2B36" stroke-linecap="round" stroke-linejoin="round"/>
<path d="M54.1335 70.3378L53.775 67.2871L55.5712 69.5924C55.5712 69.5924 55.3961 70.3867 54.1335 70.3378Z" fill="#BF0711"/>
<path d="M51.1846 67.3115C51.2049 67.6211 51.3882 67.8614 51.5919 67.8492C51.7955 67.837 51.9381 67.5722 51.9137 67.2586C51.8892 66.945 51.7141 66.7087 51.5064 66.725C51.2986 66.7413 51.1601 67.0142 51.1846 67.3115Z" fill="#1D2B36"/>
<path d="M54.7363 66.8024C54.7607 67.116 54.9399 67.3563 55.1436 67.34C55.3472 67.3238 55.4898 67.0631 55.4653 66.7495C55.4409 66.4358 55.2617 66.1996 55.058 66.2159C54.8544 66.2322 54.7159 66.4929 54.7363 66.8024Z" fill="#1D2B36"/>
<path d="M46.1299 68.0732C46.1299 68.0732 44.0486 65.2832 45.7674 63.4747C46.8427 62.3465 49.7346 61.6093 51.7344 61.5237C51.6896 61.9962 51.7344 66.1344 46.1299 68.0732Z" fill="#1D2B36"/>
<path d="M55.1029 63.4829C53.8242 63.3537 52.6241 62.8052 51.6896 61.9229L51.5308 61.7559C52.333 61.7227 53.1364 61.7801 53.9257 61.927C54.3613 62.3962 54.745 62.911 55.0703 63.4625L55.1029 63.4829Z" fill="#1D2B36"/>
<path opacity="0.2" d="M52.2762 76.985C51.391 76.7159 50.6056 76.1899 50.0197 75.4739C50.7213 75.824 51.4827 76.0382 52.2639 76.1052C52.2497 76.3985 52.2538 76.6923 52.2762 76.985Z" fill="#405261"/>
<path opacity="0.2" d="M42.5009 96.1894L41.9917 93.5623V89.7907C41.9917 89.7907 42.5782 93.77 42.5009 96.1894Z" fill="#405261"/>
<path d="M117.355 83.9874L100.73 84.9285L102.024 107.778L118.648 106.837L117.355 83.9874Z" fill="#A36D1C"/>
<path opacity="0.3" d="M106.564 84.6003L100.306 84.9545L101.6 107.804L107.858 107.45L106.564 84.6003Z" fill="white"/>
<path opacity="0.3" d="M112.059 90.62L107.806 90.8752L107.892 92.3103L112.145 92.0551L112.059 90.62Z" fill="#405261"/>
<path opacity="0.5" d="M85.0556 88.6773L78.7281 89.0355L78.9237 92.4921L85.2513 92.1339L85.0556 88.6773Z" fill="white"/>
<path opacity="0.3" d="M114.323 94.745L107.806 95.1139L107.908 96.9233L114.425 96.5543L114.323 94.745Z" fill="#405261"/>
<path d="M125.933 65.1528L124.304 67.2301C124.755 67.5451 125.274 67.7502 125.819 67.8288L125.933 65.1528Z" fill="#BF0711"/>
<path d="M154.053 192.55L149.321 192.281L148.359 188.244L147.834 186.033L147.638 185.218L151.28 184.97L151.54 184.949L152.314 187.291L154.053 192.55Z" fill="#CF7E65"/>
<path d="M126.837 193.213C126.927 193.535 122.442 192.961 122.442 192.961L122.284 189.193L122.161 186.285V186.126H122.198L126.752 186.578C126.752 186.578 126.752 187.8 126.752 189.189C126.76 190.973 126.784 193.038 126.837 193.213Z" fill="#CF7E65"/>
<path d="M136.336 76.0767C136.336 76.0767 129.941 77.8078 130.413 76.5533C130.651 75.794 130.747 74.9971 130.694 74.2031C130.694 73.6818 130.629 73.3111 130.629 73.3111C128.316 73.4455 126.76 71.7715 126.067 69.7106C125.175 67.0672 125.501 64.1142 126.585 61.6052C126.67 61.4016 126.915 60.5381 127.131 60.4322L129.64 59.2754C129.64 59.2754 132.083 60.8761 133.354 61.87C134.625 62.8638 135.647 67.4826 135.647 71.075C135.647 74.6675 136.336 76.0767 136.336 76.0767Z" fill="#CF7E65"/>
<path d="M125.742 64.3912C125.629 64.4221 125.528 64.488 125.455 64.5795C125.382 64.6709 125.34 64.7833 125.334 64.9003C125.318 65.009 125.334 65.1202 125.382 65.2192C125.43 65.3181 125.507 65.4001 125.603 65.4542L125.742 64.3912Z" fill="#1D2B36"/>
<path d="M125.742 62.3221C126.008 62.3161 126.27 62.3883 126.495 62.5298" stroke="#1D2B36" stroke-linecap="round" stroke-linejoin="round"/>
<path d="M127.966 68.9326C127.966 68.9326 129.823 71.8326 132.78 72.4965C135.737 73.1604 136.67 72.134 137.065 70.46C137.407 68.8816 138.165 67.4234 139.26 66.2363C140.282 65.1813 139.667 62.318 138.368 59.9638C138.368 59.9638 139.761 58.7948 137.517 57.6706C135.273 56.5465 134.446 58.416 132.499 57.3244C130.552 56.2329 133.151 55.8704 131.314 59.2754C129.477 62.6805 128.462 60.2041 128.19 61.7193C127.917 63.2344 126.495 65.8656 127.966 68.9326Z" fill="#1D2B36"/>
<path d="M128.19 62.4239C128.006 62.3628 122.117 60.2326 122.06 59.2673C122.003 58.302 126.625 60.0574 126.801 60.1267L127.994 62.0125L128.19 62.4239Z" fill="#1265E5"/>
<path d="M140.075 64.7577C140.018 64.9329 139.667 66.0937 139.517 66.0937L139.024 66.0652C138.565 66.0272 138.109 65.9742 137.655 65.9063C137.154 65.8289 136.661 65.7312 136.177 65.6172H136.156C135.664 65.499 135.179 65.3687 134.706 65.2098C133.547 64.8597 132.408 64.4422 131.297 63.9594C130.67 63.6865 130.116 63.4218 129.668 63.1937C128.752 62.7375 128.206 62.4157 128.206 62.4157L128.124 62.2813L127.79 61.7559L127.078 60.6277L126.833 60.2489V60.2204C126.822 60.186 126.822 60.1488 126.833 60.1145C126.858 59.6827 127.742 58.4852 127.9 58.2816C128.555 57.4072 129.388 56.6824 130.344 56.1555C131.656 55.4305 133.134 55.7482 134.527 55.9925C134.988 56.0882 135.437 56.233 135.867 56.4243L136.14 56.5424L136.193 56.5668C136.242 56.5954 136.295 56.6157 136.344 56.6402L136.433 56.685C137.468 57.1697 138.41 57.8329 139.215 58.6441C141.048 60.701 140.303 64.0938 140.075 64.7577Z" fill="#DBE9FF"/>
<path d="M138.083 78.264C138.083 78.264 137.79 76.2274 137.15 75.8201C136.511 75.4128 130.157 75.4739 129.167 76.1704C128.177 76.8669 128.352 79.1437 128.352 79.1437L138.083 78.264Z" fill="#E5E9EC"/>
<path d="M126.805 65.7149C126.805 65.7149 127.888 64.3138 129.049 65.1813C130.21 66.0489 129.289 68.1058 127.925 68.6842C127.925 68.6842 126.161 69.2585 125.933 67.4622C125.705 65.666 126.805 65.7149 126.805 65.7149Z" fill="#CF7E65"/>
<path d="M122.459 114.477C122.459 114.477 120.035 137.665 119.359 148.328C118.683 158.992 121.168 186.261 121.168 186.261H127.061C127.061 186.261 127.737 159.171 128.756 151.045C129.774 142.919 133.155 131.902 133.155 131.902C133.155 131.902 135.191 149.339 137.228 156.45C139.264 163.562 145.879 185.287 145.879 185.287L152.664 183.984C152.664 183.984 144.518 156.112 144.518 147.477C144.518 138.842 144.596 121.41 142.567 114.486L122.459 114.477Z" fill="#1265E5"/>
<path opacity="0.3" d="M134.205 139.966C133.558 135.441 133.151 131.914 133.151 131.914L133.558 125.585L134.205 139.966Z" fill="#405261"/>
<path d="M120.528 185.128H127.591L127.245 188.037H120.805L120.528 185.128Z" fill="#1D2B36"/>
<path d="M145.019 184.705L152.656 181.866L153.622 185.996L146.168 188.037L145.019 184.705Z" fill="#1D2B36"/>
<path opacity="0.2" d="M151.28 184.97L147.834 186.033L148.359 188.244L152.314 187.291L151.28 184.97Z" fill="#405261"/>
<path opacity="0.2" d="M126.752 189.206H122.271L122.149 186.297L122.178 186.143L126.731 186.595C126.731 186.595 126.744 187.8 126.752 189.206Z" fill="#405261"/>
<path d="M120.117 194.659C120.145 194.737 117.298 193.079 118.08 192.305C118.862 191.531 120.117 194.659 120.117 194.659Z" stroke="#1265E5" stroke-miterlimit="10"/>
<path d="M120.524 194.541C120.504 194.623 118.936 191.727 120.003 191.47C121.07 191.214 120.524 194.541 120.524 194.541Z" stroke="#1265E5" stroke-miterlimit="10"/>
<path d="M148.665 192.9C148.665 192.9 147.732 189.898 146.828 190.391C145.924 190.884 148.665 192.9 148.665 192.9Z" stroke="#1265E5" stroke-miterlimit="10"/>
<path d="M148.412 193.16C148.412 193.16 146.306 190.835 145.691 191.649C145.076 192.464 148.412 193.16 148.412 193.16Z" stroke="#1265E5" stroke-miterlimit="10"/>
<path d="M154.229 192.273H149.17C149.17 192.273 146.245 194.032 144.962 194.195C143.679 194.358 142.926 194.435 142.962 195.356C142.999 196.276 143.777 196.358 146.404 196.317C149.031 196.276 154.245 196.598 154.811 196.077C155.377 195.555 155.019 194.574 154.229 192.273Z" fill="#1D2B36"/>
<path d="M126.837 192.9L121.95 192.936C121.95 192.936 119.025 194.696 117.746 194.859C116.467 195.022 115.71 195.099 115.742 196.02C115.775 196.94 116.557 197.022 119.188 196.981C121.819 196.94 126.458 197.319 127.025 196.798C127.591 196.276 127.277 195.421 126.837 192.9Z" fill="#1D2B36"/>
<path opacity="0.3" d="M126.732 60.1548C126.858 60.8024 126.988 61.2993 128.06 62.4275C126.699 61.9225 122.04 60.1222 121.991 59.2953C121.942 58.4685 125.559 59.7108 126.732 60.1548Z" fill="#405261"/>
<path opacity="0.3" d="M126.801 60.2285C126.789 60.1941 126.789 60.157 126.801 60.1226C126.801 60.1226 126.801 60.1674 126.801 60.253V60.2285Z" fill="#405261"/>
<path opacity="0.3" d="M128.19 62.4239L128.063 62.375C128.07 62.3579 128.078 62.3416 128.088 62.3261L128.19 62.4239Z" fill="#405261"/>
<path d="M140.075 64.7577C140.018 64.9329 139.667 66.0937 139.517 66.0937L139.024 66.0652C138.565 66.0272 138.109 65.9742 137.655 65.9063C137.154 65.8289 136.661 65.7312 136.177 65.6172H136.156C135.664 65.499 135.179 65.3687 134.706 65.2098C133.547 64.8597 132.408 64.4422 131.297 63.9594C130.67 63.6865 130.116 63.4218 129.668 63.1937C128.752 62.7375 128.206 62.4157 128.206 62.4157L128.124 62.2813L127.79 61.7559L127.078 60.6277L126.833 60.2489V60.2204C126.822 60.186 126.822 60.1488 126.833 60.1145C126.858 59.6827 127.742 58.4852 127.9 58.2816C128.555 57.4072 129.388 56.6824 130.344 56.1555C131.656 55.4305 133.134 55.7482 134.527 55.9925C134.988 56.0882 135.437 56.233 135.867 56.4243L136.14 56.5424L136.193 56.5668C136.242 56.5954 136.295 56.6157 136.344 56.6402L136.433 56.685C137.468 57.1697 138.41 57.8329 139.215 58.6441C141.048 60.701 140.303 64.0938 140.075 64.7577Z" fill="#1265E5"/>
<path opacity="0.2" d="M132.063 72.9201C131.629 73.3713 131.173 73.7995 130.694 74.2031C130.694 73.6818 130.629 73.3111 130.629 73.3111C131.121 73.2363 131.602 73.1051 132.063 72.9201Z" fill="#405261"/>
<path d="M122.459 114.705V93.8433L118.65 92.2915C118.65 92.2915 119.38 81.1599 124.801 79.4044C130.222 77.6489 139.871 76.9117 142.527 79.4044C144.205 80.9888 144.429 83.5304 144.49 85.7095C144.62 90.1491 143.459 94.491 143.203 98.9061C142.999 102.499 142.877 106.091 142.795 109.687C142.795 109.964 142.69 114.705 142.681 114.705H122.459Z" fill="#1D2B36"/>
<path d="M124.544 94.5561C124.544 94.5561 121.726 103.867 118.94 104.45C116.154 105.032 106.639 99.8389 106.639 99.8389H102.391L101.788 96.1039C101.788 96.1039 105.743 94.6376 108.378 96.3931C108.378 96.3931 114.533 99.0772 116.581 99.8592L119.551 92.6744L124.544 94.5561Z" fill="#CF7E65"/>
<path opacity="0.3" d="M152.83 183.828L145.936 185.134C145.936 185.134 139.217 163.434 137.146 156.331C136.008 152.425 134.873 145.391 134.082 139.855C133.42 135.335 133.006 131.812 133.006 131.812C133.006 131.812 129.565 142.796 128.53 150.932C127.495 159.069 126.812 186.106 126.812 186.106H120.825C120.825 186.106 118.299 158.873 118.986 148.223C119.674 137.572 122.137 114.408 122.137 114.408H142.558C144.628 121.324 144.545 138.756 144.545 147.36C144.545 155.965 152.83 183.828 152.83 183.828Z" fill="#405261"/>
<defs>
<clipPath id="clip0">
<rect width="83.6478" height="57.2327" fill="white" transform="matrix(-1 0 0 1 175.472 97.4268)"/>
</clipPath>
<clipPath id="clip1">
<rect width="9.3706" height="9.42306" fill="white" transform="translate(158.51 115.735) rotate(-90)"/>
</clipPath>
</defs>
</svg>
