<svg width="348" height="40" viewBox="0 0 348 40" fill="none" xmlns="http://www.w3.org/2000/svg">
  <path
    d="M4.67836 32L7.45819 24.1733H18.6315L21.4113 32H24.9198L14.7721 4.36364H11.3176L1.16983 32H4.67836ZM8.51074 21.2045L12.9369 8.73579H13.1528L17.5789 21.2045H8.51074ZM36.6194 32.4318C40.6137 32.4318 41.9632 29.9489 42.6649 28.8153H43.0427V32H46.1194V4.36364H42.9347V14.5653H42.6649C41.9632 13.4858 40.7217 11.0028 36.6734 11.0028C31.4376 11.0028 27.8211 15.1591 27.8211 21.6903C27.8211 28.2756 31.4376 32.4318 36.6194 32.4318ZM37.0512 29.571C33.0569 29.571 31.0058 26.0625 31.0058 21.6364C31.0058 17.2642 33.0029 13.8636 37.0512 13.8636C40.9376 13.8636 42.9887 16.9943 42.9887 21.6364C42.9887 26.3324 40.8836 29.571 37.0512 29.571ZM52.3943 32H55.5789V19.0455C55.5789 16.0092 57.792 13.8636 60.2749 13.8636C62.6904 13.8636 64.3772 15.4425 64.3772 17.804V32H67.6159V18.5057C67.6159 15.8338 69.2892 13.8636 72.2039 13.8636C74.471 13.8636 76.4142 15.0646 76.4142 18.1278V32H79.5988V18.1278C79.5988 13.2564 76.9809 11.0028 73.2835 11.0028C70.3147 11.0028 68.1421 12.3658 67.0761 14.5114H66.8602C65.8346 12.2983 64.0264 11.0028 61.3005 11.0028C58.6017 11.0028 56.6045 12.2983 55.7409 14.5114H55.471V11.2727H52.3943V32ZM85.4216 32H88.6063V11.2727H85.4216V32ZM87.0409 7.81818C88.2824 7.81818 89.308 6.84659 89.308 5.65909C89.308 4.47159 88.2824 3.5 87.0409 3.5C85.7994 3.5 84.7739 4.47159 84.7739 5.65909C84.7739 6.84659 85.7994 7.81818 87.0409 7.81818ZM97.6238 19.5312C97.6238 15.9148 99.8639 13.8636 102.914 13.8636C105.869 13.8636 107.664 15.7933 107.664 19.0455V32H110.848V18.8295C110.848 13.5398 108.028 11.0028 103.831 11.0028C100.701 11.0028 98.7574 12.4062 97.7858 14.5114H97.5159V11.2727H94.4392V32H97.6238V19.5312ZM125.52 32.3913C132.038 32.3913 135.992 28.0866 135.992 21.7038C135.992 15.3075 132.038 11.0028 125.52 11.0028C119.002 11.0028 115.048 15.3075 115.048 21.7038C115.048 28.0866 119.002 32.3913 125.52 32.3913ZM125.56 27.4119C123.118 27.4119 121.769 25.0909 121.769 21.6634C121.769 18.2223 123.118 15.8878 125.56 15.8878C127.922 15.8878 129.271 18.2223 129.271 21.6634C129.271 25.0909 127.922 27.4119 125.56 27.4119ZM139.372 39.7727H145.971V28.6399H146.106C146.942 30.5561 148.804 32.2969 151.935 32.2969C156.523 32.2969 160.221 28.7074 160.221 21.6499C160.221 14.3359 156.307 11.0028 151.976 11.0028C148.696 11.0028 146.902 12.919 146.106 14.8217H145.903V11.2727H139.372V39.7727ZM145.836 21.6364C145.836 18.2493 147.239 16.1577 149.655 16.1577C152.097 16.1577 153.446 18.3033 153.446 21.6364C153.446 24.983 152.097 27.1555 149.655 27.1555C147.239 27.1555 145.836 24.9964 145.836 21.6364ZM173.367 32.3913C178.806 32.3913 182.382 29.7599 183.137 25.6847L177.078 25.5092C176.566 26.8857 175.216 27.6278 173.489 27.6278C170.952 27.6278 169.387 25.9411 169.387 23.4041V23.2287H183.205V21.5824C183.205 14.7543 179.049 11.0028 173.165 11.0028C166.904 11.0028 162.882 15.294 162.882 21.7173C162.882 28.3565 166.85 32.3913 173.367 32.3913ZM169.387 19.3963C169.481 17.3317 171.114 15.7663 173.3 15.7663C175.473 15.7663 177.038 17.2777 177.065 19.3963H169.387ZM186.575 32H193.174V20.7457C193.174 18.2763 194.928 16.6165 197.29 16.6165C198.072 16.6165 199.246 16.7514 199.88 16.9673V11.2322C199.327 11.0838 198.639 10.9893 198.032 10.9893C195.765 10.9893 193.956 12.3118 193.201 15.0511H192.985V11.2727H186.575V32ZM207.633 32.3509C210.521 32.3509 212.518 31.2308 213.651 29.1122H213.813V32H220.021V17.9119C220.021 13.5263 216.121 11.0028 210.845 11.0028C205.271 11.0028 202.114 13.8097 201.587 17.5881L207.673 17.804C207.957 16.4815 209.05 15.6719 210.791 15.6719C212.41 15.6719 213.435 16.4545 213.435 17.8445V17.9119C213.435 19.1804 212.059 19.4503 208.524 19.7607C204.327 20.1115 200.818 21.6634 200.818 26.2514C200.818 30.3537 203.666 32.3509 207.633 32.3509ZM209.671 28.0327C208.146 28.0327 207.066 27.304 207.066 25.9276C207.066 24.5916 208.119 23.782 209.994 23.4986C211.222 23.3232 212.734 23.0533 213.476 22.6619V24.6321C213.476 26.6562 211.776 28.0327 209.671 28.0327ZM233.731 32.3913C239.56 32.3913 243.177 29.0043 243.352 23.8764H237.185C236.943 26.076 235.62 27.277 233.812 27.277C231.491 27.277 229.979 25.3203 229.979 21.6364C229.979 17.9794 231.504 16.0227 233.812 16.0227C235.701 16.0227 236.929 17.3047 237.185 19.4233H243.352C243.204 14.3224 239.479 11.0028 233.717 11.0028C227.2 11.0028 223.259 15.348 223.259 21.7038C223.259 28.0327 227.173 32.3913 233.731 32.3913ZM246.729 32H253.328V11.2727H246.729V32ZM250.035 8.85724C251.911 8.85724 253.422 7.44034 253.422 5.69957C253.422 3.9588 251.911 2.5554 250.035 2.5554C248.173 2.5554 246.648 3.9588 246.648 5.69957C246.648 7.44034 248.173 8.85724 250.035 8.85724ZM267.204 32.3913C273.721 32.3913 277.675 28.0866 277.675 21.7038C277.675 15.3075 273.721 11.0028 267.204 11.0028C260.686 11.0028 256.732 15.3075 256.732 21.7038C256.732 28.0866 260.686 32.3913 267.204 32.3913ZM267.244 27.4119C264.802 27.4119 263.452 25.0909 263.452 21.6634C263.452 18.2223 264.802 15.8878 267.244 15.8878C269.606 15.8878 270.955 18.2223 270.955 21.6634C270.955 25.0909 269.606 27.4119 267.244 27.4119ZM287.654 20.179C287.668 17.8175 289.044 16.4141 291.136 16.4141C293.227 16.4141 294.469 17.7905 294.455 20.0845V32H301.054V18.7891C301.068 14.12 298.22 11.0028 293.862 11.0028C290.798 11.0028 288.477 12.5547 287.56 15.0781H287.33V11.2727H281.055V32H287.654V20.179ZM314.828 32.3913C320.267 32.3913 323.843 29.7599 324.598 25.6847L318.539 25.5092C318.027 26.8857 316.677 27.6278 314.95 27.6278C312.413 27.6278 310.848 25.9411 310.848 23.4041V23.2287H324.666V21.5824C324.666 14.7543 320.509 11.0028 314.626 11.0028C308.365 11.0028 304.343 15.294 304.343 21.7173C304.343 28.3565 308.311 32.3913 314.828 32.3913ZM310.848 19.3963C310.942 17.3317 312.575 15.7663 314.761 15.7663C316.934 15.7663 318.499 17.2777 318.526 19.3963H310.848ZM346.132 17.6016C345.781 13.4993 342.421 11.0028 336.807 11.0028C331.194 11.0028 327.618 13.4453 327.645 17.6016C327.618 20.7862 329.655 22.8374 333.798 23.6065L337.415 24.2947C339.128 24.6321 339.911 25.1719 339.938 26.0895C339.911 27.1286 338.75 27.8168 337.064 27.8168C335.188 27.8168 333.919 27.0071 333.636 25.4957L327.118 25.6577C327.591 29.7599 331.113 32.3913 337.037 32.3913C342.583 32.3913 346.618 29.625 346.645 25.3608C346.618 22.3381 344.62 20.5433 340.491 19.7472L336.497 18.9915C334.743 18.6406 334.176 18.0199 334.189 17.2237C334.176 16.1712 335.404 15.5234 336.929 15.5234C338.669 15.5234 339.884 16.4545 340.073 17.7635L346.132 17.6016Z"
    fill="#008AF8"/>
</svg>
