<svg width="200" height="200" viewBox="0 0 200 200" fill="none" xmlns="http://www.w3.org/2000/svg">
<path d="M88.9885 31.5781C49.9716 25.5643 9.58271 27.4984 9.134 79.2443C8.72139 127.137 66.2282 149.036 117.257 143.76C172.567 138.046 199.917 106.156 195.265 61.9664C191.98 30.7838 167.09 2.56161 137.062 3.00516C116.87 3.33009 123.075 36.8336 88.9885 31.5781Z" fill="#A5B2BD"/>
<path opacity="0.9" d="M88.9885 31.5781C49.9716 25.5643 9.58271 27.4984 9.134 79.2443C8.72139 127.137 66.2282 149.036 117.257 143.76C172.567 138.046 199.917 106.156 195.265 61.9664C191.98 30.7838 167.09 2.56161 137.062 3.00516C116.87 3.33009 123.075 36.8336 88.9885 31.5781Z" fill="white"/>
<path d="M100 197.734C155.228 197.734 200 195.12 200 191.896C200 188.671 155.228 186.057 100 186.057C44.7715 186.057 0 188.671 0 191.896C0 195.12 44.7715 197.734 100 197.734Z" fill="#E5E9EC"/>
<path d="M86.5904 76.4384C82.191 80.0075 77.6524 83.365 73.0879 86.6659C68.5235 89.9667 63.8972 93.1747 59.2554 96.3569C54.6135 99.5391 49.8944 102.603 45.1546 105.641C42.7976 107.188 40.4045 108.653 38.0268 110.159C36.8541 110.967 35.5583 111.58 34.1896 111.974C33.4476 112.174 32.6873 112.299 31.9203 112.345C31.0583 112.417 30.1907 112.37 29.3415 112.206C28.6766 112.071 28.045 111.806 27.4827 111.426C26.9205 111.046 26.4387 110.559 26.065 109.993C25.6913 109.426 25.433 108.792 25.3049 108.126C25.1768 107.459 25.1815 106.774 25.3186 106.11C25.3186 106.033 25.3547 105.935 25.3753 105.852C25.6067 105.017 25.954 104.218 26.4068 103.48C26.7879 102.822 27.2355 102.205 27.7426 101.638C28.698 100.582 29.8179 99.6865 31.059 98.9873C33.4572 97.5122 35.8349 96.0114 38.2434 94.5673C43.0451 91.6326 47.8932 88.7805 52.7671 85.9644C57.641 83.1484 62.5665 80.4201 67.5332 77.7588C72.5 75.0975 77.508 72.5032 82.6449 70.1101C83.4737 69.7507 84.404 69.7008 85.2664 69.9696C86.1289 70.2383 86.8662 70.8078 87.3441 71.5744C87.8221 72.341 88.0089 73.2537 87.8705 74.1464C87.7322 75.0391 87.278 75.8524 86.5904 76.4384Z" fill="#1265E5"/>
<path d="M86.5904 76.4384C82.191 80.0075 77.6524 83.365 73.0879 86.6659C68.5235 89.9667 63.8972 93.1747 59.2554 96.3569C54.6135 99.5391 49.8944 102.603 45.1546 105.641C42.7976 107.188 40.4045 108.653 38.0268 110.159C36.8541 110.967 35.5583 111.58 34.1896 111.974C33.4476 112.174 32.6873 112.299 31.9203 112.345C31.0583 112.417 30.1907 112.37 29.3415 112.206C28.6766 112.071 28.045 111.806 27.4827 111.426C26.9205 111.046 26.4387 110.559 26.065 109.993C25.6913 109.426 25.433 108.792 25.3049 108.126C25.1768 107.459 25.1815 106.774 25.3186 106.11C25.3186 106.033 25.3547 105.935 25.3753 105.852C25.6067 105.017 25.954 104.218 26.4068 103.48C26.7879 102.822 27.2355 102.205 27.7426 101.638C28.698 100.582 29.8179 99.6865 31.059 98.9873C33.4572 97.5122 35.8349 96.0114 38.2434 94.5673C43.0451 91.6326 47.8932 88.7805 52.7671 85.9644C57.641 83.1484 62.5665 80.4201 67.5332 77.7588C72.5 75.0975 77.508 72.5032 82.6449 70.1101C83.4737 69.7507 84.404 69.7008 85.2664 69.9696C86.1289 70.2383 86.8662 70.8078 87.3441 71.5744C87.8221 72.341 88.0089 73.2537 87.8705 74.1464C87.7322 75.0391 87.278 75.8524 86.5904 76.4384Z" fill="#1265E5"/>
<path opacity="0.5" d="M86.5904 76.4384C82.191 80.0075 77.6524 83.365 73.0879 86.6659C68.5235 89.9667 63.8972 93.1747 59.2554 96.3569C54.6135 99.5391 49.8944 102.603 45.1546 105.641C42.7976 107.188 40.4045 108.653 38.0268 110.159C36.8541 110.967 35.5583 111.58 34.1896 111.974C33.4476 112.174 32.6873 112.299 31.9203 112.345C31.0583 112.417 30.1907 112.37 29.3415 112.206C28.6766 112.071 28.045 111.806 27.4827 111.426C26.9205 111.046 26.4387 110.559 26.065 109.993C25.6913 109.426 25.433 108.792 25.3049 108.126C25.1768 107.459 25.1815 106.774 25.3186 106.11C25.3186 106.033 25.3547 105.935 25.3753 105.852C25.6067 105.017 25.954 104.218 26.4068 103.48C26.7879 102.822 27.2355 102.205 27.7426 101.638C28.698 100.582 29.8179 99.6865 31.059 98.9873C33.4572 97.5122 35.8349 96.0114 38.2434 94.5673C43.0451 91.6326 47.8932 88.7805 52.7671 85.9644C57.641 83.1484 62.5665 80.4201 67.5332 77.7588C72.5 75.0975 77.508 72.5032 82.6449 70.1101C83.4737 69.7507 84.404 69.7008 85.2664 69.9696C86.1289 70.2383 86.8662 70.8078 87.3441 71.5744C87.8221 72.341 88.0089 73.2537 87.8705 74.1464C87.7322 75.0391 87.278 75.8524 86.5904 76.4384Z" fill="white"/>
<path d="M67.5591 187.455L71.7676 186.48L69.7974 176.665L65.5889 177.64L67.5591 187.455Z" fill="#EBB376"/>
<path d="M39.1821 70.1719C38.5993 72.235 38.0371 74.4063 37.5007 76.5312C36.9643 78.6561 36.4692 80.812 36.0566 82.9575C35.8296 84.0252 35.6337 85.1186 35.4635 86.1243C35.2933 87.13 35.1953 88.1873 35.1334 89.2446C35.0792 90.2961 35.0792 91.3496 35.1334 92.401C35.1334 92.9168 35.2004 93.4326 35.252 93.9793C35.3036 94.526 35.3964 95.0469 35.4686 95.4956L33.4056 96.2744C33.1349 95.7201 32.9022 95.148 32.7093 94.5621C32.5075 93.999 32.3354 93.4257 32.1936 92.8446C31.9113 91.6851 31.7182 90.5058 31.6159 89.3168C31.5204 88.1158 31.5032 86.9098 31.5643 85.7065C31.6469 84.4893 31.7913 83.3701 31.9512 82.2355C32.2761 79.9713 32.6938 77.7278 33.189 75.5307C33.6841 73.3335 34.2205 71.1209 34.9168 68.898L39.1821 70.1719Z" fill="#EBB376"/>
<path d="M33.1115 70.8837L37.449 74.3393L40.0536 76.4023C40.0536 76.4023 40.327 75.6751 40.657 74.6333C41.2863 72.6218 42.1063 69.4345 41.539 67.9697C40.6467 65.6488 38.9602 63.5548 36.825 64.019C35.0147 64.4265 33.1115 70.8837 33.1115 70.8837Z" fill="#405261"/>
<path d="M39.1047 187.486H43.4216L43.0863 177.48H38.7643L39.1047 187.486Z" fill="#EBB376"/>
<path d="M69.7973 176.67L70.8546 181.926L66.6048 182.7L65.5836 177.645L69.7973 176.67Z" fill="#DA9D62"/>
<path d="M38.7643 177.48H43.0863L43.2565 182.638H38.9345L38.7643 177.48Z" fill="#DA9D62"/>
<path d="M52.8445 90.2297C52.8445 90.2297 50.3379 119.881 47.7385 136.591C45.6394 150.088 43.9786 181.642 43.9786 181.642H38.1093C38.1093 181.642 35.3036 151.171 36.3712 137.803C39.0686 104.026 34.3082 98.0434 39.9557 90.2143L52.8445 90.2297Z" fill="#1265E5"/>
<path opacity="0.6" d="M52.8445 90.2297C52.8445 90.2297 50.3379 119.881 47.7385 136.591C45.6394 150.088 43.9786 181.642 43.9786 181.642H38.1093C38.1093 181.642 35.3036 151.171 36.3712 137.803C39.0686 104.026 34.3082 98.0434 39.9557 90.2143L52.8445 90.2297Z" fill="#1D2B36"/>
<path d="M33.6893 95.9391L31.1414 97.672L31.5025 99.1523C31.5025 99.1523 36.8096 96.3981 35.3913 95.2944L33.6893 95.9391Z" fill="#EBB376"/>
<path d="M45.2423 187.739C44.8578 187.729 44.4756 187.677 44.1024 187.584C44.0835 187.578 44.0663 187.568 44.0527 187.553C44.0392 187.539 44.0296 187.521 44.0251 187.501C44.0219 187.482 44.0246 187.461 44.0329 187.443C44.0411 187.425 44.0546 187.409 44.0715 187.398C44.2211 187.3 45.5259 186.454 46.0314 186.681C46.0887 186.706 46.1381 186.746 46.1744 186.797C46.2108 186.848 46.2326 186.908 46.2377 186.97C46.2578 187.068 46.2528 187.168 46.223 187.263C46.1932 187.358 46.1396 187.443 46.0675 187.512C45.8285 187.684 45.5357 187.765 45.2423 187.739ZM44.3913 187.434C45.1443 187.589 45.7116 187.558 45.9385 187.362C45.9859 187.315 46.0207 187.257 46.0396 187.193C46.0585 187.129 46.061 187.061 46.0468 186.996C46.045 186.969 46.0358 186.942 46.0204 186.92C46.005 186.897 45.9839 186.879 45.9592 186.867C45.6858 186.748 44.9276 187.13 44.3913 187.434Z" fill="#1265E5"/>
<path d="M44.1281 187.584C44.1114 187.589 44.0933 187.589 44.0765 187.584C44.0614 187.574 44.0488 187.562 44.0398 187.546C44.0308 187.531 44.0257 187.514 44.025 187.496C44.025 187.439 44.025 186.196 44.4995 185.779C44.5567 185.725 44.6255 185.685 44.7005 185.661C44.7756 185.638 44.855 185.632 44.9327 185.645C45.014 185.645 45.0927 185.674 45.1556 185.725C45.2185 185.777 45.2617 185.849 45.2782 185.928C45.3762 186.444 44.5871 187.352 44.1797 187.584C44.1628 187.589 44.145 187.589 44.1281 187.584ZM44.8605 185.835C44.777 185.837 44.6968 185.868 44.6336 185.923C44.363 186.325 44.2242 186.801 44.2364 187.285C44.6439 186.955 45.139 186.253 45.0771 185.959C45.0771 185.913 45.041 185.851 44.9069 185.835H44.8605Z" fill="#1265E5"/>
<path d="M72.1493 185.83C72.13 185.829 72.1114 185.823 72.0954 185.812C72.0793 185.802 72.0665 185.787 72.0581 185.77C72.0496 185.752 72.046 185.733 72.0475 185.714C72.0491 185.694 72.0557 185.676 72.0667 185.66C72.206 185.495 73.4077 184.082 74.0215 184.082H74.0627C74.1187 184.086 74.1726 184.105 74.2188 184.136C74.2651 184.168 74.302 184.212 74.3258 184.263C74.3673 184.342 74.3891 184.431 74.3891 184.52C74.3891 184.61 74.3673 184.699 74.3258 184.778C74.0576 185.346 72.8455 185.665 72.1441 185.81L72.1493 185.83ZM74.0163 184.283C73.6811 184.283 72.9384 184.985 72.4278 185.557C73.3716 185.335 74.0111 185.041 74.1607 184.706C74.191 184.654 74.207 184.594 74.207 184.533C74.207 184.473 74.191 184.413 74.1607 184.36C74.1518 184.34 74.1376 184.322 74.1195 184.308C74.1014 184.294 74.08 184.286 74.0576 184.283H74.0163Z" fill="#1265E5"/>
<path d="M72.1493 185.83C72.1319 185.828 72.1157 185.82 72.1029 185.808C72.09 185.796 72.081 185.78 72.0771 185.763C72.0771 185.717 71.7057 184.603 72.0358 183.979C72.0812 183.887 72.1449 183.806 72.223 183.741C72.3011 183.675 72.3919 183.626 72.4897 183.597C72.763 183.515 72.8971 183.597 72.9538 183.716C73.2169 184.139 72.6341 185.387 72.2473 185.779C72.2371 185.795 72.2226 185.809 72.2054 185.818C72.1881 185.827 72.1687 185.831 72.1493 185.83ZM72.665 183.767C72.6257 183.761 72.5857 183.761 72.5464 183.767C72.4743 183.788 72.4072 183.823 72.3495 183.871C72.2918 183.919 72.2447 183.979 72.2112 184.046C72.0614 184.516 72.0614 185.02 72.2112 185.49C72.5773 184.974 72.9332 184.051 72.7785 183.798C72.7615 183.778 72.7379 183.763 72.7117 183.758C72.6855 183.752 72.6581 183.755 72.6341 183.767H72.665Z" fill="#1265E5"/>
<path d="M44.5047 53.5852C45.0204 56.164 46.052 61.3215 44.2726 63.0493C44.2726 63.0493 44.974 65.6281 49.7396 65.6281C54.9745 65.6281 52.241 63.0493 52.241 63.0493C49.3837 62.3685 49.456 60.2487 49.9562 58.2528L44.5047 53.5852Z" fill="#EBB376"/>
<path d="M54.9126 48.0873C54.8702 48.088 54.8287 48.0754 54.794 48.0512C54.7719 48.0353 54.7532 48.0152 54.7389 47.9921C54.7246 47.969 54.715 47.9432 54.7107 47.9164C54.7064 47.8896 54.7074 47.8621 54.7138 47.8357C54.7201 47.8093 54.7316 47.7843 54.7475 47.7623C54.9337 47.4973 55.1797 47.2798 55.4655 47.1275C55.7513 46.9752 56.069 46.8923 56.3928 46.8856C56.4413 46.8933 56.4854 46.9181 56.5172 46.9554C56.5491 46.9927 56.5666 47.0402 56.5666 47.0893C56.5666 47.1384 56.5491 47.1858 56.5172 47.2232C56.4854 47.2605 56.4413 47.2853 56.3928 47.293C56.1353 47.3001 55.8831 47.3683 55.6571 47.4921C55.4311 47.6158 55.2378 47.7916 55.0931 48.0047C55.0727 48.0329 55.0454 48.0554 55.0137 48.0698C54.9821 48.0843 54.9472 48.0903 54.9126 48.0873Z" fill="#405261"/>
<path d="M56.0576 50.5473C56.3357 51.3553 56.7245 52.1208 57.2129 52.8218C57.0295 52.9408 56.8224 53.0185 56.6061 53.0497C56.3897 53.0809 56.1691 53.0647 55.9596 53.0024L56.0576 50.5473Z" fill="#FEAD9A"/>
<path d="M55.7688 49.9389C55.7688 50.2896 55.9287 50.5784 56.1556 50.5836C56.3826 50.5887 56.5786 50.3205 56.594 49.9698C56.6095 49.6191 56.4342 49.3354 56.2072 49.3251C55.9803 49.3148 55.7843 49.5933 55.7688 49.9389Z" fill="#405261"/>
<path d="M56.1041 49.3405L56.95 49.1342C56.95 49.1342 56.4961 49.7686 56.1041 49.3405Z" fill="#405261"/>
<path d="M43.7826 186.986H38.9293C38.8453 186.982 38.7632 187.011 38.6992 187.065C38.6352 187.12 38.594 187.196 38.5837 187.28L38.0319 191.117C38.0201 191.214 38.0292 191.313 38.0587 191.406C38.0882 191.499 38.1373 191.585 38.2028 191.658C38.2683 191.731 38.3486 191.789 38.4383 191.828C38.528 191.867 38.6251 191.887 38.723 191.885C40.4147 191.86 41.2296 191.756 43.3648 191.756C44.68 191.756 46.5934 191.896 48.4089 191.896C50.2244 191.896 50.3172 190.101 49.5642 189.941C46.1808 189.209 45.6444 188.208 44.5046 187.249C44.3016 187.08 44.0464 186.987 43.7826 186.986Z" fill="#405261"/>
<path d="M71.6849 185.371L67.203 187.233C67.1254 187.263 67.0615 187.321 67.0234 187.395C66.9854 187.469 66.9759 187.555 66.9967 187.635L67.956 191.395C67.9833 191.489 68.0301 191.576 68.0933 191.65C68.1566 191.725 68.2349 191.785 68.3231 191.827C68.4113 191.869 68.5074 191.892 68.605 191.894C68.7027 191.896 68.7996 191.877 68.8895 191.839C70.4368 191.163 71.1589 190.761 73.1291 189.941C74.3411 189.425 76.9044 188.523 78.5806 187.826C80.2568 187.13 79.6534 185.438 78.8952 185.578C75.4912 186.207 73.8717 185.789 72.4534 185.34C72.2016 185.26 71.9295 185.271 71.6849 185.371Z" fill="#405261"/>
<path d="M61.927 68.3977C62.7676 70.3782 63.6754 72.4052 64.5934 74.3753C65.0576 75.3656 65.5407 76.3386 66.0427 77.2945C66.5584 78.2538 67.0742 79.1925 67.59 80.0899C67.8633 80.5335 68.1367 80.977 68.4203 81.3845L68.8432 81.9724C68.93 82.0951 69.0284 82.2092 69.1372 82.3128C69.6997 82.8015 70.4015 83.101 71.1435 83.169C72.9023 83.4217 75.1097 83.0658 77.085 82.5346L78.0031 84.5203C77.4812 84.8338 76.9403 85.1146 76.3836 85.3609C75.8358 85.616 75.2725 85.8365 74.6971 86.0211C73.4841 86.434 72.2133 86.6516 70.9321 86.6658C70.2176 86.6722 69.5059 86.5784 68.8175 86.3873C68.0534 86.177 67.3347 85.8273 66.6977 85.3558C66.3716 85.1078 66.0694 84.8298 65.7951 84.5254C65.563 84.2624 65.3928 84.0406 65.1865 83.7931C64.7997 83.3082 64.4542 82.8183 64.1086 82.3283C62.8234 80.3943 61.6657 78.3786 60.6427 76.294C59.6112 74.2309 58.6828 72.1679 57.8267 70.0327L61.927 68.3977Z" fill="#EBB376"/>
<path d="M76.6416 84.7627L81.3556 84.02L80.1023 81.3484C80.1023 81.3484 76.4507 81.9827 75.7493 83.6332L76.6416 84.7627Z" fill="#EBB376"/>
<path d="M81.3503 81.9363L80.8346 80.7965L80.1022 81.3483L81.3503 84.02V81.9363Z" fill="#EBB376"/>
<path d="M44.1128 48.2832C44.2056 52.5691 44.1541 54.3846 46.2274 56.6642C49.3219 60.094 54.593 59.0419 55.7792 54.8127C56.8468 51.0064 56.5116 44.6368 52.3958 42.7698C51.4896 42.3543 50.4923 42.1773 49.4984 42.2557C48.5046 42.334 47.5473 42.6651 46.7174 43.2175C45.8875 43.7699 45.2126 44.5253 44.7567 45.4119C44.3009 46.2985 44.0792 47.2869 44.1128 48.2832Z" fill="#EBB376"/>
<path d="M40.6572 40.5418C45.0617 37.3492 49.982 39.1595 52.6743 41.367C55.4903 43.6776 55.0416 48.1182 53.319 49.9543C53.4977 50.2259 53.6159 50.5326 53.6658 50.8539C53.7156 51.1751 53.6958 51.5033 53.6078 51.8162C53.8252 53.1902 53.523 54.596 52.7602 55.7593C51.9974 56.9226 50.8286 57.7601 49.4818 58.1084L49.2393 58.1703C43.7362 59.4803 37.377 55.7566 36.4176 50.1864C35.8348 46.7876 36.7632 43.3578 40.6572 40.5418Z" fill="#405261"/>
<path d="M52.3338 50.2689C52.4043 51.0769 52.7502 51.8362 53.3137 52.4196C54.0771 53.2087 54.861 52.7548 55.0003 51.8213C55.1189 50.9806 54.8662 49.5571 53.9378 49.1084C53.0094 48.6597 52.2668 49.3147 52.3338 50.2689Z" fill="#EBB376"/>
<path opacity="0.3" d="M46.8772 104.093C46.3872 112.954 48.5224 119.643 49.4972 123.558C50.1883 117.771 50.8227 111.732 51.3539 106.404C49.5333 100.369 47.233 97.4245 46.8772 104.093Z" fill="#1D2B36"/>
<path d="M44.7883 181.756H37.284L36.8869 179.126L44.8295 178.857L44.7883 181.756Z" fill="#1265E5"/>
<path opacity="0.3" d="M37.4491 74.3393L40.0537 76.4023C40.0537 76.4023 40.327 75.6751 40.6571 74.6333L39.1098 66.9743L37.4491 74.3393Z" fill="#1D2B36"/>
<path d="M43.1121 41.2587C44.4582 39.7681 49.033 37.4936 52.9579 39.2782C54.0774 39.7881 55.0262 40.6101 55.6903 41.6456C56.3544 42.6812 56.7058 43.8863 56.7023 45.1165L53.1642 47.489L43.1121 41.2587Z" fill="#405261"/>
<path d="M39.5018 45.1732C41.4462 43.5795 43.6279 37.8031 39.5018 39.8145C35.3758 41.826 34.1225 49.5829 39.5018 45.1732Z" fill="#1265E5"/>
<path d="M39.9402 41.4701C40.7809 39.0151 35.2365 34.1308 31.4973 38.7726C27.758 43.4145 37.5213 48.5359 39.9402 41.4701Z" fill="#405261"/>
<path d="M57.4811 90.2298C57.4811 90.2298 62.3498 123.496 64.0621 136.586C65.8415 150.176 71.0403 180.647 71.0403 180.647L65.2638 181.529C65.2638 181.529 56.135 152.466 53.5923 139.237C50.8175 124.822 45.3402 90.2401 45.3402 90.2401L57.4811 90.2298Z" fill="#1265E5"/>
<path opacity="0.6" d="M57.4811 90.2298C57.4811 90.2298 62.3498 123.496 64.0621 136.586C65.8415 150.176 71.0403 180.647 71.0403 180.647L65.2638 181.529C65.2638 181.529 56.135 152.466 53.5923 139.237C50.8175 124.822 45.3402 90.2401 45.3402 90.2401L57.4811 90.2298Z" fill="#1D2B36"/>
<path d="M59.5441 64.1582C61.6896 64.674 64.3355 70.5742 64.3355 70.5742L59.2243 77.1244C59.2243 77.1244 53.943 69.651 54.6496 67.3714C55.3819 64.9938 56.9395 63.5239 59.5441 64.1582Z" fill="#405261"/>
<path d="M52.5505 63.89C53.2571 63.9931 52.6021 62.3788 52.3081 62.2086C51.6325 61.8063 43.0245 60.9966 43.1225 61.9043C43.1745 62.446 43.407 62.9546 43.7826 63.3484C44.1695 63.6063 46.3614 62.8946 52.5505 63.89Z" fill="#1265E5"/>
<path opacity="0.6" d="M52.5505 63.89C53.2571 63.9931 52.6021 62.3788 52.3081 62.2086C51.6325 61.8063 43.0245 60.9966 43.1225 61.9043C43.1745 62.446 43.407 62.9546 43.7826 63.3484C44.1695 63.6063 46.3614 62.8946 52.5505 63.89Z" fill="white"/>
<path d="M59.5441 64.1582C59.5441 64.1582 61.6071 64.8803 57.4811 90.2297H39.9454C40.2393 83.0916 40.2497 78.6871 36.8508 64.0293C39.3063 63.5225 41.7954 63.195 44.2984 63.0494C46.9511 62.8583 49.6141 62.8583 52.2668 63.0494C55.645 63.3485 59.5441 64.1582 59.5441 64.1582Z" fill="#405261"/>
<path d="M39.6565 89.2034L38.8674 90.7506C38.8055 90.8744 38.9499 90.9982 39.151 90.9982H57.5532C57.708 90.9982 57.8421 90.9208 57.8524 90.8177L58.0071 89.2704C58.0071 89.1621 57.8833 89.0693 57.708 89.0693H39.9556C39.8982 89.0614 39.8397 89.0697 39.7868 89.0935C39.734 89.1172 39.6888 89.1552 39.6565 89.2034Z" fill="#1265E5"/>
<path opacity="0.6" d="M39.6565 89.2034L38.8674 90.7506C38.8055 90.8744 38.9499 90.9982 39.151 90.9982H57.5532C57.708 90.9982 57.8421 90.9208 57.8524 90.8177L58.0071 89.2704C58.0071 89.1621 57.8833 89.0693 57.708 89.0693H39.9556C39.8982 89.0614 39.8397 89.0697 39.7868 89.0935C39.734 89.1172 39.6888 89.1552 39.6565 89.2034Z" fill="white"/>
<path d="M42.06 91.1993H41.5804C41.4875 91.1993 41.4153 91.1477 41.4205 91.091L41.6474 89.028C41.6474 88.9661 41.7351 88.9197 41.8279 88.9197H42.3076C42.4004 88.9197 42.4726 88.9661 42.4675 89.028L42.2405 91.091C42.2354 91.1374 42.1528 91.1993 42.06 91.1993Z" fill="#1265E5"/>
<path d="M53.582 91.1993H53.1075C53.0095 91.1993 52.9373 91.1477 52.9477 91.091L53.1694 89.028C53.1694 88.9661 53.2571 88.9197 53.3551 88.9197H53.8296C53.9224 88.9197 53.9946 88.9661 53.9895 89.028L53.7677 91.091C53.7677 91.1374 53.6852 91.1993 53.582 91.1993Z" fill="#1265E5"/>
<path opacity="0.6" d="M42.06 91.1993H41.5804C41.4875 91.1993 41.4153 91.1477 41.4205 91.091L41.6474 89.028C41.6474 88.9661 41.7351 88.9197 41.8279 88.9197H42.3076C42.4004 88.9197 42.4726 88.9661 42.4675 89.028L42.2405 91.091C42.2354 91.1374 42.1528 91.1993 42.06 91.1993Z" fill="#1D2B36"/>
<path opacity="0.6" d="M53.582 91.1993H53.1075C53.0095 91.1993 52.9373 91.1477 52.9477 91.091L53.1694 89.028C53.1694 88.9661 53.2571 88.9197 53.3551 88.9197H53.8296C53.9224 88.9197 53.9946 88.9661 53.9895 89.028L53.7677 91.091C53.7677 91.1374 53.6852 91.1993 53.582 91.1993Z" fill="#1D2B36"/>
<path d="M71.8913 180.647L64.4954 181.905L63.6547 179.115L71.5716 177.759L71.8913 180.647Z" fill="#1265E5"/>
<path d="M145.598 36.6633C141.664 30.3639 135.951 25.3724 129.18 22.3201C122.409 19.2678 114.886 18.2917 107.56 19.5153C100.235 20.7388 93.4367 24.107 88.0255 29.194C82.6144 34.281 78.8331 40.8582 77.1599 48.0942C75.4867 55.3301 75.9966 62.8997 78.6253 69.8458C81.254 76.7919 85.8834 82.8025 91.928 87.1177C97.9726 91.4329 105.161 93.8587 112.584 94.0886C120.008 94.3185 127.332 92.342 133.633 88.4091C137.816 85.7974 141.444 82.3871 144.31 78.373C147.176 74.359 149.222 69.8198 150.333 65.0146C151.445 60.2095 151.598 55.2325 150.786 50.3679C149.973 45.5034 148.21 40.8465 145.598 36.6633ZM88.6122 72.2504C85.509 67.2793 83.9496 61.4996 84.1312 55.6422C84.3127 49.7849 86.2271 44.1129 89.6322 39.3435C93.0373 34.5741 97.7802 30.9215 103.261 28.8476C108.742 26.7737 114.715 26.3716 120.424 27.6923C126.134 29.0129 131.324 31.9969 135.337 36.2669C139.351 40.5369 142.008 45.9011 142.973 51.6814C143.938 57.4616 143.167 63.3981 140.758 68.7403C138.349 74.0825 134.41 78.5904 129.439 81.6939C126.138 83.7546 122.464 85.1448 118.625 85.7851C114.787 86.4255 110.86 86.3035 107.069 85.4261C103.277 84.5487 99.6962 82.933 96.5294 80.6715C93.3626 78.4099 90.6723 75.5467 88.6122 72.2453V72.2504Z" fill="#1265E5"/>
<path d="M145.598 36.6633C141.664 30.3639 135.951 25.3724 129.18 22.3201C122.409 19.2678 114.886 18.2917 107.56 19.5153C100.235 20.7388 93.4367 24.107 88.0255 29.194C82.6144 34.281 78.8331 40.8582 77.1599 48.0942C75.4867 55.3301 75.9966 62.8997 78.6253 69.8458C81.254 76.7919 85.8834 82.8025 91.928 87.1177C97.9726 91.4329 105.161 93.8587 112.584 94.0886C120.008 94.3185 127.332 92.342 133.633 88.4091C137.816 85.7974 141.444 82.3871 144.31 78.373C147.176 74.359 149.222 69.8198 150.333 65.0146C151.445 60.2095 151.598 55.2325 150.786 50.3679C149.973 45.5034 148.21 40.8465 145.598 36.6633ZM88.6122 72.2504C85.509 67.2793 83.9496 61.4996 84.1312 55.6422C84.3127 49.7849 86.2271 44.1129 89.6322 39.3435C93.0373 34.5741 97.7802 30.9215 103.261 28.8476C108.742 26.7737 114.715 26.3716 120.424 27.6923C126.134 29.0129 131.324 31.9969 135.337 36.2669C139.351 40.5369 142.008 45.9011 142.973 51.6814C143.938 57.4616 143.167 63.3981 140.758 68.7403C138.349 74.0825 134.41 78.5904 129.439 81.6939C126.138 83.7546 122.464 85.1448 118.625 85.7851C114.787 86.4255 110.86 86.3035 107.069 85.4261C103.277 84.5487 99.6962 82.933 96.5294 80.6715C93.3626 78.4099 90.6723 75.5467 88.6122 72.2453V72.2504Z" fill="#1265E5"/>
<path opacity="0.5" d="M145.598 36.6633C141.664 30.3639 135.951 25.3724 129.18 22.3201C122.409 19.2678 114.886 18.2917 107.56 19.5153C100.235 20.7388 93.4367 24.107 88.0255 29.194C82.6144 34.281 78.8331 40.8582 77.1599 48.0942C75.4867 55.3301 75.9966 62.8997 78.6253 69.8458C81.254 76.7919 85.8834 82.8025 91.928 87.1177C97.9726 91.4329 105.161 93.8587 112.584 94.0886C120.008 94.3185 127.332 92.342 133.633 88.4091C137.816 85.7974 141.444 82.3871 144.31 78.373C147.176 74.359 149.222 69.8198 150.333 65.0146C151.445 60.2095 151.598 55.2325 150.786 50.3679C149.973 45.5034 148.21 40.8465 145.598 36.6633ZM88.6122 72.2504C85.509 67.2793 83.9496 61.4996 84.1312 55.6422C84.3127 49.7849 86.2271 44.1129 89.6322 39.3435C93.0373 34.5741 97.7802 30.9215 103.261 28.8476C108.742 26.7737 114.715 26.3716 120.424 27.6923C126.134 29.0129 131.324 31.9969 135.337 36.2669C139.351 40.5369 142.008 45.9011 142.973 51.6814C143.938 57.4616 143.167 63.3981 140.758 68.7403C138.349 74.0825 134.41 78.5904 129.439 81.6939C126.138 83.7546 122.464 85.1448 118.625 85.7851C114.787 86.4255 110.86 86.3035 107.069 85.4261C103.277 84.5487 99.6962 82.933 96.5294 80.6715C93.3626 78.4099 90.6723 75.5467 88.6122 72.2453V72.2504Z" fill="white"/>
<path opacity="0.2" d="M141.364 39.3091C144.773 44.7718 146.486 51.1227 146.286 57.5587C146.086 63.9948 143.982 70.2271 140.24 75.4675C136.499 80.708 131.287 84.7213 125.265 87.0001C119.242 89.2789 112.679 89.7208 106.406 88.27C100.132 86.8191 94.4294 83.5406 90.019 78.8491C85.6085 74.1575 82.6882 68.2636 81.6272 61.9124C80.5662 55.5612 81.4122 49.0381 84.0583 43.1677C86.7043 37.2973 91.0316 32.3433 96.493 28.9321C100.12 26.6664 104.159 25.1376 108.377 24.4329C112.595 23.7282 116.911 23.8615 121.078 24.8251C125.245 25.7887 129.181 27.5639 132.662 30.0491C136.143 32.5343 139.099 35.6809 141.364 39.3091Z" fill="#F1F3F5"/>
<path opacity="0.1" d="M145.99 51.9451L95.4459 83.499C91.3242 80.7023 87.8993 76.9969 85.4351 72.6682L140.621 38.2105C143.437 42.3181 145.274 47.0166 145.99 51.9451Z" fill="#D5DCE1"/>
</svg>
