<svg width="200" height="200" viewBox="0 0 200 200" fill="none" xmlns="http://www.w3.org/2000/svg">
<path d="M58.3953 99.839C63.0909 102.542 72.7204 101.918 77.8739 98.0988C84.4664 93.2287 83.7546 86.7805 88.411 81.3752C101.003 66.7612 115.139 70.2735 129.631 71.0098C161.753 72.6384 178.494 27.5761 145.91 11.8528C126.315 2.39864 86.6405 2.58533 85.0969 42.5716C84.4419 59.8447 91.3722 59.228 75.7482 67.3077C69.5845 70.4995 37.1266 87.5998 58.3953 99.839Z" fill="#008AF8"/>
<path opacity="0.9" d="M58.3953 99.839C63.0909 102.542 72.7204 101.918 77.8739 98.0988C84.4664 93.2287 83.7546 86.7805 88.411 81.3752C101.003 66.7612 115.139 70.2735 129.631 71.0098C161.753 72.6384 178.494 27.5761 145.91 11.8528C126.315 2.39864 86.6405 2.58533 85.0969 42.5716C84.4419 59.8447 91.3722 59.228 75.7482 67.3077C69.5845 70.4995 37.1266 87.5998 58.3953 99.839Z" fill="white"/>
<path d="M98.134 178.226C151.979 178.226 195.63 175.677 195.63 172.533C195.63 169.39 151.979 166.841 98.134 166.841C44.2887 166.841 0.638428 169.39 0.638428 172.533C0.638428 175.677 44.2887 178.226 98.134 178.226Z" fill="#F2F4F6"/>
<path d="M153.766 50.6289C154.471 52.9888 158.104 57.4067 158.391 60.622C158.678 63.8373 152.483 68.9798 152.483 68.9798C152.483 68.9798 147.854 53.5021 150.752 51.6956C153.651 49.8892 153.766 50.6289 153.766 50.6289Z" fill="#1D2B36"/>
<path d="M141.046 67.3495C139.949 68.2653 138.872 69.0352 137.75 69.8252C136.628 70.6152 135.471 71.3347 134.294 72.009C133.112 72.7082 131.894 73.3447 130.645 73.916C130.011 74.2028 129.383 74.4846 128.728 74.7312C128.406 74.862 128.079 74.9878 127.747 75.0985L126.741 75.4507C125.88 75.6913 124.98 75.7563 124.094 75.6419C123.353 75.5553 122.62 75.414 121.9 75.2192C120.558 74.8479 119.245 74.3804 117.97 73.8204C115.496 72.74 113.109 71.4699 110.83 70.0214L111.771 68.2703C112.959 68.7735 114.176 69.2767 115.384 69.7145C116.592 70.1522 117.809 70.6152 119.027 70.9925C120.214 71.3816 121.424 71.6975 122.65 71.9385C123.213 72.0486 123.783 72.1175 124.356 72.1448C124.783 72.1779 125.212 72.1336 125.624 72.014C126.772 71.5748 127.894 71.0708 128.985 70.5045C129.544 70.2126 130.097 69.9157 130.64 69.5937C131.184 69.2717 131.737 68.9597 132.276 68.6276C133.358 67.9584 134.414 67.2489 135.461 66.5193C136.507 65.7897 137.549 65.0098 138.48 64.2701L141.046 67.3495Z" fill="#EBBE8B"/>
<path d="M143.703 61.9907C142.455 61.0145 137.292 64.2097 135.728 65.5431L136.87 72.4517C136.87 72.4517 144.292 69.3421 144.734 67.2187C145.202 64.9997 144.634 62.7354 143.703 61.9907Z" fill="#008AF8"/>
<path opacity="0.2" d="M143.703 61.9907C142.455 61.0145 137.292 64.2097 135.728 65.5431L136.87 72.4517C136.87 72.4517 144.292 69.3421 144.734 67.2187C145.202 64.9997 144.634 62.7354 143.703 61.9907Z" fill="#1D2B36"/>
<path d="M161.068 82.8977L145.399 85.952C137.303 64.0285 139.064 63.309 139.064 63.309C140.202 62.6833 141.379 62.1288 142.586 61.6485L142.797 61.568C143.804 61.2007 144.005 61.1453 145.343 60.7529C147.648 60.2044 149.797 59.7465 152.458 59.3691L152.961 59.2987C153.465 59.2383 153.923 59.188 154.385 59.1427C154.697 59.1075 155.009 59.0873 155.306 59.0672L156.313 59.0119C158.034 58.9263 159.266 58.9515 159.266 58.9515C158.788 72.643 159.563 76.5728 161.068 82.8977Z" fill="#008AF8"/>
<path opacity="0.2" d="M161.068 82.8977L145.399 85.952C137.303 64.0285 139.064 63.309 139.064 63.309C140.202 62.6833 141.379 62.1288 142.586 61.6485L142.797 61.568C143.804 61.2007 144.005 61.1453 145.343 60.7529C147.648 60.2044 149.797 59.7465 152.458 59.3691L152.961 59.2987C153.465 59.2383 153.923 59.188 154.385 59.1427C154.697 59.1075 155.009 59.0873 155.306 59.0672L156.313 59.0119C158.034 58.9263 159.266 58.9515 159.266 58.9515C158.788 72.643 159.563 76.5728 161.068 82.8977Z" fill="#1D2B36"/>
<path d="M148.795 52.2039C147.789 53.8694 151.437 54.6392 153.596 52.9335C155.321 51.5648 154.914 48.4049 153.435 47.6702C151.955 46.9356 148.795 52.2039 148.795 52.2039Z" fill="#008AF8"/>
<path opacity="0.4" d="M148.795 52.2039C147.789 53.8694 151.437 54.6392 153.596 52.9335C155.321 51.5648 154.914 48.4049 153.435 47.6702C151.955 46.9356 148.795 52.2039 148.795 52.2039Z" fill="#1D2B36"/>
<path d="M164.046 173.641L160.127 173.933L158.693 164.911L162.612 164.619L164.046 173.641Z" fill="#EBBE8B"/>
<path d="M191.772 161.031L188.446 163.124L182.523 156.1L185.849 154.002L191.772 161.031Z" fill="#EBBE8B"/>
<path d="M158.693 164.911L159.488 169.922L163.352 169.273L162.617 164.624L158.693 164.911Z" fill="#BF8356"/>
<path d="M185.854 154.007L182.523 156.1L184.979 159.008L188.38 157.001L185.854 154.007Z" fill="#BF8356"/>
<path d="M145.64 85.952C145.64 85.952 145.585 117.058 148.126 128.772C150.773 140.959 158.557 168.685 158.557 168.685L164.202 167.955C164.202 167.955 159.79 139.948 157.908 127.837C155.86 114.638 157.118 83.7179 157.118 83.7179L145.64 85.952Z" fill="#008AF8"/>
<path opacity="0.7" d="M145.64 85.952C145.64 85.952 145.585 117.058 148.126 128.772C150.773 140.959 158.557 168.685 158.557 168.685L164.202 167.955C164.202 167.955 159.79 139.948 157.908 127.837C155.86 114.638 157.118 83.7179 157.118 83.7179L145.64 85.952Z" fill="#1D2B36"/>
<path opacity="0.5" d="M156.766 97.505L153.998 94.7476C154.104 106.698 154.773 112.6 157.072 119.031C156.71 112.233 156.68 104.192 156.766 97.505Z" fill="#1D2B36"/>
<path d="M149.535 85.1469C149.535 85.1469 157.973 110.854 162.16 125.663C166.578 141.287 183.515 158.566 183.515 158.566L188.375 155.758C188.375 155.758 176.802 139.354 172.545 124.777C163.891 95.1853 167.448 88.9157 161.063 82.8977L149.535 85.1469Z" fill="#008AF8"/>
<path opacity="0.7" d="M149.535 85.1469C149.535 85.1469 157.973 110.854 162.16 125.663C166.578 141.287 183.515 158.566 183.515 158.566L188.375 155.758C188.375 155.758 176.802 139.354 172.545 124.777C163.891 95.1853 167.448 88.9157 161.063 82.8977L149.535 85.1469Z" fill="#1D2B36"/>
<path d="M142.903 43.1265C145.147 43.8763 147.185 49.4464 147.27 51.6403C147.356 53.8342 140.769 56.8583 140.769 56.8583C140.769 56.8583 137.866 49.8138 138.676 45.2852C139.028 43.3177 142.903 43.1265 142.903 43.1265Z" fill="#1D2B36"/>
<path d="M112.103 68.4565L109.442 65.5582L108.571 69.1911C108.571 69.1911 110.463 70.8617 111.993 70.2881L112.103 68.4565Z" fill="#EBBE8B"/>
<path d="M106.745 64.728L104.883 66.2073L108.571 69.1912L109.442 65.5582L106.745 64.728Z" fill="#EBBE8B"/>
<path d="M187.404 162.375L190.514 159.24C190.567 159.186 190.639 159.154 190.714 159.148C190.79 159.143 190.865 159.165 190.926 159.21L193.759 161.313C193.829 161.368 193.887 161.437 193.928 161.516C193.97 161.595 193.994 161.682 193.999 161.771C194.004 161.86 193.99 161.949 193.959 162.032C193.927 162.116 193.878 162.191 193.815 162.254C192.708 163.326 192.124 163.789 190.755 165.167C189.915 166.018 188.773 167.341 187.61 168.514C186.448 169.686 185.225 168.594 185.598 168.01C187.293 165.359 186.991 164.367 187.107 163.019C187.125 162.775 187.23 162.546 187.404 162.375Z" fill="#1D2B36"/>
<path d="M159.865 173.369H164.283C164.361 173.369 164.436 173.396 164.496 173.446C164.555 173.495 164.596 173.564 164.61 173.641L165.304 177.133C165.32 177.219 165.316 177.307 165.294 177.391C165.271 177.476 165.231 177.554 165.174 177.621C165.118 177.688 165.048 177.741 164.969 177.778C164.889 177.814 164.803 177.833 164.716 177.832C163.171 177.807 162.426 177.717 160.484 177.717C159.291 177.717 156.826 177.837 155.175 177.837C153.525 177.837 153.349 176.207 154.028 176.061C157.047 175.397 158.23 174.486 159.221 173.611C159.401 173.457 159.629 173.372 159.865 173.369Z" fill="#1D2B36"/>
<g style="mix-blend-mode:multiply" opacity="0.27">
<path d="M159.775 66.8866L157.359 68.3257L160.147 78.8069C159.538 75.6318 159.81 72.1448 159.775 66.8866Z" fill="#008AF8"/>
</g>
<path d="M146.048 50.5232C147.764 51.9573 150.254 54.0455 153.188 51.6051C155.704 49.5018 157.465 43.9819 152.951 43.7806C150.592 43.675 146.048 50.5232 146.048 50.5232Z" fill="#1D2B36"/>
<path d="M150.194 51.5044C150.194 53.8794 150.561 58.1615 152.458 59.3792C152.458 59.3792 152.287 61.8246 148.03 62.6498C143.356 63.5606 145.343 60.7629 145.343 60.7629C147.779 59.6559 147.356 57.774 146.551 56.0834L150.194 51.5044Z" fill="#EBBE8B"/>
<path d="M148.71 53.3712L146.556 56.0834C146.745 56.4754 146.9 56.8827 147.019 57.3011C147.965 56.969 149.097 55.6406 149.002 54.599C148.981 54.1752 148.882 53.759 148.71 53.3712Z" fill="#BF8356"/>
<path d="M150.42 46.05C150.924 49.9194 151.23 51.5447 149.681 53.8845C147.351 57.4067 142.49 57.1803 140.835 53.5423C139.325 50.2666 138.762 44.4851 142.203 42.246C142.96 41.745 143.833 41.446 144.738 41.3774C145.643 41.3089 146.55 41.4731 147.374 41.8544C148.197 42.2357 148.91 42.8214 149.443 43.5558C149.976 44.2902 150.313 45.1488 150.42 46.05Z" fill="#EBBE8B"/>
<path d="M143.698 39.2722C141.082 41.1289 146.33 41.6774 146.335 44.3694C146.335 45.4814 148.161 49.0087 150.758 48.8074L153.274 44.3392C155.92 40.0622 149.666 35.0304 143.698 39.2722Z" fill="#1D2B36"/>
<path d="M143.698 39.2722C139.094 39.0306 137.086 42.6938 137.615 45.9846C140.827 45.1838 144.149 44.9202 147.447 45.2046C153.757 45.8487 143.698 39.2722 143.698 39.2722Z" fill="#1D2B36"/>
<path d="M151.678 49.3861C151.742 50.1372 151.505 50.8828 151.019 51.4592C150.37 52.219 149.51 51.7711 149.208 50.8704C148.951 50.0553 148.981 48.6816 149.857 48.2489C150.05 48.1594 150.263 48.1195 150.476 48.1328C150.688 48.1461 150.894 48.2122 151.075 48.325C151.256 48.4379 151.406 48.594 151.511 48.7792C151.616 48.9645 151.674 49.173 151.678 49.3861Z" fill="#EBBE8B"/>
<path d="M144.83 48.2489C144.891 48.5609 144.775 48.8426 144.574 48.8829C144.372 48.9231 144.156 48.7018 144.096 48.3797C144.035 48.0577 144.151 47.7809 144.352 47.7407C144.554 47.7004 144.77 47.9369 144.83 48.2489Z" fill="#1D2B36"/>
<path d="M141.313 48.9332C141.373 49.2452 141.258 49.532 141.056 49.5722C140.855 49.6125 140.639 49.3911 140.578 49.0691C140.518 48.747 140.634 48.4703 140.835 48.4351C141.036 48.3998 141.253 48.6162 141.313 48.9332Z" fill="#1D2B36"/>
<path d="M140.93 48.4401L140.14 48.3747C140.14 48.3747 140.639 48.8829 140.93 48.4401Z" fill="#1D2B36"/>
<path d="M142.35 49.2905C142.208 50.0527 141.964 50.7924 141.625 51.4894C141.805 51.5735 142.002 51.6171 142.201 51.6171C142.4 51.6171 142.597 51.5735 142.777 51.4894L142.35 49.2905Z" fill="#BF8356"/>
<path d="M144.091 52.4957C144.069 52.496 144.048 52.4886 144.031 52.4747C144.015 52.4609 144.004 52.4415 144 52.4202C143.998 52.4083 143.998 52.3961 144.001 52.3843C144.003 52.3725 144.008 52.3613 144.015 52.3514C144.022 52.3416 144.031 52.3333 144.042 52.3269C144.052 52.3206 144.064 52.3164 144.075 52.3146C144.464 52.2469 144.832 52.0886 145.148 51.8526C145.465 51.6166 145.721 51.3094 145.897 50.956C145.902 50.9447 145.908 50.9345 145.917 50.9259C145.926 50.9173 145.936 50.9105 145.947 50.9058C145.958 50.9011 145.97 50.8987 145.982 50.8987C145.994 50.8987 146.006 50.901 146.018 50.9057C146.029 50.9103 146.039 50.9171 146.048 50.9256C146.056 50.9342 146.063 50.9444 146.068 50.9556C146.073 50.9668 146.075 50.9789 146.075 50.991C146.075 51.0031 146.073 51.0152 146.068 51.0264C145.884 51.4105 145.61 51.7446 145.269 52.0004C144.928 52.2561 144.531 52.426 144.111 52.4957H144.091Z" fill="#1D2B36"/>
<path d="M145.64 46.9104C145.594 46.911 145.55 46.8949 145.514 46.8651C145.345 46.7042 145.14 46.5857 144.916 46.5192C144.692 46.4528 144.456 46.4403 144.226 46.4827C144.176 46.4954 144.122 46.4874 144.077 46.4605C144.032 46.4336 144 46.39 143.987 46.3393C143.975 46.2886 143.983 46.2349 144.01 46.1901C144.036 46.1453 144.08 46.113 144.131 46.1003C144.421 46.0432 144.72 46.0558 145.005 46.1372C145.289 46.2186 145.55 46.3663 145.766 46.5683C145.8 46.6031 145.82 46.6501 145.82 46.6991C145.82 46.7481 145.8 46.7951 145.766 46.8299C145.752 46.8515 145.734 46.8699 145.712 46.8837C145.69 46.8976 145.666 46.9067 145.64 46.9104Z" fill="#1D2B36"/>
<path d="M139.366 47.6098C139.342 47.615 139.318 47.615 139.295 47.6098C139.272 47.6005 139.251 47.5866 139.234 47.5691C139.216 47.5516 139.202 47.5307 139.193 47.5078C139.184 47.4848 139.179 47.4602 139.179 47.4354C139.179 47.4105 139.185 47.386 139.195 47.3633C139.302 47.0881 139.473 46.8426 139.695 46.6474C139.916 46.4521 140.181 46.3128 140.468 46.2412C140.492 46.2361 140.517 46.2361 140.541 46.241C140.565 46.2459 140.588 46.2558 140.608 46.2699C140.629 46.2841 140.646 46.3022 140.659 46.3232C140.672 46.3442 140.68 46.3677 140.684 46.3922C140.689 46.416 140.689 46.4406 140.685 46.4645C140.68 46.4884 140.671 46.5112 140.657 46.5314C140.643 46.5516 140.626 46.5688 140.605 46.5821C140.585 46.5953 140.562 46.6043 140.538 46.6085C140.312 46.6702 140.103 46.7837 139.929 46.94C139.754 47.0964 139.618 47.2913 139.532 47.5092C139.516 47.5393 139.492 47.5645 139.462 47.5822C139.433 47.5999 139.4 47.6094 139.366 47.6098Z" fill="#1D2B36"/>
<path d="M186.237 164.201C186.15 164.199 186.066 164.176 185.99 164.134C185.915 164.092 185.851 164.032 185.804 163.96C185.768 163.917 185.744 163.866 185.734 163.811C185.725 163.756 185.73 163.7 185.748 163.648C185.925 163.175 187.313 162.873 187.469 162.838C187.487 162.834 187.506 162.837 187.523 162.844C187.54 162.851 187.555 162.863 187.565 162.878C187.576 162.893 187.581 162.91 187.581 162.928C187.581 162.946 187.576 162.964 187.565 162.979C187.293 163.426 186.76 164.176 186.262 164.201H186.237ZM187.288 163.069C186.74 163.21 186.015 163.462 185.925 163.713C185.916 163.736 185.914 163.761 185.919 163.786C185.925 163.81 185.937 163.832 185.955 163.849C185.986 163.901 186.03 163.944 186.083 163.973C186.136 164.002 186.196 164.017 186.257 164.015C186.523 164 186.901 163.653 187.288 163.069Z" fill="#008AF8"/>
<path d="M187.062 163.069C186.559 163.069 185.93 162.943 185.744 162.672C185.702 162.61 185.683 162.536 185.69 162.462C185.696 162.388 185.728 162.318 185.779 162.264C185.823 162.208 185.879 162.162 185.942 162.129C186.005 162.096 186.075 162.077 186.146 162.073H186.186C186.75 162.073 187.525 162.833 187.555 162.863C187.567 162.874 187.576 162.889 187.58 162.905C187.585 162.921 187.585 162.937 187.58 162.953C187.576 162.969 187.567 162.983 187.556 162.995C187.545 163.006 187.53 163.014 187.515 163.019C187.367 163.054 187.214 163.071 187.062 163.069ZM186.186 162.259H186.156C186.111 162.261 186.067 162.272 186.027 162.293C185.987 162.314 185.952 162.344 185.925 162.38C185.854 162.475 185.874 162.531 185.9 162.566C186.051 162.797 186.82 162.928 187.293 162.873C186.992 162.565 186.607 162.352 186.186 162.259Z" fill="#008AF8"/>
<path d="M158.421 174.059C158.083 174.088 157.744 174.003 157.46 173.817C157.393 173.765 157.34 173.696 157.307 173.618C157.273 173.539 157.26 173.454 157.269 173.369C157.268 173.319 157.281 173.269 157.306 173.225C157.331 173.181 157.366 173.144 157.41 173.118C157.873 172.846 159.493 173.651 159.674 173.742C159.691 173.751 159.705 173.764 159.714 173.782C159.723 173.799 159.726 173.818 159.724 173.837C159.722 173.856 159.714 173.874 159.701 173.888C159.689 173.903 159.672 173.913 159.654 173.918C159.248 174.003 158.835 174.05 158.421 174.059ZM157.676 173.243C157.617 173.24 157.558 173.252 157.505 173.279C157.488 173.288 157.474 173.302 157.465 173.319C157.456 173.336 157.453 173.355 157.455 173.374C157.45 173.431 157.459 173.488 157.481 173.541C157.503 173.593 157.537 173.64 157.581 173.676C157.832 173.892 158.481 173.928 159.337 173.787C158.817 173.514 158.256 173.331 157.676 173.243Z" fill="#008AF8"/>
<path d="M159.634 173.908H159.598C159.095 173.691 158.124 172.836 158.195 172.398C158.195 172.297 158.285 172.167 158.537 172.141H158.612C159.488 172.141 159.714 173.742 159.724 173.812C159.726 173.829 159.724 173.846 159.718 173.862C159.712 173.878 159.702 173.892 159.689 173.903C159.671 173.909 159.652 173.911 159.634 173.908ZM158.627 172.318H158.572C158.411 172.318 158.401 172.393 158.401 172.413C158.361 172.68 159.025 173.349 159.528 173.646C159.427 173.253 159.171 172.328 158.607 172.328L158.627 172.318Z" fill="#008AF8"/>
<path d="M144.448 47.7558L143.658 47.6853C143.658 47.6853 144.156 48.1986 144.448 47.7558Z" fill="#1D2B36"/>
<path d="M147.904 65.996C139.486 67.8728 142.088 62.7807 142.591 61.6586L142.802 61.5781C143.809 61.2108 144.01 61.1554 145.348 60.7629C147.684 60.1324 150.062 59.67 152.463 59.3792L152.966 59.3088C153.47 59.2433 153.928 59.193 154.39 59.1528C154.702 59.1175 155.014 59.0974 155.311 59.0773L156.318 59.0169C156.489 59.8019 156.906 63.9984 147.904 65.996Z" fill="#EBBE8B"/>
<path d="M161.118 81.9316L162.099 83.1996C162.175 83.2952 162.069 83.4311 161.888 83.4663L145.454 86.6665C145.313 86.6967 145.182 86.6665 145.157 86.5609L144.74 85.1872C144.74 85.0916 144.82 84.9859 144.971 84.9557L160.841 81.8662C160.889 81.8521 160.94 81.8507 160.988 81.8622C161.037 81.8737 161.081 81.8976 161.118 81.9316Z" fill="#224763"/>
<path d="M159.332 84.1205L159.759 84.0399C159.845 84.0399 159.9 83.9695 159.885 83.9141L159.332 82.1329C159.332 82.0776 159.231 82.0524 159.145 82.0675L158.723 82.148C158.637 82.148 158.582 82.2235 158.597 82.2738L159.15 84.0601C159.166 84.1104 159.251 84.1406 159.332 84.1205Z" fill="#008AF8"/>
<path d="M149.706 90.0579L146.43 88.8403L146.933 91.9549C146.933 91.9549 149.308 92.8103 150.521 91.7134L149.706 90.0579Z" fill="#EBBE8B"/>
<path d="M143.31 89.6655L142.531 91.7084L146.933 91.9549L146.43 88.8403L143.31 89.6655Z" fill="#EBBE8B"/>
<path d="M146.677 86.586L147.104 86.5055C147.185 86.5055 147.245 86.4351 147.225 86.3797L146.672 84.5985C146.672 84.5431 146.576 84.518 146.491 84.5331L146.063 84.6136C145.977 84.6136 145.922 84.689 145.942 84.7394L146.496 86.5256C146.511 86.576 146.591 86.6062 146.677 86.586Z" fill="#008AF8"/>
<path d="M153.007 85.3482L153.429 85.2677C153.515 85.2677 153.57 85.1973 153.555 85.1419L153.002 83.3607C153.002 83.3053 152.901 83.2801 152.816 83.2952L152.393 83.3757C152.307 83.3757 152.252 83.4512 152.267 83.5015L152.821 85.2878C152.841 85.3169 152.87 85.3386 152.903 85.3495C152.937 85.3605 152.973 85.36 153.007 85.3482Z" fill="#008AF8"/>
<path d="M151.215 57.3816C151.573 57.2457 152.021 58.5037 151.91 58.6647C151.653 59.032 146.954 60.3151 146.742 59.5956C146.729 59.2055 146.789 58.8164 146.918 58.4483C147.054 58.2068 148.096 58.6496 151.215 57.3816Z" fill="#008AF8"/>
<path d="M150.421 57.4118C150.602 56.9941 151.12 56.3249 151.573 56.7073C152.026 57.0897 152.217 57.9149 151.92 58.0508C151.623 58.1866 150.109 58.1112 150.421 57.4118Z" fill="#008AF8"/>
<path d="M151.381 57.6281C151.693 57.296 152.388 56.8381 152.705 57.3514C153.022 57.8646 152.906 58.7049 152.584 58.7301C152.262 58.7552 150.853 58.1766 151.381 57.6281Z" fill="#008AF8"/>
<path d="M151.553 57.5526C151.527 57.2851 151.58 57.016 151.704 56.7776C151.828 56.5392 152.018 56.3418 152.252 56.2092C152.826 55.8368 153.384 55.5953 153.606 55.2028C153.701 55.5708 153.72 55.9544 153.661 56.3299C153.545 56.8683 151.759 57.2809 151.88 57.7489L151.553 57.5526Z" fill="#008AF8"/>
<path d="M151.477 57.5275C151.311 57.3163 151.209 57.0614 151.184 56.7936C151.159 56.5257 151.212 56.2563 151.336 56.018C151.608 55.394 151.95 54.8908 151.93 54.448C152.21 54.7055 152.434 55.017 152.589 55.3638C152.78 55.867 151.507 57.1904 151.865 57.5225L151.477 57.5275Z" fill="#008AF8"/>
<path d="M186.473 155.823C186.463 155.823 186.453 155.82 186.444 155.815C186.435 155.809 186.428 155.802 186.423 155.793C186.307 155.632 174.804 139.218 170.588 124.797C167.836 115.547 165.721 106.119 164.258 96.5791C163.387 91.2052 162.859 87.9597 161.128 85.2979C161.116 85.2857 161.11 85.2695 161.11 85.2526C161.11 85.2357 161.116 85.2195 161.128 85.2073C161.14 85.197 161.155 85.1914 161.171 85.1914C161.187 85.1914 161.202 85.197 161.214 85.2073C162.965 87.8943 163.493 91.1499 164.364 96.5389C165.834 106.065 167.952 115.479 170.704 124.717C174.915 139.118 186.408 155.511 186.523 155.677C186.533 155.69 186.538 155.705 186.538 155.72C186.538 155.736 186.533 155.751 186.523 155.763C186.523 155.777 186.517 155.791 186.508 155.802C186.499 155.812 186.487 155.82 186.473 155.823Z" fill="#008AF8"/>
<path d="M186.473 155.823C186.463 155.823 186.453 155.82 186.444 155.815C186.435 155.809 186.428 155.802 186.423 155.793C186.307 155.632 174.804 139.218 170.588 124.797C167.836 115.547 165.721 106.119 164.258 96.5791C163.387 91.2052 162.859 87.9597 161.128 85.2979C161.116 85.2857 161.11 85.2695 161.11 85.2526C161.11 85.2357 161.116 85.2195 161.128 85.2073C161.14 85.197 161.155 85.1914 161.171 85.1914C161.187 85.1914 161.202 85.197 161.214 85.2073C162.965 87.8943 163.493 91.1499 164.364 96.5389C165.834 106.065 167.952 115.479 170.704 124.717C174.915 139.118 186.408 155.511 186.523 155.677C186.533 155.69 186.538 155.705 186.538 155.72C186.538 155.736 186.533 155.751 186.523 155.763C186.523 155.777 186.517 155.791 186.508 155.802C186.499 155.812 186.487 155.82 186.473 155.823Z" fill="#1D2B36" opacity="0.4"/>
<path d="M165.214 167.935L157.525 168.931L157.022 166.788L165.028 165.092L165.214 167.935Z" fill="#008AF8"/>
<path d="M188.783 155.587L183.112 158.863L181.2 157.227L187.404 153.031L188.783 155.587Z" fill="#008AF8"/>
<path d="M162.17 64.2802C162.441 65.679 162.597 66.9973 162.748 68.3609C162.899 69.7245 162.955 71.0731 162.995 72.4367C163.035 73.811 163.005 75.1865 162.904 76.5577C162.849 77.2471 162.789 77.9364 162.693 78.6308C162.653 78.9729 162.607 79.3201 162.542 79.6673L162.356 80.7341C162.15 81.6036 161.771 82.4231 161.244 83.1443C160.811 83.7511 160.333 84.3247 159.815 84.8601C158.844 85.8575 157.801 86.7825 156.695 87.6276C154.555 89.2751 152.291 90.7538 149.922 92.0506L148.845 90.38C149.852 89.5799 150.858 88.7547 151.865 87.9144C152.871 87.0741 153.827 86.2237 154.748 85.3382C155.658 84.4858 156.516 83.5801 157.319 82.626C157.688 82.1846 158.024 81.7171 158.325 81.2272C158.563 80.8703 158.734 80.473 158.829 80.0548C158.992 78.8333 159.088 77.6036 159.115 76.3715C159.115 75.7425 159.115 75.1136 159.115 74.4846C159.115 73.8556 159.09 73.2166 159.06 72.5826C159 71.3146 158.884 70.0667 158.748 68.7786C158.612 67.4904 158.436 66.2174 158.245 65.0249L162.17 64.2802Z" fill="#EBBE8B"/>
<path d="M161.561 60.0031C163.709 61.7441 163.196 66.9168 163.196 66.9168L155.95 69.3018C155.95 69.3018 156.283 63.3392 156.645 61.1956C157.067 58.6445 159.443 58.2873 161.561 60.0031Z" fill="#008AF8"/>
<path opacity="0.2" d="M161.561 60.0031C163.709 61.7441 163.196 66.9168 163.196 66.9168L155.95 69.3018C155.95 69.3018 156.283 63.3392 156.645 61.1956C157.067 58.6445 159.443 58.2873 161.561 60.0031Z" fill="#1D2B36"/>
<path d="M65.8412 81.5895C65.5601 80.3694 64.8736 79.2808 63.8939 78.5012C62.9142 77.7216 61.6992 77.2973 60.4472 77.2974H20.1929C18.725 77.2974 17.3171 77.8805 16.2791 78.9185C15.2411 79.9565 14.658 81.3644 14.658 82.8323V172.307C14.658 173.775 15.2411 175.183 16.2791 176.221C17.3171 177.259 18.725 177.842 20.1929 177.842H148C149.468 177.842 150.876 177.259 151.914 176.221C152.952 175.183 153.535 173.775 153.535 172.307V97.1477C153.535 95.6798 152.952 94.2719 151.914 93.2339C150.876 92.1959 149.468 91.6128 148 91.6128H78.4358C75.5122 91.6133 72.6748 90.6223 70.3872 88.8017C68.0996 86.9811 66.497 84.4386 65.8412 81.5895Z" fill="#008AF8" opacity="0.9"/>
<path opacity="0.5" d="M65.8412 81.5895C65.5601 80.3694 64.8736 79.2808 63.8939 78.5012C62.9142 77.7216 61.6992 77.2973 60.4472 77.2974H20.1929C18.725 77.2974 17.3171 77.8805 16.2791 78.9185C15.2411 79.9565 14.658 81.3644 14.658 82.8323V172.307C14.658 173.775 15.2411 175.183 16.2791 176.221C17.3171 177.259 18.725 177.842 20.1929 177.842H148C149.468 177.842 150.876 177.259 151.914 176.221C152.952 175.183 153.535 173.775 153.535 172.307V97.1477C153.535 95.6798 152.952 94.2719 151.914 93.2339C150.876 92.1959 149.468 91.6128 148 91.6128H78.4358C75.5122 91.6133 72.6748 90.6223 70.3872 88.8017C68.0996 86.9811 66.497 84.4386 65.8412 81.5895Z" fill="white"/>
<path d="M51.6313 53.7234L55.219 65.3418C55.677 66.8205 56.7031 68.057 58.0721 68.7797C59.441 69.5023 61.0408 69.6521 62.5201 69.1962L74.1335 65.6085L51.6313 53.7234Z" fill="#008AF8" opacity="0.22"/>
<path d="M51.6314 53.7234L10.1192 66.5495C9.3864 66.7746 8.70516 67.142 8.11447 67.6307C7.52378 68.1193 7.03524 68.7197 6.67678 69.3973C6.31833 70.075 6.09699 70.8166 6.02545 71.5799C5.95391 72.3432 6.03356 73.1131 6.25984 73.8455L29.9595 150.57C30.1857 151.303 30.554 151.984 31.0434 152.574C31.5328 153.164 32.1336 153.652 32.8116 154.01C33.4896 154.368 34.2315 154.589 34.9949 154.66C35.7583 154.731 36.5282 154.651 37.2606 154.424L90.3912 138.011C91.1236 137.785 91.8043 137.417 92.3944 136.928C92.9846 136.44 93.4726 135.839 93.8305 135.162C94.1885 134.484 94.4094 133.742 94.4806 132.979C94.5518 132.216 94.472 131.447 94.2456 130.715L74.1185 65.6085L51.6314 53.7234Z" fill="#008AF8"/>
<path opacity="0.8" d="M51.6314 53.7234L10.1192 66.5495C9.3864 66.7746 8.70516 67.142 8.11447 67.6307C7.52378 68.1193 7.03524 68.7197 6.67678 69.3973C6.31833 70.075 6.09699 70.8166 6.02545 71.5799C5.95391 72.3432 6.03356 73.1131 6.25984 73.8455L29.9595 150.57C30.1857 151.303 30.554 151.984 31.0434 152.574C31.5328 153.164 32.1336 153.652 32.8116 154.01C33.4896 154.368 34.2315 154.589 34.9949 154.66C35.7583 154.731 36.5282 154.651 37.2606 154.424L90.3912 138.011C91.1236 137.785 91.8043 137.417 92.3944 136.928C92.9846 136.44 93.4726 135.839 93.8305 135.162C94.1885 134.484 94.4094 133.742 94.4806 132.979C94.5518 132.216 94.472 131.447 94.2456 130.715L74.1185 65.6085L51.6314 53.7234Z" fill="white"/>
<g opacity="0.28">
<path d="M73.9675 134.66L39.4294 145.327C38.7835 145.525 38.0853 145.46 37.4875 145.145C36.8897 144.83 36.4409 144.291 36.2392 143.646C36.0426 143.001 36.1095 142.303 36.4253 141.706C36.7411 141.11 37.2802 140.662 37.9249 140.461L72.463 129.789C73.1096 129.591 73.8084 129.657 74.4063 129.973C75.0042 130.289 75.4526 130.829 75.6532 131.475C75.8498 132.12 75.7829 132.818 75.4671 133.415C75.1513 134.011 74.6122 134.459 73.9675 134.66Z" fill="#008AF8" opacity="0.28"/>
</g>
<g opacity="0.28">
<path d="M36.7977 72.0543L18.5323 77.6949C17.8864 77.8919 17.1888 77.8258 16.5914 77.5111C15.9939 77.1963 15.545 76.6584 15.3422 76.0143C15.1454 75.3677 15.2121 74.6696 15.5279 74.072C15.8436 73.4744 16.3828 73.0259 17.0278 72.8241L35.2932 67.1835C35.9391 66.9837 36.6379 67.0485 37.2361 67.3636C37.8342 67.6788 38.2828 68.2184 38.4833 68.8641C38.6801 69.5107 38.6134 70.2088 38.2976 70.8064C37.9819 71.404 37.4427 71.8525 36.7977 72.0543Z" fill="#008AF8" opacity="0.28"/>
</g>
<g opacity="0.28">
<path d="M51.7019 78.037L21.5112 87.3609C20.8666 87.5545 20.1717 87.4861 19.5773 87.1705C18.9829 86.8549 18.5369 86.3176 18.3361 85.6753C18.1379 85.03 18.2035 84.3325 18.5185 83.7355C18.8335 83.1385 19.3722 82.6907 20.0167 82.4902L50.2074 73.1663C50.8533 72.9679 51.5515 73.0333 52.1493 73.3482C52.7471 73.6632 53.1959 74.202 53.3976 74.8469C53.5926 75.4948 53.5238 76.1935 53.2062 76.7909C52.8887 77.3884 52.348 77.8362 51.7019 78.037Z" fill="#008AF8" opacity="0.28"/>
</g>
<g opacity="0.28">
<path d="M68.5582 83.416L24.4999 97.0018C23.8547 97.2001 23.1572 97.1345 22.5602 96.8195C21.9632 96.5045 21.5153 95.9657 21.3148 95.3212C21.1178 94.6753 21.1838 93.9777 21.4986 93.3803C21.8133 92.7828 22.3513 92.3339 22.9954 92.1311L67.0537 78.5452C67.6989 78.3484 68.3958 78.4146 68.9925 78.7294C69.5891 79.0442 70.0371 79.5821 70.2388 80.2259C70.4372 80.8718 70.3718 81.57 70.0568 82.1678C69.7419 82.7656 69.2031 83.2144 68.5582 83.416Z" fill="#008AF8" opacity="0.28"/>
</g>
<g opacity="0.28">
<path d="M71.5422 93.077L45.9304 100.992C45.2845 101.189 44.587 101.122 43.9903 100.806C43.3935 100.49 42.946 99.951 42.7453 99.3064C42.5484 98.6611 42.6146 97.9642 42.9294 97.3676C43.2443 96.771 43.7822 96.323 44.4259 96.1213L70.0377 88.2063C70.6842 88.0108 71.3818 88.0782 71.979 88.3938C72.5762 88.7093 73.0249 89.2476 73.2278 89.8919C73.4245 90.5378 73.3576 91.2353 73.0418 91.832C72.7259 92.4288 72.1868 92.8764 71.5422 93.077Z" fill="#008AF8" opacity="0.28"/>
</g>
<g opacity="0.28">
<path d="M34.1862 104.62L27.4889 106.688C26.843 106.886 26.1448 106.821 25.547 106.506C24.9492 106.191 24.5004 105.652 24.2987 105.007C24.1006 104.361 24.1667 103.662 24.4826 103.064C24.7986 102.466 25.3386 102.018 25.9844 101.817L32.6817 99.7492C33.3276 99.5522 34.0252 99.6182 34.6226 99.933C35.2201 100.248 35.6691 100.786 35.8718 101.43C36.0673 102.076 35.9999 102.774 35.6843 103.371C35.3688 103.968 34.8305 104.417 34.1862 104.62Z" fill="#008AF8" opacity="0.28"/>
</g>
<g opacity="0.28">
<path d="M74.5309 102.743L30.4727 116.354C29.8268 116.551 29.1293 116.484 28.5325 116.168C27.9358 115.852 27.4882 115.313 27.2875 114.668C27.0893 114.023 27.1549 113.326 27.4699 112.729C27.7849 112.132 28.3236 111.684 28.9682 111.483L73.0265 97.8723C73.6717 97.6755 74.3686 97.7417 74.9652 98.0565C75.5619 98.3713 76.0099 98.9092 76.2116 99.553C76.41 100.199 76.3445 100.897 76.0296 101.495C75.7147 102.093 75.1758 102.541 74.5309 102.743Z" fill="#008AF8" opacity="0.28"/>
</g>
<g opacity="0.28">
<path d="M60.5123 117.657L33.4565 126.015C32.8112 126.212 32.1143 126.146 31.5177 125.831C30.921 125.516 30.473 124.978 30.2713 124.334C30.0743 123.689 30.1404 122.991 30.4551 122.394C30.7699 121.796 31.3078 121.347 31.9519 121.144L59.0078 112.787C59.6544 112.59 60.3526 112.656 60.9501 112.972C61.5477 113.288 61.9962 113.827 62.198 114.472C62.396 115.118 62.3298 115.816 62.0138 116.413C61.6977 117.01 61.1578 117.458 60.5123 117.657Z" fill="#008AF8" opacity="0.28"/>
</g>
<g opacity="0.28">
<path d="M77.515 112.409L70.2944 114.638C69.6478 114.835 68.9497 114.768 68.3521 114.453C67.7545 114.137 67.306 113.598 67.1042 112.953C66.9076 112.307 66.9745 111.609 67.2903 111.012C67.6061 110.416 68.1452 109.968 68.7899 109.767L76.0105 107.538C76.6557 107.34 77.3532 107.406 77.9502 107.721C78.5472 108.036 78.995 108.574 79.1956 109.219C79.394 109.865 79.3286 110.563 79.0136 111.161C78.6987 111.759 78.1599 112.208 77.515 112.409Z" fill="#008AF8" opacity="0.28"/>
</g>
<g opacity="0.28">
<path d="M80.4989 122.08L36.4506 135.666C35.8041 135.864 35.1053 135.798 34.5074 135.482C33.9095 135.166 33.4611 134.626 33.2605 133.98C33.0625 133.334 33.1287 132.636 33.4447 132.039C33.7607 131.442 34.3007 130.995 34.9461 130.795L78.9994 117.184C79.646 116.989 80.3435 117.056 80.9407 117.372C81.5379 117.687 81.9867 118.226 82.1895 118.87C82.2906 119.192 82.327 119.53 82.2966 119.866C82.2663 120.202 82.1697 120.529 82.0126 120.827C81.8554 121.125 81.6407 121.39 81.3809 121.605C81.1212 121.82 80.8214 121.982 80.4989 122.08Z" fill="#008AF8" opacity="0.28"/>
</g>
<path d="M81.4446 24.8712L94.6178 54.2266C94.9598 54.9929 94.9845 55.8635 94.6865 56.6479C94.3886 57.4324 93.7922 58.067 93.0277 58.4131L37.1448 83.4965C36.3786 83.8399 35.5076 83.8653 34.7227 83.5672C33.9379 83.2691 33.3033 82.6719 32.9583 81.9065L19.7801 52.5511C19.4352 51.7844 19.4089 50.9121 19.7071 50.126C20.0053 49.34 20.6035 48.7046 21.3701 48.3596L77.2531 23.2762C78.0207 22.9343 78.8925 22.9102 79.6779 23.209C80.4633 23.5079 81.0984 24.1055 81.4446 24.8712Z" fill="#008AF8"/>
<path d="M81.4446 24.8712L94.6178 54.2266C94.9598 54.9929 94.9845 55.8635 94.6865 56.6479C94.3886 57.4324 93.7922 58.067 93.0277 58.4131L37.1448 83.4965C36.3786 83.8399 35.5076 83.8653 34.7227 83.5672C33.9379 83.2691 33.3033 82.6719 32.9583 81.9065L19.7801 52.5511C19.4352 51.7844 19.4089 50.9121 19.7071 50.126C20.0053 49.34 20.6035 48.7046 21.3701 48.3596L77.2531 23.2762C78.0207 22.9343 78.8925 22.9102 79.6779 23.209C80.4633 23.5079 81.0984 24.1055 81.4446 24.8712Z" fill="#008AF8" opacity="0.3"/>
<path opacity="0.5" d="M79.5729 23.1705L65.1618 51.3988C63.8246 54.0152 61.6347 56.097 58.954 57.3001C56.2733 58.5032 53.2623 58.7556 50.4187 58.0156L19.75 50.0201C20.0646 49.2842 20.6423 48.6922 21.3702 48.3596L77.2532 23.2762C77.9852 22.9488 78.8141 22.9111 79.5729 23.1705Z" fill="white"/>
<path d="M99.383 59.2987L56.0191 61.9756C55.253 62.0211 54.5034 62.2173 53.8132 62.5529C53.123 62.8884 52.5058 63.3568 51.9968 63.9312C51.4879 64.5056 51.0972 65.1747 50.8471 65.9003C50.597 66.6259 50.4925 67.3936 50.5395 68.1596L55.4858 148.306C55.5319 149.072 55.7289 149.822 56.0653 150.513C56.4018 151.203 56.8712 151.82 57.4466 152.329C58.0221 152.837 58.6922 153.227 59.4186 153.476C60.145 153.725 60.9135 153.829 61.6799 153.78L117.18 150.354C117.946 150.308 118.694 150.111 119.383 149.775C120.072 149.439 120.688 148.97 121.196 148.396C121.704 147.821 122.093 147.152 122.342 146.427C122.59 145.702 122.693 144.935 122.645 144.17L118.469 76.1551L99.383 59.2987Z" fill="#008AF8"/>
<path opacity="0.8" d="M99.383 59.2987L56.0191 61.9756C55.253 62.0211 54.5034 62.2173 53.8132 62.5529C53.123 62.8884 52.5058 63.3568 51.9968 63.9312C51.4879 64.5056 51.0972 65.1747 50.8471 65.9003C50.597 66.6259 50.4925 67.3936 50.5395 68.1596L55.4858 148.306C55.5319 149.072 55.7289 149.822 56.0653 150.513C56.4018 151.203 56.8712 151.82 57.4466 152.329C58.0221 152.837 58.6922 153.227 59.4186 153.476C60.145 153.725 60.9135 153.829 61.6799 153.78L117.18 150.354C117.946 150.308 118.694 150.111 119.383 149.775C120.072 149.439 120.688 148.97 121.196 148.396C121.704 147.821 122.093 147.152 122.342 146.427C122.59 145.702 122.693 144.935 122.645 144.17L118.469 76.1551L99.383 59.2987Z" fill="white"/>
<g opacity="0.22">
<path d="M102.005 143.214L65.9217 145.443C65.2476 145.481 64.5857 145.252 64.0804 144.804C63.575 144.356 63.2674 143.727 63.2247 143.053C63.186 142.379 63.4149 141.717 63.8615 141.211C64.3081 140.705 64.9364 140.396 65.6097 140.351L101.693 138.127C102.367 138.087 103.029 138.315 103.536 138.762C104.042 139.209 104.351 139.838 104.395 140.512C104.435 141.187 104.206 141.85 103.758 142.356C103.31 142.863 102.679 143.171 102.005 143.214Z" fill="#008AF8" opacity="0.22"/>
</g>
<g opacity="0.22">
<path d="M80.6497 73.6141L61.5642 74.7815C60.8904 74.8201 60.2286 74.5913 59.7226 74.1447C59.2166 73.698 58.9074 73.0698 58.8621 72.3964C58.8235 71.7218 59.053 71.0593 59.5007 70.5532C59.9484 70.0471 60.5779 69.7384 61.2522 69.6944L80.3377 68.5169C81.0113 68.477 81.6733 68.7055 82.1788 69.1525C82.6843 69.5995 82.992 70.2286 83.0348 70.902C83.0775 71.5778 82.8504 72.2429 82.4032 72.7514C81.9561 73.2599 81.3254 73.5701 80.6497 73.6141Z" fill="#008AF8" opacity="0.22"/>
</g>
<g opacity="0.22">
<path d="M93.7224 82.943L62.1882 84.8853C61.5138 84.9266 60.8505 84.6987 60.3439 84.2516C59.8374 83.8044 59.5289 83.1746 59.4862 82.5002C59.4462 81.8253 59.6753 81.162 60.1232 80.6556C60.5712 80.1492 61.2015 79.8409 61.8763 79.7982L93.4054 77.8559C94.0798 77.8146 94.7431 78.0425 95.2497 78.4896C95.7563 78.9368 96.0648 79.5666 96.1075 80.241C96.1474 80.9151 95.9191 81.5776 95.4722 82.0839C95.0253 82.5901 94.3963 82.899 93.7224 82.943Z" fill="#008AF8" opacity="0.22"/>
</g>
<g opacity="0.22">
<path d="M108.833 92.1461L62.8121 94.9841C62.1358 95.0254 61.4707 94.7971 60.9624 94.3492C60.454 93.9012 60.1439 93.2701 60.0999 92.594C60.06 91.9204 60.2885 91.2584 60.7355 90.7529C61.1825 90.2475 61.8116 89.9397 62.485 89.8969L108.511 87.054C109.185 87.0154 109.847 87.2451 110.352 87.6929C110.857 88.1407 111.165 88.7703 111.208 89.4441C111.248 90.1165 111.021 90.7776 110.576 91.2836C110.131 91.7896 109.505 92.0996 108.833 92.1461Z" fill="#008AF8" opacity="0.22"/>
</g>
<g opacity="0.22">
<path d="M109.457 102.24L82.7027 103.89C82.0286 103.93 81.3661 103.702 80.8598 103.255C80.3535 102.808 80.0446 102.179 80.0006 101.505C79.9593 100.831 80.1872 100.168 80.6344 99.661C81.0815 99.1544 81.7114 98.8459 82.3857 98.8032L109.14 97.1528C109.814 97.1115 110.477 97.3394 110.984 97.7865C111.491 98.2337 111.799 98.8635 111.842 99.5379C111.882 100.212 111.653 100.874 111.206 101.381C110.76 101.887 110.131 102.196 109.457 102.24Z" fill="#008AF8" opacity="0.22"/>
</g>
<g opacity="0.22">
<path d="M70.4302 104.645L63.431 105.078C62.7574 105.118 62.0955 104.889 61.59 104.442C61.0845 103.995 60.7767 103.366 60.734 102.693C60.694 102.019 60.9224 101.356 61.3693 100.85C61.8161 100.344 62.4452 100.035 63.119 99.9907L70.1183 99.558C70.7929 99.5194 71.4554 99.7489 71.9615 100.197C72.4676 100.644 72.7763 101.274 72.8203 101.948C72.8589 102.622 72.6292 103.284 72.1814 103.789C71.7336 104.295 71.1041 104.602 70.4302 104.645Z" fill="#008AF8" opacity="0.22"/>
</g>
<g opacity="0.22">
<path d="M110.081 112.334L64.0549 115.172C63.3808 115.212 62.7182 114.983 62.212 114.536C61.7057 114.089 61.3968 113.46 61.3528 112.787C61.3142 112.112 61.5437 111.449 61.9914 110.943C62.4391 110.437 63.0687 110.128 63.7429 110.084L109.764 107.247C110.439 107.207 111.102 107.436 111.608 107.884C112.115 108.332 112.423 108.962 112.466 109.637C112.506 110.31 112.277 110.972 111.83 111.478C111.383 111.983 110.754 112.291 110.081 112.334Z" fill="#008AF8" opacity="0.22"/>
</g>
<g opacity="0.22">
<path d="M92.9424 123.524L64.6789 125.27C64.0043 125.309 63.3418 125.079 62.8357 124.632C62.3296 124.184 62.0209 123.555 61.9768 122.88C61.9383 122.206 62.168 121.544 62.6158 121.039C63.0636 120.534 63.6931 120.226 64.3669 120.183L92.6304 118.437C93.3045 118.399 93.9665 118.628 94.4718 119.076C94.9771 119.524 95.2847 120.153 95.3275 120.827C95.3688 121.501 95.1407 122.164 94.6935 122.67C94.2462 123.175 93.6163 123.483 92.9424 123.524Z" fill="#008AF8" opacity="0.22"/>
</g>
<g opacity="0.22">
<path d="M110.699 122.432L103.152 122.895C102.478 122.935 101.816 122.707 101.311 122.26C100.805 121.813 100.497 121.184 100.455 120.51C100.413 119.836 100.641 119.173 101.088 118.666C101.536 118.159 102.165 117.851 102.84 117.808L110.387 117.345C111.062 117.304 111.725 117.532 112.232 117.979C112.738 118.426 113.047 119.056 113.09 119.73C113.128 120.405 112.899 121.068 112.451 121.574C112.003 122.08 111.374 122.388 110.699 122.432Z" fill="#008AF8" opacity="0.22"/>
</g>
<g opacity="0.22">
<path d="M111.323 132.526L65.3027 135.364C64.6286 135.404 63.9661 135.176 63.4598 134.729C62.9536 134.282 62.6447 133.653 62.6007 132.979C62.5607 132.305 62.7891 131.642 63.236 131.136C63.6828 130.63 64.3119 130.321 64.9857 130.277L111.011 127.439C111.685 127.399 112.347 127.628 112.852 128.075C113.358 128.522 113.666 129.151 113.708 129.824C113.75 130.499 113.522 131.162 113.075 131.668C112.628 132.175 111.998 132.483 111.323 132.526Z" fill="#008AF8" opacity="0.22"/>
</g>
<path d="M99.3831 59.2987L100.133 71.4353C100.18 72.2006 100.377 72.9491 100.713 73.6381C101.049 74.3272 101.518 74.9432 102.092 75.4511C102.666 75.9591 103.335 76.3489 104.06 76.5983C104.785 76.8477 105.552 76.9519 106.317 76.9049L118.469 76.1551L99.3831 59.2987Z" fill="#008AF8" opacity="0.22"/>
<path d="M85.1833 89.5749C85.1758 88.9933 85.0517 88.4191 84.8184 87.8863C84.5852 87.3535 84.2475 86.8728 83.8253 86.4727C83.4031 86.0726 82.9051 85.7611 82.3605 85.5567C81.8159 85.3524 81.2359 85.2592 80.6547 85.2828H40.3502C37.2959 85.2828 34.312 87.7635 33.7384 90.8178L17.8329 172.307C17.2392 175.362 19.2318 177.842 22.2861 177.842H150.093C153.148 177.842 156.106 175.367 156.705 172.307L169.823 105.133C170.417 102.074 168.424 99.5982 165.37 99.5982H95.8256C89.7874 99.5982 85.3896 95.442 85.1833 89.5749Z" fill="#008AF8" opacity="0.5"/>
</svg>
