<svg width="200" height="200" viewBox="0 0 200 200" fill="none" xmlns="http://www.w3.org/2000/svg">
<path d="M189.822 110.061C189.153 101.693 179.906 89.947 170.508 86.7187C158.505 82.5753 150.897 89.1424 139.91 87.9406C110.202 84.6872 102.283 63.5579 90.5061 44.4098C64.3987 1.9701 -7.82423 20.1377 0.693873 75.5356C5.81781 108.849 40.8708 159.339 93.2767 126.222C115.905 111.901 109.036 103.594 133.061 116.452C142.545 121.52 192.859 147.955 189.822 110.061Z" fill="#1265E5"/>
<path opacity="0.9" d="M189.822 110.061C189.153 101.693 179.906 89.947 170.508 86.7187C158.505 82.5753 150.897 89.1424 139.91 87.9406C110.202 84.6872 102.283 63.5579 90.5061 44.4098C64.3987 1.9701 -7.82423 20.1377 0.693873 75.5356C5.81781 108.849 40.8708 159.339 93.2767 126.222C115.905 111.901 109.036 103.594 133.061 116.452C142.545 121.52 192.859 147.955 189.822 110.061Z" fill="white"/>
<path d="M98.1342 178.225C151.979 178.225 195.63 175.677 195.63 172.533C195.63 169.39 151.979 166.841 98.1342 166.841C44.2888 166.841 0.63855 169.39 0.63855 172.533C0.63855 175.677 44.2888 178.225 98.1342 178.225Z" fill="#F1F3F5"/>
<path d="M41.7253 36.5855C37.6724 40.6635 44.5613 46.9943 40.0106 49.9007C43.7266 51.7662 56.7502 54.1346 60.1242 46.7982C57.6653 44.8874 59.375 40.1909 57.1072 35.6804C53.713 28.9926 37.6724 31.9543 41.7253 36.5855Z" fill="#1D2B36"/>
<path d="M42.0925 36.48C40.8304 36.2688 36.5613 38.3908 39.7392 44.088C42.2987 48.694 40.1666 49.0208 40.1666 49.0208C40.1666 49.0208 42.6808 49.0912 41.1723 45.6669C39.5733 42.0112 38.824 38.2198 42.0925 36.48Z" fill="#1D2B36"/>
<path d="M71.9861 72.6543C71.8306 72.3697 71.5696 72.1576 71.2593 72.0635C70.9489 71.9695 70.614 72.0011 70.3267 72.1515L70.03 72.3074C69.9345 72.3577 69.7535 72.4783 69.6077 72.5638C69.4618 72.6493 69.2909 72.7449 69.13 72.8253C68.8129 72.9849 68.4853 73.1226 68.1494 73.2376C67.5279 73.4628 66.8743 73.5868 66.2135 73.6047C65.6065 73.6118 65.0027 73.5149 64.4284 73.3181C64.0636 73.1827 63.7118 73.0144 63.3775 72.8152C62.945 71.8599 62.5327 70.8944 62.1807 69.8988C61.7533 68.7372 61.3762 67.5505 61.0443 66.3487C60.7124 65.1469 60.4208 63.9301 60.1794 62.7082C60.0537 62.0997 59.9431 61.4863 59.8425 60.8778L59.7067 59.9677C59.6615 59.676 59.6213 59.3442 59.5961 59.1129V59.0123C59.5294 58.3455 59.2006 57.7325 58.6819 57.3081C58.1633 56.8838 57.4973 56.6828 56.8305 56.7495C56.1637 56.8162 55.5507 57.145 55.1263 57.6637C54.702 58.1823 54.501 58.8483 54.5677 59.5151C54.6029 59.9425 54.6331 60.2694 54.6783 60.6264C54.7236 60.9834 54.7739 61.3254 54.8242 61.6723C54.9348 62.3662 55.0605 63.0501 55.2013 63.734C55.4808 65.0928 55.8333 66.4357 56.2573 67.7567C56.4534 68.4204 56.6947 69.0741 56.921 69.7328C57.1473 70.3916 57.4239 71.0352 57.7105 71.6738C58.2592 72.9641 58.8821 74.2216 59.576 75.4401L59.6363 75.5507C59.8168 75.878 60.0873 76.1467 60.4158 76.3251C61.3662 76.8431 62.3931 77.2064 63.4579 77.4012C64.5514 77.5943 65.6723 77.5704 66.7566 77.3308C68.287 76.9758 69.6928 76.213 70.8245 75.1233C71.0106 74.9523 71.1866 74.7763 71.3274 74.5903C71.4682 74.4042 71.6391 74.2282 71.8302 73.9668C71.9776 73.7851 72.0705 73.5654 72.0981 73.3331C72.1257 73.1008 72.0869 72.8655 71.9861 72.6543Z" fill="#FACEA6"/>
<path d="M75.3301 67.9476H75.1842C74.7029 67.9374 74.2257 68.0382 73.7897 68.2422C73.3537 68.4463 72.9705 68.7481 72.6701 69.1243L70.2413 72.1715V74.2532C72.1924 75.0276 74.6663 72.9408 74.6663 72.9408L75.9184 72.624C76.3398 72.5189 76.7073 72.2612 76.9497 71.9008C77.1921 71.5404 77.2923 71.103 77.2308 70.673L77.0498 69.4511C76.9908 69.0361 76.7847 68.656 76.4691 68.38C76.1535 68.1041 75.7493 67.9507 75.3301 67.9476Z" fill="#FACEA6"/>
<path d="M59.5308 56.1965C61.155 57.8659 61.2556 62.8491 61.2556 62.8491L54.7589 68.0786C54.7589 68.0786 52.0888 60.6869 53.5671 58.0771C54.8192 55.8646 57.4591 54.0695 59.5308 56.1965Z" fill="#1265E5"/>
<g opacity="0.2">
<path opacity="0.2" d="M59.5308 56.1965C61.155 57.8659 61.2556 62.8491 61.2556 62.8491L54.7589 68.0786C54.7589 68.0786 52.0888 60.6869 53.5671 58.0771C54.8192 55.8646 57.4591 54.0695 59.5308 56.1965Z" fill="white"/>
</g>
<path d="M48.78 168.224L52.3703 168.616L52.8631 158.861L49.2728 158.464L48.78 168.224Z" fill="#FACEA6"/>
<path d="M52.9588 166.273H48.74C48.6549 166.27 48.5722 166.301 48.5092 166.358C48.4463 166.415 48.4082 166.495 48.4031 166.58L48.1215 170.567C48.1214 170.776 48.2029 170.976 48.3485 171.126C48.4941 171.275 48.6923 171.362 48.9009 171.367C50.6809 171.367 50.701 171.367 52.9236 171.367H58.9124C60.7528 171.367 60.7578 169.501 59.9633 169.33C56.3881 168.576 54.9953 167.53 53.7332 166.534C53.5114 166.363 53.2388 166.271 52.9588 166.273Z" fill="#1D2B36"/>
<path opacity="0.2" d="M52.8633 158.866L52.6069 163.895H48.9965L49.273 158.469L52.8633 158.866Z" fill="#405261"/>
<path d="M54.799 81.0315C54.799 81.0315 57.9066 107.043 57.9066 118.609C55.4577 134.7 53.381 162.939 53.381 162.939L48.4129 162.808C48.4129 162.808 46.1552 132.055 48.247 118.775C45.5669 106.878 42.2582 79.4225 42.2582 79.4225L54.799 81.0315Z" fill="#1D2B36"/>
<path opacity="0.2" d="M45.2201 88.2726C44.6279 88.5331 44.0535 88.8321 43.5004 89.1676C44.1842 94.3016 45.0843 100.763 46.0397 106.727C47.6689 101.819 46.7889 91.0281 45.2201 88.2726Z" fill="#405261"/>
<path d="M9.90063 159.168L12.8624 161.234L17.9712 152.907L15.0095 150.841L9.90063 159.168Z" fill="#FACEA6"/>
<path d="M13.6115 160.143L11.0973 156.759C11.0494 156.69 10.9763 156.642 10.8935 156.626C10.8108 156.61 10.7251 156.627 10.6548 156.674L7.28579 158.836C7.11772 158.96 7.00505 159.144 6.97212 159.351C6.93919 159.557 6.98864 159.767 7.1098 159.937C8.16074 161.37 8.18085 161.38 9.50331 163.16C10.3229 164.252 11.9572 166.449 13.0835 167.963C14.2099 169.476 15.6832 168.33 15.3413 167.585C13.8328 164.272 13.8328 162.557 13.8629 160.928C13.8681 160.646 13.7797 160.37 13.6115 160.143Z" fill="#1D2B36"/>
<path opacity="0.2" d="M17.9662 152.907L15.3364 157.202L12.1635 155.472L15.0095 150.841L17.9662 152.907Z" fill="#405261"/>
<path d="M28.068 162.658C25.4985 162.658 20.1483 162.658 20.0578 158.876C19.9874 155.909 23.6581 154.678 26.826 154.527C27.177 154.51 27.5278 154.562 27.8586 154.681C28.1893 154.8 28.4934 154.982 28.7535 155.219C29.0136 155.455 29.2246 155.74 29.3744 156.058C29.5243 156.376 29.61 156.72 29.6268 157.071V157.272C33.2171 157.101 35.5402 156.317 36.39 154.979C38.3058 151.962 34.6351 144.173 31.0901 136.646C26.9165 127.791 22.1898 117.759 22.0993 108.15C22.096 107.798 22.1619 107.45 22.2933 107.124C22.4246 106.798 22.6189 106.502 22.865 106.251C23.1111 106 23.4041 105.8 23.7274 105.663C24.0507 105.525 24.3979 105.453 24.7493 105.45C25.454 105.451 26.1299 105.73 26.6306 106.226C27.1313 106.722 27.4164 107.395 27.4244 108.099C27.5048 116.537 31.9499 126.006 35.9022 134.363C40.4278 144.007 44.3751 152.339 40.8804 157.845C38.8539 161.084 34.6552 162.658 28.068 162.658Z" fill="#1265E5"/>
<path d="M50.8216 80.5186C50.8216 80.5186 42.2432 110.246 38.0545 121.027C29.9387 135.137 16.4726 156.729 16.4726 156.729L12.1733 154.215C12.1733 154.215 22.2301 129.274 28.9933 117.658C30.8086 105.59 37.6723 78.8089 37.6723 78.8089L50.8216 80.5186Z" fill="#1D2B36"/>
<path d="M14.3859 162.572C14.5565 162.855 14.8193 163.07 15.1301 163.181C15.221 163.202 15.3163 163.199 15.4051 163.169C15.4939 163.14 15.5728 163.086 15.6329 163.015C15.6747 162.976 15.7066 162.928 15.7259 162.875C15.7451 162.821 15.7512 162.764 15.7435 162.708C15.6832 162.105 14.1244 161.32 13.8126 161.169C13.7944 161.162 13.7742 161.161 13.7557 161.168C13.7372 161.174 13.7216 161.187 13.7121 161.204C13.6999 161.223 13.6935 161.245 13.6935 161.267C13.6935 161.29 13.6999 161.311 13.7121 161.33C13.8967 161.765 14.1223 162.181 14.3859 162.572ZM15.4569 162.572C15.5012 162.628 15.5306 162.693 15.5424 162.763C15.5448 162.783 15.5424 162.803 15.5354 162.821C15.5284 162.839 15.517 162.856 15.5022 162.869C15.4616 162.915 15.4095 162.95 15.3512 162.969C15.2929 162.988 15.2304 162.992 15.1703 162.979C14.8384 162.914 14.4009 162.376 13.9786 161.526C14.5262 161.781 15.0262 162.128 15.4569 162.552V162.572Z" fill="#1265E5"/>
<path d="M13.687 161.35L13.7171 161.375C14.22 161.652 15.5274 161.878 15.814 161.461C15.8621 161.385 15.8855 161.295 15.881 161.205C15.8765 161.115 15.8443 161.029 15.7888 160.958C15.286 160.068 13.7775 161.114 13.7121 161.159C13.6971 161.171 13.6852 161.186 13.6773 161.204C13.6694 161.221 13.6659 161.24 13.6668 161.26C13.6648 161.291 13.6718 161.323 13.687 161.35ZM15.5978 161.059C15.6124 161.076 15.6258 161.094 15.638 161.114C15.6933 161.209 15.7034 161.28 15.6732 161.32C15.5072 161.561 14.5418 161.476 13.9786 161.255C14.3557 161.028 15.2357 160.571 15.5978 161.059Z" fill="#1265E5"/>
<path d="M55.3924 167.103C55.722 167.133 56.0519 167.049 56.3277 166.866C56.3976 166.805 56.4492 166.726 56.4767 166.637C56.5042 166.548 56.5066 166.454 56.4835 166.364C56.4764 166.307 56.4563 166.252 56.425 166.204C56.3936 166.157 56.3517 166.116 56.3025 166.087C55.7997 165.78 54.2258 166.56 53.9191 166.721C53.9018 166.73 53.8883 166.745 53.881 166.764C53.8737 166.782 53.8729 166.802 53.8788 166.821C53.8865 166.842 53.8992 166.861 53.9159 166.876C53.9326 166.891 53.9526 166.901 53.9744 166.907C54.4391 167.02 54.9143 167.086 55.3924 167.103ZM56.0159 166.233C56.0875 166.228 56.159 166.244 56.2221 166.278C56.2472 166.278 56.2724 166.313 56.2824 166.374C56.2956 166.434 56.2922 166.496 56.2728 166.555C56.2533 166.613 56.2184 166.665 56.1718 166.706C55.9254 166.932 55.2315 166.962 54.2962 166.796C54.8247 166.513 55.3978 166.322 55.9908 166.233H56.0159Z" fill="#1265E5"/>
<path d="M53.9745 166.932H54.0097C54.5125 166.7 55.493 165.78 55.3321 165.302C55.2986 165.223 55.2426 165.156 55.1711 165.109C55.0995 165.061 55.0157 165.036 54.9299 165.036C53.9242 164.92 53.8538 166.741 53.8488 166.816C53.8489 166.836 53.854 166.856 53.8637 166.873C53.8734 166.891 53.8872 166.906 53.9041 166.917C53.9255 166.929 53.95 166.934 53.9745 166.932ZM54.8796 165.222H54.95C55.0556 165.222 55.1209 165.267 55.136 165.317C55.2316 165.594 54.5879 166.323 54.07 166.64C54.1153 166.202 54.2762 165.222 54.8896 165.222H54.8796Z" fill="#1265E5"/>
<path d="M37.6724 78.8342L54.7991 81.0266C58.6609 68.0232 59.9331 61.7427 60.275 58.7206C60.3655 57.961 60.1879 57.1937 59.773 56.5511C59.358 55.9084 58.7317 55.4308 58.0022 55.2007C56.9965 54.8789 55.6992 54.4968 54.4119 54.1951C53.9744 54.0794 53.5269 53.9738 53.0894 53.8732C50.5254 53.353 47.9275 53.017 45.3155 52.8676C44.9283 52.8324 44.5462 52.8123 44.159 52.7921C43.3997 52.7519 42.6505 52.7419 41.9666 52.7419C41.4533 52.7412 40.9456 52.8476 40.4756 53.054C40.0057 53.2604 39.5839 53.5625 39.2372 53.941C38.8905 54.3194 38.6263 54.7659 38.4617 55.2521C38.297 55.7382 38.2354 56.2533 38.2808 56.7646C38.4166 58.2731 38.5222 59.676 38.6026 60.9633C38.7937 63.9803 38.854 66.394 38.8088 68.5059C38.706 71.9735 38.326 75.4272 37.6724 78.8342Z" fill="#1265E5"/>
<g opacity="0.3">
<path opacity="0.3" d="M37.6724 78.8342L54.7991 81.0266C58.6609 68.0232 59.9331 61.7427 60.275 58.7206C60.3655 57.961 60.1879 57.1937 59.773 56.5511C59.358 55.9084 58.7317 55.4308 58.0022 55.2007C56.9965 54.8789 55.6992 54.4968 54.4119 54.1951C53.9744 54.0794 53.5269 53.9738 53.0894 53.8732C50.5254 53.353 47.9275 53.017 45.3155 52.8676C44.9283 52.8324 44.5462 52.8123 44.159 52.7921C43.3997 52.7519 42.6505 52.7419 41.9666 52.7419C41.4533 52.7412 40.9456 52.8476 40.4756 53.054C40.0057 53.2604 39.5839 53.5625 39.2372 53.941C38.8905 54.3194 38.6263 54.7659 38.4617 55.2521C38.297 55.7382 38.2354 56.2533 38.2808 56.7646C38.4166 58.2731 38.5222 59.676 38.6026 60.9633C38.7937 63.9803 38.854 66.394 38.8088 68.5059C38.706 71.9735 38.326 75.4272 37.6724 78.8342Z" fill="white"/>
</g>
<path opacity="0.3" d="M38.7987 68.4857C41.0615 65.5592 41.8811 62.2103 41.147 60.3649L38.5925 60.9381C38.7987 63.9451 38.854 66.3688 38.7987 68.4857Z" fill="#1265E5"/>
<path d="M54.412 54.165C53.9695 54.0494 53.527 53.9438 53.0896 53.8432C50.5235 53.3254 47.924 52.9893 45.3106 52.8375C44.9234 52.8073 44.5413 52.7872 44.1591 52.7671L43.4904 52.7369L43.9932 53.6169C44.0636 53.7376 45.7732 56.5334 50.0273 59.5404L50.9374 60.1739L51.8124 59.5052C52.6549 58.9007 53.3434 58.1065 53.8221 57.1866C54.3008 56.2668 54.5563 55.2472 54.5679 54.2103L54.412 54.165Z" fill="white"/>
<path d="M47.2011 47.6682C47.0402 49.7851 46.5424 51.9423 45.3104 52.8474C45.3104 52.8474 46.8793 55.4572 50.9422 58.3083C53.4866 56.3623 53.0894 53.843 53.0894 53.843C50.3841 52.8374 50.5752 50.9618 51.7166 47.9699L49.6047 46.8335C49.4225 46.6327 49.1852 46.4899 48.9225 46.4229C48.6598 46.3558 48.3832 46.3675 48.127 46.4565C47.8709 46.5454 47.6466 46.7077 47.4819 46.9231C47.3173 47.1386 47.2197 47.3977 47.2011 47.6682Z" fill="#FACEA6"/>
<path opacity="0.2" d="M49.6049 46.8334C49.4338 46.6443 49.2137 46.5063 48.969 46.4345C48.7244 46.3627 48.4646 46.36 48.2185 46.4266C47.9724 46.4932 47.7494 46.6265 47.5744 46.8119C47.3993 46.9973 47.2789 47.2275 47.2264 47.477C48.0287 49.0945 49.3225 50.4165 50.9223 51.2533C50.9796 50.1193 51.2473 49.0059 51.7118 47.9698L49.6049 46.8334Z" fill="#405261"/>
<path d="M43.9127 41.0307C44.9637 45.1188 45.3207 46.8686 47.8198 48.5733C51.576 51.1579 56.3681 48.9755 56.5541 44.6612C56.7301 40.7742 54.9853 34.7402 50.6206 33.8753C49.6571 33.6783 48.6592 33.7314 47.722 34.0296C46.7849 34.3277 45.9397 34.8609 45.2671 35.5784C44.5945 36.2959 44.1168 37.1737 43.8798 38.1282C43.6427 39.0826 43.654 40.0819 43.9127 41.0307Z" fill="#FACEA6"/>
<path d="M54.3165 34.7202C51.8543 36.9089 48.9335 38.5188 45.7682 39.4318C45.7682 39.4318 48.8909 46.0743 43.0479 44.3998C41.3533 38.7429 43.0479 35.8063 44.5564 34.4235C49.2026 32.915 52.4711 32.4121 54.3165 34.7202Z" fill="#1D2B36"/>
<path d="M43.7164 45.0585C44.059 45.7992 44.6809 46.3741 45.4462 46.6576C46.4519 47.0196 47.0502 46.1547 46.834 45.149C46.6379 44.249 45.8736 42.9717 44.8227 43.0371C44.5954 43.0565 44.3764 43.1319 44.1853 43.2564C43.9941 43.381 43.8368 43.5509 43.7273 43.7511C43.6177 43.9512 43.5594 44.1753 43.5575 44.4034C43.5556 44.6316 43.6102 44.8566 43.7164 45.0585Z" fill="#FACEA6"/>
<path d="M37.5467 77.7985L36.5762 79.2316C36.5008 79.3422 36.6265 79.483 36.8226 79.5082L54.7841 81.8112C54.9399 81.8112 55.0757 81.771 55.1009 81.6754L55.4528 80.1669C55.4528 80.0613 55.3523 79.9557 55.1863 79.9306L37.8384 77.708C37.7861 77.6958 37.7315 77.6977 37.6802 77.7136C37.629 77.7296 37.5829 77.7588 37.5467 77.7985Z" fill="#1265E5"/>
<path d="M39.6233 80.0362L39.1607 79.9759C39.0702 79.9759 39.0048 79.9055 39.0199 79.8501L39.4925 77.884C39.5105 77.8509 39.5392 77.8249 39.574 77.8103C39.6087 77.7957 39.6474 77.7933 39.6836 77.8036L40.1513 77.8639C40.2418 77.8639 40.3071 77.9293 40.2921 77.9896L39.8194 79.9507C39.8043 80.0111 39.7188 80.0463 39.6233 80.0362Z" fill="#1D2B36"/>
<path d="M53.4566 81.806L52.994 81.7507C52.9035 81.7507 52.8382 81.6803 52.8532 81.62L53.3259 79.6589C53.3259 79.6036 53.4265 79.5633 53.517 79.5734L53.9846 79.6337C54.0751 79.6337 54.1405 79.7041 54.1254 79.7594L53.6528 81.7255C53.6377 81.7809 53.5522 81.8211 53.4566 81.806Z" fill="#1D2B36"/>
<path d="M46.5426 80.9212L46.08 80.8608C45.9845 80.8608 45.9191 80.7955 45.9342 80.7351L46.4068 78.7741C46.4068 78.7137 46.5074 78.6785 46.6029 78.6886L47.0656 78.7489C47.1561 78.7489 47.2214 78.8193 47.2114 78.8746L46.7337 80.8407C46.7236 80.896 46.6331 80.9312 46.5426 80.9212Z" fill="#1D2B36"/>
<path d="M50.9172 40.8547C50.9775 41.1916 51.2088 41.433 51.42 41.3877C51.6312 41.3425 51.767 41.0408 51.7016 40.7039C51.6363 40.367 51.405 40.1256 51.1988 40.1709C50.9926 40.2161 50.8669 40.5178 50.9172 40.8547Z" fill="#1D2B36"/>
<path d="M54.7188 40.1256C54.7841 40.4625 55.0154 40.6989 55.2216 40.6586C55.4278 40.6184 55.5686 40.3067 55.5032 39.9697C55.4378 39.6328 55.2065 39.3965 55.0004 39.4367C54.7942 39.477 54.6584 39.7887 54.7188 40.1256Z" fill="#1D2B36"/>
<path d="M54.8895 39.4769L55.6538 39.0847C55.6538 39.0847 55.3924 39.7987 54.8895 39.4769Z" fill="#1D2B36"/>
<path d="M53.713 40.8798C54.1624 41.5882 54.7053 42.2326 55.3271 42.7956C55.1798 42.9522 54.9998 43.0743 54.7999 43.1534C54.6 43.2325 54.3852 43.2666 54.1706 43.2532L53.713 40.8798Z" fill="#E5978F"/>
<path d="M51.3398 44.6109C51.3246 44.6285 51.316 44.6508 51.3153 44.674C51.3147 44.6972 51.3222 44.7199 51.3364 44.7382C51.3506 44.7566 51.3707 44.7695 51.3933 44.7747C51.4159 44.7799 51.4396 44.7771 51.4604 44.7668C51.8404 44.573 52.2608 44.472 52.6874 44.472C53.1139 44.472 53.5343 44.573 53.9143 44.7668C53.9371 44.7798 53.964 44.7834 53.9893 44.7768C54.0147 44.7702 54.0365 44.754 54.0501 44.7316C54.0638 44.7087 54.0683 44.6814 54.0627 44.6553C54.0571 44.6292 54.0418 44.6061 54.0199 44.5908C53.6098 44.3808 53.1557 44.2712 52.6949 44.2712C52.2342 44.2712 51.78 44.3808 51.3699 44.5908C51.3699 44.5908 51.3699 44.6009 51.3398 44.6109Z" fill="#1D2B36"/>
<path d="M49.6048 39.8188C49.6358 39.7997 49.6604 39.7717 49.6752 39.7384C49.78 39.5092 49.9376 39.3081 50.1352 39.1517C50.3327 38.9952 50.5645 38.8878 50.8116 38.8383C50.8381 38.8352 50.8637 38.8269 50.887 38.8138C50.9102 38.8007 50.9306 38.7831 50.947 38.762C50.9634 38.741 50.9754 38.7168 50.9824 38.6911C50.9894 38.6653 50.9911 38.6385 50.9876 38.612C50.9851 38.5857 50.9774 38.5602 50.9648 38.537C50.9522 38.5138 50.9351 38.4934 50.9145 38.4769C50.8938 38.4605 50.87 38.4484 50.8446 38.4414C50.8191 38.4343 50.7925 38.4325 50.7664 38.436C50.4521 38.4947 50.1563 38.6276 49.9035 38.8234C49.6508 39.0193 49.4484 39.2726 49.3132 39.5624C49.2936 39.6021 49.2877 39.647 49.2963 39.6904C49.3049 39.7338 49.3276 39.7731 49.3608 39.8023C49.394 39.8315 49.4359 39.8489 49.48 39.8519C49.5241 39.8549 49.568 39.8433 49.6048 39.8188Z" fill="#1D2B36"/>
<path d="M55.8501 37.2694L55.8752 37.2443C55.8905 37.2225 55.9014 37.1979 55.9072 37.172C55.913 37.146 55.9135 37.1191 55.9088 37.093C55.9042 37.0668 55.8943 37.0418 55.8799 37.0194C55.8655 36.997 55.8468 36.9777 55.8249 36.9627C55.565 36.7758 55.2643 36.6537 54.9477 36.6065C54.6311 36.5593 54.3078 36.5883 54.0046 36.6911C53.9562 36.7122 53.9177 36.7511 53.8972 36.7998C53.8766 36.8484 53.8754 36.9031 53.894 36.9526C53.9141 37.0019 53.9529 37.0412 54.0019 37.0619C54.0509 37.0827 54.1061 37.0831 54.1555 37.0632C54.3963 36.9843 54.6525 36.9641 54.9026 37.0044C55.1528 37.0446 55.3897 37.1441 55.5936 37.2945C55.6322 37.322 55.6794 37.3346 55.7266 37.33C55.7737 37.3254 55.8176 37.3038 55.8501 37.2694Z" fill="#1D2B36"/>
<path d="M51.1033 40.2059L51.8676 39.8188C51.8676 39.8188 51.5709 40.5278 51.1033 40.2059Z" fill="#1D2B36"/>
<path d="M24.7744 110.8C24.0693 110.8 23.3926 110.521 22.8917 110.025C22.3907 109.529 22.1059 108.855 22.0993 108.15C22.0289 101.009 24.4073 94.9804 28.9781 90.7163C34.6049 85.4667 43.3795 83.0279 53.6977 83.8425C60.9336 84.4157 65.5748 82.6558 70.9451 80.6092C71.8301 80.2774 72.7202 79.9354 73.6353 79.6036C74.3021 79.3608 75.0381 79.393 75.6812 79.6928C76.3243 79.9927 76.822 80.5358 77.0647 81.2026C77.3074 81.8694 77.2753 82.6053 76.9754 83.2484C76.6756 83.8916 76.1325 84.3892 75.4657 84.632C74.5757 84.9538 73.7108 85.2857 72.8509 85.6125C67.375 87.6943 61.718 89.8414 53.2754 89.1776C44.4757 88.4787 37.1443 90.4146 32.6288 94.6284C29.1089 97.8868 27.3942 102.417 27.4495 108.099C27.4528 108.451 27.3869 108.799 27.2555 109.125C27.1242 109.451 26.9299 109.748 26.6838 109.998C26.4377 110.249 26.1447 110.449 25.8214 110.587C25.4981 110.724 25.1509 110.796 24.7995 110.8H24.7744Z" fill="#1265E5"/>
<path d="M86.6415 88.4089L75.8811 92.3509C74.9833 92.6798 73.9915 92.6386 73.1241 92.2363C72.2566 91.834 71.5845 91.1036 71.2556 90.2058L66.8119 78.0761C66.483 77.1783 66.5242 76.1865 66.9265 75.3191C67.3288 74.4516 68.0592 73.7795 68.9571 73.4506L79.7175 69.5086L86.6363 88.3947L86.6415 88.4089Z" fill="#1265E5"/>
<path opacity="0.7" d="M86.6415 88.4089L75.8811 92.3509C74.9833 92.6798 73.9915 92.6386 73.1241 92.2363C72.2566 91.834 71.5845 91.1036 71.2556 90.2058L66.8119 78.0761C66.483 77.1783 66.5242 76.1865 66.9265 75.3191C67.3288 74.4516 68.0592 73.7795 68.9571 73.4506L79.7175 69.5086L86.6363 88.3947L86.6415 88.4089Z" fill="white"/>
<path opacity="0.2" d="M74.9228 71.2614L79.7249 69.5065L86.6439 88.4032L81.8418 90.1632C81.5222 89.854 81.2779 89.4755 81.1278 89.0569L75.0937 72.5688C74.9359 72.1522 74.8774 71.7046 74.9228 71.2614Z" fill="#1265E5"/>
<path d="M90.5089 74.2135L90.0367 74.3865L91.1887 77.531L91.6609 77.358L90.5089 74.2135Z" fill="#1265E5"/>
<path d="M89.3089 72.428L87.6144 67.7918C87.3237 67.0056 86.7992 66.3274 86.1115 65.8482C85.4238 65.3691 84.6058 65.112 83.7676 65.1117C83.2907 65.1103 82.8174 65.1937 82.3697 65.3581L79.3125 66.4794L79.1365 66.0067L82.1988 64.8854C82.7013 64.7012 83.2324 64.6075 83.7676 64.6088C84.7094 64.611 85.628 64.9013 86.4001 65.4406C87.1721 65.9798 87.7608 66.7424 88.087 67.6259L89.7816 72.262L89.3089 72.428Z" fill="#1265E5"/>
<path d="M86.7249 89.7633L91.2153 88.1391C92.6824 87.6085 93.4415 85.989 92.9109 84.5219L86.816 67.6712C86.2853 66.2041 84.6658 65.445 83.1987 65.9756L78.7084 67.5998C77.2413 68.1305 76.4821 69.7499 77.0128 71.217L83.1077 88.0677C83.6384 89.5348 85.2579 90.2939 86.7249 89.7633Z" fill="#1265E5"/>
<path d="M84.1549 72.7851C84.2574 73.0655 84.2745 73.37 84.2038 73.66C84.1332 73.9501 83.9781 74.2127 83.7582 74.4146C83.5383 74.6164 83.2634 74.7485 82.9683 74.7941C82.6733 74.8396 82.3714 74.7966 82.1008 74.6705C81.8302 74.5443 81.6031 74.3408 81.4483 74.0855C81.2935 73.8303 81.2179 73.5348 81.2311 73.2366C81.2443 72.9383 81.3457 72.6507 81.5224 72.4101C81.6992 72.1695 81.9433 71.9868 82.224 71.885C82.5994 71.7489 83.0135 71.7672 83.3755 71.9359C83.7374 72.1047 84.0177 72.41 84.1549 72.7851Z" fill="#1D2B36"/>
<path d="M87.9111 83.0379C88.0132 83.3182 88.03 83.6224 87.9592 83.9121C87.8885 84.2019 87.7335 84.4642 87.5137 84.6659C87.294 84.8675 87.0194 84.9995 86.7246 85.0452C86.4299 85.0908 86.1282 85.0481 85.8578 84.9223C85.5873 84.7966 85.3602 84.5935 85.2051 84.3387C85.0501 84.0839 84.974 83.7889 84.9866 83.4909C84.9991 83.1929 85.0997 82.9053 85.2757 82.6645C85.4517 82.4237 85.6951 82.2404 85.9752 82.1379C86.1614 82.0697 86.3592 82.0389 86.5573 82.0473C86.7554 82.0556 86.9499 82.1029 87.1297 82.1865C87.3095 82.2701 87.4711 82.3884 87.6052 82.5345C87.7392 82.6805 87.8432 82.8516 87.9111 83.0379Z" fill="#1D2B36"/>
<path d="M43.8272 81.8262L43.787 81.7809C43.0026 80.9965 42.1729 80.1417 41.4237 79.2667C40.6744 78.3918 39.9403 77.5168 39.2715 76.6117C38.6158 75.7287 38.0195 74.8031 37.4864 73.8411C37.105 73.153 36.7804 72.4349 36.5159 71.6939C36.8176 70.6883 37.1395 69.6826 37.5216 68.7171C37.9591 67.5556 38.4519 66.4141 38.9899 65.2878C39.528 64.1614 40.1012 63.0552 40.7197 61.9741C41.0214 61.431 41.3382 60.893 41.665 60.365L42.1679 59.5906C42.3237 59.3392 42.5098 59.0878 42.6405 58.8715L42.6958 58.7911C43.0533 58.2462 43.1852 57.5839 43.0639 56.9437C42.9425 56.3034 42.5773 55.7353 42.0452 55.3591C41.5132 54.9829 40.8558 54.8279 40.2118 54.9269C39.5677 55.0259 38.9872 55.3711 38.5927 55.8897C38.3413 56.2316 38.1502 56.5032 37.949 56.7998C37.7479 57.0965 37.5669 57.3932 37.3758 57.6899C37.0087 58.2832 36.6517 58.8816 36.3098 59.49C35.6295 60.7039 35.0136 61.9527 34.4644 63.2312C34.1828 63.8647 33.9615 64.5134 33.6749 65.1621C33.3883 65.8107 33.1972 66.4694 32.9961 67.1432C32.5692 68.4783 32.2184 69.8365 31.9451 71.2112V71.3269C31.8671 71.6938 31.8932 72.0752 32.0206 72.4281C32.5078 73.7174 33.1548 74.9404 33.9464 76.0687C34.6919 77.1395 35.5226 78.1485 36.4305 79.0857C37.3148 79.9886 38.2535 80.8366 39.2413 81.625C40.2287 82.4122 41.265 83.1361 42.3439 83.7923C42.6058 83.9455 42.9147 83.9979 43.2125 83.9397C43.5104 83.8815 43.7768 83.7167 43.9618 83.4762C44.1469 83.2356 44.2379 82.9358 44.2177 82.633C44.1975 82.3302 44.0677 82.0451 43.8524 81.8312L43.8272 81.8262Z" fill="#FACEA6"/>
<path d="M49.6702 84.3252L49.6048 84.1945C49.3961 83.7587 49.0889 83.3774 48.7076 83.0807C48.3262 82.784 47.8811 82.58 47.4074 82.4848L43.5909 81.7105L41.7253 82.6407C41.9265 84.7325 44.9133 85.9846 44.9133 85.9846L45.7631 86.9551C46.0497 87.2805 46.4463 87.4887 46.8768 87.5397C47.3074 87.5907 47.7416 87.4811 48.0963 87.2317L49.102 86.5126C49.44 86.274 49.6825 85.9234 49.7866 85.5229C49.8906 85.1225 49.8494 84.6982 49.6702 84.3252Z" fill="#FACEA6"/>
<path d="M40.4029 53.0635C38.2859 54.034 36.0332 57.393 36.0332 57.393L40.5588 65.8658C40.5588 65.8658 45.7028 59.9373 45.2704 56.9706C44.9184 54.4513 43.0981 51.8265 40.4029 53.0635Z" fill="#1265E5"/>
<g opacity="0.3">
<path opacity="0.3" d="M40.4029 53.0635C38.2859 54.034 36.0332 57.393 36.0332 57.393L40.5588 65.8658C40.5588 65.8658 45.7028 59.9373 45.2704 56.9706C44.9184 54.4513 43.0981 51.8265 40.4029 53.0635Z" fill="white"/>
</g>
<path d="M185.271 164.081C180.841 164.081 176.487 163.17 174.375 160.415C164.378 147.341 164.469 121.043 164.554 95.5938C164.604 81.8914 165.686 68.9433 164.162 58.8865C163.267 52.958 160.139 48.8901 156.981 46.7882C152.295 43.6907 145.859 45.3551 143.108 46.0641C142.765 46.1598 142.407 46.1863 142.054 46.1418C141.701 46.0974 141.361 45.9831 141.053 45.8054C140.744 45.6278 140.475 45.3905 140.259 45.1074C140.044 44.8242 139.887 44.501 139.798 44.1566C139.709 43.8121 139.69 43.4534 139.741 43.1014C139.793 42.7494 139.914 42.4112 140.097 42.1065C140.281 41.8019 140.524 41.5369 140.811 41.3271C141.098 41.1174 141.424 40.967 141.771 40.8848C145.205 39.9948 153.26 37.9181 159.928 42.323C164.428 45.2948 168.32 50.5997 169.452 58.087C171.036 68.5461 169.955 81.6853 169.904 95.5938C169.819 120.147 169.733 145.536 178.624 157.146C179.343 158.082 182.144 158.921 186.795 158.68C187.207 158.68 187.609 158.635 188.007 158.6C187.827 158.235 187.734 157.834 187.735 157.428C187.735 156.719 188.017 156.038 188.519 155.536C189.02 155.035 189.701 154.753 190.41 154.753C196.258 154.753 199.336 155.256 199.929 157.931C200.1 158.7 200.19 160.631 197.365 161.954C195.253 162.944 190.214 164.081 185.271 164.081Z" fill="#1265E5"/>
<path d="M126.731 166.389L121.275 164.242L124.151 154.783L129.612 156.925L126.731 166.389Z" fill="#DFA977"/>
<path d="M121.144 163.663L127.299 166.077C127.377 166.109 127.442 166.166 127.484 166.238C127.526 166.311 127.542 166.396 127.53 166.479L126.927 170.311C126.911 170.404 126.875 170.491 126.821 170.568C126.766 170.645 126.696 170.709 126.614 170.754C126.532 170.8 126.44 170.827 126.347 170.833C126.253 170.839 126.159 170.824 126.072 170.789C124.528 170.15 122.11 169.094 120.154 168.325C118.952 167.852 116.664 167.098 114.999 166.444C113.335 165.79 113.767 164.061 114.497 164.181C117.81 164.714 119.077 164.146 120.4 163.653C120.64 163.561 120.906 163.565 121.144 163.663Z" fill="#1D2B36"/>
<path opacity="0.2" d="M129.612 156.93L124.151 154.783L122.668 159.661L128.129 161.808L129.612 156.93Z" fill="#405261"/>
<path d="M136.435 83.717C136.435 83.717 131.498 108.125 129.612 120.163C127.49 133.654 121.883 158.298 121.883 158.298L129.139 161.149C129.139 161.149 139.503 135.917 140.946 123.698C145.296 113.767 153.944 84.5416 153.944 84.5416L136.435 83.717Z" fill="#1265E5"/>
<path d="M121.531 158.338L129.496 161.471L130.859 159.058L121.954 155.367L121.531 158.338Z" fill="#1D2B36"/>
<path d="M119.58 163.769C119.302 163.683 119.062 163.506 118.896 163.266C118.85 163.178 118.826 163.079 118.826 162.98C118.826 162.88 118.85 162.782 118.896 162.693C118.917 162.638 118.952 162.591 118.998 162.555C119.044 162.52 119.1 162.498 119.158 162.492C119.686 162.437 120.666 163.724 120.762 163.875C120.773 163.891 120.778 163.91 120.778 163.93C120.778 163.95 120.773 163.969 120.762 163.985C120.751 164.002 120.736 164.015 120.718 164.023C120.7 164.031 120.681 164.034 120.661 164.031C120.292 163.983 119.93 163.895 119.58 163.769ZM119.314 162.718C119.273 162.698 119.228 162.69 119.183 162.693C119.153 162.693 119.117 162.693 119.082 162.779C119.049 162.838 119.031 162.906 119.031 162.975C119.031 163.043 119.049 163.111 119.082 163.171C119.228 163.437 119.731 163.674 120.46 163.794C120.154 163.362 119.764 162.996 119.314 162.718Z" fill="#1265E5"/>
<path d="M120.651 164.026C120.635 164.02 120.621 164.01 120.611 163.995C120.289 163.613 119.837 162.432 120.108 162.024C120.15 161.961 120.213 161.914 120.285 161.891C120.357 161.868 120.435 161.871 120.506 161.899C120.58 161.918 120.65 161.952 120.711 162C120.771 162.047 120.821 162.107 120.858 162.175C121.169 162.733 120.817 163.91 120.802 163.96C120.796 163.978 120.786 163.994 120.772 164.006C120.757 164.019 120.74 164.027 120.722 164.031C120.711 164.036 120.698 164.038 120.686 164.038C120.674 164.037 120.662 164.033 120.651 164.026ZM120.48 162.105H120.44C120.309 162.075 120.279 162.105 120.264 162.15C120.113 162.391 120.36 163.246 120.646 163.714C120.79 163.249 120.79 162.751 120.646 162.286C120.615 162.207 120.556 162.143 120.48 162.105Z" fill="#1265E5"/>
<path opacity="0.2" d="M147.081 98.4954C144.345 101.885 143.264 110.523 143.274 117.724C145.12 112.64 147.237 106.184 149.097 100.321L147.081 98.4954Z" fill="#405261"/>
<path d="M159.566 167.299H153.703L152.924 157.443H158.787L159.566 167.299Z" fill="#DFA977"/>
<path d="M153.371 166.806H159.984C160.068 166.805 160.151 166.834 160.217 166.887C160.283 166.94 160.328 167.015 160.346 167.098L161.185 170.879C161.205 170.971 161.204 171.067 161.181 171.159C161.159 171.25 161.116 171.336 161.056 171.409C160.996 171.482 160.921 171.54 160.835 171.58C160.75 171.62 160.656 171.64 160.562 171.638C158.892 171.608 156.263 171.508 154.161 171.508C152.863 171.508 150.46 171.643 148.675 171.643C146.89 171.643 146.663 169.878 147.382 169.718C150.666 168.998 151.641 168.013 152.687 167.068C152.876 166.9 153.119 166.807 153.371 166.806Z" fill="#1D2B36"/>
<path opacity="0.2" d="M158.787 157.443H152.919L153.326 162.527H159.194L158.787 157.443Z" fill="#405261"/>
<path d="M143.536 84.0236C143.536 84.0236 146.784 111.222 147.468 121.012C148.418 134.639 152.094 161.541 152.094 161.541H159.888C159.888 161.541 160.723 134.066 159.315 121.842C161.256 111.177 160.642 84.8432 160.642 84.8432L143.536 84.0236Z" fill="#1265E5"/>
<path d="M151.782 161.707H160.34L160.728 158.967L151.088 158.786L151.782 161.707Z" fill="#1D2B36"/>
<path d="M151.938 167.475C151.648 167.497 151.36 167.42 151.118 167.259C151.043 167.193 150.985 167.11 150.948 167.018C150.912 166.925 150.898 166.825 150.907 166.726C150.907 166.666 150.924 166.608 150.955 166.558C150.986 166.507 151.03 166.466 151.083 166.439C151.556 166.198 152.929 167.042 153.095 167.138C153.112 167.148 153.126 167.163 153.135 167.181C153.144 167.199 153.147 167.219 153.145 167.239C153.14 167.259 153.13 167.277 153.116 167.292C153.102 167.307 153.084 167.318 153.064 167.324C152.696 167.417 152.318 167.467 151.938 167.475ZM151.304 166.595C151.259 166.592 151.214 166.601 151.174 166.62C151.149 166.62 151.118 166.66 151.113 166.736C151.103 166.803 151.11 166.873 151.134 166.937C151.157 167.001 151.197 167.058 151.249 167.103C151.48 167.299 152.039 167.324 152.758 167.178C152.32 166.893 151.832 166.695 151.32 166.595H151.304Z" fill="#1265E5"/>
<path d="M153.044 167.324H152.994C152.557 167.083 151.702 166.152 151.792 165.675C151.807 165.601 151.848 165.534 151.906 165.486C151.965 165.439 152.038 165.413 152.114 165.413C152.19 165.402 152.268 165.408 152.341 165.43C152.415 165.451 152.483 165.489 152.541 165.539C153.044 165.946 153.14 167.173 153.145 167.223C153.146 167.242 153.142 167.26 153.134 167.277C153.126 167.294 153.114 167.308 153.1 167.319C153.082 167.325 153.063 167.327 153.044 167.324ZM152.184 165.599H152.139C152.008 165.599 151.998 165.68 151.993 165.705C151.938 165.981 152.496 166.711 152.919 167.022C152.888 166.536 152.713 166.071 152.416 165.685C152.35 165.631 152.269 165.601 152.184 165.599Z" fill="#1265E5"/>
<path d="M146.226 46.5169L141.529 46.4565C139.95 46.4565 138.381 46.4062 136.828 46.3811C136.355 46.3811 135.892 46.3509 135.425 46.3308C135.455 46.3308 135.475 46.2755 135.5 46.2504C135.832 45.8984 136.164 45.5363 136.506 45.1894C136.677 45.0083 136.844 44.8324 137.009 44.6614C137.165 44.4904 137.366 44.2993 137.471 44.1585L137.899 43.6155C138.236 43.1857 138.429 42.6608 138.45 42.1151C138.472 41.5695 138.321 41.0309 138.02 40.5756C137.718 40.1204 137.281 39.7717 136.77 39.5791C136.259 39.3864 135.7 39.3595 135.173 39.5022L134.243 39.7537C133.956 39.8391 133.67 39.9347 133.383 40.0302C132.82 40.2263 132.267 40.4426 131.719 40.6789C130.614 41.1666 129.547 41.7346 128.526 42.3785C127.468 43.0546 126.467 43.8165 125.534 44.6564C124.546 45.5545 123.651 46.5502 122.864 47.6281C122.665 47.8971 122.496 48.1872 122.361 48.493C121.894 49.5633 121.871 50.7752 122.297 51.8624C122.723 52.9496 123.564 53.823 124.634 54.2908L125.091 54.4919C126.125 54.9365 127.195 55.2898 128.289 55.5479C129.245 55.7943 130.15 55.9552 131.04 56.106C131.93 56.2569 132.8 56.3776 133.665 56.4831C134.53 56.5887 135.384 56.6692 136.239 56.7396C137.944 56.8905 139.633 56.9659 141.318 57.0162C143.002 57.0664 144.652 57.0664 146.402 56.986C147.766 56.9278 149.054 56.339 149.991 55.3453C150.928 54.3515 151.439 53.0312 151.417 51.6656C151.395 50.3001 150.84 48.9972 149.872 48.0345C148.903 47.0719 147.596 46.5255 146.231 46.5118L146.226 46.5169Z" fill="#DFA977"/>
<path d="M148.961 55.6936C144.903 60.3198 135.138 58.59 135.138 58.59L135.676 47.0649C139.023 46.3283 142.437 45.9324 145.864 45.8832C151.596 45.8732 152.209 51.9827 148.961 55.6936Z" fill="#1D2B36"/>
<path d="M138.13 52.1487C137.889 54.0092 137.627 56.5133 137.471 59.8823C135.354 70.5928 134.565 78.1807 136.435 83.7169C137.914 85.5423 157.178 85.1903 160.642 84.8383C162.653 79.8602 162.865 65.5695 163.101 53.5566C163.131 51.9013 162.566 50.2901 161.51 49.0152C160.454 47.7403 158.976 46.886 157.344 46.6074C153.008 45.8389 148.586 45.69 144.209 46.1649C142.673 46.3396 141.24 47.0239 140.138 48.1085C139.036 49.193 138.329 50.6154 138.13 52.1487Z" fill="#1D2B36"/>
<path opacity="0.2" d="M156.821 59.4599C156.886 63.1206 159.541 68.9686 162.528 71.9354C162.709 68.8429 162.824 65.489 162.915 62.1049L156.821 59.4599Z" fill="#405261"/>
<path d="M173.605 66.5752L173.434 66.1729C172.731 64.4957 171.91 62.8707 170.975 61.3105C170.08 59.802 169.115 58.3789 168.114 57.0062C167.114 55.6334 166.053 54.321 164.967 53.0438C164.413 52.4102 163.865 51.7766 163.287 51.1632L162.417 50.248L161.492 49.3127C160.523 48.3557 159.219 47.8138 157.857 47.8017C156.495 47.7896 155.182 48.3083 154.196 49.2479C153.21 50.1875 152.629 51.4741 152.575 52.8351C152.521 54.196 153 55.5244 153.909 56.5385L154.06 56.7045L157.012 59.988C158.017 61.1043 158.978 62.2407 159.933 63.3721C160.396 63.9403 160.873 64.5085 161.306 65.0868C161.738 65.6651 162.196 66.2232 162.628 66.7965C163.252 67.6664 163.855 68.5313 164.393 69.3811C164.311 69.8101 164.207 70.2347 164.082 70.6532C163.72 71.8713 163.296 73.0697 162.809 74.2435C162.307 75.4855 161.774 76.7577 161.22 78.0098C160.667 79.2619 160.074 80.5692 159.546 81.8263L159.496 81.937C159.264 82.4926 159.229 83.1107 159.396 83.6891C159.563 84.2675 159.923 84.7715 160.415 85.1179C160.907 85.4644 161.503 85.6324 162.104 85.5944C162.705 85.5564 163.275 85.3145 163.719 84.9087C164.829 83.8805 165.881 82.7928 166.872 81.6503C167.878 80.5206 168.822 79.3306 169.703 78.0802C170.151 77.4516 170.578 76.7979 171.001 76.1191C171.439 75.4289 171.841 74.7155 172.202 73.982C172.61 73.182 172.962 72.3555 173.258 71.5081C173.644 70.4229 173.861 69.285 173.902 68.134C173.915 67.5992 173.814 67.0678 173.605 66.5752Z" fill="#DFA977"/>
<path d="M157.685 46.6728C164.469 47.8344 168.889 57.0162 168.889 57.0162L160.712 65.8109C160.712 65.8109 156.001 61.0138 153.17 56.5687C150.118 51.7314 152.828 45.8481 157.685 46.6728Z" fill="#1D2B36"/>
<path d="M145.295 32.1959C144.159 30.2901 143.787 27.6703 145.869 25.0003C145.463 25.0511 145.051 24.9831 144.684 24.8046C144.316 24.6261 144.008 24.3447 143.797 23.9946C146.077 22.1296 148.943 21.132 151.888 21.1787C157.972 21.1787 158.425 23.5269 158.218 25.131C162.382 25.3975 165.419 36.2236 154.865 38.1395C148.825 31.7785 145.295 32.1959 145.295 32.1959Z" fill="#1D2B36"/>
<path d="M157.836 25.3273C157.836 25.3273 159.531 23.5975 157.424 21.5057C157.896 21.6353 158.327 21.8849 158.674 22.2303C159.022 22.5757 159.273 23.0052 159.405 23.4769C159.702 24.6937 158.882 25.6692 157.836 25.3273Z" fill="#1D2B36"/>
<path d="M155.503 36.817C155.342 40.1509 155.041 43.9423 155.599 46.6023C154.734 47.965 152.521 49.5339 148.559 49.8858C147.151 49.0863 145.291 47.1303 145.939 46.1246C147.624 45.0435 148.338 41.77 147.855 39.3212L155.503 36.817Z" fill="#DFA977"/>
<path opacity="0.2" d="M153.572 37.4457L147.845 39.3213C148.04 40.3641 148.048 41.4333 147.87 42.4791C149.58 42.4238 151.948 41.1365 152.838 39.9297C153.128 39.5904 153.343 39.1939 153.47 38.7659C153.596 38.3379 153.631 37.8881 153.572 37.4457Z" fill="#405261"/>
<path d="M157.172 31.5373C156.111 35.6254 155.699 38.0742 153.195 39.7889C149.429 42.3685 144.692 39.4771 144.506 35.1577C144.345 31.2658 146.105 25.2317 150.48 24.3718C151.443 24.1786 152.44 24.2349 153.375 24.5354C154.31 24.8358 155.153 25.3704 155.824 26.0884C156.495 26.8064 156.971 27.6839 157.207 28.6376C157.443 29.5912 157.431 30.5894 157.172 31.5373Z" fill="#DFA977"/>
<path d="M156.328 25.6843C154.533 26.9615 152.305 32.3721 156.831 34.5443C160.894 30.9742 159.843 25.6843 156.328 25.6843Z" fill="#1D2B36"/>
<path d="M157.363 26.3328C158.133 22.7727 149.147 20.9323 146.301 25.0908C145.336 27.5949 156.82 29.8074 157.363 26.3328Z" fill="#1D2B36"/>
<path d="M150.661 35.8767C149.727 35.4546 148.726 35.201 147.704 35.1275C147.69 35.1275 147.676 35.1304 147.662 35.136C147.649 35.1416 147.637 35.1499 147.628 35.1602C147.618 35.1705 147.61 35.1828 147.605 35.1962C147.6 35.2096 147.598 35.2239 147.599 35.2381C147.604 35.2706 147.621 35.3003 147.645 35.3222C147.67 35.3441 147.701 35.357 147.734 35.3588C148.714 35.4296 149.674 35.6713 150.57 36.0729C150.598 36.0852 150.63 36.0864 150.659 36.0761C150.688 36.0658 150.712 36.0449 150.726 36.0175C150.732 36.0041 150.734 35.9896 150.734 35.975C150.734 35.9604 150.73 35.9461 150.724 35.9328C150.718 35.9196 150.709 35.9078 150.698 35.8981C150.688 35.8885 150.675 35.8812 150.661 35.8767Z" fill="#1D2B36"/>
<path d="M158.153 36.0076C157.424 36.7811 156.419 37.2348 155.357 37.2698C153.949 37.2999 153.592 35.9574 154.271 34.8109C154.885 33.8052 156.353 32.5179 157.63 33.0308C158.907 33.5437 159.038 35.0472 158.153 36.0076Z" fill="#DFA977"/>
<path d="M150.671 31.467C150.605 31.8039 150.374 32.0452 150.168 32C149.962 31.9547 149.826 31.648 149.891 31.3111C149.957 30.9742 150.188 30.7378 150.394 30.8082C150.6 30.8786 150.736 31.115 150.671 31.467Z" fill="#1D2B36"/>
<path d="M146.864 30.7277C146.799 31.0646 146.568 31.3009 146.361 31.2607C146.155 31.2205 146.015 30.9087 146.08 30.5718C146.145 30.2349 146.377 29.9936 146.583 30.0388C146.789 30.0841 146.91 30.3908 146.864 30.7277Z" fill="#1D2B36"/>
<path d="M148.041 31.1147C147.438 32.0665 146.707 32.931 145.869 33.6843C146.371 34.353 147.483 34.2223 147.483 34.2223L148.041 31.1147Z" fill="#CF8362"/>
<path d="M150.123 29.5108C150.159 29.5029 150.196 29.5043 150.231 29.5149C150.266 29.5255 150.298 29.5448 150.324 29.5711C150.485 29.7663 150.691 29.9204 150.923 30.0209C151.156 30.1214 151.409 30.1654 151.661 30.1494C151.715 30.1421 151.769 30.1559 151.812 30.1879C151.855 30.2198 151.884 30.2673 151.893 30.3204C151.897 30.3465 151.896 30.3733 151.889 30.399C151.883 30.4247 151.872 30.4489 151.856 30.47C151.84 30.4912 151.82 30.5089 151.797 30.5221C151.773 30.5352 151.748 30.5436 151.722 30.5466C151.402 30.5723 151.082 30.5214 150.786 30.3981C150.49 30.2747 150.228 30.0826 150.022 29.8376C150.003 29.8193 149.988 29.7975 149.978 29.7733C149.968 29.7491 149.963 29.7231 149.963 29.6968C149.963 29.6706 149.968 29.6446 149.978 29.6204C149.988 29.5962 150.003 29.5743 150.022 29.556C150.052 29.5338 150.086 29.5184 150.123 29.5108Z" fill="#1D2B36"/>
<path d="M145.688 28.3945C145.646 28.3859 145.608 28.3627 145.582 28.3292C145.565 28.3082 145.553 28.2841 145.545 28.2582C145.538 28.2323 145.536 28.2051 145.539 28.1784C145.542 28.1517 145.551 28.1259 145.564 28.1025C145.578 28.0792 145.596 28.0588 145.617 28.0425C145.864 27.8401 146.156 27.6995 146.468 27.6321C146.78 27.5648 147.104 27.5728 147.412 27.6554C147.463 27.6726 147.505 27.7091 147.53 27.757C147.554 27.8049 147.559 27.8605 147.543 27.9118C147.523 27.9604 147.486 27.9999 147.439 28.023C147.391 28.0462 147.337 28.0513 147.287 28.0375C147.041 27.9748 146.784 27.9713 146.536 28.0273C146.289 28.0832 146.058 28.197 145.864 28.3593C145.84 28.3805 145.811 28.3949 145.78 28.4011C145.749 28.4072 145.717 28.405 145.688 28.3945Z" fill="#1D2B36"/>
<path d="M161.919 81.6803L157.6 81.6501L159.832 86.6081C159.832 86.6081 163.518 85.8186 163.317 83.8173L161.919 81.6803Z" fill="#DFA977"/>
<path d="M155.402 85.0543L156.111 86.4522C156.302 86.8244 156.625 87.1121 157.016 87.2591C157.408 87.406 157.84 87.4016 158.228 87.2467L159.832 86.6081L157.6 81.6501L155.885 82.9575C155.571 83.1946 155.351 83.5347 155.262 83.9181C155.174 84.3015 155.224 84.7038 155.402 85.0543Z" fill="#DFA977"/>
<path d="M129.039 78.0297C128.517 78.0243 128.008 77.8667 127.574 77.5762C127.141 77.2858 126.802 76.875 126.598 76.3945C126.395 75.914 126.336 75.3845 126.429 74.871C126.522 74.3576 126.763 73.8825 127.123 73.5041C129.044 71.5229 130.778 69.9842 132.307 68.6417C135.998 65.3883 137.27 64.1161 137.149 61.6773C136.969 60.1726 136.649 58.6879 136.194 57.2423C135.093 53.1944 133.846 48.6135 135.983 44.9378C137.129 42.9616 139.075 41.609 141.771 40.9151C142.452 40.7534 143.17 40.8653 143.769 41.2269C144.369 41.5885 144.803 42.1709 144.978 42.849C145.153 43.5271 145.056 44.2468 144.706 44.8536C144.356 45.4604 143.783 45.9059 143.108 46.0943C141.212 46.5972 140.755 47.3665 140.594 47.628C139.588 49.3628 140.559 52.9531 141.343 55.8343C141.911 57.6512 142.292 59.5215 142.48 61.4158C142.731 66.57 139.689 69.2551 135.832 72.6543C134.379 73.9416 132.724 75.3998 130.944 77.2302C130.696 77.4838 130.4 77.6853 130.072 77.8226C129.745 77.9599 129.394 78.0303 129.039 78.0297Z" fill="#1265E5"/>
<path d="M134.907 39.6128L139.09 38.5418L138.115 43.892C138.115 43.892 134.348 44.0077 134.067 42.0214L134.907 39.6128Z" fill="#DFA977"/>
<path d="M142.027 41.3778L141.705 42.7757C141.606 43.2027 141.351 43.5773 140.99 43.8257C140.629 44.0742 140.188 44.1785 139.754 44.1183L138.115 43.892L139.09 38.5418L141.011 39.3715C141.389 39.534 141.697 39.8239 141.883 40.1906C142.068 40.5572 142.119 40.9774 142.027 41.3778Z" fill="#DFA977"/>
<path d="M127.543 69.2315L127.429 69.1178C126.921 68.6093 126.096 68.6094 125.588 69.1181L110.76 83.9512C110.251 84.4598 110.251 85.2845 110.76 85.793L110.874 85.9067C111.382 86.4152 112.207 86.4151 112.716 85.9064L127.543 71.0733C128.052 70.5647 128.052 69.7401 127.543 69.2315Z" fill="#1D2B36"/>
<path d="M135.271 76.9496L135.157 76.8359C134.649 76.3273 133.824 76.3273 133.315 76.8359L118.485 91.6663C117.976 92.1749 117.976 92.9995 118.485 93.5081L118.599 93.6219C119.107 94.1305 119.932 94.1305 120.441 93.6219L135.271 78.7915C135.78 78.2828 135.78 77.4582 135.271 76.9496Z" fill="#1D2B36"/>
<path d="M115.438 74.7528L125.888 64.3028C126.223 63.968 126.62 63.7025 127.057 63.5213C127.495 63.3401 127.964 63.2468 128.437 63.2468C128.911 63.2468 129.379 63.3401 129.817 63.5213C130.254 63.7025 130.652 63.968 130.987 64.3028L140.121 73.4372C140.456 73.772 140.721 74.1694 140.902 74.6069C141.084 75.0443 141.177 75.5131 141.177 75.9866C141.177 76.46 141.084 76.9289 140.902 77.3663C140.721 77.8037 140.456 78.2011 140.121 78.5359L129.671 88.9859L115.438 74.7528Z" fill="#1265E5"/>
<path opacity="0.7" d="M115.438 74.7528L125.888 64.3028C126.223 63.968 126.62 63.7025 127.057 63.5213C127.495 63.3401 127.964 63.2468 128.437 63.2468C128.911 63.2468 129.379 63.3401 129.817 63.5213C130.254 63.7025 130.652 63.968 130.987 64.3028L140.121 73.4372C140.456 73.772 140.721 74.1694 140.902 74.6069C141.084 75.0443 141.177 75.5131 141.177 75.9866C141.177 76.46 141.084 76.9289 140.902 77.3663C140.721 77.8037 140.456 78.2011 140.121 78.5359L129.671 88.9859L115.438 74.7528Z" fill="white"/>
<path opacity="0.2" d="M119.042 71.1208L115.422 74.7362L129.657 88.9716L133.273 85.3512C133.129 84.9302 132.89 84.5481 132.574 84.2349L120.159 71.8449C119.848 71.5199 119.466 71.2719 119.042 71.1208Z" fill="#1265E5"/>
<path d="M114.811 72.913L114.552 73.1725C113.448 74.2761 113.448 76.0654 114.552 77.169L127.227 89.8448C128.331 90.9484 130.12 90.9484 131.224 89.8448L131.484 89.5852C132.587 88.4816 132.587 86.6923 131.484 85.5887L118.808 72.913C117.704 71.8094 115.915 71.8094 114.811 72.913Z" fill="#1265E5"/>
</svg>
