<svg width="200" height="200" viewBox="0 0 200 200" fill="none" xmlns="http://www.w3.org/2000/svg">
<path d="M91.2857 131.434C94.724 127.247 95.6903 117.646 92.7699 111.935C89.0493 104.631 82.5718 104.274 78.0051 98.7926C65.659 83.97 71.4463 70.6037 74.5539 56.4298C81.4386 25.0123 39.7398 1.09359 18.8761 30.651C6.33057 48.4259 -0.00470862 87.5922 39.1844 95.6854C56.1151 99.1699 56.6455 92.2324 62.0481 108.972C64.1836 115.576 75.718 150.403 91.2857 131.434Z" fill="#008AF8"/>
<path opacity="0.9" d="M91.2857 131.434C94.724 127.247 95.6903 117.646 92.7699 111.935C89.0493 104.631 82.5718 104.274 78.0051 98.7926C65.659 83.97 71.4463 70.6037 74.5539 56.4298C81.4386 25.0123 39.7398 1.09359 18.8761 30.651C6.33057 48.4259 -0.00470862 87.5922 39.1844 95.6854C56.1151 99.1699 56.6455 92.2324 62.0481 108.972C64.1836 115.576 75.718 150.403 91.2857 131.434Z" fill="white"/>
<path d="M98.1342 178.226C151.979 178.226 195.63 175.677 195.63 172.533C195.63 169.39 151.979 166.841 98.1342 166.841C44.2888 166.841 0.63855 169.39 0.63855 172.533C0.63855 175.677 44.2888 178.226 98.1342 178.226Z" fill="#F2F4F6"/>
<path d="M68.2228 47.5553C68.2959 47.8026 68.4252 48.1792 68.5376 48.4939L68.8973 49.5C69.1446 50.1689 69.4144 50.8321 69.7011 51.4897C70.2615 52.7912 70.8919 54.0615 71.5896 55.2949C72.9723 57.7117 74.6528 59.8982 76.6481 61.2977L76.9966 61.5394C76.9966 61.5394 76.9966 61.5787 77.0809 61.59C77.4613 61.5802 77.8337 61.478 78.1657 61.2921C79.3176 60.6819 80.3773 59.9117 81.3132 59.0045C82.3947 58.0144 83.4247 56.9695 84.399 55.8738C85.3994 54.7497 86.383 53.5862 87.3104 52.4452L89.9915 54.064C88.5988 57.0171 86.8489 59.7882 84.7812 62.315C83.6452 63.7198 82.2991 64.9408 80.7905 65.9347C79.7992 66.5731 78.6777 66.9822 77.5081 67.1319C76.7638 67.2076 76.0118 67.1389 75.2936 66.9295C74.9233 66.821 74.5654 66.674 74.2257 66.4911L73.5793 66.1314C72.0083 65.1841 70.5859 64.0098 69.3582 62.6466C68.1846 61.3644 67.138 59.9715 66.2331 58.4874C65.3454 57.0465 64.5622 55.5438 63.8894 53.9909C63.5577 53.2265 63.243 52.4509 62.9563 51.6696C62.8102 51.2761 62.6697 50.8827 62.5404 50.478C62.4111 50.0733 62.2931 49.7024 62.1582 49.2021L68.2228 47.5553Z" fill="#FACEA6"/>
<path d="M74.0291 57.4868L66.8403 61.4662C66.8403 61.4662 66.6267 61.1571 66.2782 60.6231C66.0253 60.2297 65.7162 59.7126 65.3227 59.1056C63.2094 55.6714 59.7021 49.3988 60.6183 46.7402C62.0178 42.6484 67.1775 42.7159 69.7124 47.4597C70.9382 49.8233 72.0358 52.2511 73.0005 54.7327C73.2647 55.396 73.4839 55.9749 73.6525 56.4189C73.8942 57.099 74.0291 57.4868 74.0291 57.4868Z" fill="#008AF8"/>
<path opacity="0.2" d="M74.0291 57.4868L66.8403 61.4662C66.8403 61.4662 66.6267 61.1571 66.2782 60.6231C66.0253 60.2297 65.7162 59.7126 65.3227 59.1056C63.2094 55.6714 59.7021 49.3988 60.6183 46.7402C62.0178 42.6484 67.1775 42.7159 69.7124 47.4597C70.9382 49.8233 72.0358 52.2511 73.0005 54.7327C73.2647 55.396 73.4839 55.9749 73.6525 56.4189C73.8942 57.099 74.0291 57.4868 74.0291 57.4868Z" fill="#1D2B36"/>
<path opacity="0.2" d="M73.675 56.4471L66.3007 60.6232C66.0478 60.2298 65.7387 59.7127 65.3452 59.1056L73.023 54.7553C73.2647 55.4185 73.4839 55.9974 73.675 56.4471Z" fill="#1D2B36"/>
<path opacity="0.2" d="M60.5115 47.2348C62.119 46.4592 63.9738 47.1056 65.9186 50.1857C67.8633 53.2658 69.5326 58.4367 69.7406 59.8812L66.8684 61.4662C66.8684 61.4662 59.9214 51.3323 60.5115 47.2348Z" fill="#1D2B36"/>
<path d="M67.1773 80.1379H44.8916C44.7342 78.1482 45.1951 71.6733 44.8523 63.4278C44.6404 57.3162 43.8995 51.2345 42.6377 45.2508C42.5366 44.8011 42.4354 44.3571 42.3286 43.9075C42.3286 43.9075 43.4527 43.677 45.0771 43.441C46.4204 43.2442 48.1066 43.0419 49.7591 42.9632C52.9134 42.7832 56.0754 42.7832 59.2298 42.9632C60.6855 43.0981 62.1075 43.3398 63.2429 43.559C64.693 43.8513 65.6822 44.1211 65.6822 44.1211C65.6822 44.1211 71.0387 56.7056 67.1773 80.1379Z" fill="#008AF8"/>
<path opacity="0.2" d="M67.1773 80.1379H44.8916C44.7342 78.1482 45.1951 71.6733 44.8523 63.4278C44.6404 57.3162 43.8995 51.2345 42.6377 45.2508C42.5366 44.8011 42.4354 44.3571 42.3286 43.9075C42.3286 43.9075 43.4527 43.677 45.0771 43.441C46.4204 43.2442 48.1066 43.0419 49.7591 42.9632C52.9134 42.7832 56.0754 42.7832 59.2298 42.9632C60.6855 43.0981 62.1075 43.3398 63.2429 43.559C64.693 43.8513 65.6822 44.1211 65.6822 44.1211C65.6822 44.1211 71.0387 56.7056 67.1773 80.1379Z" fill="#1D2B36"/>
<path d="M36.7867 179.763L40.0917 182.72L46.3755 176.172L43.0762 173.215L36.7867 179.763Z" fill="#FACEA6"/>
<path d="M48.1012 185.918H52.2661L52.8113 176.267H48.6408L48.1012 185.918Z" fill="#FACEA6"/>
<path d="M46.3756 176.177L43.1326 179.55L39.8276 176.593L43.0707 173.215L46.3756 176.177Z" fill="#D7A179"/>
<path d="M48.6409 176.273H52.8114L52.5304 181.247H48.3599L48.6409 176.273Z" fill="#D7A179"/>
<path d="M66.9642 79.9243C66.9642 79.9243 71.3539 110.309 72.8546 126.851C74.0574 140.115 45.3642 179.685 45.3642 179.685L39.811 174.463C39.811 174.463 60.7703 138.991 59.1572 124.22C57.5946 109.91 52.3 79.9075 52.3 79.9075L66.9642 79.9243Z" fill="#008AF8"/>
<path opacity="0.7" d="M66.9642 79.9243C66.9642 79.9243 71.3539 110.309 72.8546 126.851C74.0574 140.115 45.3642 179.685 45.3642 179.685L39.811 174.463C39.811 174.463 60.7703 138.991 59.1572 124.22C57.5946 109.91 52.3 79.9075 52.3 79.9075L66.9642 79.9243Z" fill="#1D2B36"/>
<path d="M52.4852 185.462H47.8201C47.781 185.461 47.7419 185.467 47.7052 185.481C47.6685 185.494 47.6348 185.515 47.6061 185.542C47.5774 185.568 47.5542 185.6 47.5379 185.636C47.5216 185.672 47.5124 185.71 47.511 185.749L47.2861 189.453C47.2861 189.648 47.3627 189.835 47.4994 189.974C47.6362 190.113 47.822 190.192 48.0168 190.195C49.6468 190.167 50.4224 190.066 52.5133 190.066C53.7779 190.066 59.1625 190.201 60.9105 190.201C62.6585 190.201 62.5967 188.47 61.8716 188.312C58.5442 187.61 54.4243 186.626 53.2496 185.721C53.0338 185.546 52.7627 185.455 52.4852 185.462Z" fill="#1D2B36"/>
<path d="M41.0025 181.528L36.9837 178.825C36.9187 178.774 36.8386 178.747 36.7561 178.747C36.6737 178.747 36.5936 178.774 36.5285 178.825L33.4596 181.922C33.3987 181.99 33.3537 182.07 33.3277 182.158C33.3018 182.246 33.2955 182.338 33.3095 182.428C33.3235 182.518 33.3573 182.605 33.4085 182.68C33.4598 182.756 33.5271 182.819 33.6058 182.866C36.1688 184.839 38.0179 186.322 39.4737 187.964C41.1599 189.886 42.076 190.156 46.0104 190.156C47.8315 190.156 48.8601 188.621 48.1182 188.385C41.5589 186.311 43.3126 185.406 41.7219 182.366C41.5528 182.033 41.306 181.745 41.0025 181.528Z" fill="#1D2B36"/>
<path d="M86.8159 53.1534L88.2492 48.567L91.97 51.2929C91.97 51.2929 89.9354 55.3791 88.5583 55.0082L86.8159 53.1534Z" fill="#FACEA6"/>
<path d="M92.1668 46.8133L94.2633 49.3819L91.9701 51.2929L88.2493 48.567L92.1668 46.8133Z" fill="#FACEA6"/>
<path opacity="0.2" d="M44.8525 63.4278C44.6406 57.3162 43.8997 51.2345 42.6379 45.2508C44.1274 45.1215 46.6735 45.2508 47.0951 47.6733C47.5504 50.2588 46.9771 56.3403 44.8525 63.4278Z" fill="#1D2B36"/>
<path opacity="0.5" d="M59.157 124.232C58.3532 116.863 56.5546 105.318 55.0089 95.8644C55.8183 94.2794 58.0834 91.0756 58.0834 91.0756C60.1181 98.107 64.5415 124.608 58.2352 160.406C51.6591 171.006 45.364 179.696 45.364 179.696L44.504 166.026C50.5799 154.594 60.2755 134.455 59.157 124.232Z" fill="#1D2B36"/>
<path d="M46.3699 49.9609L45.3863 51.647C45.0491 52.2316 44.7231 52.8217 44.4084 53.4175C43.7676 54.6091 43.1512 55.8082 42.5592 57.0147C41.9971 58.2231 41.4351 59.4372 40.9348 60.6513C40.4516 61.8487 40.0296 63.07 39.6702 64.3103L39.6027 64.5351L39.569 64.6531C39.569 64.6868 39.569 64.6531 39.569 64.6531C39.5505 64.684 39.539 64.7185 39.5353 64.7543C39.5181 64.9281 39.5181 65.1032 39.5353 65.277C39.5933 65.8076 39.7044 66.3311 39.8669 66.8395C40.2563 68.0594 40.7315 69.2502 41.2889 70.403C42.413 72.8199 43.7788 75.2761 45.1447 77.648L42.6772 79.5758C40.6274 77.4912 38.7742 75.2222 37.1409 72.7974C36.2747 71.5148 35.5224 70.1588 34.8927 68.7449C34.5372 67.9384 34.2624 67.0987 34.0721 66.2381C33.9624 65.7188 33.9059 65.1896 33.9034 64.6587C33.8993 64.3389 33.9218 64.0193 33.9709 63.7032L34.0102 63.4728V63.3267L34.0721 63.04C34.6775 60.0719 35.6107 57.1802 36.8543 54.418C37.4444 53.0578 38.0908 51.7313 38.7821 50.433C39.1306 49.781 39.4847 49.1402 39.8557 48.4995C40.2266 47.8587 40.592 47.2517 41.0304 46.5716L46.3699 49.9609Z" fill="#FACEA6"/>
<path d="M47.8596 51.4953C46.8205 54.3737 45.6137 57.1888 44.2455 59.9262C43.9476 60.5445 43.6835 61.0953 43.4474 61.5393C43.054 62.3206 42.8066 62.7927 42.8066 62.7927L34.3757 58.1163C34.3757 58.1163 34.4825 57.7623 34.6736 57.1665C34.8198 56.7168 35.0109 56.1267 35.2357 55.4466C36.6408 51.4391 39.513 44.2897 42.3289 43.8794C46.5387 43.2948 49.5682 46.4423 47.8596 51.4953Z" fill="#008AF8"/>
<path opacity="0.2" d="M44.2455 59.9543C43.9476 60.5726 43.6834 61.1234 43.4474 61.5674L34.6624 57.1946C34.8085 56.745 34.9996 56.1548 35.2244 55.4747L44.2455 59.9543Z" fill="#1D2B36"/>
<path d="M53.9633 186.16C53.5845 186.151 53.2076 186.102 52.8392 186.013C52.8204 186.008 52.8032 185.998 52.7894 185.984C52.7756 185.971 52.7656 185.954 52.7605 185.935C52.7585 185.916 52.7616 185.897 52.7695 185.881C52.7775 185.864 52.7899 185.849 52.8055 185.839C52.9347 185.744 54.1207 184.94 54.6265 185.137C54.6844 185.16 54.7354 185.197 54.7747 185.245C54.8141 185.293 54.8404 185.351 54.8514 185.412C54.877 185.503 54.8791 185.6 54.8575 185.692C54.8359 185.784 54.7912 185.87 54.7277 185.94C54.5081 186.104 54.2363 186.182 53.9633 186.16ZM53.1202 185.873C53.8677 186.019 54.413 185.997 54.6097 185.805C54.6501 185.758 54.6776 185.701 54.6894 185.64C54.7012 185.579 54.697 185.516 54.6771 185.457C54.6731 185.427 54.661 185.399 54.6422 185.375C54.6234 185.351 54.5986 185.333 54.5703 185.322C54.2949 185.215 53.6036 185.564 53.1202 185.873Z" fill="#008AF8"/>
<path d="M52.8786 186.025C52.864 186.029 52.8483 186.029 52.8337 186.025C52.8195 186.017 52.8076 186.005 52.7988 185.991C52.7899 185.978 52.7846 185.962 52.7831 185.946C52.7831 185.895 52.6876 184.698 53.1091 184.293C53.1621 184.24 53.2269 184.2 53.2981 184.177C53.3694 184.154 53.4452 184.147 53.5194 184.159C53.6021 184.162 53.6814 184.193 53.7452 184.246C53.8091 184.298 53.8541 184.37 53.8735 184.451C53.9691 184.906 53.3452 185.777 52.9292 186.025H52.8786ZM53.4407 184.338C53.4021 184.337 53.3637 184.344 53.3279 184.359C53.2922 184.373 53.2598 184.395 53.2328 184.423C53.0014 184.822 52.9048 185.285 52.9573 185.744C53.3171 185.44 53.733 184.777 53.6712 184.479C53.6712 184.423 53.6262 184.355 53.4857 184.338H53.4407Z" fill="#008AF8"/>
<path d="M43.7005 183.776C42.9572 183.662 42.2476 183.388 41.6208 182.973C41.6038 182.963 41.5903 182.947 41.5822 182.929C41.5742 182.911 41.5719 182.891 41.5759 182.871C41.5802 182.851 41.5907 182.833 41.6057 182.819C41.6208 182.805 41.6398 182.796 41.6602 182.793C41.885 182.793 43.8578 182.647 44.24 183.096C44.271 183.135 44.2922 183.181 44.302 183.23C44.3118 183.279 44.3098 183.329 44.2962 183.377C44.2799 183.455 44.2446 183.527 44.1937 183.588C44.1427 183.649 44.0775 183.696 44.004 183.726C43.9067 183.761 43.8039 183.778 43.7005 183.776ZM42.0143 182.967C42.9136 183.462 43.6218 183.675 43.9365 183.529C43.9829 183.51 44.024 183.48 44.0563 183.442C44.0886 183.404 44.1111 183.359 44.122 183.31C44.1314 183.294 44.1363 183.275 44.1363 183.256C44.1363 183.238 44.1314 183.219 44.122 183.203C43.8859 182.989 42.8068 182.95 42.003 182.984L42.0143 182.967Z" fill="#008AF8"/>
<path d="M41.6713 183.006C41.6546 183.006 41.6382 183.002 41.6235 182.994C41.6088 182.987 41.5962 182.975 41.587 182.961C41.5799 182.946 41.5763 182.93 41.5763 182.914C41.5763 182.897 41.5799 182.881 41.587 182.866C41.6207 182.798 42.3738 181.27 43.335 181.742C43.5991 181.871 43.6272 182.028 43.6048 182.135C43.5036 182.585 42.2502 183.001 41.6769 183.018L41.6713 183.006ZM42.9696 181.843C42.4581 181.843 42.0197 182.495 41.8455 182.798C42.4469 182.72 43.3574 182.349 43.4137 182.085C43.4137 182.023 43.3687 181.967 43.2506 181.905C43.163 181.863 43.0668 181.842 42.9696 181.843Z" fill="#008AF8"/>
<path d="M39.4735 174.159L45.7011 180.016L47.7021 177.863L40.5864 171.377L39.4735 174.159Z" fill="#008AF8"/>
<path opacity="0.7" d="M39.4735 174.159L45.7011 180.016L47.7021 177.863L40.5864 171.377L39.4735 174.159Z" fill="white"/>
<path d="M59.0615 79.9243C59.0615 79.9243 59.4606 111.771 58.7861 123.698C58.0442 136.766 54.3402 180.044 54.3402 180.044H46.6962C46.6962 180.044 46.921 137.817 46.4657 124.884C45.9655 110.832 44.6727 79.9187 44.6727 79.9187L59.0615 79.9243Z" fill="#008AF8"/>
<path opacity="0.7" d="M59.0615 79.9243C59.0615 79.9243 59.4606 111.771 58.7861 123.698C58.0442 136.766 54.3402 180.044 54.3402 180.044H46.6962C46.6962 180.044 46.921 137.817 46.4657 124.884C45.9655 110.832 44.6727 79.9187 44.6727 79.9187L59.0615 79.9243Z" fill="#1D2B36"/>
<path d="M46.3756 180.044H54.6211L55.0819 177.15L45.9766 177.599L46.3756 180.044Z" fill="#008AF8"/>
<path opacity="0.7" d="M46.3756 180.044H54.6211L55.0819 177.15L45.9766 177.599L46.3756 180.044Z" fill="white"/>
<path opacity="0.2" d="M47.8596 51.4953C46.8205 54.3737 45.6137 57.1888 44.2455 59.9262C43.9476 60.5445 43.6835 61.0953 43.4474 61.5393C43.054 62.3206 42.8066 62.7927 42.8066 62.7927L34.3757 58.1163C34.3757 58.1163 34.4825 57.7623 34.6736 57.1665C34.8198 56.7168 35.0109 56.1267 35.2357 55.4466C36.6408 51.4391 39.513 44.2897 42.3289 43.8794C46.5387 43.2948 49.5682 46.4423 47.8596 51.4953Z" fill="#1D2B36"/>
<path d="M62.788 46.2063C62.3383 47.6958 61.1018 49.6855 57.6451 50.7028L56.7458 50.9726L55.8297 50.8096C48.7758 49.5449 46.1791 45.751 45.7126 45.0147L44.7683 43.441C46.1116 43.2442 47.7978 43.0419 49.4503 42.9632C52.6046 42.7832 55.7667 42.7832 58.921 42.9632C60.3767 43.0981 61.7987 43.3398 62.9341 43.559C63.0908 44.4409 63.0408 45.3471 62.788 46.2063Z" fill="#008AF8"/>
<path opacity="0.4" d="M62.788 46.2063C62.3383 47.6958 61.1018 49.6855 57.6451 50.7028L56.7458 50.9726L55.8297 50.8096C48.7758 49.5449 46.1791 45.751 45.7126 45.0147L44.7683 43.441C46.1116 43.2442 47.7978 43.0419 49.4503 42.9632C52.6046 42.7832 55.7667 42.7832 58.921 42.9632C60.3767 43.0981 61.7987 43.3398 62.9341 43.559C63.0908 44.4409 63.0408 45.3471 62.788 46.2063Z" fill="#1D2B36"/>
<path d="M44.0262 76.7656L48.1742 76.0461L46.044 80.8461C46.044 80.8461 42.2557 80.8461 42.4299 78.8733L44.0262 76.7656Z" fill="#FACEA6"/>
<path d="M51.2655 78.4574L49.3208 82.3356L46.0439 80.8461L48.1742 76.0461L51.2655 78.4574Z" fill="#FACEA6"/>
<path d="M56.8133 46.937C51.1589 45.9196 49.3884 43.0025 49.3884 43.0025C51.4512 40.9679 50.6587 35.4091 49.9505 32.3571L52.4854 34.4592L55.9364 37.3257C55.8341 37.7853 55.7609 38.2509 55.7172 38.7196C55.5318 40.5913 56.0151 42.2944 58.7692 42.9463C58.7805 42.9295 61.0624 45.6723 56.8133 46.937Z" fill="#FACEA6"/>
<path d="M55.9479 37.3089C55.8456 37.7685 55.7724 38.234 55.7287 38.7028C54.4416 38.4443 52.7217 37.0728 52.5418 35.7576C52.4786 35.3222 52.4635 34.8811 52.4969 34.4424L55.9479 37.3089Z" fill="#D7A179"/>
<path d="M58.2914 21.6948C60.3485 22.6222 61.4895 28.4058 58.8534 29.6536C56.2174 30.9014 54.4019 19.9356 58.2914 21.6948Z" fill="#1D2B36"/>
<path d="M48.9442 27.9506C49.8266 32.003 50.1358 34.4143 52.5301 36.2635C53.3022 36.8717 54.2256 37.2574 55.2009 37.3792C56.1761 37.5009 57.1661 37.354 58.0639 36.9542C58.9617 36.5545 59.7333 35.9171 60.2954 35.1109C60.8575 34.3047 61.1887 33.3603 61.2533 32.3796C61.5681 28.6082 60.073 22.6166 55.807 21.47C54.8905 21.1968 53.9183 21.1695 52.9879 21.3909C52.0575 21.6122 51.2017 22.0743 50.5064 22.7309C49.8111 23.3875 49.3007 24.2154 49.0265 25.1316C48.7523 26.0478 48.7239 27.02 48.9442 27.9506Z" fill="#FACEA6"/>
<path d="M44.2173 23.9318C42.2445 24.803 43.363 27.5009 44.7063 29.2152C46.5668 31.5984 48.534 32.7112 49.8717 31.6152C51.0745 31.0138 51.867 27.4672 50.8216 25.2808C52.6707 24.0611 56.5096 25.5674 57.7068 23.5946C58.904 21.6218 59.7583 21.7848 61.8661 23.0888C63.9738 24.3927 65.66 19.2386 60.1799 18.2775C63.215 19.6433 62.518 22.3019 60.2979 19.5759C58.7297 17.6536 54.9696 15.529 52.356 18.3955C50.4281 20.4864 43.6553 17.2546 44.2173 23.9318Z" fill="#1D2B36"/>
<path d="M47.9834 32.1772C48.6408 32.968 49.5493 33.5096 50.5576 33.7117C51.8335 33.9253 52.1202 32.7449 51.4738 31.5983C50.9117 30.5698 49.5178 29.2152 48.3769 29.5187C47.2359 29.8222 47.1572 31.1824 47.9834 32.1772Z" fill="#FACEA6"/>
<path d="M55.3126 28.3553C55.3632 28.6869 55.5824 28.9173 55.8016 28.9173C56.0208 28.9173 56.1557 28.6026 56.0995 28.271C56.0433 27.9393 55.8353 27.7089 55.6161 27.7089C55.3969 27.7089 55.262 28.018 55.3126 28.3553Z" fill="#1D2B36"/>
<path d="M59.0613 27.9056C59.1119 28.2372 59.3311 28.4677 59.5503 28.4677C59.7695 28.4677 59.9044 28.1473 59.8538 27.8157C59.8032 27.484 59.584 27.2536 59.3648 27.2536C59.1456 27.2536 59.0613 27.574 59.0613 27.9056Z" fill="#1D2B36"/>
<path d="M57.9373 28.2147C58.4949 29.1853 59.1791 30.0775 59.9719 30.8676C59.7647 31.0573 59.5183 31.1989 59.2502 31.2824C58.9821 31.366 58.6988 31.3894 58.4206 31.351L57.9373 28.2147Z" fill="#D7A179"/>
<path d="M57.167 32.4077C56.7777 32.4124 56.3915 32.3387 56.0313 32.1909C55.6711 32.0432 55.3443 31.8245 55.0705 31.5477C55.0523 31.5289 55.0421 31.5037 55.0421 31.4775C55.0421 31.4513 55.0523 31.4261 55.0705 31.4072C55.0893 31.389 55.1145 31.3788 55.1407 31.3788C55.167 31.3788 55.1921 31.389 55.211 31.4072C55.5143 31.7014 55.88 31.9234 56.2809 32.0567C56.6818 32.19 57.1077 32.2312 57.5267 32.1772C57.5397 32.1757 57.5529 32.1768 57.5654 32.1806C57.578 32.1843 57.5896 32.1906 57.5996 32.199C57.6096 32.2075 57.6178 32.2179 57.6236 32.2296C57.6295 32.2413 57.6328 32.2541 57.6335 32.2672C57.6359 32.2799 57.6356 32.2929 57.6325 32.3054C57.6295 32.318 57.6238 32.3297 57.6158 32.3399C57.6078 32.35 57.5977 32.3583 57.5862 32.3642C57.5747 32.37 57.5621 32.3734 57.5492 32.374C57.4226 32.393 57.2949 32.4043 57.167 32.4077Z" fill="#1D2B36"/>
<path d="M53.958 27.2761C53.9267 27.2845 53.8937 27.2845 53.8624 27.2761C53.8169 27.2501 53.7833 27.2074 53.7686 27.1571C53.7539 27.1068 53.7593 27.0527 53.7837 27.0063C53.9316 26.7331 54.1432 26.4995 54.4005 26.3253C54.6578 26.1511 54.9533 26.0416 55.262 26.0059C55.3091 26.0138 55.352 26.0382 55.3828 26.0747C55.4137 26.1113 55.4307 26.1576 55.4307 26.2054C55.4307 26.2532 55.4137 26.2995 55.3828 26.336C55.352 26.3726 55.3091 26.397 55.262 26.4049C55.0197 26.4326 54.7879 26.5194 54.587 26.6575C54.3861 26.7957 54.2222 26.9811 54.1097 27.1974C54.0917 27.2208 54.0688 27.24 54.0426 27.2536C54.0163 27.2672 53.9875 27.2749 53.958 27.2761Z" fill="#1D2B36"/>
<path d="M60.5058 26.3993C60.4734 26.3984 60.4417 26.3898 60.4133 26.3742C60.385 26.3585 60.3608 26.3363 60.3428 26.3094C60.2069 26.0962 60.0236 25.9173 59.8071 25.7867C59.5907 25.656 59.347 25.5771 59.095 25.5562C59.0429 25.5562 58.9928 25.5355 58.9559 25.4986C58.919 25.4617 58.8983 25.4116 58.8983 25.3595C58.8983 25.3073 58.919 25.2573 58.9559 25.2204C58.9928 25.1835 59.0429 25.1628 59.095 25.1628C59.4122 25.1809 59.7205 25.2745 59.9943 25.4358C60.268 25.5971 60.4993 25.8214 60.6688 26.0901C60.6837 26.1115 60.6943 26.1356 60.6998 26.1611C60.7054 26.1865 60.7058 26.2128 60.7011 26.2384C60.6964 26.264 60.6866 26.2885 60.6724 26.3103C60.6582 26.3321 60.6398 26.3509 60.6182 26.3656C60.5849 26.3877 60.5458 26.3994 60.5058 26.3993Z" fill="#1D2B36"/>
<g opacity="0.9">
<path d="M119.168 91.4466C119.646 90.2493 120.462 89.2172 121.517 88.4765C122.573 87.7358 123.821 87.3187 125.109 87.2761H174.66C177.628 87.2761 179.635 89.6817 179.157 92.6551L163.481 186.244C163.204 187.724 162.432 189.065 161.291 190.047C160.149 191.029 158.707 191.593 157.203 191.645H32.9535C32.277 191.671 31.6035 191.542 30.9847 191.267C30.366 190.993 29.8184 190.58 29.3842 190.06C28.95 189.541 28.6406 188.929 28.4799 188.271C28.3192 187.613 28.3114 186.927 28.4571 186.266L41.7835 106.594C42.0654 105.119 42.8403 103.783 43.981 102.806C45.1217 101.828 46.5605 101.268 48.0617 101.215H105.291C111.147 101.193 116.897 97.1515 119.168 91.4466Z" fill="#008AF8" opacity="0.9"/>
</g>
<path opacity="0.5" d="M119.168 91.4466C119.646 90.2493 120.462 89.2172 121.517 88.4765C122.573 87.7358 123.821 87.3187 125.109 87.2761H174.66C177.628 87.2761 179.635 89.6817 179.157 92.6551L163.481 186.244C163.205 187.724 162.432 189.065 161.291 190.047C160.149 191.029 158.707 191.593 157.203 191.645H32.9535C32.277 191.671 31.6035 191.542 30.9847 191.267C30.366 190.993 29.8184 190.58 29.3842 190.06C28.95 189.541 28.6406 188.929 28.4799 188.271C28.3192 187.613 28.3114 186.927 28.4571 186.266L41.7835 106.594C42.0654 105.119 42.8403 103.783 43.981 102.806C45.1217 101.828 46.5605 101.268 48.0617 101.215H105.291C111.147 101.193 116.897 97.1515 119.168 91.4466Z" fill="white"/>
<path d="M99.4453 8.3515L61.9502 138.637L147.721 163.317L185.21 33.0316L99.4453 8.3515Z" fill="#008AF8" opacity="0.9"/>
<path opacity="0.7" d="M99.4453 8.3515L61.9502 138.637L147.721 163.317L185.21 33.0316L99.4453 8.3515Z" fill="white"/>
<g style="mix-blend-mode:multiply" opacity="0.9">
<path d="M97.7816 14.1238L61.9502 138.637L144.804 162.48L178.387 33.6105L97.7816 14.1238Z" fill="#008AF8"/>
</g>
<path d="M97.7816 14.1238L61.9502 138.637L144.804 162.48L178.387 33.6105L97.7816 14.1238Z" fill="#008AF8" opacity="0.6"/>
<g opacity="0.9">
<g style="mix-blend-mode:multiply" opacity="0.9">
<path d="M97.7816 14.1238L61.9502 138.637L144.804 162.48L178.387 33.6105L97.7816 14.1238Z" fill="white"/>
</g>
<path opacity="0.6" d="M97.7816 14.1238L61.9502 138.637L144.804 162.48L178.387 33.6105L97.7816 14.1238Z" fill="white"/>
</g>
<path d="M128.152 49.3981C133.774 42.9698 133.12 33.2015 126.691 27.5799C120.263 21.9584 110.495 22.6123 104.873 29.0406C99.2516 35.4688 99.9056 45.2371 106.334 50.8587C112.762 56.4803 122.53 55.8264 128.152 49.3981Z" fill="#008AF8"/>
<path d="M113.12 50.9782C110.792 50.3056 108.716 48.958 107.154 47.1057C105.592 45.2534 104.615 42.9797 104.345 40.5718C104.075 38.1639 104.525 35.7301 105.638 33.5779C106.751 31.4258 108.477 29.652 110.598 28.4807C112.719 27.3094 115.14 26.7933 117.554 26.9975C119.969 27.2017 122.268 28.1172 124.162 29.6281C126.056 31.1391 127.46 33.1776 128.196 35.4862C128.932 37.7947 128.966 40.2696 128.296 42.5979C127.851 44.1454 127.105 45.5899 126.101 46.8489C125.098 48.1079 123.855 49.1566 122.446 49.935C121.036 50.7134 119.487 51.2062 117.887 51.3852C116.287 51.5642 114.667 51.4259 113.12 50.9782Z" fill="white"/>
<path d="M122.476 63.8809L95.1764 56.0272L93.4111 62.1633L120.71 70.017L122.476 63.8809Z" fill="#008AF8"/>
<path d="M144.535 70.2222L126.067 64.9092L124.302 71.0454L142.77 76.3584L144.535 70.2222Z" fill="#008AF8"/>
<path d="M158.919 88.7975L91.3406 69.3559L90.6133 71.8838L158.192 91.3255L158.919 88.7975Z" fill="white"/>
<path d="M123.399 84.3943L89.7959 74.7271L89.0686 77.255L122.672 86.9222L123.399 84.3943Z" fill="white"/>
<path d="M151.623 92.5143L129.147 86.0483L128.42 88.5762L150.895 95.0422L151.623 92.5143Z" fill="white"/>
<path d="M142.27 95.6354L88.2499 80.0942L87.5226 82.6221L141.543 98.1633L142.27 95.6354Z" fill="white"/>
<path d="M148.117 103.891L86.0874 85.799L85.3509 88.3242L147.381 106.416L148.117 103.891Z" fill="white"/>
<path d="M92.3301 92.9037L85.1569 90.84L84.4296 93.3679L91.6028 95.4316L92.3301 92.9037Z" fill="white"/>
<path d="M129.783 103.68L98.0868 94.5612L97.3595 97.0891L129.056 106.208L129.783 103.68Z" fill="white"/>
<path d="M151.192 115.656L83.614 96.2143L82.8868 98.7422L150.465 118.184L151.192 115.656Z" fill="white"/>
<path d="M89.4629 12.9098L56.498 144.432L143.055 166.133L176.015 34.611L89.4629 12.9098Z" fill="#008AF8"/>
<path opacity="0.8" d="M89.4629 12.9098L56.498 144.432L143.055 166.133L176.015 34.611L89.4629 12.9098Z" fill="white"/>
<path d="M96.7978 39.8485C98.9884 38.7905 99.9066 36.157 98.8485 33.9664C97.7905 31.7758 95.157 30.8577 92.9664 31.9157C90.7758 32.9738 89.8577 35.6073 90.9157 37.7979C91.9738 39.9884 94.6073 40.9066 96.7978 39.8485Z" fill="#008AF8"/>
<path d="M138.375 43.2382L106.255 35.1881C104.545 34.7595 102.811 35.7984 102.382 37.5087C101.953 39.219 102.992 40.9529 104.703 41.3816L136.823 49.4316C138.533 49.8603 140.267 48.8213 140.695 47.111C141.124 45.4008 140.085 43.6668 138.375 43.2382Z" fill="#008AF8"/>
<path d="M123.531 71.3266L84.9761 61.6638C83.5134 61.2972 82.0305 62.1858 81.6639 63.6485C81.2973 65.1112 82.1858 66.5942 83.6486 66.9608L122.203 76.6236C123.666 76.9902 125.149 76.1016 125.516 74.6389C125.882 73.1762 124.994 71.6932 123.531 71.3266Z" fill="white"/>
<path d="M88.1352 51.7037L87.9761 51.6638C86.5134 51.2972 85.0305 52.1858 84.6639 53.6485C84.2973 55.1112 85.1858 56.5942 86.6486 56.9608L86.8077 57.0006C88.2704 57.3672 89.7533 56.4786 90.1199 55.0159C90.4865 53.5532 89.5979 52.0703 88.1352 51.7037Z" fill="white"/>
<path d="M126.073 61.2069L95.9761 53.6638C94.5134 53.2972 93.0305 54.1858 92.6639 55.6485C92.2973 57.1112 93.1858 58.5942 94.6486 58.9608L124.746 66.5039C126.209 66.8705 127.691 65.9819 128.058 64.5192C128.425 63.0565 127.536 61.5735 126.073 61.2069Z" fill="white"/>
<path d="M160.011 79.1838L141.976 74.6638C140.513 74.2972 139.03 75.1858 138.664 76.6485C138.297 78.1112 139.186 79.5942 140.648 79.9608L158.683 84.4807C160.146 84.8473 161.629 83.9587 161.995 82.496C162.362 81.0333 161.473 79.5504 160.011 79.1838Z" fill="white"/>
<path d="M157.011 89.1838L138.976 84.6638C137.513 84.2972 136.03 85.1858 135.664 86.6485C135.297 88.1112 136.186 89.5942 137.648 89.9608L155.683 94.4807C157.146 94.8473 158.629 93.9587 158.995 92.496C159.362 91.0333 158.473 89.5504 157.011 89.1838Z" fill="white"/>
<path d="M145.135 65.7037L144.976 65.6638C143.513 65.2972 142.03 66.1858 141.664 67.6485C141.297 69.1112 142.186 70.5942 143.648 70.9608L143.808 71.0006C145.27 71.3672 146.753 70.4786 147.12 69.0159C147.486 67.5532 146.598 66.0703 145.135 65.7037Z" fill="white"/>
<path d="M162.246 69.9872L152.976 67.6638C151.513 67.2972 150.03 68.1858 149.664 69.6485C149.297 71.1112 150.186 72.5942 151.648 72.9608L160.919 75.2841C162.381 75.6507 163.864 74.7621 164.231 73.2994C164.598 71.8367 163.709 70.3537 162.246 69.9872Z" fill="white"/>
<path d="M150.011 115.184L131.976 110.664C130.513 110.297 129.03 111.186 128.664 112.648C128.297 114.111 129.186 115.594 130.648 115.961L148.683 120.481C150.146 120.847 151.629 119.959 151.995 118.496C152.362 117.033 151.473 115.55 150.011 115.184Z" fill="white"/>
<path d="M147.011 125.184L128.976 120.664C127.513 120.297 126.03 121.186 125.664 122.648C125.297 124.111 126.186 125.594 127.648 125.961L145.683 130.481C147.146 130.847 148.629 129.959 148.995 128.496C149.362 127.033 148.473 125.55 147.011 125.184Z" fill="white"/>
<path d="M135.135 101.704L134.976 101.664C133.513 101.297 132.03 102.186 131.664 103.648C131.297 105.111 132.186 106.594 133.648 106.961L133.808 107.001C135.27 107.367 136.753 106.479 137.12 105.016C137.486 103.553 136.598 102.07 135.135 101.704Z" fill="white"/>
<path d="M152.246 105.987L142.976 103.664C141.513 103.297 140.03 104.186 139.664 105.648C139.297 107.111 140.186 108.594 141.648 108.961L150.919 111.284C152.381 111.651 153.864 110.762 154.231 109.299C154.598 107.837 153.709 106.354 152.246 105.987Z" fill="white"/>
<path d="M113.531 107.327L74.976 97.6638C73.5133 97.2972 72.0303 98.1858 71.6637 99.6485C71.2971 101.111 72.1857 102.594 73.6484 102.961L112.203 112.624C113.666 112.99 115.149 112.102 115.516 110.639C115.882 109.176 114.994 107.693 113.531 107.327Z" fill="white"/>
<path d="M78.1351 87.7037L77.976 87.6638C76.5133 87.2972 75.0303 88.1858 74.6637 89.6485C74.2971 91.1112 75.1857 92.5942 76.6484 92.9608L76.8075 93.0006C78.2703 93.3672 79.7532 92.4786 80.1198 91.0159C80.4864 89.5532 79.5978 88.0703 78.1351 87.7037Z" fill="white"/>
<path d="M116.073 97.2069L85.976 89.6638C84.5133 89.2972 83.0303 90.1858 82.6637 91.6485C82.2971 93.1112 83.1857 94.5942 84.6484 94.9608L114.746 102.504C116.208 102.871 117.691 101.982 118.058 100.519C118.425 99.0565 117.536 97.5735 116.073 97.2069Z" fill="white"/>
<path d="M81.2793 109.995L71.976 107.664C70.5133 107.297 69.0303 108.186 68.6637 109.648C68.2971 111.111 69.1857 112.594 70.6484 112.961L79.9518 115.292C81.4145 115.659 82.8974 114.77 83.264 113.308C83.6306 111.845 82.7421 110.362 81.2793 109.995Z" fill="#008AF8"/>
<path d="M116.332 141.867L136.626 66.128C136.853 65.2836 136.352 64.4158 135.507 64.1895C134.663 63.9633 133.795 64.4644 133.569 65.3087L113.275 141.048C113.048 141.892 113.549 142.76 114.394 142.986C115.238 143.213 116.106 142.711 116.332 141.867Z" fill="white"/>
<path d="M86.0738 110.984C86.1806 108.876 88.0242 107.387 90.531 107.387H140.088C143.056 107.387 145.916 109.461 146.479 112.024L161.356 186.98C161.918 189.543 159.962 191.623 156.995 191.623H32.7286C29.7553 191.623 26.8944 189.543 26.3324 186.98L14.0963 124.035C13.5342 121.472 15.4902 119.392 18.4635 119.392H75.6701C81.5436 119.392 85.8377 115.907 86.0738 110.984Z" fill="#008AF8" opacity="0.5"/>
</svg>
