<svg width="200" height="200" viewBox="0 0 200 200" fill="none" xmlns="http://www.w3.org/2000/svg">
<path d="M134.195 142.746C158.332 141.818 186.946 123.148 190.108 97.7313C193.125 73.4907 174.635 57.4094 153.572 50.2043C138.29 44.99 121.765 42.0657 108.665 32.6119C98.2258 25.0767 90.67 13.828 79.4936 7.42232C69.9658 2.04268 58.7136 0.597294 48.1356 3.39426C3.13068 15.4526 7.32895 80.242 22.6263 113.343C31.0434 131.565 50.7298 143.943 70.179 146.785C91.2837 149.874 113.095 143.556 134.195 142.746Z" fill="#1265E5"/>
<path opacity="0.9" d="M134.195 142.746C158.332 141.818 186.946 123.148 190.108 97.7313C193.125 73.4907 174.635 57.4094 153.572 50.2043C138.29 44.99 121.765 42.0657 108.665 32.6119C98.2258 25.0767 90.67 13.828 79.4936 7.42232C69.9658 2.04268 58.7136 0.597294 48.1356 3.39426C3.13068 15.4526 7.32895 80.242 22.6263 113.343C31.0434 131.565 50.7298 143.943 70.179 146.785C91.2838 149.874 113.095 143.556 134.195 142.746Z" fill="white"/>
<path d="M105.848 107H96L110.394 139.352L105.5 163L113 163.5C118.5 147.5 119.939 112.662 118.727 111.044C117.212 109.022 108.121 107 105.848 107Z" fill="#1D2B36"/>
<path opacity="0.6" d="M105.848 107H96L110.394 139.352L105.5 163L113 163.5C118.5 147.5 119.939 112.662 118.727 111.044C117.212 109.022 108.121 107 105.848 107Z" fill="#1265E5"/>
<path d="M110.019 165.598L109.55 170.219L104 169.75L104.836 165L110.019 165.598Z" fill="#DFA977"/>
<path d="M116.471 162.388L115.398 166.029L104.15 165.091L104 160L116.471 162.388Z" fill="#405261"/>
<path d="M111.623 167.113L103.572 167L103 171.064C103 171.064 110.54 171.167 113.64 170.755C116.74 170.342 116.255 168.728 116.255 168.728C116.255 168.728 112.624 168.815 111.623 167.113Z" fill="#1D2B36"/>
<path d="M100 195.765C44.7715 195.765 0 193.151 0 189.927C0 186.702 44.7715 184.088 100 184.088C155.228 184.088 200 186.702 200 189.927C200 193.151 155.228 195.765 100 195.765Z" fill="#F1F3F5"/>
<path d="M22.7124 74L82.2225 74.9868L81.5101 117.949L22 116.962L22.7124 74Z" fill="#003D99"/>
<path opacity="0.3" d="M46.3019 74.386L82.2812 74.9826L81.5689 117.944L45.5895 117.348L46.3019 74.386Z" fill="white"/>
<path opacity="0.3" d="M40.8804 77.2808L51.2419 77.488L51.1842 80.3763L40.8226 80.169L40.8804 77.2808Z" fill="white"/>
<path opacity="0.3" d="M40.5725 110.688L50.9326 110.86L50.8847 113.748L40.5246 113.576L40.5725 110.688Z" fill="white"/>
<path d="M97.9254 76.3523L104.353 75.7246C104.353 75.7246 107.992 86.9888 109.5 89C109.5 89 127.661 87.8127 135.496 85.8374L140.102 87.6687L141.291 92.3655L137.395 93.3512L135.466 90.6355C135.466 90.6355 132.792 91.1071 131.847 89.7529C131.847 89.7529 114.283 98.9689 105.5 95C105 93.3512 99.351 89.1641 97.9254 76.3523Z" fill="#DFA977"/>
<path d="M80.0816 43.2302C80.0816 43.2302 78.0753 45.8089 78.8386 48.0422C79.0493 48.679 79.4205 49.2509 79.9164 49.7026C80.4124 50.1543 81.0163 50.4706 81.6701 50.621C81.6701 50.621 82.0466 54.1951 84.156 54.2983C86.2655 54.4014 85.5589 46.4227 85.5589 46.4227L80.0816 43.2302Z" fill="#1D2B36"/>
<path d="M96.3227 105.972L97.7307 82.9331L106.468 77.1257C106.468 77.1257 103.61 67.053 98.1433 65.3458C92.6763 63.6387 80.752 59.7241 73.5211 61.6685C66.2902 63.6129 67.1206 72.1435 68.3636 78.4718L69.7561 78.8019C69.7561 78.8019 69.9727 103.739 69.983 105.884L96.3227 105.972Z" fill="#1D2B36"/>
<path d="M80.6025 63.092C83.4649 65.8616 89.3033 67.512 90.9176 66.1349C92.5319 64.7579 90.4947 63.4943 88.9784 61.9367C88.1583 61.0805 88.1841 59.4765 88.3749 58.1974C88.4754 57.553 88.6237 56.9168 88.8185 56.2943C94.1772 56.0003 96.4001 53.4937 96.6219 49.0737C96.8437 44.6537 94.8425 39.5219 94.8425 39.5219L91.0569 36.2933C91.0569 36.2933 85.8993 37.0669 81.7732 39.9036C79.3182 41.5746 80.0455 44.8651 81.0615 47.2944C81.492 48.3284 82.0096 49.3239 82.6088 50.2703C83.1864 56.3201 80.6025 63.092 80.6025 63.092Z" fill="#DFA977"/>
<path d="M93.6407 50.2909C93.6407 50.2909 91.5777 50.3889 90.6751 49.1098" stroke="#1D2B36" stroke-width="0.3" stroke-linecap="round" stroke-linejoin="round"/>
<path d="M90.3555 45.0714C90.3555 45.4634 90.5927 45.7729 90.8712 45.7677C91.1497 45.7625 91.3509 45.4376 91.3406 45.0456C91.3302 44.6537 91.1033 44.3442 90.8248 44.3494C90.5463 44.3545 90.34 44.6795 90.3555 45.0714Z" fill="#1D2B36"/>
<path d="M95.0591 45.1952C95.0591 45.5872 95.2963 45.8966 95.5749 45.8915C95.8534 45.8863 96.0545 45.5614 96.0442 45.1694C96.0339 44.7774 95.8069 44.468 95.5284 44.4731C95.2499 44.4783 95.0436 44.8084 95.0591 45.1952Z" fill="#1D2B36"/>
<path d="M93.424 48.398L93.6354 45.2365L95.1466 48.2382C94.9107 48.4386 94.6188 48.5615 94.3105 48.5901C94.0023 48.6187 93.6927 48.5517 93.424 48.398Z" fill="#CF8362"/>
<path d="M90.6029 42.5958C90.2073 42.4871 89.7859 42.5223 89.4138 42.6951C89.0417 42.868 88.743 43.1672 88.5708 43.5396" stroke="#1D2B36" stroke-width="0.45" stroke-linecap="round" stroke-linejoin="round"/>
<path d="M96.5137 43.1786C96.5137 43.1786 95.5647 42.1471 94.4506 42.4101" stroke="#1D2B36" stroke-width="0.45" stroke-linecap="round" stroke-linejoin="round"/>
<path d="M81.0254 47.2943C86.9257 47.5058 87.6581 40.8164 87.6581 40.8164C90.5772 42.3637 94.8219 39.527 94.8219 39.527L91.0362 36.2881C91.0362 36.2881 85.8787 37.072 81.7526 39.8984C79.2822 41.5746 80.0094 44.8754 81.0254 47.2943Z" fill="#1D2B36"/>
<path d="M96.7198 41.4869C96.7198 41.4869 99.7731 39.4548 98.427 37.9901C97.0808 36.5253 88.8339 39.3104 82.6706 42.7247C82.6706 42.7247 96.7869 33.2812 100.624 36.2674C103.796 38.7379 96.7611 42.1677 96.9725 42.1625L96.7198 41.4869Z" fill="#1265E5"/>
<path d="M79.4988 40.7958C79.5074 41.8653 79.7101 42.9243 80.097 43.9213L93.9606 37.2165C93.3862 36.5532 92.698 35.9978 91.9285 35.5764C91.108 35.107 90.2159 34.776 89.2878 34.5964C88.3037 34.4083 87.2964 34.3735 86.3016 34.4933C81.2317 35.0761 79.473 38.9752 79.4988 40.7958Z" fill="#1265E5"/>
<path d="M84.2487 49.6565C84.5741 49.3061 84.7711 48.8558 84.8077 48.379C84.8442 47.9022 84.7181 47.4272 84.4498 47.0313C83.6246 45.7935 81.9587 43.8285 80.3599 45.2984C78.1215 47.3614 81.9432 51.1109 83.5266 50.2032C83.7918 50.0559 84.0349 49.8718 84.2487 49.6565Z" fill="#DFA977"/>
<path opacity="0.2" d="M96.7198 41.4869C96.7198 41.4869 99.7731 39.4548 98.4269 37.9901C97.8287 37.3402 96.039 37.4743 93.6201 38.1654C92.0646 38.5842 90.541 39.1133 89.0608 39.7488C86.9359 40.672 84.6769 41.8531 82.6706 42.7247C82.6706 42.7247 96.7868 33.2812 100.624 36.2674C103.796 38.7379 97.1994 41.9407 96.9673 42.1574L96.8539 41.7396L96.7198 41.4869Z" fill="#003D99"/>
<path d="M95.2703 40.605C95.2703 40.605 98.3649 41.1207 96.2297 44.4525L95.2703 40.605Z" fill="#1D2B36"/>
<path d="M92.305 38.5729C92.305 38.5729 96.9726 36.9328 98.2723 37.8611C99.572 38.7895 98.2104 40.5585 96.725 41.4714L95.5336 41.6261L94.8322 39.5115L93.0167 39.2898L92.305 38.5729Z" fill="#1D2B36"/>
<path opacity="0.3" d="M85.9457 36.0508L87.0649 37.7064L91.9285 35.5918C91.108 35.1225 90.2158 34.7914 89.2878 34.6119L85.9457 36.0508Z" fill="white"/>
<path opacity="0.1" d="M87.0288 55.8405C87.3507 56.6964 87.8125 57.493 88.3956 58.1975C88.4961 57.553 88.6443 56.9168 88.8391 56.2943C88.2137 56.2506 87.6009 56.097 87.0288 55.8405Z" fill="#003D99"/>
<path d="M68.2472 76.0123L74.754 75.202C74.754 75.202 77.9144 87.9991 79.5 90C79.5 90 89.6888 88.1339 97.5899 85.9058L102.314 87.6367L103.649 92.3746L99.7203 93.4805L97.6929 90.798C97.6929 90.798 94.9924 91.3519 94 90C94 90 85.1654 96.426 75.9999 96C75.9999 95.9787 70.0617 88.9722 68.2472 76.0123Z" fill="#DFA977"/>
<path d="M76.5 78L68.5 78.5C67.7581 74.9 67.9627 71.8333 68.1172 71H76L76.5 78Z" fill="#1D2B36"/>
<path d="M45.2474 131.817L20.4963 130.811" stroke="#1265E5" stroke-linecap="round" stroke-linejoin="round"/>
<path d="M12.3163 126.303L8.63894 126.154" stroke="#1265E5" stroke-linecap="round" stroke-linejoin="round"/>
<path d="M33.3849 127.159L15.1374 126.417" stroke="#1265E5" stroke-linecap="round" stroke-linejoin="round"/>
<path d="M20.6147 139.971L5.32257 139.352" stroke="#1265E5" stroke-linecap="round" stroke-linejoin="round"/>
<path d="M30.0686 140.357L23.405 140.084" stroke="#1265E5" stroke-linecap="round" stroke-linejoin="round"/>
<path d="M68.7256 168.533L71.5258 174.97C72.0539 176.186 72.9261 177.222 74.035 177.949C75.144 178.677 76.4414 179.064 77.7677 179.064H89.4898C91.0448 179.063 92.5359 178.445 93.6358 177.346H115.528C116.374 177.346 117.207 177.145 117.96 176.76C118.713 176.374 119.363 175.816 119.857 175.13L122.749 171.121L68.7256 168.533Z" fill="#1D2B36"/>
<path d="M86.5637 143.016C86.5637 146.102 98.8641 168.023 100.095 168.894C101.327 169.764 117.384 168.791 117.384 168.791L116.187 173.338H72.0928L53.7681 137.77L65.8853 120.287L87.9609 120.9C87.9609 120.9 86.5637 139.935 86.5637 143.016Z" fill="#748494"/>
<path opacity="0.2" d="M86.5637 143.016C86.5637 146.102 98.8641 168.023 100.095 168.894C101.327 169.764 117.384 168.791 117.384 168.791L116.187 173.338H72.0928L53.7681 137.77L65.8853 120.287L87.9609 120.9C87.9609 120.9 86.5637 139.935 86.5637 143.016Z" fill="#1D2B36"/>
<path d="M50.7445 190.276C60.6784 190.276 68.7314 180.562 68.7314 168.579C68.7314 156.596 60.6784 146.881 50.7445 146.881C40.8106 146.881 32.7576 156.596 32.7576 168.579C32.7576 180.562 40.8106 190.276 50.7445 190.276Z" fill="#1D2B36"/>
<path d="M47.7324 182.265C53.9976 182.265 59.0765 176.138 59.0765 168.579C59.0765 161.02 53.9976 154.892 47.7324 154.892C41.4671 154.892 36.3882 161.02 36.3882 168.579C36.3882 176.138 41.4671 182.265 47.7324 182.265Z" fill="white"/>
<path d="M45.1268 174.093C47.736 174.093 49.8512 171.542 49.8512 168.396C49.8512 165.249 47.736 162.698 45.1268 162.698C42.5176 162.698 40.4025 165.249 40.4025 168.396C40.4025 171.542 42.5176 174.093 45.1268 174.093Z" fill="#748494"/>
<path opacity="0.4" d="M45.1268 174.093C47.736 174.093 49.8512 171.542 49.8512 168.396C49.8512 165.249 47.736 162.698 45.1268 162.698C42.5176 162.698 40.4025 165.249 40.4025 168.396C40.4025 171.542 42.5176 174.093 45.1268 174.093Z" fill="#1D2B36"/>
<path d="M150.941 135.8C150.941 135.8 134.706 148.25 128.516 173.91H102.518L127.141 133.825L140.129 128.425L150.941 135.8Z" fill="#748494"/>
<path opacity="0.4" d="M152.619 134.535C152.619 134.535 137.438 146.142 130.188 167.983C129.628 169.7 128.542 171.196 127.083 172.26C125.624 173.324 123.868 173.902 122.062 173.91H102.518L127.141 133.825L140.129 128.425L152.619 134.535Z" fill="#1D2B36"/>
<path d="M100.623 167.884L92.5725 167.771L92 171.835C92 171.835 99.5404 171.938 102.64 171.525C105.74 171.113 105.255 169.499 105.255 169.499C105.255 169.499 101.624 169.586 100.623 167.884Z" fill="#1D2B36"/>
<path d="M151.055 135.543H141.028C139.125 135.519 137.258 136.066 135.668 137.112C129.718 141.075 115.626 152.127 114.16 169.638C114.068 170.794 113.547 171.874 112.699 172.664C111.851 173.455 110.738 173.9 109.578 173.91H65.9941C58.6703 173.911 51.4775 171.969 45.1497 168.281L32.6889 161.02C31.3464 160.236 30.2832 159.051 29.6485 157.631C29.0138 156.212 28.8395 154.629 29.1499 153.106C30.633 145.954 34.8134 133.682 46.776 128.883C46.965 128.797 46.6787 128.723 47.2513 128.654V121.227H78.495C78.495 121.227 72.2302 136.167 72.2302 142.329C72.2302 148.141 78.3919 170.474 86.3632 172.765H97.2435C98.6896 172.73 100.101 172.314 101.335 171.56C102.57 170.806 103.584 169.74 104.276 168.47C109.578 159.004 121.358 134.46 117.687 111.262C117.258 108.554 119.342 105.765 122.091 105.765H136.121C136.121 105.765 148.719 120.379 152.808 132.731C153.226 133.934 152.327 135.543 151.055 135.543Z" fill="#748494"/>
<path d="M128.567 101.115H124.559C123.507 101.115 122.487 100.755 121.667 100.096L113.427 93.4244C113.103 93.1609 112.699 93.0155 112.281 93.0121H96.4418C96.1381 93.0121 95.8467 92.8914 95.632 92.6766C95.4172 92.4619 95.2965 92.1705 95.2965 91.8668C95.2965 91.563 95.4172 91.2717 95.632 91.0569C95.8467 90.8422 96.1381 90.7215 96.4418 90.7215H112.27C113.213 90.722 114.127 91.0476 114.858 91.6435L123.104 98.3205C123.514 98.6521 124.026 98.8321 124.553 98.8302H128.562C129.117 98.8281 129.654 98.6271 130.074 98.2637C130.494 97.9002 130.77 97.3983 130.852 96.8488L131.213 94.2719C131.358 93.2908 131.849 92.394 132.598 91.7438C133.347 91.0936 134.304 90.733 135.296 90.7272H138.302C138.606 90.7272 138.897 90.8479 139.112 91.0627C139.327 91.2775 139.448 91.5688 139.448 91.8725C139.448 92.1763 139.327 92.4676 139.112 92.6824C138.897 92.8972 138.606 93.0178 138.302 93.0178H135.285C134.844 93.0211 134.419 93.1815 134.086 93.4702C133.754 93.7589 133.535 94.1569 133.469 94.5926L133.108 97.1695C132.947 98.261 132.401 99.2587 131.568 99.9824C130.735 100.706 129.671 101.108 128.567 101.115Z" fill="#1D2B36"/>
<path d="M121.495 96.259C121.495 96.259 121.547 98.9619 119.01 98.7901L118.185 101.722C118.068 102.135 118.038 102.568 118.098 102.993C118.158 103.418 118.307 103.826 118.535 104.19L120.327 107.053H136.934L138.239 104.591C138.449 104.199 138.527 103.751 138.465 103.311C138.402 102.872 138.201 102.463 137.89 102.146L132.942 97.0894C132.684 96.8229 132.374 96.611 132.031 96.4665C131.689 96.3219 131.321 96.2474 130.95 96.2476L121.495 96.259Z" fill="#748494"/>
<path opacity="0.4" d="M121.495 96.259C121.495 96.259 121.547 98.9619 119.01 98.7901L118.185 101.722C118.068 102.135 118.038 102.568 118.098 102.993C118.158 103.418 118.307 103.826 118.535 104.19L120.327 107.053H136.934L138.239 104.591C138.449 104.199 138.527 103.751 138.465 103.311C138.402 102.872 138.201 102.463 137.89 102.146L132.942 97.0894C132.684 96.8229 132.374 96.611 132.031 96.4665C131.689 96.3219 131.321 96.2474 130.95 96.2476L121.495 96.259Z" fill="#1D2B36"/>
<path d="M150.013 190.276C159.947 190.276 168 180.562 168 168.579C168 156.596 159.947 146.881 150.013 146.881C140.079 146.881 132.026 156.596 132.026 168.579C132.026 180.562 140.079 190.276 150.013 190.276Z" fill="#1D2B36"/>
<path d="M147.007 182.265C153.272 182.265 158.351 176.138 158.351 168.579C158.351 161.02 153.272 154.892 147.007 154.892C140.742 154.892 135.663 161.02 135.663 168.579C135.663 176.138 140.742 182.265 147.007 182.265Z" fill="white"/>
<path d="M167.714 154.583C165.818 151.359 160.75 144.39 151.639 142.352C149.305 141.804 146.884 141.734 144.521 142.145L144.481 142.048L144.521 141.962H144.447L142.884 138.406H141.103C139.656 138.406 138.249 138.876 137.094 139.746L133.967 142.094L135.439 147.196C135.013 147.653 134.616 148.135 134.248 148.639C131.61 151.918 129.812 155.79 129.008 159.92C128.982 160.093 128.993 160.269 129.041 160.436C129.089 160.604 129.173 160.759 129.287 160.892C129.4 161.024 129.541 161.13 129.7 161.202C129.858 161.275 130.031 161.312 130.205 161.312H131.144C131.391 161.316 131.632 161.245 131.837 161.108C132.042 160.97 132.2 160.774 132.29 160.545C133.129 158.328 134.458 156.329 136.178 154.698L141.395 168.281L145.592 166.517L144.121 149.59C144.121 149.59 153.775 146.875 160.097 154.686C160.465 155.144 160.931 155.514 161.46 155.768C161.989 156.023 162.568 156.156 163.155 156.158H166.826C167.009 156.155 167.187 156.104 167.344 156.011C167.501 155.917 167.631 155.784 167.721 155.625C167.811 155.466 167.857 155.286 167.856 155.103C167.855 154.92 167.806 154.741 167.714 154.583Z" fill="#748494"/>
<path opacity="0.2" d="M167.714 154.583C165.818 151.359 160.75 144.39 151.639 142.352C149.305 141.804 146.884 141.734 144.521 142.145L144.481 142.048L144.521 141.962H144.447L142.884 138.406H141.103C139.656 138.406 138.249 138.876 137.094 139.746L133.967 142.094L135.439 147.196C135.013 147.653 134.616 148.135 134.248 148.639C131.61 151.918 129.812 155.79 129.008 159.92C128.982 160.093 128.993 160.269 129.041 160.436C129.089 160.604 129.173 160.759 129.287 160.892C129.4 161.024 129.541 161.13 129.7 161.202C129.858 161.275 130.031 161.312 130.205 161.312H131.144C131.391 161.316 131.632 161.245 131.837 161.108C132.042 160.97 132.2 160.774 132.29 160.545C133.129 158.328 134.458 156.329 136.178 154.698L141.395 168.281L145.592 166.517L144.121 149.59C144.121 149.59 153.775 146.875 160.097 154.686C160.465 155.144 160.931 155.514 161.46 155.768C161.989 156.023 162.568 156.156 163.155 156.158H166.826C167.009 156.155 167.187 156.104 167.344 156.011C167.501 155.917 167.631 155.784 167.721 155.625C167.811 155.466 167.857 155.286 167.856 155.103C167.855 154.92 167.806 154.741 167.714 154.583Z" fill="#1D2B36"/>
<path d="M144.401 174.093C147.01 174.093 149.125 171.542 149.125 168.396C149.125 165.249 147.01 162.698 144.401 162.698C141.792 162.698 139.677 165.249 139.677 168.396C139.677 171.542 141.792 174.093 144.401 174.093Z" fill="#748494"/>
<path opacity="0.4" d="M144.401 174.093C147.01 174.093 149.125 171.542 149.125 168.396C149.125 165.249 147.01 162.698 144.401 162.698C141.792 162.698 139.677 165.249 139.677 168.396C139.677 171.542 141.792 174.093 144.401 174.093Z" fill="#1D2B36"/>
<path d="M127.388 107.689C127.388 107.689 130.36 126.403 140.175 126.529C149.377 126.655 150.236 109.086 141.458 106.389C134.368 104.207 127.388 107.689 127.388 107.689Z" fill="#748494"/>
<path opacity="0.2" d="M127.388 107.689C127.388 107.689 130.36 126.403 140.175 126.529C149.377 126.655 150.236 109.086 141.458 106.389C134.368 104.207 127.388 107.689 127.388 107.689Z" fill="#1D2B36"/>
<path d="M146.967 116.296C147.184 121.043 144.321 124.886 140.57 124.886C136.819 124.886 133.607 121.032 133.389 116.296C133.172 111.56 136.035 107.706 139.78 107.706C143.525 107.706 146.749 111.543 146.967 116.296Z" fill="white"/>
<path d="M137.627 104.024H129.106L129.781 102.925H137.627V104.024Z" fill="#748494"/>
<path d="M90.7726 120.436V122.589C90.7726 124.542 89.1749 125.808 87.2164 125.808H48.4939C46.5297 125.808 44.9607 124.542 44.9607 122.589V120.436C44.9607 118.484 46.5297 117.218 48.4939 117.218H87.2164C89.1749 117.218 90.7726 118.484 90.7726 120.436Z" fill="#1D2B36"/>
<path opacity="0.1" d="M78.1743 120.436V122.589C78.1958 123.025 78.1245 123.459 77.9653 123.865C77.806 124.271 77.5623 124.638 77.2505 124.942C76.9386 125.246 76.5656 125.481 76.1562 125.63C75.7468 125.779 75.3104 125.84 74.8759 125.808H48.4939C46.5297 125.808 44.9607 124.542 44.9607 122.589V120.436C44.9607 118.484 46.5297 117.218 48.4939 117.218H74.8759C75.3104 117.186 75.7468 117.246 76.1562 117.396C76.5656 117.545 76.9386 117.779 77.2505 118.084C77.5623 118.388 77.806 118.755 77.9653 119.161C78.1245 119.566 78.1958 120.001 78.1743 120.436Z" fill="white"/>
<path opacity="0.2" d="M73.3011 160.098V173.91H65.9941C58.6703 173.911 51.4775 171.969 45.1497 168.281L32.6889 161.02C31.3464 160.235 30.2832 159.05 29.6485 157.631C29.0138 156.212 28.8395 154.629 29.1499 153.106C30.633 145.953 34.8764 133.682 46.8619 128.883L47.4346 128.911H52.2734C55.0661 128.911 57.801 129.707 60.1572 131.206C62.5134 132.705 64.3932 134.845 65.5761 137.375L70.7299 148.427C72.4297 152.083 73.3073 156.067 73.3011 160.098Z" fill="#1D2B36"/>
<path d="M105.64 82.9805L104.73 83.6763L110.933 91.7864L111.842 91.0906L105.64 82.9805Z" fill="#1D2B36"/>
<path d="M101.911 82.0001H104.831C105.135 82.0001 105.431 82.0891 105.685 82.256C105.938 82.4229 106.137 82.6605 106.257 82.9393L106.646 83.8498C106.747 84.0856 106.787 84.3425 106.764 84.5977C106.74 84.8528 106.654 85.0983 106.513 85.3121C106.372 85.5258 106.18 85.7014 105.954 85.8229C105.729 85.9445 105.477 86.0083 105.221 86.0087H102.042C101.669 86.0096 101.308 85.8757 101.026 85.6315C100.744 85.3873 100.56 85.0494 100.508 84.6801L100.376 83.7696C100.345 83.5498 100.361 83.3258 100.424 83.1129C100.487 82.8999 100.595 82.7029 100.74 82.5352C100.886 82.3675 101.065 82.2329 101.267 82.1406C101.469 82.0483 101.689 82.0004 101.911 82.0001Z" fill="#748494"/>
<path d="M134.778 84.2647L133.251 91.5158L134.372 91.7518L135.899 84.5007L134.778 84.2647Z" fill="#1D2B36"/>
<path d="M138.772 82.0001H135.628C135.32 81.9998 135.022 82.111 134.79 82.3131C134.557 82.5151 134.405 82.7944 134.363 83.0995L134.151 84.5483C134.125 84.7315 134.139 84.9181 134.193 85.0953C134.246 85.2724 134.337 85.436 134.459 85.5747C134.582 85.7134 134.733 85.824 134.902 85.8989C135.071 85.9738 135.254 86.0112 135.439 86.0086H138.577C138.885 86.0088 139.183 85.8977 139.416 85.6956C139.648 85.4935 139.8 85.2142 139.843 84.9091L140.055 83.4603C140.08 83.2776 140.066 83.0915 140.013 82.9148C139.96 82.738 139.87 82.5748 139.748 82.4362C139.626 82.2976 139.476 82.1869 139.308 82.1116C139.139 82.0363 138.957 81.9983 138.772 82.0001Z" fill="#748494"/>
<path d="M99.5455 163.598L99.0762 168.219L93.5267 167.75L94.3622 163L99.5455 163.598Z" fill="#DFA977"/>
<path d="M97.1627 86.046C89.2616 88.2741 93.5728 90.1401 93.5728 90.1401C94.5652 91.492 97.2658 90.9382 97.2658 90.9382L99.2931 93.6206L103.222 92.5147L101.887 87.7768L97.1627 86.046Z" fill="#DFA977"/>
<path d="M70 106C70 106 67.1704 125.176 78.4338 125.713C89.6972 126.25 101.799 125.049 101.799 125.049L93 162.513L99.25 164C99.25 164 116.392 130.818 117.585 123.599C118.778 116.381 117.741 111.277 109.911 108.073C102.081 104.869 70 106 70 106Z" fill="#1265E5"/>
<path d="M104.073 161.359L103 165L91.7514 164.061L91.6018 158.971L104.073 161.359Z" fill="#405261"/>
</svg>
