<svg width="200" height="200" viewBox="0 0 200 200" fill="none" xmlns="http://www.w3.org/2000/svg">
<path d="M99.9845 188.552C149.655 188.552 189.921 186.201 189.921 183.301C189.921 180.402 149.655 178.051 99.9845 178.051C50.3139 178.051 10.0479 180.402 10.0479 183.301C10.0479 186.201 50.3139 188.552 99.9845 188.552Z" fill="#F1F3F5"/>
<path d="M153.328 126.917C175.778 120.423 193.813 109.109 198.512 84.9983C202.64 63.828 198.535 37.4347 181.716 22.378C164.989 7.40014 138.29 6.60695 118.998 16.8117C98.9501 27.4433 92.15 50.1489 71.1189 59.8481C61.4145 64.307 50.7462 66.2592 40.0917 65.5257C30.6801 64.9459 20.7953 61.4484 11.7966 65.8968C-9.94893 76.6257 2.79314 107.616 14.7977 120.803C33.491 141.343 51.2705 132.636 75.0987 130.08C101.84 127.228 126.642 134.649 153.328 126.917Z" fill="#1265E5"/>
<path opacity="0.9" d="M153.328 126.917C175.778 120.423 193.813 109.109 198.512 84.9983C202.64 63.828 198.535 37.4347 181.716 22.378C164.989 7.40014 138.29 6.60695 118.998 16.8117C98.9501 27.4433 92.15 50.1489 71.1189 59.8481C61.4145 64.307 50.7462 66.2592 40.0917 65.5257C30.6801 64.9459 20.7953 61.4484 11.7966 65.8968C-9.94893 76.6257 2.79314 107.616 14.7977 120.803C33.491 141.343 51.2705 132.636 75.0987 130.08C101.84 127.228 126.642 134.649 153.328 126.917Z" fill="white"/>
<path d="M77.2757 114.54H74.4527C73.9513 114.54 73.5449 114.956 73.5449 115.47V117.32C73.5449 117.834 73.9513 118.251 74.4527 118.251H77.2757C77.777 118.251 78.1835 117.834 78.1835 117.32V115.47C78.1835 114.956 77.777 114.54 77.2757 114.54Z" fill="#1265E5"/>
<path d="M109.851 156.839H25.4756C23.1853 156.839 21.3287 158.695 21.3287 160.985V176.038C21.3287 178.328 23.1853 180.184 25.4756 180.184H109.851C112.141 180.184 113.998 178.328 113.998 176.038V160.985C113.998 158.695 112.141 156.839 109.851 156.839Z" fill="#748494"/>
<path d="M110.829 157.817H26.4542C24.164 157.817 22.3074 159.674 22.3074 161.964V177.016C22.3074 179.307 24.164 181.163 26.4542 181.163H110.829C113.12 181.163 114.976 179.307 114.976 177.016V161.964C114.976 159.674 113.12 157.817 110.829 157.817Z" fill="#748494"/>
<path opacity="0.6" d="M110.829 157.817H26.4542C24.164 157.817 22.3074 159.674 22.3074 161.964V177.016C22.3074 179.307 24.164 181.163 26.4542 181.163H110.829C113.12 181.163 114.976 179.307 114.976 177.016V161.964C114.976 159.674 113.12 157.817 110.829 157.817Z" fill="#F1F3F5"/>
<path d="M111.808 158.796H27.433C25.1427 158.796 23.2861 160.653 23.2861 162.943V178C23.2861 180.29 25.1427 182.147 27.433 182.147H111.808C114.098 182.147 115.955 180.29 115.955 178V162.943C115.955 160.653 114.098 158.796 111.808 158.796Z" fill="#748494"/>
<path opacity="0.8" d="M111.808 158.796H27.433C25.1427 158.796 23.2861 160.653 23.2861 162.943V178C23.2861 180.29 25.1427 182.147 27.433 182.147H111.808C114.098 182.147 115.955 180.29 115.955 178V162.943C115.955 160.653 114.098 158.796 111.808 158.796Z" fill="#F1F3F5"/>
<path d="M89.9686 162.78H28.8257C28.1616 162.78 27.6232 163.197 27.6232 163.711V165.561C27.6232 166.075 28.1616 166.491 28.8257 166.491H89.9686C90.6328 166.491 91.1712 166.075 91.1712 165.561V163.711C91.1712 163.197 90.6328 162.78 89.9686 162.78Z" fill="#748494"/>
<path d="M56.1116 168.811H28.8214C28.1596 168.811 27.6232 169.175 27.6232 169.625V171.244C27.6232 171.693 28.1596 172.058 28.8214 172.058H56.1116C56.7734 172.058 57.3098 171.693 57.3098 171.244V169.625C57.3098 169.175 56.7734 168.811 56.1116 168.811Z" fill="#748494"/>
<path d="M82.5592 168.811H61.7475C61.09 168.811 60.557 169.175 60.557 169.625V171.244C60.557 171.693 61.09 172.058 61.7475 172.058H82.5592C83.2167 172.058 83.7497 171.693 83.7497 171.244V169.625C83.7497 169.175 83.2167 168.811 82.5592 168.811Z" fill="#748494"/>
<path d="M102.113 174.841H28.2773C27.916 174.841 27.6232 174.991 27.6232 175.177V175.432C27.6232 175.618 27.916 175.768 28.2773 175.768H102.113C102.475 175.768 102.768 175.618 102.768 175.432V175.177C102.768 174.991 102.475 174.841 102.113 174.841Z" fill="#748494"/>
<path opacity="0.5" d="M102.113 174.841H28.2773C27.916 174.841 27.6232 174.991 27.6232 175.177V175.432C27.6232 175.618 27.916 175.768 28.2773 175.768H102.113C102.475 175.768 102.768 175.618 102.768 175.432V175.177C102.768 174.991 102.475 174.841 102.113 174.841Z" fill="#F1F3F5"/>
<path d="M109.851 129.824H25.4756C23.1853 129.824 21.3287 131.68 21.3287 133.971V149.023C21.3287 151.313 23.1853 153.17 25.4756 153.17H109.851C112.141 153.17 113.998 151.313 113.998 149.023V133.971C113.998 131.68 112.141 129.824 109.851 129.824Z" fill="#748494"/>
<path d="M110.829 130.803H26.4542C24.164 130.803 22.3074 132.659 22.3074 134.949V150.006C22.3074 152.296 24.164 154.153 26.4542 154.153H110.829C113.12 154.153 114.976 152.296 114.976 150.006V134.949C114.976 132.659 113.12 130.803 110.829 130.803Z" fill="#748494"/>
<path opacity="0.6" d="M110.829 130.803H26.4542C24.164 130.803 22.3074 132.659 22.3074 134.949V150.006C22.3074 152.296 24.164 154.153 26.4542 154.153H110.829C113.12 154.153 114.976 152.296 114.976 150.006V134.949C114.976 132.659 113.12 130.803 110.829 130.803Z" fill="#F1F3F5"/>
<path d="M111.808 131.781H27.433C25.1427 131.781 23.2861 133.638 23.2861 135.928V150.98C23.2861 153.27 25.1427 155.127 27.433 155.127H111.808C114.098 155.127 115.955 153.27 115.955 150.98V135.928C115.955 133.638 114.098 131.781 111.808 131.781Z" fill="#748494"/>
<path opacity="0.8" d="M111.808 131.781H27.433C25.1427 131.781 23.2861 133.638 23.2861 135.928V150.98C23.2861 153.27 25.1427 155.127 27.433 155.127H111.808C114.098 155.127 115.955 153.27 115.955 150.98V135.928C115.955 133.638 114.098 131.781 111.808 131.781Z" fill="#F1F3F5"/>
<path d="M49.0269 135.877H28.9483C28.2165 135.877 27.6232 136.242 27.6232 136.691V138.31C27.6232 138.76 28.2165 139.124 28.9483 139.124H49.0269C49.7587 139.124 50.352 138.76 50.352 138.31V136.691C50.352 136.242 49.7587 135.877 49.0269 135.877Z" fill="#748494"/>
<path d="M64.779 135.877H54.4792C53.9931 135.877 53.599 136.242 53.599 136.691V138.31C53.599 138.76 53.9931 139.124 54.4792 139.124H64.779C65.2651 139.124 65.6592 138.76 65.6592 138.31V136.691C65.6592 136.242 65.2651 135.877 64.779 135.877Z" fill="#748494"/>
<path d="M99.5844 141.907H28.9509C28.2176 141.907 27.6232 142.271 27.6232 142.721V144.34C27.6232 144.79 28.2176 145.154 28.9509 145.154H99.5844C100.318 145.154 100.912 144.79 100.912 144.34V142.721C100.912 142.271 100.318 141.907 99.5844 141.907Z" fill="#748494"/>
<path d="M77.4623 147.473H28.3442C27.946 147.473 27.6232 147.699 27.6232 147.978V148.361C27.6232 148.639 27.946 148.865 28.3442 148.865H77.4623C77.8605 148.865 78.1833 148.639 78.1833 148.361V147.978C78.1833 147.699 77.8605 147.473 77.4623 147.473Z" fill="#748494"/>
<path opacity="0.5" d="M77.4623 147.473H28.3442C27.946 147.473 27.6232 147.699 27.6232 147.978V148.361C27.6232 148.639 27.946 148.865 28.3442 148.865H77.4623C77.8605 148.865 78.1833 148.639 78.1833 148.361V147.978C78.1833 147.699 77.8605 147.473 77.4623 147.473Z" fill="#F1F3F5"/>
<path d="M109.851 102.809H25.4756C23.1853 102.809 21.3287 104.666 21.3287 106.956V122.013C21.3287 124.303 23.1853 126.159 25.4756 126.159H109.851C112.141 126.159 113.998 124.303 113.998 122.013V106.956C113.998 104.666 112.141 102.809 109.851 102.809Z" fill="#748494"/>
<path d="M110.829 103.788H26.4542C24.164 103.788 22.3074 105.644 22.3074 107.934V122.987C22.3074 125.277 24.164 127.133 26.4542 127.133H110.829C113.12 127.133 114.976 125.277 114.976 122.987V107.934C114.976 105.644 113.12 103.788 110.829 103.788Z" fill="#748494"/>
<path opacity="0.6" d="M110.829 103.788H26.4542C24.164 103.788 22.3074 105.644 22.3074 107.934V122.987C22.3074 125.277 24.164 127.133 26.4542 127.133H110.829C113.12 127.133 114.976 125.277 114.976 122.987V107.934C114.976 105.644 113.12 103.788 110.829 103.788Z" fill="#F1F3F5"/>
<path d="M111.808 104.766H27.433C25.1427 104.766 23.2861 106.623 23.2861 108.913V123.97C23.2861 126.26 25.1427 128.117 27.433 128.117H111.808C114.098 128.117 115.955 126.26 115.955 123.97V108.913C115.955 106.623 114.098 104.766 111.808 104.766Z" fill="#748494"/>
<path opacity="0.8" d="M111.808 104.766H27.433C25.1427 104.766 23.2861 106.623 23.2861 108.913V123.97C23.2861 126.26 25.1427 128.117 27.433 128.117H111.808C114.098 128.117 115.955 126.26 115.955 123.97V108.913C115.955 106.623 114.098 104.766 111.808 104.766Z" fill="#F1F3F5"/>
<path d="M89.5049 108.51H28.8255C28.1615 108.51 27.6232 108.926 27.6232 109.44V111.29C27.6232 111.804 28.1615 112.221 28.8255 112.221H89.5049C90.169 112.221 90.7073 111.804 90.7073 111.29V109.44C90.7073 108.926 90.169 108.51 89.5049 108.51Z" fill="#748494"/>
<path d="M69.0949 114.54H28.8261C28.1617 114.54 27.6232 114.956 27.6232 115.47V117.32C27.6232 117.834 28.1617 118.251 28.8261 118.251H69.0949C69.7592 118.251 70.2978 117.834 70.2978 117.32V115.47C70.2978 114.956 69.7592 114.54 69.0949 114.54Z" fill="#748494"/>
<path d="M60.8281 120.57H28.2796C27.917 120.57 27.6232 120.796 27.6232 121.074V121.457C27.6232 121.736 27.917 121.961 28.2796 121.961H60.8281C61.1906 121.961 61.4845 121.736 61.4845 121.457V121.074C61.4845 120.796 61.1906 120.57 60.8281 120.57Z" fill="#748494"/>
<path opacity="0.5" d="M60.8281 120.57H28.2796C27.917 120.57 27.6232 120.796 27.6232 121.074V121.457C27.6232 121.736 27.917 121.961 28.2796 121.961H60.8281C61.1906 121.961 61.4845 121.736 61.4845 121.457V121.074C61.4845 120.796 61.1906 120.57 60.8281 120.57Z" fill="#F1F3F5"/>
<path d="M102.577 120.57H65.3857C65.0244 120.57 64.7316 120.796 64.7316 121.074V121.457C64.7316 121.736 65.0244 121.961 65.3857 121.961H102.577C102.939 121.961 103.231 121.736 103.231 121.457V121.074C103.231 120.796 102.939 120.57 102.577 120.57Z" fill="#748494"/>
<path opacity="0.5" d="M102.577 120.57H65.3857C65.0244 120.57 64.7316 120.796 64.7316 121.074V121.457C64.7316 121.736 65.0244 121.961 65.3857 121.961H102.577C102.939 121.961 103.231 121.736 103.231 121.457V121.074C103.231 120.796 102.939 120.57 102.577 120.57Z" fill="#F1F3F5"/>
<path d="M109.851 48.7791H25.4756C23.1853 48.7791 21.3287 50.6358 21.3287 52.926V67.9827C21.3287 70.273 23.1853 72.1296 25.4756 72.1296H109.851C112.141 72.1296 113.998 70.273 113.998 67.9827V52.926C113.998 50.6358 112.141 48.7791 109.851 48.7791Z" fill="#748494"/>
<path d="M110.829 49.7579H26.4542C24.164 49.7579 22.3074 51.6145 22.3074 53.9048V68.9615C22.3074 71.2517 24.164 73.1084 26.4542 73.1084H110.829C113.12 73.1084 114.976 71.2517 114.976 68.9615V53.9048C114.976 51.6145 113.12 49.7579 110.829 49.7579Z" fill="#748494"/>
<path opacity="0.6" d="M110.829 49.7579H26.4542C24.164 49.7579 22.3074 51.6145 22.3074 53.9048V68.9615C22.3074 71.2517 24.164 73.1084 26.4542 73.1084H110.829C113.12 73.1084 114.976 71.2517 114.976 68.9615V53.9048C114.976 51.6145 113.12 49.7579 110.829 49.7579Z" fill="#F1F3F5"/>
<path d="M111.808 50.7366H27.433C25.1427 50.7366 23.2861 52.5932 23.2861 54.8835V69.9402C23.2861 72.2304 25.1427 74.087 27.433 74.087H111.808C114.098 74.087 115.955 72.2304 115.955 69.9402V54.8835C115.955 52.5932 114.098 50.7366 111.808 50.7366Z" fill="#748494"/>
<path opacity="0.8" d="M111.808 50.7366H27.433C25.1427 50.7366 23.2861 52.5932 23.2861 54.8835V69.9402C23.2861 72.2304 25.1427 74.087 27.433 74.087H111.808C114.098 74.087 115.955 72.2304 115.955 69.9402V54.8835C115.955 52.5932 114.098 50.7366 111.808 50.7366Z" fill="#F1F3F5"/>
<path d="M89.4299 54.7027H30.2917C29.5863 54.7027 29.0145 55.1191 29.0145 55.6328V57.4833C29.0145 57.997 29.5863 58.4135 30.2917 58.4135H89.4299C90.1353 58.4135 90.7071 57.997 90.7071 57.4833V55.6328C90.7071 55.1191 90.1353 54.7027 89.4299 54.7027Z" fill="#748494"/>
<path d="M109.839 60.7328H30.2919C29.5864 60.7328 29.0145 61.0971 29.0145 61.5466V63.1659C29.0145 63.6154 29.5864 63.9797 30.2919 63.9797H109.839C110.545 63.9797 111.117 63.6154 111.117 63.1659V61.5466C111.117 61.0971 110.545 60.7328 109.839 60.7328Z" fill="#748494"/>
<path d="M51.4194 66.6051H29.7101C29.3259 66.6051 29.0145 66.8211 29.0145 67.0875V67.454C29.0145 67.7204 29.3259 67.9364 29.7101 67.9364H51.4194C51.8036 67.9364 52.115 67.7204 52.115 67.454V67.0875C52.115 66.8211 51.8036 66.6051 51.4194 66.6051Z" fill="#748494"/>
<path opacity="0.5" d="M51.4194 66.6051H29.7101C29.3259 66.6051 29.0145 66.8211 29.0145 67.0875V67.454C29.0145 67.7204 29.3259 67.9364 29.7101 67.9364H51.4194C51.8036 67.9364 52.115 67.7204 52.115 67.454V67.0875C52.115 66.8211 51.8036 66.6051 51.4194 66.6051Z" fill="#F1F3F5"/>
<path d="M169.159 111.344L166.116 112.926L169.526 115.574C169.526 115.574 171.817 113.654 170.917 112.327L169.159 111.344Z" fill="#FACEA6"/>
<path d="M164.377 116.149L167.285 118.172L169.526 115.574L166.116 112.926L164.377 116.149Z" fill="#FACEA6"/>
<path d="M170.338 85.0386C170.755 85.586 171.112 86.0777 171.474 86.6111C171.836 87.1445 172.179 87.6594 172.522 88.1882C173.2 89.2551 173.844 90.3498 174.438 91.4723C175.047 92.6064 175.598 93.7706 176.089 94.9605L176.456 95.8882L176.785 96.8159C176.901 97.122 176.989 97.4467 177.087 97.7668L177.23 98.2306L177.263 98.3513L177.319 98.5507C177.354 98.6945 177.382 98.84 177.402 98.9867C177.51 99.8657 177.447 100.757 177.216 101.612C177.045 102.297 176.827 102.97 176.562 103.625C176.072 104.826 175.502 105.993 174.855 107.118C173.617 109.295 172.207 111.371 170.639 113.324L168.505 111.933C169.53 109.795 170.532 107.591 171.409 105.439C171.838 104.388 172.212 103.315 172.527 102.224C172.672 101.735 172.782 101.236 172.856 100.731C172.917 100.403 172.917 100.066 172.856 99.7382C172.856 99.7382 172.856 99.766 172.856 99.7382L172.819 99.6454L172.666 99.2604C172.569 99.0053 172.476 98.7548 172.355 98.4997L172.021 97.739L171.655 96.9736C171.148 95.9624 170.603 94.9574 170.022 93.9586C169.433 92.9659 168.825 91.9733 168.167 90.9992C167.508 90.0251 166.854 89.0371 166.232 88.1418L170.338 85.0386Z" fill="#FACEA6"/>
<path d="M176.674 92.1588L169.034 97.5163C169.034 97.5163 168.57 96.5144 167.925 95.0532C167.401 93.889 166.747 92.4371 166.098 90.9713C165.833 90.3776 165.574 89.7839 165.318 89.204C163.551 85.1778 165.615 82.2787 169.243 82.8168C172.439 83.2945 176.674 92.1588 176.674 92.1588Z" fill="#405261"/>
<path d="M168.292 86.5833C168.44 88.0213 168.454 92.4696 167.925 95.0533C167.401 93.889 166.747 92.4372 166.098 90.9714L168.292 86.5833Z" fill="#1265E5"/>
<path opacity="0.8" d="M168.292 86.5833C168.44 88.0213 168.454 92.4696 167.925 95.0533C167.401 93.889 166.747 92.4372 166.098 90.9714L168.292 86.5833Z" fill="#1265E5"/>
<g opacity="0.8">
<path opacity="0.8" d="M168.292 86.5833C168.44 88.0213 168.454 92.4696 167.925 95.0533C167.401 93.889 166.747 92.4372 166.098 90.9714L168.292 86.5833Z" fill="#1D2B36"/>
<path opacity="0.8" d="M168.292 86.5833C168.44 88.0213 168.454 92.4696 167.925 95.0533C167.401 93.889 166.747 92.4372 166.098 90.9714L168.292 86.5833Z" fill="#1D2B36"/>
</g>
<path d="M179.721 123.061L98.1847 101.371C97.1258 101.082 96.2235 100.387 95.6731 99.4371C95.1227 98.4874 94.9685 97.359 95.2439 96.2964L99.1125 81.75C99.4047 80.6936 100.101 79.7946 101.05 79.247C102 78.6994 103.126 78.5471 104.187 78.823L185.723 100.508C186.783 100.797 187.686 101.493 188.237 102.444C188.787 103.395 188.941 104.524 188.664 105.587L184.796 120.106C184.509 121.168 183.816 122.073 182.866 122.626C181.916 123.18 180.786 123.336 179.721 123.061Z" fill="#1265E5"/>
<path opacity="0.8" d="M179.721 123.061L98.1847 101.371C97.1258 101.082 96.2235 100.387 95.6731 99.4371C95.1227 98.4874 94.9685 97.359 95.2439 96.2964L99.1125 81.75C99.4047 80.6936 100.101 79.7946 101.05 79.247C102 78.6994 103.126 78.5471 104.187 78.823L185.723 100.508C186.783 100.797 187.686 101.493 188.237 102.444C188.787 103.395 188.941 104.524 188.664 105.587L184.796 120.106C184.509 121.168 183.816 122.073 182.866 122.626C181.916 123.18 180.786 123.336 179.721 123.061Z" fill="#F1F3F5"/>
<path d="M180.413 124.281L98.8809 102.568C97.8211 102.279 96.9176 101.585 96.3663 100.635C95.8149 99.6853 95.6601 98.5564 95.9354 97.4932L99.8086 82.9513C100.097 81.8915 100.791 80.9881 101.741 80.4367C102.691 79.8854 103.82 79.7306 104.883 80.0058L186.415 101.696C187.475 101.984 188.378 102.678 188.929 103.628C189.481 104.578 189.636 105.707 189.36 106.77L185.492 121.317C185.207 122.381 184.514 123.29 183.563 123.845C182.611 124.4 181.479 124.557 180.413 124.281Z" fill="#1265E5"/>
<path opacity="0.4" d="M180.413 124.281L98.8809 102.568C97.8211 102.279 96.9176 101.585 96.3663 100.635C95.8149 99.6853 95.6601 98.5564 95.9354 97.4932L99.8086 82.9513C100.097 81.8915 100.791 80.9881 101.741 80.4367C102.691 79.8854 103.82 79.7306 104.883 80.0058L186.415 101.696C187.475 101.984 188.378 102.678 188.929 103.628C189.481 104.578 189.636 105.707 189.36 106.77L185.492 121.317C185.207 122.381 184.514 123.29 183.563 123.845C182.611 124.4 181.479 124.557 180.413 124.281Z" fill="#F1F3F5"/>
<path d="M181.108 125.459L99.5763 103.769C98.5165 103.481 97.6131 102.786 97.0617 101.837C96.5104 100.887 96.3555 99.7578 96.6308 98.6946L100.499 84.1481C100.789 83.0882 101.484 82.185 102.435 81.6345C103.386 81.0839 104.515 80.9304 105.579 81.2073L187.11 102.892C188.176 103.181 189.085 103.879 189.637 104.835C190.189 105.792 190.339 106.928 190.056 107.995L186.182 122.537C185.889 123.592 185.193 124.49 184.244 125.037C183.294 125.583 182.168 125.735 181.108 125.459Z" fill="#003D99"/>
<path opacity="0.2" d="M181.108 125.459L99.5763 103.769C98.5165 103.481 97.6131 102.786 97.0617 101.837C96.5104 100.887 96.3555 99.7578 96.6308 98.6946L100.499 84.1481C100.789 83.0882 101.484 82.185 102.435 81.6345C103.386 81.0839 104.515 80.9304 105.579 81.2073L187.11 102.892C188.176 103.181 189.085 103.879 189.637 104.835C190.189 105.792 190.339 106.928 190.056 107.995L186.182 122.537C185.889 123.592 185.193 124.49 184.244 125.037C183.294 125.583 182.168 125.735 181.108 125.459Z" fill="#1D2B36"/>
<path d="M158.87 100.266L107.029 86.4725C106.556 86.3467 106.07 86.628 105.945 87.1008L105.491 88.8042C105.366 89.2771 105.647 89.7624 106.12 89.8882L157.961 103.682C158.434 103.808 158.919 103.527 159.045 103.054L159.498 101.35C159.624 100.877 159.343 100.392 158.87 100.266Z" fill="#1265E5"/>
<path opacity="0.7" d="M158.87 100.266L107.029 86.4725C106.556 86.3467 106.07 86.628 105.945 87.1008L105.491 88.8042C105.366 89.2771 105.647 89.7624 106.12 89.8882L157.961 103.682C158.434 103.808 158.919 103.527 159.045 103.054L159.498 101.35C159.624 100.877 159.343 100.392 158.87 100.266Z" fill="#F1F3F5"/>
<path d="M138.244 100.942L105.499 92.2293C105.026 92.1035 104.541 92.3848 104.415 92.8576L103.962 94.561C103.836 95.0339 104.117 95.5192 104.59 95.645L137.335 104.358C137.808 104.484 138.294 104.202 138.419 103.729L138.873 102.026C138.998 101.553 138.717 101.068 138.244 100.942Z" fill="#1265E5"/>
<path opacity="0.7" d="M138.244 100.942L105.499 92.2293C105.026 92.1035 104.541 92.3848 104.415 92.8576L103.962 94.561C103.836 95.0339 104.117 95.5192 104.59 95.645L137.335 104.358C137.808 104.484 138.294 104.202 138.419 103.729L138.873 102.026C138.998 101.553 138.717 101.068 138.244 100.942Z" fill="#F1F3F5"/>
<path d="M151.356 110.596L103.576 97.8829C103.319 97.8144 103.055 97.9675 102.986 98.225L102.892 98.5791C102.823 98.8366 102.977 99.1009 103.234 99.1694L151.014 111.883C151.271 111.951 151.535 111.798 151.604 111.54L151.698 111.186C151.767 110.929 151.614 110.665 151.356 110.596Z" fill="#F1F3F5"/>
<path d="M164.433 72.8486C163.565 75.2142 162.368 79.6116 163.816 81.5134C163.816 81.5134 162.753 83.8837 158.217 83.1554C153.226 82.353 156.227 80.2981 156.227 80.2981C159.056 80.0847 159.307 78.053 159.14 76.077L164.433 72.8486Z" fill="#FACEA6"/>
<path d="M155.183 81.0866C155.438 80.6553 155.211 78.9715 155.211 78.9715C155.211 78.9715 162.429 78.438 164.952 79.5049C166.302 80.0754 164.952 82.4782 164.952 82.4782L155.183 81.0866Z" fill="#1265E5"/>
<path opacity="0.1" d="M155.183 81.0866C155.438 80.6553 155.211 78.9715 155.211 78.9715C155.211 78.9715 162.429 78.438 164.952 79.5049C166.302 80.0754 164.952 82.4782 164.952 82.4782L155.183 81.0866Z" fill="#1D2B36"/>
<path d="M156.111 68.6925C156.065 68.9615 155.888 69.1563 155.712 69.1285C155.536 69.1007 155.429 68.8595 155.471 68.5904C155.513 68.3214 155.694 68.1266 155.87 68.1544C156.046 68.1822 156.139 68.4234 156.111 68.6925Z" fill="#405261"/>
<path d="M156.078 68.8269C155.626 69.5977 155.069 70.3018 154.422 70.9189C154.583 71.083 154.779 71.2097 154.994 71.2898C155.21 71.37 155.441 71.4017 155.67 71.3828L156.078 68.8269Z" fill="#E5978F"/>
<path d="M157.196 67.8576C157.167 67.859 157.138 67.8518 157.112 67.837C157.087 67.8222 157.066 67.8004 157.052 67.7741C156.964 67.5934 156.833 67.4366 156.672 67.3164C156.511 67.1962 156.323 67.1161 156.125 67.0829C156.087 67.074 156.053 67.0516 156.031 67.02C156.008 66.9885 155.997 66.9497 156 66.9109C156.004 66.872 156.021 66.8357 156.049 66.8085C156.077 66.7814 156.114 66.7652 156.153 66.7629C156.404 66.8013 156.642 66.8993 156.848 67.0486C157.054 67.1978 157.221 67.3941 157.335 67.621C157.355 67.6586 157.36 67.7025 157.348 67.7433C157.335 67.784 157.308 67.8184 157.27 67.839C157.248 67.8516 157.222 67.858 157.196 67.8576Z" fill="#405261"/>
<path d="M135.047 175.411L131.698 174.961L131.856 167.085L135.205 167.535L135.047 175.411Z" fill="#FACEA6"/>
<path d="M160.049 179.113H156.667L154.037 171.283H157.414L160.049 179.113Z" fill="#FACEA6"/>
<path d="M156.218 178.719H160.341C160.408 178.72 160.473 178.743 160.525 178.785C160.577 178.827 160.613 178.886 160.629 178.951L161.297 181.956C161.312 182.03 161.311 182.105 161.293 182.178C161.275 182.25 161.241 182.318 161.193 182.375C161.145 182.433 161.085 182.479 161.017 182.51C160.949 182.541 160.875 182.556 160.801 182.555C159.474 182.532 158.509 182.457 156.839 182.457C155.809 182.457 153.694 182.564 152.275 182.564C150.855 182.564 150.67 181.172 151.25 181.033C153.857 180.463 154.835 179.679 155.67 178.927C155.821 178.793 156.016 178.719 156.218 178.719Z" fill="#405261"/>
<path d="M131.582 174.196L135.242 174.688C135.308 174.697 135.369 174.729 135.415 174.778C135.46 174.827 135.488 174.89 135.493 174.957L135.752 178.023C135.759 178.097 135.748 178.171 135.722 178.24C135.695 178.31 135.654 178.372 135.6 178.423C135.546 178.474 135.481 178.512 135.41 178.534C135.339 178.556 135.264 178.562 135.191 178.552C133.874 178.347 131.981 178.013 130.321 177.791C128.382 177.526 127.074 177.383 124.815 177.076C123.423 176.891 123.247 175.448 123.841 175.397C126.536 175.179 128.289 175.434 130.738 174.344C131 174.218 131.293 174.167 131.582 174.196Z" fill="#405261"/>
<path d="M131.856 167.085L131.773 171.149L135.126 171.598L135.205 167.54L131.856 167.085Z" fill="#FACEA6"/>
<path d="M157.419 171.288H154.037L155.396 175.323H158.778L157.419 171.288Z" fill="#FACEA6"/>
<path d="M151.009 80.6367C151.009 80.6367 145.688 90.2153 146.903 109.558L164.813 111.975C165.309 109.243 165.393 95.596 169.795 82.9977C167.866 82.3467 165.897 81.8229 163.899 81.4299C161.384 80.9385 158.842 80.5947 156.287 80.4001C154.524 80.341 152.759 80.4201 151.009 80.6367Z" fill="#405261"/>
<path d="M153.068 85.5165C152.326 86.8013 151.538 88.0445 150.749 89.3061L148.351 93.017C147.553 94.2601 146.718 95.4847 145.879 96.7278C145.461 97.3401 145.03 97.9477 144.598 98.5554L143.944 99.4831C143.703 99.8124 143.42 100.188 143.151 100.499C142.095 101.706 140.93 102.815 139.672 103.811C138.461 104.776 137.232 105.666 135.961 106.501C133.452 108.162 130.835 109.653 128.127 110.963L126.888 108.76C129.208 107.058 131.527 105.263 133.735 103.44C134.834 102.512 135.91 101.584 136.917 100.615C137.898 99.6991 138.801 98.703 139.616 97.637C139.811 97.3818 139.96 97.1731 140.136 96.8809L140.707 95.9532L141.843 94.0978L144.116 90.3545L146.389 86.5972C147.163 85.3541 147.919 84.0924 148.708 82.8632L153.068 85.5165Z" fill="#FACEA6"/>
<path d="M154.719 84.7511C154.288 87.9517 148.689 95.5682 148.689 95.5682L140.892 88.9861C140.892 88.9861 144.969 84.4264 148.314 81.8242C151.658 79.222 155.183 81.2351 154.719 84.7511Z" fill="#405261"/>
<path d="M128.567 107.795L125.65 108.788L128.572 111.836C128.572 111.836 130.353 111.622 130.191 109.164L128.567 107.795Z" fill="#FACEA6"/>
<path d="M123.715 111.107L127.05 112.745L128.572 111.836L125.65 108.788L123.715 111.107Z" fill="#FACEA6"/>
<path d="M165.314 69.2213C164.581 72.4961 164.316 74.449 162.377 75.8776C159.455 78.0253 155.619 75.8776 155.359 72.4312C155.123 69.3466 156.361 64.5132 159.812 63.7154C160.571 63.5361 161.364 63.554 162.114 63.7673C162.864 63.9806 163.547 64.3822 164.099 64.9339C164.65 65.4857 165.051 66.1692 165.264 66.9197C165.476 67.6701 165.494 68.4624 165.314 69.2213Z" fill="#FACEA6"/>
<path d="M169.846 69.1099C169.802 68.8579 169.706 68.618 169.563 68.4061C169.419 68.1941 169.233 68.0151 169.015 67.8807C170.602 67.1849 169.808 66.3778 168.454 65.1996C166.705 63.6365 165.977 60.473 166.056 59.7957C165.504 60.6353 165.652 61.8738 166.121 62.9871C165.537 62.3442 165.067 61.6071 164.729 60.807C163.375 57.4069 160.448 60.3802 157.623 60.4776C152.878 60.64 156.635 58.1583 160.119 58.2326C154.928 56.6415 149.751 58.6129 150.596 62.0825C151.44 65.5522 157.247 61.1548 157.215 64.3554C157.215 65.0048 157.925 65.6449 158.977 66.1505C157.516 69.1563 161.079 75.1957 163.152 75.3905C165.226 75.5853 168.858 71.9766 169.011 68.8502C169.303 68.883 169.586 68.9712 169.846 69.1099Z" fill="#1D2B36"/>
<path d="M160.601 69.968C160.394 70.7852 159.874 71.4883 159.154 71.9254C158.189 72.4913 157.424 71.7028 157.447 70.6406C157.47 69.6897 158.003 68.2424 159.084 68.1079C159.321 68.0828 159.561 68.1172 159.781 68.2079C160.001 68.2986 160.195 68.4428 160.346 68.6274C160.497 68.8121 160.599 69.0314 160.643 69.2654C160.688 69.4995 160.673 69.7409 160.601 69.968Z" fill="#FACEA6"/>
<path d="M159.998 174.539H153.792C153.792 174.539 145.619 153.698 144.751 142.886C144.566 140.567 144.937 137.51 145.623 134.221C146.792 128.599 148.87 122.258 150.54 117.522C152.038 113.348 153.24 110.402 153.24 110.402L164.804 111.965C163.667 120.356 154.492 133.702 154.385 145.177C154.297 155.762 159.998 174.539 159.998 174.539Z" fill="#1265E5"/>
<path opacity="0.1" d="M159.998 174.539H153.792C153.792 174.539 145.619 153.698 144.751 142.886C144.566 140.567 144.937 137.51 145.623 134.221C146.792 128.599 148.87 122.258 150.54 117.522C152.038 113.348 153.24 110.402 153.24 110.402L164.804 111.965C163.667 120.356 154.492 133.702 154.385 145.177C154.297 155.762 159.998 174.539 159.998 174.539Z" fill="#1D2B36"/>
<path d="M153.481 120.157C153.077 125.765 148.763 131.73 145.637 134.221C146.806 128.599 148.884 122.258 150.554 117.522C151.43 117.416 152.817 119.146 153.481 120.157Z" fill="#1265E5"/>
<path opacity="0.2" d="M153.481 120.157C153.077 125.765 148.763 131.73 145.637 134.221C146.806 128.599 148.884 122.258 150.554 117.522C151.43 117.416 152.817 119.146 153.481 120.157Z" fill="#1D2B36"/>
<path d="M146.903 109.558C146.903 109.558 131.002 130.733 129.987 140.979C128.929 151.648 130.622 170.202 130.622 170.202L136.295 170.968C136.295 170.968 138.007 153.545 139.672 143.136C141.481 131.8 158.69 120.078 159.891 111.302L146.903 109.558Z" fill="#1265E5"/>
<path opacity="0.1" d="M146.903 109.558C146.903 109.558 131.002 130.733 129.987 140.979C128.929 151.648 130.622 170.202 130.622 170.202L136.295 170.968C136.295 170.968 138.007 153.545 139.672 143.136C141.481 131.8 158.69 120.078 159.891 111.302L146.903 109.558Z" fill="#1D2B36"/>
<path d="M152.711 174.674H160.805V172.494L151.76 172.354L152.711 174.674Z" fill="#1265E5"/>
<path opacity="0.4" d="M152.711 174.674H160.805V172.494L151.76 172.354L152.711 174.674Z" fill="#F1F3F5"/>
<path d="M129.477 170.165L137.357 171.246L137.65 169.066L128.841 167.739L129.477 170.165Z" fill="#1265E5"/>
<path opacity="0.4" d="M129.477 170.165L137.357 171.246L137.65 169.066L128.841 167.739L129.477 170.165Z" fill="#F1F3F5"/>
<path d="M155.1 179.312C154.869 179.329 154.64 179.267 154.45 179.136C154.389 179.086 154.341 179.021 154.312 178.947C154.282 178.873 154.273 178.793 154.283 178.714C154.283 178.667 154.296 178.621 154.321 178.581C154.345 178.541 154.381 178.508 154.422 178.487C154.793 178.301 155.888 178.951 156.009 179.043C156.022 179.052 156.032 179.064 156.038 179.078C156.045 179.091 156.048 179.107 156.046 179.122C156.044 179.138 156.037 179.153 156.026 179.165C156.016 179.176 156.001 179.184 155.986 179.187C155.696 179.264 155.399 179.306 155.1 179.312ZM154.599 178.612C154.565 178.604 154.53 178.604 154.497 178.612C154.497 178.612 154.45 178.644 154.446 178.705C154.438 178.758 154.444 178.813 154.462 178.864C154.481 178.915 154.512 178.961 154.552 178.997C154.931 179.168 155.36 179.19 155.754 179.057C155.401 178.836 155.009 178.685 154.599 178.612Z" fill="#1265E5"/>
<path d="M155.967 179.192H155.93C155.578 179.002 154.905 178.264 154.975 177.884C154.987 177.825 155.018 177.772 155.065 177.734C155.111 177.696 155.17 177.675 155.23 177.675C155.29 177.666 155.352 177.671 155.41 177.688C155.469 177.706 155.523 177.736 155.568 177.777C155.963 178.097 156.032 179.071 156.032 179.113C156.035 179.128 156.033 179.143 156.026 179.156C156.019 179.17 156.009 179.18 155.995 179.187L155.967 179.192ZM155.286 177.8H155.248C155.146 177.8 155.137 177.86 155.132 177.879C155.091 178.102 155.522 178.663 155.87 178.927C155.844 178.543 155.706 178.175 155.471 177.87C155.417 177.831 155.351 177.813 155.286 177.819V177.8Z" fill="#1265E5"/>
<path d="M130.729 174.632C130.2 174.632 129.569 174.562 129.337 174.28C129.29 174.224 129.257 174.158 129.24 174.087C129.223 174.016 129.223 173.942 129.24 173.871C129.25 173.828 129.27 173.788 129.298 173.754C129.326 173.72 129.362 173.694 129.402 173.677C129.838 173.51 131.091 174.372 131.235 174.47C131.248 174.479 131.259 174.493 131.264 174.509C131.27 174.524 131.271 174.542 131.267 174.558C131.262 174.574 131.252 174.588 131.239 174.598C131.226 174.608 131.21 174.613 131.193 174.613C131.063 174.623 130.896 174.632 130.729 174.632ZM129.532 173.816C129.503 173.809 129.473 173.809 129.444 173.816C129.428 173.821 129.414 173.831 129.403 173.844C129.392 173.857 129.386 173.873 129.384 173.89C129.372 173.936 129.371 173.985 129.381 174.032C129.392 174.078 129.413 174.122 129.444 174.159C129.625 174.368 130.177 174.479 130.928 174.451C130.51 174.148 130.035 173.932 129.532 173.816Z" fill="#1265E5"/>
<path d="M131.174 174.618H131.132C130.752 174.382 130.052 173.551 130.163 173.18C130.186 173.097 130.26 172.995 130.464 172.995H130.488C130.568 172.998 130.646 173.018 130.719 173.052C130.791 173.087 130.856 173.135 130.91 173.194C131.164 173.6 131.285 174.075 131.253 174.553C131.253 174.568 131.25 174.582 131.242 174.594C131.235 174.607 131.224 174.617 131.211 174.623L131.174 174.618ZM130.464 173.143C130.334 173.143 130.321 173.194 130.316 173.213C130.246 173.435 130.715 174.076 131.095 174.382C131.108 173.994 131.001 173.612 130.789 173.287C130.751 173.243 130.704 173.207 130.651 173.183C130.598 173.158 130.541 173.144 130.483 173.143H130.464Z" fill="#1265E5"/>
</svg>
