<svg width="200" height="200" viewBox="0 0 200 200" fill="none" xmlns="http://www.w3.org/2000/svg">
<path d="M100.678 34.3584C80.5888 24.5833 64.6559 2.71116 38.9174 6.88744C19.611 10.0273 9.27696 27.5504 6.16254 46.6587C-2.02747 96.8249 60.1037 131.449 101.994 135.25C145.387 139.213 206.218 116.589 199.486 65.3656C196.712 44.2606 180.266 33.9723 158.414 31.6098C139.88 29.603 116.438 42.0302 100.678 34.3584Z" fill="#1265E5"/>
<path opacity="0.9" d="M100.678 34.3584C80.5888 24.5833 64.6559 2.71116 38.9174 6.88744C19.611 10.0273 9.27696 27.5504 6.16254 46.6587C-2.02747 96.8249 60.1037 131.449 101.994 135.25C145.387 139.213 206.218 116.589 199.486 65.3656C196.712 44.2606 180.266 33.9723 158.414 31.6098C139.88 29.603 116.438 42.0302 100.678 34.3584Z" fill="white"/>
<path d="M98.5086 187.631C44.1039 187.631 9.15527e-05 184.016 9.15527e-05 179.558C9.15527e-05 175.099 44.1039 171.484 98.5086 171.484C152.913 171.484 197.017 175.099 197.017 179.558C197.017 184.016 152.913 187.631 98.5086 187.631Z" fill="#F1F3F5"/>
<path d="M98.7631 158.883L101.284 164.678C101.76 165.774 102.545 166.706 103.543 167.361C104.542 168.016 105.71 168.365 106.904 168.365H117.458C118.858 168.364 120.2 167.807 121.19 166.818H140.901C141.662 166.818 142.412 166.637 143.09 166.29C143.768 165.943 144.353 165.44 144.798 164.823L147.402 161.214L98.7631 158.883Z" fill="#748494"/>
<path d="M114.823 135.909C114.823 138.688 125.897 158.424 127.006 159.208C128.114 159.992 142.571 159.115 142.571 159.115L141.493 163.209H101.794L85.2963 131.187L96.2057 115.447L116.081 115.998C116.081 115.998 114.823 133.136 114.823 135.909Z" fill="#003D99"/>
<path opacity="0.2" d="M114.823 135.909C114.823 138.688 125.897 158.424 127.006 159.208C128.114 159.992 142.571 159.115 142.571 159.115L141.493 163.209H101.794L85.2963 131.187L96.2057 115.447L116.081 115.998C116.081 115.998 114.823 133.136 114.823 135.909Z" fill="#1D2B36"/>
<path d="M82.5738 178.459C91.5175 178.459 98.7678 169.713 98.7678 158.924C98.7678 148.136 91.5175 139.39 82.5738 139.39C73.6301 139.39 66.3798 148.136 66.3798 158.924C66.3798 169.713 73.6301 178.459 82.5738 178.459Z" fill="#748494"/>
<path d="M79.8622 171.247C85.5029 171.247 90.0756 165.73 90.0756 158.925C90.0756 152.119 85.5029 146.602 79.8622 146.602C74.2215 146.602 69.6488 152.119 69.6488 158.925C69.6488 165.73 74.2215 171.247 79.8622 171.247Z" fill="white"/>
<path d="M77.5165 163.889C79.8656 163.889 81.77 161.593 81.77 158.76C81.77 155.926 79.8656 153.63 77.5165 153.63C75.1674 153.63 73.2631 155.926 73.2631 158.76C73.2631 161.593 75.1674 163.889 77.5165 163.889Z" fill="#003D99"/>
<path opacity="0.4" d="M77.5165 163.889C79.8656 163.889 81.77 161.593 81.77 158.76C81.77 155.926 79.8656 153.63 77.5165 153.63C75.1674 153.63 73.2631 155.926 73.2631 158.76C73.2631 161.593 75.1674 163.889 77.5165 163.889Z" fill="#1D2B36"/>
<path d="M172.783 129.413C172.783 129.413 158.167 140.622 152.594 163.724H129.187L151.356 127.635L163.049 122.773L172.783 129.413Z" fill="#003D99"/>
<path opacity="0.4" d="M174.294 128.274C174.294 128.274 160.626 138.724 154.099 158.388C153.595 159.934 152.617 161.281 151.304 162.239C149.991 163.197 148.409 163.717 146.783 163.724H129.187L151.356 127.635L163.049 122.773L174.294 128.274Z" fill="#1D2B36"/>
<path d="M172.886 129.181H163.859C162.145 129.16 160.465 129.652 159.033 130.594C153.676 134.162 140.988 144.112 139.668 159.878C139.586 160.919 139.117 161.891 138.353 162.603C137.59 163.315 136.587 163.715 135.544 163.724H96.3036C89.7098 163.725 83.2339 161.976 77.5369 158.656L66.3181 152.119C65.1095 151.413 64.1523 150.346 63.5808 149.068C63.0094 147.79 62.8524 146.365 63.1319 144.994C64.4672 138.554 68.2309 127.506 79.0011 123.185C79.1712 123.108 78.9135 123.041 79.429 122.979V116.292H107.558C107.558 116.292 101.918 129.743 101.918 135.291C101.918 140.524 107.466 160.631 114.642 162.693H124.438C125.74 162.662 127.011 162.288 128.122 161.609C129.234 160.93 130.147 159.97 130.769 158.827C135.544 150.304 146.149 128.207 142.844 107.321C142.457 104.883 144.334 102.372 146.809 102.372H159.44C159.44 102.372 170.783 115.529 174.464 126.65C174.84 127.733 174.031 129.181 172.886 129.181Z" fill="#003D99"/>
<path d="M152.64 98.1852H149.031C148.084 98.185 147.165 97.8612 146.427 97.2675L139.008 91.2611C138.717 91.0239 138.353 90.893 137.977 90.8899H123.717C123.443 90.8899 123.181 90.7813 122.987 90.5879C122.794 90.3945 122.685 90.1322 122.685 89.8588C122.685 89.5853 122.794 89.323 122.987 89.1296C123.181 88.9363 123.443 88.8276 123.717 88.8276H137.967C138.816 88.8281 139.639 89.1212 140.297 89.6577L147.721 95.6692C148.091 95.9677 148.551 96.1298 149.026 96.1281H152.635C153.135 96.1262 153.618 95.9453 153.996 95.618C154.375 95.2908 154.623 94.8389 154.697 94.3442L155.022 92.0242C155.152 91.1408 155.595 90.3334 156.269 89.748C156.943 89.1626 157.805 88.838 158.698 88.8328H161.405C161.678 88.8328 161.94 88.9414 162.134 89.1348C162.327 89.3282 162.436 89.5905 162.436 89.8639C162.436 90.1374 162.327 90.3997 162.134 90.5931C161.94 90.7864 161.678 90.8951 161.405 90.8951H158.688C158.291 90.898 157.908 91.0425 157.609 91.3024C157.309 91.5623 157.112 91.9206 157.053 92.3129L156.728 94.6329C156.583 95.6156 156.091 96.5139 155.341 97.1654C154.592 97.8169 153.633 98.1787 152.64 98.1852Z" fill="#748494"/>
<path d="M146.273 93.8133C146.273 93.8133 146.319 96.2468 144.035 96.0921L143.293 98.7318C143.187 99.1036 143.16 99.4935 143.214 99.8762C143.268 100.259 143.402 100.626 143.607 100.954L145.221 103.532H160.172L161.348 101.315C161.536 100.962 161.607 100.558 161.551 100.163C161.494 99.7668 161.313 99.3993 161.033 99.1133L156.579 94.5609C156.346 94.3209 156.067 94.1302 155.759 94.0001C155.45 93.8699 155.119 93.8029 154.785 93.803L146.273 93.8133Z" fill="#003D99"/>
<path opacity="0.4" d="M146.273 93.8133C146.273 93.8133 146.319 96.2468 144.035 96.0921L143.293 98.7318C143.187 99.1036 143.16 99.4935 143.214 99.8762C143.268 100.259 143.402 100.626 143.607 100.954L145.221 103.532H160.172L161.348 101.315C161.536 100.962 161.607 100.558 161.551 100.163C161.494 99.7668 161.313 99.3993 161.033 99.1133L156.579 94.5609C156.346 94.3209 156.067 94.1302 155.759 94.0001C155.45 93.8699 155.119 93.8029 154.785 93.803L146.273 93.8133Z" fill="#1D2B36"/>
<path d="M171.948 178.459C180.892 178.459 188.142 169.713 188.142 158.924C188.142 148.136 180.892 139.39 171.948 139.39C163.004 139.39 155.754 148.136 155.754 158.924C155.754 169.713 163.004 178.459 171.948 178.459Z" fill="#748494"/>
<path d="M169.242 171.247C174.882 171.247 179.455 165.73 179.455 158.925C179.455 152.119 174.882 146.602 169.242 146.602C163.601 146.602 159.028 152.119 159.028 158.925C159.028 165.73 163.601 171.247 169.242 171.247Z" fill="white"/>
<path d="M187.884 146.324C186.178 143.421 181.615 137.147 173.412 135.311C171.31 134.818 169.13 134.755 167.004 135.126L166.968 135.038L167.004 134.961H166.937L165.529 131.759H163.926C162.624 131.759 161.357 132.182 160.317 132.966L157.502 135.079L158.827 139.673C158.443 140.084 158.085 140.518 157.754 140.972C155.379 143.924 153.76 147.41 153.037 151.129C153.013 151.284 153.023 151.443 153.066 151.594C153.11 151.745 153.185 151.884 153.287 152.003C153.39 152.122 153.517 152.218 153.659 152.283C153.802 152.349 153.957 152.382 154.114 152.382H154.96C155.182 152.386 155.399 152.321 155.584 152.198C155.768 152.074 155.91 151.898 155.991 151.691C156.746 149.695 157.943 147.896 159.492 146.427L164.189 158.656L167.968 157.068L166.643 141.828C166.643 141.828 175.335 139.384 181.027 146.417C181.358 146.829 181.777 147.162 182.254 147.391C182.73 147.62 183.252 147.74 183.78 147.742H187.085C187.25 147.739 187.41 147.693 187.552 147.609C187.693 147.525 187.81 147.405 187.891 147.262C187.971 147.118 188.013 146.956 188.012 146.792C188.011 146.627 187.967 146.466 187.884 146.324Z" fill="#003D99"/>
<path opacity="0.2" d="M187.884 146.324C186.178 143.421 181.615 137.147 173.412 135.311C171.31 134.818 169.13 134.755 167.004 135.126L166.968 135.038L167.004 134.961H166.937L165.529 131.759H163.926C162.624 131.759 161.357 132.182 160.317 132.966L157.502 135.079L158.827 139.673C158.443 140.084 158.085 140.518 157.754 140.972C155.379 143.924 153.76 147.41 153.037 151.129C153.013 151.284 153.023 151.443 153.066 151.594C153.11 151.745 153.185 151.884 153.287 152.003C153.39 152.122 153.517 152.218 153.659 152.283C153.802 152.349 153.957 152.382 154.114 152.382H154.96C155.182 152.386 155.399 152.321 155.584 152.198C155.768 152.074 155.91 151.898 155.991 151.691C156.746 149.695 157.943 147.896 159.492 146.427L164.189 158.656L167.968 157.068L166.643 141.828C166.643 141.828 175.335 139.384 181.027 146.417C181.358 146.829 181.777 147.162 182.254 147.391C182.73 147.62 183.252 147.74 183.78 147.742H187.085C187.25 147.739 187.41 147.693 187.552 147.609C187.693 147.525 187.81 147.405 187.891 147.262C187.971 147.118 188.013 146.956 188.012 146.792C188.011 146.627 187.967 146.466 187.884 146.324Z" fill="#1D2B36"/>
<path d="M166.896 163.889C169.245 163.889 171.149 161.593 171.149 158.76C171.149 155.926 169.245 153.63 166.896 153.63C164.546 153.63 162.642 155.926 162.642 158.76C162.642 161.593 164.546 163.889 166.896 163.889Z" fill="#003D99"/>
<path opacity="0.4" d="M166.896 163.889C169.245 163.889 171.149 161.593 171.149 158.76C171.149 155.926 169.245 153.63 166.896 153.63C164.546 153.63 162.642 155.926 162.642 158.76C162.642 161.593 164.546 163.889 166.896 163.889Z" fill="#1D2B36"/>
<path d="M151.578 104.104C151.578 104.104 154.254 120.953 163.091 121.066C171.376 121.18 172.149 105.362 164.246 102.934C157.863 100.969 151.578 104.104 151.578 104.104Z" fill="#003D99"/>
<path opacity="0.2" d="M151.578 104.104C151.578 104.104 154.254 120.953 163.091 121.066C171.376 121.18 172.149 105.362 164.246 102.934C157.863 100.969 151.578 104.104 151.578 104.104Z" fill="#1D2B36"/>
<path d="M169.205 111.853C169.401 116.127 166.823 119.587 163.446 119.587C160.069 119.587 157.177 116.117 156.981 111.853C156.785 107.589 159.363 104.12 162.735 104.12C166.107 104.12 169.009 107.574 169.205 111.853Z" fill="white"/>
<path d="M160.797 100.804H153.125L153.733 99.8145H160.797V100.804Z" fill="#003D99"/>
<path d="M118.612 115.58V117.519C118.612 119.277 117.174 120.417 115.41 120.417H80.5476C78.7792 120.417 77.3666 119.277 77.3666 117.519V115.58C77.3666 113.822 78.7792 112.683 80.5476 112.683H115.41C117.174 112.683 118.612 113.822 118.612 115.58Z" fill="#748494"/>
<path opacity="0.2" d="M107.27 115.581V117.519C107.289 117.911 107.225 118.302 107.081 118.668C106.938 119.033 106.719 119.363 106.438 119.637C106.157 119.911 105.821 120.122 105.453 120.257C105.084 120.391 104.691 120.446 104.3 120.417H80.5476C78.7792 120.417 77.3666 119.277 77.3666 117.519V115.581C77.3666 113.822 78.7792 112.683 80.5476 112.683H104.3C104.691 112.654 105.084 112.709 105.453 112.843C105.821 112.977 106.157 113.189 106.438 113.463C106.719 113.736 106.938 114.067 107.081 114.432C107.225 114.797 107.289 115.189 107.27 115.581Z" fill="white"/>
<path opacity="0.2" d="M102.882 151.289V163.724H96.3036C89.7098 163.725 83.2339 161.976 77.5369 158.656L66.3181 152.119C65.1095 151.413 64.1523 150.346 63.5808 149.068C63.0094 147.79 62.8524 146.366 63.1319 144.994C64.4672 138.554 68.2876 127.506 79.0784 123.185L79.594 123.211H83.9506C86.4649 123.211 88.9272 123.927 91.0485 125.277C93.1699 126.627 94.8623 128.554 95.9272 130.831L100.567 140.782C102.098 144.073 102.888 147.659 102.882 151.289Z" fill="#1D2B36"/>
<path d="M131.997 81.8583L131.178 82.4847L136.763 89.7865L137.582 89.1601L131.997 81.8583Z" fill="#748494"/>
<path d="M128.64 80.9756H131.269C131.543 80.9756 131.81 81.0557 132.038 81.2059C132.266 81.3562 132.445 81.5701 132.553 81.8211L132.904 82.6409C132.994 82.8532 133.03 83.0845 133.009 83.3142C132.988 83.544 132.911 83.7649 132.784 83.9574C132.657 84.1499 132.484 84.3079 132.281 84.4173C132.078 84.5268 131.851 84.5842 131.62 84.5846H128.759C128.423 84.5854 128.098 84.4648 127.844 84.245C127.59 84.0252 127.424 83.721 127.377 83.3884L127.258 82.5687C127.23 82.3708 127.245 82.1691 127.302 81.9774C127.358 81.7857 127.455 81.6083 127.586 81.4573C127.717 81.3063 127.879 81.1852 128.061 81.1021C128.243 81.0189 128.44 80.9758 128.64 80.9756Z" fill="#003D99"/>
<path d="M158.232 83.0145L156.857 89.5428L157.866 89.7553L159.241 83.227L158.232 83.0145Z" fill="#748494"/>
<path d="M161.827 80.9756H158.997C158.72 80.9754 158.451 81.0755 158.242 81.2574C158.033 81.4394 157.896 81.6908 157.858 81.9655L157.667 83.2699C157.644 83.4349 157.657 83.6028 157.705 83.7623C157.752 83.9218 157.834 84.0691 157.945 84.194C158.055 84.3188 158.191 84.4184 158.343 84.4858C158.495 84.5533 158.66 84.587 158.827 84.5846H161.652C161.929 84.5848 162.198 84.4847 162.407 84.3028C162.616 84.1209 162.753 83.8694 162.792 83.5947L162.982 82.2903C163.005 82.1258 162.993 81.9583 162.945 81.7992C162.897 81.6401 162.816 81.4931 162.706 81.3683C162.597 81.2435 162.461 81.1438 162.31 81.0761C162.158 81.0083 161.994 80.974 161.827 80.9756Z" fill="#003D99"/>
<path d="M64.252 81.7083L107.844 82.4312L107.323 113.902L63.7302 113.179L64.252 81.7083Z" fill="#003D99"/>
<path opacity="0.3" d="M81.5317 81.9911L107.887 82.4281L107.315 113.939L81.0099 113.461L81.5317 81.9911Z" fill="white"/>
<path opacity="0.3" d="M77.56 84.1115L85.15 84.2633L85.1077 86.379L77.5177 86.2272L77.56 84.1115Z" fill="white"/>
<path opacity="0.3" d="M77.3345 108.583L84.9235 108.709L84.8884 110.825L77.2994 110.699L77.3345 108.583Z" fill="white"/>
<path d="M118.893 115.379V117.318C118.893 119.076 117.455 120.215 115.691 120.215H80.8285C79.0601 120.215 77.6475 119.076 77.6475 117.318V115.379C77.6475 113.621 79.0601 112.482 80.8285 112.482H115.691C117.455 112.482 118.893 113.621 118.893 115.379Z" fill="#405261"/>
<path opacity="0.2" d="M107.55 115.379V117.318C107.57 117.709 107.506 118.101 107.362 118.466C107.219 118.831 106.999 119.162 106.719 119.436C106.438 119.71 106.102 119.921 105.734 120.055C105.365 120.19 104.972 120.244 104.581 120.215H80.8285C79.0601 120.215 77.6475 119.076 77.6475 117.318V115.379C77.6475 113.621 79.0601 112.482 80.8285 112.482H104.581C104.972 112.453 105.365 112.507 105.734 112.642C106.102 112.776 106.438 112.987 106.719 113.261C106.999 113.535 107.219 113.866 107.362 114.231C107.506 114.596 107.57 114.987 107.55 115.379Z" fill="white"/>
<path d="M77.6233 73.8429C77.7428 76.1427 77.9518 78.3648 78.2923 80.6288C78.5866 82.9672 79.0985 85.2731 79.8216 87.5163C80.0497 88.1697 80.3355 88.8014 80.6758 89.4039C80.9127 89.8103 81.2019 90.1839 81.536 90.515L81.7032 90.6704L81.7988 90.742L81.8466 90.7838L82.0497 90.9212L82.4499 91.202C83.4645 91.853 84.5314 92.4185 85.6398 92.8925C87.7433 93.817 89.9293 94.541 92.1689 95.0549L92.9454 92.9284C91.0458 91.877 89.0985 90.8018 87.3243 89.6847C86.4571 89.1527 85.6233 88.5682 84.8274 87.9345L84.5646 87.7134L84.4331 87.5999C84.4331 87.5999 84.3794 87.5103 84.3137 87.367C84.1392 86.9807 83.9953 86.5812 83.8836 86.1723C83.6135 85.1897 83.4001 84.1925 83.2444 83.1855C83.0592 82.1461 82.9099 81.0888 82.7844 80.0135C82.5395 77.881 82.3304 75.6947 82.1871 73.5681L77.6233 73.8429Z" fill="#B97964"/>
<path d="M91.5296 92.9582L95.1974 91.8232L94.5104 96.2616C94.5104 96.2616 92.121 95.9629 90.9263 94.6248L91.5296 92.9582Z" fill="#B97964"/>
<path d="M99.6419 94.6786L99.4388 95.2759C99.3241 95.6058 99.1055 95.8896 98.8157 96.0846C98.5259 96.2795 98.1807 96.3752 97.8319 96.3571L95.9622 96.2735L96.6551 91.8232L98.71 92.6296C99.0998 92.7848 99.4145 93.0847 99.5882 93.4666C99.7619 93.8485 99.7811 94.2828 99.6419 94.6786Z" fill="#B97964"/>
<path d="M73.2862 69.5359C73.2862 70.9218 73.9552 73.6577 74.5287 75.7126C74.9528 77.1881 75.3053 78.3111 75.3053 78.3111L76.1475 78.102L83.0888 76.3458C83.1963 72.7617 83.0589 68.8609 79.5047 66.5193C77.2825 65.0498 73.3041 67.0689 73.2862 69.5359Z" fill="#1D2B36"/>
<path opacity="0.3" d="M73.2926 69.775C73.7466 69.2971 74.7741 69.2135 77.0141 69.9243C80.2219 70.9398 81.118 74.4523 81.1598 76.8357L76.148 78.1021L75.7179 78.2156L75.3057 78.3112C75.3057 78.3112 75.1325 77.7497 74.8816 76.8954C74.78 76.549 74.6546 76.1428 74.5351 75.7007C73.9373 73.7685 73.5213 71.7846 73.2926 69.775Z" fill="#405261"/>
<path d="M87.5334 181.05L91.7687 179.569L89.1045 170.393L84.8752 171.881L87.5334 181.05Z" fill="#B97964"/>
<path d="M30.9459 170.178L34.3926 172.747L41.4474 165.596L38.0007 163.028L30.9459 170.178Z" fill="#B97964"/>
<path d="M35.8029 171.701L32.0813 168.625C32.0183 168.57 31.9377 168.54 31.8543 168.54C31.7709 168.54 31.6904 168.57 31.6274 168.625L28.772 171.218C28.7079 171.281 28.657 171.357 28.6223 171.441C28.5876 171.524 28.5697 171.614 28.5697 171.704C28.5697 171.795 28.5876 171.885 28.6223 171.968C28.657 172.052 28.7079 172.127 28.772 172.191L28.8317 172.245C30.1459 173.296 30.8388 173.738 32.4756 175.088C33.4791 175.919 35.5878 177.908 36.9796 179.055C38.3715 180.202 39.5781 178.894 39.1002 178.29C36.9677 175.59 36.4719 173.81 36.221 172.353C36.1608 172.094 36.0131 171.864 35.8029 171.701Z" fill="#1D2B36"/>
<path d="M92.0551 178.243L87.3479 180.208C87.264 180.245 87.1942 180.307 87.1489 180.387C87.1037 180.467 87.0855 180.559 87.097 180.65L87.6287 184.802C87.6496 184.968 87.7355 185.119 87.8676 185.222C87.9997 185.325 88.1673 185.371 88.3336 185.351C88.3954 185.345 88.4559 185.328 88.5128 185.303C90.1794 184.628 90.9619 184.294 93.0288 183.428L99.3727 180.769C101.093 180.047 100.723 178.159 99.97 178.296C96.4874 178.93 94.2414 178.72 92.8675 178.201C92.736 178.154 92.5965 178.133 92.4571 178.14C92.3177 178.148 92.181 178.182 92.0551 178.243Z" fill="#1D2B36"/>
<path opacity="0.2" d="M89.1043 170.399L90.4723 175.124L86.3505 176.988L84.8691 171.881L89.1043 170.399Z" fill="#405261"/>
<path opacity="0.2" d="M37.9947 163.028L41.4474 165.596L37.8095 169.282L34.3628 166.714L37.9947 163.028Z" fill="#405261"/>
<path d="M60.2639 91.9606L77.7067 92.2115C80.0961 78.7053 80.6935 72.2599 80.6935 69.1596C80.6965 68.3864 80.4297 67.6363 79.939 67.0387C79.4482 66.4411 78.7644 66.0335 78.0054 65.8861C76.9421 65.677 75.6159 65.4381 74.2838 65.2529C73.8298 65.1932 73.3699 65.1334 72.9159 65.0856C70.2816 64.8597 67.6346 64.8218 64.995 64.9721C64.6007 64.9721 64.2124 65.008 63.8003 65.0319C62.0082 65.1454 60.3715 65.3724 59.2066 65.5516C58.7877 65.6191 58.4126 65.8501 58.164 66.194C57.9153 66.5379 57.8133 66.9664 57.8805 67.3855C57.8776 67.4152 57.8776 67.4453 57.8805 67.4751C58.3942 69.8645 58.8124 71.9851 59.1469 73.8727C59.6785 76.8595 60.013 79.2967 60.2102 81.4233C60.5088 84.9287 60.5268 88.4523 60.2639 91.9606Z" fill="#1D2B36"/>
<path opacity="0.1" d="M60.2161 81.4413C61.0942 78.8069 61.0464 73.3411 60.1026 71.573L59.1408 73.8847C59.6844 76.8894 60.0189 79.3147 60.2161 81.4413Z" fill="#405261"/>
<path d="M77.7068 92.2115C77.7068 92.2115 80.6936 117.605 83.3876 133.429C85.5202 145.818 90.9083 171.606 90.9083 171.606L83.9133 174.085C83.9133 174.085 75.9028 147.204 74.499 135.723C68.854 119.17 64.792 92.086 64.792 92.086L77.7068 92.2115Z" fill="#1265E5"/>
<path d="M92.0431 173.338L83.949 176.188L82.8677 173.589L91.6488 170.232L92.0431 173.338Z" fill="#1D2B36"/>
<path opacity="0.1" d="M68.866 99.7562L71.4824 104.768C72.4381 108.543 72.2111 117.731 70.9985 123.537C68.8241 114.786 67.0858 105.574 66.0046 99.3918L68.866 99.7562Z" fill="#405261"/>
<path d="M73.9196 92.2116C73.9196 92.2116 70.7954 120.634 64.9592 136.416C62.0322 144.331 40.3184 167.795 40.3184 167.795L35.4201 163.876C35.4201 163.876 49.1891 140.203 55.2104 134.008C57.6655 120.269 54.5772 99.6725 60.2819 91.9666L73.9196 92.2116Z" fill="#1265E5"/>
<path d="M39.9058 169.473L34.1593 164.766L35.7124 162.216L42.0026 167.693L39.9058 169.473Z" fill="#1D2B36"/>
<path d="M59.9886 90.9391L59.1822 92.4863C59.1225 92.6057 59.2598 92.7372 59.4629 92.7372L77.7659 93C77.9272 93 78.0526 92.9223 78.0706 92.8268L78.2438 91.2677C78.2438 91.1602 78.1183 91.0646 77.9511 91.0646L60.2813 90.8077C60.2256 90.8044 60.1698 90.8146 60.1189 90.8375C60.0679 90.8604 60.0232 90.8952 59.9886 90.9391Z" fill="#1D2B36"/>
<path d="M62.3608 92.9582H61.8769C61.7873 92.9582 61.7156 92.9044 61.7216 92.8507L61.9785 90.8197C61.9785 90.7599 62.0621 90.7181 62.1577 90.7181H62.6057C62.7013 90.7181 62.773 90.7719 62.761 90.8256L62.5101 92.8507C62.54 92.8985 62.4504 92.9582 62.3608 92.9582Z" fill="#1265E5"/>
<path d="M76.4523 93.1493H75.9744C75.8788 93.1493 75.8131 93.0956 75.8191 93.0358L76.064 91.0108C76.064 90.9511 76.1596 90.9033 76.2551 90.9033H76.733C76.8286 90.9033 76.9003 90.9571 76.8943 91.0168L76.6434 93.0418C76.6315 93.1016 76.5478 93.1493 76.4523 93.1493Z" fill="#1265E5"/>
<path d="M69.4034 93.0358H68.9255C68.8299 93.0358 68.7583 92.9821 68.7642 92.9223L69.0151 90.8973C69.0151 90.8316 69.1047 90.7838 69.2003 90.7898H69.6782C69.7738 90.7898 69.8395 90.8435 69.8395 90.9033L69.5886 92.9283C69.5946 93 69.499 93.0358 69.4034 93.0358Z" fill="#1265E5"/>
<path d="M101.051 74.3327L75.1621 70.7784L71.5779 96.1958L97.0013 99.6844L101.051 74.3327Z" fill="#1265E5"/>
<path opacity="0.8" d="M101.051 74.3327L75.1621 70.7784L71.5779 96.1958L97.0013 99.6844L101.051 74.3327Z" fill="white"/>
<path opacity="0.2" d="M74.6323 70.7859L81.5455 71.7635L77.9508 97.1835L71.0375 96.2059L74.6323 70.7859Z" fill="#1265E5"/>
<path d="M67.8203 92.9941L71.4044 91.5903L71.052 96.0705C71.052 96.0705 68.6626 95.951 67.3783 94.7025L67.8203 92.9941Z" fill="#B97964"/>
<path d="M56.5485 70.6888C55.5867 73.3769 54.7564 76.065 54.0516 78.8128C53.6931 80.1927 53.3586 81.5786 53.0898 82.9943C52.9584 83.7111 52.8449 84.4399 52.7613 85.1985C52.6652 85.9912 52.6313 86.7901 52.6597 87.588C52.6765 88.1075 52.7567 88.6231 52.8987 89.1232C53.0949 89.7382 53.4231 90.3029 53.8604 90.7778C54.4992 91.4622 55.2586 92.0231 56.1005 92.4325C57.479 93.1013 58.9303 93.6084 60.4253 93.9438C63.2204 94.5921 66.0705 94.9741 68.9376 95.0848L69.2184 92.8327C67.9102 92.5221 66.5721 92.1756 65.2699 91.8113C63.9676 91.4469 62.6714 91.0407 61.4289 90.5867C60.2421 90.1788 59.0978 89.6567 58.012 89.0276C57.6176 88.7969 57.2659 88.4999 56.9726 88.1495C56.895 88.03 56.895 88.0001 56.9069 88.0001C56.895 87.8231 56.895 87.6455 56.9069 87.4685C56.9295 86.8895 56.9914 86.3127 57.0921 85.7421C57.1877 85.1448 57.3191 84.4757 57.4625 83.8187C57.7611 82.5403 58.0956 81.2321 58.472 79.9239C59.2187 77.3314 60.0609 74.6971 60.9032 72.1583L56.5485 70.6888Z" fill="#B97964"/>
<path d="M74.7082 93.8005L74.4275 94.8399C74.3432 95.1737 74.1523 95.471 73.8839 95.6866C73.6155 95.9021 73.2841 96.0243 72.94 96.0346L71.0165 96.0884L71.369 91.6142L73.3283 91.8352C73.5363 91.8561 73.7381 91.9179 73.9222 92.0169C74.1063 92.1159 74.2691 92.2503 74.4011 92.4124C74.5332 92.5744 74.632 92.7609 74.6919 92.9612C74.7517 93.1615 74.7715 93.3716 74.75 93.5795C74.7412 93.6541 74.7273 93.7279 74.7082 93.8005Z" fill="#B97964"/>
<path d="M58.5856 65.683C56.5785 66.5013 54.9358 73.0961 54.9358 73.0961L60.4792 77.427C60.4792 77.427 64.4098 71.2742 63.6094 68.604C62.9284 66.346 61.1423 64.6495 58.5856 65.683Z" fill="#1D2B36"/>
<path d="M37.1583 173.565H37.23C37.3303 173.558 37.4272 173.526 37.5117 173.472C37.5963 173.418 37.6658 173.343 37.7138 173.255C37.7494 173.204 37.771 173.144 37.7762 173.082C37.7815 173.02 37.7702 172.958 37.7437 172.902C37.4988 172.424 35.9517 172.233 35.7844 172.215C35.7646 172.211 35.7441 172.214 35.7259 172.223C35.7076 172.231 35.6926 172.245 35.6828 172.263C35.6715 172.28 35.6655 172.299 35.6655 172.32C35.6655 172.34 35.6715 172.36 35.6828 172.376C36.0054 172.813 36.6326 173.529 37.1583 173.565ZM35.9935 172.448C36.5908 172.538 37.4331 172.735 37.5526 172.998C37.567 173.02 37.5746 173.046 37.5746 173.072C37.5746 173.099 37.567 173.125 37.5526 173.147C37.5244 173.208 37.48 173.261 37.4242 173.299C37.3684 173.337 37.3033 173.358 37.236 173.362C36.9373 173.362 36.4594 173.04 35.9815 172.448H35.9935Z" fill="#1D2B36"/>
<path d="M35.8563 172.406C36.376 172.406 37.4154 172.221 37.6483 171.809C37.6854 171.738 37.6974 171.656 37.6822 171.577C37.667 171.497 37.6256 171.426 37.5647 171.373C37.5121 171.315 37.4473 171.27 37.375 171.24C37.3027 171.21 37.2247 171.196 37.1466 171.2C36.5194 171.2 35.7249 172.162 35.701 172.215C35.6919 172.23 35.6872 172.246 35.6872 172.263C35.6872 172.28 35.6919 172.297 35.701 172.311C35.7057 172.328 35.7157 172.344 35.7296 172.356C35.7434 172.368 35.7605 172.375 35.7786 172.377L35.8563 172.406ZM37.1824 171.415C37.2666 171.423 37.345 171.461 37.4034 171.522C37.493 171.618 37.4751 171.678 37.4512 171.725C37.3138 171.988 36.4955 172.203 35.9698 172.203C36.2693 171.827 36.6753 171.55 37.1346 171.409L37.1824 171.415Z" fill="#1D2B36"/>
<path d="M94.4629 178.147C94.7949 178.039 95.085 177.83 95.2932 177.55C95.3405 177.467 95.3693 177.375 95.3775 177.28C95.3858 177.185 95.3733 177.09 95.341 177C95.3246 176.948 95.2951 176.902 95.2553 176.865C95.2155 176.829 95.1668 176.803 95.114 176.791C94.5644 176.689 93.2682 178.081 93.0173 178.362C93.0055 178.38 92.9992 178.4 92.9992 178.422C92.9992 178.443 93.0055 178.464 93.0173 178.481C93.0273 178.5 93.0433 178.515 93.0628 178.524C93.0823 178.533 93.1041 178.534 93.1248 178.529C93.5826 178.447 94.0309 178.319 94.4629 178.147ZM94.875 177.024C94.9363 176.994 95.0044 176.982 95.0722 176.988C95.0722 176.988 95.1259 176.988 95.1498 177.06C95.1739 177.122 95.1832 177.189 95.1769 177.255C95.1707 177.321 95.1492 177.385 95.114 177.442C94.9288 177.765 94.2896 178.069 93.3816 178.266C93.8077 177.778 94.3076 177.358 94.8631 177.024H94.875Z" fill="#1D2B36"/>
<path d="M93.1304 178.517H93.1662C93.6023 178.081 94.3132 176.773 94.0682 176.355C94.0145 176.265 93.901 176.17 93.6441 176.241C92.6824 176.522 92.9751 178.386 92.993 178.464C92.9929 178.483 93.0003 178.502 93.0136 178.516C93.0269 178.531 93.0451 178.54 93.0647 178.541C93.0768 178.544 93.0894 178.543 93.101 178.539C93.1126 178.534 93.1228 178.527 93.1304 178.517ZM93.6083 176.433H93.668C93.7636 176.403 93.8353 176.433 93.8592 176.433C94.0025 176.677 93.5426 177.663 93.1244 178.189C93.1304 177.729 93.0707 176.671 93.6083 176.433Z" fill="#1D2B36"/>
<path d="M75.102 47.0993C75.102 47.0993 77.4914 51.0956 75.6994 52.8459C73.9073 54.5961 73.3816 48.3896 73.3816 48.3896L75.102 47.0993Z" fill="#1D2B36"/>
<path d="M64.0035 56.4778C64.0035 56.4778 61.0167 51.8065 62.2592 47.165C63.5017 42.5236 69.308 45.5223 71.7571 44.25C72.6545 43.7045 73.6103 43.2617 74.6065 42.9298C74.7666 42.8823 74.9355 42.8722 75.1001 42.9002C75.2648 42.9281 75.4208 42.9934 75.5563 43.0911C76.1537 43.6168 75.1143 44.6024 74.7917 44.9727C74.9901 44.7432 75.2193 44.5422 75.4727 44.3754C75.7893 44.1663 76.2134 44.1484 76.07 44.68C75.8244 45.2513 75.3841 45.7169 74.8275 45.9942C75.0605 45.8628 76.4404 45.1639 76.536 45.6C76.5479 45.7057 76.5203 45.8121 76.4583 45.8986C75.5623 47.5712 73.7583 49.6739 71.6795 49.7157C69.1766 49.7516 66.7871 56.7944 64.0035 56.4778Z" fill="#1D2B36"/>
<path d="M62.9463 56.6869C63.1016 58.2639 65.4432 58.2818 65.4432 58.2818C65.8265 59.1844 66.4636 59.9564 67.2771 60.504C67.3491 61.4564 67.317 62.4138 67.1815 63.3593C66.7873 64.8467 66.2855 65.3604 65.6583 65.695L66.16 66.1908C67.1205 66.7449 68.2055 67.047 69.3141 67.0689L69.9712 66.6866L70.8313 66.824C73.2208 66.0414 72.6234 64.4345 72.6234 64.4345C72.1876 63.3434 72.1642 62.1308 72.5577 61.0236C74.8516 60.3068 75.7894 58.3117 76.112 54.9545C76.4345 51.5974 74.5469 48.3836 74.5469 48.3836C71.9544 50.8866 66.8171 49.2797 66.8171 49.2797C67.0381 53.9868 64.8399 55.7251 64.8399 55.7251C64.1171 55.08 62.7969 55.1158 62.9463 56.6869Z" fill="#B97964"/>
<path d="M71.2852 57.117C70.6687 56.9445 70.1359 56.5539 69.7859 56.0179C69.7576 55.9756 69.7468 55.924 69.7557 55.8738C69.7646 55.8237 69.7926 55.779 69.8337 55.7491C69.854 55.734 69.8771 55.7231 69.9017 55.7171C69.9263 55.711 69.9518 55.7099 69.9768 55.7138C70.0018 55.7177 70.0258 55.7265 70.0474 55.7397C70.069 55.753 70.0877 55.7703 70.1025 55.7909C70.3041 56.1532 70.6164 56.4415 70.9937 56.6135C71.371 56.7855 71.7935 56.8321 72.1992 56.7466C72.2475 56.7317 72.2998 56.7365 72.3446 56.76C72.3894 56.7835 72.423 56.8238 72.4381 56.8721C72.4533 56.9212 72.4487 56.9743 72.4252 57.0201C72.4018 57.0658 72.3614 57.1006 72.3127 57.117C71.9759 57.2051 71.6221 57.2051 71.2852 57.117Z" fill="#1D2B36"/>
<path d="M70.6042 53.0072C70.6042 53.3119 70.7236 53.5747 70.9267 53.6046C71.1298 53.6344 71.315 53.3835 71.3389 53.0789C71.3628 52.7742 71.2135 52.4815 71.0104 52.4815C70.8073 52.4815 70.6281 52.6966 70.6042 53.0072Z" fill="#1D2B36"/>
<path d="M74.2604 52.8518C74.2604 53.1565 74.3799 53.4193 74.583 53.4492C74.7861 53.4791 74.9653 53.2282 74.9892 52.9235C75.0131 52.6189 74.8697 52.356 74.6666 52.3262C74.4635 52.2963 74.2784 52.5412 74.2604 52.8518Z" fill="#1D2B36"/>
<path d="M73.2923 55.8087L73.3341 53.5985L74.4332 55.4622C74.2813 55.602 74.0998 55.7057 73.9023 55.7657C73.7048 55.8257 73.4963 55.8404 73.2923 55.8087Z" fill="#A24E3F"/>
<path d="M68.9373 51.1434C68.9112 51.1364 68.8869 51.1242 68.8656 51.1076C68.8364 51.0905 68.811 51.0676 68.7909 51.0404C68.7708 51.0132 68.7564 50.9821 68.7486 50.9492C68.7408 50.9163 68.7397 50.8821 68.7454 50.8488C68.7512 50.8154 68.7636 50.7836 68.7819 50.7552C68.9809 50.4217 69.2694 50.1509 69.6148 49.9734C69.9601 49.796 70.3484 49.7192 70.7353 49.7516C70.7689 49.7553 70.8014 49.7657 70.8309 49.7822C70.8604 49.7987 70.8863 49.8211 70.9069 49.8479C70.9276 49.8746 70.9426 49.9053 70.9511 49.9381C70.9596 49.9708 70.9613 50.0049 70.9563 50.0383C70.9474 50.1056 70.9122 50.1665 70.8585 50.2079C70.8048 50.2494 70.7369 50.2678 70.6696 50.2594C70.3808 50.2414 70.0926 50.3032 69.8365 50.438C69.5805 50.5729 69.3665 50.7756 69.218 51.024C69.1901 51.0713 69.1478 51.1084 69.0973 51.1299C69.0468 51.1514 68.9907 51.1562 68.9373 51.1434Z" fill="#1D2B36"/>
<path d="M75.4192 50.8985C75.352 50.881 75.2942 50.8382 75.2579 50.779C75.1507 50.617 74.9989 50.4896 74.8207 50.4122C74.6426 50.3348 74.4458 50.3107 74.2543 50.3429C74.2213 50.3498 74.1873 50.35 74.1542 50.3435C74.1211 50.3369 74.0897 50.3238 74.0618 50.3048C74.0339 50.2859 74.0102 50.2615 73.9919 50.2331C73.9737 50.2048 73.9613 50.1731 73.9556 50.1398C73.9434 50.0733 73.9578 50.0047 73.9958 49.9488C74.0339 49.8928 74.0924 49.8542 74.1587 49.8412C74.4543 49.7864 74.7596 49.822 75.0345 49.9435C75.3095 50.065 75.5414 50.2667 75.6999 50.5221C75.7333 50.5811 75.7426 50.6507 75.7259 50.7164C75.7092 50.782 75.6678 50.8387 75.6103 50.8746C75.5517 50.9059 75.4836 50.9144 75.4192 50.8985Z" fill="#1D2B36"/>
<path d="M64.6842 65.904L65.9686 67.1585L68.2564 69.4045L69.1166 68.0366L69.9708 66.6865L66.9841 63.1263L64.8097 65.7547L64.6842 65.904Z" fill="white"/>
<path d="M69.9711 66.6866L70.6341 67.7917L71.6078 69.4045L73.8419 65.3724L72.4143 63.6938L69.9711 66.6866Z" fill="white"/>
<path d="M96.8001 81.9293L79.1066 79.1508L76.8002 89.777L95.0289 92.7508L96.8001 81.9293Z" fill="#F1F3F5"/>
<path d="M100.8 82.074L83.8141 79.1508L81.6 90.3304L99.0871 93.5508L100.8 82.074Z" fill="#F1F3F5"/>
<path d="M81.9167 85.7146C81.8776 85.8835 81.804 86.0258 81.6959 86.1415C81.588 86.2561 81.4513 86.3352 81.2858 86.379C81.1213 86.423 80.9416 86.4271 80.7466 86.3913C80.425 86.3323 80.1909 86.1811 80.0445 85.9377C79.898 85.6942 79.8598 85.3814 79.9299 84.9992L79.9521 84.8782C79.9961 84.6384 80.0759 84.4364 80.1918 84.2724C80.3089 84.1073 80.4548 83.9905 80.6296 83.9218C80.8046 83.8519 80.9952 83.8359 81.2014 83.8737C81.4983 83.9282 81.7226 84.0504 81.8743 84.2404C82.0261 84.4292 82.0892 84.6632 82.0635 84.9423L81.4752 84.8344C81.4981 84.6845 81.4801 84.5706 81.4215 84.4927C81.3628 84.4147 81.2612 84.3625 81.1166 84.336C80.9698 84.309 80.8521 84.3442 80.7636 84.4415C80.6751 84.5388 80.6071 84.7076 80.5596 84.9479L80.5278 85.1211C80.4799 85.3822 80.4782 85.5747 80.5227 85.6987C80.5682 85.8229 80.6711 85.8997 80.8314 85.9291C80.967 85.9539 81.0765 85.941 81.1599 85.8903C81.2434 85.8396 81.3001 85.7451 81.33 85.607L81.9167 85.7146ZM83.5177 86.3922L82.7092 86.2439L82.4842 86.6752L81.8538 86.5596L83.2003 84.2768L83.755 84.3785L84.2105 86.9918L83.5768 86.8756L83.5177 86.3922ZM82.934 85.8142L83.4601 85.9107L83.3519 85.0135L82.934 85.8142ZM86.4344 87.3996L85.8477 87.2921L85.2597 85.61L84.9804 87.133L84.3904 87.0248L84.8392 84.5773L85.4292 84.6855L86.0156 86.3672L86.2949 84.8443L86.8832 84.9522L86.4344 87.3996ZM88.9397 87.0025C88.9006 87.1714 88.827 87.3137 88.7189 87.4294C88.6111 87.544 88.4743 87.6232 88.3088 87.6669C88.1443 87.7109 87.9646 87.715 87.7696 87.6792C87.448 87.6203 87.214 87.469 87.0675 87.2256C86.921 86.9821 86.8828 86.6693 86.9529 86.2872L86.9751 86.1661C87.0191 85.9263 87.099 85.7244 87.2148 85.5603C87.3319 85.3953 87.4779 85.2784 87.6526 85.2097C87.8276 85.1398 88.0182 85.1238 88.2244 85.1616C88.5214 85.2161 88.7457 85.3383 88.8973 85.5283C89.0492 85.7171 89.1122 85.9511 89.0866 86.2302L88.4982 86.1223C88.5211 85.9724 88.5032 85.8585 88.4445 85.7806C88.3858 85.7026 88.2842 85.6504 88.1396 85.6239C87.9928 85.597 87.8752 85.6322 87.7867 85.7294C87.6982 85.8267 87.6301 85.9955 87.5826 86.2358L87.5508 86.409C87.503 86.6701 87.5012 86.8626 87.5457 86.9866C87.5912 87.1108 87.6942 87.1876 87.8544 87.217C87.99 87.2419 88.0995 87.2289 88.183 87.1782C88.2664 87.1275 88.3231 87.033 88.3531 86.8949L88.9397 87.0025ZM90.7749 87.1236L89.847 86.9534L89.74 87.5367L90.836 87.7377L90.7528 88.1916L89.0668 87.8824L89.5156 85.4349L91.205 85.7447L91.1214 86.2003L90.0221 85.9986L89.9274 86.5147L90.8553 86.6849L90.7749 87.1236ZM91.6664 87.89L92.6935 88.0783L92.6102 88.5322L90.9931 88.2356L91.442 85.7882L92.032 85.8964L91.6664 87.89ZM94.3666 88.3817L93.5581 88.2334L93.333 88.6647L92.7027 88.5491L94.0491 86.2663L94.6038 86.368L95.0594 88.9813L94.4257 88.8651L94.3666 88.3817ZM93.7828 87.8038L94.309 87.9003L94.2007 87.003L93.7828 87.8038ZM95.2392 89.0143L95.6881 86.5669L96.4764 86.7114C96.6927 86.7511 96.8781 86.8361 97.0326 86.9663C97.1873 87.0955 97.2964 87.2585 97.3599 87.4555C97.4247 87.6516 97.4373 87.8606 97.3978 88.0827L97.3771 88.1953C97.336 88.4195 97.2515 88.6119 97.1236 88.7726C96.9969 88.9324 96.8381 89.0469 96.647 89.1161C96.4573 89.1844 96.2564 89.1997 96.0444 89.162L95.2392 89.0143ZM96.1945 87.1306L95.9125 88.6687L96.1176 88.7063C96.2868 88.7373 96.4278 88.7012 96.5405 88.5979C96.6535 88.4935 96.7318 88.3226 96.7753 88.085L96.7947 87.9791C96.8381 87.7426 96.8254 87.5561 96.7566 87.4196C96.6878 87.283 96.5666 87.1988 96.3929 87.167L96.1945 87.1306ZM99.7526 88.6292C99.7088 88.8679 99.6258 89.0711 99.5036 89.2386C99.3814 89.4062 99.2293 89.5248 99.0474 89.5945C98.8668 89.6633 98.6723 89.6786 98.4639 89.6404C98.2554 89.6022 98.0792 89.5207 97.9353 89.3958C97.7916 89.2698 97.6908 89.1094 97.6327 88.9146C97.5757 88.72 97.5661 88.5068 97.604 88.2752L97.6292 88.1373C97.6732 87.8975 97.7557 87.6943 97.8766 87.5277C97.9988 87.3601 98.1509 87.2415 98.3328 87.1717C98.5158 87.1022 98.7121 87.0867 98.9217 87.1251C99.129 87.1631 99.3048 87.2463 99.4492 87.3747C99.5937 87.5032 99.6939 87.6669 99.7501 87.866C99.8076 88.0642 99.8153 88.2811 99.7732 88.5166L99.7526 88.6292ZM99.1713 88.4167C99.2159 88.1735 99.2088 87.9816 99.15 87.8411C99.0925 87.6997 98.9882 87.6151 98.8369 87.5874C98.541 87.5331 98.344 87.7263 98.2458 88.167L98.2112 88.3466C98.1672 88.5864 98.1732 88.778 98.2291 88.9215C98.285 89.0649 98.3914 89.1511 98.5483 89.1798C98.6974 89.2072 98.8238 89.1649 98.9277 89.0531C99.0317 88.9412 99.106 88.7666 99.1506 88.5293L99.1713 88.4167Z" fill="#DE3618"/>
</svg>
