<svg width="220" height="220" viewBox="0 0 220 220" fill="none" xmlns="http://www.w3.org/2000/svg">
<path d="M110.745 37.7943C88.6476 27.0416 71.1214 2.98226 42.809 7.57618C21.572 11.03 10.2045 30.3054 6.77867 51.3245C-2.23032 106.507 66.1139 144.594 112.193 148.775C159.926 153.134 226.839 128.247 219.434 71.9021C216.383 48.6867 198.292 37.3695 174.255 34.7708C153.868 32.5633 128.081 46.2332 110.745 37.7943Z" fill="#D5DCE1"/>
<path opacity="0.9" d="M110.745 37.7943C88.6476 27.0416 71.1214 2.98226 42.809 7.57618C21.572 11.03 10.2045 30.3054 6.77867 51.3245C-2.23032 106.507 66.1139 144.594 112.193 148.775C159.926 153.134 226.839 128.247 219.434 71.9021C216.383 48.6867 198.292 37.3695 174.255 34.7708C153.868 32.5633 128.081 46.2332 110.745 37.7943Z" fill="white"/>
<path d="M108.359 206.394C48.5142 206.394 1.52588e-05 202.418 1.52588e-05 197.513C1.52588e-05 192.609 48.5142 188.633 108.359 188.633C168.205 188.633 216.719 192.609 216.719 197.513C216.719 202.418 168.205 206.394 108.359 206.394Z" fill="#E5E9EC"/>
<path d="M108.639 174.771L111.413 181.146C111.935 182.351 112.799 183.377 113.898 184.097C114.996 184.817 116.281 185.201 117.594 185.201H129.203C130.743 185.2 132.22 184.588 133.309 183.5H154.99C155.828 183.5 156.653 183.301 157.399 182.919C158.144 182.537 158.788 181.984 159.278 181.305L162.142 177.335L108.639 174.771Z" fill="#748494"/>
<path d="M126.305 149.5C126.305 152.557 138.487 174.267 139.706 175.129C140.926 175.991 156.828 175.027 156.828 175.027L155.643 179.53H111.974L93.8258 144.306L105.826 126.991L127.689 127.598C127.689 127.598 126.305 146.449 126.305 149.5Z" fill="#003D99"/>
<path opacity="0.2" d="M126.305 149.5C126.305 152.557 138.487 174.267 139.706 175.129C140.926 175.991 156.828 175.027 156.828 175.027L155.643 179.53H111.974L93.8258 144.306L105.826 126.991L127.689 127.598C127.689 127.598 126.305 146.449 126.305 149.5Z" fill="#1D2B36"/>
<path d="M90.8311 196.305C100.669 196.305 108.644 186.685 108.644 174.817C108.644 162.949 100.669 153.328 90.8311 153.328C80.993 153.328 73.0177 162.949 73.0177 174.817C73.0177 186.685 80.993 196.305 90.8311 196.305Z" fill="#748494"/>
<path d="M87.8484 188.371C94.0532 188.371 99.0831 182.303 99.0831 174.817C99.0831 167.331 94.0532 161.263 87.8484 161.263C81.6436 161.263 76.6136 167.331 76.6136 174.817C76.6136 182.303 81.6436 188.371 87.8484 188.371Z" fill="white"/>
<path d="M85.2681 180.278C87.8521 180.278 89.9469 177.752 89.9469 174.635C89.9469 171.519 87.8521 168.993 85.2681 168.993C82.6841 168.993 80.5893 171.519 80.5893 174.635C80.5893 177.752 82.6841 180.278 85.2681 180.278Z" fill="#003D99"/>
<path opacity="0.4" d="M85.2681 180.278C87.8521 180.278 89.9469 177.752 89.9469 174.635C89.9469 171.519 87.8521 168.993 85.2681 168.993C82.6841 168.993 80.5893 171.519 80.5893 174.635C80.5893 177.752 82.6841 180.278 85.2681 180.278Z" fill="#1D2B36"/>
<path d="M190.062 142.355C190.062 142.355 173.984 154.684 167.853 180.097H142.105L166.492 140.398L179.354 135.05L190.062 142.355Z" fill="#003D99"/>
<path opacity="0.4" d="M191.723 141.101C191.723 141.101 176.689 152.597 169.509 174.227C168.955 175.927 167.879 177.409 166.434 178.463C164.99 179.517 163.25 180.088 161.462 180.097H142.105L166.492 140.398L179.354 135.05L191.723 141.101Z" fill="#1D2B36"/>
<path d="M190.175 142.099H180.244C178.36 142.076 176.511 142.617 174.936 143.653C169.044 147.578 155.087 158.523 153.635 175.866C153.544 177.011 153.028 178.08 152.188 178.863C151.349 179.646 150.246 180.086 149.098 180.097H105.934C98.6807 180.098 91.5572 178.174 85.2905 174.522L72.9498 167.331C71.6203 166.554 70.5674 165.38 69.9388 163.975C69.3103 162.569 69.1376 161.002 69.445 159.493C70.9139 152.41 75.0539 140.256 86.9011 135.504C87.0883 135.419 86.8047 135.345 87.3719 135.277V127.921H118.314C118.314 127.921 112.11 142.718 112.11 148.82C112.11 154.576 118.212 176.694 126.107 178.963H136.882C138.314 178.928 139.712 178.516 140.934 177.77C142.157 177.023 143.161 175.967 143.846 174.709C149.098 165.335 160.764 141.028 157.128 118.053C156.703 115.371 158.767 112.609 161.49 112.609H175.384C175.384 112.609 187.861 127.082 191.91 139.315C192.324 140.506 191.434 142.099 190.175 142.099Z" fill="#003D99"/>
<path d="M167.904 108.004H163.934C162.892 108.003 161.882 107.647 161.07 106.994L152.909 100.387C152.588 100.126 152.188 99.9822 151.775 99.9789H136.088C135.787 99.9789 135.499 99.8594 135.286 99.6467C135.073 99.4339 134.954 99.1454 134.954 98.8446C134.954 98.5438 135.073 98.2553 135.286 98.0426C135.499 97.8299 135.787 97.7104 136.088 97.7104H151.763C152.698 97.7108 153.603 98.0333 154.327 98.6234L162.494 105.236C162.899 105.564 163.406 105.743 163.928 105.741H167.898C168.448 105.739 168.98 105.54 169.396 105.18C169.812 104.82 170.085 104.323 170.167 103.779L170.524 101.227C170.668 100.255 171.154 99.3667 171.896 98.7228C172.638 98.0789 173.585 97.7218 174.568 97.716H177.545C177.846 97.716 178.134 97.8356 178.347 98.0483C178.56 98.261 178.679 98.5495 178.679 98.8503C178.679 99.1511 178.56 99.4396 178.347 99.6523C178.134 99.8651 177.846 99.9846 177.545 99.9846H174.556C174.12 99.9878 173.699 100.147 173.37 100.433C173.04 100.719 172.823 101.113 172.758 101.544L172.401 104.096C172.241 105.177 171.7 106.165 170.875 106.882C170.051 107.599 168.997 107.996 167.904 108.004Z" fill="#748494"/>
<path d="M160.9 103.195C160.9 103.195 160.951 105.871 158.438 105.701L157.622 108.605C157.505 109.014 157.476 109.443 157.535 109.864C157.595 110.285 157.742 110.689 157.968 111.049L159.743 113.885H176.19L177.483 111.446C177.69 111.058 177.768 110.614 177.706 110.179C177.643 109.743 177.444 109.339 177.137 109.025L172.237 104.017C171.98 103.753 171.673 103.543 171.334 103.4C170.995 103.257 170.631 103.183 170.263 103.183L160.9 103.195Z" fill="#003D99"/>
<path opacity="0.4" d="M160.9 103.195C160.9 103.195 160.951 105.871 158.438 105.701L157.622 108.605C157.505 109.014 157.476 109.443 157.535 109.864C157.595 110.285 157.742 110.689 157.968 111.049L159.743 113.885H176.19L177.483 111.446C177.69 111.058 177.768 110.614 177.706 110.179C177.643 109.743 177.444 109.339 177.137 109.025L172.237 104.017C171.98 103.753 171.673 103.543 171.334 103.4C170.995 103.257 170.631 103.183 170.263 103.183L160.9 103.195Z" fill="#1D2B36"/>
<path d="M189.143 196.305C198.981 196.305 206.956 186.685 206.956 174.817C206.956 162.949 198.981 153.328 189.143 153.328C179.304 153.328 171.329 162.949 171.329 174.817C171.329 186.685 179.304 196.305 189.143 196.305Z" fill="#748494"/>
<path d="M186.166 188.371C192.37 188.371 197.4 182.303 197.4 174.817C197.4 167.331 192.37 161.263 186.166 161.263C179.961 161.263 174.931 167.331 174.931 174.817C174.931 182.303 179.961 188.371 186.166 188.371Z" fill="white"/>
<path d="M206.673 160.956C204.795 157.763 199.776 150.862 190.753 148.843C188.441 148.3 186.043 148.231 183.704 148.638L183.664 148.542L183.704 148.457H183.63L182.082 144.935H180.318C178.886 144.935 177.492 145.4 176.348 146.262L173.252 148.587L174.709 153.64C174.288 154.093 173.894 154.57 173.53 155.07C170.917 158.316 169.136 162.151 168.34 166.242C168.314 166.413 168.325 166.587 168.373 166.753C168.42 166.919 168.503 167.073 168.616 167.204C168.729 167.335 168.868 167.44 169.025 167.512C169.182 167.583 169.353 167.62 169.526 167.62H170.456C170.7 167.624 170.939 167.554 171.142 167.418C171.345 167.282 171.501 167.087 171.59 166.86C172.421 164.665 173.737 162.685 175.441 161.07L180.607 174.522L184.764 172.775L183.307 156.011C183.307 156.011 192.869 153.323 199.13 161.058C199.494 161.512 199.955 161.878 200.479 162.13C201.003 162.382 201.577 162.514 202.158 162.516H205.793C205.974 162.513 206.151 162.462 206.307 162.37C206.462 162.277 206.591 162.145 206.68 161.988C206.768 161.83 206.815 161.652 206.813 161.471C206.812 161.29 206.764 161.113 206.673 160.956Z" fill="#003D99"/>
<path opacity="0.2" d="M206.673 160.956C204.795 157.763 199.776 150.862 190.753 148.843C188.441 148.3 186.043 148.231 183.704 148.638L183.664 148.542L183.704 148.457H183.63L182.082 144.935H180.318C178.886 144.935 177.492 145.4 176.348 146.262L173.252 148.587L174.709 153.64C174.288 154.093 173.894 154.57 173.53 155.07C170.917 158.316 169.136 162.151 168.34 166.242C168.314 166.413 168.325 166.587 168.373 166.753C168.42 166.919 168.503 167.073 168.616 167.204C168.729 167.335 168.868 167.44 169.025 167.512C169.182 167.583 169.353 167.62 169.526 167.62H170.456C170.7 167.624 170.939 167.554 171.142 167.418C171.345 167.282 171.501 167.087 171.59 166.86C172.421 164.665 173.737 162.685 175.441 161.07L180.607 174.522L184.764 172.775L183.307 156.011C183.307 156.011 192.869 153.323 199.13 161.058C199.494 161.512 199.955 161.878 200.479 162.13C201.003 162.382 201.577 162.514 202.158 162.516H205.793C205.974 162.513 206.151 162.462 206.307 162.37C206.462 162.277 206.591 162.145 206.68 161.988C206.768 161.83 206.815 161.652 206.813 161.471C206.812 161.29 206.764 161.113 206.673 160.956Z" fill="#1D2B36"/>
<path d="M183.585 180.278C186.169 180.278 188.264 177.752 188.264 174.635C188.264 171.519 186.169 168.993 183.585 168.993C181.001 168.993 178.906 171.519 178.906 174.635C178.906 177.752 181.001 180.278 183.585 180.278Z" fill="#003D99"/>
<path opacity="0.4" d="M183.585 180.278C186.169 180.278 188.264 177.752 188.264 174.635C188.264 171.519 186.169 168.993 183.585 168.993C181.001 168.993 178.906 171.519 178.906 174.635C178.906 177.752 181.001 180.278 183.585 180.278Z" fill="#1D2B36"/>
<path d="M166.736 114.514C166.736 114.514 169.679 133.048 179.4 133.173C188.513 133.298 189.364 115.898 180.67 113.227C173.649 111.066 166.736 114.514 166.736 114.514Z" fill="#003D99"/>
<path opacity="0.2" d="M166.736 114.514C166.736 114.514 169.679 133.048 179.4 133.173C188.513 133.298 189.364 115.898 180.67 113.227C173.649 111.066 166.736 114.514 166.736 114.514Z" fill="#1D2B36"/>
<path d="M186.126 123.038C186.341 127.74 183.506 131.545 179.791 131.545C176.076 131.545 172.895 127.728 172.679 123.038C172.464 118.348 175.299 114.531 179.008 114.531C182.717 114.531 185.91 118.331 186.126 123.038Z" fill="white"/>
<path d="M176.876 110.885H168.437L169.106 109.796H176.876V110.885Z" fill="#003D99"/>
<path d="M130.473 127.139V129.271C130.473 131.205 128.891 132.458 126.951 132.458H88.6023C86.6571 132.458 85.1032 131.205 85.1032 129.271V127.139C85.1032 125.205 86.6571 123.951 88.6023 123.951H126.951C128.891 123.951 130.473 125.205 130.473 127.139Z" fill="#748494"/>
<path opacity="0.2" d="M117.996 127.139V129.271C118.018 129.702 117.947 130.133 117.789 130.534C117.632 130.936 117.39 131.3 117.082 131.601C116.773 131.902 116.403 132.135 115.998 132.282C115.592 132.43 115.16 132.49 114.73 132.458H88.6023C86.6571 132.458 85.1032 131.205 85.1032 129.271V127.139C85.1032 125.205 86.6571 123.951 88.6023 123.951H114.73C115.16 123.92 115.592 123.979 115.998 124.127C116.403 124.275 116.773 124.507 117.082 124.809C117.39 125.11 117.632 125.474 117.789 125.875C117.947 126.277 118.018 126.708 117.996 127.139Z" fill="white"/>
<path opacity="0.2" d="M113.17 166.418V180.097H105.934C98.6807 180.098 91.5572 178.174 85.2905 174.522L72.9498 167.331C71.6203 166.554 70.5674 165.381 69.9388 163.975C69.3103 162.569 69.1376 161.002 69.445 159.493C70.9139 152.41 75.1163 140.256 86.9862 135.504L87.5533 135.532H92.3455C95.1113 135.532 97.8198 136.32 100.153 137.805C102.487 139.29 104.348 141.409 105.52 143.914L110.624 154.86C112.307 158.48 113.177 162.425 113.17 166.418Z" fill="#1D2B36"/>
<path d="M145.197 90.0441L144.296 90.7332L150.439 98.7651L151.34 98.076L145.197 90.0441Z" fill="#748494"/>
<path d="M141.504 89.0731H144.396C144.697 89.0731 144.991 89.1612 145.242 89.3265C145.493 89.4918 145.69 89.7271 145.808 90.0032L146.194 90.9049C146.293 91.1385 146.333 91.3929 146.31 91.6456C146.287 91.8983 146.202 92.1414 146.062 92.3531C145.922 92.5648 145.732 92.7387 145.509 92.859C145.285 92.9794 145.036 93.0426 144.782 93.043H141.634C141.265 93.0439 140.908 92.9113 140.628 92.6695C140.349 92.4277 140.166 92.093 140.114 91.7273L139.984 90.8255C139.953 90.6078 139.969 90.386 140.032 90.1751C140.094 89.9642 140.201 89.7691 140.345 89.603C140.489 89.4369 140.667 89.3037 140.867 89.2122C141.067 89.1208 141.284 89.0734 141.504 89.0731Z" fill="#003D99"/>
<path d="M174.055 91.3159L172.543 98.4971L173.653 98.7308L175.165 91.5496L174.055 91.3159Z" fill="#748494"/>
<path d="M178.01 89.0732H174.897C174.591 89.073 174.297 89.183 174.066 89.3832C173.836 89.5833 173.686 89.8599 173.643 90.1621L173.433 91.5969C173.408 91.7783 173.422 91.9631 173.475 92.1385C173.528 92.314 173.618 92.4759 173.739 92.6133C173.86 92.7507 174.01 92.8602 174.177 92.9344C174.345 93.0086 174.526 93.0456 174.709 93.0431H177.817C178.122 93.0433 178.417 92.9332 178.648 92.7331C178.878 92.533 179.028 92.2563 179.071 91.9542L179.28 90.5194C179.306 90.3384 179.292 90.1541 179.239 89.9791C179.187 89.804 179.097 89.6424 178.977 89.5051C178.856 89.3678 178.707 89.2582 178.541 89.1836C178.374 89.1091 178.193 89.0714 178.01 89.0732Z" fill="#003D99"/>
<path d="M70.6771 89.8791L118.629 90.6743L118.055 125.292L70.1031 124.496L70.6771 89.8791Z" fill="#003D99"/>
<path opacity="0.3" d="M89.6848 90.1902L118.676 90.6709L118.046 125.333L89.1108 124.808L89.6848 90.1902Z" fill="white"/>
<path opacity="0.3" d="M85.3159 92.5227L93.6649 92.6896L93.6184 95.0169L85.2693 94.8499L85.3159 92.5227Z" fill="white"/>
<path opacity="0.3" d="M85.0678 119.442L93.4157 119.58L93.3771 121.907L85.0292 121.769L85.0678 119.442Z" fill="white"/>
<path d="M130.782 126.917V129.049C130.782 130.983 129.2 132.237 127.26 132.237H88.9112C86.966 132.237 85.4121 130.983 85.4121 129.049V126.917C85.4121 124.983 86.966 123.73 88.9112 123.73H127.26C129.2 123.73 130.782 124.983 130.782 126.917Z" fill="#405261"/>
<path opacity="0.2" d="M118.305 126.917V129.049C118.327 129.48 118.256 129.911 118.098 130.313C117.941 130.714 117.699 131.078 117.39 131.379C117.082 131.681 116.712 131.913 116.307 132.061C115.901 132.209 115.469 132.269 115.039 132.237H88.9112C86.966 132.237 85.4121 130.983 85.4121 129.049V126.917C85.4121 124.983 86.966 123.73 88.9112 123.73H115.039C115.469 123.698 115.901 123.758 116.307 123.906C116.712 124.053 117.082 124.286 117.39 124.587C117.699 124.888 117.941 125.252 118.098 125.654C118.256 126.055 118.327 126.486 118.305 126.917Z" fill="white"/>
<path d="M85.3855 81.2271C85.5169 83.7569 85.7469 86.2013 86.1215 88.6917C86.4451 91.264 87.0083 93.8004 87.8036 96.2679C88.0545 96.9866 88.369 97.6815 88.7432 98.3443C89.0038 98.7914 89.3219 99.2023 89.6894 99.5665L89.8734 99.7374L89.9786 99.8162L90.0311 99.8622L90.2545 100.013L90.6948 100.322C91.8108 101.038 92.9845 101.66 94.2037 102.182C96.5175 103.199 98.9222 103.995 101.386 104.56L102.24 102.221C100.15 101.065 98.0082 99.8819 96.0567 98.6532C95.1027 98.068 94.1855 97.425 93.31 96.7279L93.0209 96.4848L92.8763 96.3599C92.8763 96.3599 92.8172 96.2614 92.7449 96.1037C92.553 95.6787 92.3948 95.2393 92.2718 94.7895C91.9748 93.7087 91.74 92.6117 91.5687 91.504C91.365 90.3607 91.2008 89.1976 91.0628 88.0149C90.7934 85.6691 90.5634 83.2641 90.4057 80.9249L85.3855 81.2271Z" fill="#CE7A63"/>
<path d="M100.682 102.254L104.717 101.006L103.961 105.888C103.961 105.888 101.333 105.559 100.019 104.087L100.682 102.254Z" fill="#CE7A63"/>
<path d="M109.606 104.146L109.383 104.804C109.256 105.166 109.016 105.479 108.697 105.693C108.378 105.907 107.999 106.013 107.615 105.993L105.558 105.901L106.321 101.006L108.581 101.893C109.01 102.063 109.356 102.393 109.547 102.813C109.738 103.233 109.759 103.711 109.606 104.146Z" fill="#CE7A63"/>
<path d="M80.6147 76.4895C80.6147 78.014 81.3506 81.0234 81.9815 83.2838C82.448 84.9068 82.8357 86.1422 82.8357 86.1422L83.7622 85.9122L91.3976 83.9803C91.5158 80.0378 91.3647 75.747 87.455 73.1712C85.0106 71.5548 80.6344 73.7757 80.6147 76.4895Z" fill="#1D2B36"/>
<path opacity="0.3" d="M80.6218 76.7525C81.1212 76.2268 82.2514 76.1348 84.7154 76.9167C88.244 78.0338 89.2297 81.8975 89.2757 84.5193L83.7627 85.9123L83.2896 86.0371L82.8362 86.1423C82.8362 86.1423 82.6456 85.5246 82.3696 84.585C82.2579 84.2039 82.1199 83.757 81.9885 83.2708C81.3309 81.1453 80.8733 78.9631 80.6218 76.7525Z" fill="#405261"/>
<path d="M96.2867 199.155L100.945 197.525L98.0148 187.433L93.3626 189.069L96.2867 199.155Z" fill="#CE7A63"/>
<path d="M34.0404 187.196L37.8318 190.021L45.592 182.156L41.8006 179.331L34.0404 187.196Z" fill="#CE7A63"/>
<path d="M39.383 188.872L35.2894 185.488C35.22 185.428 35.1314 185.394 35.0397 185.394C34.9479 185.394 34.8593 185.428 34.79 185.488L31.6491 188.339C31.5785 188.41 31.5226 188.493 31.4844 188.585C31.4462 188.677 31.4265 188.775 31.4265 188.875C31.4265 188.974 31.4462 189.073 31.4844 189.165C31.5226 189.257 31.5785 189.34 31.6491 189.41L31.7148 189.47C33.1604 190.626 33.9226 191.112 35.723 192.597C36.8269 193.511 39.1465 195.699 40.6775 196.96C42.2085 198.222 43.5358 196.783 43.0102 196.119C40.6643 193.149 40.119 191.191 39.843 189.588C39.7768 189.303 39.6143 189.05 39.383 188.872Z" fill="#1D2B36"/>
<path d="M101.26 196.067L96.0826 198.229C95.9903 198.269 95.9135 198.338 95.8637 198.426C95.814 198.514 95.7939 198.615 95.8066 198.715L96.3914 203.282C96.4144 203.465 96.5089 203.631 96.6543 203.744C96.7996 203.857 96.9839 203.909 97.1668 203.886C97.2348 203.879 97.3014 203.861 97.3639 203.834C99.1972 203.091 100.058 202.723 102.332 201.77L109.31 198.846C111.202 198.051 110.795 195.975 109.967 196.126C106.136 196.822 103.665 196.593 102.154 196.021C102.009 195.969 101.856 195.947 101.703 195.954C101.549 195.962 101.399 196.001 101.26 196.067Z" fill="#1D2B36"/>
<path opacity="0.2" d="M98.0147 187.439L99.5194 192.637L94.9855 194.687L93.3559 189.069L98.0147 187.439Z" fill="#405261"/>
<path opacity="0.2" d="M41.794 179.331L45.592 182.156L41.5903 186.21L37.7989 183.385L41.794 179.331Z" fill="#405261"/>
<path d="M66.2902 101.157L85.4772 101.433C88.1056 86.5758 88.7627 79.4858 88.7627 76.0755C88.766 75.225 88.4725 74.3999 87.9327 73.7426C87.393 73.0852 86.6407 72.6368 85.8058 72.4747C84.6362 72.2447 83.1774 71.9819 81.7121 71.7782C81.2127 71.7125 80.7068 71.6467 80.2074 71.5942C77.3097 71.3456 74.398 71.3039 71.4944 71.4693C71.0607 71.4693 70.6336 71.5088 70.1802 71.535C68.2089 71.6599 66.4085 71.9096 65.1272 72.1067C64.6663 72.181 64.2538 72.4351 63.9802 72.8134C63.7067 73.1917 63.5945 73.6631 63.6684 74.124C63.6652 74.1568 63.6652 74.1898 63.6684 74.2225C64.2335 76.8509 64.6935 79.1836 65.0614 81.26C65.6463 84.5454 66.0142 87.2264 66.2311 89.5656C66.5596 93.4215 66.5794 97.2976 66.2902 101.157Z" fill="#1D2B36"/>
<path opacity="0.1" d="M66.2376 89.5854C67.2035 86.6876 67.1509 80.6752 66.1127 78.7302L65.0548 81.2732C65.6528 84.5784 66.0207 87.2461 66.2376 89.5854Z" fill="#405261"/>
<path d="M85.4774 101.433C85.4774 101.433 88.7628 129.365 91.7263 146.772C94.0721 160.4 99.999 188.766 99.999 188.766L92.3045 191.493C92.3045 191.493 83.4929 161.924 81.9488 149.295C75.7393 131.087 71.2711 101.295 71.2711 101.295L85.4774 101.433Z" fill="#1265E5"/>
<path d="M101.247 190.672L92.3437 193.806L91.1544 190.948L100.814 187.255L101.247 190.672Z" fill="#1D2B36"/>
<path opacity="0.1" d="M75.7524 109.732L78.6305 115.245C79.6818 119.398 79.4321 129.504 78.0982 135.891C75.7064 126.264 73.7943 116.132 72.605 109.331L75.7524 109.732Z" fill="#405261"/>
<path d="M81.3114 101.433C81.3114 101.433 77.8748 132.697 71.4551 150.057C68.2353 158.764 44.3501 184.574 44.3501 184.574L38.962 180.264C38.962 180.264 54.1079 154.223 60.7313 147.409C63.432 132.296 60.0348 109.64 66.31 101.163L81.3114 101.433Z" fill="#1265E5"/>
<path d="M43.8963 186.421L37.5751 181.243L39.2836 178.437L46.2027 184.463L43.8963 186.421Z" fill="#1D2B36"/>
<path d="M65.9874 100.033L65.1003 101.735C65.0346 101.866 65.1857 102.011 65.4091 102.011L85.5424 102.3C85.7198 102.3 85.8578 102.215 85.8775 102.109L86.068 100.394C86.068 100.276 85.9301 100.171 85.7461 100.171L66.3093 99.8885C66.248 99.8848 66.1867 99.8961 66.1306 99.9212C66.0746 99.9464 66.0254 99.9847 65.9874 100.033Z" fill="#1D2B36"/>
<path d="M68.5968 102.254H68.0645C67.966 102.254 67.8871 102.195 67.8937 102.136L68.1762 99.9016C68.1762 99.8359 68.2682 99.7899 68.3734 99.7899H68.8662C68.9713 99.7899 69.0502 99.849 69.037 99.9082L68.761 102.136C68.7939 102.188 68.6953 102.254 68.5968 102.254Z" fill="#1265E5"/>
<path d="M84.0974 102.464H83.5717C83.4666 102.464 83.3943 102.405 83.4009 102.339L83.6703 100.112C83.6703 100.046 83.7754 99.9936 83.8805 99.9936H84.4062C84.5113 99.9936 84.5902 100.053 84.5836 100.118L84.3076 102.346C84.2945 102.412 84.2025 102.464 84.0974 102.464Z" fill="#1265E5"/>
<path d="M76.3437 102.339H75.818C75.7128 102.339 75.634 102.28 75.6406 102.215L75.9166 99.987C75.9166 99.9147 76.0151 99.8622 76.1202 99.8687H76.6459C76.751 99.8687 76.8233 99.9279 76.8233 99.9936L76.5474 102.221C76.5539 102.3 76.4488 102.339 76.3437 102.339Z" fill="#1265E5"/>
<path d="M111.156 81.7659L82.6781 77.8562L78.7356 105.815L106.701 109.653L111.156 81.7659Z" fill="#1265E5"/>
<path opacity="0.8" d="M111.156 81.7659L82.6781 77.8562L78.7356 105.815L106.701 109.653L111.156 81.7659Z" fill="white"/>
<path opacity="0.2" d="M82.0954 77.8645L89.7 78.9399L85.7457 106.902L78.1412 105.826L82.0954 77.8645Z" fill="#1265E5"/>
<path d="M74.6022 102.293L78.5448 100.749L78.1571 105.677C78.1571 105.677 75.5287 105.546 74.116 104.173L74.6022 102.293Z" fill="#CE7A63"/>
<path d="M62.2032 77.7577C61.1453 80.7146 60.232 83.6715 59.4566 86.6941C59.0623 88.212 58.6944 89.7364 58.3987 91.2937C58.2541 92.0822 58.1293 92.8839 58.0373 93.7184C57.9316 94.5903 57.8943 95.4691 57.9256 96.3468C57.944 96.9183 58.0323 97.4854 58.1884 98.0355C58.4043 98.712 58.7653 99.3332 59.2463 99.8556C59.949 100.608 60.7843 101.225 61.7104 101.676C63.2268 102.411 64.8232 102.969 66.4677 103.338C69.5423 104.051 72.6775 104.471 75.8313 104.593L76.1401 102.116C74.7011 101.774 73.2292 101.393 71.7967 100.992C70.3643 100.592 68.9384 100.145 67.5716 99.6453C66.2662 99.1967 65.0075 98.6224 63.8131 97.9303C63.3792 97.6766 62.9924 97.3498 62.6698 96.9644C62.5843 96.833 62.5843 96.8001 62.5975 96.8001C62.5843 96.6054 62.5843 96.41 62.5975 96.2153C62.6224 95.5785 62.6904 94.944 62.8012 94.3163C62.9063 93.6592 63.0509 92.9233 63.2086 92.2005C63.5371 90.7943 63.9051 89.3553 64.319 87.9163C65.1404 85.0645 66.0669 82.1667 66.9934 79.3741L62.2032 77.7577Z" fill="#CE7A63"/>
<path d="M82.1789 103.181L81.8701 104.324C81.7774 104.691 81.5675 105.018 81.2722 105.255C80.977 105.492 80.6124 105.627 80.2339 105.638L78.1181 105.697L78.5058 100.776L80.661 101.019C80.8898 101.042 81.1118 101.11 81.3143 101.219C81.5168 101.328 81.6959 101.475 81.8411 101.654C81.9864 101.832 82.0951 102.037 82.161 102.257C82.2268 102.478 82.2485 102.709 82.2249 102.937C82.2152 103.019 82.1999 103.101 82.1789 103.181Z" fill="#CE7A63"/>
<path d="M64.4441 72.2513C62.2363 73.1515 60.4293 80.4057 60.4293 80.4057L66.5271 85.1696C66.5271 85.1696 70.8507 78.4016 69.9702 75.4644C69.2211 72.9806 67.2564 71.1145 64.4441 72.2513Z" fill="#1D2B36"/>
<path d="M40.874 190.922H40.9529C41.0632 190.914 41.1698 190.879 41.2628 190.819C41.3558 190.759 41.4323 190.677 41.4851 190.58C41.5243 190.524 41.5479 190.459 41.5537 190.391C41.5595 190.322 41.5472 190.254 41.518 190.192C41.2486 189.667 39.5467 189.456 39.3627 189.437C39.3409 189.433 39.3184 189.435 39.2983 189.445C39.2783 189.454 39.2617 189.47 39.251 189.489C39.2386 189.508 39.2319 189.529 39.2319 189.552C39.2319 189.574 39.2386 189.596 39.251 189.614C39.6058 190.094 40.2958 190.882 40.874 190.922ZM39.5927 189.693C40.2498 189.791 41.1763 190.008 41.3077 190.297C41.3235 190.322 41.332 190.35 41.332 190.38C41.332 190.409 41.3235 190.437 41.3077 190.462C41.2767 190.529 41.2279 190.587 41.1665 190.628C41.1051 190.67 41.0335 190.694 40.9595 190.698C40.6309 190.698 40.1052 190.343 39.5796 189.693H39.5927Z" fill="#1D2B36"/>
<path d="M39.4418 189.647C40.0135 189.647 41.1568 189.443 41.4131 188.99C41.4539 188.911 41.467 188.821 41.4503 188.734C41.4336 188.647 41.3881 188.568 41.3211 188.51C41.2631 188.447 41.1919 188.397 41.1124 188.364C41.0329 188.331 40.9471 188.316 40.8611 188.32C40.1712 188.32 39.2972 189.378 39.2709 189.437C39.261 189.453 39.2558 189.471 39.2558 189.489C39.2558 189.508 39.261 189.526 39.2709 189.542C39.2762 189.561 39.2872 189.578 39.3024 189.591C39.3177 189.604 39.3365 189.612 39.3564 189.614L39.4418 189.647ZM40.9005 188.556C40.9931 188.565 41.0794 188.607 41.1437 188.675C41.2422 188.78 41.2225 188.845 41.1962 188.898C41.0451 189.187 40.1449 189.424 39.5666 189.424C39.8961 189.01 40.3427 188.705 40.848 188.55L40.9005 188.556Z" fill="#1D2B36"/>
<path d="M103.909 195.962C104.274 195.843 104.593 195.613 104.822 195.304C104.874 195.214 104.906 195.112 104.915 195.008C104.924 194.904 104.911 194.799 104.875 194.7C104.857 194.643 104.824 194.592 104.781 194.552C104.737 194.511 104.683 194.483 104.625 194.47C104.021 194.358 102.595 195.889 102.319 196.198C102.306 196.218 102.299 196.24 102.299 196.264C102.299 196.287 102.306 196.31 102.319 196.33C102.33 196.35 102.348 196.367 102.369 196.376C102.39 196.386 102.414 196.388 102.437 196.382C102.941 196.292 103.434 196.151 103.909 195.962ZM104.362 194.726C104.43 194.694 104.505 194.68 104.579 194.687C104.579 194.687 104.638 194.687 104.665 194.766C104.691 194.834 104.701 194.908 104.695 194.981C104.688 195.054 104.664 195.124 104.625 195.186C104.422 195.541 103.718 195.876 102.72 196.093C103.188 195.555 103.738 195.094 104.349 194.726H104.362Z" fill="#1D2B36"/>
<path d="M102.443 196.369H102.483C102.962 195.889 103.744 194.45 103.475 193.99C103.416 193.892 103.291 193.787 103.008 193.866C101.95 194.174 102.272 196.224 102.292 196.31C102.292 196.331 102.3 196.352 102.315 196.368C102.329 196.384 102.35 196.394 102.371 196.395C102.384 196.398 102.398 196.397 102.411 196.393C102.424 196.388 102.435 196.38 102.443 196.369ZM102.969 194.076H103.035C103.14 194.043 103.219 194.076 103.245 194.076C103.403 194.345 102.897 195.429 102.437 196.008C102.443 195.502 102.378 194.339 102.969 194.076Z" fill="#1D2B36"/>
<path d="M82.6121 51.8093C82.6121 51.8093 85.2405 56.2052 83.2692 58.1305C81.2979 60.0557 80.7197 53.2286 80.7197 53.2286L82.6121 51.8093Z" fill="#1D2B36"/>
<path d="M70.4037 62.1256C70.4037 62.1256 67.1183 56.9871 68.485 51.8815C69.8518 46.7759 76.2387 50.0745 78.9327 48.6749C79.9198 48.075 80.9712 47.5879 82.067 47.2228C82.2432 47.1706 82.4289 47.1594 82.61 47.1902C82.7911 47.2209 82.9628 47.2928 83.1118 47.4002C83.7689 47.9784 82.6256 49.0626 82.2707 49.47C82.489 49.2176 82.7411 48.9964 83.0198 48.8129C83.3681 48.5829 83.8346 48.5632 83.6769 49.148C83.4067 49.7764 82.9224 50.2886 82.3102 50.5936C82.5664 50.4491 84.0843 49.6803 84.1895 50.16C84.2026 50.2763 84.1722 50.3933 84.104 50.4885C83.1184 52.3283 81.134 54.6413 78.8473 54.6873C76.0941 54.7267 73.4657 62.4738 70.4037 62.1256Z" fill="#1D2B36"/>
<path d="M69.2408 62.3555C69.4116 64.0902 71.9874 64.11 71.9874 64.11C72.4091 65.1028 73.1099 65.952 74.0047 66.5543C74.0839 67.602 74.0486 68.6552 73.8996 69.6952C73.4659 71.3314 72.9139 71.8965 72.224 72.2644L72.7759 72.8098C73.8324 73.4194 75.0259 73.7517 76.2454 73.7758L76.9682 73.3552L77.9144 73.5063C80.5427 72.6456 79.8856 70.878 79.8856 70.878C79.4062 69.6777 79.3805 68.3439 79.8134 67.126C82.3366 66.3375 83.3682 64.1428 83.723 60.45C84.0779 56.7571 82.0015 53.222 82.0015 53.222C79.1497 55.9752 73.4987 54.2076 73.4987 54.2076C73.7418 59.3855 71.3238 61.2976 71.3238 61.2976C70.5287 60.588 69.0765 60.6274 69.2408 62.3555Z" fill="#CE7A63"/>
<path d="M78.4137 62.8287C77.7355 62.6389 77.1494 62.2093 76.7644 61.6196C76.7333 61.5731 76.7214 61.5163 76.7312 61.4612C76.741 61.4061 76.7717 61.3569 76.8169 61.3239C76.8393 61.3074 76.8647 61.2954 76.8918 61.2888C76.9188 61.2821 76.9469 61.2809 76.9744 61.2852C77.0019 61.2894 77.0283 61.2991 77.052 61.3137C77.0757 61.3282 77.0963 61.3474 77.1126 61.3699C77.3344 61.7685 77.6779 62.0856 78.093 62.2748C78.508 62.464 78.9727 62.5153 79.419 62.4213C79.4722 62.4048 79.5297 62.4101 79.5789 62.436C79.6282 62.4618 79.6652 62.5062 79.6818 62.5593C79.6985 62.6133 79.6934 62.6717 79.6676 62.722C79.6419 62.7724 79.5974 62.8106 79.5439 62.8287C79.1733 62.9255 78.7842 62.9255 78.4137 62.8287Z" fill="#1D2B36"/>
<path d="M77.6645 58.3079C77.6645 58.643 77.7959 58.9321 78.0193 58.965C78.2427 58.9979 78.4464 58.7219 78.4727 58.3868C78.499 58.0516 78.3347 57.7297 78.1113 57.7297C77.8879 57.7297 77.6908 57.9662 77.6645 58.3079Z" fill="#1D2B36"/>
<path d="M81.6864 58.137C81.6864 58.4721 81.8178 58.7612 82.0412 58.7941C82.2646 58.827 82.4617 58.551 82.488 58.2159C82.5143 57.8807 82.3566 57.5916 82.1332 57.5588C81.9098 57.5259 81.7061 57.7953 81.6864 58.137Z" fill="#1D2B36"/>
<path d="M80.6214 61.3895L80.6674 58.9583L81.8764 61.0084C81.7093 61.1622 81.5097 61.2763 81.2924 61.3422C81.0751 61.4082 80.8458 61.4244 80.6214 61.3895Z" fill="#BF0711"/>
<path d="M75.8309 56.2578C75.8022 56.25 75.7754 56.2366 75.752 56.2183C75.7199 56.1995 75.692 56.1743 75.6699 56.1444C75.6477 56.1145 75.6319 56.0803 75.6233 56.0441C75.6147 56.0079 75.6135 55.9703 75.6199 55.9337C75.6262 55.897 75.6398 55.8619 75.66 55.8307C75.8788 55.4639 76.1963 55.1659 76.5762 54.9708C76.956 54.7756 77.3831 54.6911 77.8087 54.7268C77.8457 54.7308 77.8815 54.7422 77.9139 54.7604C77.9464 54.7786 77.9748 54.8032 77.9975 54.8326C78.0202 54.8621 78.0367 54.8958 78.0461 54.9318C78.0554 54.9678 78.0574 55.0054 78.0518 55.0422C78.042 55.1161 78.0033 55.1832 77.9442 55.2287C77.8851 55.2743 77.8104 55.2946 77.7364 55.2853C77.4187 55.2655 77.1017 55.3335 76.8201 55.4818C76.5384 55.6302 76.3031 55.8532 76.1397 56.1264C76.109 56.1784 76.0625 56.2192 76.0069 56.2429C75.9513 56.2665 75.8896 56.2718 75.8309 56.2578Z" fill="#1D2B36"/>
<path d="M82.961 55.9883C82.8871 55.969 82.8235 55.922 82.7835 55.8569C82.6657 55.6787 82.4987 55.5385 82.3027 55.4534C82.1068 55.3682 81.8903 55.3418 81.6796 55.3772C81.6433 55.3848 81.6059 55.385 81.5695 55.3778C81.5331 55.3706 81.4986 55.3562 81.4679 55.3353C81.4372 55.3144 81.4111 55.2876 81.391 55.2564C81.3709 55.2253 81.3574 55.1903 81.3511 55.1538C81.3376 55.0807 81.3535 55.0051 81.3953 54.9436C81.4371 54.8821 81.5015 54.8396 81.5745 54.8253C81.8996 54.765 82.2354 54.8042 82.5379 54.9379C82.8403 55.0715 83.0955 55.2934 83.2698 55.5743C83.3065 55.6392 83.3167 55.7157 83.2984 55.788C83.28 55.8602 83.2345 55.9226 83.1712 55.962C83.1068 55.9965 83.0319 56.0058 82.961 55.9883Z" fill="#1D2B36"/>
<path d="M71.1526 72.4944L72.5653 73.8743L75.082 76.3449L76.0282 74.8402L76.9678 73.3552L73.6823 69.4389L71.2906 72.3301L71.1526 72.4944Z" fill="white"/>
<path d="M76.968 73.3552L77.6974 74.5708L78.7685 76.345L81.226 71.9096L79.6556 70.0632L76.968 73.3552Z" fill="white"/>
<path d="M106.48 90.1222L87.0173 87.0659L84.4802 98.7547L104.532 102.026L106.48 90.1222Z" fill="#F1F3F5"/>
<path d="M110.88 90.2814L92.1956 87.0659L89.76 99.3634L108.996 102.906L110.88 90.2814Z" fill="#F1F3F5"/>
<path d="M90.9337 94.218C90.8946 94.3869 90.821 94.5292 90.7129 94.6449C90.605 94.7595 90.4683 94.8386 90.3027 94.8824C90.1383 94.9264 89.9586 94.9305 89.7636 94.8947C89.442 94.8358 89.2079 94.6845 89.0614 94.4411C88.915 94.1976 88.8768 93.8848 88.9468 93.5027L88.969 93.3816C89.013 93.1418 89.0929 92.9399 89.2087 92.7758C89.3258 92.6108 89.4718 92.4939 89.6466 92.4252C89.8215 92.3553 90.0121 92.3393 90.2183 92.3771C90.5153 92.4316 90.7396 92.5538 90.8913 92.7438C91.0431 92.9326 91.1062 93.1666 91.0805 93.4457L90.4922 93.3378C90.515 93.1879 90.4971 93.074 90.4384 92.9961C90.3797 92.9181 90.2781 92.8659 90.1336 92.8394C89.9867 92.8125 89.8691 92.8476 89.7806 92.9449C89.6921 93.0422 89.6241 93.211 89.5765 93.4513L89.5448 93.6245C89.4969 93.8856 89.4952 94.0781 89.5396 94.2021C89.5852 94.3263 89.6881 94.4031 89.8484 94.4325C89.9839 94.4574 90.0935 94.4444 90.1769 94.3937C90.2603 94.343 90.317 94.2485 90.347 94.1104L90.9337 94.218ZM92.5347 94.8956L91.7262 94.7473L91.5011 95.1786L90.8708 95.063L92.2172 92.7802L92.7719 92.8819L93.2275 95.4952L92.5937 95.379L92.5347 94.8956ZM91.9509 94.3177L92.4771 94.4142L92.3688 93.5169L91.9509 94.3177ZM95.4514 95.9031L94.8647 95.7955L94.2766 94.1135L93.9973 95.6364L93.4073 95.5282L93.8562 93.0807L94.4462 93.1889L95.0326 94.8706L95.3119 93.3477L95.9002 93.4556L95.4514 95.9031ZM97.9567 95.5059C97.9176 95.6748 97.844 95.8171 97.7359 95.9328C97.628 96.0474 97.4913 96.1266 97.3257 96.1703C97.1613 96.2143 96.9816 96.2184 96.7866 96.1827C96.465 96.1237 96.2309 95.9725 96.0845 95.729C95.938 95.4855 95.8998 95.1727 95.9699 94.7906L95.9921 94.6696C96.036 94.4297 96.1159 94.2278 96.2317 94.0637C96.3489 93.8987 96.4948 93.7818 96.6696 93.7131C96.8446 93.6433 97.0351 93.6272 97.2413 93.665C97.5383 93.7195 97.7626 93.8417 97.9143 94.0317C98.0661 94.2206 98.1292 94.4545 98.1035 94.7336L97.5152 94.6257C97.538 94.4758 97.5201 94.3619 97.4614 94.284C97.4028 94.206 97.3011 94.1538 97.1566 94.1273C97.0098 94.1004 96.8921 94.1356 96.8036 94.2329C96.7151 94.3301 96.6471 94.4989 96.5996 94.7393L96.5678 94.9124C96.5199 95.1735 96.5182 95.3661 96.5626 95.49C96.6082 95.6142 96.7111 95.691 96.8714 95.7204C97.007 95.7453 97.1165 95.7323 97.1999 95.6816C97.2834 95.6309 97.3401 95.5365 97.37 95.3983L97.9567 95.5059ZM99.7918 95.627L98.8639 95.4568L98.757 96.0401L99.853 96.2411L99.7697 96.695L98.0837 96.3858L98.5326 93.9383L100.222 94.2481L100.138 94.7037L99.039 94.5021L98.9444 95.0181L99.8723 95.1883L99.7918 95.627ZM100.683 96.3934L101.71 96.5818L101.627 97.0356L100.01 96.7391L100.459 94.2916L101.049 94.3998L100.683 96.3934ZM103.384 96.8851L102.575 96.7368L102.35 97.1682L101.72 97.0526L103.066 94.7697L103.621 94.8714L104.076 97.4848L103.443 97.3685L103.384 96.8851ZM102.8 96.3072L103.326 96.4037L103.218 95.5064L102.8 96.3072ZM104.256 97.5177L104.705 95.0703L105.493 95.2148C105.71 95.2545 105.895 95.3395 106.05 95.4697C106.204 95.5989 106.313 95.7619 106.377 95.9589C106.442 96.155 106.454 96.3641 106.415 96.5861L106.394 96.6988C106.353 96.9229 106.268 97.1153 106.141 97.276C106.014 97.4358 105.855 97.5503 105.664 97.6195C105.474 97.6878 105.273 97.7031 105.061 97.6654L104.256 97.5177ZM105.211 95.634L104.929 97.1721L105.135 97.2097C105.304 97.2407 105.445 97.2046 105.557 97.1013C105.67 96.997 105.749 96.826 105.792 96.5884L105.812 96.4825C105.855 96.2461 105.842 96.0596 105.774 95.923C105.705 95.7864 105.584 95.7022 105.41 95.6704L105.211 95.634ZM108.77 97.1327C108.726 97.3714 108.643 97.5745 108.521 97.742C108.398 97.9096 108.246 98.0282 108.064 98.0979C107.884 98.1668 107.689 98.1821 107.481 98.1438C107.272 98.1056 107.096 98.0241 106.952 97.8992C106.809 97.7733 106.708 97.6129 106.65 97.418C106.593 97.2234 106.583 97.0103 106.621 96.7786L106.646 96.6408C106.69 96.4009 106.773 96.1977 106.894 96.0311C107.016 95.8635 107.168 95.7449 107.35 95.6752C107.533 95.6056 107.729 95.5901 107.939 95.6285C108.146 95.6665 108.322 95.7498 108.466 95.8782C108.611 96.0066 108.711 96.1703 108.767 96.3694C108.825 96.5676 108.832 96.7845 108.79 97.02L108.77 97.1327ZM108.188 96.9201C108.233 96.6769 108.226 96.4851 108.167 96.3445C108.11 96.2031 108.005 96.1185 107.854 96.0908C107.558 96.0365 107.361 96.2297 107.263 96.6704L107.228 96.85C107.184 97.0898 107.19 97.2814 107.246 97.4249C107.302 97.5684 107.408 97.6545 107.565 97.6833C107.714 97.7106 107.841 97.6683 107.945 97.5565C108.049 97.4447 108.123 97.2701 108.168 97.0327L108.188 96.9201Z" fill="#E74848"/>
</svg>
