<svg width="200" height="200" viewBox="0 0 200 200" fill="none" xmlns="http://www.w3.org/2000/svg">
<path d="M77.326 84.6712C106.393 70.56 166.43 6.67467 193.129 57.6354C215.472 100.279 166.056 140.282 136.47 154.917C97.985 173.962 41.4172 166.441 10.9658 130.442C-2.12981 114.941 -6.85493 93.0257 15.9903 88.9473C23.698 87.5683 36.7829 92.5927 45.4955 92.1544C56.6616 91.5932 67.5978 89.391 77.326 84.6712Z" fill="#1265E5"/>
<path opacity="0.9" d="M77.326 84.6712C106.393 70.56 166.43 6.67467 193.129 57.6354C215.472 100.279 166.056 140.282 136.47 154.917C97.985 173.962 41.4172 166.441 10.9658 130.442C-2.12981 114.941 -6.85493 93.0257 15.9903 88.9473C23.698 87.5683 36.7829 92.5927 45.4955 92.1544C56.6616 91.5932 67.5978 89.391 77.326 84.6712Z" fill="white"/>
<path d="M93.6875 54.6368C92.5062 57.5071 85.5521 57.3094 78.2667 54.3054C70.9812 51.3014 66.0263 46.5389 67.2076 43.6685C67.4855 43.0057 68.2766 40.5202 69.0677 40.1781C71.783 39.0289 76.9518 41.6106 82.5482 43.9197C87.7597 46.0578 93.7195 47.4529 94.6443 50.2805C95.2001 52.0016 94.0242 53.819 93.6875 54.6368Z" fill="#1265E5"/>
<path opacity="0.2" d="M94.6442 50.2805C95.0879 52.5308 94.1097 53.6105 93.6874 54.6368C93.2652 55.663 92.0304 56.3365 90.3039 56.5717C90.0881 56.6084 89.8704 56.6334 89.6518 56.6466C88.3279 56.7244 86.9995 56.6545 85.6911 56.4381C85.504 56.4381 85.3169 56.3793 85.1245 56.3472C83.5886 56.0715 82.0753 55.682 80.5971 55.182L80.0626 55.0003C79.4693 54.7918 78.86 54.562 78.2506 54.3107C77.6413 54.0595 77.064 53.7762 76.4921 53.525L76.0003 53.2898C74.6529 52.6235 73.3543 51.8626 72.1144 51.0128L71.6761 50.7028C70.5937 49.9377 69.602 49.0518 68.7202 48.0622C68.5866 47.9126 68.4636 47.7683 68.346 47.6186C67.1968 46.1647 66.7425 44.775 67.1968 43.6685C67.4962 42.9576 68.1376 40.5256 69.0569 40.1728C70.1877 39.8542 71.3845 39.8542 72.5153 40.1728L73.0498 40.3011C75.7224 40.9853 79.0898 42.5086 82.5267 43.9251C86.5784 45.5981 91.373 47.3353 93.7248 49.3397C93.8648 49.4575 93.9986 49.5824 94.1257 49.7139C94.3134 49.8886 94.4868 50.0781 94.6442 50.2805Z" fill="#1D2B36"/>
<g opacity="0.2">
<path opacity="0.2" d="M73.317 39.8415L73.0711 40.2905L68.7308 48.057C68.5972 47.9073 68.4743 47.763 68.3567 47.6134L72.5259 40.1622L72.852 39.5849L73.317 39.8415Z" fill="#1D2B36"/>
</g>
<g opacity="0.2">
<path opacity="0.2" d="M76.599 43.0111L72.1251 51.0289L71.6868 50.7188L76.1339 42.7653L76.599 43.0111Z" fill="#1D2B36"/>
</g>
<g opacity="0.2">
<path opacity="0.2" d="M84.8252 47.6079L80.5971 55.182L80.0626 55.0003L84.3387 47.3246L84.8252 47.6079Z" fill="#1D2B36"/>
</g>
<g opacity="0.2">
<path opacity="0.2" d="M80.998 45.4699L76.5027 53.5251L76.011 53.2899L80.533 45.1866L80.998 45.4699Z" fill="#1D2B36"/>
</g>
<g opacity="0.2">
<path opacity="0.2" d="M89.8122 49.0725L85.6911 56.4381C85.504 56.4381 85.3169 56.3793 85.1245 56.3472L89.3418 48.8052L89.8122 49.0725Z" fill="#1D2B36"/>
</g>
<path d="M94.6121 52.1354C93.4308 55.0057 86.5623 54.8935 79.2715 51.8841C71.9807 48.8748 67.0311 44.1176 68.2177 41.2473C69.4043 38.3769 76.2675 38.4945 83.5583 41.4985C90.8491 44.5025 95.7934 49.249 94.6121 52.1354Z" fill="#1265E5"/>
<path opacity="0.2" d="M92.132 51.0931C91.2982 53.1189 85.9423 52.8356 80.1749 50.457C74.4075 48.0784 70.4093 44.5025 71.2432 42.4767C72.077 40.4508 77.4328 40.7341 83.2056 43.1127C88.9784 45.4913 92.9712 49.0672 92.132 51.0931Z" fill="white"/>
<path d="M130.526 28.6915C132.429 31.1449 128.805 37.0834 122.567 41.9101C116.33 46.7368 109.739 48.661 107.841 46.1862C107.403 45.6196 105.629 43.7221 105.735 42.8348C106.094 39.911 110.899 36.7146 115.688 33.005C120.146 29.5521 124.31 25.0728 127.223 25.6768C128.992 26.067 129.986 27.9966 130.526 28.6915Z" fill="#1265E5"/>
<path opacity="0.2" d="M127.223 25.6982C129.398 26.4359 129.847 27.8363 130.526 28.6915C131.205 29.5467 131.178 30.9739 130.526 32.5935C130.451 32.7913 130.361 32.989 130.264 33.1921C129.679 34.3804 128.962 35.4992 128.126 36.5275C128.014 36.6772 127.891 36.8215 127.768 36.9712C126.763 38.17 125.669 39.2921 124.497 40.3279L124.085 40.686C123.61 41.0976 123.107 41.5092 122.589 41.9101C122.07 42.311 121.552 42.6905 121.028 43.0486C120.884 43.1555 120.729 43.2571 120.584 43.3586C119.335 44.1964 118.028 44.9431 116.672 45.5929C116.506 45.6784 116.346 45.7479 116.191 45.8227C114.985 46.3802 113.721 46.7997 112.422 47.0735C112.23 47.1163 112.043 47.1483 111.856 47.1751C110.022 47.4477 108.59 47.1751 107.857 46.2076C107.387 45.5982 105.596 43.829 105.751 42.8615C106.031 41.7178 106.625 40.6753 107.467 39.8522C107.585 39.7186 107.713 39.5849 107.847 39.446C109.776 37.4469 112.764 35.3035 115.704 33.0318C119.173 30.3592 123.064 27.0505 125.967 26.0136C126.142 25.9492 126.32 25.8939 126.501 25.8479C126.738 25.7805 126.979 25.7304 127.223 25.6982Z" fill="#1D2B36"/>
<g opacity="0.2">
<path opacity="0.2" d="M107.563 39.0076L107.831 39.4459L112.406 47.0735C112.214 47.1162 112.027 47.1483 111.84 47.175L107.451 39.8415L107.109 39.307L107.563 39.0076Z" fill="#1D2B36"/>
</g>
<g opacity="0.2">
<path opacity="0.2" d="M111.941 37.7354L116.656 45.5928C116.49 45.6783 116.33 45.7478 116.174 45.8227L111.481 38.008L111.941 37.7354Z" fill="#1D2B36"/>
</g>
<g opacity="0.2">
<path opacity="0.2" d="M120.018 32.8928L124.481 40.3332L124.069 40.6914L119.558 33.1654L120.018 32.8928Z" fill="#1D2B36"/>
</g>
<g opacity="0.2">
<path opacity="0.2" d="M116.265 35.1431L121.012 43.0486C120.867 43.1555 120.712 43.257 120.568 43.3586L115.8 35.4157L116.265 35.1431Z" fill="#1D2B36"/>
</g>
<g opacity="0.2">
<path opacity="0.2" d="M123.77 29.2848L128.11 36.5274C127.998 36.6771 127.875 36.8214 127.752 36.9711L123.31 29.5627L123.77 29.2848Z" fill="#1D2B36"/>
</g>
<path d="M120.949 39.8123C127.183 34.984 130.696 29.0813 128.796 26.6285C126.896 24.1756 120.303 26.1013 114.069 30.9297C107.835 35.7581 104.322 41.6607 106.222 44.1136C108.122 46.5664 114.715 44.6407 120.949 39.8123Z" fill="#1265E5"/>
<path opacity="0.2" d="M120.176 38.3247C125.11 34.5032 128.02 29.9995 126.677 28.2655C125.334 26.5314 120.246 28.2237 115.312 32.0451C110.378 35.8666 107.468 40.3703 108.811 42.1043C110.154 43.8383 115.242 42.1461 120.176 38.3247Z" fill="white"/>
<path d="M104.725 17.1994C104.116 20.7165 96.2263 22.2024 87.2892 20.5989C78.3521 18.9953 71.6119 14.8635 72.2372 11.3464C72.3816 10.5286 72.6328 7.55136 73.472 6.95804C76.2461 5.00172 82.6924 6.63733 89.5556 7.85603C95.9697 8.99455 102.988 9.08541 104.725 12.0413C105.778 13.8586 104.902 16.1945 104.725 17.1994Z" fill="#1265E5"/>
<path opacity="0.2" d="M104.725 12.0466C105.794 14.4733 104.944 15.9219 104.725 17.1833C104.506 18.4448 103.282 19.4978 101.4 20.1926C101.171 20.2835 100.93 20.3583 100.684 20.4332C99.2125 20.8468 97.6995 21.096 96.1729 21.1762C95.9538 21.1762 95.74 21.1762 95.5155 21.2136C93.7171 21.2797 91.9162 21.2136 90.1275 21.0158L89.5022 20.9356C88.7806 20.8448 88.0376 20.7379 87.2946 20.6042C86.5516 20.4706 85.83 20.3209 85.1191 20.1552C84.916 20.1125 84.7129 20.059 84.5098 20.0109C82.8304 19.5962 81.1834 19.0603 79.5815 18.4074C79.3838 18.3325 79.1967 18.247 79.0096 18.1722C77.6037 17.5738 76.2697 16.8189 75.0328 15.9219C74.8457 15.7882 74.6747 15.6546 74.4983 15.5156C72.8413 14.1633 71.9914 12.7094 72.232 11.3571C72.3923 10.4805 72.5206 7.61549 73.4613 6.96873C74.4021 6.32196 75.7491 6.11885 77.3526 6.1135H77.994C81.2011 6.22041 85.3329 7.11305 89.5503 7.86137C94.5213 8.74866 100.342 9.52371 103.474 11.2021C103.658 11.2995 103.837 11.4065 104.009 11.5228C104.261 11.6785 104.5 11.8536 104.725 12.0466Z" fill="#1D2B36"/>
<g opacity="0.2">
<path opacity="0.2" d="M78.1704 5.56827L77.9993 6.12951L75.0274 15.9325C74.8404 15.7989 74.6693 15.6653 74.4929 15.5263L77.3472 6.12416L77.5717 5.39188L78.1704 5.56827Z" fill="#1D2B36"/>
</g>
<g opacity="0.2">
<path opacity="0.2" d="M82.639 8.30505L79.5762 18.402C79.3784 18.3272 79.1914 18.2417 79.0043 18.1669L82.051 8.11797L82.639 8.30505Z" fill="#1D2B36"/>
</g>
<g opacity="0.2">
<path opacity="0.2" d="M93.0246 11.4694L90.1222 21.0319L89.4968 20.9517L92.4313 11.2876L93.0246 11.4694Z" fill="#1D2B36"/>
</g>
<g opacity="0.2">
<path opacity="0.2" d="M88.1979 10.0047L85.1137 20.1605C84.9106 20.1178 84.7075 20.0643 84.5044 20.0162L87.6046 9.81232L88.1979 10.0047Z" fill="#1D2B36"/>
</g>
<g opacity="0.2">
<path opacity="0.2" d="M98.9952 11.8863L96.1676 21.1922C95.9484 21.1922 95.7346 21.1922 95.5101 21.2296L98.4019 11.7099L98.9952 11.8863Z" fill="#1D2B36"/>
</g>
<path d="M105.141 14.1286C105.767 10.6119 99.0272 6.47135 90.0872 4.88049C81.1471 3.28963 73.3924 4.85087 72.7666 8.3676C72.1409 11.8843 78.8809 16.0249 87.821 17.6157C96.761 19.2066 104.516 17.6453 105.141 14.1286Z" fill="#1265E5"/>
<path opacity="0.2" d="M102.099 13.591C102.541 11.1061 97.1649 8.07111 90.0908 6.81228C83.0166 5.55346 76.9234 6.54744 76.4812 9.03241C76.039 11.5174 81.4153 14.5523 88.4894 15.8111C95.5636 17.07 101.657 16.076 102.099 13.591Z" fill="white"/>
<path d="M151.388 106.993L96.3815 110.2C94.4384 110.314 92.5318 110.778 90.753 111.568L31.0049 138.294C29.9565 138.755 29.098 139.561 28.5727 140.579C28.0474 141.596 27.8871 142.763 28.1185 143.885L37.991 190.575C38.1579 191.327 38.4945 192.03 38.9751 192.632C39.4557 193.234 40.0675 193.718 40.7639 194.047C41.4602 194.376 42.2225 194.542 42.9926 194.531C43.7627 194.52 44.5201 194.333 45.207 193.985L104.18 164.544L158.637 162.721C159.307 162.703 159.965 162.543 160.569 162.251C161.172 161.958 161.706 161.541 162.135 161.026C162.565 160.511 162.879 159.911 163.059 159.265C163.238 158.619 163.277 157.942 163.175 157.28L155.889 112.573C155.51 110.264 153.756 106.923 151.388 106.993Z" fill="#1265E5"/>
<path opacity="0.1" d="M151.388 106.993L96.3815 110.2C94.4384 110.314 92.5318 110.778 90.753 111.568L31.0049 138.294C29.9565 138.755 29.098 139.561 28.5727 140.579C28.0474 141.596 27.8871 142.763 28.1185 143.885L37.991 190.575C38.1579 191.327 38.4945 192.03 38.9751 192.632C39.4557 193.234 40.0675 193.718 40.7639 194.047C41.4602 194.376 42.2225 194.542 42.9926 194.531C43.7627 194.52 44.5201 194.333 45.207 193.985L104.18 164.544L158.637 162.721C159.307 162.703 159.965 162.543 160.569 162.251C161.172 161.958 161.706 161.541 162.135 161.026C162.565 160.511 162.879 159.911 163.059 159.265C163.238 158.619 163.277 157.942 163.175 157.28L155.889 112.573C155.51 110.264 153.756 106.923 151.388 106.993Z" fill="#1D2B36"/>
<path d="M40.9784 76.5918L12.1116 103.201L63.9142 159.398L92.781 132.789L40.9784 76.5918Z" fill="#1265E5"/>
<path opacity="0.5" d="M92.7735 132.794L63.9043 159.402L12.1097 103.208L31.053 85.7455L40.9789 76.5946L42.6306 78.3906L92.7735 132.794Z" fill="#F1F3F5"/>
<path d="M41.1638 80.0273L15.6926 103.507L64.1478 156.072L89.6189 132.593L41.1638 80.0273Z" stroke="#1265E5" stroke-miterlimit="10"/>
<path d="M58.387 124.273C61.3086 121.58 60.9391 116.426 57.5617 112.763C54.1843 109.099 49.078 108.312 46.1564 111.005C43.2348 113.698 43.6044 118.851 46.9818 122.515C50.3591 126.179 55.4655 126.966 58.387 124.273Z" fill="#1265E5"/>
<path opacity="0.1" d="M63.5996 136.594L53.3423 140.138L31.053 85.7455L40.9789 76.5946L42.6306 78.3906L63.5996 136.594Z" fill="#1D2B36"/>
<path d="M65.5981 54.5753L28.6892 67.958L54.7422 139.811L91.6511 126.428L65.5981 54.5753Z" fill="#1265E5"/>
<path opacity="0.5" d="M65.5981 54.5753L28.6892 67.958L54.7422 139.811L91.6511 126.428L65.5981 54.5753Z" fill="#F1F3F5"/>
<path d="M64.4381 57.8154L31.8708 69.6239L56.2403 136.834L88.8075 125.025L64.4381 57.8154Z" stroke="#1265E5" stroke-miterlimit="10"/>
<path d="M63.2261 105.275C66.9616 103.921 68.6128 99.0253 66.9142 94.3407C65.2156 89.656 60.8105 86.9564 57.075 88.3108C53.3395 89.6653 51.6883 94.5609 53.3868 99.2455C55.0854 103.93 59.4906 106.63 63.2261 105.275Z" fill="#1265E5"/>
<path d="M151.747 108.89L97.4933 111.947C95.5701 112.053 93.6832 112.515 91.929 113.311L33.0575 139.887C32.0205 140.355 31.1745 141.164 30.6594 142.178C30.1443 143.193 29.9909 144.353 30.2245 145.467L40.097 192.178C40.2561 192.926 40.5843 193.626 41.0564 194.227C41.5286 194.827 42.1322 195.312 42.8208 195.643C43.5093 195.974 44.2646 196.142 45.0285 196.136C45.7925 196.129 46.5447 195.947 47.2275 195.605L105.329 166.329L159.037 164.629C159.702 164.608 160.355 164.446 160.952 164.152C161.549 163.859 162.077 163.442 162.5 162.928C162.923 162.415 163.231 161.817 163.405 161.175C163.578 160.532 163.613 159.861 163.506 159.204L156.199 114.502C155.82 112.172 154.088 108.826 151.747 108.89Z" fill="#1265E5"/>
<path opacity="0.2" d="M99.7008 120.126L146.252 117.261" stroke="#1D2B36" stroke-width="2" stroke-linecap="round" stroke-linejoin="round"/>
<path opacity="0.2" d="M94.1259 121.328L102.63 160.391" stroke="#1D2B36" stroke-width="2" stroke-linecap="round" stroke-linejoin="round"/>
<path opacity="0.2" d="M37.4244 156.596L43.4217 186.641C43.4217 186.641 48.0185 174.721 37.4244 156.596Z" fill="#F1F3F5"/>
<path opacity="0.2" d="M38.2101 156.948C38.4185 157.483 91.4799 134.713 91.4799 134.713C91.6237 139.875 90.3329 144.976 87.7512 149.449C85.1694 153.922 81.3978 157.591 76.8556 160.049C60.8842 169.002 38.2101 156.948 38.2101 156.948Z" fill="#F1F3F5"/>
<path d="M73.4561 157.836C74.7255 157.836 75.7546 156.807 75.7546 155.537C75.7546 154.268 74.7255 153.239 73.4561 153.239C72.1868 153.239 71.1577 154.268 71.1577 155.537C71.1577 156.807 72.1868 157.836 73.4561 157.836Z" fill="#1265E5"/>
<path opacity="0.2" d="M91.5067 134.713C91.5067 134.713 98.0866 144.617 96.4937 161.486L91.5067 134.713Z" fill="#1D2B36"/>
<g opacity="0.2">
<path opacity="0.2" d="M34.8855 144.794L36.1095 144.254" stroke="#F1F3F5" stroke-linecap="round" stroke-linejoin="round"/>
<path opacity="0.2" d="M38.6484 143.131L88.198 121.227" stroke="#F1F3F5" stroke-linecap="round" stroke-linejoin="round" stroke-dasharray="5.2 5.2"/>
<path opacity="0.2" d="M89.4702 120.666L90.6889 120.126" stroke="#F1F3F5" stroke-linecap="round" stroke-linejoin="round"/>
</g>
<path opacity="0.2" d="M101.262 128.908L147.813 126.037" stroke="#1D2B36" stroke-width="2" stroke-linecap="round" stroke-linejoin="round"/>
<path opacity="0.2" d="M103.357 139.86L149.908 136.99" stroke="#1D2B36" stroke-width="2" stroke-linecap="round" stroke-linejoin="round"/>
<path d="M139.704 62.056C139.704 62.056 138.533 74.5262 133.899 75.6006C131.029 76.2205 128.037 75.9213 125.347 74.7454L121.579 71.8483L119.74 78.2625C119.74 78.2625 121.75 80.9939 125.946 79.1017C125.946 79.1017 133.429 82.3943 137.566 79.1017C141.703 75.8091 143.029 66.7758 143.029 66.7758L139.704 62.056Z" fill="#B97964"/>
<path d="M143.43 56.0159C143.43 56.0159 140.196 50.5051 141.666 40.515C143.136 30.5249 151.511 29.2901 154.745 30.0117C157.979 30.7333 160.625 33.8389 162.827 39.7506C165.029 45.6624 165.842 47.2018 169.514 46.1648C173.186 45.1278 182.957 41.8887 185.678 44.7697C186.46 45.5567 187.037 46.5243 187.357 47.5871C187.676 48.6499 187.729 49.7751 187.511 50.8632C187.511 50.8632 201.104 47.5599 199.928 59.6827C198.752 71.8055 179.135 83.1212 160.475 71.1427C141.815 59.1642 143.43 56.0159 143.43 56.0159Z" fill="#1D2B36"/>
<path d="M143.28 85.3555C143.28 85.3555 139.586 117.122 139.709 132.019C139.832 146.916 145.124 182.023 145.124 182.023H151.65C151.65 182.023 150.79 153.95 150.913 144.345C151.036 134.739 152.757 118.848 152.757 118.848C152.757 118.848 154.847 133.131 157.311 138.176C159.775 143.222 173.443 161.08 182.925 166.623L187.356 162.556C187.356 162.556 177.505 150.369 173.811 144.334C170.118 138.299 166.799 136.589 165.441 125.364C164.083 114.139 166.43 96.1848 162.49 85.3501L143.28 85.3555Z" fill="#1D2B36"/>
<path opacity="0.2" d="M152.757 118.848L149.919 98.713C149.919 98.713 147.679 110.814 152.089 125.594L152.757 118.848Z" fill="#1D2B36"/>
<path d="M146.466 183.803L146.685 190.04L151.062 190.404L151.282 189.821V183.364L146.466 183.803Z" fill="#B97964"/>
<path d="M144.386 181.429L144.787 183.765L152.303 183.947L152.778 181.141L144.386 181.429Z" fill="#1265E5"/>
<path d="M180.867 167.056L187.832 160.567L189.366 163.01L183.385 168.483L180.867 167.056Z" fill="#1265E5"/>
<path d="M184.224 167.056L188.821 170.926L191.771 167.457L187.998 163.555L184.224 167.056Z" fill="#B97964"/>
<path d="M192.664 167.19L195.443 168.9C195.57 168.978 195.678 169.083 195.76 169.207C195.842 169.331 195.896 169.472 195.918 169.619C195.94 169.766 195.929 169.916 195.887 170.059C195.845 170.202 195.772 170.333 195.673 170.445C193.658 172.722 188.511 178.506 187.998 178.912C187.362 179.446 186.592 178.548 186.394 177.747C186.394 177.747 187.853 175.812 187.998 174.571C188.058 173.614 188.058 172.653 187.998 171.696C187.986 171.456 188.067 171.221 188.222 171.038L191.328 167.393C191.488 167.203 191.712 167.078 191.958 167.04C192.203 167.003 192.454 167.056 192.664 167.19Z" fill="#1D2B36"/>
<path d="M152.131 190.575L152.709 193.782C152.735 193.929 152.729 194.079 152.692 194.224C152.654 194.368 152.585 194.502 152.489 194.616C152.394 194.731 152.275 194.823 152.14 194.887C152.005 194.951 151.858 194.984 151.709 194.985C148.668 194.985 140.928 195.017 140.281 194.91C139.474 194.776 139.618 193.622 140.094 192.948C140.094 192.948 142.505 192.745 143.515 192.013C144.266 191.423 144.981 190.788 145.653 190.11C145.825 189.942 146.054 189.844 146.295 189.837L151.078 189.725C151.327 189.716 151.57 189.797 151.764 189.953C151.957 190.109 152.088 190.33 152.131 190.575Z" fill="#1D2B36"/>
<path d="M163.191 67.7378L169.861 63.0554C169.861 63.0554 168.087 55.9571 165.457 55.6043C162.827 55.2515 149.774 52.766 141.473 55.6043C141.473 55.6043 138.491 56.4542 137.571 64.83L141.12 65.9632C141.12 65.9632 142.393 81.6459 143.178 84.0619H162.122C162.122 84.0619 162.335 70.5761 163.191 67.7378Z" fill="#1265E5"/>
<path d="M164.628 66.7277C164.628 66.7277 167.157 73.9437 167.606 77.8243C167.606 77.8243 161.598 75.4296 160.048 74.3339L158.872 70.1112L154.895 68.1709L153.714 71.378L157.033 75.4938C157.033 75.4938 166.082 83.9605 170.668 82.0255C175.255 80.0906 168.856 63.7772 168.856 63.7772L164.628 66.7277Z" fill="#B97964"/>
<path d="M147.658 35.1325C147.658 35.1325 145.343 39.7507 145.519 43.5083C145.696 47.266 147.593 48.8 151.201 49.3292C151.201 49.3292 152.741 54.1399 148.7 54.6263C148.39 54.6637 148.283 55.8877 148.304 56.0855C148.411 56.8659 149.186 57.2935 149.908 57.4752C150.668 57.6435 151.444 57.7296 152.222 57.7318C153.04 57.76 153.853 57.6019 154.6 57.2694C155.348 56.937 156.009 56.4389 156.536 55.8129C156.621 55.7113 157.434 54.6744 157.434 54.6744C157.434 54.6744 155.504 53.7176 156.183 47.4531C157.104 46.8536 157.811 45.9779 158.204 44.9515C158.572 44.7558 158.898 44.4887 159.163 44.1656C159.427 43.8426 159.624 43.4702 159.743 43.07C160.032 41.8193 158.925 40.0874 156.905 41.8193C156.905 41.8193 153.099 39.895 151.656 33.1548C150.586 34.248 149.176 34.9453 147.658 35.1325Z" fill="#B97964"/>
<path d="M148.743 42.4821L149.069 40.0126L147.321 41.9476C147.501 42.1395 147.723 42.2875 147.97 42.3801C148.216 42.4728 148.481 42.5077 148.743 42.4821Z" fill="#A24E3F"/>
<path d="M149.758 44.2887C149.758 44.2887 151.602 44.572 152.49 43.3907" stroke="#1D2B36" stroke-width="0.5" stroke-linecap="round" stroke-linejoin="round"/>
<path d="M151.602 36.5543C152.021 36.4353 152.464 36.4315 152.884 36.5435C153.305 36.6555 153.688 36.8789 153.992 37.1903" stroke="#1D2B36" stroke-width="0.5" stroke-linecap="round" stroke-linejoin="round"/>
<path d="M148.411 36.0198C148.411 36.0198 147.342 35.8541 146.867 36.4581" stroke="#1D2B36" stroke-width="0.5" stroke-linecap="round" stroke-linejoin="round"/>
<path d="M152.345 39.8041C152.297 40.1782 152.057 40.4508 151.811 40.4188C151.565 40.3867 151.399 40.0607 151.447 39.6865C151.495 39.3123 151.736 39.0397 151.982 39.0718C152.228 39.1039 152.393 39.4299 152.345 39.8041Z" fill="#1D2B36"/>
<path d="M148.078 38.9768C148.127 38.605 147.964 38.2774 147.715 38.245C147.466 38.2127 147.225 38.4879 147.177 38.8597C147.129 39.2315 147.291 39.5591 147.54 39.5914C147.789 39.6237 148.03 39.3485 148.078 38.9768Z" fill="#1D2B36"/>
<path d="M151.987 39.0718L151.143 38.703C151.154 38.7955 151.189 38.8834 151.244 38.9581C151.3 39.0328 151.374 39.0917 151.459 39.129C151.545 39.1663 151.638 39.1806 151.731 39.1706C151.823 39.1605 151.912 39.1265 151.987 39.0718Z" fill="#1D2B36"/>
<path d="M147.797 38.2807L146.952 37.9119C146.963 38.0044 146.998 38.0923 147.054 38.167C147.109 38.2417 147.183 38.3006 147.269 38.3379C147.354 38.3752 147.448 38.3895 147.54 38.3795C147.633 38.3694 147.721 38.3354 147.797 38.2807Z" fill="#1D2B36"/>
<path d="M142.516 83.2282V85.4571L163.041 85.6281L162.49 82.9769L142.516 83.2282Z" fill="#1265E5"/>
<path opacity="0.4" d="M142.516 83.2282V85.4571L163.041 85.6281L162.49 82.9769L142.516 83.2282Z" fill="white"/>
<path d="M142.767 72.4094L131.478 111.675C131.102 112.99 130.342 114.162 129.294 115.041C128.246 115.919 126.958 116.463 125.598 116.603C124.732 116.686 123.858 116.606 123.022 116.368L101.443 110.162C99.6988 109.659 98.2252 108.484 97.3455 106.896C96.4657 105.308 96.2517 103.436 96.7502 101.69L108.044 62.4139C108.549 60.6719 109.723 59.2009 111.31 58.3232C112.897 57.4456 114.768 57.2328 116.511 57.7316L138.106 63.932C139.846 64.4408 141.314 65.6187 142.188 67.2077C143.061 68.7967 143.269 70.6672 142.767 72.4094Z" fill="#1265E5"/>
<path opacity="0.2" d="M142.767 72.4094L131.478 111.675C131.102 112.99 130.342 114.162 129.294 115.041C128.246 115.919 126.958 116.463 125.598 116.603C124.732 116.686 123.858 116.606 123.022 116.368L101.443 110.162C99.6988 109.659 98.2252 108.484 97.3455 106.896C96.4657 105.308 96.2517 103.436 96.7502 101.69L108.044 62.4139C108.549 60.6719 109.723 59.2009 111.31 58.3232C112.897 57.4456 114.768 57.2328 116.511 57.7316L138.106 63.932C139.846 64.4408 141.314 65.6187 142.188 67.2077C143.061 68.7967 143.269 70.6672 142.767 72.4094Z" fill="#1D2B36"/>
<path d="M140.89 72.8743L129.602 112.145C129.316 113.145 128.806 114.066 128.11 114.839C127.415 115.611 126.552 116.215 125.587 116.603C124.721 116.686 123.848 116.606 123.011 116.368L101.443 110.162C99.6988 109.659 98.2252 108.484 97.3455 106.896C96.4657 105.308 96.2517 103.436 96.7502 101.69L108.044 62.4138C108.33 61.4156 108.841 60.4959 109.536 59.7251C110.232 58.9543 111.095 58.3528 112.059 57.9666C112.925 57.8785 113.799 57.9583 114.635 58.2018L136.187 64.4289C137.928 64.929 139.4 66.0982 140.282 67.6808C141.163 69.2635 141.382 71.1307 140.89 72.8743Z" fill="#1265E5"/>
<path opacity="0.5" d="M140.89 72.8743L129.602 112.145C129.316 113.145 128.806 114.066 128.11 114.839C127.415 115.611 126.552 116.215 125.587 116.603C124.721 116.686 123.848 116.606 123.011 116.368L101.443 110.162C99.6988 109.659 98.2252 108.484 97.3455 106.896C96.4657 105.308 96.2517 103.436 96.7502 101.69L108.044 62.4138C108.33 61.4156 108.841 60.4959 109.536 59.7251C110.232 58.9543 111.095 58.3528 112.059 57.9666C112.925 57.8785 113.799 57.9583 114.635 58.2018L136.187 64.4289C137.928 64.929 139.4 66.0982 140.282 67.6808C141.163 69.2635 141.382 71.1307 140.89 72.8743Z" fill="#F1F3F5"/>
<path d="M110.541 76.2137L108.231 75.5627L99.9171 105.063L102.227 105.714L110.541 76.2137Z" fill="#F1F3F5"/>
<path d="M105.543 106.65L103.234 105.982L111.546 76.493L113.849 77.1558L105.543 106.65Z" fill="#F1F3F5"/>
<path d="M108.9 107.612L106.591 106.95L114.902 77.4605L117.211 78.1232L108.9 107.612Z" fill="#F1F3F5"/>
<path opacity="0.5" d="M130.653 81.9879L128.343 81.3369L120.029 110.837L122.339 111.488L130.653 81.9879Z" fill="#1D2B36"/>
<path d="M130.361 73.6494L129.238 77.653L127.87 77.2681C127.207 77.0801 126.646 76.6369 126.309 76.0357C125.972 75.4346 125.888 74.7244 126.074 74.061L126.822 71.3884L129.586 72.1795C129.883 72.2719 130.132 72.4785 130.277 72.7541C130.422 73.0297 130.452 73.3517 130.361 73.6494Z" fill="#F1F3F5"/>
<path d="M129.703 71.6877L126.94 70.8966L127.768 67.9674C127.861 67.6388 128.017 67.3317 128.228 67.0635C128.439 66.7954 128.702 66.5715 128.999 66.4047C129.297 66.2379 129.625 66.1315 129.964 66.0914C130.303 66.0514 130.647 66.0786 130.975 66.1714L132.397 66.5723L131.157 70.8859C131.116 71.035 131.045 71.1744 130.949 71.2959C130.854 71.4173 130.734 71.5184 130.599 71.5931C130.463 71.6678 130.314 71.7147 130.161 71.7309C130.007 71.7471 129.851 71.7324 129.703 71.6877Z" fill="#F1F3F5"/>
<path d="M132.322 72.9812L135.102 73.7776L134.364 76.3914C134.273 76.7208 134.117 77.0288 133.906 77.2977C133.695 77.5666 133.433 77.791 133.135 77.958C132.837 78.125 132.508 78.2313 132.169 78.2706C131.829 78.31 131.485 78.2817 131.157 78.1874L129.714 77.7812L130.863 73.783C130.905 73.634 130.977 73.495 131.073 73.3739C131.17 73.2527 131.289 73.152 131.425 73.0774C131.561 73.0028 131.71 72.9559 131.864 72.9394C132.018 72.9229 132.174 72.9371 132.322 72.9812Z" fill="#F1F3F5"/>
<path d="M136.085 70.3086L135.246 73.2805L132.467 72.4841C132.169 72.3971 131.918 72.1961 131.768 71.9248C131.617 71.6536 131.58 71.334 131.665 71.0356L132.905 66.722L134.289 67.1122C134.617 67.2042 134.924 67.3598 135.191 67.5702C135.459 67.7806 135.683 68.0416 135.849 68.3384C136.016 68.6353 136.123 68.962 136.163 69.3001C136.204 69.6381 136.177 69.9808 136.085 70.3086Z" fill="#F1F3F5"/>
</svg>
