<svg width="200" height="200" viewBox="0 0 200 200" fill="none" xmlns="http://www.w3.org/2000/svg">
<path d="M200 157.335H0V157.435H200V157.335Z" fill="#EBEBEB"/>
<path d="M179.962 163.771H148.934V163.871H179.962V163.771Z" fill="#EBEBEB"/>
<path d="M133.331 162.371H111.199V162.471H133.331V162.371Z" fill="#EBEBEB"/>
<path d="M166.311 160.059H142.703V160.159H166.311V160.059Z" fill="#EBEBEB"/>
<path d="M26.0604 160.731H20.9844V160.831H26.0604V160.731Z" fill="#EBEBEB"/>
<path d="M58.269 160.731H29.625V160.831H58.269V160.731Z" fill="#EBEBEB"/>
<path d="M88.0016 162.419H69.2656V162.519H88.0016V162.419Z" fill="#EBEBEB"/>
<path d="M94.8012 139.495H17.5652C16.9601 139.494 16.3802 139.253 15.9527 138.825C15.5252 138.396 15.2852 137.816 15.2852 137.211V28.639C15.2904 28.0374 15.5328 27.4622 15.9597 27.0383C16.3866 26.6144 16.9635 26.376 17.5652 26.375H94.8012C95.4069 26.375 95.9879 26.6156 96.4162 27.044C96.8445 27.4723 97.0852 28.0532 97.0852 28.659V137.211C97.0852 137.817 96.8445 138.398 96.4162 138.826C95.9879 139.254 95.4069 139.495 94.8012 139.495ZM17.5652 26.455C16.9866 26.4561 16.4321 26.6866 16.0234 27.0961C15.6147 27.5056 15.3852 28.0605 15.3852 28.639V137.211C15.3852 137.79 15.6147 138.344 16.0234 138.754C16.4321 139.163 16.9866 139.394 17.5652 139.395H94.8012C95.3801 139.394 95.935 139.164 96.3443 138.754C96.7537 138.345 96.9841 137.79 96.9852 137.211V28.639C96.9841 28.0601 96.7537 27.5052 96.3443 27.0958C95.935 26.6865 95.3801 26.4561 94.8012 26.455H17.5652Z" fill="#EBEBEB"/>
<path d="M181.325 139.495H104.085C103.479 139.494 102.899 139.253 102.471 138.825C102.043 138.397 101.802 137.816 101.801 137.211V28.639C101.807 28.037 102.05 27.4618 102.478 27.038C102.905 26.6142 103.483 26.376 104.085 26.375H181.325C181.926 26.3771 182.502 26.6159 182.928 27.0397C183.354 27.4635 183.596 28.0381 183.601 28.639V137.211C183.601 137.815 183.361 138.395 182.935 138.823C182.508 139.251 181.929 139.493 181.325 139.495ZM104.085 26.455C103.506 26.4561 102.951 26.6865 102.542 27.0958C102.132 27.5052 101.902 28.0601 101.901 28.639V137.211C101.902 137.79 102.132 138.345 102.542 138.754C102.951 139.164 103.506 139.394 104.085 139.395H181.325C181.904 139.394 182.459 139.164 182.868 138.754C183.277 138.345 183.508 137.79 183.509 137.211V28.639C183.508 28.0601 183.277 27.5052 182.868 27.0958C182.459 26.6865 181.904 26.4561 181.325 26.455H104.085Z" fill="#EBEBEB"/>
<path d="M75.5712 43.0869H22.5352V129.639H75.5712V43.0869Z" fill="#E6E6E6"/>
<path d="M77.193 43.0869H23.293V129.639H77.193V43.0869Z" fill="#F0F0F0"/>
<path d="M75.5712 129.639H22.5352V132.091H75.5712V129.639Z" fill="#E6E6E6"/>
<path d="M79.8883 129.639H25.9883V132.091H79.8883V129.639Z" fill="#F0F0F0"/>
<path d="M74.9219 127.371V45.3511H25.5539L25.5539 127.371H74.9219Z" fill="#FAFAFA"/>
<path d="M36.6875 127.371L42.9955 45.3511H52.8355L46.5275 127.371H36.6875Z" fill="white"/>
<path d="M26.6074 125.115C26.5861 125.116 26.5648 125.112 26.5449 125.104C26.5251 125.096 26.507 125.085 26.4917 125.07C26.4764 125.055 26.4642 125.037 26.456 125.017C26.4477 124.998 26.4434 124.977 26.4434 124.955V46.8272C26.4397 46.8038 26.4411 46.7799 26.4476 46.7571C26.454 46.7343 26.4653 46.7132 26.4807 46.6951C26.4961 46.6771 26.5153 46.6627 26.5368 46.6527C26.5583 46.6428 26.5817 46.6377 26.6054 46.6377C26.6291 46.6377 26.6525 46.6428 26.674 46.6527C26.6956 46.6627 26.7147 46.6771 26.7301 46.6951C26.7455 46.7132 26.7568 46.7343 26.7632 46.7571C26.7697 46.7799 26.7711 46.8038 26.7674 46.8272V124.955C26.7674 124.976 26.7633 124.997 26.7552 125.016C26.7472 125.036 26.7354 125.054 26.7205 125.068C26.7057 125.083 26.688 125.095 26.6686 125.103C26.6492 125.111 26.6284 125.115 26.6074 125.115Z" fill="#F0F0F0"/>
<path d="M48.6445 127.371L54.9485 45.3511H58.7845L52.4805 127.371H48.6445Z" fill="white"/>
<path d="M74.9219 127.371V45.3511H74.6339V127.371H74.9219Z" fill="#E6E6E6"/>
<path opacity="0.6" d="M77.7285 48.767H24.6925L24.4805 46.231H77.5205L77.7285 48.767Z" fill="#EBEBEB"/>
<path opacity="0.6" d="M77.7285 52.9271H24.6925L24.4805 50.3911H77.5205L77.7285 52.9271Z" fill="#EBEBEB"/>
<path opacity="0.6" d="M77.7285 57.0829H24.6925L24.4805 54.5469H77.5205L77.7285 57.0829Z" fill="#EBEBEB"/>
<path opacity="0.6" d="M77.7285 61.243H24.6925L24.4805 58.707H77.5205L77.7285 61.243Z" fill="#EBEBEB"/>
<path opacity="0.6" d="M77.7285 65.3988H24.6925L24.4805 62.8628H77.5205L77.7285 65.3988Z" fill="#EBEBEB"/>
<path opacity="0.6" d="M77.7285 69.559H24.6925L24.4805 67.0229H77.5205L77.7285 69.559Z" fill="#EBEBEB"/>
<path d="M160.324 43.0869H109.5V157.335H160.324V43.0869Z" fill="#F0F0F0"/>
<path d="M160.33 43.0869H110.578V157.335H160.33V43.0869Z" fill="#F5F5F5"/>
<path d="M157.293 154.743V45.6787H113.605V154.743H157.293Z" fill="#F0F0F0"/>
<path d="M117.898 65.975C117.898 62.8157 119.153 59.7859 121.387 57.5519C123.621 55.318 126.651 54.063 129.81 54.063H141.09C142.655 54.063 144.203 54.3711 145.648 54.9698C147.093 55.5685 148.406 56.446 149.512 57.5522C150.618 58.6584 151.495 59.9716 152.093 61.4168C152.691 62.862 152.999 64.4109 152.998 65.975H117.898Z" fill="#FAFAFA"/>
<path d="M153.004 147.963V121.907H117.904V147.963H153.004Z" fill="#F5F5F5"/>
<path d="M117.895 118.547H133.379V73.3109H117.895V118.547Z" fill="#F5F5F5"/>
<path d="M137.516 118.547H153V73.3109H137.516V118.547Z" fill="#F5F5F5"/>
<path d="M147.386 95.7229H153.73C153.991 95.7229 154.242 95.6192 154.426 95.4347C154.611 95.2501 154.714 94.9999 154.714 94.7389C154.713 94.4782 154.609 94.2286 154.425 94.0443C154.241 93.8599 153.991 93.7559 153.73 93.7549H147.386C147.126 93.7559 146.877 93.8601 146.693 94.0445C146.509 94.2289 146.406 94.4786 146.406 94.7389C146.406 94.9992 146.509 95.2488 146.693 95.4333C146.877 95.6177 147.126 95.7218 147.386 95.7229Z" fill="#E0E0E0"/>
<path d="M157.293 154.743V45.6787H156.505V154.743H157.293Z" fill="#F0F0F0"/>
<path d="M182.885 98.4149H164.785L166.389 77.2349H181.281L182.885 98.4149Z" fill="#EBEBEB"/>
<path d="M178.913 98.4149H175.801L175.141 77.2349H178.013L178.913 98.4149Z" fill="#F5F5F5"/>
<path d="M174.742 98.415H172.93V157.335H174.742V98.415Z" fill="#F0F0F0"/>
<path d="M174.725 124.799H172.945C172.503 124.799 172.145 125.157 172.145 125.599V127.379C172.145 127.821 172.503 128.179 172.945 128.179H174.725C175.166 128.179 175.525 127.821 175.525 127.379V125.599C175.525 125.157 175.166 124.799 174.725 124.799Z" fill="#F0F0F0"/>
<path d="M174.725 130.215H172.945C172.503 130.215 172.145 130.573 172.145 131.015V132.795C172.145 133.237 172.503 133.595 172.945 133.595H174.725C175.166 133.595 175.525 133.237 175.525 132.795V131.015C175.525 130.573 175.166 130.215 174.725 130.215Z" fill="#F0F0F0"/>
<path d="M176.701 157.335H170.969C170.969 157.011 171.097 156.7 171.326 156.471C171.555 156.241 171.865 156.112 172.189 156.111H175.477C175.801 156.111 176.113 156.24 176.342 156.469C176.572 156.699 176.701 157.01 176.701 157.335Z" fill="#F0F0F0"/>
<path d="M174.742 98.415H172.93V99.523H174.742V98.415Z" fill="#E0E0E0"/>
<path d="M104.35 98.4149H86.25L87.854 77.2349H102.746L104.35 98.4149Z" fill="#EBEBEB"/>
<path d="M100.377 98.4149H97.2655L96.6055 77.2349H99.4775L100.377 98.4149Z" fill="#F5F5F5"/>
<path d="M96.2026 98.415H94.3906V157.335H96.2026V98.415Z" fill="#F0F0F0"/>
<path d="M96.1894 124.799H94.4094C93.9675 124.799 93.6094 125.157 93.6094 125.599V127.379C93.6094 127.821 93.9675 128.179 94.4094 128.179H96.1894C96.6312 128.179 96.9894 127.821 96.9894 127.379V125.599C96.9894 125.157 96.6312 124.799 96.1894 124.799Z" fill="#F0F0F0"/>
<path d="M96.1894 130.215H94.4094C93.9675 130.215 93.6094 130.573 93.6094 131.015V132.795C93.6094 133.237 93.9675 133.595 94.4094 133.595H96.1894C96.6312 133.595 96.9894 133.237 96.9894 132.795V131.015C96.9894 130.573 96.6312 130.215 96.1894 130.215Z" fill="#F0F0F0"/>
<path d="M98.1656 157.335H92.4336C92.4335 157.014 92.5592 156.707 92.7836 156.478C93.0079 156.249 93.3131 156.117 93.6336 156.111H96.9256C97.246 156.117 97.5512 156.249 97.7756 156.478C98 156.707 98.1257 157.014 98.1256 157.335H98.1656Z" fill="#F0F0F0"/>
<path d="M96.2026 98.415H94.3906V99.523H96.2026V98.415Z" fill="#E0E0E0"/>
<path d="M100.001 175.399C142.834 175.399 177.557 173.372 177.557 170.871C177.557 168.37 142.834 166.343 100.001 166.343C57.1683 166.343 22.4453 168.37 22.4453 170.871C22.4453 173.372 57.1683 175.399 100.001 175.399Z" fill="#F5F5F5"/>
<path opacity="0.1" d="M114.647 45.895L113.895 68.991L132.003 67.739L114.647 45.895Z" fill="#407BFF"/>
<path opacity="0.1" d="M101.802 116.947L102.27 99.8633L34.4375 100.783L101.802 116.947Z" fill="#407BFF"/>
<path d="M33.3203 47.9551H115.32V99.5551C115.32 99.8882 115.188 100.208 114.952 100.443C114.717 100.679 114.397 100.811 114.064 100.811H34.5763C34.4114 100.811 34.248 100.779 34.0957 100.715C33.9433 100.652 33.8048 100.56 33.6882 100.443C33.5716 100.327 33.479 100.188 33.4159 100.036C33.3528 99.8833 33.3203 99.72 33.3203 99.5551V47.9551Z" fill="#407BFF"/>
<path opacity="0.7" d="M33.3203 47.9551H115.32V99.5551C115.32 99.8882 115.188 100.208 114.952 100.443C114.717 100.679 114.397 100.811 114.064 100.811H34.5763C34.4114 100.811 34.248 100.779 34.0957 100.715C33.9433 100.652 33.8048 100.56 33.6882 100.443C33.5716 100.327 33.479 100.188 33.4159 100.036C33.3528 99.8833 33.3203 99.72 33.3203 99.5551V47.9551Z" fill="white"/>
<path opacity="0.9" d="M107.066 51.4033H41.5578C40.9326 51.4033 40.4258 51.9101 40.4258 52.5353V70.9473C40.4258 71.5725 40.9326 72.0793 41.5578 72.0793H107.066C107.691 72.0793 108.198 71.5725 108.198 70.9473V52.5353C108.198 51.9101 107.691 51.4033 107.066 51.4033Z" fill="white"/>
<path opacity="0.7" d="M59.8178 75.2471H41.5578C40.9326 75.2471 40.4258 75.7539 40.4258 76.3791V80.1471C40.4258 80.7723 40.9326 81.2791 41.5578 81.2791H59.8178C60.443 81.2791 60.9498 80.7723 60.9498 80.1471V76.3791C60.9498 75.7539 60.443 75.2471 59.8178 75.2471Z" fill="#407BFF"/>
<path opacity="0.7" d="M83.4428 75.2471H65.1828C64.5576 75.2471 64.0508 75.7539 64.0508 76.3791V80.1471C64.0508 80.7723 64.5576 81.2791 65.1828 81.2791H83.4428C84.068 81.2791 84.5748 80.7723 84.5748 80.1471V76.3791C84.5748 75.7539 84.068 75.2471 83.4428 75.2471Z" fill="#407BFF"/>
<path opacity="0.7" d="M107.064 75.2471H88.8039C88.1787 75.2471 87.6719 75.7539 87.6719 76.3791V80.1471C87.6719 80.7723 88.1787 81.2791 88.8039 81.2791H107.064C107.689 81.2791 108.196 80.7723 108.196 80.1471V76.3791C108.196 75.7539 107.689 75.2471 107.064 75.2471Z" fill="#407BFF"/>
<path opacity="0.3" d="M41.5578 83.7192H59.8178C59.9664 83.7192 60.1136 83.7485 60.251 83.8054C60.3883 83.8623 60.5131 83.9457 60.6182 84.0508C60.7233 84.1559 60.8067 84.2807 60.8636 84.418C60.9205 84.5554 60.9498 84.7026 60.9498 84.8512V100.775H40.4258V84.8512C40.4258 84.551 40.545 84.2631 40.7573 84.0508C40.9696 83.8385 41.2576 83.7192 41.5578 83.7192Z" fill="#407BFF"/>
<path opacity="0.3" d="M65.1988 83.7194H83.4588C83.759 83.7194 84.0469 83.8386 84.2592 84.0509C84.4715 84.2632 84.5908 84.5511 84.5908 84.8514V100.775H64.0508V84.8514C64.0508 84.7013 64.0806 84.5528 64.1385 84.4144C64.1963 84.276 64.2812 84.1505 64.388 84.0452C64.4948 83.9399 64.6215 83.8568 64.7607 83.8009C64.8999 83.7449 65.0488 83.7172 65.1988 83.7194Z" fill="#407BFF"/>
<path opacity="0.3" d="M88.7999 83.7192H107.06C107.36 83.7192 107.648 83.8385 107.86 84.0508C108.073 84.2631 108.192 84.551 108.192 84.8512V100.775H87.6719V84.8512C87.6719 84.5517 87.7906 84.2644 88.002 84.0522C88.2134 83.84 88.5003 83.7203 88.7999 83.7192Z" fill="#407BFF"/>
<path d="M58.3125 42.999H56.3125V43.399H58.3125V42.999Z" fill="#407BFF"/>
<path d="M54.5445 42.999H49.6445V43.399H54.5445V42.999Z" fill="#407BFF"/>
<path d="M111.752 44.3989H36.8764C36.4077 44.3989 35.9437 44.4916 35.5109 44.6715C35.0782 44.8515 34.6853 45.1152 34.3548 45.4475C34.0243 45.7799 33.7628 46.1742 33.5853 46.608C33.4078 47.0417 33.3177 47.5063 33.3204 47.9749H115.32C115.323 47.5053 115.233 47.0397 115.054 46.6052C114.876 46.1707 114.613 45.7758 114.282 45.4433C113.95 45.1108 113.556 44.8473 113.122 44.6681C112.687 44.4888 112.222 44.3974 111.752 44.3989Z" fill="#407BFF"/>
<path d="M38.3576 46.1748C38.3584 46.316 38.3172 46.4542 38.2393 46.5719C38.1613 46.6896 38.0502 46.7814 37.9199 46.8358C37.7896 46.8902 37.6462 46.9047 37.5077 46.8773C37.3692 46.85 37.2419 46.7821 37.1421 46.6823C37.0423 46.5824 36.9744 46.4552 36.9471 46.3167C36.9197 46.1782 36.9342 46.0347 36.9886 45.9045C37.0429 45.7742 37.1348 45.6631 37.2525 45.5851C37.3702 45.5072 37.5084 45.466 37.6496 45.4668C37.837 45.4679 38.0165 45.5428 38.1491 45.6753C38.2816 45.8079 38.3565 45.9874 38.3576 46.1748Z" fill="white"/>
<path d="M40.6426 46.1392C40.6426 46.2792 40.601 46.4161 40.5232 46.5325C40.4454 46.6489 40.3349 46.7397 40.2055 46.7933C40.0761 46.8468 39.9338 46.8609 39.7964 46.8335C39.6591 46.8062 39.5329 46.7388 39.4339 46.6398C39.3349 46.5408 39.2675 46.4146 39.2402 46.2773C39.2128 46.1399 39.2269 45.9976 39.2805 45.8682C39.334 45.7388 39.4248 45.6283 39.5412 45.5505C39.6576 45.4727 39.7945 45.4312 39.9346 45.4312C40.122 45.4322 40.3015 45.5071 40.434 45.6397C40.5666 45.7722 40.6415 45.9517 40.6426 46.1392Z" fill="white"/>
<path d="M42.9316 46.1392C42.9316 46.2792 42.8901 46.4161 42.8123 46.5325C42.7345 46.6489 42.6239 46.7397 42.4946 46.7933C42.3652 46.8468 42.2228 46.8609 42.0855 46.8335C41.9482 46.8062 41.822 46.7388 41.723 46.6398C41.624 46.5408 41.5565 46.4146 41.5292 46.2773C41.5019 46.1399 41.5159 45.9976 41.5695 45.8682C41.6231 45.7388 41.7138 45.6283 41.8303 45.5505C41.9467 45.4727 42.0836 45.4312 42.2236 45.4312C42.4111 45.4322 42.5905 45.5071 42.7231 45.6397C42.8556 45.7722 42.9306 45.9517 42.9316 46.1392Z" fill="white"/>
<path d="M101.157 71.7271H132.757V115.675C132.757 116.099 132.588 116.506 132.288 116.806C131.988 117.106 131.581 117.275 131.157 117.275H102.737C102.312 117.275 101.905 117.106 101.605 116.806C101.305 116.506 101.137 116.099 101.137 115.675V71.7271H101.157Z" fill="#407BFF"/>
<path opacity="0.8" d="M101.157 71.7271H132.757V115.675C132.757 116.099 132.588 116.506 132.288 116.806C131.988 117.106 131.581 117.275 131.157 117.275H102.737C102.312 117.275 101.905 117.106 101.605 116.806C101.305 116.506 101.137 116.099 101.137 115.675V71.7271H101.157Z" fill="white"/>
<path opacity="0.9" d="M129.079 74.103H104.819C104.386 74.103 104.035 74.454 104.035 74.887V83.223C104.035 83.656 104.386 84.007 104.819 84.007H129.079C129.512 84.007 129.863 83.656 129.863 83.223V74.887C129.863 74.454 129.512 74.103 129.079 74.103Z" fill="white"/>
<path opacity="0.7" d="M128.439 85.9673H105.459C104.673 85.9673 104.035 86.6048 104.035 87.3913V92.1313C104.035 92.9177 104.673 93.5553 105.459 93.5553H128.439C129.226 93.5553 129.863 92.9177 129.863 92.1313V87.3913C129.863 86.6048 129.226 85.9673 128.439 85.9673Z" fill="#407BFF"/>
<path opacity="0.7" d="M128.439 96.0669H105.459C104.673 96.0669 104.035 96.7044 104.035 97.4909V102.231C104.035 103.017 104.673 103.655 105.459 103.655H128.439C129.226 103.655 129.863 103.017 129.863 102.231V97.4909C129.863 96.7044 129.226 96.0669 128.439 96.0669Z" fill="#407BFF"/>
<path opacity="0.7" d="M128.439 106.167H105.459C104.673 106.167 104.035 106.805 104.035 107.591V112.331C104.035 113.117 104.673 113.755 105.459 113.755H128.439C129.226 113.755 129.863 113.117 129.863 112.331V107.591C129.863 106.805 129.226 106.167 128.439 106.167Z" fill="#407BFF"/>
<path d="M103.233 67.2554H130.665C131.216 67.2554 131.745 67.4745 132.135 67.8646C132.525 68.2547 132.745 68.7837 132.745 69.3354V71.7354H101.145V69.3354C101.145 69.0616 101.199 68.7904 101.304 68.5376C101.409 68.2847 101.563 68.055 101.757 67.8618C101.951 67.6685 102.181 67.5155 102.434 67.4114C102.687 67.3074 102.959 67.2543 103.233 67.2554Z" fill="#407BFF"/>
<path d="M145.248 168.467H142.32L142.324 161.679H145.256L145.248 168.467Z" fill="#FFB573"/>
<path d="M168.794 162.863L165.99 163.711L162.902 157.555L165.706 156.707L168.794 162.863Z" fill="#FFB573"/>
<path d="M164.904 164.219C164.719 164.29 164.514 164.297 164.324 164.239C164.262 164.21 164.209 164.166 164.169 164.11C164.129 164.055 164.104 163.99 164.096 163.923C164.087 163.883 164.088 163.841 164.1 163.801C164.112 163.762 164.134 163.727 164.164 163.699C164.428 163.447 165.48 163.735 165.6 163.767C165.613 163.772 165.624 163.78 165.632 163.79C165.641 163.801 165.646 163.813 165.648 163.827C165.649 163.84 165.646 163.854 165.639 163.866C165.633 163.878 165.624 163.888 165.612 163.895C165.389 164.029 165.152 164.138 164.904 164.219ZM164.336 163.759C164.305 163.765 164.275 163.78 164.252 163.803C164.241 163.814 164.233 163.828 164.229 163.844C164.226 163.859 164.227 163.876 164.232 163.891C164.236 163.937 164.253 163.982 164.279 164.021C164.306 164.059 164.342 164.09 164.384 164.111C164.74 164.16 165.101 164.07 165.392 163.859C165.05 163.756 164.691 163.722 164.336 163.759Z" fill="#407BFF"/>
<path d="M165.6 163.903H165.564C165.236 163.831 164.516 163.379 164.492 163.043C164.49 162.99 164.505 162.938 164.536 162.894C164.566 162.851 164.61 162.819 164.66 162.803C164.708 162.78 164.76 162.769 164.812 162.769C164.865 162.769 164.917 162.78 164.964 162.803C165.364 162.971 165.636 163.771 165.648 163.807C165.654 163.818 165.657 163.831 165.657 163.843C165.657 163.856 165.654 163.868 165.648 163.879L165.6 163.903ZM164.74 162.923C164.73 162.92 164.719 162.92 164.708 162.923C164.628 162.959 164.628 162.999 164.628 163.019C164.628 163.215 165.12 163.579 165.464 163.715C165.372 163.483 165.16 163.031 164.908 162.915C164.852 162.897 164.791 162.9 164.736 162.923H164.74Z" fill="#407BFF"/>
<path d="M165.706 163.443L168.858 162.491C168.912 162.474 168.971 162.477 169.024 162.499C169.076 162.521 169.119 162.56 169.146 162.611L170.346 164.971C170.374 165.03 170.389 165.095 170.39 165.16C170.391 165.226 170.377 165.291 170.351 165.351C170.324 165.411 170.285 165.465 170.236 165.508C170.187 165.551 170.129 165.584 170.066 165.603C168.962 165.915 168.41 166.003 167.022 166.431C166.17 166.687 163.422 168.071 162.262 168.431C161.102 168.791 160.63 167.655 161.086 167.399C163.122 166.267 164.766 164.599 165.298 163.759C165.392 163.608 165.537 163.496 165.706 163.443Z" fill="#263238"/>
<path d="M141.111 168.639C140.862 168.663 140.613 168.599 140.407 168.459C140.36 168.417 140.325 168.365 140.305 168.306C140.285 168.247 140.28 168.184 140.291 168.123C140.293 168.084 140.306 168.046 140.328 168.014C140.35 167.981 140.38 167.956 140.415 167.939C140.779 167.739 141.931 168.339 142.059 168.407C142.072 168.413 142.083 168.423 142.09 168.436C142.096 168.449 142.098 168.464 142.095 168.479C142.092 168.493 142.084 168.506 142.074 168.516C142.063 168.526 142.049 168.532 142.035 168.535C141.731 168.599 141.422 168.634 141.111 168.639ZM140.607 168.035C140.562 168.032 140.517 168.041 140.475 168.059C140.462 168.067 140.451 168.078 140.442 168.091C140.434 168.104 140.429 168.119 140.427 168.135C140.421 168.175 140.425 168.217 140.438 168.256C140.452 168.294 140.474 168.33 140.503 168.359C140.675 168.519 141.159 168.543 141.807 168.435C141.433 168.233 141.027 168.098 140.607 168.035Z" fill="#407BFF"/>
<path d="M142.024 168.539H141.996C141.648 168.379 140.976 167.739 141.044 167.415C141.044 167.339 141.12 167.239 141.312 167.223C141.383 167.21 141.456 167.215 141.525 167.235C141.595 167.255 141.658 167.29 141.712 167.339C142.068 167.647 142.112 168.435 142.112 168.471C142.112 168.483 142.109 168.494 142.103 168.505C142.098 168.515 142.09 168.524 142.08 168.531C142.063 168.54 142.043 168.543 142.024 168.539ZM141.36 167.339H141.32C141.192 167.339 141.184 167.403 141.18 167.419C141.14 167.615 141.58 168.115 141.944 168.331C141.927 168 141.805 167.683 141.596 167.427C141.529 167.373 141.445 167.346 141.36 167.351V167.339Z" fill="#407BFF"/>
<path d="M142.352 168.127H145.552C145.61 168.126 145.665 168.146 145.709 168.183C145.753 168.219 145.783 168.27 145.792 168.327L146.256 170.935C146.268 170.999 146.264 171.065 146.247 171.128C146.23 171.191 146.199 171.25 146.157 171.299C146.114 171.349 146.061 171.389 146.002 171.416C145.942 171.442 145.878 171.456 145.812 171.455C144.66 171.435 143.012 171.367 141.544 171.367C139.848 171.367 138.376 171.459 136.388 171.459C135.188 171.459 134.904 170.259 135.412 170.135C137.728 169.631 139.6 169.579 141.636 168.355C141.85 168.216 142.097 168.137 142.352 168.127Z" fill="#263238"/>
<path d="M152.775 61.543C152.259 63.687 151.935 66.343 153.371 67.775C153.371 67.775 152.415 69.951 148.431 69.951C144.791 69.951 146.707 67.775 146.707 67.775C149.107 67.207 149.127 64.247 148.787 62.575L152.775 61.543Z" fill="#DFA977"/>
<path opacity="0.2" d="M142.324 161.683L142.32 165.179H145.252L145.256 161.683H142.324Z" fill="black"/>
<path opacity="0.2" d="M165.706 156.707L162.902 157.559L164.494 160.731L167.302 159.883L165.706 156.707Z" fill="black"/>
<path d="M159.233 70.4546L155.473 72.6146C155.473 72.6146 159.417 81.8146 159.029 83.3026C158.497 85.3026 158.229 89.3866 157.409 92.0386C157.733 92.4026 158.829 93.0546 159.269 93.0386C160.869 89.8386 163.477 84.3786 163.325 82.5266C162.981 78.2946 159.233 70.4546 159.233 70.4546Z" fill="#DFA977"/>
<path d="M157.408 92.0391L154.832 93.1031L157.416 95.2511C157.416 95.2511 159.64 94.2471 159.232 92.3591L157.408 92.0391Z" fill="#DFA977"/>
<path d="M153.391 95.407L155.827 97.235L157.415 95.251L154.831 93.103L153.391 95.407Z" fill="#DFA977"/>
<path d="M158.595 68.4391C161.323 68.9951 163.539 78.7391 163.539 78.7391L157.395 81.6951C157.395 81.6951 155.291 76.9991 154.363 73.5511C153.395 69.9351 155.667 67.8431 158.595 68.4391Z" fill="#407BFF"/>
<path opacity="0.2" d="M156.402 71.7908C155.258 70.5908 155.778 75.3668 156.066 78.5428C156.31 79.1748 156.546 79.7428 156.75 80.2268C158.402 77.8348 158.002 73.4708 156.402 71.7908Z" fill="black"/>
<path d="M146.802 68.6629C146.802 67.6229 146.65 67.1309 146.934 66.7469C147.218 66.3629 152.85 65.9069 153.822 66.3469C154.154 66.4949 154.346 67.9909 153.93 68.6589C153.322 69.6269 146.802 68.6629 146.802 68.6629Z" fill="#407BFF"/>
<path opacity="0.2" d="M146.802 68.6629C146.802 67.6229 146.65 67.1309 146.934 66.7469C147.218 66.3629 152.85 65.9069 153.822 66.3469C154.154 66.4949 154.346 67.9909 153.93 68.6589C153.322 69.6269 146.802 68.6629 146.802 68.6629Z" fill="black"/>
<path d="M142.163 68.5908C142.163 68.5908 138.315 77.4388 140.875 93.9188H156.551C156.763 91.5188 155.751 79.7748 158.591 68.4388C156.867 68.1037 155.123 67.8818 153.371 67.7748C151.151 67.6467 148.926 67.6467 146.707 67.7748C145.173 67.9295 143.654 68.2023 142.163 68.5908Z" fill="#407BFF"/>
<path d="M144.402 72.7027L140.518 71.1387C140.518 71.1387 135.27 80.0507 134.174 80.7987C131.634 79.4067 130.782 79.9707 128.806 78.5107C128.306 78.5627 127.526 79.2587 127.262 79.6147C128.862 82.6947 134.178 86.5067 136.806 84.1827C140.058 81.3067 144.402 72.7027 144.402 72.7027Z" fill="#DFA977"/>
<path opacity="0.2" d="M144.888 71.6466C144.304 70.1426 143.08 69.5146 141.756 69.7346C141.172 71.5786 140.156 75.6306 140.012 81.7346L141.532 82.0786C141.532 82.0786 145.892 74.2186 144.888 71.6466Z" fill="black"/>
<path d="M145.555 70.5951C146.427 73.2191 141.083 80.9391 141.083 80.9391L135.363 77.7391C136.352 75.3311 137.588 73.0322 139.051 70.8791C141.263 67.8031 144.599 67.7191 145.555 70.5951Z" fill="#407BFF"/>
<path d="M128.902 78.5949L126.29 77.0869L124.762 80.1269C125.817 80.4746 126.922 80.6488 128.034 80.6429L128.902 78.5949Z" fill="#DFA977"/>
<path d="M125.001 77.0869L123.133 78.8629L124.761 80.1269L126.289 77.0869H125.001Z" fill="#DFA977"/>
<path d="M146.282 58.4591C146.258 58.6951 146.114 58.8591 145.962 58.8591C145.81 58.8591 145.702 58.6511 145.726 58.4151C145.75 58.1791 145.894 58.0151 146.05 58.0151C146.206 58.0151 146.306 58.2231 146.282 58.4591Z" fill="#263238"/>
<path d="M146.488 58.479C146.134 59.1859 145.688 59.8423 145.16 60.431C145.312 60.5564 145.49 60.6463 145.681 60.6941C145.872 60.7418 146.071 60.7463 146.264 60.707L146.488 58.479Z" fill="#CF8362"/>
<path d="M146.001 57.6424L145.941 57.6184C145.926 57.6081 145.914 57.5948 145.904 57.5795C145.894 57.5642 145.888 57.547 145.885 57.5292C145.882 57.5113 145.882 57.493 145.887 57.4753C145.891 57.4577 145.898 57.441 145.909 57.4264C146.035 57.2377 146.202 57.0807 146.399 56.9676C146.595 56.8544 146.815 56.7883 147.041 56.7744C147.059 56.7749 147.077 56.779 147.093 56.7863C147.109 56.7936 147.124 56.8041 147.136 56.8171C147.148 56.8301 147.158 56.8453 147.164 56.8621C147.171 56.8788 147.174 56.8966 147.173 56.9144C147.171 56.9516 147.155 56.9866 147.128 57.0126C147.102 57.0385 147.066 57.0535 147.029 57.0544C146.852 57.069 146.681 57.1243 146.529 57.2159C146.377 57.3074 146.249 57.4329 146.153 57.5824C146.136 57.6062 146.113 57.6246 146.086 57.6353C146.059 57.646 146.03 57.6484 146.001 57.6424Z" fill="#263238"/>
<path d="M154.248 58.2546C153.772 61.1426 153.644 62.8506 152.032 64.2546C151.52 64.718 150.891 65.0312 150.212 65.16C149.534 65.2888 148.833 65.2282 148.187 64.9847C147.541 64.7412 146.975 64.3244 146.55 63.7799C146.125 63.2355 145.859 62.5846 145.78 61.8986C145.424 59.2586 146.256 54.9826 149.204 53.9906C149.834 53.7596 150.514 53.6995 151.175 53.8164C151.835 53.9334 152.453 54.2231 152.966 54.6563C153.478 55.0895 153.867 55.6506 154.092 56.2826C154.317 56.9146 154.371 57.595 154.248 58.2546Z" fill="#DFA977"/>
<path d="M148.227 59.4992C147.627 57.5992 146.847 54.6632 148.979 53.5752C151.111 52.4872 152.791 53.9992 155.115 55.3992C157.735 56.9752 156.135 61.9752 152.975 63.1512C150.323 64.1392 147.735 62.1552 148.227 59.4992Z" fill="#263238"/>
<path d="M148.458 55.9748C146.578 56.4828 145.282 55.2748 146.21 53.8828C147.386 52.1108 152.01 52.5748 153.742 54.4908C155.474 56.4068 149.762 57.3228 148.458 55.9748Z" fill="#263238"/>
<path d="M149.172 54.5749C146.876 54.1509 145.936 52.2789 147.86 51.1189C149.676 50.0269 154.78 51.9189 155.632 54.9349C156.484 57.9509 149.868 56.7149 149.172 54.5749Z" fill="#263238"/>
<path d="M155.293 56.0109C155.641 55.7309 157.025 55.3309 157.181 56.8789C156.676 56.3724 156.006 56.0643 155.293 56.0109Z" fill="#263238"/>
<path d="M156.286 54.083C156.562 54.435 156.954 55.819 155.402 55.967C155.912 55.4646 156.226 54.7964 156.286 54.083Z" fill="#263238"/>
<path d="M149.878 59.3671C149.669 59.9911 149.229 60.5118 148.65 60.8231C147.882 61.2231 147.35 60.5911 147.45 59.7751C147.534 59.0431 148.034 57.9471 148.862 57.8831C149.69 57.8191 150.13 58.6031 149.878 59.3671Z" fill="#DFA977"/>
<path d="M146.434 93.9189C146.434 93.9189 148.774 116.319 150.23 124.719C151.83 133.919 163.03 160.479 163.03 160.479L168.17 158.927C168.17 158.927 160.17 134.507 159.414 125.411C158.614 115.535 156.566 93.9309 156.566 93.9309L146.434 93.9189Z" fill="#263238"/>
<path opacity="0.2" d="M150.042 101.751C149.81 101.399 149.59 101.279 149.378 101.351H149.338C149.289 101.37 149.243 101.397 149.202 101.431C149.159 101.466 149.119 101.505 149.082 101.547C149.058 101.571 149.038 101.599 149.014 101.627C148.99 101.655 148.954 101.711 148.922 101.759C148.849 101.876 148.784 101.997 148.726 102.123C148.694 102.199 148.658 102.279 148.626 102.359C148.594 102.439 148.546 102.563 148.506 102.675C148.466 102.787 148.402 102.979 148.354 103.143C148.354 103.187 148.326 103.227 148.314 103.271C148.302 103.315 148.262 103.455 148.234 103.547L148.174 103.787C148.13 103.947 148.09 104.107 148.05 104.275C148.01 104.443 147.97 104.639 147.93 104.827C147.93 104.891 147.902 104.959 147.886 105.023C147.838 105.263 147.79 105.511 147.742 105.759C148.386 111.335 149.158 117.727 149.83 122.187C149.878 122.043 149.926 121.891 149.974 121.727C150.18 120.984 150.347 120.231 150.474 119.471C151.47 113.723 151.546 104.043 150.042 101.751Z" fill="black"/>
<path d="M140.88 93.9189C140.88 93.9189 139.512 115.831 139.436 124.771C139.356 134.067 141.264 164.503 141.264 164.503H146.228C146.228 164.503 147.728 134.611 148.352 125.479C149.028 115.527 151.184 93.9189 151.184 93.9189H140.88Z" fill="#263238"/>
<path d="M146.62 162.983C146.64 162.983 146.548 164.603 146.548 164.603H140.824L140.664 162.783L146.62 162.983Z" fill="#407BFF"/>
<path d="M167.763 157.103C167.891 157.355 168.435 158.935 168.435 158.935L162.799 160.643L161.875 159.123L167.763 157.103Z" fill="#407BFF"/>
</svg>
