<svg width="200" height="200" viewBox="0 0 200 200" fill="none" xmlns="http://www.w3.org/2000/svg">
<path d="M200 157.335H0V157.435H200V157.335Z" fill="#EBEBEB"/>
<path d="M179.962 163.771H148.934V163.871H179.962V163.771Z" fill="#EBEBEB"/>
<path d="M133.331 162.371H111.199V162.471H133.331V162.371Z" fill="#EBEBEB"/>
<path d="M166.311 160.059H142.703V160.159H166.311V160.059Z" fill="#EBEBEB"/>
<path d="M26.0595 160.731H20.9835V160.831H26.0595V160.731Z" fill="#EBEBEB"/>
<path d="M58.2696 160.731H29.6256V160.831H58.2696V160.731Z" fill="#EBEBEB"/>
<path d="M88.0016 162.419H69.2656V162.519H88.0016V162.419Z" fill="#EBEBEB"/>
<path d="M94.8012 139.495H17.5652C16.9601 139.494 16.3802 139.253 15.9527 138.825C15.5252 138.396 15.2852 137.816 15.2852 137.211V28.6389C15.2904 28.0373 15.5328 27.4621 15.9597 27.0382C16.3866 26.6143 16.9635 26.376 17.5652 26.3749H94.8012C95.4069 26.3749 95.9879 26.6156 96.4162 27.0439C96.8445 27.4722 97.0852 28.0532 97.0852 28.6589V137.211C97.0852 137.817 96.8445 138.398 96.4162 138.826C95.9879 139.254 95.4069 139.495 94.8012 139.495ZM17.5652 26.4549C16.9866 26.456 16.4321 26.6866 16.0234 27.096C15.6147 27.5055 15.3852 28.0604 15.3852 28.6389V137.211C15.3852 137.789 15.6147 138.344 16.0234 138.754C16.4321 139.163 16.9866 139.394 17.5652 139.395H94.8012C95.3801 139.394 95.935 139.163 96.3443 138.754C96.7537 138.345 96.9841 137.79 96.9852 137.211V28.6389C96.9841 28.06 96.7537 27.5051 96.3443 27.0958C95.935 26.6864 95.3801 26.456 94.8012 26.4549H17.5652Z" fill="#EBEBEB"/>
<path d="M181.325 139.495H104.085C103.48 139.494 102.9 139.253 102.471 138.825C102.043 138.397 101.802 137.816 101.801 137.211V28.6389C101.808 28.037 102.051 27.4618 102.478 27.038C102.906 26.6142 103.483 26.376 104.085 26.3749H181.325C181.926 26.377 182.502 26.6158 182.928 27.0396C183.354 27.4634 183.596 28.038 183.601 28.6389V137.211C183.601 137.815 183.362 138.395 182.935 138.823C182.509 139.251 181.93 139.493 181.325 139.495ZM104.085 26.4549C103.506 26.456 102.951 26.6864 102.542 27.0958C102.133 27.5051 101.902 28.06 101.901 28.6389V137.211C101.902 137.79 102.133 138.345 102.542 138.754C102.951 139.163 103.506 139.394 104.085 139.395H181.325C181.904 139.394 182.459 139.163 182.868 138.754C183.278 138.345 183.508 137.79 183.509 137.211V28.6389C183.508 28.06 183.278 27.5051 182.868 27.0958C182.459 26.6864 181.904 26.456 181.325 26.4549H104.085Z" fill="#EBEBEB"/>
<path d="M75.571 43.0869H22.535V129.639H75.571V43.0869Z" fill="#E6E6E6"/>
<path d="M77.1924 43.0869H23.2924V129.639H77.1924V43.0869Z" fill="#F0F0F0"/>
<path d="M75.571 129.639H22.535V132.091H75.571V129.639Z" fill="#E6E6E6"/>
<path d="M79.8883 129.639H25.9883V132.091H79.8883V129.639Z" fill="#F0F0F0"/>
<path d="M74.9219 127.371V45.351H25.5539L25.5539 127.371H74.9219Z" fill="#FAFAFA"/>
<path d="M36.6875 127.371L42.9955 45.351H52.8355L46.5275 127.371H36.6875Z" fill="white"/>
<path d="M26.6081 125.115C26.5868 125.116 26.5656 125.112 26.5457 125.104C26.5258 125.096 26.5077 125.085 26.4924 125.07C26.4771 125.055 26.465 125.037 26.4567 125.017C26.4484 124.998 26.4441 124.976 26.4441 124.955V46.8271C26.4404 46.8037 26.4419 46.7798 26.4483 46.757C26.4548 46.7342 26.4661 46.713 26.4815 46.695C26.4969 46.677 26.516 46.6625 26.5375 46.6526C26.559 46.6427 26.5824 46.6376 26.6061 46.6376C26.6298 46.6376 26.6533 46.6427 26.6748 46.6526C26.6963 46.6625 26.7154 46.677 26.7308 46.695C26.7462 46.713 26.7575 46.7342 26.764 46.757C26.7704 46.7798 26.7718 46.8037 26.7681 46.8271V124.955C26.7681 124.976 26.764 124.997 26.756 125.016C26.7479 125.036 26.7361 125.053 26.7213 125.068C26.7064 125.083 26.6888 125.095 26.6694 125.103C26.65 125.111 26.6291 125.115 26.6081 125.115Z" fill="#F0F0F0"/>
<path d="M48.6455 127.371L54.9495 45.3508H58.7855L52.4815 127.371H48.6455Z" fill="white"/>
<path d="M74.9219 127.371V45.351H74.6339V127.371H74.9219Z" fill="#E6E6E6"/>
<path d="M77.7285 48.7669H24.6925L24.4805 46.2309H77.5205L77.7285 48.7669Z" fill="#EBEBEB" opacity="0.6"/>
<path opacity="0.6" d="M77.7285 52.9271H24.6925L24.4805 50.3911H77.5205L77.7285 52.9271Z" fill="#EBEBEB"/>
<path d="M77.7285 57.0828H24.6925L24.4805 54.5468H77.5205L77.7285 57.0828Z" fill="#EBEBEB" opacity="0.6"/>
<path opacity="0.6" d="M77.7285 61.243H24.6925L24.4805 58.707H77.5205L77.7285 61.243Z" fill="#EBEBEB"/>
<path d="M77.7285 65.3987H24.6925L24.4805 62.8627H77.5205L77.7285 65.3987Z" fill="#EBEBEB" opacity="0.6"/>
<path d="M77.7285 69.5589H24.6925L24.4805 67.0229H77.5205L77.7285 69.5589Z" fill="#EBEBEB" opacity="0.6"/>
<path d="M160.324 43.0869H109.5V157.335H160.324V43.0869Z" fill="#F0F0F0"/>
<path d="M160.329 43.0869H110.577V157.335H160.329V43.0869Z" fill="#F5F5F5"/>
<path d="M157.293 154.743V45.6788H113.605V154.743H157.293Z" fill="#F0F0F0"/>
<path d="M117.899 65.9748C117.899 62.8155 119.154 59.7857 121.388 57.5518C123.622 55.3178 126.652 54.0628 129.811 54.0628H141.091C142.655 54.0628 144.204 54.3709 145.649 54.9696C147.094 55.5683 148.407 56.4458 149.513 57.552C150.619 58.6582 151.496 59.9714 152.094 61.4166C152.692 62.8618 153 64.4107 152.999 65.9748H117.899Z" fill="#FAFAFA"/>
<path d="M153.003 147.963V121.907H117.903V147.963H153.003Z" fill="#F5F5F5"/>
<path d="M117.895 118.547H133.379V73.3108H117.895V118.547Z" fill="#F5F5F5"/>
<path d="M137.516 118.547H153V73.3109H137.516V118.547Z" fill="#F5F5F5"/>
<path d="M147.386 95.723H153.73C153.99 95.723 154.241 95.6193 154.425 95.4348C154.61 95.2503 154.714 95 154.714 94.739C154.712 94.4784 154.608 94.2287 154.424 94.0444C154.24 93.8601 153.99 93.7561 153.73 93.755H147.386C147.125 93.7561 146.876 93.8602 146.692 94.0446C146.509 94.229 146.406 94.4787 146.406 94.739C146.406 94.9993 146.509 95.249 146.692 95.4334C146.876 95.6178 147.125 95.7219 147.386 95.723Z" fill="#E0E0E0"/>
<path d="M157.293 154.743V45.6788H156.505V154.743H157.293Z" fill="#F0F0F0"/>
<path d="M182.885 98.4149H164.785L166.389 77.2349H181.281L182.885 98.4149Z" fill="#EBEBEB"/>
<path d="M178.912 98.4149H175.8L175.14 77.2349H178.012L178.912 98.4149Z" fill="#F5F5F5"/>
<path d="M174.742 98.415H172.93V157.335H174.742V98.415Z" fill="#F0F0F0"/>
<path d="M174.724 124.799H172.944C172.502 124.799 172.144 125.157 172.144 125.599V127.379C172.144 127.821 172.502 128.179 172.944 128.179H174.724C175.166 128.179 175.524 127.821 175.524 127.379V125.599C175.524 125.157 175.166 124.799 174.724 124.799Z" fill="#F0F0F0"/>
<path d="M174.724 130.215H172.944C172.502 130.215 172.144 130.573 172.144 131.015V132.795C172.144 133.237 172.502 133.595 172.944 133.595H174.724C175.166 133.595 175.524 133.237 175.524 132.795V131.015C175.524 130.573 175.166 130.215 174.724 130.215Z" fill="#F0F0F0"/>
<path d="M176.7 157.335H170.968C170.968 157.011 171.096 156.7 171.325 156.471C171.554 156.241 171.864 156.112 172.188 156.111H175.476C175.8 156.111 176.112 156.24 176.341 156.469C176.571 156.699 176.7 157.01 176.7 157.335Z" fill="#F0F0F0"/>
<path d="M174.742 98.415H172.93V99.523H174.742V98.415Z" fill="#E0E0E0"/>
<path d="M104.35 98.4149H86.2496L87.8536 77.2349H102.746L104.35 98.4149Z" fill="#EBEBEB"/>
<path d="M100.377 98.4148H97.2655L96.6055 77.2348H99.4775L100.377 98.4148Z" fill="#F5F5F5"/>
<path d="M96.2026 98.415H94.3906V157.335H96.2026V98.415Z" fill="#F0F0F0"/>
<path d="M96.1894 124.799H94.4094C93.9675 124.799 93.6094 125.157 93.6094 125.599V127.379C93.6094 127.821 93.9675 128.179 94.4094 128.179H96.1894C96.6312 128.179 96.9894 127.821 96.9894 127.379V125.599C96.9894 125.157 96.6312 124.799 96.1894 124.799Z" fill="#F0F0F0"/>
<path d="M96.1894 130.215H94.4094C93.9675 130.215 93.6094 130.573 93.6094 131.015V132.795C93.6094 133.237 93.9675 133.595 94.4094 133.595H96.1894C96.6312 133.595 96.9894 133.237 96.9894 132.795V131.015C96.9894 130.573 96.6312 130.215 96.1894 130.215Z" fill="#F0F0F0"/>
<path d="M98.1656 157.335H92.4336C92.4335 157.014 92.5592 156.707 92.7836 156.478C93.0079 156.249 93.3131 156.117 93.6336 156.111H96.9256C97.246 156.117 97.5512 156.249 97.7756 156.478C98 156.707 98.1257 157.014 98.1256 157.335H98.1656Z" fill="#F0F0F0"/>
<path d="M96.2026 98.415H94.3906V99.523H96.2026V98.415Z" fill="#E0E0E0"/>
<path d="M100.001 175.399C142.834 175.399 177.557 173.371 177.557 170.871C177.557 168.37 142.834 166.343 100.001 166.343C57.1676 166.343 22.4446 168.37 22.4446 170.871C22.4446 173.371 57.1676 175.399 100.001 175.399Z" fill="#F5F5F5"/>
<path d="M114.646 45.8948L113.894 68.9908L132.002 67.7388L114.646 45.8948Z" fill="#407BFF" opacity="0.1"/>
<path d="M101.801 116.947L102.269 99.8631L34.4374 100.783L101.801 116.947Z" fill="#407BFF" opacity="0.1"/>
<path d="M33.3202 47.9549H115.32V99.5549C115.32 99.888 115.188 100.207 114.952 100.443C114.717 100.679 114.397 100.811 114.064 100.811H34.5762C34.4112 100.811 34.2479 100.778 34.0955 100.715C33.9432 100.652 33.8047 100.56 33.6881 100.443C33.5714 100.326 33.4789 100.188 33.4158 100.036C33.3527 99.8832 33.3202 99.7198 33.3202 99.5549V47.9549Z" fill="#407BFF"/>
<path d="M33.3202 47.9549H115.32V99.5549C115.32 99.888 115.188 100.207 114.952 100.443C114.717 100.679 114.397 100.811 114.064 100.811H34.5762C34.4112 100.811 34.2479 100.778 34.0955 100.715C33.9432 100.652 33.8047 100.56 33.6881 100.443C33.5714 100.326 33.4789 100.188 33.4158 100.036C33.3527 99.8832 33.3202 99.7198 33.3202 99.5549V47.9549Z" fill="white" opacity="0.7"/>
<path d="M107.066 51.4031H41.5577C40.9325 51.4031 40.4257 51.91 40.4257 52.5351V70.9471C40.4257 71.5723 40.9325 72.0791 41.5577 72.0791H107.066C107.691 72.0791 108.198 71.5723 108.198 70.9471V52.5351C108.198 51.91 107.691 51.4031 107.066 51.4031Z" fill="white" opacity="0.9"/>
<path d="M59.8177 75.2469H41.5577C40.9325 75.2469 40.4257 75.7537 40.4257 76.3789V80.1469C40.4257 80.7721 40.9325 81.2789 41.5577 81.2789H59.8177C60.4428 81.2789 60.9497 80.7721 60.9497 80.1469V76.3789C60.9497 75.7537 60.4428 75.2469 59.8177 75.2469Z" fill="#407BFF" opacity="0.7"/>
<path d="M83.4435 75.2469H65.1835C64.5583 75.2469 64.0515 75.7538 64.0515 76.3789V80.1469C64.0515 80.7721 64.5583 81.2789 65.1835 81.2789H83.4435C84.0687 81.2789 84.5755 80.7721 84.5755 80.1469V76.3789C84.5755 75.7538 84.0687 75.2469 83.4435 75.2469Z" fill="#407BFF" opacity="0.7"/>
<path d="M107.064 75.2469H88.8042C88.1791 75.2469 87.6722 75.7538 87.6722 76.3789V80.1469C87.6722 80.7721 88.1791 81.2789 88.8042 81.2789H107.064C107.689 81.2789 108.196 80.7721 108.196 80.1469V76.3789C108.196 75.7538 107.689 75.2469 107.064 75.2469Z" fill="#407BFF" opacity="0.7"/>
<path d="M41.5577 83.7191H59.8177C59.9663 83.7191 60.1135 83.7483 60.2509 83.8052C60.3882 83.8621 60.513 83.9455 60.6181 84.0506C60.7232 84.1557 60.8066 84.2805 60.8635 84.4179C60.9204 84.5552 60.9497 84.7024 60.9497 84.8511V100.775H40.4257V84.8511C40.4257 84.5508 40.5449 84.2629 40.7572 84.0506C40.9695 83.8383 41.2574 83.7191 41.5577 83.7191Z" fill="#407BFF" opacity="0.3"/>
<path d="M65.1995 83.719H83.4595C83.7597 83.719 84.0477 83.8383 84.26 84.0506C84.4722 84.2629 84.5915 84.5508 84.5915 84.851V100.775H64.0515V84.851C64.0515 84.701 64.0813 84.5525 64.1392 84.4141C64.1971 84.2757 64.2819 84.1502 64.3887 84.0449C64.4955 83.9396 64.6222 83.8565 64.7614 83.8006C64.9006 83.7446 65.0495 83.7169 65.1995 83.719Z" fill="#407BFF" opacity="0.3"/>
<path d="M88.8002 83.7189H107.06C107.36 83.7189 107.648 83.8382 107.861 84.0505C108.073 84.2628 108.192 84.5507 108.192 84.8509V100.775H87.6722V84.8509C87.6722 84.5514 87.791 84.2641 88.0024 84.0519C88.2138 83.8397 88.5007 83.72 88.8002 83.7189Z" fill="#407BFF" opacity="0.3"/>
<path d="M58.3124 42.9988H56.3124V43.3988H58.3124V42.9988Z" fill="#407BFF"/>
<path d="M54.5444 42.9988H49.6444V43.3988H54.5444V42.9988Z" fill="#407BFF"/>
<path d="M111.752 44.3987H36.8762C36.4076 44.3987 35.9435 44.4913 35.5108 44.6713C35.078 44.8512 34.6851 45.115 34.3547 45.4473C34.0242 45.7796 33.7627 46.174 33.5852 46.6077C33.4076 47.0415 33.3176 47.506 33.3202 47.9747H115.32C115.323 47.505 115.232 47.0395 115.054 46.605C114.876 46.1704 114.613 45.7755 114.282 45.443C113.95 45.1105 113.556 44.8471 113.121 44.6678C112.687 44.4886 112.222 44.3971 111.752 44.3987Z" fill="#407BFF"/>
<path d="M38.3565 46.1748C38.3573 46.316 38.3161 46.4542 38.2382 46.5719C38.1602 46.6896 38.0491 46.7814 37.9188 46.8358C37.7885 46.8902 37.6451 46.9047 37.5066 46.8773C37.3681 46.85 37.2409 46.7821 37.141 46.6823C37.0412 46.5824 36.9733 46.4552 36.946 46.3167C36.9186 46.1782 36.9331 46.0347 36.9875 45.9045C37.0418 45.7742 37.1337 45.6631 37.2514 45.5851C37.3691 45.5072 37.5073 45.466 37.6485 45.4668C37.8359 45.4679 38.0154 45.5428 38.148 45.6753C38.2805 45.8079 38.3554 45.9874 38.3565 46.1748Z" fill="white"/>
<path d="M40.6424 46.139C40.6424 46.279 40.6009 46.4159 40.5231 46.5323C40.4453 46.6487 40.3347 46.7395 40.2054 46.7931C40.076 46.8467 39.9337 46.8607 39.7963 46.8334C39.659 46.806 39.5328 46.7386 39.4338 46.6396C39.3348 46.5406 39.2674 46.4144 39.24 46.2771C39.2127 46.1398 39.2267 45.9974 39.2803 45.868C39.3339 45.7387 39.4247 45.6281 39.5411 45.5503C39.6575 45.4725 39.7944 45.431 39.9344 45.431C40.1219 45.432 40.3014 45.507 40.4339 45.6395C40.5665 45.772 40.6414 45.9515 40.6424 46.139Z" fill="white"/>
<path d="M42.9315 46.139C42.9315 46.279 42.89 46.4159 42.8122 46.5323C42.7344 46.6487 42.6238 46.7395 42.4944 46.7931C42.3651 46.8467 42.2227 46.8607 42.0854 46.8334C41.948 46.806 41.8219 46.7386 41.7229 46.6396C41.6239 46.5406 41.5564 46.4144 41.5291 46.2771C41.5018 46.1398 41.5158 45.9974 41.5694 45.868C41.623 45.7387 41.7137 45.6281 41.8302 45.5503C41.9466 45.4725 42.0835 45.431 42.2235 45.431C42.411 45.432 42.5904 45.507 42.723 45.6395C42.8555 45.772 42.9305 45.9515 42.9315 46.139Z" fill="white"/>
<path d="M101.156 71.7268H132.756V115.675C132.756 116.099 132.588 116.506 132.288 116.806C131.988 117.106 131.581 117.275 131.156 117.275H102.736C102.312 117.275 101.905 117.106 101.605 116.806C101.305 116.506 101.136 116.099 101.136 115.675V71.7268H101.156Z" fill="#407BFF"/>
<path d="M101.156 71.7268H132.756V115.675C132.756 116.099 132.588 116.506 132.288 116.806C131.988 117.106 131.581 117.275 131.156 117.275H102.736C102.312 117.275 101.905 117.106 101.605 116.806C101.305 116.506 101.136 116.099 101.136 115.675V71.7268H101.156Z" fill="white" opacity="0.8"/>
<path opacity="0.9" d="M129.079 74.103H104.819C104.386 74.103 104.035 74.454 104.035 74.887V83.223C104.035 83.656 104.386 84.007 104.819 84.007H129.079C129.512 84.007 129.863 83.656 129.863 83.223V74.887C129.863 74.454 129.512 74.103 129.079 74.103Z" fill="white"/>
<path d="M128.439 85.967H105.459C104.672 85.967 104.035 86.6045 104.035 87.391V92.131C104.035 92.9174 104.672 93.555 105.459 93.555H128.439C129.225 93.555 129.863 92.9174 129.863 92.131V87.391C129.863 86.6045 129.225 85.967 128.439 85.967Z" fill="#407BFF" opacity="0.7"/>
<path d="M128.439 96.0667H105.459C104.672 96.0667 104.035 96.7042 104.035 97.4906V102.231C104.035 103.017 104.672 103.655 105.459 103.655H128.439C129.225 103.655 129.863 103.017 129.863 102.231V97.4906C129.863 96.7042 129.225 96.0667 128.439 96.0667Z" fill="#407BFF" opacity="0.7"/>
<path d="M128.439 106.167H105.459C104.672 106.167 104.035 106.804 104.035 107.591V112.331C104.035 113.117 104.672 113.755 105.459 113.755H128.439C129.225 113.755 129.863 113.117 129.863 112.331V107.591C129.863 106.804 129.225 106.167 128.439 106.167Z" fill="#407BFF" opacity="0.7"/>
<path d="M103.232 67.2552H130.664C131.216 67.2552 131.745 67.4743 132.135 67.8644C132.525 68.2545 132.744 68.7836 132.744 69.3352V71.7352H101.144V69.3352C101.144 69.0614 101.198 68.7902 101.304 68.5374C101.409 68.2845 101.562 68.0548 101.756 67.8616C101.95 67.6683 102.181 67.5153 102.434 67.4112C102.687 67.3072 102.959 67.2542 103.232 67.2552Z" fill="#407BFF"/>
<path d="M145.249 168.467H142.321L142.325 161.679H145.257L145.249 168.467Z" fill="#FFB573"/>
<path d="M168.795 162.863L165.991 163.711L162.903 157.555L165.707 156.707L168.795 162.863Z" fill="#FFB573"/>
<path d="M164.905 164.219C164.72 164.29 164.515 164.297 164.325 164.239C164.263 164.21 164.21 164.166 164.17 164.11C164.13 164.055 164.105 163.99 164.097 163.923C164.088 163.883 164.089 163.841 164.101 163.801C164.113 163.762 164.135 163.727 164.165 163.699C164.429 163.447 165.481 163.735 165.601 163.767C165.614 163.771 165.625 163.78 165.633 163.79C165.642 163.801 165.647 163.813 165.649 163.827C165.65 163.84 165.647 163.854 165.64 163.865C165.634 163.877 165.625 163.887 165.613 163.895C165.39 164.029 165.153 164.138 164.905 164.219ZM164.337 163.759C164.306 163.765 164.276 163.78 164.253 163.803C164.242 163.814 164.234 163.828 164.23 163.844C164.227 163.859 164.228 163.876 164.233 163.891C164.237 163.937 164.254 163.982 164.28 164.021C164.307 164.059 164.343 164.09 164.385 164.111C164.741 164.16 165.102 164.07 165.393 163.859C165.051 163.756 164.692 163.722 164.337 163.759Z" fill="#407BFF"/>
<path d="M165.601 163.903H165.565C165.237 163.831 164.517 163.379 164.493 163.043C164.491 162.99 164.506 162.938 164.537 162.894C164.567 162.851 164.611 162.819 164.661 162.803C164.709 162.78 164.761 162.768 164.813 162.768C164.866 162.768 164.918 162.78 164.965 162.803C165.365 162.971 165.637 163.771 165.649 163.807C165.655 163.818 165.658 163.83 165.658 163.843C165.658 163.855 165.655 163.868 165.649 163.879L165.601 163.903ZM164.741 162.923C164.731 162.92 164.72 162.92 164.709 162.923C164.629 162.959 164.629 162.999 164.629 163.019C164.629 163.215 165.121 163.579 165.465 163.715C165.373 163.483 165.161 163.031 164.909 162.915C164.853 162.897 164.792 162.899 164.737 162.923H164.741Z" fill="#407BFF"/>
<path d="M165.707 163.443L168.859 162.491C168.914 162.474 168.972 162.477 169.025 162.499C169.078 162.521 169.121 162.56 169.147 162.611L170.347 164.971C170.375 165.03 170.39 165.095 170.391 165.16C170.392 165.226 170.379 165.291 170.352 165.351C170.326 165.411 170.286 165.465 170.237 165.508C170.188 165.552 170.13 165.584 170.067 165.603C168.963 165.915 168.411 166.003 167.023 166.431C166.171 166.687 163.423 168.071 162.263 168.431C161.103 168.791 160.631 167.655 161.087 167.399C163.123 166.267 164.767 164.599 165.299 163.759C165.393 163.608 165.538 163.496 165.707 163.443Z" fill="#263238"/>
<path d="M141.112 168.638C140.863 168.663 140.614 168.599 140.408 168.458C140.361 168.417 140.326 168.364 140.306 168.306C140.286 168.247 140.281 168.184 140.292 168.122C140.294 168.084 140.307 168.046 140.329 168.014C140.351 167.981 140.381 167.955 140.416 167.938C140.78 167.738 141.932 168.338 142.06 168.406C142.073 168.413 142.084 168.423 142.091 168.436C142.097 168.449 142.099 168.464 142.096 168.478C142.093 168.493 142.085 168.506 142.075 168.516C142.064 168.526 142.05 168.532 142.036 168.534C141.732 168.599 141.422 168.634 141.112 168.638ZM140.608 168.034C140.563 168.032 140.517 168.041 140.476 168.058C140.463 168.067 140.452 168.078 140.443 168.091C140.435 168.104 140.43 168.119 140.428 168.134C140.422 168.175 140.426 168.217 140.439 168.255C140.453 168.294 140.475 168.33 140.504 168.358C140.676 168.518 141.16 168.542 141.808 168.434C141.434 168.233 141.028 168.098 140.608 168.034Z" fill="#407BFF"/>
<path d="M142.025 168.539H141.997C141.649 168.379 140.977 167.739 141.045 167.415C141.045 167.339 141.121 167.239 141.313 167.223C141.384 167.21 141.457 167.214 141.526 167.235C141.595 167.255 141.659 167.29 141.713 167.339C142.069 167.647 142.113 168.435 142.113 168.471C142.113 168.482 142.11 168.494 142.104 168.505C142.099 168.515 142.091 168.524 142.081 168.531C142.064 168.54 142.044 168.542 142.025 168.539ZM141.361 167.339H141.321C141.193 167.339 141.185 167.403 141.181 167.419C141.141 167.615 141.581 168.115 141.945 168.331C141.928 168 141.806 167.683 141.597 167.427C141.53 167.373 141.446 167.346 141.361 167.351V167.339Z" fill="#407BFF"/>
<path d="M142.354 168.127H145.554C145.611 168.126 145.667 168.146 145.711 168.182C145.755 168.219 145.785 168.27 145.794 168.327L146.258 170.935C146.269 170.999 146.266 171.065 146.249 171.128C146.232 171.191 146.201 171.249 146.158 171.299C146.116 171.349 146.063 171.389 146.004 171.415C145.944 171.442 145.879 171.456 145.814 171.455C144.662 171.435 143.014 171.367 141.546 171.367C139.85 171.367 138.378 171.459 136.39 171.459C135.19 171.459 134.906 170.259 135.414 170.135C137.73 169.631 139.602 169.579 141.638 168.355C141.852 168.216 142.099 168.137 142.354 168.127Z" fill="#263238"/>
<path d="M152.777 61.5429C152.261 63.6869 151.937 66.3429 153.373 67.7749C153.373 67.7749 152.417 69.9509 148.433 69.9509C144.793 69.9509 146.709 67.7749 146.709 67.7749C149.109 67.2069 149.129 64.2469 148.789 62.5749L152.777 61.5429Z" fill="#DFA977"/>
<path d="M142.325 161.683L142.321 165.179H145.253L145.257 161.683H142.325Z" fill="black" opacity="0.2"/>
<path d="M165.707 156.707L162.903 157.559L164.495 160.731L167.303 159.883L165.707 156.707Z" fill="black" opacity="0.2"/>
<path d="M159.234 70.4547L155.474 72.6147C155.474 72.6147 159.418 81.8147 159.03 83.3027C158.498 85.3027 158.23 89.3867 157.41 92.0387C157.734 92.4027 158.83 93.0547 159.27 93.0387C160.87 89.8387 163.478 84.3787 163.326 82.5267C162.982 78.2947 159.234 70.4547 159.234 70.4547Z" fill="#DFA977"/>
<path d="M157.41 92.0389L154.834 93.1029L157.418 95.2509C157.418 95.2509 159.642 94.2469 159.234 92.3589L157.41 92.0389Z" fill="#DFA977"/>
<path d="M153.392 95.4069L155.828 97.2349L157.416 95.2509L154.832 93.1029L153.392 95.4069Z" fill="#DFA977"/>
<path d="M158.596 68.439C161.324 68.995 163.54 78.739 163.54 78.739L157.396 81.695C157.396 81.695 155.292 76.999 154.364 73.551C153.396 69.935 155.668 67.843 158.596 68.439Z" fill="#407BFF"/>
<path d="M156.403 71.7907C155.259 70.5907 155.779 75.3667 156.067 78.5427C156.311 79.1747 156.547 79.7427 156.751 80.2267C158.403 77.8347 158.003 73.4707 156.403 71.7907Z" fill="black" opacity="0.2"/>
<path d="M146.803 68.6627C146.803 67.6227 146.651 67.1307 146.935 66.7467C147.219 66.3627 152.851 65.9067 153.823 66.3467C154.155 66.4947 154.347 67.9907 153.931 68.6587C153.323 69.6267 146.803 68.6627 146.803 68.6627Z" fill="#407BFF"/>
<path d="M146.803 68.6627C146.803 67.6227 146.651 67.1307 146.935 66.7467C147.219 66.3627 152.851 65.9067 153.823 66.3467C154.155 66.4947 154.347 67.9907 153.931 68.6587C153.323 69.6267 146.803 68.6627 146.803 68.6627Z" fill="black" opacity="0.2"/>
<path d="M142.164 68.5907C142.164 68.5907 138.316 77.4387 140.876 93.9187H156.552C156.764 91.5187 155.752 79.7747 158.592 68.4387C156.868 68.1035 155.124 67.8817 153.372 67.7747C151.152 67.6466 148.927 67.6466 146.708 67.7747C145.174 67.9293 143.655 68.2021 142.164 68.5907Z" fill="#407BFF"/>
<path d="M144.402 72.7027L140.518 71.1387C140.518 71.1387 135.27 80.0507 134.174 80.7987C131.634 79.4067 130.782 79.9707 128.806 78.5107C128.306 78.5627 127.526 79.2587 127.262 79.6147C128.862 82.6947 134.178 86.5067 136.806 84.1827C140.058 81.3067 144.402 72.7027 144.402 72.7027Z" fill="#DFA977"/>
<path d="M144.888 71.6467C144.304 70.1427 143.08 69.5147 141.756 69.7347C141.172 71.5787 140.156 75.6307 140.012 81.7347L141.532 82.0787C141.532 82.0787 145.892 74.2187 144.888 71.6467Z" fill="black" opacity="0.2"/>
<path d="M145.557 70.5949C146.429 73.2189 141.085 80.9389 141.085 80.9389L135.365 77.7389C136.354 75.331 137.59 73.0321 139.053 70.8789C141.265 67.8029 144.601 67.7189 145.557 70.5949Z" fill="#407BFF"/>
<path d="M128.902 78.5946L126.29 77.0866L124.762 80.1266C125.818 80.4743 126.923 80.6485 128.034 80.6426L128.902 78.5946Z" fill="#DFA977"/>
<path d="M125.002 77.0866L123.134 78.8626L124.762 80.1266L126.29 77.0866H125.002Z" fill="#DFA977"/>
<path d="M146.283 58.459C146.259 58.695 146.115 58.859 145.963 58.859C145.811 58.859 145.703 58.651 145.727 58.415C145.751 58.179 145.895 58.015 146.051 58.015C146.207 58.015 146.307 58.223 146.283 58.459Z" fill="#263238"/>
<path d="M146.489 58.4789C146.135 59.1857 145.689 59.8422 145.161 60.4309C145.313 60.5563 145.491 60.6462 145.682 60.694C145.873 60.7417 146.072 60.7461 146.265 60.7069L146.489 58.4789Z" fill="#CF8362"/>
<path d="M146.002 57.6425L145.942 57.6185C145.927 57.6082 145.914 57.5949 145.904 57.5796C145.895 57.5643 145.888 57.5472 145.885 57.5293C145.882 57.5114 145.883 57.4931 145.887 57.4754C145.891 57.4578 145.899 57.4412 145.91 57.4265C146.035 57.2379 146.203 57.0808 146.399 56.9677C146.595 56.8546 146.815 56.7885 147.042 56.7745C147.059 56.7751 147.077 56.7791 147.093 56.7864C147.11 56.7937 147.124 56.8042 147.137 56.8172C147.149 56.8302 147.158 56.8455 147.165 56.8622C147.171 56.8789 147.174 56.8967 147.174 56.9145C147.172 56.9517 147.156 56.9868 147.129 57.0127C147.102 57.0386 147.067 57.0536 147.03 57.0545C146.853 57.0691 146.682 57.1244 146.53 57.216C146.378 57.3076 146.249 57.433 146.154 57.5825C146.137 57.6064 146.114 57.6247 146.087 57.6354C146.06 57.6461 146.03 57.6486 146.002 57.6425Z" fill="#263238"/>
<path d="M154.249 58.2545C153.773 61.1425 153.645 62.8505 152.033 64.2545C151.521 64.7178 150.892 65.0311 150.213 65.1599C149.535 65.2887 148.834 65.228 148.188 64.9846C147.542 64.7411 146.976 64.3242 146.551 63.7798C146.126 63.2354 145.86 62.5844 145.781 61.8985C145.425 59.2585 146.257 54.9825 149.205 53.9905C149.835 53.7595 150.515 53.6994 151.176 53.8163C151.836 53.9332 152.454 54.223 152.967 54.6562C153.479 55.0893 153.868 55.6505 154.093 56.2825C154.318 56.9145 154.372 57.5949 154.249 58.2545Z" fill="#DFA977"/>
<path d="M148.227 59.4988C147.627 57.5988 146.847 54.6628 148.979 53.5748C151.111 52.4868 152.791 53.9988 155.115 55.3988C157.735 56.9748 156.135 61.9748 152.975 63.1508C150.323 64.1388 147.735 62.1548 148.227 59.4988Z" fill="#263238"/>
<path d="M148.459 55.9747C146.579 56.4827 145.283 55.2747 146.211 53.8827C147.387 52.1107 152.011 52.5747 153.743 54.4907C155.475 56.4067 149.763 57.3227 148.459 55.9747Z" fill="#263238"/>
<path d="M149.173 54.5747C146.877 54.1507 145.937 52.2787 147.861 51.1187C149.677 50.0267 154.781 51.9187 155.633 54.9347C156.485 57.9507 149.869 56.7147 149.173 54.5747Z" fill="#263238"/>
<path d="M155.294 56.0108C155.642 55.7308 157.026 55.3308 157.182 56.8788C156.677 56.3723 156.007 56.0642 155.294 56.0108Z" fill="#263238"/>
<path d="M156.287 54.0829C156.563 54.4349 156.955 55.8189 155.403 55.9669C155.913 55.4645 156.227 54.7962 156.287 54.0829Z" fill="#263238"/>
<path d="M149.878 59.3668C149.669 59.9908 149.23 60.5115 148.65 60.8228C147.882 61.2228 147.35 60.5908 147.45 59.7748C147.534 59.0428 148.034 57.9468 148.862 57.8828C149.69 57.8188 150.13 58.6028 149.878 59.3668Z" fill="#DFA977"/>
<path d="M146.435 93.9188C146.435 93.9188 148.775 116.319 150.231 124.719C151.831 133.919 163.031 160.479 163.031 160.479L168.171 158.927C168.171 158.927 160.171 134.507 159.415 125.411C158.615 115.535 156.567 93.9308 156.567 93.9308L146.435 93.9188Z" fill="#263238"/>
<path d="M150.043 101.751C149.811 101.399 149.591 101.279 149.379 101.351H149.339C149.29 101.37 149.244 101.397 149.203 101.431C149.16 101.466 149.12 101.505 149.083 101.547C149.059 101.571 149.039 101.599 149.015 101.627C148.991 101.655 148.955 101.711 148.923 101.759C148.85 101.876 148.785 101.997 148.727 102.123C148.695 102.199 148.659 102.279 148.627 102.359C148.595 102.439 148.547 102.563 148.507 102.675C148.467 102.787 148.403 102.979 148.355 103.143C148.355 103.187 148.327 103.227 148.315 103.271C148.303 103.315 148.263 103.455 148.235 103.547L148.175 103.787C148.131 103.947 148.091 104.107 148.051 104.275C148.011 104.443 147.971 104.639 147.931 104.827C147.931 104.891 147.903 104.959 147.887 105.023C147.839 105.263 147.791 105.511 147.743 105.759C148.387 111.335 149.159 117.727 149.831 122.187C149.879 122.043 149.927 121.891 149.975 121.727C150.181 120.984 150.348 120.231 150.475 119.471C151.471 113.723 151.547 104.043 150.043 101.751Z" fill="black" opacity="0.2"/>
<path d="M140.881 93.9188C140.881 93.9188 139.513 115.831 139.437 124.771C139.357 134.067 141.265 164.503 141.265 164.503H146.229C146.229 164.503 147.729 134.611 148.353 125.479C149.029 115.527 151.185 93.9188 151.185 93.9188H140.881Z" fill="#263238"/>
<path d="M146.622 162.983C146.642 162.983 146.55 164.603 146.55 164.603H140.826L140.666 162.783L146.622 162.983Z" fill="#407BFF"/>
<path d="M167.764 157.102C167.892 157.354 168.436 158.934 168.436 158.934L162.8 160.642L161.876 159.122L167.764 157.102Z" fill="#407BFF"/>
</svg>
