<svg width="200" height="200" viewBox="0 0 200 200" fill="none" xmlns="http://www.w3.org/2000/svg">
<path d="M186.19 35.7666C163.772 12.2447 103.216 2.53883 72.0206 8.91312C41.2321 15.2049 29.6542 50.9442 64.5736 62.3313C81.4582 67.8392 88.766 67.9733 101.741 81.9286C115.542 96.7917 129.956 105.229 150.626 107.611C191.069 112.284 217.577 68.7108 186.19 35.7666Z" fill="#1265E5"/>
<path opacity="0.9" d="M186.19 35.7666C163.772 12.2447 103.216 2.53883 72.0206 8.91312C41.2321 15.2049 29.6542 50.9442 64.5736 62.3313C81.4582 67.8392 88.766 67.9733 101.741 81.9286C115.542 96.7917 129.956 105.229 150.626 107.611C191.069 112.284 217.577 68.7108 186.19 35.7666Z" fill="white"/>
<path d="M99.9928 191.879C155.217 191.879 199.986 188.548 199.986 184.44C199.986 180.331 155.217 177 99.9928 177C44.7683 177 0 180.331 0 184.44C0 188.548 44.7683 191.879 99.9928 191.879Z" fill="#F1F3F5"/>
<path d="M102.504 174.666L145.453 176.532L139.26 36.2208L96.3053 34.3539L102.504 174.666Z" fill="#E5E9EC"/>
<path opacity="0.6" d="M102.504 174.666L145.453 176.532L139.26 36.2208L96.3053 34.3539L102.504 174.666Z" fill="#DBE9FF"/>
<path d="M59.9832 182.541L102.504 174.666L96.3054 34.3539L53.7843 42.2289L59.9832 182.541Z" fill="#E5E9EC"/>
<path opacity="0.6" d="M59.9832 182.541L102.504 174.666L96.3054 34.3539L53.7843 42.2289L59.9832 182.541Z" fill="#DBE9FF"/>
<path d="M17.029 180.674L59.9833 182.541L53.7843 42.2289L10.8301 40.362L17.029 180.674Z" fill="#E5E9EC"/>
<path opacity="0.6" d="M17.029 180.674L59.9833 182.541L53.7843 42.2289L10.8301 40.362L17.029 180.674Z" fill="#DBE9FF"/>
<path d="M30.9299 38.6435L30.9091 39.1227L39.4825 39.4955L39.5034 39.0163L30.9299 38.6435Z" fill="#E5E9EC"/>
<path d="M11.5984 102.178L11.1193 102.199L11.265 105.496L11.7441 105.475L11.5984 102.178Z" fill="#E5E9EC"/>
<path d="M11.8616 107.907L11.3824 107.928L11.7103 115.347L12.1894 115.326L11.8616 107.907Z" fill="#E5E9EC"/>
<path opacity="0.6" d="M35.59 87.3233C41.9387 87.3233 47.0854 82.1766 47.0854 75.8279C47.0854 69.4792 41.9387 64.3325 35.59 64.3325C29.2413 64.3325 24.0946 69.4792 24.0946 75.8279C24.0946 82.1766 29.2413 87.3233 35.59 87.3233Z" fill="#1265E5"/>
<path opacity="0.2" d="M93.5416 132.711C96.5289 129.414 96.278 124.319 92.9812 121.332C89.6843 118.345 84.59 118.596 81.6027 121.893C78.6154 125.189 78.8663 130.284 82.1632 133.271C85.46 136.258 90.5543 136.007 93.5416 132.711Z" fill="#1265E5"/>
<path d="M142.019 131.541L114.815 117.39L125.263 86.1063L136.764 95.5182L140.745 90.6549L99.2556 56.7L71.0561 38.9231L67.7039 44.2351L83.7634 54.3586L53.666 82.388L14.5436 111.33L18.2774 116.358L29.9894 107.694L44.0066 179.57L50.1695 178.368L35.5849 103.574L45.3114 96.3536L54.9708 103.058L98.6007 115.987L107.069 120.402L98.0849 138.952L85.553 173.273L91.4528 175.429L103.887 141.391L112.654 123.305L139.126 137.095L142.019 131.541ZM57.7041 97.3335L50.6285 92.429L57.5185 87.3337L57.6577 87.2254L89.2352 57.8294L95.5528 61.8159L120.039 81.8516L109.157 114.435L100.968 110.17L57.7041 97.3335Z" fill="#E5E9EC"/>
<g style="mix-blend-mode:multiply" opacity="0.3">
<path d="M60.3856 182.541L102.907 174.666L96.7077 34.3539L54.1866 42.2289L60.3856 182.541Z" fill="#1D2B36"/>
</g>
<path opacity="0.1" d="M35.59 87.3233C41.9387 87.3233 47.0854 82.1766 47.0854 75.8279C47.0854 69.4792 41.9387 64.3325 35.59 64.3325C29.2413 64.3325 24.0946 69.4792 24.0946 75.8279C24.0946 82.1766 29.2413 87.3233 35.59 87.3233Z" fill="#DBE9FF"/>
<path opacity="0.7" d="M142.019 131.541L114.815 117.39L125.263 86.1063L136.764 95.5182L140.745 90.6549L99.2556 56.7L71.0561 38.9231L67.7039 44.2351L83.7634 54.3586L53.666 82.388L14.5436 111.33L18.2774 116.358L29.9894 107.694L44.0066 179.57L50.1695 178.368L35.5849 103.574L45.3114 96.3536L54.9708 103.058L98.6007 115.987L107.069 120.402L98.0849 138.952L85.553 173.273L91.4528 175.429L103.887 141.391L112.654 123.305L139.126 137.095L142.019 131.541ZM57.7041 97.3335L50.6285 92.429L57.5185 87.3337L57.6577 87.2254L89.2352 57.8294L95.5528 61.8159L120.039 81.8516L109.157 114.435L100.968 110.17L57.7041 97.3335Z" fill="#003D99"/>
<path d="M139.982 36.4218L96.2434 34.524L53.7172 42.3939L10.0255 40.496L16.3018 182.633L60.0451 184.536L102.571 176.661L146.268 178.564L139.982 36.4218ZM102.85 170.395L102.138 170.364L101.437 170.499L59.6171 178.234L22.3254 176.61L16.6009 47.0611L53.4439 48.6598L54.1608 48.6908L54.8621 48.5619L96.6818 40.8261L133.963 42.4454L139.703 171.989L102.85 170.395Z" fill="#E5E9EC"/>
<path opacity="0.7" d="M139.982 36.4218L96.2434 34.524L53.7172 42.3939L10.0255 40.496L16.3018 182.633L60.0451 184.536L102.571 176.661L146.268 178.564L139.982 36.4218ZM102.85 170.395L102.138 170.364L101.437 170.499L59.6171 178.234L22.3254 176.61L16.6009 47.0611L53.4439 48.6598L54.1608 48.6908L54.8621 48.5619L96.6818 40.8261L133.963 42.4454L139.703 171.989L102.85 170.395Z" fill="#003D99"/>
<path opacity="0.7" d="M30.9299 38.6435L30.9091 39.1227L39.4825 39.4955L39.5034 39.0163L30.9299 38.6435Z" fill="#DBE9FF"/>
<path opacity="0.7" d="M11.5984 102.178L11.1193 102.199L11.265 105.496L11.7441 105.475L11.5984 102.178Z" fill="#DBE9FF"/>
<path opacity="0.7" d="M11.8616 107.907L11.3824 107.928L11.7103 115.347L12.1894 115.326L11.8616 107.907Z" fill="#DBE9FF"/>
<path d="M162.163 64.9617C158.317 61.7002 153.405 59.9674 148.363 60.0931C143.322 60.2189 138.502 62.1945 134.823 65.6437C131.144 69.0929 128.862 73.7747 128.412 78.7977C127.961 83.8207 129.374 88.834 132.38 92.8828L132.102 100.479L139.549 98.9322C144.039 101.226 149.215 101.789 154.093 100.514C158.971 99.2392 163.21 96.2152 166.003 92.0177C168.796 87.8203 169.948 82.7424 169.24 77.7506C168.532 72.7588 166.013 68.2016 162.163 64.9463V64.9617Z" fill="#1265E5"/>
<path d="M150.187 96.1203C158.727 95.4002 165.066 87.8933 164.346 79.3533C163.626 70.8133 156.119 64.474 147.579 65.1941C139.039 65.9142 132.7 73.4211 133.42 81.9611C134.14 90.5012 141.647 96.8405 150.187 96.1203Z" fill="#1265E5"/>
<path opacity="0.3" d="M150.187 96.1203C158.727 95.4002 165.066 87.8933 164.346 79.3533C163.626 70.8133 156.119 64.474 147.579 65.1941C139.039 65.9142 132.7 73.4211 133.42 81.9611C134.14 90.5012 141.647 96.8405 150.187 96.1203Z" fill="#1D2B36"/>
<path d="M157.743 181.334H153.958L153.581 172.561H157.367L157.743 181.334Z" fill="#B97964"/>
<path d="M177.201 67.035C177.532 67.6848 177.805 68.2624 178.068 68.8812C178.331 69.5001 178.584 70.1035 178.847 70.7172C179.362 71.9498 179.796 73.203 180.198 74.4768C180.6 75.7506 180.977 77.0554 181.265 78.3756C181.425 79.0306 181.539 79.7113 181.673 80.3869C181.807 81.0625 181.884 81.7484 181.941 82.4498L181.992 82.9655V83.0996V83.2956C182.008 83.493 182.008 83.6913 181.992 83.8887C181.932 84.6243 181.689 85.3332 181.286 85.9515C180.71 86.7946 179.941 87.4877 179.043 87.9732C177.746 88.6781 176.357 89.1988 174.917 89.5203C172.308 90.1323 169.639 90.4522 166.959 90.4744L166.598 87.6534C168.97 87.0356 171.306 86.2884 173.597 85.4152C174.605 85.0288 175.563 84.525 176.454 83.9145C176.799 83.6617 177.031 83.3575 176.969 83.3472C176.903 83.4254 176.863 83.5231 176.856 83.6257C176.854 83.6634 176.854 83.7013 176.856 83.7391C176.856 83.7391 176.856 83.7701 176.856 83.7391V83.6875V83.5792L176.773 83.1563C176.31 80.8226 175.659 78.5305 174.824 76.3024C174.411 75.1575 173.963 74.0178 173.504 72.8832C173.045 71.7486 172.539 70.5986 172.075 69.5568L177.201 67.035Z" fill="#B97964"/>
<path d="M176.531 64.2708C179.821 65.8179 181.688 76.1839 181.688 76.1839L173.658 79.3865C172.486 76.5159 171.538 73.5589 170.822 70.5419C169.718 65.7663 173.174 62.672 176.531 64.2708Z" fill="#1265E5"/>
<path opacity="0.7" d="M176.531 64.2708C179.821 65.8179 181.688 76.1839 181.688 76.1839L173.658 79.3865C172.486 76.5159 171.538 73.5589 170.822 70.5419C169.718 65.7663 173.174 62.672 176.531 64.2708Z" fill="white"/>
<path d="M186.191 181.334H182.4L179.791 172.561H183.581L186.191 181.334Z" fill="#B97964"/>
<path d="M153.581 172.561L153.772 177.084H157.563L157.372 172.561H153.581Z" fill="#A24E3F"/>
<path d="M183.581 172.561H179.791L181.137 177.084H184.927L183.581 172.561Z" fill="#A24E3F"/>
<path d="M161.585 96.9466C161.585 96.9466 158.445 123.578 160.801 134.408C163.38 146.27 179.641 176.213 179.641 176.213H186.582C186.582 176.213 173.643 147.245 172.168 135.471C170.569 122.707 174.664 107.292 174.664 96.9415L161.585 96.9466Z" fill="#748494"/>
<path opacity="0.6" d="M161.585 96.9466C161.585 96.9466 158.445 123.578 160.801 134.408C163.38 146.27 179.641 176.213 179.641 176.213H186.582C186.582 176.213 173.643 147.245 172.168 135.471C170.569 122.707 174.664 107.292 174.664 96.9415L161.585 96.9466Z" fill="#1D2B36"/>
<path d="M167.351 87.478L164.706 86.5291L164.788 91.3717C164.788 91.3717 166.929 91.5109 168.115 90.1185L167.351 87.478Z" fill="#B97964"/>
<path d="M161.364 86.3537L161.622 90.3506L164.788 91.3665L164.706 86.5291L161.364 86.3537Z" fill="#B97964"/>
<path d="M157.305 52.9249C157.367 53.224 157.258 53.4973 157.062 53.5386C156.866 53.5798 156.66 53.3684 156.598 53.0693C156.536 52.7701 156.645 52.4916 156.841 52.4555C157.037 52.4194 157.238 52.6103 157.305 52.9249Z" fill="#1D2B36"/>
<path d="M157.285 53.4767C157.111 54.4649 156.802 55.4245 156.367 56.3286C156.599 56.4366 156.853 56.4926 157.109 56.4926C157.366 56.4926 157.619 56.4366 157.852 56.3286L157.285 53.4767Z" fill="#A24E3F"/>
<path d="M156.532 51.0734C156.502 51.0726 156.473 51.0647 156.447 51.0504C156.421 51.036 156.399 51.0156 156.382 50.9909C156.369 50.9711 156.36 50.9488 156.356 50.9255C156.351 50.9021 156.352 50.8781 156.357 50.855C156.363 50.8318 156.373 50.81 156.387 50.7908C156.401 50.7716 156.418 50.7555 156.439 50.7434C156.688 50.605 156.966 50.5286 157.251 50.5205C157.535 50.5124 157.817 50.5729 158.074 50.6969C158.116 50.7171 158.15 50.7533 158.166 50.7976C158.182 50.842 158.181 50.891 158.161 50.9342C158.152 50.9558 158.138 50.9753 158.121 50.9916C158.104 51.0078 158.083 51.0204 158.061 51.0285C158.039 51.0367 158.016 51.0404 157.992 51.0392C157.968 51.0381 157.945 51.0321 157.924 51.0218C157.722 50.9227 157.499 50.8733 157.274 50.8778C157.049 50.8822 156.828 50.9405 156.63 51.0476C156.599 51.064 156.566 51.0729 156.532 51.0734Z" fill="#1D2B36"/>
<path d="M168.212 53.4405C167.666 56.2099 167.124 61.2898 169.063 63.1412C169.063 63.1412 168.305 65.9519 163.158 65.9519C157.485 65.9519 160.451 63.1412 160.451 63.1412C163.545 62.3986 163.463 60.1088 162.921 57.9531L168.212 53.4405Z" fill="#B97964"/>
<path d="M159.332 63.6673L159.961 62.5378C159.961 62.5378 169.76 60.7483 170.033 62.739C170.059 63.1593 170.016 63.581 169.904 63.987L159.332 63.6673Z" fill="#1265E5"/>
<path d="M180.811 181.53C180.65 181.551 180.486 181.539 180.329 181.496C180.172 181.452 180.026 181.378 179.898 181.277C179.852 181.216 179.828 181.142 179.828 181.066C179.828 180.989 179.852 180.915 179.898 180.854C179.927 180.801 179.966 180.754 180.014 180.718C180.063 180.681 180.118 180.656 180.177 180.643C180.734 180.509 181.776 181.231 181.822 181.262C181.837 181.271 181.848 181.285 181.855 181.301C181.862 181.317 181.864 181.335 181.861 181.352C181.857 181.369 181.849 181.385 181.837 181.397C181.824 181.41 181.808 181.418 181.791 181.421C181.469 181.491 181.141 181.527 180.811 181.53ZM180.337 180.808C180.299 180.802 180.261 180.802 180.223 180.808C180.189 180.815 180.157 180.829 180.128 180.849C180.1 180.87 180.076 180.896 180.058 180.926C179.976 181.076 180.027 181.138 180.058 181.158C180.218 181.37 180.992 181.375 181.559 181.282C181.191 181.04 180.773 180.883 180.337 180.823V180.808Z" fill="#1265E5"/>
<path d="M181.776 181.427C181.763 181.432 181.748 181.432 181.735 181.427C181.343 181.215 180.585 180.395 180.662 179.962C180.676 179.896 180.713 179.837 180.765 179.795C180.818 179.752 180.883 179.73 180.951 179.73C181.019 179.723 181.087 179.729 181.153 179.748C181.218 179.768 181.279 179.8 181.332 179.843C181.771 180.204 181.848 181.298 181.848 181.344C181.85 181.36 181.847 181.377 181.84 181.392C181.833 181.406 181.821 181.418 181.807 181.427C181.797 181.429 181.786 181.429 181.776 181.427ZM181.013 179.879H180.961C180.842 179.879 180.832 179.946 180.827 179.972C180.78 180.22 181.265 180.849 181.652 181.143C181.626 180.712 181.472 180.299 181.209 179.957C181.152 179.914 181.083 179.89 181.013 179.89V179.879Z" fill="#1265E5"/>
<path d="M152.436 181.53C151.946 181.53 151.477 181.463 151.322 181.241C151.282 181.183 151.26 181.115 151.26 181.045C151.26 180.975 151.282 180.906 151.322 180.849C151.354 180.797 151.395 180.753 151.444 180.717C151.492 180.682 151.547 180.656 151.606 180.643C152.24 180.467 153.561 181.225 153.617 181.256C153.634 181.265 153.647 181.278 153.656 181.295C153.664 181.312 153.667 181.331 153.664 181.349C153.661 181.367 153.652 181.384 153.639 181.397C153.626 181.41 153.61 181.418 153.592 181.421C153.21 181.49 152.824 181.527 152.436 181.53ZM151.833 180.792C151.776 180.787 151.719 180.787 151.663 180.792C151.626 180.8 151.59 180.816 151.559 180.838C151.528 180.86 151.502 180.889 151.482 180.921C151.42 181.029 151.446 181.086 151.482 181.117C151.658 181.365 152.617 181.37 153.323 181.267C152.862 181.014 152.356 180.853 151.833 180.792Z" fill="#1265E5"/>
<path d="M153.582 181.427H153.54C153.087 181.22 152.179 180.395 152.251 179.972C152.251 179.874 152.339 179.745 152.581 179.725C152.673 179.712 152.767 179.719 152.856 179.746C152.945 179.772 153.027 179.818 153.097 179.879C153.577 180.271 153.68 181.292 153.685 181.334C153.686 181.349 153.684 181.365 153.677 181.38C153.671 181.394 153.661 181.407 153.649 181.416C153.628 181.427 153.605 181.43 153.582 181.427ZM152.653 179.879H152.597C152.437 179.879 152.426 179.962 152.421 179.983C152.38 180.24 152.994 180.88 153.453 181.164C153.403 180.73 153.223 180.322 152.937 179.993C152.855 179.931 152.756 179.895 152.653 179.89V179.879Z" fill="#1265E5"/>
<path d="M181.008 181.339H186.118C186.203 181.336 186.287 181.36 186.357 181.409C186.426 181.457 186.479 181.527 186.505 181.607L187.397 185.078C187.412 185.169 187.406 185.263 187.379 185.352C187.351 185.44 187.304 185.521 187.24 185.588C187.176 185.655 187.097 185.706 187.01 185.738C186.923 185.769 186.829 185.78 186.737 185.769C184.958 185.769 184.092 185.656 181.853 185.656C180.477 185.656 177.635 185.779 175.737 185.779C173.839 185.779 173.581 184.16 174.36 184.01C177.857 183.35 179.172 182.463 180.291 181.581C180.497 181.424 180.749 181.339 181.008 181.339Z" fill="#405261"/>
<path d="M153.984 180.895H158.109C158.184 180.895 158.257 180.92 158.315 180.967C158.374 181.014 158.414 181.08 158.429 181.153L159.182 184.521C159.201 184.603 159.201 184.687 159.182 184.769C159.163 184.851 159.126 184.927 159.073 184.992C159.021 185.057 158.954 185.109 158.878 185.145C158.802 185.18 158.719 185.198 158.636 185.197C157.14 185.171 154.984 185.083 153.112 185.083C150.915 185.083 149.023 185.202 146.449 185.202C144.902 185.202 144.464 183.629 145.113 183.49C148.079 182.84 150.497 182.773 153.061 181.189C153.335 181.007 153.655 180.905 153.984 180.895Z" fill="#405261"/>
<path d="M159.017 69.7477C157.228 71.8466 155.407 73.8734 153.55 75.9363C151.694 77.9992 149.796 79.9589 147.852 81.9341L146.408 83.3884L146.186 83.605C146.062 83.7272 145.931 83.8426 145.794 83.9506C145.541 84.1473 145.27 84.3199 144.984 84.4663C144.496 84.7228 143.976 84.9135 143.437 85.0336C141.809 85.3621 140.133 85.3831 138.497 85.0955C135.637 84.6297 132.851 83.7923 130.209 82.6045L131.055 79.8867C133.634 80.3116 136.239 80.5563 138.852 80.619C139.448 80.6223 140.044 80.5931 140.637 80.5313C141.128 80.4872 141.611 80.3815 142.076 80.2168C142.209 80.1661 142.336 80.0985 142.452 80.0156C142.478 79.9898 142.493 79.9744 142.488 79.964L142.54 79.9073L142.622 79.8093L143.953 78.2622L149.296 72.0736C151.085 70.0107 152.906 67.9478 154.711 65.9365L159.017 69.7477Z" fill="#B97964"/>
<path opacity="0.2" d="M173.194 71.0885L170.801 70.5728C171.517 73.5898 172.465 76.5468 173.638 79.4174L176.954 78.092C176.273 76.3128 174.55 73.6981 173.194 71.0885Z" fill="#1265E5"/>
<path d="M152.854 72.8368C152.746 74.8274 152.725 77.2565 152.854 80.2167L156.377 71.6248L152.854 72.8368Z" fill="#1265E5"/>
<path d="M131.566 80.1548L128.683 77.3854L127.094 82.0269C127.094 82.0269 128.198 83.3987 130.864 82.6819L131.566 80.1548Z" fill="#B97964"/>
<path d="M126.496 76.4261L125.377 80.4849L127.094 82.0372L128.683 77.3854L126.496 76.4261Z" fill="#B97964"/>
<path d="M167.171 50.2637C167.686 53.9923 168.176 56.1429 166.696 58.4069C164.474 61.8106 159.595 61.037 157.975 57.5405C156.521 54.3946 155.913 48.83 159.234 46.6433C159.96 46.1572 160.799 45.8649 161.67 45.7943C162.542 45.7237 163.417 45.877 164.212 46.2398C165.007 46.6026 165.697 47.1628 166.215 47.867C166.732 48.5713 167.062 49.3963 167.171 50.2637Z" fill="#B97964"/>
<path d="M171.276 48.2834C171.327 45.875 169.605 44.1216 168.728 44.3794C167.697 40.0628 160.322 42.2547 160.322 42.2547C160.322 42.2547 162.039 39.805 158.708 39.7947C155.376 39.7844 156.31 42.4506 156.31 42.4506C156.31 42.4506 154.283 40.4651 152.963 42.6157C151.642 44.7662 154.51 45.514 154.51 45.514C154.51 45.514 152.117 44.9622 151.802 48.0926C151.488 51.223 155.747 48.7269 155.747 48.7269C156.47 50.0575 157.32 50.3205 158.146 50.2122C158.582 50.1624 159.023 50.2665 159.391 50.5065C159.759 50.7466 160.032 51.1076 160.162 51.5273C161.353 55.1373 163.633 58.3915 167.031 57.3962C169.749 56.5916 171.198 51.8058 171.276 48.2834Z" fill="#1D2B36"/>
<path d="M162.395 51.8574C162.509 52.7859 162.315 53.7262 161.843 54.5339C161.209 55.5654 160.255 55.1992 159.894 54.142C159.569 53.1879 159.507 51.4964 160.41 50.8053C161.312 50.1142 162.245 50.7434 162.395 51.8574Z" fill="#B97964"/>
<path opacity="0.3" d="M163.483 106.101C162.854 104.254 161.683 106.163 160.466 109.241C160.038 115.348 159.724 122.65 160.074 128.478C161.482 121.294 164.87 110.17 163.483 106.101Z" fill="#1D2B36"/>
<path d="M154.401 96.9466C154.401 96.9466 146.15 120.726 146.552 132.284C146.98 144.3 152.364 176.207 152.364 176.207H158.785C158.785 176.207 157.836 145.001 158.12 133.196C158.434 120.329 167.722 96.9466 167.722 96.9466H154.401Z" fill="#748494"/>
<path opacity="0.6" d="M154.401 96.9466C154.401 96.9466 146.15 120.726 146.552 132.284C146.98 144.3 152.364 176.207 152.364 176.207H158.785C158.785 176.207 157.836 145.001 158.12 133.196C158.434 120.329 167.722 96.9466 167.722 96.9466H154.401Z" fill="#1D2B36"/>
<path d="M177.779 173.773C177.748 173.773 179.249 176.316 179.249 176.316H187.057L186.288 173.773H177.779Z" fill="#1265E5"/>
<path d="M151.127 173.655C151.096 173.655 151.488 176.316 151.488 176.316H159.301L159.512 173.938L151.127 173.655Z" fill="#1265E5"/>
<path d="M154.624 64.1984C154.624 64.1984 150.591 68.7574 154.402 96.9466H174.664C174.804 93.8523 172.849 78.6643 175.851 64.0076C173.609 63.5736 171.342 63.2876 169.064 63.1515C166.195 62.9812 163.319 62.9812 160.451 63.1515C158.484 63.3494 156.536 63.6994 154.624 64.1984Z" fill="#1265E5"/>
<path opacity="0.7" d="M154.624 64.1984C154.624 64.1984 150.591 68.7574 154.402 96.9466H174.664C174.804 93.8523 172.849 78.6643 175.851 64.0076C173.609 63.5736 171.342 63.2876 169.064 63.1515C166.195 62.9812 163.319 62.9812 160.451 63.1515C158.484 63.3494 156.536 63.6994 154.624 64.1984Z" fill="white"/>
<path d="M158.661 67.5507C158.615 71.1607 151.524 79.995 151.524 79.995L144.644 74.7914C144.644 74.7914 146.831 69.8198 150.317 66.6791C154.757 62.6514 158.713 63.3115 158.661 67.5507Z" fill="#1265E5"/>
<path opacity="0.7" d="M158.661 67.5507C158.615 71.1607 151.524 79.995 151.524 79.995L144.644 74.7914C144.644 74.7914 146.831 69.8198 150.317 66.6791C154.757 62.6514 158.713 63.3115 158.661 67.5507Z" fill="white"/>
</svg>
