<svg width="200" height="200" viewBox="0 0 200 200" fill="none" xmlns="http://www.w3.org/2000/svg">
<path d="M106.076 69.284C90.7665 56.3689 81.7298 33.8541 58.4407 31.822C40.9699 30.3041 28.1335 43.261 21.2233 59.1837C3.06971 100.984 49.4541 144.745 85.0264 157.262C121.87 170.252 179.717 163.97 185.134 117.969C187.366 99.0155 175.335 86.4558 156.862 79.5956C141.195 73.7743 118.086 79.4187 106.076 69.284Z" fill="#008AF8"/>
<path d="M106.076 69.284C90.7665 56.3689 81.7298 33.8541 58.4407 31.822C40.9699 30.3041 28.1335 43.261 21.2233 59.1837C3.06971 100.984 49.4541 144.745 85.0264 157.262C121.87 170.252 179.717 163.97 185.134 117.969C187.366 99.0155 175.335 86.4558 156.862 79.5956C141.195 73.7743 118.086 79.4187 106.076 69.284Z" fill="white" opacity="0.9"/>
<path d="M96.5388 187.631C43.2221 187.631 0.000396729 184.088 0.000396729 179.719C0.000396729 175.349 43.2221 171.807 96.5388 171.807C149.855 171.807 193.077 175.349 193.077 179.719C193.077 184.088 149.855 187.631 96.5388 187.631Z" fill="#F2F4F6"/>
<path d="M11 46.0376L128.56 62.9623L144.335 78.8814L11 46.0376Z" fill="#008AF8"/>
<path d="M11 46.0376L128.56 62.9623L144.335 78.8814L11 46.0376Z" fill="white" opacity="0.6"/>
<path d="M11 46.0376L128.56 62.9623L123.104 85.9824L11 46.0376Z" fill="#008AF8"/>
<path d="M11 46.0376L128.56 62.9623L123.104 85.9824L11 46.0376Z" fill="#1D2B36" opacity="0.2"/>
<path d="M94.0995 21.5947L67.2497 62.4456L94.1434 80.1202L120.991 39.2687L94.0995 21.5947Z" fill="#008AF8" opacity="0.9"/>
<path d="M94.0995 21.5947L67.2497 62.4456L94.1434 80.1202L120.991 39.2687L94.0995 21.5947Z" fill="white" opacity="0.7"/>
<g opacity="0.9" style="mix-blend-mode:multiply">
<path d="M92.909 23.4044L67.2498 62.4456L93.2285 79.5197L118.58 38.738L92.909 23.4044Z" fill="#008AF8"/>
</g>
<path d="M92.909 23.4044L67.2498 62.4456L93.2285 79.5197L118.58 38.738L92.909 23.4044Z" fill="#008AF8" opacity="0.6"/>
<g opacity="0.9">
<g opacity="0.9" style="mix-blend-mode:multiply">
<path d="M92.909 23.4044L67.2498 62.4456L93.2285 79.5197L118.58 38.738L92.909 23.4044Z" fill="white"/>
</g>
<path d="M92.909 23.4044L67.2498 62.4456L93.2285 79.5197L118.58 38.738L92.909 23.4044Z" fill="white" opacity="0.6"/>
</g>
<path d="M99.5929 38.7999C102.216 37.1878 103.036 33.7542 101.424 31.1308C99.8121 28.5073 96.3785 27.6874 93.7551 29.2995C91.1316 30.9116 90.3117 34.3451 91.9238 36.9686C93.5359 39.592 96.9694 40.4119 99.5929 38.7999Z" fill="#008AF8"/>
<path d="M94.248 37.7358C93.5184 37.2551 92.9477 36.569 92.608 35.7641C92.2683 34.9592 92.1749 34.0716 92.3396 33.2136C92.5043 32.3556 92.9196 31.5657 93.5331 30.9437C94.1467 30.3217 94.9308 29.8956 95.7865 29.7192C96.6421 29.5428 97.5309 29.6241 98.3404 29.9527C99.1499 30.2813 99.8438 30.8426 100.334 31.5655C100.825 32.2884 101.09 33.1405 101.097 34.0142C101.103 34.8878 100.85 35.7437 100.37 36.4737C100.051 36.959 99.64 37.3766 99.1597 37.7027C98.6793 38.0288 98.1394 38.2571 97.5707 38.3743C97.0021 38.4915 96.4159 38.4954 95.8458 38.3859C95.2756 38.2763 94.7326 38.0554 94.248 37.7358Z" fill="white"/>
<path d="M96.0889 43.1796L87.5289 37.5546L86.2646 39.4786L94.8245 45.1036L96.0889 43.1796Z" fill="#008AF8"/>
<path d="M103.006 47.7231L97.2155 43.9179L95.9511 45.8419L101.742 49.6472L103.006 47.7231Z" fill="#008AF8"/>
<path d="M105.972 55.6582L84.7821 41.7338L84.2612 42.5264L105.451 56.4509L105.972 55.6582Z" fill="white"/>
<path d="M94.2122 50.3419L83.6757 43.418L83.1548 44.2107L93.6913 51.1345L94.2122 50.3419Z" fill="white"/>
<path d="M103.062 56.1574L96.0144 51.5264L95.4935 52.319L102.541 56.9501L103.062 56.1574Z" fill="white"/>
<path d="M99.5078 56.2316L82.5691 45.1007L82.0482 45.8934L98.9869 57.0243L99.5078 56.2316Z" fill="white"/>
<path d="M100.638 59.6999L81.2141 46.8338L80.6903 47.6245L100.114 60.4906L100.638 59.6999Z" fill="white"/>
<path d="M82.6036 49.9481L80.3544 48.47L79.8335 49.2627L82.0827 50.7407L82.6036 49.9481Z" fill="white"/>
<path d="M94.3471 57.6656L84.4084 51.1347L83.8876 51.9273L93.8262 58.4583L94.3471 57.6656Z" fill="white"/>
<path d="M100.438 64.08L79.248 50.1555L78.7272 50.9482L99.917 64.8726L100.438 64.08Z" fill="white"/>
<path d="M90.1745 22.0964L64.7525 63.8577L92.2357 80.5907L117.656 38.8287L90.1745 22.0964Z" fill="#008AF8"/>
<path d="M90.1745 22.0964L64.7525 63.8577L92.2357 80.5907L117.656 38.8287L90.1745 22.0964Z" fill="white" opacity="0.8"/>
<path d="M89.8181 32.1571C90.6856 32.0272 91.2835 31.2186 91.1535 30.3511C91.0236 29.4836 90.215 28.8857 89.3475 29.0156C88.48 29.1456 87.8821 29.9542 88.012 30.8217C88.142 31.6892 88.9506 32.2871 89.8181 32.1571Z" fill="#008AF8"/>
<path d="M103.772 37.7725L93.5733 31.5642C93.0302 31.2336 92.322 31.4058 91.9914 31.9489C91.6608 32.4919 91.8331 33.2002 92.3761 33.5307L102.575 39.7391C103.118 40.0696 103.826 39.8974 104.157 39.3543C104.487 38.8113 104.315 38.1031 103.772 37.7725Z" fill="#008AF8"/>
<path d="M95.6557 45.8563L83.4136 38.4042C82.9491 38.1215 82.3434 38.2688 82.0607 38.7332C81.778 39.1977 81.9253 39.8034 82.3898 40.0861L94.6319 47.5382C95.0963 47.821 95.702 47.6736 95.9847 47.2092C96.2675 46.7447 96.1202 46.139 95.6557 45.8563Z" fill="white"/>
<path d="M85.567 35.3125L85.5165 35.2818C85.052 34.9991 84.4463 35.1464 84.1636 35.6108C83.8809 36.0753 84.0282 36.681 84.4927 36.9637L84.5432 36.9945C85.0076 37.2772 85.6133 37.1299 85.8961 36.6654C86.1788 36.201 86.0315 35.5953 85.567 35.3125Z" fill="white"/>
<path d="M97.6139 42.6437L88.0573 36.8264C87.5928 36.5436 86.9871 36.6909 86.7044 37.1554C86.4217 37.6198 86.569 38.2255 87.0334 38.5083L96.5901 44.3256C97.0545 44.6084 97.6602 44.4611 97.9429 43.9966C98.2257 43.5322 98.0783 42.9265 97.6139 42.6437Z" fill="white"/>
<path d="M107.377 52.4647L101.65 48.9788C101.186 48.6961 100.58 48.8434 100.297 49.3078C100.015 49.7723 100.162 50.378 100.626 50.6607L106.353 54.1466C106.817 54.4293 107.423 54.282 107.706 53.8175C107.988 53.3531 107.841 52.7474 107.377 52.4647Z" fill="white"/>
<path d="M105.274 55.5871L99.5473 52.1012C99.0828 51.8185 98.4771 51.9658 98.1944 52.4303C97.9117 52.8947 98.059 53.5004 98.5234 53.7831L104.25 57.269C104.714 57.5517 105.32 57.4044 105.603 56.9399C105.886 56.4755 105.738 55.8698 105.274 55.5871Z" fill="white"/>
<path d="M103.697 46.2315L103.646 46.2007C103.182 45.918 102.576 46.0653 102.293 46.5298C102.01 46.9942 102.158 47.5999 102.622 47.8826L102.673 47.9134C103.137 48.1961 103.743 48.0488 104.026 47.5843C104.308 47.1199 104.161 46.5142 103.697 46.2315Z" fill="white"/>
<path d="M109.13 49.5371L106.187 47.7453C105.722 47.4625 105.117 47.6099 104.834 48.0743C104.551 48.5388 104.699 49.1445 105.163 49.4272L108.106 51.219C108.571 51.5017 109.177 51.3544 109.459 50.89C109.742 50.4255 109.595 49.8198 109.13 49.5371Z" fill="white"/>
<path d="M100.082 63.791L94.3551 60.3051C93.8907 60.0224 93.285 60.1697 93.0022 60.6342C92.7195 61.0986 92.8668 61.7043 93.3313 61.987L99.0578 65.4729C99.5222 65.7556 100.128 65.6083 100.411 65.1439C100.693 64.6794 100.546 64.0737 100.082 63.791Z" fill="white"/>
<path d="M97.9787 66.9134L92.2522 63.4275C91.7878 63.1448 91.1821 63.2921 90.8993 63.7566C90.6166 64.221 90.7639 64.8267 91.2284 65.1095L96.9549 68.5953C97.4193 68.878 98.025 68.7307 98.3077 68.2663C98.5905 67.8018 98.4431 67.1961 97.9787 66.9134Z" fill="white"/>
<path d="M96.4015 57.5578L96.351 57.527C95.8865 57.2443 95.2808 57.3916 94.9981 57.8561C94.7154 58.3205 94.8627 58.9262 95.3271 59.2089L95.3777 59.2397C95.8421 59.5224 96.4478 59.3751 96.7305 58.9106C97.0133 58.4462 96.8659 57.8405 96.4015 57.5578Z" fill="white"/>
<path d="M101.835 60.8634L98.8917 59.0716C98.4273 58.7889 97.8216 58.9362 97.5389 59.4006C97.2561 59.8651 97.4035 60.4708 97.8679 60.7535L100.811 62.5453C101.276 62.828 101.882 62.6807 102.164 62.2163C102.447 61.7518 102.3 61.1461 101.835 60.8634Z" fill="white"/>
<path d="M88.3608 57.1826L76.1187 49.7305C75.6542 49.4478 75.0485 49.5951 74.7658 50.0595C74.4831 50.524 74.6304 51.1297 75.0948 51.4124L87.337 58.8645C87.8014 59.1473 88.4071 58.9999 88.6898 58.5355C88.9725 58.071 88.8252 57.4653 88.3608 57.1826Z" fill="white"/>
<path d="M78.2721 46.6388L78.2216 46.6081C77.7571 46.3254 77.1514 46.4727 76.8687 46.9371C76.586 47.4016 76.7333 48.0073 77.1977 48.29L77.2483 48.3207C77.7127 48.6035 78.3184 48.4562 78.6011 47.9917C78.8839 47.5273 78.7365 46.9216 78.2721 46.6388Z" fill="white"/>
<path d="M90.3188 53.97L80.7622 48.1526C80.2978 47.8699 79.6921 48.0172 79.4093 48.4817C79.1266 48.9461 79.2739 49.5518 79.7384 49.8345L89.295 55.6519C89.7595 55.9347 90.3652 55.7873 90.6479 55.3229C90.9306 54.8584 90.7833 54.2527 90.3188 53.97Z" fill="white"/>
<path d="M76.9698 54.6511L74.0158 52.8529C73.5513 52.5702 72.9456 52.7175 72.6629 53.182C72.3802 53.6464 72.5275 54.2521 72.9919 54.5348L75.946 56.333C76.4104 56.6158 77.0161 56.4684 77.2988 56.004C77.5816 55.5395 77.4342 54.9338 76.9698 54.6511Z" fill="#008AF8"/>
<path d="M85.6299 69.3759L100.721 45.4672C100.889 45.2007 100.81 44.8483 100.543 44.68C100.277 44.5118 99.9241 44.5915 99.7558 44.858L84.6647 68.7667C84.4965 69.0332 84.5762 69.3857 84.8427 69.5539C85.1092 69.7221 85.4617 69.6424 85.6299 69.3759Z" fill="white"/>
<path d="M11 46.0376L107.964 69.0834L123.104 85.9824L11 46.0376Z" fill="#008AF8"/>
<path d="M11 46.0376L107.964 69.0834L123.104 85.9824L11 46.0376Z" fill="white" opacity="0.6"/>
<path d="M46.3701 68.2506L46.1095 68.6956L56.8999 75.0162L57.1606 74.5712L46.3701 68.2506Z" fill="#008AF8"/>
<path d="M61.9246 77.3578L61.6639 77.8028L65.544 80.0756L65.8047 79.6306L61.9246 77.3578Z" fill="#008AF8"/>
<path d="M11 46.0376L107.964 69.0834L89.1156 91.7993L11 46.0376Z" fill="#008AF8"/>
<path d="M140.694 100.03C140.564 100.03 140.434 100.005 140.313 99.9573L124.522 93.7073C124.27 93.6055 124.068 93.4079 123.96 93.1577C123.853 92.9075 123.849 92.6249 123.949 92.3716C124.049 92.1183 124.245 91.9149 124.494 91.8057C124.744 91.6965 125.027 91.6905 125.281 91.7889L141.076 98.039C141.299 98.1273 141.485 98.2909 141.601 98.5015C141.716 98.712 141.755 98.9564 141.71 99.1924C141.664 99.4283 141.538 99.6411 141.353 99.794C141.167 99.9468 140.935 100.03 140.694 100.03Z" fill="#008AF8"/>
<path d="M140.694 100.03C140.564 100.03 140.434 100.005 140.313 99.9573L124.522 93.7073C124.27 93.6055 124.068 93.4079 123.96 93.1577C123.853 92.9075 123.849 92.6249 123.949 92.3716C124.049 92.1183 124.245 91.9149 124.494 91.8057C124.744 91.6965 125.027 91.6905 125.281 91.7889L141.076 98.039C141.299 98.1273 141.485 98.2909 141.601 98.5015C141.716 98.712 141.755 98.9564 141.71 99.1924C141.664 99.4283 141.538 99.6411 141.353 99.794C141.167 99.9468 140.935 100.03 140.694 100.03Z" fill="#1D2B36" opacity="0.3"/>
<path d="M139.761 90.9741C139.631 90.9733 139.504 90.947 139.384 90.8968L130.901 87.519C130.775 87.4699 130.659 87.3961 130.56 87.302C130.462 87.2079 130.384 87.0953 130.329 86.9707C130.275 86.8461 130.245 86.7119 130.243 86.576C130.24 86.44 130.265 86.3048 130.315 86.1783C130.365 86.0518 130.439 85.9365 130.534 85.8389C130.629 85.7413 130.742 85.6634 130.867 85.6097C130.992 85.5561 131.126 85.5276 131.262 85.5261C131.398 85.5245 131.533 85.5499 131.659 85.6007L140.142 88.963C140.397 89.063 140.601 89.2598 140.71 89.5102C140.819 89.7606 140.825 90.0442 140.725 90.2986C140.653 90.4961 140.521 90.6667 140.349 90.7875C140.176 90.9082 139.971 90.9734 139.761 90.9741Z" fill="#008AF8"/>
<path d="M139.761 90.9741C139.631 90.9733 139.504 90.947 139.384 90.8968L130.901 87.519C130.775 87.4699 130.659 87.3961 130.56 87.302C130.462 87.2079 130.384 87.0953 130.329 86.9707C130.275 86.8461 130.245 86.7119 130.243 86.576C130.24 86.44 130.265 86.3048 130.315 86.1783C130.365 86.0518 130.439 85.9365 130.534 85.8389C130.629 85.7413 130.742 85.6634 130.867 85.6097C130.992 85.5561 131.126 85.5276 131.262 85.5261C131.398 85.5245 131.533 85.5499 131.659 85.6007L140.142 88.963C140.397 89.063 140.601 89.2598 140.71 89.5102C140.819 89.7606 140.825 90.0442 140.725 90.2986C140.653 90.4961 140.521 90.6667 140.349 90.7875C140.176 90.9082 139.971 90.9734 139.761 90.9741Z" fill="white" opacity="0.5"/>
<path d="M122.026 99.8954C121.898 99.894 121.77 99.8695 121.65 99.8232L106.247 93.7072C106.12 93.6581 106.004 93.5843 105.906 93.4902C105.807 93.3961 105.729 93.2835 105.674 93.1589C105.62 93.0343 105.591 92.9002 105.588 92.7642C105.586 92.6282 105.61 92.493 105.66 92.3665C105.71 92.24 105.785 92.1247 105.879 92.0271C105.974 91.9295 106.087 91.8516 106.212 91.7979C106.337 91.7443 106.471 91.7158 106.607 91.7143C106.743 91.7127 106.878 91.7381 107.005 91.7889L122.408 97.8843C122.632 97.9726 122.817 98.1362 122.933 98.3467C123.049 98.5573 123.087 98.8017 123.042 99.0376C122.997 99.2736 122.87 99.4864 122.685 99.6392C122.5 99.7921 122.267 99.8754 122.026 99.8748V99.8954Z" fill="#008AF8"/>
<path d="M122.026 99.8954C121.898 99.894 121.77 99.8695 121.65 99.8232L106.247 93.7072C106.12 93.6581 106.004 93.5843 105.906 93.4902C105.807 93.3961 105.729 93.2835 105.674 93.1589C105.62 93.0343 105.591 92.9002 105.588 92.7642C105.586 92.6282 105.61 92.493 105.66 92.3665C105.71 92.24 105.785 92.1247 105.879 92.0271C105.974 91.9295 106.087 91.8516 106.212 91.7979C106.337 91.7443 106.471 91.7158 106.607 91.7143C106.743 91.7127 106.878 91.7381 107.005 91.7889L122.408 97.8843C122.632 97.9726 122.817 98.1362 122.933 98.3467C123.049 98.5573 123.087 98.8017 123.042 99.0376C122.997 99.2736 122.87 99.4864 122.685 99.6392C122.5 99.7921 122.267 99.8754 122.026 99.8748V99.8954Z" fill="#1D2B36" opacity="0.3"/>
<path d="M177.792 53.3912C179.159 56.0573 180.412 58.7285 181.603 61.4616C182.795 64.1948 183.903 66.964 184.873 69.8673L185.223 70.9657C185.285 71.1616 185.373 71.4814 185.425 71.7083C185.476 71.9352 185.523 72.193 185.548 72.4096C185.666 73.2415 185.727 74.0807 185.729 74.921C185.737 76.4707 185.664 78.0198 185.512 79.5621C185.224 82.5477 184.756 85.5131 184.11 88.4422L181.278 88.1276C181.242 85.2243 181.217 82.2901 181.113 79.428C181.067 78.0047 180.985 76.5763 180.84 75.2355C180.775 74.6059 180.671 73.9808 180.531 73.3636C180.505 73.2192 180.464 73.1109 180.433 72.9923C180.402 72.8737 180.371 72.8324 180.319 72.6777L179.927 71.7031C178.85 69.0937 177.638 66.4638 176.4 63.8441L172.656 55.9851L177.792 53.3912Z" fill="#EBBE8B"/>
<path d="M181.32 87.22L180 89.6901L184.218 90.8659C184.218 90.8659 185.022 88.8805 184.063 87.3128L181.32 87.22Z" fill="#EBBE8B"/>
<path d="M178.385 93.2483L182.263 93.5577L184.218 90.8659L180 89.6901L178.385 93.2483Z" fill="#EBBE8B"/>
<path d="M160.037 35.5692C159.981 35.8734 159.769 36.0849 159.573 36.0436C159.377 36.0024 159.269 35.7291 159.331 35.43C159.393 35.1309 159.599 34.9143 159.795 34.9555C159.991 34.9968 160.105 35.2701 160.037 35.5692Z" fill="#405261"/>
<path d="M159.8 36.0849C159.256 36.9285 158.598 37.6937 157.846 38.359C158.021 38.5459 158.235 38.6924 158.473 38.7885C158.711 38.8847 158.967 38.9282 159.223 38.916L159.8 36.0849Z" fill="#BF8356"/>
<path d="M161.471 34.1304C161.422 34.1292 161.376 34.1088 161.342 34.0737C161.194 33.9043 161.008 33.7721 160.799 33.6879C160.591 33.6036 160.365 33.5698 160.141 33.589C160.098 33.5894 160.056 33.5746 160.024 33.5473C159.991 33.52 159.969 33.4819 159.961 33.4399C159.954 33.3978 159.961 33.3544 159.983 33.3175C160.005 33.2806 160.038 33.2525 160.079 33.2383C160.366 33.202 160.657 33.2371 160.927 33.3406C161.197 33.444 161.437 33.6126 161.626 33.8313C161.659 33.8651 161.677 33.9104 161.677 33.9577C161.677 34.0049 161.659 34.0503 161.626 34.084C161.605 34.1029 161.581 34.1169 161.554 34.1249C161.527 34.133 161.499 34.1349 161.471 34.1304Z" fill="#405261"/>
<path d="M168.567 39.7823C168.025 42.5567 167.484 47.631 169.423 49.4823C169.423 49.4823 168.665 52.2928 163.513 52.2928C157.841 52.2928 160.811 49.4823 160.811 49.4823C163.905 48.7449 163.817 46.4501 163.281 44.2997L168.567 39.7823Z" fill="#EBBE8B"/>
<path d="M170.202 51.2305C170.609 49.8742 171.058 48.322 170.13 47.8321C169.098 47.3164 163.493 46.7492 161.559 47.7548C159.625 48.7604 160.177 51.5193 160.177 51.5193L170.202 51.2305Z" fill="#405261"/>
<path d="M182.093 179.826C181.933 179.848 181.77 179.837 181.615 179.794C181.459 179.752 181.313 179.678 181.186 179.579C181.141 179.516 181.117 179.442 181.117 179.365C181.117 179.288 181.141 179.213 181.186 179.151C181.215 179.097 181.256 179.051 181.305 179.014C181.354 178.978 181.41 178.952 181.469 178.939C182.026 178.816 183.068 179.527 183.114 179.558C183.128 179.569 183.138 179.584 183.144 179.6C183.151 179.616 183.153 179.634 183.151 179.651C183.148 179.668 183.14 179.683 183.128 179.695C183.116 179.707 183.1 179.715 183.083 179.718C182.758 179.788 182.426 179.825 182.093 179.826ZM181.619 179.104H181.511C181.476 179.112 181.443 179.126 181.414 179.148C181.386 179.169 181.362 179.197 181.346 179.228C181.263 179.373 181.315 179.434 181.346 179.455C181.505 179.672 182.279 179.672 182.846 179.579C182.477 179.335 182.057 179.176 181.619 179.115V179.104Z" fill="#008AF8"/>
<path d="M183.063 179.734H183.021C182.63 179.517 181.872 178.702 181.949 178.269C181.962 178.202 181.998 178.142 182.051 178.099C182.103 178.055 182.169 178.032 182.238 178.032C182.306 178.024 182.374 178.031 182.44 178.05C182.505 178.07 182.566 178.102 182.619 178.145C183.058 178.506 183.135 179.599 183.135 179.646C183.137 179.662 183.134 179.679 183.127 179.693C183.12 179.708 183.108 179.72 183.094 179.728C183.084 179.732 183.073 179.734 183.063 179.734ZM182.3 178.186H182.279C182.16 178.186 182.15 178.259 182.145 178.279C182.098 178.532 182.583 179.156 182.97 179.45C182.944 179.019 182.789 178.606 182.526 178.264C182.492 178.237 182.452 178.217 182.409 178.205C182.367 178.194 182.323 178.191 182.279 178.197L182.3 178.186Z" fill="#008AF8"/>
<path d="M159.347 179.826C158.862 179.826 158.393 179.759 158.233 179.543C158.192 179.485 158.171 179.417 158.171 179.347C158.171 179.277 158.192 179.208 158.233 179.151C158.264 179.098 158.306 179.052 158.355 179.015C158.405 178.979 158.462 178.953 158.522 178.939C159.145 178.769 160.476 179.522 160.533 179.553C160.548 179.563 160.56 179.577 160.567 179.593C160.574 179.61 160.577 179.628 160.574 179.646C160.571 179.664 160.562 179.681 160.549 179.694C160.536 179.706 160.52 179.715 160.502 179.718C160.121 179.79 159.734 179.826 159.347 179.826ZM158.743 179.094C158.687 179.086 158.63 179.086 158.573 179.094C158.537 179.101 158.502 179.116 158.472 179.137C158.442 179.159 158.417 179.186 158.398 179.218C158.331 179.331 158.356 179.383 158.398 179.414C158.568 179.651 159.527 179.666 160.239 179.568C159.775 179.318 159.267 179.161 158.743 179.104V179.094Z" fill="#008AF8"/>
<path d="M160.491 179.733H160.455C159.996 179.532 159.094 178.702 159.161 178.284C159.161 178.181 159.248 178.058 159.496 178.032C159.588 178.018 159.682 178.024 159.771 178.051C159.86 178.078 159.942 178.124 160.012 178.186C160.496 178.578 160.594 179.599 160.6 179.646C160.602 179.662 160.599 179.678 160.593 179.692C160.587 179.707 160.576 179.719 160.563 179.728C160.552 179.734 160.54 179.738 160.528 179.739C160.515 179.74 160.503 179.738 160.491 179.733ZM159.568 178.186H159.511C159.352 178.186 159.341 178.269 159.336 178.29C159.295 178.547 159.914 179.192 160.367 179.47C160.323 179.037 160.142 178.629 159.852 178.305C159.778 178.241 159.686 178.203 159.589 178.197L159.568 178.186Z" fill="#008AF8"/>
<path d="M164.658 179.641H160.868L160.491 170.869H164.282L164.658 179.641Z" fill="#EBBE8B"/>
<path d="M187.405 179.641H183.615L181.712 170.869H185.497L187.405 179.641Z" fill="#EBBE8B"/>
<path d="M183.346 179.202H187.601C187.677 179.203 187.75 179.229 187.809 179.277C187.868 179.325 187.909 179.391 187.926 179.465L188.673 182.833C188.69 182.915 188.689 183 188.668 183.081C188.648 183.162 188.61 183.238 188.556 183.302C188.503 183.367 188.436 183.418 188.359 183.453C188.283 183.488 188.2 183.505 188.116 183.503C186.631 183.477 185.909 183.39 184.037 183.39C182.887 183.39 180.515 183.513 178.922 183.513C177.328 183.513 177.127 181.966 177.777 181.796C180.696 181.157 181.794 180.275 182.727 179.44C182.897 179.286 183.118 179.202 183.346 179.202Z" fill="#405261"/>
<path d="M160.894 179.202H165.019C165.095 179.203 165.169 179.229 165.228 179.277C165.287 179.325 165.328 179.391 165.344 179.465L166.092 182.833C166.11 182.914 166.109 182.998 166.09 183.079C166.07 183.16 166.033 183.236 165.98 183.3C165.928 183.365 165.861 183.416 165.786 183.451C165.711 183.487 165.628 183.504 165.545 183.503C164.055 183.477 161.899 183.39 160.022 183.39C157.83 183.39 155.933 183.513 153.359 183.513C151.812 183.513 151.374 181.966 152.024 181.796C154.989 181.146 157.408 181.079 159.971 179.501C160.243 179.316 160.564 179.212 160.894 179.202Z" fill="#405261"/>
<path d="M159.073 56.1346C155.905 55.8892 152.753 55.4709 149.631 54.8815C148.084 54.5824 146.506 54.2472 144.938 53.8244C143.332 53.4131 141.754 52.8963 140.215 52.2773C139.818 52.1123 139.415 51.9318 139.018 51.7616C138.571 51.5414 138.141 51.2898 137.729 51.0087C136.987 50.5188 136.347 50.0083 135.713 49.5029C134.449 48.4716 133.279 47.4402 132.103 46.3831C129.798 44.2481 127.611 42.041 125.502 39.7204L127.4 37.601L134.883 42.9796C136.115 43.8665 137.363 44.738 138.59 45.558C139.199 45.9654 139.823 46.347 140.395 46.6718C140.635 46.8084 140.883 46.9289 141.138 47.0328C141.442 47.1514 141.751 47.27 142.076 47.3835C144.863 48.2417 147.714 48.8797 150.601 49.2915C153.545 49.7556 156.588 50.1372 159.527 50.4466L159.073 56.1346Z" fill="#EBBE8B"/>
<path d="M176.204 50.3384C179.757 51.1531 183.346 61.5338 183.346 61.5338L176.039 66.7783C176.039 66.7783 173.976 61.9412 171.986 57.7126C169.902 53.2829 172.574 49.5081 176.204 50.3384Z" fill="#008AF8"/>
<path d="M176.204 50.3384C179.757 51.1531 183.346 61.5338 183.346 61.5338L176.039 66.7783C176.039 66.7783 173.976 61.9412 171.986 57.7126C169.902 53.2829 172.574 49.5081 176.204 50.3384Z" fill="#1D2B36" opacity="0.4"/>
<path d="M174.157 56.0109L172.708 59.2545C174.208 62.493 175.58 65.7006 175.946 66.5566C175.895 62.7251 175.168 57.9705 174.157 56.0109Z" fill="#008AF8"/>
<path d="M174.157 56.0109L172.708 59.2545C174.208 62.493 175.58 65.7006 175.946 66.5566C175.895 62.7251 175.168 57.9705 174.157 56.0109Z" fill="#1D2B36" opacity="0.6"/>
<path d="M154.984 50.5343C154.984 50.5343 150.951 55.0878 154.757 83.2802H175.018C175.162 80.1861 173.208 64.9941 176.204 50.3384C173.965 49.9071 171.699 49.6212 169.423 49.4823C166.555 49.3172 163.679 49.3172 160.811 49.4823C158.844 49.6805 156.896 50.0322 154.984 50.5343Z" fill="#008AF8"/>
<path d="M154.984 50.5343C154.984 50.5343 150.951 55.0878 154.757 83.2802H175.018C175.162 80.1861 173.208 64.9941 176.204 50.3384C173.965 49.9071 171.699 49.6212 169.423 49.4823C166.555 49.3172 163.679 49.3172 160.811 49.4823C158.844 49.6805 156.896 50.0322 154.984 50.5343Z" fill="#1D2B36" opacity="0.4"/>
<path d="M153.483 56.0109C153.349 57.0783 153.246 58.3418 153.179 59.8321C155.18 59.2315 157.081 58.3383 158.821 57.1815L153.483 56.0109Z" fill="#008AF8"/>
<path d="M153.483 56.0109C153.349 57.0783 153.246 58.3418 153.179 59.8321C155.18 59.2315 157.081 58.3383 158.821 57.1815L153.483 56.0109Z" fill="#1D2B36" opacity="0.6"/>
<path d="M162.167 56.5781C159.455 58.9812 149.1 58.7388 149.1 58.7388L148.76 48.714C152.256 49.212 155.783 49.4671 159.316 49.4772C165.086 49.3586 165.127 53.9275 162.167 56.5781Z" fill="#008AF8"/>
<path d="M162.167 56.5781C159.455 58.9812 149.1 58.7388 149.1 58.7388L148.76 48.714C152.256 49.212 155.783 49.4671 159.316 49.4772C165.086 49.3586 165.127 53.9275 162.167 56.5781Z" fill="#1D2B36" opacity="0.4"/>
<path d="M127.498 37.6216L124.919 34.5842L122.14 37.6783C122.14 37.6783 123.852 40.5559 126.57 40.102L127.498 37.6216Z" fill="#EBBE8B"/>
<path d="M121.227 31.0415L120.227 35.0071L122.119 37.6577L124.899 34.5842L121.227 31.0415Z" fill="#EBBE8B"/>
<path d="M160.491 170.874L160.687 175.391H164.478L164.282 170.874H160.491Z" fill="#BF8356"/>
<path d="M185.502 170.874H181.712L182.691 175.391H186.482L185.502 170.874Z" fill="#BF8356"/>
<path d="M162.771 31.8253C159.372 30.2783 158.3 23.4042 168.077 25.1215C168.077 25.1215 166.602 26.751 169.593 27.7824C172.584 28.8138 170.083 35.1824 162.771 31.8253Z" fill="#405261"/>
<path d="M170.155 36.9822C169.181 40.5919 168.799 42.7888 166.545 44.2997C163.173 46.5687 158.98 43.9645 158.846 40.1124C158.728 36.6521 160.342 31.2942 164.235 30.5619C165.095 30.3934 165.983 30.4479 166.815 30.7202C167.647 30.9925 168.396 31.4734 168.99 32.1173C169.583 32.7611 170.002 33.5462 170.206 34.3979C170.41 35.2495 170.393 36.1392 170.155 36.9822Z" fill="#EBBE8B"/>
<path d="M167.943 26.9263C170.258 28.2156 173.394 28.9891 173.1 30.8249C172.713 33.0681 174.992 31.6655 174.461 35.0019C174.116 37.1833 170.093 43.7943 167.242 43.4746C162.982 42.9589 163.524 36.482 163.508 33.0681C163.498 31.0518 163.405 24.384 167.943 26.9263Z" fill="#405261"/>
<path d="M162.998 29.8193C161.966 30.0617 160.6 36.0075 164.596 36.5542C169.191 37.1781 162.998 29.8193 162.998 29.8193Z" fill="#405261"/>
<path d="M163.101 31.9285C161.837 32.0419 158.975 30.5207 159.326 28.231C159.326 28.2156 161.136 30.9074 163.101 31.9285Z" fill="#405261"/>
<path d="M164.978 37.0286C164.59 37.8788 163.932 38.5769 163.106 39.014C162.018 39.5812 161.404 38.7561 161.652 37.6629C161.873 36.6831 162.709 35.2031 163.828 35.0845C164.947 34.9659 165.426 35.9972 164.978 37.0286Z" fill="#EBBE8B"/>
<path d="M170.65 32.8567C171.421 32.5223 172.097 32.0019 172.617 31.3422C173.137 30.6826 173.486 29.9042 173.631 29.0768C173.631 29.0768 175.333 33.8056 170.65 32.8567Z" fill="#405261"/>
<path d="M174.951 32.7793C174.592 32.5383 174.179 32.39 173.749 32.3477C173.319 32.3055 172.885 32.3705 172.486 32.537C172.486 32.537 174.074 30.4794 174.951 32.7793Z" fill="#405261"/>
<path d="M161.946 83.2802C161.946 83.2802 166.246 112.231 168.603 123.075C171.181 134.936 180.928 174.52 180.928 174.52H187.864C187.864 174.52 181.444 135.911 179.969 124.133C178.37 111.369 175.018 83.2596 175.018 83.2596L161.946 83.2802Z" fill="#008AF8"/>
<path d="M161.946 83.2802C161.946 83.2802 166.246 112.231 168.603 123.075C171.181 134.936 180.928 174.52 180.928 174.52H187.864C187.864 174.52 181.444 135.911 179.969 124.133C178.37 111.369 175.018 83.2596 175.018 83.2596L161.946 83.2802Z" fill="white" opacity="0.5"/>
<path d="M179.819 171.962C179.788 171.962 180.536 174.628 180.536 174.628H188.343L188.199 172.251L179.819 171.962Z" fill="#008AF8"/>
<path d="M179.819 171.962C179.788 171.962 180.536 174.628 180.536 174.628H188.343L188.199 172.251L179.819 171.962Z" fill="#1D2B36" opacity="0.1"/>
<path d="M164.663 93.5938C169.634 94.5684 169.108 113.107 168.51 122.642C167.077 115.902 164.978 102.933 163.544 93.7279C163.891 93.557 164.286 93.5097 164.663 93.5938Z" fill="#008AF8"/>
<path d="M164.663 93.5938C169.634 94.5684 169.108 113.107 168.51 122.642C167.077 115.902 164.978 102.933 163.544 93.7279C163.891 93.557 164.286 93.5097 164.663 93.5938Z" fill="white" opacity="0.4"/>
<path d="M154.757 83.2802C154.757 83.2802 154.241 111.601 154.649 123.158C155.077 135.173 159.29 174.52 159.29 174.52H165.705C165.705 174.52 165.942 135.875 166.221 124.076C166.535 111.21 168.087 83.2802 168.087 83.2802H154.757Z" fill="#008AF8"/>
<path d="M154.757 83.2802C154.757 83.2802 154.241 111.601 154.649 123.158C155.077 135.173 159.29 174.52 159.29 174.52H165.705C165.705 174.52 165.942 135.875 166.221 124.076C166.535 111.21 168.087 83.2802 168.087 83.2802H154.757Z" fill="white" opacity="0.5"/>
<path d="M160.62 169.91C160.605 169.91 160.59 169.904 160.578 169.893C160.567 169.883 160.56 169.869 160.558 169.853C159.424 158.962 156.758 132.61 156.433 123.158C156.087 113.51 156.402 91.8611 156.505 85.4564C156.505 85.44 156.512 85.4242 156.523 85.4126C156.535 85.401 156.551 85.3945 156.567 85.3945C156.584 85.3944 156.6 85.4008 156.613 85.4123C156.625 85.4237 156.633 85.4395 156.634 85.4564C156.531 91.8611 156.216 113.51 156.562 123.153C156.897 132.605 159.563 158.946 160.687 169.838C160.687 169.855 160.681 169.872 160.67 169.885C160.659 169.899 160.643 169.907 160.625 169.91H160.62Z" fill="#008AF8"/>
<path d="M160.62 169.91C160.605 169.91 160.59 169.904 160.578 169.893C160.567 169.883 160.56 169.869 160.558 169.853C159.424 158.962 156.758 132.61 156.433 123.158C156.087 113.51 156.402 91.8611 156.505 85.4564C156.505 85.44 156.512 85.4242 156.523 85.4126C156.535 85.401 156.551 85.3945 156.567 85.3945C156.584 85.3944 156.6 85.4008 156.613 85.4123C156.625 85.4237 156.633 85.4395 156.634 85.4564C156.531 91.8611 156.216 113.51 156.562 123.153C156.897 132.605 159.563 158.946 160.687 169.838C160.687 169.855 160.681 169.872 160.67 169.885C160.659 169.899 160.643 169.907 160.625 169.91H160.62Z" fill="white" opacity="0.4"/>
<path d="M158.042 171.962C158.016 171.962 158.408 174.628 158.408 174.628H166.21L166.422 172.251L158.042 171.962Z" fill="#008AF8"/>
<path d="M158.042 171.962C158.016 171.962 158.408 174.628 158.408 174.628H166.21L166.422 172.251L158.042 171.962Z" fill="#1D2B36" opacity="0.1"/>
</svg>
