<svg width="200" height="200" viewBox="0 0 200 200" fill="none" xmlns="http://www.w3.org/2000/svg">
<path d="M118.371 57.977C139.724 61.1385 157.331 57.4096 173.949 76.7195C189.659 94.9773 187.085 112.441 173.794 128.336C139.074 169.87 97.4624 124.025 49.5899 120.033C7.89104 116.551 -9.59825 49.6269 23.9156 23.1325C34.7155 14.5554 56.5784 5.71538 70.7721 14.8804C90.6596 27.7743 89.0195 53.6343 118.371 57.977Z" fill="#1265E5"/>
<path opacity="0.9" d="M118.371 57.977C139.724 61.1385 157.331 57.4096 173.949 76.7195C189.659 94.9773 187.085 112.441 173.794 128.336C139.074 169.87 97.4624 124.025 49.5899 120.033C7.89104 116.551 -9.59825 49.6269 23.9156 23.1325C34.7155 14.5554 56.5784 5.71538 70.7721 14.8804C90.6596 27.7743 89.0195 53.6343 118.371 57.977Z" fill="white"/>
<path d="M100 188.979C155.228 188.979 200 186.365 200 183.141C200 179.916 155.228 177.302 100 177.302C44.7715 177.302 0 179.916 0 183.141C0 186.365 44.7715 188.979 100 188.979Z" fill="#F1F3F5"/>
<path d="M147.57 33.2465C147.508 33.5508 147.296 33.7623 147.095 33.7262C146.894 33.6901 146.786 33.4064 146.848 33.1021C146.91 32.7978 147.121 32.5863 147.322 32.6224C147.523 32.6586 147.647 32.9319 147.57 33.2465Z" fill="#405261"/>
<path d="M147.322 33.7726C146.768 34.631 146.1 35.4101 145.337 36.0883C145.515 36.2796 145.733 36.4295 145.975 36.5276C146.217 36.6256 146.478 36.6693 146.739 36.6557L147.322 33.7726Z" fill="#CF8362"/>
<path d="M149.029 31.7818C149.065 31.781 149.099 31.77 149.129 31.7502C149.158 31.7304 149.181 31.7026 149.195 31.67C149.21 31.6374 149.214 31.6015 149.208 31.5665C149.203 31.5315 149.187 31.4988 149.163 31.4724C148.972 31.2556 148.732 31.0877 148.463 30.9827C148.194 30.8778 147.904 30.8387 147.616 30.8689C147.589 30.869 147.563 30.875 147.538 30.8865C147.514 30.8979 147.492 30.9146 147.475 30.9352C147.458 30.9559 147.445 30.9801 147.438 31.0061C147.431 31.0321 147.43 31.0594 147.434 31.086C147.439 31.1125 147.449 31.1378 147.464 31.16C147.48 31.1822 147.499 31.2008 147.523 31.2145C147.546 31.2282 147.572 31.2367 147.599 31.2394C147.626 31.242 147.653 31.2388 147.678 31.2299C147.908 31.2124 148.139 31.25 148.352 31.3397C148.564 31.4295 148.752 31.5686 148.9 31.7457C148.937 31.7738 148.983 31.7867 149.029 31.7818Z" fill="#405261"/>
<path d="M156.044 38.8012C155.492 41.6276 155.156 45.537 157.132 47.4247C157.132 47.4247 156.358 50.2871 151.113 50.2871C145.342 50.2871 148.338 47.7754 148.338 47.7754C150.736 47.0275 150.716 44.2992 150.164 42.1021L156.044 38.8012Z" fill="#DFA977"/>
<path d="M147.859 48.2757C147.859 48.2757 148.503 46.2848 149.158 45.9393C149.813 45.5937 156.797 44.6963 157.761 45.4906C158.725 46.2848 156.554 48.8327 156.554 48.8327L147.859 48.2757Z" fill="#405261"/>
<path d="M145.068 179.407C144.553 179.407 144.099 179.34 143.959 179.113C143.924 179.051 143.908 178.979 143.916 178.907C143.923 178.836 143.953 178.769 144.001 178.716C144.034 178.662 144.079 178.615 144.131 178.579C144.183 178.542 144.243 178.517 144.305 178.504C144.96 178.329 146.249 179.097 146.301 179.128C146.316 179.138 146.328 179.152 146.335 179.168C146.343 179.185 146.345 179.203 146.342 179.221C146.338 179.241 146.327 179.258 146.313 179.272C146.298 179.286 146.28 179.295 146.26 179.298C145.866 179.368 145.468 179.404 145.068 179.407ZM144.553 178.649C144.494 178.64 144.435 178.64 144.377 178.649C144.338 178.655 144.301 178.671 144.268 178.693C144.235 178.715 144.207 178.744 144.186 178.777C144.114 178.891 144.13 178.943 144.15 178.979C144.31 179.226 145.285 179.231 146.012 179.133C145.564 178.874 145.067 178.709 144.553 178.649Z" fill="#1265E5"/>
<path d="M146.255 179.288H146.219C145.77 179.077 144.914 178.257 145.022 177.808C145.022 177.705 145.125 177.576 145.383 177.55C145.471 177.54 145.56 177.548 145.644 177.575C145.729 177.602 145.807 177.646 145.873 177.705C146.332 178.112 146.353 179.149 146.353 179.195C146.353 179.221 146.342 179.246 146.324 179.265C146.306 179.283 146.281 179.293 146.255 179.293V179.288ZM145.44 177.741H145.383C145.218 177.741 145.202 177.823 145.197 177.844C145.135 178.107 145.713 178.762 146.162 179.051C146.156 178.62 146.011 178.202 145.749 177.859C145.667 177.776 145.556 177.728 145.44 177.725V177.741Z" fill="#1265E5"/>
<path d="M150.504 179.195H146.646L146.992 170.257H150.85L150.504 179.195Z" fill="#DFA977"/>
<path d="M146.708 178.752H150.922C150.997 178.75 151.07 178.775 151.127 178.824C151.184 178.873 151.222 178.94 151.232 179.015L151.711 182.444C151.722 182.53 151.713 182.618 151.687 182.7C151.662 182.783 151.618 182.859 151.561 182.924C151.503 182.989 151.433 183.041 151.354 183.076C151.275 183.112 151.189 183.13 151.103 183.13C149.581 183.105 147.394 183.017 145.481 183.017C143.248 183.017 142.964 183.141 140.323 183.141C138.74 183.141 138.431 181.537 139.106 181.392C142.201 180.732 142.99 180.66 145.734 179.051C146.025 178.864 146.362 178.761 146.708 178.752Z" fill="#405261"/>
<path d="M135.635 57.5438C135.799 57.6336 135.937 57.7645 136.036 57.9235C136.134 58.0826 136.19 58.2645 136.197 58.4515L136.223 59.3128C136.235 59.5308 136.178 59.747 136.062 59.9317C135.946 60.1164 135.775 60.2605 135.573 60.3443L133.84 61.0715C133.35 61.2748 132.805 61.3075 132.293 61.1644L130.112 60.5403C129.883 60.449 129.685 60.2942 129.541 60.094C129.398 59.8938 129.315 59.6567 129.302 59.4108L129.23 58.1885C129.219 58.0072 129.246 57.8256 129.309 57.6555C129.373 57.4855 129.472 57.3307 129.599 57.2013C129.727 57.0719 129.88 56.9708 130.049 56.9045C130.218 56.8382 130.399 56.8083 130.581 56.8165L131.612 56.863C132.992 56.6106 134.416 56.8516 135.635 57.5438Z" fill="#DFA977"/>
<path d="M162.052 53.7891C161.343 54.9754 160.544 56.1064 159.664 57.1725C158.776 58.2523 157.798 59.2548 156.74 60.169C154.685 61.8949 152.447 63.3909 150.066 64.6303L149.855 64.7438C149.383 65.003 148.835 65.087 148.307 64.981C147.152 64.7541 146.002 64.4653 144.852 64.2022C143.702 63.9392 142.567 63.5936 141.432 63.2378C140.298 62.8819 139.173 62.5002 138.059 62.0567C137.502 61.8349 136.956 61.5925 136.404 61.3449C135.852 61.0974 135.331 60.8292 134.722 60.5094C134.418 60.341 134.185 60.0694 134.064 59.7437C133.943 59.4179 133.942 59.0596 134.062 58.7336C134.183 58.4075 134.416 58.1354 134.719 57.9663C135.023 57.7973 135.377 57.7425 135.718 57.812L135.857 57.843L137.43 58.1627C137.977 58.271 138.529 58.3587 139.08 58.4515C140.184 58.6372 141.293 58.8091 142.407 58.9673C143.516 59.1323 144.635 59.2613 145.754 59.4057L149.112 59.7822L147.343 60.1329C149.299 58.8708 151.147 57.4475 152.867 55.8779C153.667 55.1127 154.418 54.2979 155.115 53.4384C155.821 52.5639 156.48 51.6532 157.091 50.71C157.522 50.1014 158.17 49.6808 158.902 49.5343C159.633 49.3877 160.393 49.5264 161.026 49.9218C161.659 50.3173 162.116 50.9396 162.305 51.6614C162.494 52.3832 162.4 53.1499 162.042 53.8046L162.052 53.7891Z" fill="#DFA977"/>
<path d="M141.179 51.3083C140.39 55.4756 139.895 64.0423 142.211 81.0004H162.841C161.829 71.5306 161.94 61.9744 163.171 52.5306C163.267 51.8336 163.22 51.1245 163.033 50.4462C162.846 49.7679 162.524 49.1347 162.085 48.5848C161.646 48.035 161.1 47.5801 160.48 47.2477C159.86 46.9152 159.179 46.7123 158.478 46.651C158.034 46.6149 157.586 46.584 157.142 46.5633C154.222 46.3934 151.294 46.3934 148.374 46.5633C147.405 46.651 146.456 46.7903 145.61 46.9398C144.515 47.1319 143.505 47.6528 142.713 48.4331C141.922 49.2135 141.387 50.2164 141.179 51.3083Z" fill="#1265E5"/>
<path opacity="0.2" d="M146.992 170.262L146.812 174.868H150.675L150.855 170.262H146.992Z" fill="#1D2B36"/>
<path d="M157.88 34.67C156.889 38.3731 156.492 40.5857 154.213 42.1278C150.778 44.4384 146.476 41.7823 146.363 37.8625C146.244 34.3296 147.884 28.8729 151.856 28.1251C152.731 27.9568 153.634 28.0149 154.481 28.2938C155.327 28.5728 156.088 29.0634 156.691 29.719C157.295 30.3747 157.721 31.1736 157.929 32.0401C158.137 32.9066 158.12 33.8119 157.88 34.67Z" fill="#DFA977"/>
<path d="M148.338 35.3663C147.678 33.9067 148.565 31.5033 149.653 30.8586C148.849 30.2087 148.024 29.5743 148.338 28.0322C148.653 26.4901 151.685 24.5663 153.496 25.9125C155.306 27.2586 162.351 25.2265 160.175 30.152C165.044 31.9881 158.885 39.513 155.677 41.4367C152.469 43.3605 149.751 39.5491 148.338 35.3663Z" fill="#405261"/>
<path d="M159.51 30.2087C159.51 30.2087 161.428 29.7497 161.629 27.0575C163.207 29.5486 162.289 30.7812 159.51 30.2087Z" fill="#405261"/>
<path d="M151.072 34.7732C150.843 35.6964 150.318 36.519 149.576 37.1147C148.591 37.8883 147.823 37.1766 147.864 36.0368C147.9 35.0052 148.457 33.3755 149.555 33.0402C150.654 32.705 151.33 33.654 151.072 34.7732Z" fill="#DFA977"/>
<path d="M187.551 165.043L184.132 166.693L179.51 158.833L182.93 157.183L187.551 165.043Z" fill="#DFA977"/>
<path d="M182.203 166.905C181.831 167.24 181.439 167.508 181.171 167.421C181.084 167.421 180.97 167.323 180.934 167.101C180.914 166.973 180.944 166.842 181.016 166.735C181.388 166.162 182.858 165.868 182.92 165.858C182.937 165.854 182.955 165.856 182.971 165.863C182.987 165.871 183 165.883 183.007 165.899C183.017 165.915 183.023 165.934 183.023 165.953C183.023 165.972 183.017 165.991 183.007 166.007C182.765 166.329 182.496 166.629 182.203 166.905ZM181.29 166.724C181.245 166.764 181.205 166.809 181.171 166.858C181.127 166.923 181.107 167.002 181.114 167.08C181.114 167.214 181.192 167.245 181.228 167.256C181.512 167.333 182.259 166.678 182.708 166.116C182.203 166.223 181.724 166.43 181.3 166.724H181.29Z" fill="#1265E5"/>
<path d="M183.007 166.038H182.976C182.502 166.183 181.311 166.141 181.094 165.744C181.042 165.651 181.022 165.502 181.192 165.311C181.25 165.244 181.322 165.19 181.403 165.153C181.484 165.117 181.572 165.098 181.661 165.1C182.27 165.1 182.987 165.842 183.018 165.878C183.024 165.892 183.027 165.907 183.027 165.922C183.027 165.937 183.024 165.952 183.018 165.966C183.021 165.978 183.022 165.991 183.02 166.003C183.019 166.016 183.014 166.028 183.007 166.038ZM181.352 165.425L181.316 165.466C181.202 165.59 181.233 165.646 181.244 165.667C181.372 165.904 182.239 166.002 182.765 165.914C182.474 165.596 182.086 165.382 181.661 165.306C181.547 165.307 181.438 165.349 181.352 165.425Z" fill="#1265E5"/>
<path d="M182.982 165.337L186.102 162.5C186.159 162.452 186.231 162.425 186.306 162.425C186.38 162.425 186.452 162.452 186.509 162.5L189.171 164.718C189.236 164.776 189.287 164.846 189.323 164.925C189.359 165.005 189.377 165.09 189.377 165.177C189.377 165.264 189.359 165.35 189.323 165.429C189.287 165.508 189.236 165.578 189.171 165.636C188.031 166.637 186.349 168.045 184.931 169.329C183.281 170.83 183.152 171.108 181.213 172.872C180.037 173.935 178.732 172.96 179.149 172.398C180.98 169.819 181.537 169.241 182.481 166.209C182.566 165.878 182.739 165.577 182.982 165.337Z" fill="#405261"/>
<path opacity="0.2" d="M179.51 158.838L181.893 162.887L185.313 161.237L182.935 157.183L179.51 158.838Z" fill="#1D2B36"/>
<path d="M149.514 81.0004C149.514 81.0004 155.971 110.656 158.442 121.663C161.15 133.716 179.351 161.984 179.351 161.984L185.633 158.699C185.633 158.699 173.951 134.881 169.428 121.049C167.416 108.155 162.836 81.0107 162.836 81.0107L149.514 81.0004Z" fill="#1265E5"/>
<path opacity="0.5" d="M149.514 81.0004C149.514 81.0004 155.971 110.656 158.442 121.663C161.15 133.716 179.351 161.984 179.351 161.984L185.633 158.699C185.633 158.699 173.951 134.881 169.428 121.049C167.416 108.155 162.836 81.0107 162.836 81.0107L149.514 81.0004Z" fill="#1D2B36"/>
<path d="M177.633 160.757C177.607 160.757 179.036 163.057 179.036 163.057L186.386 159.184L185.633 156.863L177.633 160.757Z" fill="#1265E5"/>
<path opacity="0.3" d="M153.32 94.7453C158.179 95.39 158.741 112.518 158.653 122.565C158.586 122.245 158.514 121.946 158.452 121.658C157.106 115.649 154.569 104.07 152.542 94.8021C152.793 94.7229 153.06 94.7035 153.32 94.7453Z" fill="#1D2B36"/>
<path d="M142.19 81.0004C142.19 81.0004 141.257 109.883 141.582 121.637C141.917 133.865 145.192 173.976 145.192 173.976H151.773C151.773 173.976 152.64 134.598 153.362 122.57C154.14 109.46 155.786 81.0004 155.786 81.0004H142.19Z" fill="#1265E5"/>
<path opacity="0.5" d="M142.19 81.0004C142.19 81.0004 141.257 109.883 141.582 121.637C141.917 133.865 145.192 173.976 145.192 173.976H151.773C151.773 173.976 152.64 134.598 153.362 122.57C154.14 109.46 155.786 81.0004 155.786 81.0004H142.19Z" fill="#1D2B36"/>
<path d="M144.403 171.371C144.372 171.371 144.547 174.084 144.547 174.084H152.505L152.918 171.665L144.403 171.371Z" fill="#1265E5"/>
<path d="M123.407 63.836C123.591 63.8708 123.763 63.9534 123.905 64.0757C124.047 64.1979 124.154 64.3554 124.216 64.5323L124.5 65.3421C124.572 65.5453 124.581 65.7657 124.524 65.9739C124.468 66.1821 124.35 66.3683 124.185 66.5077L122.752 67.7249C122.34 68.0701 121.824 68.268 121.287 68.287L119.064 68.3489C118.818 68.3313 118.583 68.2438 118.385 68.0966C118.188 67.9495 118.037 67.7489 117.95 67.5185L117.511 66.3736C117.447 66.2041 117.419 66.0229 117.428 65.8418C117.438 65.6607 117.486 65.4837 117.569 65.3223C117.651 65.1608 117.767 65.0186 117.908 64.9047C118.049 64.7908 118.213 64.7079 118.388 64.6613L119.373 64.3982C120.61 63.7424 122.038 63.5434 123.407 63.836Z" fill="#DFA977"/>
<path d="M146.616 52.6492C146.187 54.2223 145.713 55.7902 145.238 57.3581C144.764 58.926 144.248 60.4836 143.691 62.036C143.134 63.5884 142.567 65.1305 141.922 66.6778C141.602 67.4566 141.267 68.2251 140.891 69.0245C140.498 69.866 140.054 70.6825 139.56 71.4692L139.441 71.6549C139.194 72.0432 138.839 72.3511 138.419 72.5407C138 72.7303 137.534 72.7935 137.079 72.7225C136.429 72.6193 135.779 72.5316 135.135 72.4079C134.49 72.2841 133.851 72.1551 133.211 71.9849C132.571 71.8147 131.942 71.6549 131.313 71.4434C130.684 71.2319 130.065 71.0205 129.451 70.7832C128.221 70.2932 127.029 69.7104 125.887 69.04C125.313 68.6992 124.757 68.3291 124.221 67.9311C123.948 67.7351 123.706 67.5236 123.422 67.307C123.288 67.1987 123.159 67.0904 123.03 66.9666C122.901 66.8429 122.788 66.7397 122.612 66.5643C122.365 66.3253 122.211 66.0056 122.179 65.6631C122.148 65.3206 122.239 64.978 122.438 64.6974C122.637 64.4168 122.93 64.2167 123.264 64.1334C123.598 64.0501 123.95 64.0892 124.258 64.2434L124.495 64.3621L125.165 64.7025C125.413 64.8211 125.681 64.9449 125.923 65.0532C126.439 65.2801 126.955 65.4709 127.502 65.6618C128.575 66.034 129.669 66.3474 130.777 66.6004C131.886 66.848 133.01 67.044 134.139 67.1884C134.696 67.2709 135.274 67.3019 135.836 67.3689L137.543 67.4772L135.068 68.7254C135.387 68.1115 135.669 67.4795 135.914 66.8325C136.187 66.1363 136.46 65.4142 136.718 64.6818C137.234 63.2119 137.714 61.7008 138.193 60.1844L139.596 55.6045L140.989 50.9988C141.201 50.2526 141.7 49.6213 142.378 49.2436C143.056 48.8659 143.855 48.7728 144.602 48.9848C145.348 49.1968 145.979 49.6966 146.357 50.3741C146.734 51.0516 146.828 51.8515 146.616 52.5977V52.6492Z" fill="#DFA977"/>
<path d="M149.798 51.0246C151.345 56.1203 144.64 63.1037 144.64 63.1037L137.301 59.6172C137.301 59.6172 138.126 53.557 141.231 49.9209C145.068 45.439 148.622 47.1513 149.798 51.0246Z" fill="#1265E5"/>
<path d="M59.0664 81.7689C62.0836 84.5953 62.6303 87.1431 62.228 90.5368C61.8257 93.9305 57.2974 94.9465 57.2974 94.9465L57.6893 82.5683L59.0664 81.7689Z" fill="#405261"/>
<path d="M49.1433 178.896L53.2745 178.834L53.0166 169.231L48.8854 169.293L49.1433 178.896Z" fill="#FACEA6"/>
<path d="M53.3209 178.375L48.808 178.447C48.7283 178.447 48.6513 178.476 48.5922 178.53C48.533 178.583 48.496 178.657 48.4883 178.736L48.0963 182.424C48.0883 182.517 48.1001 182.612 48.1309 182.7C48.1616 182.789 48.2107 182.87 48.2749 182.939C48.3391 183.008 48.4169 183.062 48.5034 183.098C48.59 183.135 48.6832 183.153 48.7771 183.151C50.4017 183.1 52.7432 182.965 54.7908 182.934C57.1839 182.898 56.9467 182.996 59.7575 182.934C61.4492 182.909 61.7226 181.186 60.9953 181.042C57.6842 180.382 57.349 180.345 54.3576 178.664C54.043 178.479 53.6857 178.38 53.3209 178.375Z" fill="#405261"/>
<path d="M57.71 51.8757C59.3759 53.9387 61.1501 56.0946 62.9192 58.137C64.6882 60.1793 66.5294 62.196 68.4068 64.0011L68.7575 64.3312L68.938 64.5014L69.0257 64.5839L68.9948 64.5581L68.9226 64.5065C68.7653 64.4067 68.5901 64.3384 68.4068 64.3054C68.3477 64.2894 68.2854 64.2894 68.2263 64.3054C68.2263 64.3054 68.3707 64.3054 68.5564 64.3054C68.7887 64.2581 69.0178 64.1961 69.2423 64.1197C70.3959 63.6728 71.5088 63.1275 72.569 62.4899C74.8486 61.1696 77.1695 59.6172 79.4234 58.0854L81.5225 60.3805C79.6406 62.5894 77.5622 64.6229 75.3128 66.4561C74.0986 67.451 72.783 68.3154 71.3879 69.0349C70.97 69.2352 70.5392 69.4075 70.0985 69.5506C69.5396 69.7437 68.9561 69.8566 68.3655 69.8859C67.957 69.9066 67.5476 69.8719 67.1484 69.7827C66.6296 69.6727 66.1373 69.4625 65.6991 69.1638L65.5237 69.04L65.3999 68.9472L65.2916 68.8595L65.0699 68.6842L64.6315 68.3335C63.4659 67.3948 62.3725 66.4097 61.3255 65.404C60.2785 64.3982 59.2624 63.3409 58.2825 62.3094C56.3169 60.2006 54.4611 57.992 52.7227 55.6923L57.71 51.8757Z" fill="#FACEA6"/>
<path d="M50.51 53.6189C50.2006 57.6109 59.9432 65.8578 59.9432 65.8578L66.5965 58.9518C64.4828 56.0955 62.0614 53.4804 59.3759 51.1536C55.3633 47.8888 50.8453 49.2401 50.51 53.6189Z" fill="#1265E5"/>
<path opacity="0.2" d="M56.106 56.8218C57.8287 57.1106 61.8155 61.6699 61.965 63.7587L59.9433 65.8578C57.6035 63.8471 55.4223 61.659 53.4189 59.3129C54.2184 57.9152 55.1983 56.6568 56.106 56.8218Z" fill="#1D2B36"/>
<path d="M79.8309 61.3347L84.5707 61.1438L83.5804 56.533C83.5804 56.533 79.9134 56.1926 78.8767 59.0808L79.8309 61.3347Z" fill="#FACEA6"/>
<path d="M88.0674 58.5341L86.876 56.6567C86.7802 56.5046 86.6428 56.3829 86.4802 56.3062C86.3175 56.2294 86.1364 56.2007 85.958 56.2235L83.5803 56.5175L84.5706 61.1283L87.6135 59.9163C87.7423 59.8649 87.8583 59.7858 87.9532 59.6847C88.0482 59.5836 88.1198 59.4629 88.163 59.3311C88.2063 59.1994 88.2202 59.0597 88.2037 58.922C88.1871 58.7843 88.1406 58.6519 88.0674 58.5341Z" fill="#FACEA6"/>
<path opacity="0.2" d="M53.0166 169.231L53.1507 174.182L49.0143 174.249L48.8854 169.298L53.0166 169.231Z" fill="#1D2B36"/>
<path d="M55.6264 49.4361C48.938 48.6144 42.1536 49.1014 35.6511 50.8699C35.292 50.9627 34.9833 51.1919 34.7906 51.5088C34.598 51.8257 34.5366 52.2053 34.6196 52.5668C38.0906 67.9002 36.6465 83.77 36.9147 87.0554L59.0613 86.6995C60.6395 67.7971 58.824 55.9347 57.9369 51.6023C57.8222 51.047 57.5386 50.5408 57.125 50.153C56.7113 49.7652 56.1879 49.5148 55.6264 49.4361Z" fill="#1265E5"/>
<path d="M40.3807 49.5651L39.3492 49.8127C39.3208 49.8201 39.295 49.835 39.2744 49.8558C39.2537 49.8766 39.239 49.9024 39.2316 49.9308C39.2243 49.9591 39.2246 49.9889 39.2325 50.0171C39.2405 50.0453 39.2558 50.0709 39.277 50.0912C43.1193 53.6241 58.5662 72.1707 59.015 87.7723H60.3508C59.8969 71.9386 44.0529 52.7009 40.5045 49.6064C40.4885 49.5902 40.469 49.5781 40.4475 49.5709C40.426 49.5638 40.4031 49.5618 40.3807 49.5651Z" fill="#405261"/>
<path opacity="0.2" d="M38.7869 58.008C39.1273 59.5295 38.4104 66.4716 36.7548 68.1839C36.6207 65.961 36.4196 63.6401 36.1307 61.2676L38.7869 58.008Z" fill="#1D2B36"/>
<path d="M42.2579 39.121C42.9593 42.0969 43.7536 47.4143 41.7112 49.5857C43.4183 51.0917 45.6361 52.9948 49.2361 52.8556C52.836 52.7163 52.1604 50.2768 51.165 49.0544C47.7558 48.5026 47.7146 46.0012 48.2149 43.6132L42.2579 39.121Z" fill="#FACEA6"/>
<path opacity="0.2" d="M44.6871 40.9726L48.2097 43.6287C48.0868 44.1835 48.0108 44.7477 47.9828 45.3152C46.6882 45.2224 44.8882 43.9433 44.6768 42.6075C44.5811 42.0664 44.5846 41.5124 44.6871 40.9726Z" fill="#1D2B36"/>
<path d="M41.2523 34.6184C41.768 38.6878 41.8712 41.1015 44.0735 43.0459C47.3898 45.9702 52.3256 43.7215 53.027 39.5697C53.6665 35.8305 52.7124 29.8013 48.5966 28.4706C47.6864 28.1811 46.7177 28.1261 45.7805 28.3107C44.8433 28.4953 43.9678 28.9135 43.2354 29.5267C42.5029 30.1398 41.9371 30.928 41.5904 31.8181C41.2437 32.7082 41.1274 33.6714 41.2523 34.6184Z" fill="#FACEA6"/>
<path d="M53.976 28.5067C54.2769 28.6146 54.5486 28.791 54.7697 29.0219C54.9908 29.2528 55.1552 29.532 55.2499 29.8373C55.2642 29.905 55.2599 29.9753 55.2374 30.0407C55.2149 30.1061 55.175 30.1642 55.122 30.2087C55.069 30.2532 55.005 30.2825 54.9366 30.2934C54.8683 30.3042 54.7983 30.2964 54.7341 30.2706C52.537 29.3319 47.266 29.7187 47.266 29.7187C47.266 29.7187 51.8098 27.7743 53.976 28.5067Z" fill="#1265E5"/>
<path opacity="0.2" d="M53.976 28.5067C54.2769 28.6146 54.5486 28.791 54.7697 29.0219C54.9908 29.2528 55.1552 29.532 55.2499 29.8373C55.2642 29.905 55.2599 29.9753 55.2374 30.0407C55.2149 30.1061 55.175 30.1642 55.122 30.2087C55.069 30.2532 55.005 30.2825 54.9366 30.2934C54.8683 30.3042 54.7983 30.2964 54.7341 30.2706C52.537 29.3319 47.266 29.7187 47.266 29.7187C47.266 29.7187 51.8098 27.7743 53.976 28.5067Z" fill="#1D2B36"/>
<path d="M42.2271 38.2597L44.0322 37.9193C44.0322 37.9193 45.5795 34.3967 43.7744 33.3033C45.8374 31.1474 53.1663 32.6328 51.9594 30.1262C50.9692 28.0632 46.348 26.8357 42.6758 28.187C39.0036 29.5382 39.442 31.2815 39.442 31.2815C39.442 31.2815 36.5641 33.458 38.8076 36.0213C38.8334 37.125 40.9841 38.7754 42.2271 38.2597Z" fill="#405261"/>
<path d="M38.431 36.0265C38.4646 36.0626 38.5059 36.0908 38.5517 36.1091C38.5975 36.1274 38.6468 36.1353 38.6961 36.1324C38.7454 36.1294 38.7934 36.1156 38.8367 36.092C38.88 36.0683 38.9176 36.0354 38.9467 35.9955C39.6894 35.0517 42.1753 32.1222 45.2699 30.8895C47.1265 30.1198 49.0973 29.6615 51.1031 29.5331C51.1629 29.5324 51.2214 29.5157 51.2726 29.4848C51.3237 29.4538 51.3657 29.4098 51.3941 29.3572C51.4225 29.3046 51.4363 29.2453 51.4341 29.1856C51.4319 29.1258 51.4138 29.0677 51.3816 29.0173C50.9006 28.0502 50.2974 27.1489 49.5868 26.3354C48.7719 25.603 42.9232 25.273 41.216 26.3973C40.0659 27.1606 36.8218 30.4202 36.6929 31.9984C36.5949 33.1073 37.2705 34.7783 38.431 36.0265Z" fill="#1265E5"/>
<path opacity="0.3" d="M38.431 36.0265C38.4646 36.0626 38.5059 36.0908 38.5517 36.1091C38.5975 36.1274 38.6468 36.1353 38.6961 36.1324C38.7454 36.1294 38.7934 36.1156 38.8367 36.092C38.88 36.0683 38.9176 36.0354 38.9467 35.9955C39.6894 35.0517 42.1753 32.1222 45.2699 30.8895C47.1265 30.1198 49.0973 29.6615 51.1031 29.5331C51.1629 29.5324 51.2214 29.5157 51.2726 29.4848C51.3237 29.4538 51.3657 29.4098 51.3941 29.3572C51.4225 29.3046 51.4363 29.2453 51.4341 29.1856C51.4319 29.1258 51.4138 29.0677 51.3816 29.0173C50.9006 28.0502 50.2974 27.1489 49.5868 26.3354C48.7719 25.603 42.9232 25.273 41.216 26.3973C40.0659 27.1606 36.8218 30.4202 36.6929 31.9984C36.5949 33.1073 37.2705 34.7783 38.431 36.0265Z" fill="white"/>
<path d="M42.4281 32.5193C44.5018 31.4755 46.8159 31.002 49.1329 31.1474C49.3873 31.1619 49.6408 31.106 49.8655 30.9859C50.0902 30.8658 50.2775 30.6861 50.4069 30.4666C50.9742 29.5383 51.9232 28.8162 53.5891 28.5893C53.6123 28.5893 53.6346 28.58 53.6511 28.5636C53.6675 28.5471 53.6767 28.5248 53.6767 28.5016C53.6767 28.4783 53.6675 28.456 53.6511 28.4396C53.6346 28.4231 53.6123 28.4139 53.5891 28.4139C51.1238 27.7744 43.5886 29.6827 42.4281 32.5193Z" fill="#1265E5"/>
<path d="M39.576 38.7703C39.8476 39.2022 40.2021 39.5759 40.6191 39.8698C41.0361 40.1637 41.5072 40.372 42.0052 40.4826C43.341 40.7714 43.9393 39.5542 43.5112 38.3371C43.1244 37.2385 41.9639 35.7583 40.6488 36.0213C40.363 36.0829 40.097 36.2144 39.8745 36.4039C39.652 36.5935 39.4799 36.8352 39.3736 37.1075C39.2673 37.3798 39.2302 37.6742 39.2655 37.9644C39.3008 38.2545 39.4075 38.5314 39.576 38.7703Z" fill="#FACEA6"/>
<path d="M46.2447 127.79C46.4098 106.974 41.8041 86.9781 41.8041 86.9781L59.0664 86.6996C59.0664 86.6996 57.0808 116.768 56.3897 129.363C55.6728 142.458 54.6722 173.202 54.6722 173.202L47.6631 173.311C47.6631 173.311 45.2751 144.222 46.2447 127.79Z" fill="#405261"/>
<path opacity="0.2" d="M45.5588 98.4329C50.4791 105.169 48.2665 117.841 46.2499 126.8C46.1707 116.924 45.3309 107.07 43.7382 97.324L45.5588 98.4329Z" fill="#1D2B36"/>
<path d="M46.7863 170.783L47.2298 173.481L55.1312 173.352L55.5902 170.494L46.7863 170.783Z" fill="#1265E5"/>
<path d="M48.2149 35.2993C48.2149 35.6345 48.4315 35.8924 48.6482 35.8718C48.8648 35.8511 49.0247 35.5726 49.004 35.2426C48.9834 34.9125 48.7874 34.6546 48.5708 34.6701C48.3542 34.6855 48.1943 34.995 48.2149 35.2993Z" fill="#405261"/>
<path d="M52.0161 35.0208C52.0161 35.356 52.2327 35.6087 52.4493 35.5933C52.6659 35.5778 52.8258 35.2941 52.8052 34.964C52.7846 34.634 52.5886 34.3709 52.3719 34.3864C52.1553 34.4019 51.9954 34.6855 52.0161 35.0208Z" fill="#405261"/>
<path d="M50.7369 35.2734C51.2002 36.2628 51.7991 37.1829 52.5163 38.0069C52.303 38.1825 52.0544 38.3102 51.7875 38.3814C51.5206 38.4526 51.2414 38.4656 50.969 38.4196L50.7369 35.2734Z" fill="#E5978F"/>
<path d="M49.2412 39.415C48.8675 39.4004 48.5009 39.3085 48.1645 39.1452C47.828 38.9818 47.5291 38.7506 47.2865 38.466C47.2773 38.4569 47.27 38.446 47.265 38.4341C47.26 38.4221 47.2574 38.4093 47.2574 38.3964C47.2574 38.3834 47.26 38.3706 47.265 38.3586C47.27 38.3467 47.2773 38.3358 47.2865 38.3267C47.3047 38.3097 47.3286 38.3002 47.3535 38.3002C47.3784 38.3002 47.4024 38.3097 47.4206 38.3267C47.6963 38.6367 48.0414 38.8772 48.4277 39.0287C48.8139 39.1802 49.2305 39.2383 49.6435 39.1984C49.6687 39.1969 49.6934 39.2052 49.7126 39.2215C49.7319 39.2379 49.744 39.261 49.7466 39.286C49.7481 39.2993 49.7468 39.3128 49.7428 39.3255C49.7388 39.3383 49.7323 39.3501 49.7236 39.3602C49.7149 39.3704 49.7042 39.3786 49.6922 39.3845C49.6802 39.3904 49.6672 39.3937 49.6538 39.3943C49.5169 39.4106 49.3791 39.4175 49.2412 39.415Z" fill="#405261"/>
<path d="M45.8424 33.7468C45.8101 33.7412 45.7788 33.7307 45.7496 33.7159C45.7066 33.6865 45.6766 33.6416 45.6661 33.5906C45.6555 33.5397 45.6651 33.4866 45.6928 33.4425C45.8578 33.1758 46.0845 32.9527 46.3538 32.792C46.6231 32.6313 46.9271 32.5378 47.2401 32.5193C47.2921 32.5193 47.3419 32.54 47.3787 32.5767C47.4154 32.6135 47.4361 32.6633 47.4361 32.7153C47.4348 32.7669 47.4137 32.816 47.3773 32.8524C47.3408 32.8889 47.2917 32.91 47.2401 32.9113C46.9934 32.9292 46.7546 33.006 46.5438 33.1352C46.3329 33.2644 46.156 33.4423 46.0281 33.654C46.0085 33.6849 45.9809 33.7098 45.9481 33.7262C45.9154 33.7426 45.8789 33.7497 45.8424 33.7468Z" fill="#405261"/>
<path d="M53.2436 33.1331C53.2114 33.134 53.1795 33.1269 53.1507 33.1125C53.1219 33.0981 53.0971 33.0768 53.0785 33.0506C52.9378 32.8494 52.7512 32.6846 52.5341 32.5698C52.3171 32.455 52.0759 32.3935 51.8304 32.3904C51.7784 32.3904 51.7286 32.3698 51.6918 32.333C51.655 32.2963 51.6344 32.2464 51.6344 32.1944C51.6344 32.1425 51.655 32.0926 51.6918 32.0558C51.7286 32.0191 51.7784 31.9984 51.8304 31.9984C52.1411 31.9959 52.4478 32.0692 52.7237 32.2122C52.9997 32.3551 53.2366 32.5632 53.4138 32.8185C53.4444 32.8603 53.4573 32.9125 53.4495 32.9637C53.4418 33.0149 53.4141 33.061 53.3725 33.0918C53.335 33.119 53.2898 33.1335 53.2436 33.1331Z" fill="#405261"/>
<path d="M54.0739 178.721C54.0564 178.716 54.0407 178.706 54.0287 178.692C54.0168 178.678 54.0092 178.661 54.0068 178.643C54.0038 178.624 54.0071 178.603 54.0164 178.586C54.0257 178.568 54.0404 178.554 54.0584 178.545C54.2441 178.442 55.8945 177.576 56.4 177.844C56.4468 177.87 56.4865 177.907 56.5153 177.952C56.5442 177.997 56.5613 178.048 56.565 178.102C56.5799 178.19 56.5716 178.281 56.5409 178.365C56.5101 178.449 56.458 178.524 56.3896 178.581C55.9461 178.994 54.7547 178.85 54.0842 178.726L54.0739 178.721ZM56.271 178.004C55.9564 177.901 55.0641 178.257 54.4091 178.581C55.3272 178.721 56.008 178.669 56.2607 178.437C56.3039 178.398 56.3369 178.349 56.3567 178.294C56.3765 178.239 56.3825 178.18 56.3742 178.122C56.3741 178.101 56.3677 178.079 56.3558 178.061C56.3439 178.043 56.327 178.028 56.3071 178.019L56.271 178.004Z" fill="#1265E5"/>
<path d="M54.074 178.721H54.0482C54.0334 178.712 54.0217 178.699 54.0143 178.683C54.007 178.668 54.0044 178.65 54.0069 178.633C54.0069 178.587 54.1049 177.467 54.6207 177.029C54.6942 176.964 54.7801 176.915 54.8731 176.884C54.9661 176.853 55.0645 176.841 55.1622 176.849C55.4356 176.874 55.5129 177.008 55.5336 177.117C55.6161 177.586 54.6413 178.499 54.1462 178.731C54.1341 178.735 54.1214 178.736 54.1089 178.734C54.0965 178.732 54.0845 178.728 54.074 178.721ZM55.2447 177.055H55.1467C55.0748 177.048 55.0023 177.057 54.9339 177.08C54.8655 177.103 54.8027 177.14 54.7496 177.189C54.4496 177.554 54.2695 178.002 54.2338 178.473C54.7496 178.159 55.3995 177.442 55.3479 177.163C55.3376 177.127 55.3272 177.081 55.2499 177.055H55.2447Z" fill="#1265E5"/>
<path d="M26.3521 178.896L30.4936 178.834L31.4838 169.231L27.3475 169.293L26.3521 178.896Z" fill="#FACEA6"/>
<path d="M30.7978 178.375L26.2849 178.447C26.2049 178.446 26.1272 178.475 26.0678 178.528C26.0084 178.582 25.9717 178.656 25.9651 178.736L25.568 182.424C25.5609 182.517 25.5732 182.611 25.6043 182.7C25.6353 182.788 25.6844 182.869 25.7484 182.937C25.8125 183.006 25.89 183.06 25.9762 183.097C26.0623 183.134 26.1551 183.152 26.2488 183.151C27.8734 183.1 28.384 182.965 30.4316 182.934C32.8247 182.898 31.721 182.996 34.5267 182.934C36.2235 182.909 36.4969 181.191 35.7697 181.042C33.4694 180.557 32.866 179.644 31.8293 178.664C31.5338 178.442 31.1657 178.339 30.7978 178.375Z" fill="#405261"/>
<path opacity="0.2" d="M31.4838 169.231L30.9732 174.182L26.8317 174.249L27.3423 169.298L31.4838 169.231Z" fill="#1D2B36"/>
<path d="M31.8139 127.269C34.1605 108.66 32.8454 96.1997 36.9353 87.0399L51.5673 86.8026C51.5673 86.8026 44.0631 116.201 41.2058 128.62C38.2402 141.514 32.603 171.944 32.603 171.944L25.9291 172.042C25.9291 172.042 28.6935 142.685 31.8139 127.269Z" fill="#405261"/>
<path d="M25.2122 170.783L25.6351 173.481L33.0826 173.352L33.5158 170.494L25.2122 170.783Z" fill="#1265E5"/>
<path d="M29.9777 178.669C29.9598 178.669 29.9421 178.665 29.9267 178.656C29.9112 178.647 29.8985 178.633 29.89 178.618C29.879 178.601 29.873 178.581 29.873 178.561C29.873 178.541 29.879 178.521 29.89 178.504C30.0345 178.344 31.2826 176.957 31.8551 177.045C31.9081 177.052 31.9583 177.073 32.0008 177.105C32.0433 177.138 32.0766 177.181 32.0975 177.23C32.1391 177.31 32.1608 177.398 32.1608 177.488C32.1608 177.578 32.1391 177.666 32.0975 177.746C31.819 178.262 30.6534 178.556 29.9829 178.669H29.9777ZM31.7983 177.235C31.4683 177.235 30.7668 177.89 30.2511 178.416C31.1588 178.231 31.7983 177.952 31.9376 177.648C31.9656 177.597 31.9802 177.539 31.9802 177.48C31.9802 177.422 31.9656 177.364 31.9376 177.313C31.9293 177.293 31.9158 177.276 31.8986 177.263C31.8813 177.25 31.8609 177.243 31.8396 177.241L31.7983 177.235Z" fill="#1265E5"/>
<path d="M29.9777 178.669C29.9611 178.665 29.9457 178.657 29.9331 178.645C29.9205 178.633 29.911 178.618 29.9055 178.602C29.9055 178.556 29.5961 177.473 29.9365 176.885C29.9817 176.798 30.0445 176.721 30.1209 176.66C30.1972 176.599 30.2855 176.554 30.38 176.529C30.6431 176.462 30.7669 176.56 30.8184 176.658C31.0608 177.065 30.4574 178.257 30.0706 178.643C30.0579 178.654 30.0431 178.662 30.027 178.667C30.011 178.671 29.9942 178.672 29.9777 178.669ZM30.4935 176.699H30.3904C30.3213 176.717 30.2568 176.749 30.2008 176.794C30.1449 176.838 30.0988 176.894 30.0654 176.957C29.904 177.402 29.8842 177.887 30.0087 178.344C30.3749 177.875 30.7514 176.978 30.6121 176.735C30.598 176.718 30.5792 176.706 30.5582 176.699C30.5371 176.693 30.5146 176.693 30.4935 176.699Z" fill="#1265E5"/>
<path d="M47.6785 71.3867C47.8242 71.1553 47.8923 70.8835 47.8728 70.6108C47.8533 70.338 47.7473 70.0787 47.5702 69.8704L46.843 69.0709C46.7897 69.0126 46.7552 68.9395 46.7442 68.8613C46.7332 68.7831 46.746 68.7033 46.7811 68.6325C46.8691 68.4598 46.9025 68.2644 46.8767 68.0722C46.8509 67.8801 46.7671 67.7003 46.6367 67.5569C46.5062 67.4136 46.3351 67.3133 46.1462 67.2696C45.9573 67.2259 45.7596 67.2408 45.5794 67.3122C45.5057 67.3416 45.4249 67.348 45.3475 67.3305C45.2702 67.313 45.2 67.2725 45.1461 67.2142L44.4189 66.4148C44.2265 66.2193 43.9769 66.09 43.7063 66.0455C43.4356 66.001 43.1578 66.0436 42.9129 66.1672L42.6963 66.2652L45.1307 68.9317L47.565 71.6136L47.6785 71.3867Z" fill="white"/>
<path d="M50.2485 74.17L40.3875 63.367L26.0114 76.4896L35.8724 87.2925L50.2485 74.17Z" fill="#405261"/>
<path d="M38.6941 56.7134C37.415 59.1632 36.1153 61.6801 34.8672 64.1712C33.619 66.6623 32.3812 69.1689 31.2569 71.6703C30.9835 72.2944 30.705 72.9185 30.4626 73.5425L30.2718 74.0067L30.2254 74.1253C30.2071 74.0054 30.176 73.8878 30.1325 73.7746C30.0603 73.5993 29.9314 73.5116 29.9365 73.5425C29.9417 73.5735 30.0087 73.6612 30.1635 73.7591C30.5883 74.0228 31.0461 74.2292 31.5251 74.3729C32.7551 74.7437 34.0122 75.0179 35.2849 75.1929C35.9554 75.2909 36.6311 75.3838 37.3119 75.4663L39.3749 75.6778L39.6018 78.7723C38.8385 78.9373 38.1216 79.0456 37.3789 79.1436C36.6362 79.2416 35.8935 79.319 35.1405 79.3603C34.3875 79.4015 33.6242 79.4221 32.8506 79.4015C32.0454 79.388 31.2423 79.3173 30.4471 79.1901C29.5273 79.0601 28.6299 78.8032 27.7807 78.4267C27.2184 78.1801 26.6967 77.8497 26.2334 77.4468C25.6198 76.9089 25.153 76.2239 24.877 75.456C24.5669 74.4905 24.5508 73.4547 24.8305 72.4801L24.8976 72.2428L24.9389 72.1087L25.1142 71.593C25.3411 70.8709 25.5887 70.1746 25.8414 69.4784C26.8729 66.7036 28.0179 64.0475 29.2403 61.4223C30.4626 58.7971 31.7675 56.2647 33.191 53.6859L38.6941 56.7134Z" fill="#FACEA6"/>
<path d="M35.1818 51.0453C31.3549 52.2264 27.3423 62.428 27.3423 62.428L35.6666 67.0698C37.2319 64.1429 38.61 61.1197 39.7926 58.0183C41.7474 52.7524 39.8081 49.6115 35.1818 51.0453Z" fill="#1265E5"/>
<path d="M45.0172 77.6377L43.3874 76.5494C43.0257 76.3074 42.6156 76.1473 42.1857 76.0801L39.772 75.7087C39.451 75.6576 39.1221 75.6993 38.8242 75.8291C38.5262 75.9589 38.2717 76.1713 38.0906 76.4411L37.2654 77.6532C37.0281 79.7162 40.7106 80.7477 40.7106 80.7477L42.6035 81.6451C42.9145 81.7921 43.2676 81.824 43.6 81.7352C43.9324 81.6465 44.2225 81.4428 44.4189 81.1603L45.4504 79.6904C45.5607 79.5284 45.637 79.3458 45.675 79.1536C45.7129 78.9614 45.7116 78.7634 45.6711 78.5717C45.6307 78.38 45.5519 78.1985 45.4395 78.038C45.3271 77.8774 45.1835 77.7413 45.0172 77.6377Z" fill="#FACEA6"/>
<path d="M135.191 42.3125L135.011 44.5679" stroke="#1265E5" stroke-miterlimit="10"/>
<path d="M133.015 33.8069L135.861 34.0805L135.339 40.4871" stroke="#1265E5" stroke-miterlimit="10"/>
<path d="M134.691 35.1348L106.099 32.4098L104.438 52.9187L133.03 55.6437L134.691 35.1348Z" fill="#1265E5"/>
<path opacity="0.2" d="M119.261 33.6669L114.894 33.2506L114.557 37.4053L118.925 37.8216L119.261 33.6669Z" fill="white"/>
<path opacity="0.2" d="M110.974 47.524L106.538 47.1012L106.196 51.3222L110.632 51.7449L110.974 47.524Z" fill="white"/>
<g opacity="0.2">
<path opacity="0.2" d="M112.379 47.941L116.306 48.3319L116.011 52.0023L112.08 51.6114L112.379 47.941ZM112.145 47.6439L111.807 51.8615L116.241 52.2876L116.584 48.066L112.145 47.6439Z" fill="white"/>
</g>
<path opacity="0.1" d="M134.689 35.1345L128.05 34.5017L126.39 55.0106L133.029 55.6434L134.689 35.1345Z" fill="#1D2B36"/>
<path opacity="0.1" d="M104.436 52.925L133.026 55.6534L133.667 47.7497L104.436 52.925Z" fill="#1D2B36"/>
</svg>
