<svg fill="none" height="200" viewBox="0 0 200 200" width="200" xmlns="http://www.w3.org/2000/svg">
<path d="M76.3985 87.0012C101.358 74.884 152.912 20.0259 175.838 63.7857C195.024 100.404 152.59 134.754 127.185 147.321C94.1383 163.675 45.5638 157.217 19.4153 126.304C8.17016 112.994 4.11272 94.1752 23.7298 90.6731C30.3484 89.4889 41.5844 93.8034 49.0659 93.427C58.6541 92.9451 68.045 91.0541 76.3985 87.0012Z" fill="#008AF8"/>
<path d="M76.3985 87.0012C101.358 74.884 152.912 20.0259 175.838 63.7857C195.024 100.404 152.59 134.754 127.185 147.321C94.1383 163.675 45.5638 157.217 19.4153 126.304C8.17016 112.994 4.11272 94.1752 23.7298 90.6731C30.3484 89.4889 41.5844 93.8034 49.0659 93.427C58.6541 92.9451 68.045 91.0541 76.3985 87.0012Z" fill="white" opacity="0.9"/>
<path d="M109.042 186C158.191 186 198.035 183.674 198.035 180.804C198.035 177.935 158.191 175.609 109.042 175.609C59.8922 175.609 20.0487 177.935 20.0487 180.804C20.0487 183.674 59.8922 186 109.042 186Z" fill="#F2F4F6"/>
<path d="M163.473 23.427H42.0479V126.116H163.473V23.427Z" fill="white"/>
<g opacity="0.1">
<path d="M163.473 23.427H42.0479V126.116H163.473V23.427Z" fill="#008AF8" opacity="0.1"/>
</g>
<path d="M146.192 55.0374C150.676 52.1687 149.735 49.4286 140.349 49.9885C130.963 50.5485 129.434 54.8125 129.434 54.8125C129.434 54.8125 115.206 54.2938 116.413 57.3232C108.316 58.0346 106.104 58.7368 111.672 59.104L152.374 56.2858C152.374 56.2858 153.839 54.4086 146.192 55.0374Z" fill="white"/>
<path d="M68.4396 70.3308L87.0285 69.0457C87.0285 69.0457 94.2209 66.535 89.6953 66.5901C93.1422 64.6348 95.4739 61.5412 88.3183 62.0002C81.1627 62.4592 78.8402 66.5901 78.8402 66.5901C78.8402 66.5901 71.8499 64.387 69.252 68.8437C67.5629 68.9677 59.3746 70.9597 68.4396 70.3308Z" fill="white"/>
<path d="M66.5899 37.7886L80.1759 36.8477C80.1759 36.8477 85.4313 35.0118 82.122 35.0577C84.6418 33.6256 86.3492 31.3858 81.1168 31.6933C75.8843 32.0008 74.1907 35.0623 74.1907 35.0623C74.1907 35.0623 69.0776 33.4512 67.182 36.71C65.9473 36.7926 59.9621 38.2522 66.5899 37.7886Z" fill="white"/>
<path d="M161.329 26.1534V123.39H44.1913V26.1534H161.329ZM165.919 21.5635H39.6014V127.98H165.919V21.5635Z" fill="#008AF8"/>
<path d="M161.329 26.1534V123.39H44.1913V26.1534H161.329ZM165.919 21.5635H39.6014V127.98H165.919V21.5635Z" fill="white" opacity="0.7"/>
<path d="M103.194 26.1534V123.39H102.331V26.1534H103.194ZM107.784 21.5635H97.7415V127.98H107.784V21.5635Z" fill="#008AF8"/>
<path d="M103.194 26.1534V123.39H102.331V26.1534H103.194ZM107.784 21.5635H97.7415V127.98H107.784V21.5635Z" fill="white" opacity="0.7"/>
<path d="M58.0942 42.7779C58.0942 42.5759 58.0207 42.4107 57.9657 42.4153C57.8412 42.4592 57.7314 42.5371 57.649 42.6402C57.6297 42.5142 57.6005 42.3898 57.5617 42.2684C57.6518 42.2937 57.7471 42.2937 57.8371 42.2684C57.8785 42.2684 57.8371 42.1123 57.7683 41.9655C57.6994 41.8186 57.5985 41.7176 57.5572 41.7406C57.4977 41.7958 57.4508 41.8631 57.4195 41.9379C57.3825 41.8695 57.3411 41.8036 57.2955 41.7406C57.3468 41.7527 57.4003 41.7527 57.4516 41.7406C57.4745 41.7406 57.4516 41.635 57.4057 41.5386C57.3598 41.4422 57.2909 41.378 57.2634 41.3917C57.2135 41.4388 57.1785 41.4994 57.1624 41.5661C57.0936 41.4927 57.0201 41.4193 56.9467 41.3504C57.0772 41.3424 57.2029 41.2979 57.3093 41.2219C57.346 41.176 57.2451 41.0383 57.0844 40.9098C56.9238 40.7813 56.7631 40.7124 56.7264 40.7583C56.6749 40.8864 56.6606 41.0264 56.6851 41.1622C56.5751 41.0923 56.4582 41.0339 56.3363 40.9878C56.4131 40.9557 56.4797 40.9034 56.529 40.8364C56.529 40.8042 56.451 40.7308 56.3225 40.6757C56.194 40.6206 56.0746 40.6114 56.0609 40.6482C56.0491 40.7395 56.0651 40.8323 56.1068 40.9144C55.9924 40.8837 55.8757 40.8622 55.7579 40.8501C55.8505 40.7628 55.9172 40.6516 55.9507 40.5288C55.9507 40.4738 55.7855 40.4279 55.5789 40.4279C55.3724 40.4279 55.2072 40.4738 55.2072 40.5288C55.2407 40.6516 55.3074 40.7628 55.3999 40.8501C55.2779 40.8645 55.1568 40.8859 55.0373 40.9144C55.0661 40.8288 55.0755 40.7378 55.0649 40.6482C55.0649 40.6069 54.9088 40.6252 54.7573 40.6941C54.6059 40.7629 54.4957 40.8501 54.5141 40.8914C54.5666 40.9522 54.6305 41.0021 54.7023 41.0383L54.5003 41.1439C54.5082 41.0952 54.5082 41.0456 54.5003 40.997C54.5003 40.9695 54.3947 40.997 54.2938 41.0291C54.1928 41.0613 54.1239 41.1301 54.1377 41.1576C54.1824 41.2091 54.2392 41.2485 54.3029 41.2724C54.2238 41.3332 54.1486 41.3991 54.078 41.4698C54.0757 41.3402 54.0392 41.2136 53.9725 41.1026C53.9312 41.0658 53.7843 41.1576 53.642 41.3091C53.4997 41.4606 53.4263 41.612 53.4676 41.6533C53.5916 41.7133 53.73 41.7372 53.8669 41.7222C53.7849 41.8351 53.7157 41.9567 53.6604 42.0848C53.6183 41.9844 53.5482 41.8984 53.4584 41.8369C53.4125 41.8369 53.3345 41.9379 53.284 42.094C53.2335 42.25 53.2243 42.3923 53.284 42.4061C53.3879 42.4113 53.4912 42.3875 53.5823 42.3372C53.5364 42.5004 53.5087 42.6682 53.4997 42.8375C53.4052 42.7536 53.2918 42.6938 53.1693 42.6631C53.1096 42.6631 53.0729 42.8375 53.0866 43.0441C53.1004 43.2506 53.1555 43.4113 53.2106 43.4067C53.3274 43.367 53.4319 43.2973 53.5135 43.2047C53.526 43.3217 53.5506 43.4371 53.5869 43.549C53.5038 43.5302 53.4176 43.5302 53.3345 43.549C53.2932 43.5719 53.3345 43.705 53.3987 43.8519C53.463 43.9988 53.5686 44.1043 53.6099 44.0814C53.6632 44.0364 53.7056 43.9799 53.7338 43.9162C53.7615 43.9722 53.7937 44.026 53.8302 44.0768C53.7922 44.071 53.7535 44.071 53.7154 44.0768C53.6879 44.0768 53.7154 44.1824 53.7568 44.2788C53.7981 44.3751 53.8715 44.444 53.899 44.4302C53.9389 44.3912 53.9702 44.3443 53.9908 44.2925C54.047 44.3571 54.1067 44.4184 54.1698 44.4761C54.0555 44.4901 53.9466 44.5327 53.8531 44.6C53.8164 44.6459 53.9174 44.7836 54.0735 44.9167C54.2295 45.0498 54.3902 45.1141 54.4269 45.0728C54.4756 44.9602 54.4946 44.8369 54.482 44.7148C54.5842 44.7789 54.6916 44.8342 54.8032 44.88C54.7239 44.9257 54.6588 44.9924 54.6151 45.0728C54.6151 45.1141 54.7206 45.1875 54.8813 45.2334C55.0419 45.2793 55.1796 45.2748 55.1934 45.2334C55.1898 45.1477 55.1695 45.0636 55.1337 44.9856C55.227 45.0086 55.3223 45.0225 55.4183 45.0269C55.3424 45.1108 55.2874 45.2115 55.2576 45.3207C55.2576 45.3803 55.4275 45.4216 55.634 45.4216C55.8406 45.4216 56.0058 45.3711 56.0012 45.3115C55.9717 45.2026 55.9148 45.103 55.836 45.0223C55.9444 45.008 56.0517 44.9865 56.1573 44.9581C56.1402 45.0351 56.1402 45.115 56.1573 45.1921C56.1802 45.2334 56.3179 45.1921 56.4648 45.1416C56.6116 45.0912 56.7218 44.9856 56.7034 44.9443C56.6608 44.8882 56.6059 44.8426 56.5428 44.8112C56.6025 44.7836 56.6575 44.7515 56.7126 44.7194C56.7061 44.7574 56.7061 44.7962 56.7126 44.8341C56.7126 44.8617 56.8182 44.8341 56.9192 44.802C57.0201 44.7699 57.089 44.6964 57.0752 44.6689C57.0338 44.6243 56.9838 44.5884 56.9284 44.5633C57.0011 44.5067 57.0687 44.4437 57.1303 44.3751C57.1381 44.4986 57.176 44.6184 57.2405 44.724C57.2818 44.7607 57.4286 44.6689 57.5663 44.5174C57.704 44.366 57.7821 44.2099 57.7362 44.1686C57.6165 44.1105 57.483 44.0867 57.3506 44.0997C57.4257 43.9866 57.4902 43.8667 57.5434 43.7417C57.5866 43.8401 57.6566 43.9244 57.7453 43.985C57.7912 43.985 57.8647 43.884 57.9152 43.7234C57.9657 43.5627 57.9748 43.4296 57.9152 43.4113C57.8089 43.4085 57.7039 43.4355 57.6122 43.4893C57.66 43.3205 57.6847 43.1461 57.6857 42.9706C57.7818 43.0618 57.9007 43.1252 58.0299 43.1542C58.0942 43.1542 58.1217 42.9982 58.0942 42.7779Z" fill="#008AF8" opacity="0.7"/>
<path d="M75.9532 54.5692C75.8522 54.5187 75.7604 54.5004 75.7466 54.5279C75.7277 54.597 75.7277 54.67 75.7466 54.7391C75.6831 54.7123 75.617 54.6923 75.5493 54.6794C75.5869 54.6439 75.6153 54.5998 75.6319 54.5509C75.6319 54.5509 75.5585 54.505 75.4712 54.5004C75.384 54.4958 75.306 54.5004 75.306 54.5371C75.3166 54.58 75.3353 54.6205 75.3611 54.6564H75.2372C75.2558 54.6351 75.2699 54.6101 75.2785 54.583C75.2785 54.583 75.2326 54.5509 75.1729 54.5509C75.1132 54.5509 75.0627 54.5509 75.0627 54.5509C75.0722 54.5873 75.0912 54.6206 75.1178 54.6473C75.0631 54.6562 75.0094 54.67 74.9572 54.6886C74.99 54.625 75.0028 54.553 74.9939 54.482C74.9939 54.4545 74.8929 54.482 74.7874 54.482C74.6818 54.482 74.6083 54.5784 74.6221 54.6059C74.667 54.6644 74.7274 54.709 74.7965 54.7345C74.7357 54.7684 74.6774 54.8068 74.6221 54.8492C74.6326 54.807 74.6326 54.7629 74.6221 54.7207C74.6221 54.7207 74.5487 54.7207 74.489 54.7712C74.4293 54.8217 74.3926 54.8722 74.4064 54.8859C74.4438 54.9173 74.4907 54.9351 74.5395 54.9364C74.4957 54.9833 74.4544 55.0323 74.4156 55.0833C74.399 55.0165 74.3659 54.9549 74.3192 54.9043C74.2917 54.9043 74.2274 54.9548 74.1677 55.0512C74.1081 55.1476 74.0897 55.2348 74.1172 55.2531C74.1833 55.2718 74.2532 55.2718 74.3192 55.2531C74.2922 55.3143 74.2692 55.3772 74.2503 55.4413C74.2178 55.4045 74.1769 55.3761 74.131 55.3587C74.1081 55.3587 74.0805 55.4229 74.0667 55.5147C74.053 55.6065 74.0667 55.6754 74.0943 55.68C74.1364 55.6718 74.1768 55.6562 74.2136 55.6341C74.2113 55.6754 74.2113 55.7167 74.2136 55.758C74.1954 55.7387 74.1735 55.7231 74.1494 55.7121C74.1494 55.7121 74.1126 55.758 74.1035 55.8131C74.0943 55.8682 74.1035 55.9232 74.1035 55.9232C74.1414 55.92 74.1771 55.9038 74.2044 55.8773C74.2088 55.9316 74.2181 55.9854 74.232 56.038C74.1721 56.0033 74.1038 55.9859 74.0346 55.9875C74.0025 55.9875 74.0071 56.0885 74.0346 56.194C74.0622 56.2996 74.1172 56.3822 74.1448 56.373C74.2075 56.3332 74.257 56.2757 74.2871 56.2078C74.3191 56.2756 74.3575 56.3401 74.4018 56.4006C74.3437 56.3926 74.2846 56.4022 74.232 56.4281C74.232 56.4281 74.232 56.5107 74.3008 56.5796C74.3697 56.6484 74.4248 56.6897 74.4431 56.6714C74.4754 56.6257 74.493 56.5713 74.4936 56.5153C74.5554 56.5831 74.6265 56.6419 74.7047 56.6898C74.639 56.7128 74.5793 56.7504 74.5303 56.7999C74.5303 56.8274 74.5854 56.8871 74.6864 56.9422C74.7874 56.9973 74.8746 57.011 74.8929 56.9835C74.91 56.9188 74.91 56.8508 74.8929 56.7861C74.9512 56.8101 75.011 56.83 75.0719 56.8458C75.0406 56.8783 75.017 56.9176 75.0031 56.9606C75.0031 56.9881 75.0719 57.011 75.1637 57.0156C75.2555 57.0202 75.3244 57.0156 75.329 56.9789C75.3204 56.9426 75.3048 56.9083 75.2831 56.8779H75.384L75.3565 56.9284C75.3565 56.9284 75.4024 56.9605 75.4621 56.9651C75.5217 56.9697 75.5722 56.9651 75.5722 56.9422C75.5655 56.9117 75.5513 56.8833 75.5309 56.8596L75.6686 56.8274C75.644 56.8854 75.6331 56.9482 75.6365 57.011C75.6365 57.0386 75.742 57.011 75.8476 57.011C75.9532 57.011 76.0266 56.9192 76.0128 56.8871C75.9742 56.8332 75.9219 56.7904 75.8614 56.7632C75.9196 56.735 75.975 56.7012 76.0266 56.6622C76.0284 56.7109 76.0426 56.7583 76.0679 56.7999C76.0679 56.7999 76.1505 56.7999 76.2148 56.7219C76.2791 56.6438 76.3158 56.5934 76.2974 56.575C76.257 56.5508 76.2114 56.5366 76.1643 56.5337C76.2004 56.496 76.2341 56.4562 76.2653 56.4144C76.282 56.4721 76.3136 56.5243 76.3571 56.5658C76.3846 56.5658 76.4489 56.5153 76.504 56.419C76.559 56.3226 76.582 56.2354 76.559 56.217C76.4987 56.2024 76.4358 56.2024 76.3754 56.217C76.3754 56.1619 76.4168 56.1068 76.4351 56.0472C76.4657 56.0777 76.5014 56.1026 76.5407 56.1206C76.5636 56.1206 76.5912 56.0518 76.6004 55.96C76.6095 55.8682 76.6003 55.7993 76.5728 55.7947C76.5352 55.8014 76.4994 55.8154 76.4672 55.836C76.4695 55.8009 76.4695 55.7656 76.4672 55.7305L76.5177 55.7626C76.5177 55.7626 76.5545 55.7213 76.559 55.6616C76.5636 55.602 76.559 55.5515 76.559 55.5515C76.5278 55.5576 76.4981 55.5701 76.4718 55.5882C76.4718 55.5377 76.4718 55.4918 76.4397 55.4413C76.4989 55.4731 76.5653 55.489 76.6325 55.4872C76.66 55.4872 76.6325 55.3862 76.6325 55.2807C76.6325 55.1751 76.5453 55.0925 76.5177 55.1017C76.4567 55.1422 76.4089 55.1996 76.38 55.2669C76.349 55.2001 76.3105 55.1369 76.2653 55.0787C76.3218 55.0843 76.3789 55.0748 76.4305 55.0512C76.4535 55.0512 76.4305 54.964 76.3571 54.8997C76.2836 54.8354 76.2332 54.7895 76.2148 54.8079C76.1869 54.857 76.1711 54.9121 76.1689 54.9686C76.1026 54.9019 76.0287 54.8434 75.9486 54.7941C76.0168 54.7737 76.0786 54.7357 76.1276 54.684C76.123 54.684 76.0542 54.6197 75.9532 54.5692Z" fill="#008AF8" opacity="0.5"/>
<path d="M125.079 47.9369C125.281 47.9369 125.45 47.8956 125.45 47.8359C125.417 47.7092 125.349 47.5946 125.253 47.5054C125.38 47.4971 125.506 47.4772 125.629 47.4458C125.593 47.5326 125.582 47.6282 125.597 47.7211C125.597 47.7625 125.753 47.7211 125.905 47.6798C126.056 47.6385 126.166 47.5284 126.148 47.4825C126.096 47.4199 126.032 47.3684 125.96 47.331C126.031 47.3013 126.1 47.266 126.166 47.2254C126.157 47.2755 126.157 47.3269 126.166 47.3769C126.166 47.4044 126.272 47.3769 126.373 47.3494C126.474 47.3218 126.543 47.2484 126.534 47.2209C126.488 47.1668 126.43 47.1256 126.364 47.1015C126.447 47.0421 126.525 46.9761 126.598 46.9042C126.597 47.0364 126.632 47.1663 126.699 47.2805C126.74 47.3172 126.887 47.23 127.029 47.0786C127.172 46.9271 127.25 46.7756 127.208 46.7389C127.086 46.673 126.947 46.6458 126.809 46.6609C126.885 46.5562 126.952 46.4457 127.011 46.3304C127.036 46.4084 127.082 46.4782 127.144 46.5324C127.176 46.5324 127.254 46.4635 127.318 46.3396C127.383 46.2157 127.406 46.0963 127.369 46.078C127.279 46.0605 127.187 46.0701 127.103 46.1055C127.141 45.9934 127.171 45.8783 127.19 45.7613C127.271 45.8611 127.377 45.9372 127.497 45.9816C127.553 45.9816 127.612 45.8255 127.631 45.619C127.649 45.4124 127.631 45.2426 127.557 45.238C127.432 45.2656 127.315 45.324 127.217 45.4079C127.218 45.2847 127.208 45.1618 127.185 45.0407C127.269 45.0771 127.36 45.0929 127.452 45.0866C127.493 45.0866 127.484 44.9305 127.429 44.7745C127.374 44.6184 127.296 44.5037 127.25 44.522C127.185 44.569 127.131 44.6283 127.089 44.6964C127.065 44.6242 127.036 44.5536 127.002 44.4853C127.048 44.4989 127.098 44.4989 127.144 44.4853C127.176 44.4853 127.144 44.3843 127.144 44.2833C127.144 44.1824 127.057 44.1043 127.029 44.1135C126.973 44.1523 126.928 44.2064 126.901 44.2696C126.848 44.1837 126.788 44.1023 126.722 44.0263C126.852 44.036 126.982 44.0107 127.098 43.9529C127.139 43.9116 127.061 43.7601 126.919 43.6086C126.777 43.4572 126.635 43.37 126.593 43.4067C126.52 43.5235 126.484 43.6592 126.488 43.7968C126.381 43.7095 126.268 43.6312 126.148 43.5627C126.251 43.53 126.341 43.4658 126.405 43.3791C126.405 43.3378 126.318 43.2506 126.166 43.1864C126.015 43.1221 125.873 43.1037 125.854 43.1451C125.843 43.2483 125.859 43.3527 125.9 43.448C125.742 43.3879 125.577 43.3463 125.409 43.3241C125.502 43.2381 125.57 43.1287 125.606 43.0074C125.606 42.9523 125.441 42.9018 125.239 42.8972C125.037 42.8926 124.863 42.9339 124.863 42.989C124.893 43.1088 124.955 43.2182 125.042 43.3057C124.925 43.3136 124.808 43.3289 124.693 43.3516C124.711 43.2699 124.711 43.1854 124.693 43.1037C124.693 43.0624 124.537 43.1037 124.386 43.1405C124.234 43.1772 124.124 43.2919 124.142 43.3332C124.184 43.3899 124.237 43.4368 124.298 43.4709L124.129 43.5535C124.138 43.5159 124.138 43.4764 124.129 43.4388C124.129 43.4113 124.028 43.4388 123.927 43.4663C123.826 43.4939 123.752 43.5673 123.766 43.5949C123.801 43.6381 123.845 43.674 123.894 43.7004C123.824 43.7486 123.758 43.8023 123.697 43.8611C123.692 43.7461 123.659 43.6341 123.601 43.5352C123.559 43.4939 123.408 43.5811 123.266 43.728C123.123 43.8748 123.041 44.0309 123.082 44.0676C123.19 44.1281 123.312 44.1582 123.435 44.1548C123.361 44.25 123.298 44.3532 123.247 44.4623C123.206 44.3798 123.144 44.3088 123.068 44.2558C123.027 44.2558 122.944 44.3522 122.889 44.5082C122.834 44.6643 122.82 44.802 122.862 44.8158C122.949 44.8266 123.038 44.8139 123.119 44.779C123.091 44.8711 123.068 44.9646 123.05 45.059C122.975 44.9763 122.88 44.9146 122.774 44.88C122.715 44.88 122.66 45.0361 122.646 45.2426C122.632 45.4492 122.646 45.6144 122.719 45.619C122.832 45.5987 122.938 45.5497 123.027 45.4767C123.028 45.5863 123.04 45.6956 123.064 45.8026C122.989 45.7759 122.909 45.7649 122.83 45.7705C122.788 45.7705 122.797 45.9265 122.853 46.0826C122.908 46.2386 122.99 46.3534 123.036 46.335C123.094 46.295 123.142 46.2434 123.178 46.1835C123.178 46.2432 123.229 46.3029 123.256 46.358C123.218 46.3522 123.18 46.3522 123.142 46.358C123.114 46.358 123.142 46.4589 123.142 46.5645C123.142 46.6701 123.233 46.7435 123.261 46.7297C123.312 46.6965 123.353 46.6506 123.38 46.5966C123.433 46.6716 123.49 46.7436 123.55 46.8124C123.427 46.8064 123.305 46.835 123.197 46.895C123.155 46.9317 123.238 47.0832 123.376 47.2346C123.513 47.3861 123.665 47.4733 123.706 47.432C123.777 47.3178 123.812 47.1852 123.807 47.051C123.914 47.1366 124.029 47.2104 124.151 47.2713C124.05 47.3075 123.961 47.3711 123.894 47.4549C123.894 47.4962 123.986 47.5835 124.138 47.6477C124.289 47.712 124.431 47.7257 124.445 47.6844C124.459 47.5796 124.443 47.4731 124.399 47.3769C124.562 47.4361 124.732 47.4747 124.904 47.4917C124.807 47.5795 124.736 47.6922 124.698 47.8175C124.707 47.8864 124.872 47.9323 125.079 47.9369Z" fill="#008AF8" opacity="0.5"/>
<path d="M141.194 33.7083C141.253 33.6119 141.276 33.5247 141.253 33.5063C141.184 33.4878 141.111 33.4878 141.042 33.5063C141.073 33.4445 141.097 33.38 141.116 33.3136C141.147 33.3528 141.188 33.3829 141.235 33.4008C141.262 33.4008 141.29 33.3365 141.304 33.2493C141.317 33.1621 141.304 33.0841 141.276 33.0795C141.234 33.0877 141.194 33.1032 141.157 33.1254C141.159 33.0841 141.159 33.0427 141.157 33.0015C141.176 33.0222 141.199 33.038 141.226 33.0474C141.226 33.0474 141.262 33.006 141.267 32.9464C141.272 32.8867 141.267 32.8362 141.267 32.8362C141.229 32.8386 141.193 32.855 141.166 32.8821C141.166 32.827 141.166 32.772 141.134 32.7169C141.194 32.7547 141.265 32.7739 141.336 32.772C141.368 32.772 141.368 32.671 141.336 32.5654C141.304 32.4598 141.253 32.3772 141.226 32.3864C141.161 32.4258 141.11 32.4833 141.079 32.5516C141.051 32.4872 141.018 32.4256 140.978 32.368C141.022 32.3763 141.067 32.3763 141.111 32.368C141.111 32.368 141.111 32.2946 141.07 32.2304C141.028 32.1661 140.978 32.1248 140.964 32.134C140.931 32.1715 140.908 32.2176 140.9 32.2671C140.858 32.2205 140.813 32.176 140.767 32.134C140.833 32.1204 140.896 32.0921 140.95 32.0514C140.95 32.0238 140.909 31.9504 140.817 31.8861C140.725 31.8219 140.638 31.7943 140.62 31.8173C140.603 31.8851 140.603 31.956 140.62 32.0238C140.563 31.9892 140.503 31.96 140.441 31.9366C140.481 31.9088 140.512 31.8707 140.533 31.8264C140.533 31.8264 140.473 31.7668 140.386 31.7484C140.299 31.7301 140.221 31.7484 140.216 31.7484C140.218 31.7921 140.23 31.8348 140.253 31.8723C140.211 31.8678 140.17 31.8678 140.129 31.8723C140.151 31.8556 140.168 31.8335 140.179 31.8081C140.179 31.8081 140.138 31.7714 140.078 31.7576C140.019 31.7438 139.973 31.7576 139.968 31.7576C139.973 31.7934 139.986 31.8277 140.005 31.8586H139.844C139.884 31.8017 139.908 31.7351 139.913 31.6658C139.913 31.6337 139.812 31.6291 139.706 31.6658C139.601 31.7025 139.514 31.7346 139.518 31.7622C139.554 31.8286 139.608 31.883 139.674 31.9182C139.605 31.9457 139.537 31.9779 139.472 32.0146C139.487 31.9589 139.487 31.9005 139.472 31.8448C139.472 31.8448 139.385 31.8448 139.312 31.9045C139.238 31.9641 139.197 32.0146 139.211 32.0376C139.254 32.072 139.307 32.0928 139.362 32.0972C139.291 32.1561 139.227 32.2222 139.169 32.2946C139.155 32.2279 139.124 32.1661 139.078 32.1156C139.05 32.1156 138.981 32.1615 138.922 32.2579C138.862 32.3543 138.839 32.4415 138.867 32.4553C138.931 32.4754 139 32.4754 139.064 32.4553C139.034 32.5116 139.008 32.5699 138.986 32.6297C138.957 32.5957 138.921 32.5689 138.88 32.5516C138.853 32.5516 138.825 32.6159 138.811 32.7077C138.798 32.7995 138.811 32.8683 138.834 32.8729C138.872 32.8687 138.908 32.8562 138.94 32.8362C138.94 32.8729 138.94 32.9051 138.94 32.9418C138.926 32.9257 138.909 32.9131 138.889 32.9051C138.889 32.9051 138.853 32.951 138.848 33.0106C138.844 33.0703 138.848 33.1162 138.848 33.1208C138.877 33.1145 138.905 33.1036 138.931 33.0887C138.931 33.1346 138.931 33.1805 138.954 33.2264C138.899 33.1971 138.837 33.1814 138.775 33.1805C138.743 33.1805 138.743 33.2814 138.775 33.387C138.807 33.4926 138.853 33.5752 138.885 33.566C138.94 33.5325 138.986 33.485 139.018 33.4283C139.044 33.4873 139.075 33.5441 139.11 33.5981C139.059 33.5976 139.01 33.607 138.963 33.6257C138.963 33.6257 138.963 33.7083 139.032 33.7817C139.101 33.8552 139.151 33.8919 139.174 33.8781C139.2 33.8376 139.217 33.7923 139.225 33.745C139.258 33.7851 139.295 33.822 139.335 33.8552C139.277 33.8704 139.222 33.8969 139.174 33.9332C139.174 33.9607 139.22 34.0342 139.312 34.0938C139.404 34.1535 139.491 34.1856 139.509 34.1627C139.524 34.1023 139.524 34.0394 139.509 33.9791C139.561 34.0093 139.617 34.0339 139.674 34.0525C139.639 34.0781 139.612 34.1132 139.596 34.1535C139.596 34.1535 139.656 34.2132 139.748 34.2269C139.84 34.2407 139.908 34.2269 139.913 34.2269C139.911 34.1882 139.9 34.1503 139.881 34.1168H139.986C139.969 34.1313 139.957 34.1504 139.95 34.1719C139.95 34.1719 139.991 34.2086 140.051 34.2178C140.11 34.2269 140.156 34.2178 140.161 34.2178C140.157 34.1853 140.146 34.154 140.129 34.126C140.178 34.1307 140.227 34.1307 140.276 34.126C140.239 34.1821 140.218 34.2472 140.216 34.3142C140.216 34.3417 140.317 34.3463 140.427 34.3142C140.537 34.282 140.615 34.2407 140.611 34.2132C140.576 34.1492 140.523 34.0967 140.459 34.0617C140.528 34.0345 140.594 34.0007 140.657 33.9607C140.642 34.0164 140.642 34.0749 140.657 34.1306C140.657 34.1306 140.744 34.1306 140.813 34.0709C140.881 34.0112 140.932 33.9561 140.918 33.9378C140.871 33.9037 140.815 33.8817 140.758 33.8735C140.832 33.8164 140.897 33.7483 140.95 33.6716C140.966 33.7401 140.999 33.8034 141.047 33.8552C141.07 33.8689 141.138 33.8184 141.194 33.7083Z" fill="#008AF8" opacity="0.5"/>
<path d="M80.543 99.4535C80.442 99.403 80.3503 99.3892 80.3365 99.4168C80.3177 99.4844 80.3177 99.5558 80.3365 99.6233C80.273 99.5965 80.2068 99.5765 80.1391 99.5637C80.1767 99.5282 80.2051 99.4841 80.2217 99.4352C80.2217 99.4352 80.1483 99.3893 80.0611 99.3847C79.9739 99.3801 79.8959 99.3847 79.8959 99.4214C79.9065 99.4643 79.9252 99.5048 79.9509 99.5407H79.827C79.8457 99.5193 79.8597 99.4943 79.8683 99.4673C79.8683 99.4673 79.8224 99.4352 79.7628 99.4352C79.7031 99.4352 79.6526 99.4352 79.6526 99.4352C79.662 99.4716 79.681 99.5049 79.7077 99.5315C79.653 99.5404 79.5992 99.5543 79.547 99.5728C79.5795 99.5108 79.5923 99.4404 79.5837 99.3709C79.5837 99.3388 79.4828 99.3479 79.3772 99.3709C79.2716 99.3938 79.1982 99.4673 79.212 99.4948C79.254 99.556 79.3155 99.6013 79.3864 99.6233C79.3267 99.66 79.267 99.6968 79.212 99.7381C79.2225 99.6959 79.2225 99.6518 79.212 99.6096C79.212 99.6096 79.1385 99.6096 79.0789 99.6646C79.0192 99.7197 78.9825 99.761 78.9962 99.7748C79.0336 99.8062 79.0805 99.824 79.1293 99.8253C79.0856 99.8721 79.0442 99.9212 79.0054 99.9722C78.9889 99.9053 78.9557 99.8438 78.909 99.7932C78.8815 99.7932 78.8172 99.8436 78.7576 99.94C78.6979 100.036 78.6795 100.128 78.7071 100.142C78.7731 100.161 78.843 100.161 78.909 100.142C78.8821 100.203 78.8591 100.266 78.8402 100.33C78.8077 100.293 78.7667 100.265 78.7208 100.248C78.6979 100.248 78.6704 100.312 78.6566 100.404C78.6428 100.495 78.6566 100.564 78.6841 100.569C78.7269 100.563 78.7678 100.547 78.8035 100.523C78.8012 100.564 78.8012 100.606 78.8035 100.647C78.7852 100.628 78.7634 100.612 78.7392 100.601C78.7392 100.601 78.7025 100.647 78.6933 100.702C78.6841 100.757 78.6933 100.812 78.6933 100.812C78.7313 100.809 78.7669 100.793 78.7943 100.766C78.7987 100.82 78.8079 100.874 78.8218 100.927C78.761 100.895 78.6933 100.877 78.6245 100.876C78.5923 100.876 78.5969 100.977 78.6245 101.087C78.652 101.198 78.7071 101.271 78.7346 101.262C78.7973 101.222 78.8468 101.165 78.8769 101.097C78.9079 101.165 78.9464 101.23 78.9916 101.289C78.9336 101.284 78.8751 101.293 78.8218 101.317C78.8218 101.317 78.8218 101.4 78.8907 101.468C78.9595 101.537 79.0146 101.579 79.033 101.56C79.0652 101.515 79.0829 101.46 79.0834 101.404C79.1463 101.472 79.2172 101.532 79.2946 101.583C79.2287 101.604 79.1688 101.64 79.1202 101.689C79.1202 101.716 79.1752 101.781 79.2762 101.831C79.3772 101.882 79.4644 101.9 79.4828 101.872C79.4999 101.808 79.4999 101.74 79.4828 101.675C79.5402 101.701 79.6002 101.721 79.6618 101.735C79.6304 101.767 79.6069 101.806 79.5929 101.849C79.5929 101.877 79.6618 101.9 79.7536 101.904C79.8454 101.909 79.9142 101.904 79.9188 101.868C79.9103 101.831 79.8947 101.797 79.8729 101.767H79.9739L79.9463 101.817C79.9463 101.817 79.9922 101.849 80.0519 101.854C80.1116 101.859 80.1621 101.854 80.1621 101.831C80.1554 101.801 80.1412 101.772 80.1208 101.748L80.2585 101.716C80.2339 101.774 80.2229 101.837 80.2263 101.9C80.2263 101.927 80.3319 101.9 80.4375 101.9C80.543 101.9 80.6165 101.808 80.6027 101.776C80.564 101.722 80.5118 101.679 80.4512 101.652C80.5095 101.624 80.5648 101.59 80.6165 101.551C80.6184 101.601 80.6326 101.65 80.6578 101.693C80.6578 101.693 80.7404 101.693 80.8046 101.611C80.8689 101.528 80.9056 101.482 80.8873 101.464C80.8469 101.44 80.8012 101.425 80.7542 101.423C80.7902 101.385 80.824 101.345 80.8551 101.303C80.8734 101.362 80.9048 101.415 80.9469 101.459C80.9745 101.459 81.0387 101.404 81.0938 101.308C81.1489 101.211 81.1718 101.124 81.1489 101.106C81.0886 101.091 81.0256 101.091 80.9653 101.106C80.9653 101.051 81.0066 100.996 81.025 100.936C81.0555 100.967 81.0912 100.991 81.1305 101.009C81.1535 101.009 81.181 100.941 81.1902 100.849C81.1994 100.757 81.1902 100.688 81.1627 100.684C81.1251 100.69 81.0892 100.704 81.0571 100.725C81.0594 100.69 81.0594 100.654 81.0571 100.619L81.1076 100.651C81.1076 100.651 81.1443 100.61 81.1489 100.55C81.1535 100.491 81.1489 100.44 81.1489 100.44C81.1176 100.447 81.0879 100.459 81.0617 100.477C81.0617 100.431 81.0617 100.381 81.0296 100.33C81.0887 100.362 81.1552 100.378 81.2223 100.376C81.2499 100.376 81.2223 100.275 81.2223 100.17C81.2223 100.064 81.1351 99.9813 81.1076 99.9951C81.0453 100.032 80.9969 100.089 80.9699 100.156C80.9388 100.089 80.9003 100.026 80.8551 99.9676C80.9117 99.9732 80.9687 99.9637 81.0204 99.94C81.0433 99.94 81.0204 99.8528 80.9469 99.7886C80.8735 99.7243 80.823 99.6784 80.8046 99.6968C80.7767 99.7459 80.761 99.801 80.7588 99.8574C80.6925 99.7908 80.6185 99.7322 80.5384 99.683C80.6067 99.6625 80.6684 99.6245 80.7174 99.5728C80.7128 99.5637 80.644 99.4994 80.543 99.4535Z" fill="#008AF8" opacity="0.3"/>
<path d="M87.1342 42.8467C87.3316 42.7825 87.4784 42.6907 87.4601 42.6356C87.3871 42.525 87.2856 42.4362 87.1663 42.3786C87.2867 42.3341 87.4021 42.2772 87.5106 42.2087C87.5007 42.3025 87.5199 42.3971 87.5656 42.4795C87.5932 42.5163 87.7171 42.4566 87.8456 42.3464C87.9741 42.2363 88.0476 42.1215 88.0154 42.0894C87.9485 42.0429 87.8714 42.013 87.7905 42.0022C87.8502 41.9471 87.9007 41.892 87.9558 41.837C87.9563 41.8881 87.9689 41.9384 87.9925 41.9838C87.9925 41.9838 88.0935 41.9838 88.1761 41.8966C88.2587 41.8094 88.3092 41.7452 88.2908 41.7222C88.2315 41.6852 88.1634 41.6646 88.0935 41.6625C88.154 41.5798 88.2077 41.4923 88.2541 41.4009C88.2934 41.5268 88.3664 41.6395 88.4652 41.7268C88.5157 41.7268 88.6305 41.6212 88.7177 41.4376C88.8049 41.254 88.837 41.0796 88.7819 41.0567C88.6453 41.033 88.5047 41.0506 88.378 41.1072C88.4221 40.9838 88.4529 40.8561 88.4698 40.7262C88.5173 40.7943 88.5823 40.8482 88.658 40.8823C88.6993 40.8823 88.7452 40.7813 88.7682 40.6436C88.7911 40.5059 88.7682 40.3866 88.736 40.3774C88.6455 40.3929 88.5603 40.4307 88.4882 40.4875C88.4997 40.37 88.4997 40.2516 88.4882 40.1341C88.5951 40.2038 88.7187 40.2434 88.8462 40.2489C88.9013 40.2489 88.9059 40.0607 88.8462 39.8633C88.7865 39.6659 88.7177 39.5099 88.6626 39.5237C88.5505 39.585 88.4569 39.6753 88.3918 39.7853C88.3544 39.6674 88.3052 39.5536 88.2449 39.4456C88.3369 39.4572 88.4302 39.4445 88.5157 39.4089C88.5525 39.3814 88.5157 39.2529 88.401 39.1198C88.2862 38.9866 88.1899 38.904 88.1531 38.9316C88.1021 38.994 88.0674 39.0681 88.0522 39.1473C88.0066 39.0865 87.9559 39.0297 87.9007 38.9775C87.951 38.9784 88.001 38.9691 88.0476 38.9499C88.0705 38.9499 88.0476 38.8444 87.9695 38.7572C87.8915 38.6699 87.8318 38.6149 87.8089 38.6332C87.7664 38.6873 87.7408 38.7528 87.7355 38.8214C87.6585 38.7577 87.5772 38.6994 87.4922 38.647C87.6175 38.6156 87.7318 38.5505 87.8227 38.4588C87.8502 38.4083 87.7309 38.289 87.5473 38.188C87.3637 38.087 87.203 38.0457 87.1755 38.0962C87.1407 38.2299 87.1488 38.3712 87.1984 38.5001C87.0699 38.4465 86.936 38.4066 86.7991 38.3808C86.8852 38.3158 86.9518 38.2285 86.9919 38.1283C86.9919 38.0824 86.868 38.032 86.7027 38.0182C86.5375 38.0044 86.3998 38.0182 86.3952 38.0733C86.413 38.1743 86.4592 38.2682 86.5283 38.3441C86.3594 38.3366 86.1901 38.3474 86.0234 38.3762C86.0844 38.2668 86.1161 38.1434 86.1152 38.0182C86.1152 37.9631 85.9271 37.9677 85.7297 38.0182C85.5323 38.0687 85.3854 38.1696 85.4038 38.2247C85.4691 38.3294 85.5609 38.415 85.67 38.4726C85.5585 38.5112 85.4509 38.5604 85.3487 38.6195C85.3506 38.5356 85.3334 38.4524 85.2982 38.3762C85.2661 38.3441 85.1422 38.3762 85.0137 38.5093C84.8851 38.6424 84.8117 38.7296 84.8393 38.7663C84.8977 38.8058 84.9631 38.8338 85.032 38.8489L84.8943 38.9775C84.8911 38.939 84.8802 38.9015 84.8622 38.8673C84.8622 38.8444 84.7612 38.8673 84.6786 38.9545C84.596 39.0417 84.5409 39.1014 84.5639 39.1289C84.6108 39.1601 84.6641 39.1805 84.7199 39.1886C84.6688 39.258 84.6213 39.33 84.5776 39.4043C84.5381 39.296 84.4736 39.1985 84.3894 39.1198C84.3344 39.1198 84.2196 39.2253 84.1324 39.4089C84.0452 39.5925 84.0085 39.7623 84.059 39.7899C84.1803 39.8103 84.3047 39.8008 84.4216 39.7623C84.3807 39.8753 84.3515 39.9922 84.3344 40.1112C84.2698 40.0445 84.1892 39.9955 84.1003 39.9689C84.0544 39.9689 84.0131 40.102 84.0085 40.2672C84.0039 40.4325 84.0314 40.5656 84.0773 40.5701C84.1613 40.549 84.2396 40.5098 84.3068 40.4554C84.3096 40.5523 84.3188 40.6489 84.3344 40.7446C84.2368 40.6871 84.1262 40.6555 84.0131 40.6528C83.958 40.6528 83.9488 40.841 84.0131 41.0383C84.0773 41.2357 84.1462 41.3917 84.2059 41.378C84.3036 41.3194 84.3868 41.2393 84.4491 41.1439C84.4856 41.2489 84.5317 41.3503 84.5868 41.4468C84.5065 41.4398 84.4258 41.454 84.3527 41.4881C84.316 41.5157 84.3527 41.6442 84.4721 41.7773C84.5914 41.9104 84.6832 41.9884 84.7199 41.9609C84.7628 41.9049 84.794 41.8409 84.8117 41.7727C84.8521 41.8223 84.895 41.8698 84.9402 41.915C84.9005 41.916 84.8614 41.9254 84.8255 41.9425C84.8255 41.9425 84.8255 42.0435 84.9035 42.1307C84.9815 42.2179 85.0458 42.273 85.0687 42.2546C85.1036 42.2053 85.1271 42.1489 85.1376 42.0894C85.2112 42.1441 85.2878 42.1947 85.3671 42.2409C85.2487 42.276 85.1413 42.3408 85.055 42.429C85.0274 42.4795 85.1514 42.5989 85.3304 42.6998C85.5094 42.8008 85.6792 42.8375 85.7067 42.7871C85.7393 42.6562 85.7312 42.5185 85.6838 42.3923C85.8114 42.4409 85.9437 42.4762 86.0785 42.4979C85.9943 42.5637 85.9293 42.6509 85.8903 42.7503C85.8903 42.7962 86.0188 42.8467 86.1841 42.8605C86.3493 42.8743 86.4824 42.8605 86.487 42.8008C86.4676 42.6966 86.42 42.5998 86.3493 42.5208C86.5219 42.5284 86.6948 42.5129 86.8634 42.4749C86.7991 42.5899 86.7659 42.7196 86.767 42.8513C86.767 42.911 86.9414 42.9064 87.1342 42.8467Z" fill="#008AF8" opacity="0.3"/>
<path d="M121.503 69.4587C121.531 69.3486 121.526 69.2568 121.503 69.2476C121.431 69.2522 121.361 69.276 121.301 69.3164C121.31 69.2479 121.31 69.1784 121.301 69.1099C121.343 69.1385 121.393 69.1544 121.443 69.1558C121.443 69.1558 121.476 69.0778 121.443 68.9905C121.411 68.9033 121.393 68.8345 121.37 68.8391C121.331 68.8591 121.296 68.8873 121.269 68.9217C121.269 68.8804 121.246 68.8391 121.237 68.7978C121.262 68.8053 121.289 68.8053 121.315 68.7978C121.315 68.7978 121.315 68.7473 121.315 68.6876C121.315 68.6279 121.283 68.5866 121.264 68.5866C121.232 68.6069 121.204 68.6334 121.182 68.6647C121.162 68.6135 121.137 68.5643 121.108 68.5178C121.176 68.5361 121.247 68.5361 121.315 68.5178C121.342 68.5178 121.315 68.4122 121.251 68.3204C121.186 68.2286 121.113 68.1644 121.09 68.1827C121.041 68.2399 121.011 68.3102 121.003 68.3847C120.957 68.3326 120.906 68.285 120.851 68.2424C120.895 68.2351 120.937 68.2196 120.975 68.1965C120.975 68.1965 120.952 68.1277 120.893 68.0772C120.833 68.0267 120.773 68.0037 120.76 68.0221C120.747 68.0686 120.747 68.1178 120.76 68.1644C120.706 68.1299 120.649 68.1007 120.59 68.0772C120.651 68.0476 120.704 68.0015 120.741 67.9441C120.741 67.9119 120.672 67.8614 120.567 67.8293C120.461 67.7972 120.369 67.7926 120.36 67.8293C120.356 67.8981 120.372 67.9667 120.406 68.0267C120.341 68.013 120.275 68.0038 120.209 67.9991C120.239 67.9606 120.258 67.9146 120.264 67.866C120.264 67.8385 120.186 67.8293 120.099 67.8385C120.011 67.8477 119.938 67.8798 119.943 67.9027C119.959 67.9431 119.984 67.9792 120.016 68.0083L119.892 68.0313C119.906 68.0086 119.917 67.9838 119.924 67.9578C119.924 67.9578 119.869 67.9349 119.814 67.9578C119.759 67.9808 119.708 67.9854 119.708 67.9991C119.723 68.0342 119.746 68.0645 119.777 68.0863L119.626 68.1506C119.647 68.0833 119.647 68.0113 119.626 67.9441C119.626 67.9211 119.52 67.9441 119.424 67.9991C119.327 68.0542 119.263 68.1231 119.277 68.1506C119.332 68.2012 119.401 68.2347 119.474 68.247C119.414 68.2929 119.358 68.3453 119.309 68.403C119.304 68.3443 119.282 68.2884 119.245 68.2424C119.245 68.2424 119.167 68.2745 119.112 68.348C119.057 68.4214 119.034 68.4903 119.052 68.504C119.106 68.5204 119.163 68.5204 119.217 68.504C119.167 68.5818 119.125 68.6649 119.093 68.7519C119.06 68.6921 119.011 68.6428 118.951 68.6096C118.924 68.6096 118.878 68.683 118.85 68.7886C118.823 68.8942 118.827 68.9905 118.85 68.9997C118.917 68.9967 118.982 68.9761 119.038 68.9401C119.034 69.0042 119.034 69.0687 119.038 69.1328C119 69.1067 118.956 69.0924 118.91 69.0915C118.887 69.0915 118.882 69.1696 118.91 69.2568C118.937 69.344 118.956 69.4128 118.983 69.4082C119.018 69.3934 119.049 69.3715 119.075 69.344C119.081 69.3766 119.088 69.4088 119.098 69.4404H119.038C119.038 69.4404 119.015 69.4908 119.038 69.5505C119.061 69.6102 119.07 69.6561 119.089 69.6515C119.117 69.6404 119.141 69.6212 119.158 69.5964C119.158 69.6377 119.199 69.679 119.222 69.7203C119.162 69.7032 119.098 69.7032 119.038 69.7203C119.011 69.7203 119.038 69.8259 119.103 69.9177C119.167 70.0095 119.231 70.0692 119.259 70.0554C119.302 70.0035 119.331 69.9422 119.346 69.8764C119.387 69.9268 119.433 69.9729 119.484 70.0141C119.436 70.0275 119.392 70.051 119.355 70.0829C119.355 70.0829 119.392 70.161 119.47 70.2114C119.548 70.2619 119.617 70.2803 119.63 70.2573C119.64 70.2119 119.64 70.1651 119.63 70.1197C119.674 70.1471 119.72 70.1702 119.768 70.1885C119.717 70.2197 119.673 70.262 119.64 70.3124C119.64 70.3446 119.713 70.395 119.819 70.4272C119.924 70.4593 120.016 70.4593 120.025 70.4272C120.029 70.3662 120.014 70.3056 119.984 70.2528H120.163C120.139 70.2885 120.125 70.3295 120.122 70.3721C120.122 70.395 120.2 70.4042 120.287 70.395C120.374 70.3859 120.443 70.3537 120.443 70.3308C120.427 70.2955 120.405 70.2629 120.379 70.2344H120.48C120.475 70.254 120.475 70.2744 120.48 70.2941C120.48 70.2941 120.53 70.317 120.59 70.2941C120.649 70.2711 120.695 70.2665 120.691 70.2528C120.68 70.2223 120.661 70.1954 120.636 70.1747L120.769 70.1105C120.752 70.1752 120.752 70.2431 120.769 70.3078C120.769 70.3308 120.874 70.3078 120.971 70.2528C121.067 70.1977 121.131 70.1242 121.118 70.1013C121.064 70.0506 120.997 70.0157 120.925 70.0003C120.982 69.9558 121.035 69.905 121.081 69.8489C121.09 69.906 121.113 69.9598 121.15 70.0049C121.15 70.0049 121.228 69.9728 121.278 69.8993C121.329 69.8259 121.356 69.7525 121.338 69.7387C121.282 69.7225 121.223 69.7225 121.168 69.7387C121.22 69.659 121.26 69.5725 121.287 69.4817C121.322 69.5441 121.373 69.5964 121.434 69.6331C121.434 69.6469 121.48 69.5643 121.503 69.4587Z" fill="#008AF8" opacity="0.7"/>
<path d="M62.2847 78.0739C62.326 77.9041 62.3168 77.7572 62.2847 77.7435C62.1725 77.7468 62.0638 77.7836 61.9726 77.849C61.9817 77.7406 61.9817 77.6316 61.9726 77.5231C62.0404 77.5665 62.1174 77.5933 62.1975 77.6012C62.2342 77.6012 62.2434 77.4772 62.2205 77.3395C62.1975 77.2019 62.1424 77.0917 62.1011 77.1009C62.0385 77.131 61.9836 77.1749 61.9405 77.2294C61.9301 77.1636 61.9132 77.099 61.89 77.0366C61.9277 77.0587 61.9702 77.0713 62.0139 77.0733C62.0414 77.0733 62.046 76.9907 62.0139 76.8989C61.9818 76.8071 61.9588 76.7383 61.9359 76.7429C61.8837 76.7691 61.8393 76.8087 61.8074 76.8576C61.7706 76.7787 61.7292 76.7021 61.6834 76.6281C61.7914 76.6595 61.906 76.6595 62.0139 76.6281C62.0552 76.6006 62.0139 76.4629 61.9083 76.316C61.8028 76.1691 61.6972 76.0773 61.6559 76.1049C61.5828 76.1959 61.5367 76.3056 61.5228 76.4216C61.449 76.3394 61.3692 76.2626 61.2841 76.1921C61.3533 76.1863 61.4197 76.1625 61.4769 76.1232C61.4998 76.0957 61.4402 76.0131 61.3484 75.9396C61.2566 75.8662 61.1648 75.8249 61.1418 75.8478C61.1115 75.9203 61.102 75.9998 61.1143 76.0773C61.0289 76.0224 60.9382 75.9763 60.8435 75.9396C60.9416 75.8913 61.0242 75.8166 61.0822 75.7239C61.0822 75.678 60.9766 75.6 60.8068 75.5495C60.637 75.499 60.4947 75.4898 60.4809 75.5495C60.4782 75.6567 60.5035 75.7627 60.5543 75.857C60.4531 75.8358 60.3502 75.8235 60.2468 75.8203C60.2894 75.7563 60.319 75.6846 60.334 75.6092C60.334 75.5679 60.2101 75.5495 60.0724 75.5679C59.9347 75.5862 59.82 75.6275 59.8245 75.6688C59.8524 75.7304 59.8913 75.7864 59.9393 75.8341C59.8757 75.8414 59.8128 75.8537 59.7511 75.8708C59.7741 75.8348 59.7882 75.7939 59.7924 75.7515C59.7924 75.7285 59.7144 75.7147 59.6226 75.7239C59.5308 75.7331 59.4574 75.7652 59.4574 75.7928C59.4817 75.8448 59.5178 75.8904 59.5629 75.9259C59.4836 75.9544 59.4068 75.9898 59.3334 76.0314C59.3642 75.925 59.3642 75.812 59.3334 75.7056C59.3334 75.6642 59.1682 75.7056 59.0167 75.7882C58.8653 75.8708 58.7643 75.9809 58.7872 76.0223C58.8703 76.1043 58.9756 76.1601 59.0902 76.1829C58.9969 76.2539 58.9108 76.3338 58.8331 76.4216C58.8248 76.3308 58.7897 76.2445 58.7322 76.1737C58.7 76.1737 58.6082 76.2242 58.5256 76.339C58.443 76.4537 58.4017 76.5639 58.4338 76.5868C58.518 76.6092 58.6066 76.6092 58.6909 76.5868C58.6121 76.7076 58.5474 76.8369 58.4981 76.9724C58.4438 76.8792 58.3663 76.8017 58.2732 76.7475C58.2273 76.7475 58.1538 76.8668 58.1125 77.0366C58.0712 77.2064 58.0712 77.3487 58.1125 77.3625C58.2165 77.3606 58.3181 77.3304 58.4063 77.2753C58.388 77.3737 58.3788 77.4736 58.3787 77.5736C58.3178 77.5351 58.2486 77.5115 58.1768 77.5048C58.1401 77.5048 58.1309 77.6287 58.1768 77.771C58.2227 77.9133 58.2502 78.0143 58.2915 78.0097C58.3449 77.9833 58.3931 77.9475 58.4338 77.9041C58.4338 77.9546 58.4338 78.0097 58.4705 78.0602C58.4404 78.0528 58.4089 78.0528 58.3787 78.0602C58.3512 78.0602 58.342 78.1428 58.3787 78.2346C58.4155 78.3264 58.4292 78.3952 58.4522 78.3906C58.4961 78.3699 58.5352 78.3402 58.5669 78.3034C58.5954 78.3695 58.6275 78.4338 58.6633 78.4962C58.5683 78.4732 58.4692 78.4732 58.3742 78.4962C58.3328 78.5237 58.3742 78.666 58.4751 78.8129C58.5761 78.9598 58.6817 79.0516 58.723 79.0286C58.7912 78.9486 58.8372 78.8521 58.8561 78.7486C58.9237 78.8262 58.9974 78.8984 59.0764 78.9644C59.0008 78.9833 58.9313 79.0213 58.8744 79.0745C58.8515 79.1066 58.9295 79.1939 59.0489 79.2719C59.1682 79.3499 59.2829 79.382 59.3013 79.3499C59.3192 79.2776 59.3192 79.2019 59.3013 79.1296C59.371 79.1721 59.4448 79.2075 59.5216 79.2352C59.4384 79.2844 59.3689 79.3538 59.3197 79.4371C59.3197 79.483 59.4298 79.561 59.5951 79.6069C59.7603 79.6528 59.9118 79.662 59.9255 79.6069C59.9278 79.5097 59.9057 79.4135 59.8613 79.327C59.9535 79.3452 60.0473 79.3544 60.1413 79.3545C60.1029 79.4104 60.0792 79.4752 60.0724 79.5427C60.0724 79.584 60.1917 79.5978 60.334 79.5794C60.4763 79.561 60.5819 79.5151 60.5773 79.4784C60.5535 79.4233 60.5192 79.3734 60.4763 79.3315L60.637 79.2948C60.6215 79.3248 60.6122 79.3576 60.6094 79.3912C60.6094 79.4188 60.6874 79.4279 60.7792 79.4188C60.871 79.4096 60.9445 79.3729 60.9445 79.3499C60.923 79.3026 60.8917 79.2603 60.8527 79.226C60.9252 79.197 60.9957 79.1633 61.0638 79.125C61.0346 79.2254 61.0346 79.3321 61.0638 79.4325C61.0914 79.4738 61.229 79.4325 61.3805 79.3453C61.532 79.2581 61.633 79.1525 61.6054 79.1112C61.5256 79.0307 61.4231 78.9762 61.3117 78.9552C61.4017 78.8835 61.4833 78.8019 61.5549 78.7119C61.567 78.8026 61.6035 78.8882 61.6605 78.9598C61.6926 78.9827 61.7844 78.9093 61.867 78.7945C61.9497 78.6798 61.9864 78.565 61.9542 78.5421C61.8672 78.5178 61.7751 78.5178 61.688 78.5421C61.7681 78.4162 61.8314 78.2804 61.8762 78.1382C61.9293 78.2377 62.0108 78.3192 62.1103 78.3723C62.1746 78.3723 62.225 78.2437 62.2847 78.0739Z" fill="#008AF8" opacity="0.7"/>
<path d="M173.795 93.4866C174.708 96.3076 175.474 99.174 176.09 102.074C176.393 103.529 176.669 104.993 176.871 106.485C177.102 108.005 177.238 109.538 177.279 111.075V111.369V111.529C177.281 111.714 177.268 111.898 177.242 112.08C177.146 112.669 176.894 113.222 176.513 113.682C176.097 114.189 175.588 114.609 175.012 114.921C174.239 115.339 173.426 115.676 172.584 115.926C171.116 116.368 169.621 116.711 168.109 116.955C165.201 117.433 162.264 117.72 159.319 117.813L158.984 115.197C161.738 114.517 164.538 113.82 167.223 113.026C168.531 112.651 169.819 112.21 171.083 111.704C171.612 111.497 172.118 111.236 172.593 110.924C172.763 110.813 172.868 110.671 172.749 110.79C172.606 110.97 172.515 111.186 172.487 111.415C172.473 111.507 172.473 111.602 172.487 111.695V111.584L172.46 111.337C172.143 108.608 171.638 105.904 170.95 103.245C170.284 100.527 169.527 97.7644 168.747 95.1023L173.795 93.4866Z" fill="#EBBE8B"/>
<path d="M152.081 117.941L154.091 119.777C154.32 119.988 154.607 120.124 154.915 120.169C155.223 120.214 155.537 120.166 155.817 120.03L158.038 118.96C158.038 118.96 161.329 118.827 161.797 116.812L160.948 115.252L155.858 114.683C155.335 114.626 154.807 114.744 154.357 115.018L152.255 116.303C152.118 116.384 152.001 116.497 151.914 116.632C151.828 116.766 151.774 116.919 151.757 117.078C151.74 117.238 151.761 117.398 151.817 117.548C151.873 117.698 151.963 117.833 152.081 117.941Z" fill="#EBBE8B"/>
<path d="M164.12 72.791C163.597 75.9396 163.156 81.6999 165.41 83.724C165.41 83.724 159.902 86.6064 156.299 91.6369C152.439 88.5801 155.67 84.0178 155.67 84.0178C159.14 83.0768 158.975 80.4882 158.291 78.0509L164.12 72.791Z" fill="#EBBE8B"/>
<path d="M153.816 84.9403C153.931 84.4635 154.147 84.0168 154.448 83.6298C154.75 83.2428 155.13 82.9245 155.564 82.6959C157.024 81.9523 165.859 82.5857 165.859 82.5857L167.59 84.619L153.816 84.9403Z" fill="#008AF8"/>
<path d="M172.267 85.1285C175.608 86.4504 176.219 95.3042 176.187 95.0655L168.191 99.8574C168.191 99.8574 166.144 94.1797 166.158 90.9484C166.176 87.5198 169.628 84.0866 172.267 85.1285Z" fill="#1D2B36"/>
<path d="M146.408 92.2795C146.743 96.8327 147.757 104.512 150.254 117.427L171.698 116.794C171.138 108.876 171.987 102.974 173.924 89.1171C174.008 88.5174 173.97 87.907 173.813 87.3223C173.655 86.7376 173.382 86.1906 173.008 85.7141C172.634 85.2377 172.169 84.8414 171.638 84.5492C171.108 84.2569 170.524 84.0746 169.922 84.0132C168.545 83.8709 166.98 83.7561 165.405 83.724C161.793 83.6598 158.833 83.6322 155.666 84.0178C154.624 84.1417 153.54 84.3069 152.512 84.4767C150.704 84.7808 149.076 85.7499 147.946 87.1937C146.817 88.6376 146.268 90.4517 146.408 92.2795Z" fill="#1D2B36"/>
<path d="M153.017 66.9893C152.967 67.4116 152.7 67.7283 152.425 67.6916C152.15 67.6549 151.966 67.2923 152.017 66.8654C152.067 66.4385 152.333 66.1264 152.609 66.1632C152.884 66.1999 153.068 66.5625 153.017 66.9893Z" fill="#1D2B36"/>
<path d="M152.728 66.1999L151.746 65.7868C151.746 65.7868 152.186 66.6405 152.728 66.1999Z" fill="#1D2B36"/>
<path d="M152.87 67.6458C152.377 68.5648 151.759 69.4112 151.034 70.161C151.53 70.7531 152.508 70.62 152.508 70.62L152.87 67.6458Z" fill="#BF8356"/>
<path d="M152.967 63.2762C152.935 63.2308 152.919 63.176 152.922 63.1206C152.925 63.0653 152.946 63.0124 152.983 62.9707C153.019 62.9289 153.069 62.9006 153.123 62.8902C153.178 62.8799 153.234 62.8881 153.283 62.9136C153.647 63.0747 153.966 63.3212 154.214 63.632C154.461 63.9428 154.63 64.3089 154.706 64.699C154.71 64.7316 154.708 64.7646 154.7 64.7963C154.691 64.828 154.676 64.8577 154.656 64.8837C154.636 64.9097 154.611 64.9315 154.583 64.9479C154.554 64.9642 154.523 64.9748 154.49 64.979C154.458 64.9832 154.425 64.981 154.393 64.9724C154.362 64.9639 154.332 64.9492 154.306 64.9291C154.28 64.9091 154.258 64.8842 154.242 64.8557C154.225 64.8272 154.215 64.7958 154.211 64.7633C154.141 64.4603 154.002 64.1777 153.803 63.9385C153.605 63.6994 153.353 63.5102 153.068 63.3863C153.023 63.3616 152.987 63.3229 152.967 63.2762Z" fill="#1D2B36"/>
<path d="M167.613 66.893C166.672 72.0474 166.383 74.2368 163.436 76.6052C159.011 80.1439 152.879 77.8582 152.264 72.5248C151.704 67.7192 153.338 60.0908 158.69 58.6358C159.864 58.3119 161.101 58.2929 162.284 58.5807C163.467 58.8685 164.556 59.4536 165.45 60.2805C166.344 61.1075 167.011 62.1488 167.39 63.306C167.768 64.4632 167.845 65.6979 167.613 66.893Z" fill="#EBBE8B"/>
<path d="M155.661 59.563C151.039 60.9399 155.248 66.7874 157.231 68.068C155.909 69.9039 153.237 78.8588 161.761 80.9196C170.284 82.9805 170.977 73.1627 169.077 71.2029C174.153 65.461 170.486 59.9164 167.737 58.0713C164.226 55.7259 156.065 54.0919 155.661 59.563Z" fill="#1D2B36"/>
<path d="M164.928 57.9703C165.199 56.1114 169.49 52.0035 171.854 55.7304C173.878 58.9112 168.76 60.7793 167.337 60.7058C165.915 60.6324 164.928 57.9703 164.928 57.9703Z" fill="#1D2B36"/>
<path d="M157.988 69.1603C157.47 70.1173 156.596 70.8315 155.555 71.1477C154.178 71.5517 153.462 70.3216 153.829 69.0043C154.164 67.8201 155.284 66.1861 156.68 66.3559C158.075 66.5258 158.612 67.9624 157.988 69.1603Z" fill="#EBBE8B"/>
<path d="M132.404 178.514L127.314 178.422L128.617 165.75L133.708 165.841L132.404 178.514Z" fill="#EBBE8B"/>
<path d="M127.153 174.47L133.083 174.718C133.185 174.72 133.282 174.76 133.356 174.829C133.429 174.899 133.475 174.993 133.483 175.094L133.887 179.345C133.903 179.582 133.827 179.817 133.674 180C133.52 180.182 133.302 180.298 133.065 180.322C131.321 180.575 130.311 180.097 127.69 179.987C126.084 179.923 121.769 180.079 119.704 179.271C117.638 178.463 118.364 176.389 119.3 176.545C123.49 177.229 124.808 175.87 126.254 174.759C126.51 174.56 126.829 174.457 127.153 174.47Z" fill="#1D2B36"/>
<g opacity="0.2">
<path d="M128.617 165.75L127.947 172.285L133.037 172.377L133.712 165.846L128.617 165.75Z" fill="#1D2B36" opacity="0.2"/>
</g>
<path d="M112.461 166.296L107.894 163.863L112.727 152.283L116.509 158.713L112.461 166.296Z" fill="#EBBE8B"/>
<path d="M108.33 161.49L113.42 164.542C113.507 164.594 113.572 164.676 113.604 164.772C113.635 164.868 113.63 164.973 113.59 165.066L111.685 169.398C111.633 169.506 111.558 169.602 111.466 169.68C111.374 169.757 111.268 169.815 111.152 169.849C111.037 169.883 110.916 169.893 110.797 169.878C110.678 169.863 110.563 169.823 110.46 169.761C108.707 168.664 107.913 168.049 105.677 166.704C104.3 165.878 100.72 163.891 98.82 162.748C96.9198 161.605 97.9755 159.686 98.8751 159.994C102.891 161.371 105.585 161.586 107.403 161.311C107.724 161.26 108.052 161.323 108.33 161.49Z" fill="#1D2B36"/>
<g opacity="0.2">
<path d="M112.727 152.287L110.235 158.254L115.311 160.962L116.514 158.718L112.727 152.287Z" fill="#1D2B36" opacity="0.2"/>
</g>
<path d="M157.731 117.056C157.731 117.056 121.012 111.36 119.415 120.819C116.61 137.283 110.162 156.134 110.162 156.134L116.128 160.205C116.128 160.205 125.854 142.993 131.243 127.438C137.669 129.517 156.028 136.783 163.5 136.783C171.505 136.783 174.773 129.958 171.882 118.621C171.751 118.132 171.462 117.699 171.06 117.391C170.659 117.083 170.166 116.917 169.66 116.918C164.634 116.941 157.731 117.056 157.731 117.056Z" fill="#008AF8"/>
<path d="M110.432 152.898L109.964 156.17L116.183 160.489L118.084 158.126L110.432 152.898Z" fill="#1D2B36"/>
<path d="M125.983 129.861C125.905 131.817 124.881 138.651 124.376 144.09C125.405 141.887 126.46 139.551 127.475 137.164L125.983 129.861Z" fill="#1D2B36" opacity="0.2"/>
<path d="M154.403 121.577C154.403 121.577 124.381 121.411 125.317 131.463C126.869 148.092 126.896 170.684 126.896 170.684L134.286 171.055C134.286 171.055 138.233 153.26 138.568 136.801H160.6C168.999 136.801 172.63 127.576 164.455 116.812C159.434 116.794 154.403 121.577 154.403 121.577Z" fill="#008AF8"/>
<path d="M126.671 170.785L126.286 167.893L135.089 168.554L134.428 171.253L126.671 170.785Z" fill="#1D2B36"/>
<path d="M171.982 115.518L172.588 117.423C172.666 117.57 172.496 117.726 172.249 117.735L150.176 118.391C149.983 118.391 149.818 118.304 149.804 118.185L149.552 116.271C149.552 116.138 149.699 116.018 149.91 116.014L171.629 115.367C171.696 115.36 171.764 115.37 171.825 115.396C171.887 115.423 171.941 115.465 171.982 115.518Z" fill="white"/>
<path d="M169.137 118.038H169.72C169.834 118.038 169.922 117.974 169.912 117.9L169.564 115.417C169.564 115.344 169.453 115.284 169.334 115.289H168.756C168.636 115.289 168.554 115.353 168.563 115.426L168.907 117.914C168.921 117.987 169.022 118.042 169.137 118.038Z" fill="#1D2B36"/>
<path d="M151.815 118.552H152.398C152.512 118.552 152.6 118.483 152.59 118.41L152.242 115.927C152.242 115.853 152.131 115.798 152.012 115.798H151.434C151.314 115.798 151.232 115.867 151.241 115.936L151.585 118.423C151.599 118.501 151.7 118.556 151.815 118.552Z" fill="#1D2B36"/>
<path d="M160.476 118.295H161.059C161.173 118.295 161.261 118.226 161.251 118.153L160.907 115.656C160.907 115.582 160.797 115.527 160.678 115.527H160.099C159.98 115.527 159.897 115.591 159.907 115.665L160.251 118.153C160.26 118.244 160.361 118.299 160.476 118.295Z" fill="#1D2B36"/>
<path d="M151.691 95.1206C151.691 96.6077 151.571 97.9801 151.452 99.403C151.333 100.826 151.149 102.226 150.933 103.635C150.515 106.55 149.758 109.406 148.675 112.144C148.364 112.885 147.997 113.602 147.578 114.288C147.474 114.472 147.359 114.65 147.234 114.82L147.05 115.087L147.004 115.155V115.188L146.959 115.247L146.77 115.481C146.474 115.818 146.123 116.104 145.733 116.326C145.336 116.542 144.904 116.687 144.457 116.753C143.775 116.844 143.081 116.778 142.428 116.56C141.958 116.406 141.506 116.203 141.079 115.954C140.371 115.544 139.706 115.063 139.096 114.517C136.954 112.567 135.088 110.334 133.547 107.88L135.594 106.21L137.081 107.545L138.596 108.844C139.572 109.677 140.594 110.454 141.657 111.171C142.122 111.478 142.612 111.745 143.121 111.97C143.297 112.049 143.482 112.106 143.672 112.14C143.796 112.14 143.837 112.112 143.672 112.117C143.458 112.141 143.257 112.236 143.103 112.388C143.09 112.396 143.079 112.407 143.071 112.42L143.094 112.379L143.19 112.213C143.255 112.108 143.319 111.998 143.378 111.874C143.641 111.369 143.867 110.846 144.053 110.308C144.468 109.136 144.796 107.935 145.035 106.715C145.302 105.466 145.494 104.176 145.683 102.878C145.871 101.579 145.995 100.261 146.114 98.944C146.233 97.6267 146.316 96.2727 146.38 95.0197L151.691 95.1206Z" fill="#EBBE8B"/>
<path d="M148.175 87.3729C146.197 88.4378 145.127 96.2038 145.127 96.2038L154.481 100.399C154.481 100.399 156.239 93.7391 154.807 91.1963C153.311 88.5434 150.428 86.1429 148.175 87.3729Z" fill="#1D2B36"/>
<path d="M128.126 98.8843H121.802C121.416 98.8843 121.104 99.1967 121.104 99.582V108.275C121.104 108.661 121.416 108.973 121.802 108.973H128.126C128.512 108.973 128.824 108.661 128.824 108.275V99.582C128.824 99.1967 128.512 98.8843 128.126 98.8843Z" fill="#1D2B36"/>
<path d="M128.108 107.812C125.896 107.812 124.468 106.288 124.468 103.933C124.468 101.579 125.896 100.05 128.108 100.05C130.32 100.05 131.748 101.574 131.748 103.933C131.748 106.292 130.316 107.812 128.108 107.812ZM128.108 101.042C126.474 101.042 125.46 102.148 125.46 103.933C125.46 105.719 126.474 106.82 128.108 106.82C129.742 106.82 130.756 105.714 130.756 103.933C130.756 102.152 129.742 101.042 128.108 101.042Z" fill="#1D2B36"/>
<path d="M123.619 107.086L122.003 103.929L123.619 100.775L125.23 103.929L123.619 107.086Z" fill="white"/>
<path d="M131.234 101.078L133.308 102.056C133.826 102.299 134.249 102.708 134.511 103.217L136.806 107.729L135.97 109.299C134.033 110.015 132.106 107.339 132.106 107.339L129.733 105.916C129.542 105.803 129.39 105.636 129.297 105.435C129.203 105.234 129.173 105.01 129.209 104.792L129.668 101.905C129.695 101.735 129.761 101.574 129.861 101.434C129.961 101.295 130.093 101.18 130.244 101.1C130.396 101.02 130.565 100.976 130.736 100.972C130.908 100.969 131.078 101.005 131.234 101.078Z" fill="#EBBE8B"/>
<path d="M178.183 126.075H164.992C163.639 126.075 162.304 126.388 161.092 126.99C159.88 127.592 158.824 128.466 158.006 129.545L153.164 135.943H137.903C137.514 135.94 137.135 136.06 136.819 136.286C136.503 136.512 136.267 136.832 136.145 137.201L135.14 140.175C135.04 140.454 135.01 140.753 135.051 141.047C135.093 141.34 135.205 141.619 135.378 141.86C135.55 142.101 135.779 142.296 136.043 142.43C136.308 142.563 136.601 142.63 136.898 142.626H167.728C168.007 142.624 168.283 142.559 168.533 142.435C168.784 142.311 169.003 142.131 169.173 141.91L179.363 128.448C179.53 128.228 179.632 127.967 179.658 127.692C179.684 127.418 179.633 127.142 179.51 126.895C179.388 126.648 179.198 126.44 178.964 126.295C178.729 126.151 178.459 126.074 178.183 126.075Z" fill="#1D2B36"/>
<path d="M160.338 179.891H159.213L142.157 142.617H143.277L160.338 179.891Z" fill="#1D2B36"/>
<path d="M166.02 179.891H164.9L147.844 142.617H148.964L166.02 179.891Z" fill="#1D2B36"/>
<path d="M145.958 179.891H147.078L164.134 142.617H163.014L145.958 179.891Z" fill="#1D2B36"/>
<path d="M140.271 179.891H141.391L158.447 142.617H157.327L140.271 179.891Z" fill="#1D2B36"/>
<path d="M59.0579 163.611C57.9472 147.358 52.4715 107.715 48.8225 102.079C45.1736 96.4425 21.2374 104.227 21.2374 104.227C21.2374 104.227 43.2412 102.685 46.1145 103.516C48.9877 104.346 48.8684 103.974 49.8185 106.614C50.7686 109.253 53.6327 123.917 54.6838 131.436C55.7349 138.954 58.2776 160.903 58.2226 163.611H59.0579Z" fill="#008AF8"/>
<path d="M49.7634 105.508C51.0119 106.063 47.8862 102.244 45.5086 102.754C43.7645 103.121 27.0987 108.229 20.627 116.799C28.7189 111.846 47.6613 104.567 49.7634 105.508Z" fill="#008AF8"/>
<path d="M50.0478 105.59C50.695 106.471 49.2538 100.78 47.4637 100.082C46.1464 99.5728 33.0194 95.7357 25.5701 98.4254C32.8037 98.7329 48.96 104.098 50.0478 105.59Z" fill="#008AF8"/>
<path d="M60.0722 163.611C59.6958 151.42 60.8616 121.678 63.1841 117.446C65.5066 113.214 84.0404 119.061 84.0404 119.061C84.0404 119.061 67.416 117.905 65.323 118.524C63.23 119.144 63.2805 118.859 62.771 120.847C62.2615 122.834 61.1921 133.832 60.9626 139.473C60.7331 145.113 60.4531 161.577 60.6964 163.611H60.0722Z" fill="#008AF8"/>
<path d="M62.7298 120.021C61.8394 120.438 63.9002 117.574 65.7224 117.946C67.058 118.221 79.951 122.049 85.4267 128.48C79.0055 124.79 64.2399 119.314 62.7298 120.021Z" fill="#008AF8"/>
<path d="M62.5232 120.08C62.1055 120.746 62.7665 116.473 64.0562 115.949C65.0063 115.568 74.5716 112.691 80.3594 114.706C74.9526 114.94 63.2301 118.965 62.5232 120.08Z" fill="#008AF8"/>
<path d="M62.4818 121.944C62.2064 122.371 62.6241 118.345 63.4778 118.616C64.1066 118.814 70.4314 121.829 74.2823 127.576C70.6977 124.399 62.9454 121.214 62.4818 121.944Z" fill="#008AF8"/>
<path d="M62.1239 123.156C61.9036 123.495 62.6058 119.943 63.1199 120.314C63.5008 120.594 67.2507 124.294 69.0867 130.05C67.1176 126.653 62.5002 122.582 62.1239 123.156Z" fill="#008AF8"/>
<path d="M63.868 120.214C63.868 120.87 64.7079 117.001 64.327 116.312C64.0378 115.816 60.857 111.722 57.9517 112.544C60.0997 113.632 63.868 119.112 63.868 120.214Z" fill="#008AF8"/>
<path d="M62.2249 122.811C62.2249 123.362 63.657 117.891 63.1429 117.446C62.7573 117.12 58.8146 114.692 54.2753 116.092C56.8915 116.363 62.2249 118.589 62.2249 122.811Z" fill="#008AF8"/>
<path d="M51.0807 156.07H69.3116L66.3879 177.963H54.0044L51.0807 156.07Z" fill="#008AF8"/>
<path d="M51.0807 156.07H69.3116L66.3879 177.963H54.0044L51.0807 156.07Z" fill="white" opacity="0.6"/>
<path d="M49.644 156.07H70.7528L69.5182 159.443H50.8741L49.644 156.07Z" fill="#008AF8"/>
<path d="M49.644 156.07H70.7528L69.5182 159.443H50.8741L49.644 156.07Z" fill="white" opacity="0.4"/>
</svg>
