<svg width="200" height="200" viewBox="0 0 200 200" fill="none" xmlns="http://www.w3.org/2000/svg">
<path d="M32.4961 26.9227C79.5275 -0.481691 102.215 40.6075 110.052 71.5236C117.889 102.44 169.409 73.5076 179.989 107.826C188.421 135.231 149.767 174.113 77.9948 149.808C6.22261 125.504 -1.26709 46.5943 32.4961 26.9227Z" fill="#1265E5"/>
<path opacity="0.9" d="M32.4961 26.9227C79.5275 -0.481691 102.215 40.6075 110.052 71.5236C117.889 102.44 169.409 73.5076 179.989 107.826C188.421 135.231 149.767 174.113 77.9948 149.808C6.22261 125.504 -1.26709 46.5943 32.4961 26.9227Z" fill="white"/>
<path d="M96.8167 186.77C149.934 186.77 192.993 184.256 192.993 181.155C192.993 178.054 149.934 175.54 96.8167 175.54C43.6997 175.54 0.639893 178.054 0.639893 181.155C0.639893 184.256 43.6997 186.77 96.8167 186.77Z" fill="#F1F3F5"/>
<path d="M182.214 177.529L175.349 143.337H172.884L165.85 177.529L160.805 180.619V181.532H187.095V180.619L182.214 177.529Z" fill="#1265E5"/>
<path opacity="0.2" d="M187.259 180.619H160.969V181.77H187.259V180.619Z" fill="#1D2B36"/>
<path opacity="0.2" d="M175.349 143.54H172.884L165.934 177.628H182.298L175.349 143.54Z" fill="#1D2B36"/>
<path opacity="0.6" d="M180.791 170.123H167.487L169.883 158.218H178.37L180.746 169.895L180.791 170.123Z" fill="white"/>
<path d="M113.27 60.3497L108.885 61.9866C108.558 61.7386 110.21 46.8575 110.21 46.8575L107.551 46.4656C107.551 46.4656 103.057 61.9221 104.575 65.0472C106.559 69.0948 115.319 65.0472 115.319 65.0472L113.27 60.3497Z" fill="#B97964"/>
<path d="M193.537 69.3872L195.578 60.5115L78.4741 33.5836L76.4332 42.4592L193.537 69.3872Z" fill="#1265E5"/>
<path opacity="0.6" d="M193.537 69.3872L195.578 60.5115L78.4741 33.5836L76.4332 42.4592L193.537 69.3872Z" fill="white"/>
<path opacity="0.2" d="M194.394 65.665L194.72 64.2486L77.6159 37.3206L77.2902 38.737L194.394 65.665Z" fill="#1D2B36"/>
<path d="M81.4394 38.9506C81.6577 38.0063 81.6221 37.0211 81.3363 36.095C81.0506 35.1689 80.5248 34.3349 79.8124 33.6778L79.614 33.4942L78.6219 33.2611C78.5285 33.2403 78.4307 33.2574 78.3499 33.3085C78.269 33.3596 78.2117 33.4407 78.1903 33.5339L76.1566 42.3981C76.1456 42.444 76.1438 42.4917 76.1513 42.5383C76.1588 42.585 76.1755 42.6297 76.2004 42.6698C76.2253 42.7099 76.258 42.7447 76.2964 42.7722C76.3349 42.7996 76.3784 42.8192 76.4245 42.8297L77.4165 43.0628L77.6794 42.9834C78.6058 42.702 79.4414 42.1808 80.1017 41.4726C80.762 40.7645 81.2234 39.8945 81.4394 38.9506Z" fill="#1265E5"/>
<path opacity="0.2" d="M81.4394 38.9506C81.6577 38.0063 81.6221 37.0211 81.3363 36.095C81.0506 35.1689 80.5248 34.3349 79.8124 33.6778L79.614 33.4942L78.6219 33.2611C78.5285 33.2403 78.4307 33.2574 78.3499 33.3085C78.269 33.3596 78.2117 33.4407 78.1903 33.5339L76.1566 42.3981C76.1456 42.444 76.1438 42.4917 76.1513 42.5383C76.1588 42.585 76.1755 42.6297 76.2004 42.6698C76.2253 42.7099 76.258 42.7447 76.2964 42.7722C76.3349 42.7996 76.3784 42.8192 76.4245 42.8297L77.4165 43.0628L77.6794 42.9834C78.6058 42.702 79.4414 42.1808 80.1017 41.4726C80.762 40.7645 81.2234 39.8945 81.4394 38.9506Z" fill="#1D2B36"/>
<path d="M102.174 46.2771L107.997 20.9346L105.854 20.4385L99.7084 47.17C99.6945 47.23 99.6925 47.2921 99.7027 47.3528C99.7129 47.4134 99.735 47.4715 99.7678 47.5236C99.8005 47.5757 99.8432 47.6208 99.8935 47.6564C99.9437 47.6919 100.001 47.7171 100.061 47.7305C100.125 47.7456 100.192 47.7468 100.257 47.734C100.322 47.7211 100.384 47.6946 100.438 47.6561L101.985 46.55C102.077 46.4833 102.144 46.387 102.174 46.2771Z" fill="#1265E5"/>
<path d="M125.19 51.5698L131.043 26.2273L128.895 25.7312L122.754 52.4627C122.726 52.5831 122.747 52.7098 122.812 52.8149C122.877 52.92 122.981 52.9949 123.102 53.0232C123.166 53.0386 123.233 53.04 123.298 53.0271C123.363 53.0143 123.425 52.9876 123.479 52.9488L125.031 51.8427C125.112 51.7714 125.168 51.6756 125.19 51.5698Z" fill="#1265E5"/>
<path d="M148.211 56.8626L154.035 31.52L151.892 31.024L145.746 57.7554C145.732 57.8154 145.73 57.8775 145.74 57.9382C145.75 57.9989 145.772 58.0569 145.805 58.109C145.838 58.1612 145.881 58.2063 145.931 58.2418C145.981 58.2773 146.038 58.3025 146.098 58.316C146.163 58.3293 146.229 58.3295 146.294 58.3167C146.359 58.304 146.42 58.2784 146.475 58.2416L148.028 57.1304C148.117 57.0643 148.182 56.9699 148.211 56.8626Z" fill="#1265E5"/>
<path d="M171.222 62.1503L177.046 36.8127L174.903 36.3167L168.757 63.0481C168.735 63.1693 168.759 63.2943 168.824 63.3988C168.889 63.5033 168.991 63.5799 169.109 63.6136C169.174 63.628 169.241 63.6284 169.306 63.6147C169.371 63.601 169.433 63.5736 169.486 63.5342L171.034 62.4281C171.127 62.3602 171.194 62.262 171.222 62.1503Z" fill="#1265E5"/>
<path d="M197.959 50.1362L200 41.2606L82.896 14.3326L80.855 23.2082L197.959 50.1362Z" fill="#1265E5"/>
<path opacity="0.7" d="M197.959 50.1362L200 41.2606L82.896 14.3326L80.855 23.2082L197.959 50.1362Z" fill="white"/>
<path opacity="0.2" d="M198.821 46.409L199.147 44.9925L82.0427 18.0646L81.717 19.481L198.821 46.409Z" fill="#1D2B36"/>
<path d="M79.1527 40.9844L85.1548 14.863L83.0119 14.367L76.6874 41.8772C76.6654 41.9984 76.6893 42.1234 76.7544 42.2279C76.8195 42.3324 76.9212 42.409 77.0396 42.4427C77.1044 42.4571 77.1716 42.4575 77.2367 42.4438C77.3017 42.4301 77.363 42.4027 77.4166 42.3633L78.9692 41.2572C79.0596 41.1897 79.1243 41.0935 79.1527 40.9844Z" fill="#1265E5"/>
<path d="M85.8639 19.6994C86.0805 18.7547 86.0436 17.7694 85.7571 16.8435C85.4705 15.9175 84.9443 15.0837 84.2319 14.4265L84.0335 14.243L83.0414 14.0099C82.9955 13.9988 82.9478 13.997 82.9012 14.0046C82.8545 14.0121 82.8098 14.0288 82.7697 14.0537C82.7296 14.0786 82.6948 14.1112 82.6673 14.1497C82.6399 14.1881 82.6204 14.2317 82.6098 14.2777L80.5563 23.1469C80.5452 23.1928 80.5434 23.2405 80.5509 23.2871C80.5585 23.3338 80.5752 23.3784 80.6001 23.4186C80.625 23.4587 80.6576 23.4935 80.6961 23.5209C80.7345 23.5484 80.7781 23.5679 80.8241 23.5784L81.8162 23.8066L82.0741 23.7322C83.0053 23.4539 83.8463 22.9342 84.5119 22.226C85.1774 21.5177 85.6439 20.6461 85.8639 19.6994Z" fill="#1265E5"/>
<path opacity="0.1" d="M85.8639 19.6994C86.0805 18.7547 86.0436 17.7694 85.7571 16.8435C85.4705 15.9175 84.9443 15.0837 84.2319 14.4265L84.0335 14.243L83.0414 14.0099C82.9955 13.9988 82.9478 13.997 82.9012 14.0046C82.8545 14.0121 82.8098 14.0288 82.7697 14.0537C82.7296 14.0786 82.6948 14.1112 82.6673 14.1497C82.6399 14.1881 82.6204 14.2317 82.6098 14.2777L80.5563 23.1469C80.5452 23.1928 80.5434 23.2405 80.5509 23.2871C80.5585 23.3338 80.5752 23.3784 80.6001 23.4186C80.625 23.4587 80.6576 23.4935 80.6961 23.5209C80.7345 23.5484 80.7781 23.5679 80.8241 23.5784L81.8162 23.8066L82.0741 23.7322C83.0053 23.4539 83.8463 22.9342 84.5119 22.226C85.1774 21.5177 85.6439 20.6461 85.8639 19.6994Z" fill="white"/>
<path d="M127.695 63.9708C127.433 63.9446 127.168 63.9446 126.906 63.9708C124.993 64.1869 123.095 64.5182 121.222 64.9629C116.966 65.8607 112.293 67.0661 112.293 67.0661L110.209 60.9946C110.209 60.9946 123.935 53.058 126.162 53.7078C126.162 53.7078 129.887 64.3031 127.695 63.9708Z" fill="#405261"/>
<path d="M159.193 70.1465C159.193 70.1465 162.874 74.3876 162.457 79.844C162.04 85.3004 148.186 93.7331 148.186 93.7331L146.42 91.0048C146.42 91.0048 157.457 81.7041 157.705 79.844C157.953 77.9839 155.413 73.8915 155.413 73.8915L159.193 70.1465Z" fill="#B97964"/>
<path d="M146.916 90.0524C146.916 90.0524 149.173 93.0783 149.064 93.4652C148.955 93.8521 147.13 94.988 147.13 94.988C147.13 94.988 147.437 96.7936 147.437 97.121C147.437 97.9295 145.994 98.9414 145.622 98.6934C144.287 97.8006 143.801 95.3849 143.553 94.2787C143.305 93.1725 146.267 89.7201 146.916 90.0524Z" fill="#1265E5"/>
<path opacity="0.7" d="M146.916 90.0524C146.916 90.0524 149.173 93.0783 149.064 93.4652C148.955 93.8521 147.13 94.988 147.13 94.988C147.13 94.988 147.437 96.7936 147.437 97.121C147.437 97.9295 145.994 98.9414 145.622 98.6934C144.287 97.8006 143.801 95.3849 143.553 94.2787C143.305 93.1725 146.267 89.7201 146.916 90.0524Z" fill="white"/>
<path d="M126.817 178.074L122.794 178.496L122.04 169.82L126.063 169.394L126.817 178.074Z" fill="#B97964"/>
<path d="M146.897 177.782H142.998L142.675 168.749H146.579L146.897 177.782Z" fill="#B97964"/>
<path d="M142.452 177.33H147.189C147.267 177.33 147.342 177.356 147.403 177.405C147.463 177.454 147.505 177.522 147.521 177.598L148.29 181.07C148.306 181.155 148.303 181.241 148.282 181.324C148.261 181.407 148.222 181.485 148.167 181.551C148.113 181.617 148.045 181.671 147.967 181.708C147.89 181.745 147.805 181.764 147.72 181.765C146.187 181.74 145.071 181.646 143.146 181.646C141.961 181.646 138.384 181.77 136.747 181.77C135.11 181.77 134.897 180.153 135.567 180.004C138.573 179.349 140.835 178.441 141.797 177.578C141.975 177.414 142.21 177.325 142.452 177.33Z" fill="#405261"/>
<path d="M141.167 178.015C140.902 178.035 140.638 177.965 140.418 177.816C140.347 177.757 140.292 177.68 140.258 177.593C140.224 177.506 140.213 177.413 140.225 177.32C140.223 177.267 140.237 177.213 140.265 177.167C140.293 177.121 140.334 177.085 140.383 177.062C140.815 176.839 142.075 177.613 142.214 177.702C142.23 177.71 142.244 177.723 142.252 177.739C142.26 177.755 142.262 177.774 142.258 177.792C142.256 177.81 142.248 177.828 142.236 177.842C142.224 177.856 142.207 177.866 142.189 177.871C141.855 177.956 141.512 178.005 141.167 178.015ZM140.587 177.206C140.546 177.202 140.504 177.211 140.468 177.231C140.443 177.231 140.413 177.266 140.408 177.34C140.401 177.402 140.408 177.464 140.429 177.522C140.451 177.58 140.486 177.631 140.532 177.673C140.97 177.871 141.466 177.896 141.921 177.742C141.515 177.478 141.062 177.296 140.587 177.206Z" fill="#1265E5"/>
<path d="M142.164 177.876H142.12C141.718 177.658 140.939 176.8 141.018 176.388C141.032 176.319 141.069 176.257 141.124 176.213C141.178 176.169 141.246 176.145 141.316 176.145C141.386 176.136 141.457 176.141 141.525 176.162C141.592 176.182 141.655 176.217 141.708 176.264C142.159 176.631 142.253 177.752 142.258 177.806C142.259 177.823 142.255 177.84 142.247 177.854C142.239 177.869 142.228 177.882 142.214 177.891C142.196 177.891 142.179 177.886 142.164 177.876ZM141.38 176.294H141.336C141.217 176.294 141.207 176.363 141.202 176.388C141.152 176.641 141.648 177.291 142.05 177.593C142.025 177.149 141.864 176.723 141.589 176.373C141.532 176.321 141.457 176.293 141.38 176.294Z" fill="#1265E5"/>
<path d="M122.367 177.206H127.104C127.182 177.206 127.258 177.232 127.318 177.281C127.379 177.33 127.421 177.398 127.437 177.474L128.206 180.946C128.222 181.031 128.219 181.117 128.198 181.2C128.177 181.283 128.137 181.361 128.083 181.427C128.029 181.493 127.96 181.547 127.883 181.584C127.806 181.621 127.721 181.64 127.635 181.641C126.102 181.616 124.986 181.522 123.062 181.522C121.876 181.522 118.3 181.646 116.663 181.646C115.026 181.646 114.813 180.029 115.482 179.88C118.488 179.225 120.75 178.317 121.713 177.454C121.891 177.29 122.125 177.201 122.367 177.206Z" fill="#405261"/>
<path d="M121.078 177.891C120.813 177.911 120.549 177.841 120.329 177.692C120.257 177.633 120.202 177.556 120.169 177.469C120.135 177.382 120.123 177.289 120.135 177.196C120.133 177.142 120.147 177.089 120.175 177.043C120.204 176.997 120.245 176.961 120.294 176.938C120.725 176.715 121.985 177.489 122.124 177.578C122.141 177.586 122.154 177.599 122.162 177.615C122.17 177.631 122.173 177.65 122.169 177.668C122.167 177.686 122.159 177.704 122.146 177.718C122.134 177.732 122.118 177.742 122.099 177.747C121.765 177.832 121.422 177.881 121.078 177.891ZM120.497 177.067C120.456 177.063 120.414 177.072 120.378 177.092C120.353 177.092 120.324 177.127 120.319 177.201C120.311 177.263 120.318 177.325 120.34 177.383C120.361 177.441 120.397 177.492 120.443 177.534C120.88 177.732 121.377 177.757 121.832 177.603C121.426 177.339 120.973 177.157 120.497 177.067Z" fill="#1265E5"/>
<path d="M122.075 177.752H122.03C121.628 177.534 120.85 176.676 120.929 176.264C120.943 176.195 120.98 176.133 121.034 176.089C121.089 176.045 121.157 176.021 121.227 176.021C121.297 176.012 121.368 176.017 121.435 176.038C121.503 176.058 121.565 176.093 121.618 176.14C122.07 176.507 122.164 177.628 122.169 177.682C122.169 177.699 122.165 177.716 122.158 177.73C122.15 177.745 122.138 177.758 122.124 177.767C122.107 177.767 122.089 177.762 122.075 177.752ZM121.291 176.17H121.246C121.127 176.17 121.117 176.239 121.113 176.264C121.063 176.517 121.559 177.167 121.961 177.469C121.936 177.025 121.775 176.599 121.499 176.249C121.443 176.197 121.368 176.169 121.291 176.17Z" fill="#1265E5"/>
<path opacity="0.2" d="M126.063 169.394L122.04 169.82L122.432 174.295L126.455 173.873L126.063 169.394Z" fill="#1D2B36"/>
<path opacity="0.2" d="M146.579 168.754H142.675L142.844 173.412H146.748L146.579 168.754Z" fill="#1D2B36"/>
<path d="M144.967 89.5167H124.272C122.288 100.261 116.147 138.287 120.567 172.172L127.571 171.303C127.571 171.303 126.921 126.323 133.107 109.696C133.821 118.594 134.664 128.049 135.398 133.099C137.199 145.5 141.053 172.603 141.053 172.603H148.186C148.186 172.603 146.728 146.66 146.053 134.473C145.314 121.243 144.997 92.2449 144.967 89.5167Z" fill="#1265E5"/>
<path opacity="0.2" d="M133.107 109.696C132.088 112.61 131.315 115.605 130.795 118.649C130.215 110.712 132.531 102.329 132.531 102.329L133.107 109.696Z" fill="#1D2B36"/>
<path d="M119.763 173.803L128.434 172.514L128.171 170.113L119.148 171.293L119.763 173.803Z" fill="#1265E5"/>
<path opacity="0.6" d="M119.763 173.803L128.434 172.514L128.171 170.113L119.148 171.293L119.763 173.803Z" fill="white"/>
<path d="M140.195 172.663H148.608V170.148L139.877 169.984L140.195 172.663Z" fill="#1265E5"/>
<path opacity="0.6" d="M140.195 172.663H148.608V170.148L139.877 169.984L140.195 172.663Z" fill="white"/>
<path d="M124.099 89.7647H144.932V92.2449L123.831 91.987L124.099 89.7647Z" fill="#405261"/>
<path d="M138.236 88.6487H137.492V93.0535H138.236V88.6487Z" fill="#1265E5"/>
<path d="M127.695 88.6487H126.951V93.0535H127.695V88.6487Z" fill="#1265E5"/>
<path opacity="0.2" d="M126.906 63.9707C124.993 64.1868 123.095 64.5181 121.221 64.9628C121.99 61.6393 126.083 58.9211 126.083 58.9211L126.906 63.9707Z" fill="#1D2B36"/>
<path d="M133.598 89.3332H129.743V92.111H133.598V89.3332Z" fill="white"/>
<path d="M149.134 55.563C149.134 55.563 148.504 58.7277 147.735 63.326C147.388 65.4143 147.011 67.7903 146.649 70.3151C145.716 76.8231 144.893 84.229 144.967 89.7648H124.099C124.099 89.7648 122.744 66.5056 126.162 53.7078C126.162 53.7078 139.327 53.0877 149.134 55.563Z" fill="#405261"/>
<path d="M141.648 54.174C139.749 55.9002 135.096 55.2604 135.096 55.2604C135.096 55.2604 132.189 54.4667 132.799 53.5589C134.51 53.2762 135.339 52.4776 135.681 51.4557C135.868 50.8223 135.927 50.1579 135.855 49.5014C135.826 49.1353 135.778 48.771 135.711 48.4101L141.46 44.1293C140.711 46.9616 139.788 52.1353 141.648 54.174Z" fill="#B97964"/>
<path opacity="0.2" d="M140.135 46.8575C139.907 50.3297 137.07 51.2623 135.671 51.4557C135.859 50.8223 135.918 50.1579 135.845 49.5013L140.135 46.8575Z" fill="#1D2B36"/>
<path d="M140.8 51.9815L135.299 54.4617L134.977 52.4776L132.958 53.1869C132.604 53.3094 132.303 53.5484 132.102 53.8647C131.902 54.181 131.816 54.5559 131.857 54.928L132.08 57.1105L134.872 55.5827L136.261 57.5669L142.869 54.3873L140.8 51.9815Z" fill="#405261"/>
<path opacity="0.2" d="M140.8 51.9815L135.299 54.4617L134.977 52.4776L132.958 53.1869C132.604 53.3094 132.303 53.5484 132.102 53.8647C131.902 54.181 131.816 54.5559 131.857 54.928L132.08 57.1105L134.872 55.5827L136.261 57.5669L142.869 54.3873L140.8 51.9815Z" fill="white"/>
<path d="M146.996 55.0818C146.996 55.0818 142.13 71.451 146.425 74.3876C146.425 74.3876 145.83 87.85 144.972 89.7647C138.019 90.1421 131.051 90.1421 124.099 89.7647C123.536 84.6595 123.316 79.5223 123.439 74.3876C123.439 74.3876 125.006 72.4034 125.006 70.9153C125.006 69.4272 125.914 57.5223 128.89 53.554H130.547C130.547 53.554 128.151 58.43 128.479 62.7307C128.479 62.7307 135.756 63.9708 141.048 63.2267C141.048 63.2267 142.616 57.438 144.352 54.5461L146.996 55.0818Z" fill="#1265E5"/>
<path opacity="0.2" d="M127.695 75.3796H139.972C139.972 75.3796 140.716 85.4641 132.273 84.8044C125.82 84.3083 127.695 75.3796 127.695 75.3796Z" fill="#1D2B36"/>
<path d="M131.777 35.0518C131.777 35.0518 130.135 40.2354 132.63 42.7205C135.125 45.2057 136.683 35.3246 136.683 35.3246L131.777 35.0518Z" fill="#405261"/>
<path d="M140.904 47.2742C140.687 47.6172 140.435 47.9365 140.15 48.2265C139.422 49.0075 138.457 49.5275 137.404 49.7067C136.351 49.8859 135.268 49.7145 134.322 49.2186C133.088 48.5999 132.134 47.5363 131.653 46.2424C131.585 46.0623 131.527 45.8785 131.48 45.6918C131.363 45.2349 131.275 44.771 131.217 44.3029C130.765 40.8654 131.519 36.2869 134.818 34.8782C135.456 34.6028 136.141 34.456 136.836 34.4461C137.53 34.4362 138.22 34.5635 138.865 34.8206C139.51 35.0778 140.098 35.4597 140.595 35.9446C141.093 36.4294 141.489 37.0076 141.763 37.6461C142.095 38.4093 142.239 39.2411 142.184 40.0717C142.03 43.3604 142.06 45.4884 140.904 47.2742Z" fill="#B97964"/>
<path opacity="0.1" d="M140.904 47.2741C140.687 47.6172 140.435 47.9364 140.15 48.2265C139.422 49.0074 138.457 49.5274 137.404 49.7067C136.351 49.8859 135.268 49.7144 134.322 49.2186C133.088 48.5998 132.134 47.5363 131.653 46.2424C131.585 46.0623 131.527 45.8784 131.48 45.6918C131.363 45.2348 131.275 44.7709 131.217 44.3029C131.792 44.6423 132.433 44.8538 133.097 44.9229C133.551 44.8768 134.005 45.0104 134.362 45.2949C135.612 44.5459 137.626 44.5062 138.553 44.2731C139.481 44.04 139.724 40.4536 139.724 40.4536L140.904 41.7483C141.415 44.0945 141.361 45.915 140.904 47.2741Z" fill="#1D2B36"/>
<path d="M136.331 41.2522C136.331 41.5598 136.172 41.8227 135.964 41.8227C135.756 41.8227 135.587 41.5697 135.582 41.2572C135.577 40.9447 135.746 40.6868 135.949 40.6868C136.152 40.6868 136.321 40.9298 136.331 41.2522Z" fill="#405261"/>
<path d="M132.774 41.2969C132.799 41.6094 132.611 41.8673 132.407 41.8673C132.204 41.8673 132.035 41.6144 132.025 41.3019C132.015 40.9894 132.189 40.7314 132.392 40.7314C132.596 40.7314 132.769 40.9993 132.774 41.2969Z" fill="#405261"/>
<path d="M133.905 41.4358C133.537 42.4031 133.036 43.3145 132.417 44.1441C132.635 44.2969 132.884 44.3996 133.147 44.4451C133.409 44.4905 133.678 44.4775 133.935 44.407L133.905 41.4358Z" fill="#A24E3F"/>
<path d="M137.417 40.0865C137.384 40.091 137.35 40.0869 137.319 40.0748C137.288 40.0626 137.26 40.0428 137.239 40.0171C137.101 39.8304 136.922 39.6785 136.715 39.5735C136.508 39.4684 136.28 39.4131 136.048 39.4119C136.024 39.4147 135.999 39.4124 135.976 39.4053C135.953 39.3982 135.931 39.3863 135.913 39.3705C135.894 39.3547 135.879 39.3353 135.868 39.3134C135.857 39.2915 135.851 39.2676 135.85 39.2433C135.846 39.1953 135.86 39.1477 135.891 39.1106C135.922 39.0735 135.966 39.0499 136.013 39.0448C136.303 39.0425 136.588 39.1087 136.847 39.238C137.106 39.3674 137.33 39.5561 137.502 39.7889C137.532 39.8264 137.547 39.8746 137.543 39.923C137.538 39.9713 137.514 40.0159 137.477 40.0468C137.459 40.063 137.439 40.0764 137.417 40.0865Z" fill="#405261"/>
<path d="M134.486 46.0291C134.939 46.096 135.402 46.051 135.835 45.898C136.267 45.7449 136.655 45.4885 136.966 45.1511C136.983 45.132 136.992 45.1069 136.99 45.0813C136.989 45.0558 136.977 45.0318 136.958 45.0147C136.939 44.9976 136.914 44.9887 136.889 44.9901C136.863 44.9915 136.839 45.003 136.822 45.0221C136.529 45.3252 136.169 45.5556 135.771 45.6952C135.373 45.8347 134.948 45.8794 134.53 45.8257C134.506 45.8238 134.481 45.8308 134.461 45.8453C134.441 45.8599 134.427 45.881 134.421 45.9051C134.419 45.9175 134.419 45.9301 134.422 45.9424C134.425 45.9546 134.43 45.9662 134.438 45.9764C134.445 45.9865 134.454 45.9951 134.465 46.0016C134.476 46.0081 134.488 46.0124 134.5 46.0142L134.486 46.0291Z" fill="#405261"/>
<path d="M131.231 40.0915C131.196 40.1012 131.158 40.1012 131.122 40.0915C131.078 40.0709 131.044 40.0342 131.026 39.9889C131.009 39.9436 131.009 39.8933 131.028 39.8485C131.146 39.5796 131.327 39.3432 131.556 39.1593C131.785 38.9753 132.055 38.8493 132.343 38.7919C132.391 38.7862 132.44 38.7996 132.479 38.8292C132.518 38.8588 132.544 38.9023 132.551 38.9506C132.555 38.9989 132.542 39.0472 132.512 39.0857C132.483 39.1243 132.44 39.1505 132.392 39.159C132.167 39.2109 131.957 39.3146 131.779 39.4618C131.6 39.609 131.459 39.7958 131.365 40.0072C131.35 40.0297 131.33 40.0488 131.307 40.0633C131.284 40.0778 131.258 40.0874 131.231 40.0915Z" fill="#405261"/>
<path d="M139.282 35.3147L139.014 37.0061C139.297 37.154 139.514 37.4031 139.622 37.7037C139.729 38.0043 139.72 38.3344 139.595 38.6282C138.995 40.0369 139.734 42.2889 140.8 43.2116C140.8 43.2116 140.855 42.5915 141.371 42.7552C141.886 42.9189 141.633 46.1432 140.562 47.6511C140.562 47.6511 142.154 46.3118 143.141 42.9487C144.054 39.8435 144.248 37.2343 143.637 36.0041L139.282 35.3147Z" fill="#405261"/>
<path d="M143.568 36.4903C143.568 36.4903 145.289 33.8315 140.656 32.4327C136.023 31.0339 132.799 33.023 132.799 33.023C132.799 33.023 129.783 36.6242 133.791 37.2145C137.725 37.7849 143.568 36.4903 143.568 36.4903Z" fill="#405261"/>
<path d="M144.253 43.2959C143.835 44.1753 143.086 44.8532 142.169 45.1808C140.954 45.6074 140.264 44.536 140.532 43.3455C140.775 42.284 141.698 40.7562 142.958 40.8653C144.218 40.9744 144.754 42.2096 144.253 43.2959Z" fill="#B97964"/>
<path d="M141.673 36.8623C141.673 36.8623 140.324 49.7047 133.801 48.8565L134.585 49.3873C134.585 49.3873 140.448 50.2256 142.521 36.9863L141.673 36.8623Z" fill="#405261"/>
<path opacity="0.2" d="M141.673 36.8623C141.673 36.8623 140.324 49.7047 133.801 48.8565L134.585 49.3873C134.585 49.3873 140.448 50.2256 142.521 36.9863L141.673 36.8623Z" fill="#1D2B36"/>
<path d="M144.813 37.9437C142.888 37.4476 136.623 38.4943 133.677 38.3653C130.731 38.2363 129.773 37.7552 129.292 37.3385C128.811 36.9218 130.577 36.3464 130.577 36.3464C130.577 36.3464 130.81 31.8821 134.471 29.8384C135.586 29.2392 136.822 28.9001 138.087 28.8463C139.046 28.7619 140.013 28.8715 140.929 29.1688C145.354 30.6569 145.016 36.6093 145.016 36.6093C145.016 36.6093 146.743 38.4149 144.813 37.9437Z" fill="#1265E5"/>
<path opacity="0.2" d="M144.813 37.9437C142.888 37.4476 136.623 38.4943 133.677 38.3653C130.731 38.2364 129.773 37.7552 129.292 37.3385C128.811 36.9218 130.577 36.3464 130.577 36.3464C130.577 36.3464 132.417 37.6064 134.302 37.2492C136.187 36.8921 141.619 35.4089 145.021 36.6093C145.021 36.6341 146.743 38.4149 144.813 37.9437Z" fill="#1D2B36"/>
<path opacity="0.2" d="M140.934 29.1737C139.054 29.4763 137.462 31.2025 136.748 32.8246C135.785 34.9724 132.427 37.3732 132.859 32.6261C132.908 32.0756 133.079 31.5427 133.357 31.0652C133.636 30.5877 134.016 30.1774 134.471 29.8632C135.586 29.264 136.822 28.9249 138.087 28.8711C139.047 28.7796 140.015 28.8825 140.934 29.1737Z" fill="#1D2B36"/>
<path d="M113.865 67.5621L110.601 59.9727L109.183 61.0094L111.812 67.9589L113.865 67.5621Z" fill="#405261"/>
<path opacity="0.2" d="M113.865 67.5621L110.601 59.9727L109.183 61.0094L111.812 67.9589L113.865 67.5621Z" fill="white"/>
<path d="M107.997 40.3842C107.997 40.3842 107.814 41.778 108.389 41.9219C109.418 42.2125 110.465 42.4329 111.524 42.5816C112.02 42.5816 112.357 40.5975 112.357 40.3842C112.357 40.1709 108.429 38.9506 107.997 40.3842Z" fill="#1265E5"/>
<path opacity="0.7" d="M107.997 40.3842C107.997 40.3842 107.814 41.778 108.389 41.9219C109.418 42.2125 110.465 42.4329 111.524 42.5816C112.02 42.5816 112.357 40.5975 112.357 40.3842C112.357 40.1709 108.429 38.9506 107.997 40.3842Z" fill="white"/>
<path opacity="0.2" d="M147.735 63.3259C147.388 65.4142 147.011 67.7903 146.648 70.3151C145.012 67.3041 146.316 62.2942 146.316 62.2942L147.735 63.3259Z" fill="#1D2B36"/>
<path d="M149.133 55.5629C149.133 55.5629 152.065 56.5302 162.457 73.5592L156.465 77.2398C156.465 77.2398 148.965 66.947 146.996 66.4509C146.996 66.4509 144.53 57.9588 149.133 55.5629Z" fill="#405261"/>
<path d="M162.169 72.4878L155.413 77.2398L156.713 78.4204L162.978 74.4124L162.169 72.4878Z" fill="#405261"/>
<path opacity="0.2" d="M162.169 72.4878L155.413 77.2398L156.713 78.4204L162.978 74.4124L162.169 72.4878Z" fill="white"/>
<path d="M0 181.77H3.58635L11.8553 106.947H8.26895L0 181.77Z" fill="#405261"/>
<path opacity="0.1" d="M9.57849 127.498L6.70643 153.406L3.58635 181.532H0L3.12008 153.387L6.26496 124.983H6.26992L9.57849 127.498Z" fill="white"/>
<path d="M59.1226 181.77H62.704L70.9729 106.947H67.3915L59.1226 181.77Z" fill="#405261"/>
<path opacity="0.1" d="M64.1871 168.253L62.704 181.532H59.1226L60.8785 165.718L64.1871 168.253Z" fill="white"/>
<path d="M3.11987 153.545H65.8488L74.4303 75.9055H11.7013L3.11987 153.545Z" fill="#405261"/>
<path opacity="0.1" d="M44.3605 153.754H3.11987L6.26971 125.162L9.57828 127.692L44.3605 153.754Z" fill="white"/>
<path d="M86.3353 181.77H82.7489L74.48 106.947H78.0614L86.3353 181.77Z" fill="#405261"/>
<path opacity="0.2" d="M86.3353 181.77H82.7489L74.48 106.947H78.0614L86.3353 181.77Z" fill="white"/>
<path d="M27.2124 181.77H23.631L15.3621 106.947H18.9435L27.2124 181.77Z" fill="#405261"/>
<path opacity="0.2" d="M27.2124 181.77H23.631L15.3621 106.947H18.9435L27.2124 181.77Z" fill="white"/>
<path d="M83.2152 153.545H20.4862L11.9048 75.9055H74.6337L83.2152 153.545Z" fill="#1265E5"/>
<path opacity="0.6" d="M83.2152 153.545H20.4862L11.9048 75.9055H74.6337L83.2152 153.545Z" fill="white"/>
<path d="M74.614 75.8757L75.3829 82.8202H12.6788L11.9099 75.8757H74.614Z" fill="#1265E5"/>
<path opacity="0.2" d="M74.614 75.8757L75.3829 82.8202H12.6788L11.9099 75.8757H74.614Z" fill="white"/>
<path d="M17.6588 75.8757L16.3145 82.7855L16.3096 82.8202H14.2163L14.2213 82.7855L15.5655 75.8757H17.6588Z" fill="#405261"/>
<path d="M24.2314 75.8757L22.8822 82.7855L22.8772 82.8202H20.7839L20.7889 82.7855L22.1381 75.8757H24.2314Z" fill="#405261"/>
<path d="M30.7989 75.8757L29.4547 82.7855L29.4497 82.8202H27.3564L27.3614 82.7855L28.7057 75.8757H30.7989Z" fill="#405261"/>
<path d="M37.3715 75.8757L36.0222 82.7855L36.0173 82.8202H33.929L33.9389 82.7855L35.2831 75.8757H37.3715Z" fill="#405261"/>
<path d="M43.944 75.8757L42.5997 82.7855L42.5947 82.8202H40.5015L40.5064 82.7855L41.8507 75.8757H43.944Z" fill="#405261"/>
<path d="M50.5162 75.8757L49.167 82.7855L49.162 82.8202H47.0737L47.0787 82.7855L48.423 75.8757H50.5162Z" fill="#405261"/>
<path d="M57.084 75.8757L55.7398 82.7855L55.7348 82.8202H53.6465L53.6514 82.7855L54.9957 75.8757H57.084Z" fill="#405261"/>
<path d="M63.6615 75.8757L62.3123 82.7855L62.3073 82.8202H60.219L60.224 82.7855L61.5682 75.8757H63.6615Z" fill="#405261"/>
<path d="M70.2289 75.8757L68.8846 82.7855L68.8796 82.8202H66.7864L66.7913 82.7855L68.1406 75.8757H70.2289Z" fill="#405261"/>
<path d="M74.7032 76.6743L75.3827 82.8203H73.3738L74.7032 76.6743Z" fill="#405261"/>
<path d="M20.5208 153.754L19.752 146.809H82.4561L83.22 153.754H20.5208Z" fill="#1265E5"/>
<path opacity="0.2" d="M20.5208 153.754L19.752 146.809H82.4561L83.22 153.754H20.5208Z" fill="white"/>
<path d="M77.4761 153.754L78.8203 146.844L78.8253 146.809H80.9186L80.9136 146.844L79.5644 153.754H77.4761Z" fill="#405261"/>
<path d="M70.9036 153.754L72.2528 146.844L72.2578 146.809H74.3461L74.3411 146.844L72.9968 153.754H70.9036Z" fill="#405261"/>
<path d="M64.3359 153.754L65.6802 146.844L65.6852 146.809H67.7784L67.7735 146.844L66.4243 153.754H64.3359Z" fill="#405261"/>
<path d="M57.7637 153.754L59.1129 146.844L59.1179 146.809H61.2012L61.1963 146.844L59.852 153.754H57.7637Z" fill="#405261"/>
<path d="M51.1912 153.754L52.5354 146.844L52.5404 146.809H54.6337L54.6287 146.844L53.2795 153.754H51.1912Z" fill="#405261"/>
<path d="M44.6184 153.754L45.9676 146.844L45.9726 146.809H48.0609L48.0559 146.844L46.7117 153.754H44.6184Z" fill="#405261"/>
<path d="M38.051 153.754L39.3953 146.844L39.4002 146.809H41.4886L41.4836 146.844L40.1344 153.754H38.051Z" fill="#405261"/>
<path d="M31.4736 153.754L32.8179 146.844L32.8278 146.809H34.9161L34.9112 146.844L33.5669 153.754H31.4736Z" fill="#405261"/>
<path d="M24.906 153.754L26.2503 146.844L26.2552 146.809H28.3485L28.3386 146.844L26.9943 153.754H24.906Z" fill="#405261"/>
<path d="M20.4315 152.955L19.752 146.809H21.7609L20.4315 152.955Z" fill="#405261"/>
<path d="M36.1164 103.733L30.9824 115.837L32.2622 130.256L25.2979 140.857H26.7909L34.4894 131.367L35.5708 122.072L42.0292 131.432L41.3546 140.857H42.9171L44.559 129.378L38.7603 117.275L43.1354 109.095L36.1164 103.733Z" fill="#1265E5"/>
<path d="M38.9438 107.126C38.9438 107.126 39.9657 101.843 42.0342 101.342C42.7683 101.164 45.3576 103.664 45.3427 105.425C45.3279 107.186 39.7722 108.198 39.7722 108.198L38.9438 107.126Z" fill="#1265E5"/>
<path d="M36.1164 103.733C36.1164 103.733 29.8217 103.237 28.9437 103.49C28.0657 103.743 28.7254 110.197 28.7254 110.197L29.7671 110.479C29.7671 110.479 29.7026 105.167 30.0201 105.172C30.3375 105.177 35.7592 106.734 35.7592 106.734L36.1164 103.733Z" fill="#1265E5"/>
<path d="M43.1404 109.08C43.8498 109.606 41.6523 118.56 41.6523 118.56L43.8101 123.252L43.314 123.565C43.314 123.565 40.2039 119.596 39.8418 118.728C39.1076 117.012 40.4569 111.154 40.4569 111.154L43.1404 109.08Z" fill="#1265E5"/>
<path d="M52.8528 132.077L53.3786 131.343L22.2472 103.054L21.7214 103.783L52.8528 132.077Z" fill="#1265E5"/>
<path d="M53.2544 129.478L51.4092 131.794C51.4092 131.794 54.0084 134.602 56.1662 134.438C56.1662 134.438 56.1414 132.369 53.2544 129.478Z" fill="#1265E5"/>
<path d="M43.3535 122.841C43.3535 122.841 45.159 123.371 45.0797 123.857C45.0003 124.344 44.7275 125.098 44.4199 125.137C44.1124 125.177 43.2939 123.565 43.2939 123.565L43.3535 122.841Z" fill="#1265E5"/>
<path d="M28.8097 109.606C28.8097 109.606 28.522 110.45 29.4496 111.397C30.3772 112.344 30.779 111.397 30.779 111.397L28.8097 109.606Z" fill="#1265E5"/>
<path d="M22.6787 140.857H75.9829L73.0662 139.468C73.0662 139.468 70.2239 134.552 68.6813 133.436C67.1386 132.32 64.0334 129.661 63.0314 129.468C62.0294 129.274 61.6623 127.31 60.695 127.31C59.7278 127.31 54.9063 134.423 54.9063 134.423C54.4176 135.164 53.7661 135.783 53.0015 136.234C51.9549 136.73 50.1989 139.443 50.1989 139.443C50.1989 139.443 34.3802 139.865 22.6787 140.857Z" fill="#1265E5"/>
<g opacity="0.2">
<path opacity="0.2" d="M36.1164 103.733L30.9824 115.836L32.2622 130.256L25.2979 140.857H26.7909L34.4894 131.367L35.5708 122.072L42.0292 131.432L41.3546 140.857H42.9171L44.559 129.378L38.7603 117.275L43.1354 109.095L36.1164 103.733Z" fill="#1D2B36"/>
<path opacity="0.2" d="M38.9438 107.126C38.9438 107.126 39.9657 101.843 42.0342 101.342C42.7683 101.164 45.3576 103.664 45.3427 105.425C45.3279 107.186 39.7722 108.198 39.7722 108.198L38.9438 107.126Z" fill="#1D2B36"/>
<path opacity="0.2" d="M36.1164 103.733C36.1164 103.733 29.8217 103.237 28.9437 103.49C28.0657 103.743 28.7254 110.197 28.7254 110.197L29.7671 110.479C29.7671 110.479 29.7026 105.167 30.0201 105.172C30.3375 105.177 35.7592 106.734 35.7592 106.734L36.1164 103.733Z" fill="#1D2B36"/>
<path opacity="0.2" d="M43.1402 109.08C43.8495 109.606 41.6521 118.56 41.6521 118.56L43.8098 123.252L43.3138 123.565C43.3138 123.565 40.2036 119.596 39.8415 118.728C39.1074 117.012 40.4566 111.154 40.4566 111.154L43.1402 109.08Z" fill="#1D2B36"/>
<path opacity="0.2" d="M52.8528 132.077L53.3786 131.343L22.2472 103.054L21.7214 103.783L52.8528 132.077Z" fill="#1D2B36"/>
<path opacity="0.2" d="M53.2547 129.478L51.4094 131.794C51.4094 131.794 54.0087 134.602 56.1664 134.438C56.1664 134.438 56.1416 132.369 53.2547 129.478Z" fill="#1D2B36"/>
<path opacity="0.2" d="M43.3537 122.841C43.3537 122.841 45.1593 123.371 45.0799 123.857C45.0006 124.344 44.7277 125.097 44.4202 125.137C44.1126 125.177 43.2942 123.565 43.2942 123.565L43.3537 122.841Z" fill="#1D2B36"/>
<path opacity="0.2" d="M28.8097 109.606C28.8097 109.606 28.522 110.45 29.4496 111.397C30.3772 112.344 30.779 111.397 30.779 111.397L28.8097 109.606Z" fill="#1D2B36"/>
<path opacity="0.2" d="M22.6787 140.857H75.9829L73.0662 139.468C73.0662 139.468 70.2239 134.552 68.6813 133.436C67.1386 132.32 64.0334 129.661 63.0314 129.468C62.0294 129.274 61.6623 127.31 60.695 127.31C59.7278 127.31 54.9063 134.423 54.9063 134.423C54.4176 135.164 53.7661 135.783 53.0015 136.234C51.9549 136.73 50.1989 139.443 50.1989 139.443C50.1989 139.443 34.3802 139.865 22.6787 140.857Z" fill="#1D2B36"/>
</g>
<path d="M101.965 167.147L97.0646 173.441L95.3086 173.174L100.477 167.147H101.965Z" fill="#1265E5"/>
<path opacity="0.3" d="M101.965 167.147L97.0646 173.441L95.3086 173.174L100.477 167.147H101.965Z" fill="#1D2B36"/>
<path d="M100.477 161.194L95.5763 167.489L93.8203 167.221L98.989 161.194H100.477Z" fill="#1265E5"/>
<path opacity="0.3" d="M100.477 161.194L95.5763 167.489L93.8203 167.221L98.989 161.194H100.477Z" fill="#1D2B36"/>
<path d="M86.3844 157.97H65.2185L70.1838 171.08H91.3498L86.3844 157.97Z" fill="#1265E5"/>
<path opacity="0.3" d="M86.3844 157.97H65.2185L70.1838 171.08H91.3498L86.3844 157.97Z" fill="#1D2B36"/>
<path d="M102.819 166.12H69.1921V167.811H102.819V166.12Z" fill="#1265E5"/>
<path opacity="0.2" d="M82.099 166.12H69.1921V167.811H82.099V166.12Z" fill="#1D2B36"/>
<path d="M100.834 161.155H67.2078V162.846H100.834V161.155Z" fill="#1265E5"/>
<path opacity="0.2" d="M80.1147 161.155H67.2078V162.846H80.1147V161.155Z" fill="#1D2B36"/>
<path d="M65.2532 158.059L64.0776 159.423L68.542 171.115H70.288L65.2532 158.059Z" fill="#1265E5"/>
<path d="M111.296 164.914L113.567 165.48C113.481 164.865 113.22 164.287 112.816 163.815C112.411 163.343 111.88 162.996 111.286 162.816C110.576 162.653 109.832 162.75 109.188 163.09C108.545 163.429 108.044 163.989 107.779 164.666C107.583 165.137 107.53 165.654 107.625 166.155L93.9293 174.399C92.3222 173.05 90.4224 174.066 89.6386 175.163L91.9005 175.713C92.0309 175.742 92.1542 175.796 92.2631 175.873C92.3719 175.951 92.4641 176.049 92.534 176.163C92.6039 176.276 92.6502 176.403 92.6701 176.535C92.6899 176.667 92.6829 176.801 92.6496 176.931C92.6162 177.06 92.5571 177.181 92.4757 177.287C92.3944 177.393 92.2926 177.481 92.1764 177.547C92.0601 177.612 91.9319 177.654 91.7992 177.668C91.6666 177.683 91.5324 177.671 91.4045 177.633L89.1426 177.067C89.2305 177.682 89.4919 178.259 89.896 178.731C90.3001 179.203 90.8302 179.55 91.4244 179.731C92.1322 179.91 92.8807 179.828 93.5335 179.501C94.1863 179.175 94.7 178.624 94.9809 177.95C95.1886 177.514 95.2595 177.024 95.1843 176.547L108.88 168.302C110.229 169.225 112.352 168.555 113.121 167.459L110.834 166.864C110.706 166.834 110.584 166.778 110.477 166.7C110.37 166.623 110.28 166.524 110.211 166.411C110.143 166.298 110.098 166.172 110.079 166.041C110.06 165.91 110.067 165.777 110.1 165.649C110.161 165.393 110.322 165.172 110.546 165.034C110.77 164.896 111.04 164.853 111.296 164.914Z" fill="#1265E5"/>
<path opacity="0.6" d="M111.296 164.914L113.567 165.48C113.481 164.865 113.22 164.287 112.816 163.815C112.411 163.343 111.88 162.996 111.286 162.816C110.576 162.653 109.832 162.75 109.188 163.09C108.545 163.429 108.044 163.989 107.779 164.666C107.583 165.137 107.53 165.654 107.625 166.155L93.9293 174.399C92.3222 173.05 90.4224 174.066 89.6386 175.163L91.9005 175.713C92.0309 175.742 92.1542 175.796 92.2631 175.873C92.3719 175.951 92.4641 176.049 92.534 176.163C92.6039 176.276 92.6502 176.403 92.6701 176.535C92.6899 176.667 92.6829 176.801 92.6496 176.931C92.6162 177.06 92.5571 177.181 92.4757 177.287C92.3944 177.393 92.2926 177.481 92.1764 177.547C92.0601 177.612 91.9319 177.654 91.7992 177.668C91.6666 177.683 91.5324 177.671 91.4045 177.633L89.1426 177.067C89.2305 177.682 89.4919 178.259 89.896 178.731C90.3001 179.203 90.8302 179.55 91.4244 179.731C92.1322 179.91 92.8807 179.828 93.5335 179.501C94.1863 179.175 94.7 178.624 94.9809 177.95C95.1886 177.514 95.2595 177.024 95.1843 176.547L108.88 168.302C110.229 169.225 112.352 168.555 113.121 167.459L110.834 166.864C110.706 166.834 110.584 166.778 110.477 166.7C110.37 166.623 110.28 166.524 110.211 166.411C110.143 166.298 110.098 166.172 110.079 166.041C110.06 165.91 110.067 165.777 110.1 165.649C110.161 165.393 110.322 165.172 110.546 165.034C110.77 164.896 111.04 164.853 111.296 164.914Z" fill="white"/>
<path d="M106.792 171.08H70.1841V181.77H106.792V171.08Z" fill="#1265E5"/>
<path opacity="0.2" d="M84.5791 171.08H70.1841V181.77H84.5791V171.08Z" fill="#1D2B36"/>
<path d="M57.3268 179.052L55.675 177.395C55.4291 177.968 55.3526 178.6 55.4546 179.215C55.5565 179.83 55.8327 180.404 56.2504 180.867C56.775 181.374 57.4645 181.676 58.193 181.717C58.9215 181.758 59.6405 181.535 60.2187 181.09C60.6271 180.787 60.939 180.372 61.1165 179.895L77.0989 179.92C77.7784 181.904 79.9312 182.018 81.1713 181.482L79.5146 179.84C79.3313 179.655 79.2285 179.404 79.2285 179.143C79.2285 178.882 79.3313 178.632 79.5146 178.446C79.7004 178.262 79.9519 178.158 80.214 178.158C80.4761 178.158 80.7275 178.262 80.9134 178.446L82.5702 180.103C82.8154 179.529 82.8911 178.897 82.7882 178.282C82.6854 177.667 82.4083 177.094 81.9898 176.631C81.4764 176.11 80.7927 175.792 80.0639 175.735C79.3351 175.678 78.61 175.885 78.0215 176.318C77.6171 176.586 77.3039 176.97 77.1237 177.42L61.1364 177.395C60.4568 175.907 58.3089 175.411 57.0688 175.907L58.7207 177.598C58.8144 177.69 58.8888 177.801 58.9396 177.922C58.9904 178.043 59.0166 178.173 59.0166 178.305C59.0166 178.437 58.9904 178.567 58.9396 178.688C58.8888 178.81 58.8144 178.92 58.7207 179.012C58.5403 179.201 58.2928 179.31 58.0319 179.318C57.771 179.325 57.5176 179.23 57.3268 179.052Z" fill="#1265E5"/>
<path opacity="0.6" d="M57.3268 179.052L55.675 177.395C55.4291 177.968 55.3526 178.6 55.4546 179.215C55.5565 179.83 55.8327 180.404 56.2504 180.867C56.775 181.374 57.4645 181.676 58.193 181.717C58.9215 181.758 59.6405 181.535 60.2187 181.09C60.6271 180.787 60.939 180.372 61.1165 179.895L77.0989 179.92C77.7784 181.904 79.9312 182.018 81.1713 181.482L79.5146 179.84C79.3313 179.655 79.2285 179.404 79.2285 179.143C79.2285 178.882 79.3313 178.632 79.5146 178.446C79.7004 178.262 79.9519 178.158 80.214 178.158C80.4761 178.158 80.7275 178.262 80.9134 178.446L82.5702 180.103C82.8154 179.529 82.8911 178.897 82.7882 178.282C82.6854 177.667 82.4083 177.094 81.9898 176.631C81.4764 176.11 80.7927 175.792 80.0639 175.735C79.3351 175.678 78.61 175.885 78.0215 176.318C77.6171 176.586 77.3039 176.97 77.1237 177.42L61.1364 177.395C60.4568 175.907 58.3089 175.411 57.0688 175.907L58.7207 177.598C58.8144 177.69 58.8888 177.801 58.9396 177.922C58.9904 178.043 59.0166 178.173 59.0166 178.305C59.0166 178.437 58.9904 178.567 58.9396 178.688C58.8888 178.81 58.8144 178.92 58.7207 179.012C58.5403 179.201 58.2928 179.31 58.0319 179.318C57.771 179.325 57.5176 179.23 57.3268 179.052Z" fill="white"/>
</svg>
