<svg width="296" height="220" viewBox="0 0 296 220" fill="none" xmlns="http://www.w3.org/2000/svg">
<path d="M295.254 193.333H0V193.48H295.254V193.333Z" fill="#EBEBEB"/>
<path d="M265.67 202.834H246.112V202.982H265.67V202.834Z" fill="#EBEBEB"/>
<path d="M195.588 204.44H190.457V204.588H195.588V204.44Z" fill="#EBEBEB"/>
<path d="M245.522 197.354H234.19V197.502H245.522V197.354Z" fill="#EBEBEB"/>
<path d="M56.4821 198.346H30.978V198.494H56.4821V198.346Z" fill="#EBEBEB"/>
<path d="M65.4816 198.346H61.7437V198.494H65.4816V198.346Z" fill="#EBEBEB"/>
<path d="M132.953 200.838H77.6343V200.986H132.953V200.838Z" fill="#EBEBEB"/>
<path d="M139.951 166.996H25.9294C25.0361 166.994 24.18 166.638 23.549 166.006C22.9179 165.374 22.5635 164.517 22.5635 163.624V3.34228C22.5713 2.45417 22.9291 1.60499 23.5593 0.979193C24.1896 0.353395 25.0412 0.00152138 25.9294 0H139.951C140.845 0 141.703 0.355243 142.335 0.987579C142.967 1.61992 143.323 2.47755 143.323 3.37181V163.624C143.323 164.518 142.967 165.376 142.335 166.008C141.703 166.641 140.845 166.996 139.951 166.996ZM25.9294 0.118102C25.0753 0.119666 24.2567 0.460045 23.6534 1.06453C23.05 1.66901 22.7111 2.4882 22.7111 3.34228V163.624C22.7111 164.478 23.05 165.297 23.6534 165.902C24.2567 166.506 25.0753 166.847 25.9294 166.848H139.951C140.805 166.847 141.625 166.507 142.229 165.902C142.833 165.298 143.173 164.479 143.175 163.624V3.34228C143.173 2.48765 142.833 1.66848 142.229 1.06417C141.625 0.459853 140.805 0.119663 139.951 0.118102H25.9294Z" fill="#EBEBEB"/>
<path d="M267.684 166.996H153.656C152.763 166.994 151.906 166.639 151.274 166.007C150.642 165.375 150.286 164.518 150.285 163.624V3.34228C150.294 2.45363 150.653 1.60446 151.284 0.978823C151.915 0.353189 152.768 0.00150479 153.656 0H267.684C268.571 0.0030733 269.421 0.355633 270.05 0.981265C270.679 1.6069 271.036 2.45519 271.044 3.34228V163.624C271.044 164.516 270.69 165.372 270.06 166.004C269.431 166.636 268.576 166.993 267.684 166.996ZM153.656 0.118102C152.802 0.119663 151.983 0.459853 151.378 1.06417C150.774 1.66848 150.434 2.48765 150.432 3.34228V163.624C150.434 164.479 150.774 165.298 151.378 165.902C151.983 166.507 152.802 166.847 153.656 166.848H267.684C268.538 166.847 269.358 166.507 269.962 165.902C270.566 165.298 270.906 164.479 270.908 163.624V3.34228C270.906 2.48765 270.566 1.66848 269.962 1.06417C269.358 0.459853 268.538 0.119663 267.684 0.118102H153.656Z" fill="#EBEBEB"/>
<path d="M102.749 53.7364V9.44818H34.8401V187.782H43.6977V21.8902L75.6915 18.3058L75.8332 18.4593L75.9809 18.2763L91.8773 16.5048L92.0545 16.6996L92.2435 16.4634L100.977 15.4655V53.7364H91.529V58.4604H111.606V53.7364H102.749ZM57.0196 12.5365L62.3342 18.0165L51.3743 19.2447L57.0196 12.5365ZM49.8508 18.3058L44.678 11.2197H55.815L49.8508 18.3058ZM58.2065 11.2197H69.0896L63.8459 17.0008L58.2065 11.2197ZM100.977 11.9638V13.6821L99.5953 13.8357L100.977 11.9638ZM98.06 12.9381L96.4715 11.2197H99.3237L98.06 12.9381ZM94.139 11.2197L91.96 13.9538L89.4622 11.2197H94.139ZM87.1297 11.2197L84.5019 14.5207L81.6202 11.2197H87.1297ZM79.3113 11.2197L75.721 15.743L71.4871 11.2197H79.3113ZM43.6977 12.879L48.593 19.5577L43.6977 20.1069V12.879ZM65.641 17.6444L70.2706 12.5247L74.168 16.6878L65.641 17.6444ZM80.4746 12.6015L83.1673 15.6781L77.5339 16.3099L80.4746 12.6015ZM86.1081 15.3533L88.3107 12.5897L90.4011 14.875L86.1081 15.3533ZM95.32 12.5838L96.7727 14.1723L93.8201 14.5029L95.32 12.5838Z" fill="#E0E0E0"/>
<path d="M82.6711 62.594H70.2704V56.6889H68.4989V62.594H56.6887V51.3743H54.3267V174.791H85.0331V54.9174H82.6711V62.594ZM68.4989 72.0421H56.6887V65.5465H68.4989V72.0421ZM82.6711 72.0421H70.2704V65.5465H82.6711V72.0421Z" fill="#E0E0E0"/>
<path d="M267.483 193.096V162.886H264.902V148.489H261.123V98.4378H255.661V91.9777L244.01 86.5391V80.0317H242.392V98.4378H240.13V148.489H237.875V122.17H231.739V108.606H230.027V148.489H225.368V133.313H222.297V129.434H215.193V116.194H211.302V106.829H206.519V93.1882H204.812V106.829H200.029V116.194H196.137V129.434H189.034V133.313H185.969V148.489H182.331V129.434H175.228V88.4287H172.966V83.9054H157.79V88.4287H154.56V118.137H141.639V121.043H136.797V123.304H141.639V134.925H128.081V96.1762H125.17V87.9386H118.875V58.7143H117.098V87.9386H112.58V96.1762H86.0725V93.4657H84.4604V111.872H82.1988V112.197H80.8406V130.603H78.5789V135.604H73.8017V122.046H72.0893V154.335H70.1878V140.771H68.4753V161.923H67.4301V146.747H64.3654V142.874H57.2616V129.634H53.3701V120.269H48.587V106.622H46.8804V120.269H42.0973V129.634H38.2058V142.874H31.102V146.747H28.0373V161.605H27.4822V161.923H25.9646V193.096H267.483Z" fill="#EBEBEB"/>
<path d="M102.695 97.989H100.865V99.8196H102.695V97.989Z" fill="#F5F5F5"/>
<path d="M102.695 101.054H100.865V102.884H102.695V101.054Z" fill="#F5F5F5"/>
<path d="M102.695 113.325H100.865V115.155H102.695V113.325Z" fill="#F5F5F5"/>
<path d="M102.695 116.395H100.865V118.226H102.695V116.395Z" fill="#F5F5F5"/>
<path d="M102.695 119.46H100.865V121.291H102.695V119.46Z" fill="#F5F5F5"/>
<path d="M102.695 128.666H100.865V130.497H102.695V128.666Z" fill="#F5F5F5"/>
<path d="M102.695 131.731H100.865V133.561H102.695V131.731Z" fill="#F5F5F5"/>
<path d="M105.601 110.26H103.77V112.09H105.601V110.26Z" fill="#F5F5F5"/>
<path d="M105.601 113.325H103.77V115.155H105.601V113.325Z" fill="#F5F5F5"/>
<path d="M105.601 116.395H103.77V118.226H105.601V116.395Z" fill="#F5F5F5"/>
<path d="M105.601 119.46H103.77V121.291H105.601V119.46Z" fill="#F5F5F5"/>
<path d="M105.601 122.531H103.77V124.361H105.601V122.531Z" fill="#F5F5F5"/>
<path d="M105.601 128.666H103.77V130.497H105.601V128.666Z" fill="#F5F5F5"/>
<path d="M105.601 131.731H103.77V133.561H105.601V131.731Z" fill="#F5F5F5"/>
<path d="M108.506 97.989H106.676V99.8196H108.506V97.989Z" fill="#F5F5F5"/>
<path d="M108.506 101.054H106.676V102.884H108.506V101.054Z" fill="#F5F5F5"/>
<path d="M108.506 104.124H106.676V105.955H108.506V104.124Z" fill="#F5F5F5"/>
<path d="M108.506 107.189H106.676V109.02H108.506V107.189Z" fill="#F5F5F5"/>
<path d="M108.506 110.26H106.676V112.09H108.506V110.26Z" fill="#F5F5F5"/>
<path d="M108.506 113.325H106.676V115.155H108.506V113.325Z" fill="#F5F5F5"/>
<path d="M108.506 116.395H106.676V118.226H108.506V116.395Z" fill="#F5F5F5"/>
<path d="M108.506 119.46H106.676V121.291H108.506V119.46Z" fill="#F5F5F5"/>
<path d="M108.506 122.531H106.676V124.361H108.506V122.531Z" fill="#F5F5F5"/>
<path d="M108.506 125.595H106.676V127.426H108.506V125.595Z" fill="#F5F5F5"/>
<path d="M108.506 131.731H106.676V133.561H108.506V131.731Z" fill="#F5F5F5"/>
<path d="M111.411 97.989H109.581V99.8196H111.411V97.989Z" fill="#F5F5F5"/>
<path d="M111.411 101.054H109.581V102.884H111.411V101.054Z" fill="#F5F5F5"/>
<path d="M111.411 104.124H109.581V105.955H111.411V104.124Z" fill="#F5F5F5"/>
<path d="M111.411 107.189H109.581V109.02H111.411V107.189Z" fill="#F5F5F5"/>
<path d="M111.411 110.26H109.581V112.09H111.411V110.26Z" fill="#F5F5F5"/>
<path d="M111.411 113.325H109.581V115.155H111.411V113.325Z" fill="#F5F5F5"/>
<path d="M111.411 116.395H109.581V118.226H111.411V116.395Z" fill="#F5F5F5"/>
<path d="M111.411 144.002H109.581V145.832H111.411V144.002Z" fill="#F5F5F5"/>
<path d="M114.317 97.989H112.486V99.8196H114.317V97.989Z" fill="#F5F5F5"/>
<path d="M114.317 101.054H112.486V102.884H114.317V101.054Z" fill="#F5F5F5"/>
<path d="M114.317 104.124H112.486V105.955H114.317V104.124Z" fill="#F5F5F5"/>
<path d="M114.317 107.189H112.486V109.02H114.317V107.189Z" fill="#F5F5F5"/>
<path d="M114.317 110.26H112.486V112.09H114.317V110.26Z" fill="#F5F5F5"/>
<path d="M114.317 113.325H112.486V115.155H114.317V113.325Z" fill="#F5F5F5"/>
<path d="M114.317 116.395H112.486V118.226H114.317V116.395Z" fill="#F5F5F5"/>
<path d="M114.317 119.46H112.486V121.291H114.317V119.46Z" fill="#F5F5F5"/>
<path d="M114.317 137.866H112.486V139.697H114.317V137.866Z" fill="#F5F5F5"/>
<path d="M114.317 140.937H112.486V142.767H114.317V140.937Z" fill="#F5F5F5"/>
<path d="M114.317 144.002H112.486V145.832H114.317V144.002Z" fill="#F5F5F5"/>
<path d="M114.317 147.072H112.486V148.903H114.317V147.072Z" fill="#F5F5F5"/>
<path d="M114.317 159.343H112.486V161.173H114.317V159.343Z" fill="#F5F5F5"/>
<path d="M117.228 97.989H115.397V99.8196H117.228V97.989Z" fill="#F5F5F5"/>
<path d="M117.228 101.054H115.397V102.884H117.228V101.054Z" fill="#F5F5F5"/>
<path d="M117.228 104.124H115.397V105.955H117.228V104.124Z" fill="#F5F5F5"/>
<path d="M117.228 107.189H115.397V109.02H117.228V107.189Z" fill="#F5F5F5"/>
<path d="M117.228 110.26H115.397V112.09H117.228V110.26Z" fill="#F5F5F5"/>
<path d="M117.228 113.325H115.397V115.155H117.228V113.325Z" fill="#F5F5F5"/>
<path d="M117.228 116.395H115.397V118.226H117.228V116.395Z" fill="#F5F5F5"/>
<path d="M117.228 119.46H115.397V121.291H117.228V119.46Z" fill="#F5F5F5"/>
<path d="M117.228 122.531H115.397V124.361H117.228V122.531Z" fill="#F5F5F5"/>
<path d="M117.228 125.595H115.397V127.426H117.228V125.595Z" fill="#F5F5F5"/>
<path d="M117.228 134.801H115.397V136.632H117.228V134.801Z" fill="#F5F5F5"/>
<path d="M117.228 137.866H115.397V139.697H117.228V137.866Z" fill="#F5F5F5"/>
<path d="M117.228 140.937H115.397V142.767H117.228V140.937Z" fill="#F5F5F5"/>
<path d="M117.228 144.002H115.397V145.832H117.228V144.002Z" fill="#F5F5F5"/>
<path d="M117.228 147.072H115.397V148.903H117.228V147.072Z" fill="#F5F5F5"/>
<path d="M117.228 159.343H115.397V161.173H117.228V159.343Z" fill="#F5F5F5"/>
<path d="M120.133 97.989H118.303V99.8196H120.133V97.989Z" fill="#F5F5F5"/>
<path d="M120.133 101.054H118.303V102.884H120.133V101.054Z" fill="#F5F5F5"/>
<path d="M120.133 104.124H118.303V105.955H120.133V104.124Z" fill="#F5F5F5"/>
<path d="M120.133 107.189H118.303V109.02H120.133V107.189Z" fill="#F5F5F5"/>
<path d="M120.133 110.26H118.303V112.09H120.133V110.26Z" fill="#F5F5F5"/>
<path d="M120.133 113.325H118.303V115.155H120.133V113.325Z" fill="#F5F5F5"/>
<path d="M120.133 116.395H118.303V118.226H120.133V116.395Z" fill="#F5F5F5"/>
<path d="M120.133 119.46H118.303V121.291H120.133V119.46Z" fill="#F5F5F5"/>
<path d="M120.133 122.531H118.303V124.361H120.133V122.531Z" fill="#F5F5F5"/>
<path d="M120.133 125.595H118.303V127.426H120.133V125.595Z" fill="#F5F5F5"/>
<path d="M120.133 128.666H118.303V130.497H120.133V128.666Z" fill="#F5F5F5"/>
<path d="M120.133 131.731H118.303V133.561H120.133V131.731Z" fill="#F5F5F5"/>
<path d="M120.133 134.801H118.303V136.632H120.133V134.801Z" fill="#F5F5F5"/>
<path d="M120.133 137.866H118.303V139.697H120.133V137.866Z" fill="#F5F5F5"/>
<path d="M120.133 140.937H118.303V142.767H120.133V140.937Z" fill="#F5F5F5"/>
<path d="M120.133 144.002H118.303V145.832H120.133V144.002Z" fill="#F5F5F5"/>
<path d="M120.133 147.072H118.303V148.903H120.133V147.072Z" fill="#F5F5F5"/>
<path d="M120.133 150.137H118.303V151.967H120.133V150.137Z" fill="#F5F5F5"/>
<path d="M123.038 97.989H121.208V99.8196H123.038V97.989Z" fill="#F5F5F5"/>
<path d="M123.038 101.054H121.208V102.884H123.038V101.054Z" fill="#F5F5F5"/>
<path d="M123.038 104.124H121.208V105.955H123.038V104.124Z" fill="#F5F5F5"/>
<path d="M123.038 107.189H121.208V109.02H123.038V107.189Z" fill="#F5F5F5"/>
<path d="M123.038 110.26H121.208V112.09H123.038V110.26Z" fill="#F5F5F5"/>
<path d="M123.038 113.325H121.208V115.155H123.038V113.325Z" fill="#F5F5F5"/>
<path d="M123.038 116.395H121.208V118.226H123.038V116.395Z" fill="#F5F5F5"/>
<path d="M123.038 119.46H121.208V121.291H123.038V119.46Z" fill="#F5F5F5"/>
<path d="M123.038 122.531H121.208V124.361H123.038V122.531Z" fill="#F5F5F5"/>
<path d="M123.038 125.595H121.208V127.426H123.038V125.595Z" fill="#F5F5F5"/>
<path d="M123.038 134.801H121.208V136.632H123.038V134.801Z" fill="#F5F5F5"/>
<path d="M123.038 137.866H121.208V139.697H123.038V137.866Z" fill="#F5F5F5"/>
<path d="M123.038 140.937H121.208V142.767H123.038V140.937Z" fill="#F5F5F5"/>
<path d="M123.038 144.002H121.208V145.832H123.038V144.002Z" fill="#F5F5F5"/>
<path d="M125.944 97.989H124.113V99.8196H125.944V97.989Z" fill="#F5F5F5"/>
<path d="M125.944 101.054H124.113V102.884H125.944V101.054Z" fill="#F5F5F5"/>
<path d="M125.944 104.124H124.113V105.955H125.944V104.124Z" fill="#F5F5F5"/>
<path d="M125.944 107.189H124.113V109.02H125.944V107.189Z" fill="#F5F5F5"/>
<path d="M125.944 110.26H124.113V112.09H125.944V110.26Z" fill="#F5F5F5"/>
<path d="M125.944 113.325H124.113V115.155H125.944V113.325Z" fill="#F5F5F5"/>
<path d="M125.944 116.395H124.113V118.226H125.944V116.395Z" fill="#F5F5F5"/>
<path d="M125.944 119.46H124.113V121.291H125.944V119.46Z" fill="#F5F5F5"/>
<path d="M125.944 122.531H124.113V124.361H125.944V122.531Z" fill="#F5F5F5"/>
<path d="M125.944 125.595H124.113V127.426H125.944V125.595Z" fill="#F5F5F5"/>
<path d="M125.944 134.801H124.113V136.632H125.944V134.801Z" fill="#F5F5F5"/>
<path d="M125.944 137.866H124.113V139.697H125.944V137.866Z" fill="#F5F5F5"/>
<path d="M125.944 140.937H124.113V142.767H125.944V140.937Z" fill="#F5F5F5"/>
<path d="M158.664 90.0231H156.833V91.8537H158.664V90.0231Z" fill="#F5F5F5"/>
<path d="M158.664 93.0878H156.833V94.9184H158.664V93.0878Z" fill="#F5F5F5"/>
<path d="M158.664 96.1585H156.833V97.9891H158.664V96.1585Z" fill="#F5F5F5"/>
<path d="M158.664 99.2233H156.833V101.054H158.664V99.2233Z" fill="#F5F5F5"/>
<path d="M158.664 102.294H156.833V104.124H158.664V102.294Z" fill="#F5F5F5"/>
<path d="M158.664 105.359H156.833V107.189H158.664V105.359Z" fill="#F5F5F5"/>
<path d="M158.664 108.429H156.833V110.26H158.664V108.429Z" fill="#F5F5F5"/>
<path d="M158.664 111.494H156.833V113.325H158.664V111.494Z" fill="#F5F5F5"/>
<path d="M158.664 120.7H156.833V122.531H158.664V120.7Z" fill="#F5F5F5"/>
<path d="M158.664 123.765H156.833V125.595H158.664V123.765Z" fill="#F5F5F5"/>
<path d="M161.575 90.0231H159.744V91.8537H161.575V90.0231Z" fill="#F5F5F5"/>
<path d="M161.575 93.0878H159.744V94.9184H161.575V93.0878Z" fill="#F5F5F5"/>
<path d="M161.575 96.1585H159.744V97.9891H161.575V96.1585Z" fill="#F5F5F5"/>
<path d="M161.575 99.2233H159.744V101.054H161.575V99.2233Z" fill="#F5F5F5"/>
<path d="M161.575 102.294H159.744V104.124H161.575V102.294Z" fill="#F5F5F5"/>
<path d="M161.575 105.359H159.744V107.189H161.575V105.359Z" fill="#F5F5F5"/>
<path d="M161.575 108.429H159.744V110.26H161.575V108.429Z" fill="#F5F5F5"/>
<path d="M161.575 111.494H159.744V113.325H161.575V111.494Z" fill="#F5F5F5"/>
<path d="M161.575 123.765H159.744V125.595H161.575V123.765Z" fill="#F5F5F5"/>
<path d="M164.48 90.0231H162.65V91.8537H164.48V90.0231Z" fill="#F5F5F5"/>
<path d="M164.48 93.0878H162.65V94.9184H164.48V93.0878Z" fill="#F5F5F5"/>
<path d="M164.48 96.1585H162.65V97.9891H164.48V96.1585Z" fill="#F5F5F5"/>
<path d="M164.48 99.2233H162.65V101.054H164.48V99.2233Z" fill="#F5F5F5"/>
<path d="M164.48 102.294H162.65V104.124H164.48V102.294Z" fill="#F5F5F5"/>
<path d="M164.48 105.359H162.65V107.189H164.48V105.359Z" fill="#F5F5F5"/>
<path d="M164.48 108.429H162.65V110.26H164.48V108.429Z" fill="#F5F5F5"/>
<path d="M164.48 111.494H162.65V113.325H164.48V111.494Z" fill="#F5F5F5"/>
<path d="M167.386 90.0231H165.555V91.8537H167.386V90.0231Z" fill="#F5F5F5"/>
<path d="M167.386 93.0878H165.555V94.9184H167.386V93.0878Z" fill="#F5F5F5"/>
<path d="M167.386 96.1585H165.555V97.9891H167.386V96.1585Z" fill="#F5F5F5"/>
<path d="M167.386 99.2233H165.555V101.054H167.386V99.2233Z" fill="#F5F5F5"/>
<path d="M167.386 102.294H165.555V104.124H167.386V102.294Z" fill="#F5F5F5"/>
<path d="M167.386 105.359H165.555V107.189H167.386V105.359Z" fill="#F5F5F5"/>
<path d="M167.386 111.494H165.555V113.325H167.386V111.494Z" fill="#F5F5F5"/>
<path d="M167.386 114.565H165.555V116.395H167.386V114.565Z" fill="#F5F5F5"/>
<path d="M167.386 123.765H165.555V125.595H167.386V123.765Z" fill="#F5F5F5"/>
<path d="M167.386 126.835H165.555V128.666H167.386V126.835Z" fill="#F5F5F5"/>
<path d="M167.386 129.9H165.555V131.731H167.386V129.9Z" fill="#F5F5F5"/>
<path d="M167.386 132.971H165.555V134.801H167.386V132.971Z" fill="#F5F5F5"/>
<path d="M167.386 136.036H165.555V137.866H167.386V136.036Z" fill="#F5F5F5"/>
<path d="M167.386 139.106H165.555V140.937H167.386V139.106Z" fill="#F5F5F5"/>
<path d="M167.386 142.171H165.555V144.002H167.386V142.171Z" fill="#F5F5F5"/>
<path d="M170.291 90.0231H168.46V91.8537H170.291V90.0231Z" fill="#F5F5F5"/>
<path d="M170.291 93.0878H168.46V94.9184H170.291V93.0878Z" fill="#F5F5F5"/>
<path d="M170.291 96.1585H168.46V97.9891H170.291V96.1585Z" fill="#F5F5F5"/>
<path d="M170.291 99.2233H168.46V101.054H170.291V99.2233Z" fill="#F5F5F5"/>
<path d="M170.291 102.294H168.46V104.124H170.291V102.294Z" fill="#F5F5F5"/>
<path d="M170.291 105.359H168.46V107.189H170.291V105.359Z" fill="#F5F5F5"/>
<path d="M170.291 114.565H168.46V116.395H170.291V114.565Z" fill="#F5F5F5"/>
<path d="M170.291 117.629H168.46V119.46H170.291V117.629Z" fill="#F5F5F5"/>
<path d="M170.291 120.7H168.46V122.531H170.291V120.7Z" fill="#F5F5F5"/>
<path d="M170.291 123.765H168.46V125.595H170.291V123.765Z" fill="#F5F5F5"/>
<path d="M170.291 126.835H168.46V128.666H170.291V126.835Z" fill="#F5F5F5"/>
<path d="M170.291 129.9H168.46V131.731H170.291V129.9Z" fill="#F5F5F5"/>
<path d="M170.291 132.971H168.46V134.801H170.291V132.971Z" fill="#F5F5F5"/>
<path d="M170.291 136.036H168.46V137.866H170.291V136.036Z" fill="#F5F5F5"/>
<path d="M170.291 139.106H168.46V140.937H170.291V139.106Z" fill="#F5F5F5"/>
<path d="M170.291 142.171H168.46V144.002H170.291V142.171Z" fill="#F5F5F5"/>
<path d="M170.291 145.242H168.46V147.072H170.291V145.242Z" fill="#F5F5F5"/>
<path d="M170.291 151.377H168.46V153.208H170.291V151.377Z" fill="#F5F5F5"/>
<path d="M173.196 90.0231H171.366V91.8537H173.196V90.0231Z" fill="#F5F5F5"/>
<path d="M173.196 93.0878H171.366V94.9184H173.196V93.0878Z" fill="#F5F5F5"/>
<path d="M173.196 96.1585H171.366V97.9891H173.196V96.1585Z" fill="#F5F5F5"/>
<path d="M173.196 99.2233H171.366V101.054H173.196V99.2233Z" fill="#F5F5F5"/>
<path d="M173.196 102.294H171.366V104.124H173.196V102.294Z" fill="#F5F5F5"/>
<path d="M173.196 105.359H171.366V107.189H173.196V105.359Z" fill="#F5F5F5"/>
<path d="M173.196 114.565H171.366V116.395H173.196V114.565Z" fill="#F5F5F5"/>
<path d="M173.196 117.629H171.366V119.46H173.196V117.629Z" fill="#F5F5F5"/>
<path d="M173.196 120.7H171.366V122.531H173.196V120.7Z" fill="#F5F5F5"/>
<path d="M173.196 123.765H171.366V125.595H173.196V123.765Z" fill="#F5F5F5"/>
<path d="M173.196 132.971H171.366V134.801H173.196V132.971Z" fill="#F5F5F5"/>
<path d="M173.196 136.036H171.366V137.866H173.196V136.036Z" fill="#F5F5F5"/>
<path d="M173.196 139.106H171.366V140.937H173.196V139.106Z" fill="#F5F5F5"/>
<path d="M173.196 142.171H171.366V144.002H173.196V142.171Z" fill="#F5F5F5"/>
<path d="M173.196 145.242H171.366V147.072H173.196V145.242Z" fill="#F5F5F5"/>
<path d="M173.196 151.377H171.366V153.208H173.196V151.377Z" fill="#F5F5F5"/>
<path d="M173.196 154.442H171.366V156.272H173.196V154.442Z" fill="#F5F5F5"/>
<path d="M199.568 118.545H197.738V120.375H199.568V118.545Z" fill="#F5F5F5"/>
<path d="M199.568 121.615H197.738V123.446H199.568V121.615Z" fill="#F5F5F5"/>
<path d="M199.568 124.68H197.738V126.511H199.568V124.68Z" fill="#F5F5F5"/>
<path d="M199.568 127.751H197.738V129.581H199.568V127.751Z" fill="#F5F5F5"/>
<path d="M199.568 130.815H197.738V132.646H199.568V130.815Z" fill="#F5F5F5"/>
<path d="M199.568 133.886H197.738V135.717H199.568V133.886Z" fill="#F5F5F5"/>
<path d="M199.568 136.951H197.738V138.781H199.568V136.951Z" fill="#F5F5F5"/>
<path d="M199.568 146.157H197.738V147.987H199.568V146.157Z" fill="#F5F5F5"/>
<path d="M199.568 149.222H197.738V151.052H199.568V149.222Z" fill="#F5F5F5"/>
<path d="M199.568 152.292H197.738V154.123H199.568V152.292Z" fill="#F5F5F5"/>
<path d="M202.474 118.545H200.643V120.375H202.474V118.545Z" fill="#F5F5F5"/>
<path d="M202.474 121.615H200.643V123.446H202.474V121.615Z" fill="#F5F5F5"/>
<path d="M202.474 124.68H200.643V126.511H202.474V124.68Z" fill="#F5F5F5"/>
<path d="M202.474 127.751H200.643V129.581H202.474V127.751Z" fill="#F5F5F5"/>
<path d="M202.474 130.815H200.643V132.646H202.474V130.815Z" fill="#F5F5F5"/>
<path d="M202.474 133.886H200.643V135.717H202.474V133.886Z" fill="#F5F5F5"/>
<path d="M202.474 136.951H200.643V138.781H202.474V136.951Z" fill="#F5F5F5"/>
<path d="M205.385 118.545H203.554V120.375H205.385V118.545Z" fill="#F5F5F5"/>
<path d="M205.385 121.615H203.554V123.446H205.385V121.615Z" fill="#F5F5F5"/>
<path d="M205.385 124.68H203.554V126.511H205.385V124.68Z" fill="#F5F5F5"/>
<path d="M205.385 127.751H203.554V129.581H205.385V127.751Z" fill="#F5F5F5"/>
<path d="M205.385 130.815H203.554V132.646H205.385V130.815Z" fill="#F5F5F5"/>
<path d="M205.385 133.886H203.554V135.717H205.385V133.886Z" fill="#F5F5F5"/>
<path d="M205.385 136.951H203.554V138.781H205.385V136.951Z" fill="#F5F5F5"/>
<path d="M208.29 118.545H206.459V120.375H208.29V118.545Z" fill="#F5F5F5"/>
<path d="M208.29 121.615H206.459V123.446H208.29V121.615Z" fill="#F5F5F5"/>
<path d="M208.29 124.68H206.459V126.511H208.29V124.68Z" fill="#F5F5F5"/>
<path d="M208.29 127.751H206.459V129.581H208.29V127.751Z" fill="#F5F5F5"/>
<path d="M208.29 130.815H206.459V132.646H208.29V130.815Z" fill="#F5F5F5"/>
<path d="M208.29 133.886H206.459V135.717H208.29V133.886Z" fill="#F5F5F5"/>
<path d="M208.29 136.951H206.459V138.781H208.29V136.951Z" fill="#F5F5F5"/>
<path d="M208.29 140.021H206.459V141.852H208.29V140.021Z" fill="#F5F5F5"/>
<path d="M208.29 143.086H206.459V144.917H208.29V143.086Z" fill="#F5F5F5"/>
<path d="M208.29 146.157H206.459V147.987H208.29V146.157Z" fill="#F5F5F5"/>
<path d="M208.29 149.222H206.459V151.052H208.29V149.222Z" fill="#F5F5F5"/>
<path d="M211.196 118.545H209.365V120.375H211.196V118.545Z" fill="#F5F5F5"/>
<path d="M211.196 121.615H209.365V123.446H211.196V121.615Z" fill="#F5F5F5"/>
<path d="M211.196 124.68H209.365V126.511H211.196V124.68Z" fill="#F5F5F5"/>
<path d="M211.196 127.751H209.365V129.581H211.196V127.751Z" fill="#F5F5F5"/>
<path d="M211.196 130.815H209.365V132.646H211.196V130.815Z" fill="#F5F5F5"/>
<path d="M211.196 133.886H209.365V135.717H211.196V133.886Z" fill="#F5F5F5"/>
<path d="M211.196 136.951H209.365V138.781H211.196V136.951Z" fill="#F5F5F5"/>
<path d="M211.196 140.021H209.365V141.852H211.196V140.021Z" fill="#F5F5F5"/>
<path d="M211.196 143.086H209.365V144.917H211.196V143.086Z" fill="#F5F5F5"/>
<path d="M211.196 146.157H209.365V147.987H211.196V146.157Z" fill="#F5F5F5"/>
<path d="M211.196 149.222H209.365V151.052H211.196V149.222Z" fill="#F5F5F5"/>
<path d="M211.196 152.292H209.365V154.123H211.196V152.292Z" fill="#F5F5F5"/>
<path d="M211.196 161.492H209.365V163.323H211.196V161.492Z" fill="#F5F5F5"/>
<path d="M211.196 164.563H209.365V166.394H211.196V164.563Z" fill="#F5F5F5"/>
<path d="M214.101 118.545H212.27V120.375H214.101V118.545Z" fill="#F5F5F5"/>
<path d="M214.101 121.615H212.27V123.446H214.101V121.615Z" fill="#F5F5F5"/>
<path d="M214.101 124.68H212.27V126.511H214.101V124.68Z" fill="#F5F5F5"/>
<path d="M214.101 133.886H212.27V135.717H214.101V133.886Z" fill="#F5F5F5"/>
<path d="M214.101 136.951H212.27V138.781H214.101V136.951Z" fill="#F5F5F5"/>
<path d="M214.101 140.021H212.27V141.852H214.101V140.021Z" fill="#F5F5F5"/>
<path d="M214.101 143.086H212.27V144.917H214.101V143.086Z" fill="#F5F5F5"/>
<path d="M214.101 146.157H212.27V147.987H214.101V146.157Z" fill="#F5F5F5"/>
<path d="M214.101 149.222H212.27V151.052H214.101V149.222Z" fill="#F5F5F5"/>
<path d="M214.101 152.292H212.27V154.123H214.101V152.292Z" fill="#F5F5F5"/>
<path d="M214.101 161.492H212.27V163.323H214.101V161.492Z" fill="#F5F5F5"/>
<path d="M214.101 164.563H212.27V166.394H214.101V164.563Z" fill="#F5F5F5"/>
<path d="M214.101 167.628H212.27V169.458H214.101V167.628Z" fill="#F5F5F5"/>
<path d="M244.565 100.139H242.734V101.969H244.565V100.139Z" fill="#F5F5F5"/>
<path d="M244.565 103.209H242.734V105.04H244.565V103.209Z" fill="#F5F5F5"/>
<path d="M244.565 106.274H242.734V108.105H244.565V106.274Z" fill="#F5F5F5"/>
<path d="M244.565 109.345H242.734V111.175H244.565V109.345Z" fill="#F5F5F5"/>
<path d="M244.565 112.409H242.734V114.24H244.565V112.409Z" fill="#F5F5F5"/>
<path d="M244.565 115.48H242.734V117.311H244.565V115.48Z" fill="#F5F5F5"/>
<path d="M244.565 118.545H242.734V120.375H244.565V118.545Z" fill="#F5F5F5"/>
<path d="M244.565 121.615H242.734V123.446H244.565V121.615Z" fill="#F5F5F5"/>
<path d="M244.565 124.68H242.734V126.511H244.565V124.68Z" fill="#F5F5F5"/>
<path d="M244.565 127.751H242.734V129.581H244.565V127.751Z" fill="#F5F5F5"/>
<path d="M244.565 130.815H242.734V132.646H244.565V130.815Z" fill="#F5F5F5"/>
<path d="M244.565 133.886H242.734V135.717H244.565V133.886Z" fill="#F5F5F5"/>
<path d="M244.565 136.951H242.734V138.781H244.565V136.951Z" fill="#F5F5F5"/>
<path d="M244.565 140.021H242.734V141.852H244.565V140.021Z" fill="#F5F5F5"/>
<path d="M244.565 143.086H242.734V144.917H244.565V143.086Z" fill="#F5F5F5"/>
<path d="M244.565 146.157H242.734V147.987H244.565V146.157Z" fill="#F5F5F5"/>
<path d="M244.565 149.222H242.734V151.052H244.565V149.222Z" fill="#F5F5F5"/>
<path d="M244.565 152.292H242.734V154.123H244.565V152.292Z" fill="#F5F5F5"/>
<path d="M244.565 155.357H242.734V157.188H244.565V155.357Z" fill="#F5F5F5"/>
<path d="M244.565 158.428H242.734V160.258H244.565V158.428Z" fill="#F5F5F5"/>
<path d="M244.565 161.492H242.734V163.323H244.565V161.492Z" fill="#F5F5F5"/>
<path d="M244.565 164.563H242.734V166.394H244.565V164.563Z" fill="#F5F5F5"/>
<path d="M244.565 167.628H242.734V169.458H244.565V167.628Z" fill="#F5F5F5"/>
<path d="M247.47 100.139H245.64V101.969H247.47V100.139Z" fill="#F5F5F5"/>
<path d="M247.47 103.209H245.64V105.04H247.47V103.209Z" fill="#F5F5F5"/>
<path d="M247.47 106.274H245.64V108.105H247.47V106.274Z" fill="#F5F5F5"/>
<path d="M247.47 109.345H245.64V111.175H247.47V109.345Z" fill="#F5F5F5"/>
<path d="M247.47 112.409H245.64V114.24H247.47V112.409Z" fill="#F5F5F5"/>
<path d="M247.47 115.48H245.64V117.311H247.47V115.48Z" fill="#F5F5F5"/>
<path d="M247.47 118.545H245.64V120.375H247.47V118.545Z" fill="#F5F5F5"/>
<path d="M247.47 121.615H245.64V123.446H247.47V121.615Z" fill="#F5F5F5"/>
<path d="M247.47 124.68H245.64V126.511H247.47V124.68Z" fill="#F5F5F5"/>
<path d="M247.47 127.751H245.64V129.581H247.47V127.751Z" fill="#F5F5F5"/>
<path d="M247.47 130.815H245.64V132.646H247.47V130.815Z" fill="#F5F5F5"/>
<path d="M247.47 133.886H245.64V135.717H247.47V133.886Z" fill="#F5F5F5"/>
<path d="M247.47 136.951H245.64V138.781H247.47V136.951Z" fill="#F5F5F5"/>
<path d="M247.47 140.021H245.64V141.852H247.47V140.021Z" fill="#F5F5F5"/>
<path d="M247.47 143.086H245.64V144.917H247.47V143.086Z" fill="#F5F5F5"/>
<path d="M247.47 146.157H245.64V147.987H247.47V146.157Z" fill="#F5F5F5"/>
<path d="M247.47 149.222H245.64V151.052H247.47V149.222Z" fill="#F5F5F5"/>
<path d="M247.47 152.292H245.64V154.123H247.47V152.292Z" fill="#F5F5F5"/>
<path d="M247.47 155.357H245.64V157.188H247.47V155.357Z" fill="#F5F5F5"/>
<path d="M250.376 100.139H248.545V101.969H250.376V100.139Z" fill="#F5F5F5"/>
<path d="M250.376 103.209H248.545V105.04H250.376V103.209Z" fill="#F5F5F5"/>
<path d="M250.376 106.274H248.545V108.105H250.376V106.274Z" fill="#F5F5F5"/>
<path d="M250.376 109.345H248.545V111.175H250.376V109.345Z" fill="#F5F5F5"/>
<path d="M250.376 112.409H248.545V114.24H250.376V112.409Z" fill="#F5F5F5"/>
<path d="M250.376 115.48H248.545V117.311H250.376V115.48Z" fill="#F5F5F5"/>
<path d="M250.376 118.545H248.545V120.375H250.376V118.545Z" fill="#F5F5F5"/>
<path d="M250.376 121.615H248.545V123.446H250.376V121.615Z" fill="#F5F5F5"/>
<path d="M250.376 124.68H248.545V126.511H250.376V124.68Z" fill="#F5F5F5"/>
<path d="M250.376 127.751H248.545V129.581H250.376V127.751Z" fill="#F5F5F5"/>
<path d="M250.376 130.815H248.545V132.646H250.376V130.815Z" fill="#F5F5F5"/>
<path d="M250.376 133.886H248.545V135.717H250.376V133.886Z" fill="#F5F5F5"/>
<path d="M250.376 136.951H248.545V138.781H250.376V136.951Z" fill="#F5F5F5"/>
<path d="M250.376 140.021H248.545V141.852H250.376V140.021Z" fill="#F5F5F5"/>
<path d="M250.376 143.086H248.545V144.917H250.376V143.086Z" fill="#F5F5F5"/>
<path d="M250.376 146.157H248.545V147.987H250.376V146.157Z" fill="#F5F5F5"/>
<path d="M250.376 149.222H248.545V151.052H250.376V149.222Z" fill="#F5F5F5"/>
<path d="M250.376 152.292H248.545V154.123H250.376V152.292Z" fill="#F5F5F5"/>
<path d="M250.376 155.357H248.545V157.188H250.376V155.357Z" fill="#F5F5F5"/>
<path d="M253.281 100.139H251.45V101.969H253.281V100.139Z" fill="#F5F5F5"/>
<path d="M253.281 103.209H251.45V105.04H253.281V103.209Z" fill="#F5F5F5"/>
<path d="M253.281 106.274H251.45V108.105H253.281V106.274Z" fill="#F5F5F5"/>
<path d="M253.281 109.345H251.45V111.175H253.281V109.345Z" fill="#F5F5F5"/>
<path d="M253.281 112.409H251.45V114.24H253.281V112.409Z" fill="#F5F5F5"/>
<path d="M253.281 115.48H251.45V117.311H253.281V115.48Z" fill="#F5F5F5"/>
<path d="M253.281 118.545H251.45V120.375H253.281V118.545Z" fill="#F5F5F5"/>
<path d="M253.281 121.615H251.45V123.446H253.281V121.615Z" fill="#F5F5F5"/>
<path d="M253.281 124.68H251.45V126.511H253.281V124.68Z" fill="#F5F5F5"/>
<path d="M253.281 127.751H251.45V129.581H253.281V127.751Z" fill="#F5F5F5"/>
<path d="M253.281 130.815H251.45V132.646H253.281V130.815Z" fill="#F5F5F5"/>
<path d="M253.281 133.886H251.45V135.717H253.281V133.886Z" fill="#F5F5F5"/>
<path d="M253.281 136.951H251.45V138.781H253.281V136.951Z" fill="#F5F5F5"/>
<path d="M253.281 140.021H251.45V141.852H253.281V140.021Z" fill="#F5F5F5"/>
<path d="M253.281 143.086H251.45V144.917H253.281V143.086Z" fill="#F5F5F5"/>
<path d="M256.186 100.139H254.356V101.969H256.186V100.139Z" fill="#F5F5F5"/>
<path d="M256.186 103.209H254.356V105.04H256.186V103.209Z" fill="#F5F5F5"/>
<path d="M256.186 106.274H254.356V108.105H256.186V106.274Z" fill="#F5F5F5"/>
<path d="M256.186 109.345H254.356V111.175H256.186V109.345Z" fill="#F5F5F5"/>
<path d="M256.186 112.409H254.356V114.24H256.186V112.409Z" fill="#F5F5F5"/>
<path d="M256.186 115.48H254.356V117.311H256.186V115.48Z" fill="#F5F5F5"/>
<path d="M256.186 118.545H254.356V120.375H256.186V118.545Z" fill="#F5F5F5"/>
<path d="M256.186 121.615H254.356V123.446H256.186V121.615Z" fill="#F5F5F5"/>
<path d="M256.186 124.68H254.356V126.511H256.186V124.68Z" fill="#F5F5F5"/>
<path d="M256.186 127.751H254.356V129.581H256.186V127.751Z" fill="#F5F5F5"/>
<path d="M256.186 130.815H254.356V132.646H256.186V130.815Z" fill="#F5F5F5"/>
<path d="M256.186 133.886H254.356V135.717H256.186V133.886Z" fill="#F5F5F5"/>
<path d="M256.186 136.951H254.356V138.781H256.186V136.951Z" fill="#F5F5F5"/>
<path d="M259.098 100.139H257.267V101.969H259.098V100.139Z" fill="#F5F5F5"/>
<path d="M259.098 103.209H257.267V105.04H259.098V103.209Z" fill="#F5F5F5"/>
<path d="M259.098 106.274H257.267V108.105H259.098V106.274Z" fill="#F5F5F5"/>
<path d="M259.098 109.345H257.267V111.175H259.098V109.345Z" fill="#F5F5F5"/>
<path d="M259.098 112.409H257.267V114.24H259.098V112.409Z" fill="#F5F5F5"/>
<path d="M259.098 115.48H257.267V117.311H259.098V115.48Z" fill="#F5F5F5"/>
<path d="M259.098 118.545H257.267V120.375H259.098V118.545Z" fill="#F5F5F5"/>
<path d="M259.098 121.615H257.267V123.446H259.098V121.615Z" fill="#F5F5F5"/>
<path d="M259.098 124.68H257.267V126.511H259.098V124.68Z" fill="#F5F5F5"/>
<path d="M259.098 127.751H257.267V129.581H259.098V127.751Z" fill="#F5F5F5"/>
<path d="M259.098 130.815H257.267V132.646H259.098V130.815Z" fill="#F5F5F5"/>
<path d="M259.098 133.886H257.267V135.717H259.098V133.886Z" fill="#F5F5F5"/>
<path d="M45.5342 122.531H43.7036V124.361H45.5342V122.531Z" fill="#F5F5F5"/>
<path d="M45.5342 125.595H43.7036V127.426H45.5342V125.595Z" fill="#F5F5F5"/>
<path d="M45.5342 128.666H43.7036V130.497H45.5342V128.666Z" fill="#F5F5F5"/>
<path d="M45.5342 131.731H43.7036V133.561H45.5342V131.731Z" fill="#F5F5F5"/>
<path d="M45.5342 134.801H43.7036V136.632H45.5342V134.801Z" fill="#F5F5F5"/>
<path d="M45.5342 137.866H43.7036V139.697H45.5342V137.866Z" fill="#F5F5F5"/>
<path d="M45.5342 140.937H43.7036V142.767H45.5342V140.937Z" fill="#F5F5F5"/>
<path d="M45.5342 144.002H43.7036V145.832H45.5342V144.002Z" fill="#F5F5F5"/>
<path d="M45.5342 147.072H43.7036V148.903H45.5342V147.072Z" fill="#F5F5F5"/>
<path d="M45.5342 150.137H43.7036V151.967H45.5342V150.137Z" fill="#F5F5F5"/>
<path d="M45.5342 153.208H43.7036V155.038H45.5342V153.208Z" fill="#F5F5F5"/>
<path d="M45.5342 156.272H43.7036V158.103H45.5342V156.272Z" fill="#F5F5F5"/>
<path d="M45.5342 159.343H43.7036V161.173H45.5342V159.343Z" fill="#F5F5F5"/>
<path d="M45.5342 162.408H43.7036V164.238H45.5342V162.408Z" fill="#F5F5F5"/>
<path d="M45.5342 165.478H43.7036V167.309H45.5342V165.478Z" fill="#F5F5F5"/>
<path d="M45.5342 168.543H43.7036V170.374H45.5342V168.543Z" fill="#F5F5F5"/>
<path d="M45.5342 171.614H43.7036V173.444H45.5342V171.614Z" fill="#F5F5F5"/>
<path d="M45.5342 174.678H43.7036V176.509H45.5342V174.678Z" fill="#F5F5F5"/>
<path d="M45.5342 177.749H43.7036V179.58H45.5342V177.749Z" fill="#F5F5F5"/>
<path d="M45.5342 180.814H43.7036V182.644H45.5342V180.814Z" fill="#F5F5F5"/>
<path d="M48.4392 122.531H46.6086V124.361H48.4392V122.531Z" fill="#F5F5F5"/>
<path d="M48.4392 125.595H46.6086V127.426H48.4392V125.595Z" fill="#F5F5F5"/>
<path d="M48.4392 128.666H46.6086V130.497H48.4392V128.666Z" fill="#F5F5F5"/>
<path d="M48.4392 131.731H46.6086V133.561H48.4392V131.731Z" fill="#F5F5F5"/>
<path d="M48.4392 134.801H46.6086V136.632H48.4392V134.801Z" fill="#F5F5F5"/>
<path d="M48.4392 137.866H46.6086V139.697H48.4392V137.866Z" fill="#F5F5F5"/>
<path d="M48.4392 140.937H46.6086V142.767H48.4392V140.937Z" fill="#F5F5F5"/>
<path d="M48.4392 144.002H46.6086V145.832H48.4392V144.002Z" fill="#F5F5F5"/>
<path d="M48.4392 147.072H46.6086V148.903H48.4392V147.072Z" fill="#F5F5F5"/>
<path d="M48.4392 150.137H46.6086V151.967H48.4392V150.137Z" fill="#F5F5F5"/>
<path d="M48.4392 153.208H46.6086V155.038H48.4392V153.208Z" fill="#F5F5F5"/>
<path d="M48.4392 156.272H46.6086V158.103H48.4392V156.272Z" fill="#F5F5F5"/>
<path d="M48.4392 159.343H46.6086V161.173H48.4392V159.343Z" fill="#F5F5F5"/>
<path d="M48.4392 162.408H46.6086V164.238H48.4392V162.408Z" fill="#F5F5F5"/>
<path d="M48.4392 165.478H46.6086V167.309H48.4392V165.478Z" fill="#F5F5F5"/>
<path d="M48.4392 168.543H46.6086V170.374H48.4392V168.543Z" fill="#F5F5F5"/>
<path d="M48.4392 171.614H46.6086V173.444H48.4392V171.614Z" fill="#F5F5F5"/>
<path d="M48.4392 174.678H46.6086V176.509H48.4392V174.678Z" fill="#F5F5F5"/>
<path d="M51.3506 122.531H49.52V124.361H51.3506V122.531Z" fill="#F5F5F5"/>
<path d="M51.3506 125.595H49.52V127.426H51.3506V125.595Z" fill="#F5F5F5"/>
<path d="M51.3506 128.666H49.52V130.497H51.3506V128.666Z" fill="#F5F5F5"/>
<path d="M51.3506 131.731H49.52V133.561H51.3506V131.731Z" fill="#F5F5F5"/>
<path d="M51.3506 134.801H49.52V136.632H51.3506V134.801Z" fill="#F5F5F5"/>
<path d="M51.3506 137.866H49.52V139.697H51.3506V137.866Z" fill="#F5F5F5"/>
<path d="M51.3506 140.937H49.52V142.767H51.3506V140.937Z" fill="#F5F5F5"/>
<path d="M51.3506 144.002H49.52V145.832H51.3506V144.002Z" fill="#F5F5F5"/>
<path d="M51.3506 147.072H49.52V148.903H51.3506V147.072Z" fill="#F5F5F5"/>
<path d="M51.3506 150.137H49.52V151.967H51.3506V150.137Z" fill="#F5F5F5"/>
<path d="M51.3506 153.208H49.52V155.038H51.3506V153.208Z" fill="#F5F5F5"/>
<path d="M51.3506 156.272H49.52V158.103H51.3506V156.272Z" fill="#F5F5F5"/>
<path d="M51.3506 159.343H49.52V161.173H51.3506V159.343Z" fill="#F5F5F5"/>
<path d="M51.3506 162.408H49.52V164.238H51.3506V162.408Z" fill="#F5F5F5"/>
<path d="M51.3506 165.478H49.52V167.309H51.3506V165.478Z" fill="#F5F5F5"/>
<path d="M51.3506 168.543H49.52V170.374H51.3506V168.543Z" fill="#F5F5F5"/>
<path d="M51.3506 171.614H49.52V173.444H51.3506V171.614Z" fill="#F5F5F5"/>
<path d="M51.3506 174.678H49.52V176.509H51.3506V174.678Z" fill="#F5F5F5"/>
<path d="M34.6626 144.917H32.832V146.747H34.6626V144.917Z" fill="#F5F5F5"/>
<path d="M34.6626 147.987H32.832V149.818H34.6626V147.987Z" fill="#F5F5F5"/>
<path d="M34.6626 151.052H32.832V152.883H34.6626V151.052Z" fill="#F5F5F5"/>
<path d="M34.6626 154.123H32.832V155.953H34.6626V154.123Z" fill="#F5F5F5"/>
<path d="M34.6626 157.188H32.832V159.018H34.6626V157.188Z" fill="#F5F5F5"/>
<path d="M34.6626 160.258H32.832V162.089H34.6626V160.258Z" fill="#F5F5F5"/>
<path d="M34.6626 163.323H32.832V165.154H34.6626V163.323Z" fill="#F5F5F5"/>
<path d="M34.6626 166.394H32.832V168.224H34.6626V166.394Z" fill="#F5F5F5"/>
<path d="M34.6626 169.458H32.832V171.289H34.6626V169.458Z" fill="#F5F5F5"/>
<path d="M34.6626 172.529H32.832V174.36H34.6626V172.529Z" fill="#F5F5F5"/>
<path d="M34.6626 175.594H32.832V177.424H34.6626V175.594Z" fill="#F5F5F5"/>
<path d="M34.6626 178.664H32.832V180.495H34.6626V178.664Z" fill="#F5F5F5"/>
<path d="M34.6626 181.729H32.832V183.56H34.6626V181.729Z" fill="#F5F5F5"/>
<path d="M37.5681 144.917H35.7375V146.747H37.5681V144.917Z" fill="#F5F5F5"/>
<path d="M37.5681 147.987H35.7375V149.818H37.5681V147.987Z" fill="#F5F5F5"/>
<path d="M37.5681 151.052H35.7375V152.883H37.5681V151.052Z" fill="#F5F5F5"/>
<path d="M37.5681 154.123H35.7375V155.953H37.5681V154.123Z" fill="#F5F5F5"/>
<path d="M37.5681 157.188H35.7375V159.018H37.5681V157.188Z" fill="#F5F5F5"/>
<path d="M37.5681 160.258H35.7375V162.089H37.5681V160.258Z" fill="#F5F5F5"/>
<path d="M37.5681 163.323H35.7375V165.154H37.5681V163.323Z" fill="#F5F5F5"/>
<path d="M37.5681 166.394H35.7375V168.224H37.5681V166.394Z" fill="#F5F5F5"/>
<path d="M37.5681 169.458H35.7375V171.289H37.5681V169.458Z" fill="#F5F5F5"/>
<path d="M37.5681 172.529H35.7375V174.36H37.5681V172.529Z" fill="#F5F5F5"/>
<path d="M37.5681 175.594H35.7375V177.424H37.5681V175.594Z" fill="#F5F5F5"/>
<path d="M37.5681 178.664H35.7375V180.495H37.5681V178.664Z" fill="#F5F5F5"/>
<path d="M37.5681 181.729H35.7375V183.56H37.5681V181.729Z" fill="#F5F5F5"/>
<path d="M40.4793 144.917H38.6487V146.747H40.4793V144.917Z" fill="#F5F5F5"/>
<path d="M40.4793 147.987H38.6487V149.818H40.4793V147.987Z" fill="#F5F5F5"/>
<path d="M40.4793 151.052H38.6487V152.883H40.4793V151.052Z" fill="#F5F5F5"/>
<path d="M40.4793 154.123H38.6487V155.953H40.4793V154.123Z" fill="#F5F5F5"/>
<path d="M40.4793 157.188H38.6487V159.018H40.4793V157.188Z" fill="#F5F5F5"/>
<path d="M40.4793 160.258H38.6487V162.089H40.4793V160.258Z" fill="#F5F5F5"/>
<path d="M40.4793 163.323H38.6487V165.154H40.4793V163.323Z" fill="#F5F5F5"/>
<path d="M40.4793 166.394H38.6487V168.224H40.4793V166.394Z" fill="#F5F5F5"/>
<path d="M40.4793 169.458H38.6487V171.289H40.4793V169.458Z" fill="#F5F5F5"/>
<path d="M40.4793 172.529H38.6487V174.36H40.4793V172.529Z" fill="#F5F5F5"/>
<path d="M40.4793 175.594H38.6487V177.424H40.4793V175.594Z" fill="#F5F5F5"/>
<path d="M40.4793 178.664H38.6487V180.495H40.4793V178.664Z" fill="#F5F5F5"/>
<path d="M40.4793 181.729H38.6487V183.56H40.4793V181.729Z" fill="#F5F5F5"/>
<path d="M40.4793 184.8H38.6487V186.63H40.4793V184.8Z" fill="#F5F5F5"/>
<path d="M56.6238 145.832H54.7932V147.663H56.6238V145.832Z" fill="#F5F5F5"/>
<path d="M56.6238 148.903H54.7932V150.733H56.6238V148.903Z" fill="#F5F5F5"/>
<path d="M56.6238 151.968H54.7932V153.798H56.6238V151.968Z" fill="#F5F5F5"/>
<path d="M56.6238 155.038H54.7932V156.869H56.6238V155.038Z" fill="#F5F5F5"/>
<path d="M56.6238 158.103H54.7932V159.933H56.6238V158.103Z" fill="#F5F5F5"/>
<path d="M56.6238 161.173H54.7932V163.004H56.6238V161.173Z" fill="#F5F5F5"/>
<path d="M56.6238 164.238H54.7932V166.069H56.6238V164.238Z" fill="#F5F5F5"/>
<path d="M56.6238 167.309H54.7932V169.139H56.6238V167.309Z" fill="#F5F5F5"/>
<path d="M56.6238 170.374H54.7932V172.204H56.6238V170.374Z" fill="#F5F5F5"/>
<path d="M56.6238 173.444H54.7932V175.275H56.6238V173.444Z" fill="#F5F5F5"/>
<path d="M56.6238 182.644H54.7932V184.475H56.6238V182.644Z" fill="#F5F5F5"/>
<path d="M59.5293 145.832H57.6987V147.663H59.5293V145.832Z" fill="#F5F5F5"/>
<path d="M59.5293 148.903H57.6987V150.733H59.5293V148.903Z" fill="#F5F5F5"/>
<path d="M59.5293 151.968H57.6987V153.798H59.5293V151.968Z" fill="#F5F5F5"/>
<path d="M59.5293 155.038H57.6987V156.869H59.5293V155.038Z" fill="#F5F5F5"/>
<path d="M59.5293 158.103H57.6987V159.933H59.5293V158.103Z" fill="#F5F5F5"/>
<path d="M59.5293 161.173H57.6987V163.004H59.5293V161.173Z" fill="#F5F5F5"/>
<path d="M59.5293 164.238H57.6987V166.069H59.5293V164.238Z" fill="#F5F5F5"/>
<path d="M59.5293 167.309H57.6987V169.139H59.5293V167.309Z" fill="#F5F5F5"/>
<path d="M59.5293 170.374H57.6987V172.204H59.5293V170.374Z" fill="#F5F5F5"/>
<path d="M59.5293 179.58H57.6987V181.41H59.5293V179.58Z" fill="#F5F5F5"/>
<path d="M59.5293 182.644H57.6987V184.475H59.5293V182.644Z" fill="#F5F5F5"/>
<path d="M62.4346 145.832H60.604V147.663H62.4346V145.832Z" fill="#F5F5F5"/>
<path d="M62.4346 148.903H60.604V150.733H62.4346V148.903Z" fill="#F5F5F5"/>
<path d="M62.4346 151.968H60.604V153.798H62.4346V151.968Z" fill="#F5F5F5"/>
<path d="M62.4346 155.038H60.604V156.869H62.4346V155.038Z" fill="#F5F5F5"/>
<path d="M62.4346 158.103H60.604V159.933H62.4346V158.103Z" fill="#F5F5F5"/>
<path d="M62.4346 161.173H60.604V163.004H62.4346V161.173Z" fill="#F5F5F5"/>
<path d="M62.4346 164.238H60.604V166.069H62.4346V164.238Z" fill="#F5F5F5"/>
<path d="M62.4346 167.309H60.604V169.139H62.4346V167.309Z" fill="#F5F5F5"/>
<path d="M62.4346 176.509H60.604V178.34H62.4346V176.509Z" fill="#F5F5F5"/>
<path d="M62.4346 179.58H60.604V181.41H62.4346V179.58Z" fill="#F5F5F5"/>
<path d="M62.4346 182.644H60.604V184.475H62.4346V182.644Z" fill="#F5F5F5"/>
<path d="M89.4563 99.2233H87.6257V101.054H89.4563V99.2233Z" fill="#F5F5F5"/>
<path d="M89.4563 102.294H87.6257V104.124H89.4563V102.294Z" fill="#F5F5F5"/>
<path d="M89.4563 105.359H87.6257V107.189H89.4563V105.359Z" fill="#F5F5F5"/>
<path d="M89.4563 108.429H87.6257V110.26H89.4563V108.429Z" fill="#F5F5F5"/>
<path d="M89.4563 111.494H87.6257V113.325H89.4563V111.494Z" fill="#F5F5F5"/>
<path d="M89.4563 114.565H87.6257V116.395H89.4563V114.565Z" fill="#F5F5F5"/>
<path d="M89.4563 117.629H87.6257V119.46H89.4563V117.629Z" fill="#F5F5F5"/>
<path d="M89.4563 120.7H87.6257V122.531H89.4563V120.7Z" fill="#F5F5F5"/>
<path d="M89.4563 123.765H87.6257V125.595H89.4563V123.765Z" fill="#F5F5F5"/>
<path d="M89.4563 126.835H87.6257V128.666H89.4563V126.835Z" fill="#F5F5F5"/>
<path d="M89.4563 129.9H87.6257V131.731H89.4563V129.9Z" fill="#F5F5F5"/>
<path d="M89.4563 132.971H87.6257V134.801H89.4563V132.971Z" fill="#F5F5F5"/>
<path d="M89.4563 136.036H87.6257V137.866H89.4563V136.036Z" fill="#F5F5F5"/>
<path d="M89.4563 139.106H87.6257V140.937H89.4563V139.106Z" fill="#F5F5F5"/>
<path d="M89.4563 142.171H87.6257V144.002H89.4563V142.171Z" fill="#F5F5F5"/>
<path d="M89.4563 145.242H87.6257V147.072H89.4563V145.242Z" fill="#F5F5F5"/>
<path d="M89.4563 148.306H87.6257V150.137H89.4563V148.306Z" fill="#F5F5F5"/>
<path d="M89.4563 154.442H87.6257V156.272H89.4563V154.442Z" fill="#F5F5F5"/>
<path d="M89.4563 157.512H87.6257V159.343H89.4563V157.512Z" fill="#F5F5F5"/>
<path d="M89.4563 160.577H87.6257V162.408H89.4563V160.577Z" fill="#F5F5F5"/>
<path d="M89.4563 163.648H87.6257V165.478H89.4563V163.648Z" fill="#F5F5F5"/>
<path d="M89.4563 166.712H87.6257V168.543H89.4563V166.712Z" fill="#F5F5F5"/>
<path d="M92.3613 99.2233H90.5308V101.054H92.3613V99.2233Z" fill="#F5F5F5"/>
<path d="M92.3613 102.294H90.5308V104.124H92.3613V102.294Z" fill="#F5F5F5"/>
<path d="M92.3613 105.359H90.5308V107.189H92.3613V105.359Z" fill="#F5F5F5"/>
<path d="M92.3613 108.429H90.5308V110.26H92.3613V108.429Z" fill="#F5F5F5"/>
<path d="M92.3613 111.494H90.5308V113.325H92.3613V111.494Z" fill="#F5F5F5"/>
<path d="M92.3613 114.565H90.5308V116.395H92.3613V114.565Z" fill="#F5F5F5"/>
<path d="M92.3613 117.629H90.5308V119.46H92.3613V117.629Z" fill="#F5F5F5"/>
<path d="M92.3613 120.7H90.5308V122.531H92.3613V120.7Z" fill="#F5F5F5"/>
<path d="M92.3613 123.765H90.5308V125.595H92.3613V123.765Z" fill="#F5F5F5"/>
<path d="M92.3613 126.835H90.5308V128.666H92.3613V126.835Z" fill="#F5F5F5"/>
<path d="M92.3613 129.9H90.5308V131.731H92.3613V129.9Z" fill="#F5F5F5"/>
<path d="M92.3613 132.971H90.5308V134.801H92.3613V132.971Z" fill="#F5F5F5"/>
<path d="M92.3613 136.036H90.5308V137.866H92.3613V136.036Z" fill="#F5F5F5"/>
<path d="M92.3613 139.106H90.5308V140.937H92.3613V139.106Z" fill="#F5F5F5"/>
<path d="M92.3613 142.171H90.5308V144.002H92.3613V142.171Z" fill="#F5F5F5"/>
<path d="M92.3613 145.242H90.5308V147.072H92.3613V145.242Z" fill="#F5F5F5"/>
<path d="M92.3613 163.648H90.5308V165.478H92.3613V163.648Z" fill="#F5F5F5"/>
<path d="M92.3613 166.712H90.5308V168.543H92.3613V166.712Z" fill="#F5F5F5"/>
<path d="M95.2666 99.2233H93.436V101.054H95.2666V99.2233Z" fill="#F5F5F5"/>
<path d="M95.2666 102.294H93.436V104.124H95.2666V102.294Z" fill="#F5F5F5"/>
<path d="M95.2666 105.359H93.436V107.189H95.2666V105.359Z" fill="#F5F5F5"/>
<path d="M95.2666 108.429H93.436V110.26H95.2666V108.429Z" fill="#F5F5F5"/>
<path d="M95.2666 111.494H93.436V113.325H95.2666V111.494Z" fill="#F5F5F5"/>
<path d="M95.2666 114.565H93.436V116.395H95.2666V114.565Z" fill="#F5F5F5"/>
<path d="M95.2666 117.629H93.436V119.46H95.2666V117.629Z" fill="#F5F5F5"/>
<path d="M95.2666 120.7H93.436V122.531H95.2666V120.7Z" fill="#F5F5F5"/>
<path d="M95.2666 123.765H93.436V125.595H95.2666V123.765Z" fill="#F5F5F5"/>
<path d="M95.2666 126.835H93.436V128.666H95.2666V126.835Z" fill="#F5F5F5"/>
<path d="M95.2666 129.9H93.436V131.731H95.2666V129.9Z" fill="#F5F5F5"/>
<path d="M95.2666 132.971H93.436V134.801H95.2666V132.971Z" fill="#F5F5F5"/>
<path d="M95.2666 136.036H93.436V137.866H95.2666V136.036Z" fill="#F5F5F5"/>
<path d="M95.2666 139.106H93.436V140.937H95.2666V139.106Z" fill="#F5F5F5"/>
<path d="M95.2666 142.171H93.436V144.002H95.2666V142.171Z" fill="#F5F5F5"/>
<path d="M95.2666 145.242H93.436V147.072H95.2666V145.242Z" fill="#F5F5F5"/>
<path d="M95.2666 151.377H93.436V153.208H95.2666V151.377Z" fill="#F5F5F5"/>
<path d="M95.2666 154.442H93.436V156.272H95.2666V154.442Z" fill="#F5F5F5"/>
<path d="M95.2666 157.512H93.436V159.343H95.2666V157.512Z" fill="#F5F5F5"/>
<path d="M95.2666 160.577H93.436V162.408H95.2666V160.577Z" fill="#F5F5F5"/>
<path d="M95.2666 166.712H93.436V168.543H95.2666V166.712Z" fill="#F5F5F5"/>
<path d="M78.9036 137.866H77.073V139.697H78.9036V137.866Z" fill="#F5F5F5"/>
<path d="M78.9036 140.937H77.073V142.767H78.9036V140.937Z" fill="#F5F5F5"/>
<path d="M78.9036 144.002H77.073V145.832H78.9036V144.002Z" fill="#F5F5F5"/>
<path d="M78.9036 147.072H77.073V148.903H78.9036V147.072Z" fill="#F5F5F5"/>
<path d="M78.9036 150.137H77.073V151.967H78.9036V150.137Z" fill="#F5F5F5"/>
<path d="M78.9036 153.208H77.073V155.038H78.9036V153.208Z" fill="#F5F5F5"/>
<path d="M78.9036 156.272H77.073V158.103H78.9036V156.272Z" fill="#F5F5F5"/>
<path d="M78.9036 162.408H77.073V164.238H78.9036V162.408Z" fill="#F5F5F5"/>
<path d="M78.9036 165.478H77.073V167.309H78.9036V165.478Z" fill="#F5F5F5"/>
<path d="M78.9036 168.543H77.073V170.374H78.9036V168.543Z" fill="#F5F5F5"/>
<path d="M78.9036 171.614H77.073V173.444H78.9036V171.614Z" fill="#F5F5F5"/>
<path d="M78.9036 174.678H77.073V176.509H78.9036V174.678Z" fill="#F5F5F5"/>
<path d="M78.9036 177.749H77.073V179.58H78.9036V177.749Z" fill="#F5F5F5"/>
<path d="M78.9036 180.814H77.073V182.644H78.9036V180.814Z" fill="#F5F5F5"/>
<path d="M78.9036 183.885H77.073V185.715H78.9036V183.885Z" fill="#F5F5F5"/>
<path d="M81.8091 137.866H79.9785V139.697H81.8091V137.866Z" fill="#F5F5F5"/>
<path d="M81.8091 140.937H79.9785V142.767H81.8091V140.937Z" fill="#F5F5F5"/>
<path d="M81.8091 144.002H79.9785V145.832H81.8091V144.002Z" fill="#F5F5F5"/>
<path d="M81.8091 147.072H79.9785V148.903H81.8091V147.072Z" fill="#F5F5F5"/>
<path d="M81.8091 150.137H79.9785V151.967H81.8091V150.137Z" fill="#F5F5F5"/>
<path d="M81.8091 153.208H79.9785V155.038H81.8091V153.208Z" fill="#F5F5F5"/>
<path d="M81.8091 162.408H79.9785V164.238H81.8091V162.408Z" fill="#F5F5F5"/>
<path d="M81.8091 165.478H79.9785V167.309H81.8091V165.478Z" fill="#F5F5F5"/>
<path d="M81.8091 168.543H79.9785V170.374H81.8091V168.543Z" fill="#F5F5F5"/>
<path d="M81.8091 171.614H79.9785V173.444H81.8091V171.614Z" fill="#F5F5F5"/>
<path d="M81.8091 174.678H79.9785V176.509H81.8091V174.678Z" fill="#F5F5F5"/>
<path d="M81.8091 177.749H79.9785V179.58H81.8091V177.749Z" fill="#F5F5F5"/>
<path d="M81.8091 180.814H79.9785V182.644H81.8091V180.814Z" fill="#F5F5F5"/>
<path d="M81.8091 183.885H79.9785V185.715H81.8091V183.885Z" fill="#F5F5F5"/>
<path d="M84.7144 137.866H82.8838V139.697H84.7144V137.866Z" fill="#F5F5F5"/>
<path d="M84.7144 140.937H82.8838V142.767H84.7144V140.937Z" fill="#F5F5F5"/>
<path d="M84.7144 144.002H82.8838V145.832H84.7144V144.002Z" fill="#F5F5F5"/>
<path d="M84.7144 147.072H82.8838V148.903H84.7144V147.072Z" fill="#F5F5F5"/>
<path d="M84.7144 150.137H82.8838V151.967H84.7144V150.137Z" fill="#F5F5F5"/>
<path d="M84.7144 153.208H82.8838V155.038H84.7144V153.208Z" fill="#F5F5F5"/>
<path d="M84.7144 159.343H82.8838V161.173H84.7144V159.343Z" fill="#F5F5F5"/>
<path d="M84.7144 162.408H82.8838V164.238H84.7144V162.408Z" fill="#F5F5F5"/>
<path d="M84.7144 165.478H82.8838V167.309H84.7144V165.478Z" fill="#F5F5F5"/>
<path d="M84.7144 168.543H82.8838V170.374H84.7144V168.543Z" fill="#F5F5F5"/>
<path d="M84.7144 171.614H82.8838V173.444H84.7144V171.614Z" fill="#F5F5F5"/>
<path d="M84.7144 174.678H82.8838V176.509H84.7144V174.678Z" fill="#F5F5F5"/>
<path d="M84.7144 177.749H82.8838V179.58H84.7144V177.749Z" fill="#F5F5F5"/>
<path d="M84.7144 180.814H82.8838V182.644H84.7144V180.814Z" fill="#F5F5F5"/>
<path d="M84.7144 183.885H82.8838V185.715H84.7144V183.885Z" fill="#F5F5F5"/>
<path d="M145.968 120.7H144.137V122.531H145.968V120.7Z" fill="#F5F5F5"/>
<path d="M145.968 123.765H144.137V125.595H145.968V123.765Z" fill="#F5F5F5"/>
<path d="M145.968 126.835H144.137V128.666H145.968V126.835Z" fill="#F5F5F5"/>
<path d="M145.968 129.9H144.137V131.731H145.968V129.9Z" fill="#F5F5F5"/>
<path d="M145.968 132.971H144.137V134.801H145.968V132.971Z" fill="#F5F5F5"/>
<path d="M145.968 136.036H144.137V137.866H145.968V136.036Z" fill="#F5F5F5"/>
<path d="M145.968 139.106H144.137V140.937H145.968V139.106Z" fill="#F5F5F5"/>
<path d="M145.968 142.171H144.137V144.002H145.968V142.171Z" fill="#F5F5F5"/>
<path d="M145.968 145.242H144.137V147.072H145.968V145.242Z" fill="#F5F5F5"/>
<path d="M145.968 148.306H144.137V150.137H145.968V148.306Z" fill="#F5F5F5"/>
<path d="M145.968 151.377H144.137V153.208H145.968V151.377Z" fill="#F5F5F5"/>
<path d="M145.968 154.442H144.137V156.272H145.968V154.442Z" fill="#F5F5F5"/>
<path d="M145.968 157.512H144.137V159.343H145.968V157.512Z" fill="#F5F5F5"/>
<path d="M145.968 163.648H144.137V165.478H145.968V163.648Z" fill="#F5F5F5"/>
<path d="M145.968 166.712H144.137V168.543H145.968V166.712Z" fill="#F5F5F5"/>
<path d="M145.968 169.783H144.137V171.614H145.968V169.783Z" fill="#F5F5F5"/>
<path d="M145.968 172.848H144.137V174.678H145.968V172.848Z" fill="#F5F5F5"/>
<path d="M145.968 178.983H144.137V180.814H145.968V178.983Z" fill="#F5F5F5"/>
<path d="M145.968 182.054H144.137V183.885H145.968V182.054Z" fill="#F5F5F5"/>
<path d="M145.968 185.125H144.137V186.955H145.968V185.125Z" fill="#F5F5F5"/>
<path d="M148.873 120.7H147.042V122.531H148.873V120.7Z" fill="#F5F5F5"/>
<path d="M148.873 123.765H147.042V125.595H148.873V123.765Z" fill="#F5F5F5"/>
<path d="M148.873 126.835H147.042V128.666H148.873V126.835Z" fill="#F5F5F5"/>
<path d="M148.873 129.9H147.042V131.731H148.873V129.9Z" fill="#F5F5F5"/>
<path d="M148.873 132.971H147.042V134.801H148.873V132.971Z" fill="#F5F5F5"/>
<path d="M148.873 136.036H147.042V137.866H148.873V136.036Z" fill="#F5F5F5"/>
<path d="M148.873 139.106H147.042V140.937H148.873V139.106Z" fill="#F5F5F5"/>
<path d="M148.873 142.171H147.042V144.002H148.873V142.171Z" fill="#F5F5F5"/>
<path d="M148.873 145.242H147.042V147.072H148.873V145.242Z" fill="#F5F5F5"/>
<path d="M148.873 148.306H147.042V150.137H148.873V148.306Z" fill="#F5F5F5"/>
<path d="M148.873 151.377H147.042V153.208H148.873V151.377Z" fill="#F5F5F5"/>
<path d="M148.873 154.442H147.042V156.272H148.873V154.442Z" fill="#F5F5F5"/>
<path d="M148.873 157.512H147.042V159.343H148.873V157.512Z" fill="#F5F5F5"/>
<path d="M148.873 166.712H147.042V168.543H148.873V166.712Z" fill="#F5F5F5"/>
<path d="M148.873 169.783H147.042V171.614H148.873V169.783Z" fill="#F5F5F5"/>
<path d="M148.873 175.918H147.042V177.749H148.873V175.918Z" fill="#F5F5F5"/>
<path d="M148.873 178.983H147.042V180.814H148.873V178.983Z" fill="#F5F5F5"/>
<path d="M148.873 182.054H147.042V183.885H148.873V182.054Z" fill="#F5F5F5"/>
<path d="M148.873 185.125H147.042V186.955H148.873V185.125Z" fill="#F5F5F5"/>
<path d="M151.778 120.7H149.948V122.531H151.778V120.7Z" fill="#F5F5F5"/>
<path d="M151.778 123.765H149.948V125.595H151.778V123.765Z" fill="#F5F5F5"/>
<path d="M151.778 126.835H149.948V128.666H151.778V126.835Z" fill="#F5F5F5"/>
<path d="M151.778 129.9H149.948V131.731H151.778V129.9Z" fill="#F5F5F5"/>
<path d="M151.778 132.971H149.948V134.801H151.778V132.971Z" fill="#F5F5F5"/>
<path d="M151.778 136.036H149.948V137.866H151.778V136.036Z" fill="#F5F5F5"/>
<path d="M151.778 139.106H149.948V140.937H151.778V139.106Z" fill="#F5F5F5"/>
<path d="M151.778 142.171H149.948V144.002H151.778V142.171Z" fill="#F5F5F5"/>
<path d="M151.778 145.242H149.948V147.072H151.778V145.242Z" fill="#F5F5F5"/>
<path d="M151.778 148.306H149.948V150.137H151.778V148.306Z" fill="#F5F5F5"/>
<path d="M151.778 151.377H149.948V153.208H151.778V151.377Z" fill="#F5F5F5"/>
<path d="M151.778 154.442H149.948V156.272H151.778V154.442Z" fill="#F5F5F5"/>
<path d="M151.778 157.512H149.948V159.343H151.778V157.512Z" fill="#F5F5F5"/>
<path d="M151.778 160.577H149.948V162.408H151.778V160.577Z" fill="#F5F5F5"/>
<path d="M151.778 166.712H149.948V168.543H151.778V166.712Z" fill="#F5F5F5"/>
<path d="M151.778 172.848H149.948V174.678H151.778V172.848Z" fill="#F5F5F5"/>
<path d="M151.778 175.918H149.948V177.749H151.778V175.918Z" fill="#F5F5F5"/>
<path d="M151.778 178.983H149.948V180.814H151.778V178.983Z" fill="#F5F5F5"/>
<path d="M151.778 182.054H149.948V183.885H151.778V182.054Z" fill="#F5F5F5"/>
<path d="M151.778 185.125H149.948V186.955H151.778V185.125Z" fill="#F5F5F5"/>
<path d="M134.122 138.191H132.292V140.021H134.122V138.191Z" fill="#F5F5F5"/>
<path d="M134.122 141.256H132.292V143.086H134.122V141.256Z" fill="#F5F5F5"/>
<path d="M134.122 144.326H132.292V146.157H134.122V144.326Z" fill="#F5F5F5"/>
<path d="M134.122 147.391H132.292V149.222H134.122V147.391Z" fill="#F5F5F5"/>
<path d="M134.122 150.462H132.292V152.292H134.122V150.462Z" fill="#F5F5F5"/>
<path d="M134.122 153.526H132.292V155.357H134.122V153.526Z" fill="#F5F5F5"/>
<path d="M134.122 162.732H132.292V164.563H134.122V162.732Z" fill="#F5F5F5"/>
<path d="M134.122 165.803H132.292V167.634H134.122V165.803Z" fill="#F5F5F5"/>
<path d="M134.122 168.868H132.292V170.698H134.122V168.868Z" fill="#F5F5F5"/>
<path d="M134.122 171.938H132.292V173.769H134.122V171.938Z" fill="#F5F5F5"/>
<path d="M134.122 175.003H132.292V176.834H134.122V175.003Z" fill="#F5F5F5"/>
<path d="M134.122 178.074H132.292V179.904H134.122V178.074Z" fill="#F5F5F5"/>
<path d="M134.122 181.139H132.292V182.969H134.122V181.139Z" fill="#F5F5F5"/>
<path d="M137.033 138.191H135.203V140.021H137.033V138.191Z" fill="#F5F5F5"/>
<path d="M137.033 141.256H135.203V143.086H137.033V141.256Z" fill="#F5F5F5"/>
<path d="M137.033 144.326H135.203V146.157H137.033V144.326Z" fill="#F5F5F5"/>
<path d="M137.033 147.391H135.203V149.222H137.033V147.391Z" fill="#F5F5F5"/>
<path d="M137.033 150.462H135.203V152.292H137.033V150.462Z" fill="#F5F5F5"/>
<path d="M137.033 153.526H135.203V155.357H137.033V153.526Z" fill="#F5F5F5"/>
<path d="M137.033 162.732H135.203V164.563H137.033V162.732Z" fill="#F5F5F5"/>
<path d="M137.033 165.803H135.203V167.634H137.033V165.803Z" fill="#F5F5F5"/>
<path d="M137.033 168.868H135.203V170.698H137.033V168.868Z" fill="#F5F5F5"/>
<path d="M137.033 171.938H135.203V173.769H137.033V171.938Z" fill="#F5F5F5"/>
<path d="M137.033 175.003H135.203V176.834H137.033V175.003Z" fill="#F5F5F5"/>
<path d="M137.033 178.074H135.203V179.904H137.033V178.074Z" fill="#F5F5F5"/>
<path d="M137.033 184.209H135.203V186.04H137.033V184.209Z" fill="#F5F5F5"/>
<path d="M233.582 124.68H231.751V126.511H233.582V124.68Z" fill="#F5F5F5"/>
<path d="M233.582 127.751H231.751V129.581H233.582V127.751Z" fill="#F5F5F5"/>
<path d="M233.582 130.815H231.751V132.646H233.582V130.815Z" fill="#F5F5F5"/>
<path d="M233.582 133.886H231.751V135.717H233.582V133.886Z" fill="#F5F5F5"/>
<path d="M233.582 136.951H231.751V138.781H233.582V136.951Z" fill="#F5F5F5"/>
<path d="M233.582 140.021H231.751V141.852H233.582V140.021Z" fill="#F5F5F5"/>
<path d="M233.582 143.086H231.751V144.917H233.582V143.086Z" fill="#F5F5F5"/>
<path d="M233.582 146.157H231.751V147.987H233.582V146.157Z" fill="#F5F5F5"/>
<path d="M233.582 149.222H231.751V151.052H233.582V149.222Z" fill="#F5F5F5"/>
<path d="M233.582 152.292H231.751V154.123H233.582V152.292Z" fill="#F5F5F5"/>
<path d="M233.582 155.357H231.751V157.188H233.582V155.357Z" fill="#F5F5F5"/>
<path d="M233.582 161.492H231.751V163.323H233.582V161.492Z" fill="#F5F5F5"/>
<path d="M233.582 164.563H231.751V166.394H233.582V164.563Z" fill="#F5F5F5"/>
<path d="M233.582 167.628H231.751V169.458H233.582V167.628Z" fill="#F5F5F5"/>
<path d="M233.582 170.698H231.751V172.529H233.582V170.698Z" fill="#F5F5F5"/>
<path d="M233.582 173.763H231.751V175.594H233.582V173.763Z" fill="#F5F5F5"/>
<path d="M233.582 176.834H231.751V178.664H233.582V176.834Z" fill="#F5F5F5"/>
<path d="M233.582 179.899H231.751V181.729H233.582V179.899Z" fill="#F5F5F5"/>
<path d="M233.582 182.969H231.751V184.8H233.582V182.969Z" fill="#F5F5F5"/>
<path d="M236.493 124.68H234.662V126.511H236.493V124.68Z" fill="#F5F5F5"/>
<path d="M236.493 127.751H234.662V129.581H236.493V127.751Z" fill="#F5F5F5"/>
<path d="M236.493 130.815H234.662V132.646H236.493V130.815Z" fill="#F5F5F5"/>
<path d="M236.493 133.886H234.662V135.717H236.493V133.886Z" fill="#F5F5F5"/>
<path d="M236.493 136.951H234.662V138.781H236.493V136.951Z" fill="#F5F5F5"/>
<path d="M236.493 140.021H234.662V141.852H236.493V140.021Z" fill="#F5F5F5"/>
<path d="M236.493 143.086H234.662V144.917H236.493V143.086Z" fill="#F5F5F5"/>
<path d="M236.493 146.157H234.662V147.987H236.493V146.157Z" fill="#F5F5F5"/>
<path d="M236.493 149.222H234.662V151.052H236.493V149.222Z" fill="#F5F5F5"/>
<path d="M236.493 152.292H234.662V154.123H236.493V152.292Z" fill="#F5F5F5"/>
<path d="M236.493 155.357H234.662V157.188H236.493V155.357Z" fill="#F5F5F5"/>
<path d="M236.493 158.428H234.662V160.258H236.493V158.428Z" fill="#F5F5F5"/>
<path d="M236.493 161.492H234.662V163.323H236.493V161.492Z" fill="#F5F5F5"/>
<path d="M236.493 164.563H234.662V166.394H236.493V164.563Z" fill="#F5F5F5"/>
<path d="M236.493 167.628H234.662V169.458H236.493V167.628Z" fill="#F5F5F5"/>
<path d="M236.493 170.698H234.662V172.529H236.493V170.698Z" fill="#F5F5F5"/>
<path d="M236.493 173.763H234.662V175.594H236.493V173.763Z" fill="#F5F5F5"/>
<path d="M236.493 176.834H234.662V178.664H236.493V176.834Z" fill="#F5F5F5"/>
<path d="M236.493 179.899H234.662V181.729H236.493V179.899Z" fill="#F5F5F5"/>
<path d="M236.493 182.969H234.662V184.8H236.493V182.969Z" fill="#F5F5F5"/>
<path d="M219.268 136.632H217.437V138.463H219.268V136.632Z" fill="#F5F5F5"/>
<path d="M219.268 139.697H217.437V141.527H219.268V139.697Z" fill="#F5F5F5"/>
<path d="M219.268 142.767H217.437V144.598H219.268V142.767Z" fill="#F5F5F5"/>
<path d="M219.268 145.832H217.437V147.663H219.268V145.832Z" fill="#F5F5F5"/>
<path d="M219.268 148.903H217.437V150.733H219.268V148.903Z" fill="#F5F5F5"/>
<path d="M219.268 151.968H217.437V153.798H219.268V151.968Z" fill="#F5F5F5"/>
<path d="M219.268 155.038H217.437V156.869H219.268V155.038Z" fill="#F5F5F5"/>
<path d="M219.268 158.103H217.437V159.933H219.268V158.103Z" fill="#F5F5F5"/>
<path d="M219.268 161.173H217.437V163.004H219.268V161.173Z" fill="#F5F5F5"/>
<path d="M219.268 164.238H217.437V166.069H219.268V164.238Z" fill="#F5F5F5"/>
<path d="M222.173 136.632H220.342V138.463H222.173V136.632Z" fill="#F5F5F5"/>
<path d="M222.173 139.697H220.342V141.527H222.173V139.697Z" fill="#F5F5F5"/>
<path d="M222.173 142.767H220.342V144.598H222.173V142.767Z" fill="#F5F5F5"/>
<path d="M222.173 145.832H220.342V147.663H222.173V145.832Z" fill="#F5F5F5"/>
<path d="M222.173 148.903H220.342V150.733H222.173V148.903Z" fill="#F5F5F5"/>
<path d="M222.173 151.968H220.342V153.798H222.173V151.968Z" fill="#F5F5F5"/>
<path d="M222.173 155.038H220.342V156.869H222.173V155.038Z" fill="#F5F5F5"/>
<path d="M222.173 158.103H220.342V159.933H222.173V158.103Z" fill="#F5F5F5"/>
<path d="M222.173 161.173H220.342V163.004H222.173V161.173Z" fill="#F5F5F5"/>
<path d="M147.627 220C210.86 220 262.121 217.007 262.121 213.315C262.121 209.624 210.86 206.631 147.627 206.631C84.3941 206.631 33.1335 209.624 33.1335 213.315C33.1335 217.007 84.3941 220 147.627 220Z" fill="#F5F5F5"/>
<path d="M249.289 208.999L241.116 168.295H238.182L229.808 208.999L223.803 212.678V213.764H255.1V212.678L249.289 208.999Z" fill="#407BFF"/>
<path opacity="0.2" d="M255.295 212.678H223.998V214.048H255.295V212.678Z" fill="black"/>
<path opacity="0.2" d="M241.117 168.537H238.182L229.909 209.117H249.39L241.117 168.537Z" fill="black"/>
<path opacity="0.6" d="M247.595 200.183H231.757L234.609 186.01H244.713L247.541 199.911L247.595 200.183Z" fill="white"/>
<path d="M167.214 69.5028L161.994 71.4515C161.604 71.1563 163.571 53.441 163.571 53.441L160.406 52.9745C160.406 52.9745 155.056 71.3747 156.863 75.0949C159.225 79.9135 169.653 75.0949 169.653 75.0949L167.214 69.5028Z" fill="#B97964"/>
<path d="M262.769 80.2616L265.198 69.6956L125.792 37.6391L123.362 48.2051L262.769 80.2616Z" fill="#407BFF"/>
<path opacity="0.6" d="M262.769 80.2616L265.198 69.6956L125.792 37.6391L123.362 48.2051L262.769 80.2616Z" fill="white"/>
<path opacity="0.2" d="M263.789 75.8305L264.177 74.1443L124.77 42.0878L124.382 43.774L263.789 75.8305Z" fill="black"/>
<path d="M129.321 44.0283C129.581 42.9042 129.539 41.7313 129.199 40.6288C128.859 39.5263 128.233 38.5335 127.385 37.7512L127.148 37.5327L125.967 37.2552C125.856 37.2305 125.74 37.2508 125.643 37.3116C125.547 37.3725 125.479 37.469 125.454 37.58L123.032 48.1324C123.019 48.1871 123.017 48.2438 123.026 48.2993C123.035 48.3548 123.055 48.408 123.085 48.4558C123.114 48.5036 123.153 48.545 123.199 48.5777C123.245 48.6104 123.297 48.6336 123.351 48.6461L124.532 48.9237L124.845 48.8292C125.948 48.4941 126.943 47.8737 127.729 47.0307C128.515 46.1876 129.064 45.1519 129.321 44.0283Z" fill="#407BFF"/>
<path opacity="0.2" d="M129.321 44.0283C129.581 42.9042 129.539 41.7313 129.199 40.6288C128.859 39.5263 128.233 38.5335 127.385 37.7512L127.148 37.5327L125.967 37.2552C125.856 37.2305 125.74 37.2508 125.643 37.3116C125.547 37.3725 125.479 37.469 125.454 37.58L123.032 48.1324C123.019 48.1871 123.017 48.2438 123.026 48.2993C123.035 48.3548 123.055 48.408 123.085 48.4558C123.114 48.5036 123.153 48.545 123.199 48.5777C123.245 48.6104 123.297 48.6336 123.351 48.6461L124.532 48.9237L124.845 48.8292C125.948 48.4941 126.943 47.8737 127.729 47.0307C128.515 46.1876 129.064 45.1519 129.321 44.0283Z" fill="black"/>
<path d="M154.005 52.7501L160.937 22.581L158.386 21.9905L151.07 53.8131C151.053 53.8844 151.051 53.9584 151.063 54.0306C151.075 54.1029 151.102 54.172 151.14 54.234C151.179 54.296 151.23 54.3497 151.29 54.392C151.35 54.4343 151.418 54.4643 151.489 54.4803C151.566 54.4983 151.646 54.4997 151.723 54.4844C151.8 54.4692 151.874 54.4376 151.938 54.3918L153.78 53.0749C153.89 52.9956 153.969 52.8809 154.005 52.7501Z" fill="#407BFF"/>
<path d="M181.404 59.0509L188.372 28.8818L185.815 28.2913L178.505 60.1138C178.471 60.2571 178.496 60.4079 178.573 60.533C178.651 60.6582 178.775 60.7474 178.918 60.7811C178.995 60.7994 179.075 60.801 179.152 60.7857C179.23 60.7704 179.303 60.7386 179.367 60.6925L181.215 59.3757C181.312 59.2909 181.378 59.1768 181.404 59.0509Z" fill="#407BFF"/>
<path d="M208.81 65.3517L215.742 35.1826L213.191 34.592L205.875 66.4146C205.858 66.4859 205.856 66.5599 205.868 66.6321C205.88 66.7044 205.906 66.7735 205.945 66.8355C205.984 66.8976 206.035 66.9513 206.095 66.9935C206.155 67.0358 206.223 67.0658 206.294 67.0818C206.371 67.0977 206.45 67.098 206.527 67.0828C206.604 67.0676 206.678 67.0371 206.743 66.9933L208.591 65.6705C208.698 65.5918 208.775 65.4794 208.81 65.3517Z" fill="#407BFF"/>
<path d="M236.204 71.6464L243.136 41.4832L240.585 40.8927L233.269 72.7152C233.243 72.8595 233.271 73.0083 233.349 73.1327C233.426 73.2571 233.547 73.3482 233.688 73.3884C233.765 73.4055 233.845 73.406 233.923 73.3897C234 73.3734 234.073 73.3407 234.137 73.2939L235.979 71.9771C236.09 71.8963 236.169 71.7794 236.204 71.6464Z" fill="#407BFF"/>
<path d="M268.033 57.3441L270.462 46.7781L131.055 14.7217L128.626 25.2877L268.033 57.3441Z" fill="#407BFF"/>
<path opacity="0.7" d="M268.033 57.3441L270.462 46.7781L131.055 14.7217L128.626 25.2877L268.033 57.3441Z" fill="white"/>
<path opacity="0.2" d="M269.059 52.9071L269.447 51.2209L130.04 19.1645L129.652 20.8507L269.059 52.9071Z" fill="black"/>
<path d="M126.599 46.4494L133.744 15.3532L131.193 14.7627L123.664 47.5123C123.638 47.6566 123.667 47.8053 123.744 47.9298C123.822 48.0542 123.943 48.1453 124.084 48.1855C124.161 48.2026 124.241 48.2031 124.318 48.1868C124.396 48.1705 124.469 48.1378 124.532 48.091L126.381 46.7742C126.488 46.6939 126.565 46.5794 126.599 46.4494Z" fill="#407BFF"/>
<path d="M134.588 21.1107C134.846 19.986 134.803 18.8131 134.461 17.7108C134.12 16.6085 133.494 15.616 132.646 14.8336L132.41 14.6151L131.228 14.3375C131.174 14.3244 131.117 14.3223 131.062 14.3312C131.006 14.3402 130.953 14.3601 130.905 14.3897C130.857 14.4194 130.816 14.4582 130.783 14.504C130.751 14.5498 130.727 14.6016 130.715 14.6564L128.27 25.2147C128.257 25.2694 128.255 25.3262 128.264 25.3817C128.273 25.4372 128.293 25.4904 128.322 25.5382C128.352 25.5859 128.391 25.6274 128.437 25.66C128.482 25.6927 128.534 25.716 128.589 25.7285L129.77 26.0001L130.077 25.9115C131.186 25.5802 132.187 24.9616 132.979 24.1185C133.771 23.2753 134.327 22.2377 134.588 21.1107Z" fill="#407BFF"/>
<path opacity="0.1" d="M134.588 21.1107C134.846 19.986 134.803 18.8131 134.461 17.7108C134.12 16.6085 133.494 15.616 132.646 14.8336L132.41 14.6151L131.228 14.3375C131.174 14.3244 131.117 14.3223 131.062 14.3312C131.006 14.3402 130.953 14.3601 130.905 14.3897C130.857 14.4194 130.816 14.4582 130.783 14.504C130.751 14.5498 130.727 14.6016 130.715 14.6564L128.27 25.2147C128.257 25.2694 128.255 25.3262 128.264 25.3817C128.273 25.4372 128.293 25.4904 128.322 25.5382C128.352 25.5859 128.391 25.6274 128.437 25.66C128.482 25.6927 128.534 25.716 128.589 25.7285L129.77 26.0001L130.077 25.9115C131.186 25.5802 132.187 24.9616 132.979 24.1185C133.771 23.2753 134.327 22.2377 134.588 21.1107Z" fill="white"/>
<path d="M184.386 73.8136C184.074 73.7825 183.76 73.7825 183.447 73.8136C181.17 74.0709 178.91 74.4653 176.68 74.9946C171.614 76.0635 166.051 77.4984 166.051 77.4984L163.571 70.2706C163.571 70.2706 179.91 60.8224 182.562 61.596C182.562 61.596 186.996 74.2093 184.386 73.8136Z" fill="#263238"/>
<path d="M221.884 81.1654C221.884 81.1654 226.265 86.2143 225.769 92.7099C225.273 99.2055 208.78 109.244 208.78 109.244L206.678 105.996C206.678 105.996 219.817 94.9243 220.112 92.7099C220.407 90.4954 217.384 85.6238 217.384 85.6238L221.884 81.1654Z" fill="#B97964"/>
<path d="M207.269 104.863C207.269 104.863 209.956 108.465 209.826 108.925C209.696 109.386 207.523 110.738 207.523 110.738C207.523 110.738 207.889 112.888 207.889 113.277C207.889 114.24 206.17 115.444 205.728 115.149C204.139 114.086 203.56 111.21 203.265 109.894C202.97 108.577 206.495 104.467 207.269 104.863Z" fill="#407BFF"/>
<path opacity="0.7" d="M207.269 104.863C207.269 104.863 209.956 108.465 209.826 108.925C209.696 109.386 207.523 110.738 207.523 110.738C207.523 110.738 207.889 112.888 207.889 113.277C207.889 114.24 206.17 115.444 205.728 115.149C204.139 114.086 203.56 111.21 203.265 109.894C202.97 108.577 206.495 104.467 207.269 104.863Z" fill="white"/>
<path d="M183.341 209.648L178.552 210.15L177.655 199.822L182.444 199.314L183.341 209.648Z" fill="#B97964"/>
<path d="M207.245 209.3H202.604L202.22 198.547H206.867L207.245 209.3Z" fill="#B97964"/>
<path d="M201.954 208.763H207.593C207.686 208.762 207.776 208.793 207.848 208.851C207.92 208.91 207.97 208.991 207.989 209.081L208.904 213.215C208.923 213.315 208.92 213.418 208.895 213.517C208.869 213.616 208.823 213.708 208.758 213.787C208.693 213.866 208.612 213.93 208.52 213.974C208.428 214.018 208.327 214.041 208.225 214.042C206.4 214.012 205.072 213.9 202.781 213.9C201.369 213.9 197.112 214.048 195.163 214.048C193.214 214.048 192.96 212.123 193.758 211.945C197.336 211.166 200.029 210.085 201.174 209.058C201.386 208.862 201.666 208.757 201.954 208.763Z" fill="#263238"/>
<path d="M200.424 209.578C200.109 209.601 199.795 209.518 199.533 209.341C199.448 209.27 199.382 209.179 199.342 209.075C199.302 208.972 199.288 208.861 199.302 208.751C199.3 208.687 199.317 208.623 199.35 208.569C199.384 208.514 199.433 208.471 199.491 208.444C200.005 208.178 201.505 209.099 201.67 209.206C201.69 209.215 201.706 209.23 201.716 209.249C201.725 209.269 201.728 209.291 201.723 209.312C201.721 209.334 201.711 209.355 201.696 209.372C201.682 209.389 201.662 209.401 201.641 209.406C201.243 209.508 200.835 209.565 200.424 209.578ZM199.733 208.615C199.684 208.61 199.635 208.62 199.592 208.645C199.562 208.645 199.527 208.686 199.521 208.774C199.512 208.847 199.52 208.922 199.546 208.99C199.572 209.059 199.614 209.121 199.668 209.17C200.189 209.406 200.78 209.436 201.322 209.253C200.839 208.939 200.299 208.722 199.733 208.615Z" fill="#407BFF"/>
<path d="M201.612 209.412H201.558C201.08 209.152 200.153 208.131 200.247 207.641C200.264 207.559 200.308 207.485 200.373 207.432C200.437 207.38 200.518 207.351 200.602 207.351C200.685 207.34 200.77 207.347 200.85 207.372C200.931 207.396 201.005 207.438 201.068 207.493C201.606 207.93 201.718 209.265 201.724 209.329C201.724 209.349 201.719 209.369 201.71 209.386C201.701 209.404 201.687 209.419 201.671 209.43C201.65 209.43 201.629 209.424 201.612 209.412ZM200.679 207.528H200.625C200.484 207.528 200.472 207.611 200.466 207.641C200.407 207.942 200.997 208.715 201.476 209.076C201.446 208.547 201.254 208.039 200.927 207.623C200.859 207.561 200.77 207.527 200.679 207.528Z" fill="#407BFF"/>
<path d="M178.044 208.615H183.684C183.776 208.614 183.866 208.646 183.938 208.704C184.01 208.762 184.06 208.843 184.079 208.934L184.994 213.067C185.013 213.168 185.01 213.271 184.985 213.37C184.96 213.469 184.913 213.561 184.848 213.64C184.784 213.719 184.702 213.782 184.61 213.826C184.518 213.87 184.417 213.893 184.315 213.894C182.491 213.865 181.162 213.752 178.871 213.752C177.46 213.752 173.202 213.9 171.253 213.9C169.305 213.9 169.051 211.975 169.848 211.798C173.426 211.018 176.119 209.938 177.265 208.91C177.477 208.715 177.756 208.609 178.044 208.615Z" fill="#263238"/>
<path d="M176.509 209.43C176.193 209.454 175.879 209.37 175.617 209.194C175.532 209.122 175.467 209.031 175.427 208.928C175.386 208.825 175.373 208.713 175.387 208.603C175.384 208.539 175.401 208.476 175.435 208.421C175.468 208.366 175.517 208.323 175.576 208.296C176.089 208.03 177.589 208.952 177.755 209.058C177.774 209.067 177.79 209.082 177.8 209.102C177.81 209.121 177.812 209.143 177.808 209.164C177.805 209.186 177.796 209.207 177.781 209.224C177.766 209.241 177.747 209.253 177.725 209.259C177.327 209.36 176.919 209.418 176.509 209.43ZM175.818 208.45C175.769 208.444 175.719 208.455 175.676 208.479C175.647 208.479 175.611 208.52 175.605 208.609C175.596 208.682 175.605 208.756 175.63 208.825C175.656 208.894 175.698 208.956 175.753 209.005C176.274 209.241 176.865 209.27 177.406 209.087C176.923 208.774 176.384 208.557 175.818 208.45Z" fill="#407BFF"/>
<path d="M177.696 209.265H177.643C177.165 209.005 176.237 207.983 176.332 207.493C176.348 207.411 176.393 207.338 176.457 207.285C176.522 207.232 176.603 207.203 176.686 207.204C176.77 207.193 176.854 207.2 176.935 207.224C177.015 207.249 177.09 207.29 177.153 207.345C177.69 207.782 177.802 209.117 177.808 209.182C177.808 209.202 177.804 209.221 177.794 209.239C177.785 209.256 177.772 209.271 177.755 209.282C177.734 209.283 177.713 209.276 177.696 209.265ZM176.763 207.381H176.71C176.568 207.381 176.556 207.463 176.55 207.493C176.491 207.794 177.082 208.568 177.56 208.928C177.53 208.399 177.339 207.892 177.011 207.475C176.943 207.413 176.855 207.38 176.763 207.381Z" fill="#407BFF"/>
<path opacity="0.2" d="M182.444 199.314L177.655 199.822L178.121 205.149L182.91 204.647L182.444 199.314Z" fill="black"/>
<path opacity="0.2" d="M206.867 198.553H202.22L202.42 204.098H207.068L206.867 198.553Z" fill="black"/>
<path d="M204.948 104.225H180.312C177.95 117.015 170.639 162.284 175.901 202.621L184.239 201.588C184.239 201.588 183.465 148.041 190.829 128.247C191.679 138.84 192.683 150.096 193.557 156.107C195.7 170.87 200.289 203.135 200.289 203.135H208.78C208.78 203.135 207.044 172.251 206.241 157.743C205.361 141.994 204.983 107.473 204.948 104.225Z" fill="#407BFF"/>
<path opacity="0.2" d="M190.829 128.247C189.616 131.717 188.696 135.282 188.077 138.905C187.386 129.457 190.144 119.478 190.144 119.478L190.829 128.247Z" fill="black"/>
<path d="M174.944 204.564L185.266 203.029L184.953 200.171L174.212 201.576L174.944 204.564Z" fill="#407BFF"/>
<path opacity="0.6" d="M174.944 204.564L185.266 203.029L184.953 200.171L174.212 201.576L174.944 204.564Z" fill="white"/>
<path d="M199.267 203.206H209.282V200.212L198.889 200.017L199.267 203.206Z" fill="#407BFF"/>
<path opacity="0.6" d="M199.267 203.206H209.282V200.212L198.889 200.017L199.267 203.206Z" fill="white"/>
<path d="M180.105 104.52H204.906V107.473L179.786 107.165L180.105 104.52Z" fill="#263238"/>
<path d="M196.935 103.191H196.049V108.435H196.935V103.191Z" fill="#407BFF"/>
<path d="M184.386 103.191H183.5V108.435H184.386V103.191Z" fill="#407BFF"/>
<path opacity="0.2" d="M183.447 73.8136C181.17 74.0708 178.91 74.4652 176.68 74.9946C177.595 71.0382 182.467 67.8022 182.467 67.8022L183.447 73.8136Z" fill="black"/>
<path d="M191.413 104.006H186.825V107.313H191.413V104.006Z" fill="white"/>
<path d="M209.908 63.8045C209.908 63.8045 209.158 67.5719 208.243 73.0459C207.83 75.532 207.381 78.3605 206.95 81.3662C205.84 89.1137 204.859 97.93 204.948 104.52H180.105C180.105 104.52 178.493 76.8311 182.562 61.596C182.562 61.596 198.234 60.8578 209.908 63.8045Z" fill="#263238"/>
<path d="M200.997 62.151C198.736 64.206 193.197 63.4443 193.197 63.4443C193.197 63.4443 189.736 62.4994 190.463 61.4188C192.5 61.0822 193.486 60.1315 193.894 58.9151C194.117 58.161 194.187 57.37 194.1 56.5884C194.066 56.1527 194.009 55.719 193.929 55.2893L200.773 50.1932C199.881 53.565 198.783 59.7241 200.997 62.151Z" fill="#B97964"/>
<path opacity="0.2" d="M199.196 53.441C198.925 57.5745 195.547 58.6847 193.882 58.915C194.105 58.161 194.175 57.37 194.088 56.5884L199.196 53.441Z" fill="black"/>
<path d="M199.987 59.541L193.439 62.4935L193.055 60.1315L190.652 60.9759C190.231 61.1217 189.872 61.4063 189.633 61.7828C189.395 62.1594 189.292 62.6057 189.341 63.0486L189.606 65.6468L192.931 63.828L194.584 66.1901L202.45 62.4049L199.987 59.541Z" fill="#263238"/>
<path opacity="0.2" d="M199.987 59.541L193.439 62.4935L193.055 60.1315L190.652 60.9759C190.231 61.1217 189.872 61.4063 189.633 61.7828C189.395 62.1594 189.292 62.6057 189.341 63.0486L189.606 65.6468L192.931 63.828L194.584 66.1901L202.45 62.4049L199.987 59.541Z" fill="white"/>
<path d="M207.363 63.2317C207.363 63.2317 201.57 82.7185 206.684 86.2143C206.684 86.2143 205.975 102.241 204.954 104.52C196.677 104.969 188.382 104.969 180.105 104.52C179.435 98.4425 179.173 92.3269 179.32 86.2143C179.32 86.2143 181.186 83.8522 181.186 82.0807C181.186 80.3092 182.266 66.137 185.809 61.4129H187.782C187.782 61.4129 184.93 67.2176 185.319 72.3373C185.319 72.3373 193.982 73.8136 200.283 72.9278C200.283 72.9278 202.149 66.0366 204.216 62.5939L207.363 63.2317Z" fill="#407BFF"/>
<path opacity="0.2" d="M184.386 87.3953H199.001C199.001 87.3953 199.887 99.4004 189.837 98.615C182.154 98.0245 184.386 87.3953 184.386 87.3953Z" fill="black"/>
<path d="M189.246 39.3869C189.246 39.3869 187.292 45.5577 190.262 48.5162C193.232 51.4746 195.086 39.7117 195.086 39.7117L189.246 39.3869Z" fill="#263238"/>
<path d="M200.112 53.9371C199.853 54.3455 199.552 54.7256 199.214 55.0709C198.347 56.0005 197.198 56.6196 195.944 56.8329C194.691 57.0463 193.402 56.8422 192.276 56.2519C190.807 55.5153 189.671 54.2492 189.099 52.7088C189.017 52.4945 188.948 52.2756 188.892 52.0534C188.753 51.5094 188.648 50.9572 188.579 50.4C188.042 46.3077 188.939 40.8573 192.866 39.1803C193.625 38.8525 194.441 38.6777 195.268 38.6659C196.095 38.6542 196.916 38.8057 197.684 39.1118C198.452 39.4179 199.152 39.8726 199.744 40.4498C200.336 41.027 200.808 41.7153 201.133 42.4753C201.529 43.384 201.701 44.3741 201.635 45.3629C201.452 49.278 201.488 51.8113 200.112 53.9371Z" fill="#B97964"/>
<path opacity="0.1" d="M200.112 53.937C199.853 54.3454 199.552 54.7255 199.214 55.0708C198.347 56.0004 197.198 56.6195 195.944 56.8328C194.691 57.0462 193.402 56.8421 192.276 56.2518C190.807 55.5152 189.671 54.2491 189.099 52.7087C189.017 52.4944 188.948 52.2755 188.892 52.0533C188.753 51.5093 188.648 50.9571 188.579 50.3999C189.263 50.8039 190.027 51.0557 190.817 51.138C191.358 51.0832 191.898 51.2421 192.323 51.5809C193.811 50.6892 196.208 50.642 197.313 50.3644C198.417 50.0869 198.706 45.8175 198.706 45.8175L200.112 47.3587C200.72 50.1518 200.655 52.319 200.112 53.937Z" fill="black"/>
<path d="M194.667 46.7683C194.667 47.1344 194.478 47.4474 194.23 47.4474C193.982 47.4474 193.781 47.1462 193.775 46.7742C193.769 46.4022 193.97 46.0951 194.212 46.0951C194.454 46.0951 194.655 46.3844 194.667 46.7683Z" fill="#263238"/>
<path d="M190.433 46.8214C190.463 47.1935 190.238 47.5005 189.996 47.5005C189.754 47.5005 189.553 47.1994 189.541 46.8273C189.53 46.4553 189.736 46.1483 189.978 46.1483C190.221 46.1483 190.427 46.4671 190.433 46.8214Z" fill="#263238"/>
<path d="M191.78 46.9868C191.341 48.1383 190.745 49.2233 190.008 50.2109C190.268 50.3928 190.564 50.5151 190.877 50.5692C191.189 50.6233 191.509 50.6078 191.815 50.5239L191.78 46.9868Z" fill="#A24E3F"/>
<path d="M195.96 45.3805C195.921 45.3858 195.881 45.381 195.843 45.3666C195.806 45.3521 195.773 45.3285 195.748 45.2979C195.584 45.0757 195.371 44.8948 195.124 44.7697C194.878 44.6447 194.607 44.5788 194.331 44.5774C194.302 44.5807 194.272 44.578 194.245 44.5695C194.217 44.5611 194.191 44.547 194.169 44.5282C194.147 44.5093 194.129 44.4862 194.116 44.4601C194.103 44.4341 194.096 44.4057 194.094 44.3767C194.089 44.3196 194.107 44.2629 194.143 44.2187C194.18 44.1745 194.232 44.1464 194.289 44.1405C194.633 44.1376 194.973 44.2165 195.281 44.3704C195.589 44.5244 195.856 44.7491 196.061 45.0262C196.097 45.0709 196.115 45.1283 196.109 45.1858C196.104 45.2434 196.076 45.2964 196.031 45.3333C196.01 45.3525 195.986 45.3684 195.96 45.3805Z" fill="#263238"/>
<path d="M192.47 52.4549C193.01 52.5345 193.562 52.481 194.076 52.2988C194.591 52.1166 195.053 51.8114 195.423 51.4097C195.443 51.3869 195.454 51.3571 195.452 51.3266C195.45 51.2962 195.437 51.2676 195.414 51.2473C195.391 51.2269 195.361 51.2164 195.331 51.2181C195.3 51.2197 195.272 51.2334 195.252 51.2561C194.903 51.6169 194.474 51.8913 194.001 52.0574C193.527 52.2234 193.021 52.2766 192.523 52.2127C192.494 52.2105 192.465 52.2188 192.441 52.2361C192.417 52.2534 192.4 52.2786 192.393 52.3072C192.391 52.322 192.391 52.3371 192.395 52.3517C192.398 52.3662 192.404 52.38 192.413 52.3921C192.422 52.4042 192.433 52.4144 192.446 52.4222C192.459 52.4299 192.473 52.435 192.488 52.4371L192.47 52.4549Z" fill="#263238"/>
<path d="M188.597 45.3865C188.554 45.398 188.509 45.398 188.467 45.3865C188.414 45.362 188.373 45.3182 188.353 45.2643C188.332 45.2104 188.332 45.1505 188.355 45.0971C188.495 44.7771 188.711 44.4957 188.983 44.2767C189.255 44.0577 189.577 43.9077 189.919 43.8394C189.977 43.8326 190.035 43.8485 190.082 43.8837C190.128 43.919 190.159 43.9708 190.167 44.0283C190.173 44.0858 190.156 44.1432 190.121 44.1892C190.086 44.2351 190.035 44.2662 189.978 44.2763C189.71 44.3381 189.46 44.4616 189.248 44.6368C189.036 44.8121 188.867 45.0344 188.756 45.2861C188.738 45.3129 188.714 45.3356 188.687 45.3529C188.659 45.3702 188.629 45.3816 188.597 45.3865Z" fill="#263238"/>
<path d="M198.18 39.6998L197.862 41.7135C198.198 41.8895 198.456 42.186 198.585 42.5439C198.713 42.9017 198.701 43.2947 198.552 43.6444C197.838 45.3215 198.718 48.0024 199.987 49.1007C199.987 49.1007 200.052 48.3626 200.666 48.5575C201.281 48.7523 200.979 52.5906 199.704 54.3858C199.704 54.3858 201.599 52.7914 202.775 48.7878C203.861 45.0912 204.091 41.9851 203.365 40.5206L198.18 39.6998Z" fill="#263238"/>
<path d="M203.282 41.0994C203.282 41.0994 205.331 37.9342 199.816 36.269C194.301 34.6038 190.462 36.9717 190.462 36.9717C190.462 36.9717 186.872 41.2588 191.643 41.9615C196.326 42.6406 203.282 41.0994 203.282 41.0994Z" fill="#263238"/>
<path d="M204.097 49.2012C203.6 50.2481 202.708 51.0551 201.617 51.4451C200.17 51.9529 199.35 50.6774 199.668 49.2602C199.958 47.9965 201.056 46.1778 202.556 46.3077C204.056 46.4376 204.694 47.908 204.097 49.2012Z" fill="#B97964"/>
<path d="M201.027 41.5423C201.027 41.5423 199.421 56.8306 191.656 55.8208L192.589 56.4527C192.589 56.4527 199.568 57.4506 202.037 41.6899L201.027 41.5423Z" fill="#263238"/>
<path opacity="0.2" d="M201.027 41.5423C201.027 41.5423 199.421 56.8306 191.656 55.8208L192.589 56.4527C192.589 56.4527 199.568 57.4506 202.037 41.6899L201.027 41.5423Z" fill="black"/>
<path d="M204.765 42.8296C202.474 42.239 195.016 43.485 191.508 43.3315C188 43.178 186.861 42.6052 186.288 42.1091C185.715 41.6131 187.817 40.9281 187.817 40.9281C187.817 40.9281 188.095 35.6135 192.453 33.1806C193.78 32.4674 195.252 32.0636 196.758 31.9996C197.9 31.8991 199.051 32.0296 200.141 32.3835C205.409 34.155 205.007 41.2411 205.007 41.2411C205.007 41.2411 207.062 43.3905 204.765 42.8296Z" fill="#407BFF"/>
<path opacity="0.2" d="M204.765 42.8296C202.474 42.2391 195.016 43.4851 191.508 43.3315C188 43.178 186.861 42.6052 186.288 42.1092C185.715 41.6132 187.817 40.9282 187.817 40.9282C187.817 40.9282 190.008 42.4281 192.252 42.0029C194.496 41.5777 200.962 39.8121 205.013 41.2411C205.013 41.2707 207.062 43.3906 204.765 42.8296Z" fill="black"/>
<path opacity="0.2" d="M200.147 32.3894C197.909 32.7496 196.013 34.8046 195.163 36.7355C194.017 39.2924 190.02 42.1505 190.533 36.4993C190.593 35.8439 190.795 35.2095 191.127 34.6411C191.458 34.0727 191.911 33.5842 192.453 33.2102C193.78 32.4969 195.252 32.0931 196.757 32.0292C197.9 31.9202 199.053 32.0427 200.147 32.3894Z" fill="black"/>
<path d="M167.923 78.0889L164.037 69.0541L162.348 70.2882L165.478 78.5613L167.923 78.0889Z" fill="#263238"/>
<path opacity="0.2" d="M167.923 78.0889L164.037 69.0541L162.348 70.2882L165.478 78.5613L167.923 78.0889Z" fill="white"/>
<path d="M160.937 45.7349C160.937 45.7349 160.718 47.3942 161.403 47.5654C162.628 47.9114 163.875 48.1738 165.135 48.3508C165.726 48.3508 166.128 45.9888 166.128 45.7349C166.128 45.4809 161.451 44.0283 160.937 45.7349Z" fill="#407BFF"/>
<path opacity="0.7" d="M160.937 45.7349C160.937 45.7349 160.718 47.3942 161.403 47.5654C162.628 47.9114 163.875 48.1738 165.135 48.3508C165.726 48.3508 166.128 45.9888 166.128 45.7349C166.128 45.4809 161.451 44.0283 160.937 45.7349Z" fill="white"/>
<path opacity="0.2" d="M208.243 73.0459C207.829 75.5319 207.381 78.3605 206.95 81.3662C205.001 77.7818 206.554 71.8176 206.554 71.8176L208.243 73.0459Z" fill="black"/>
<path d="M209.908 63.8044C209.908 63.8044 213.398 64.9559 225.769 85.2281L218.636 89.6097C218.636 89.6097 209.707 77.3566 207.363 76.7661C207.363 76.7661 204.428 66.6566 209.908 63.8044Z" fill="#263238"/>
<path d="M225.427 83.9526L217.384 89.6097L218.931 91.0151L226.389 86.2438L225.427 83.9526Z" fill="#263238"/>
<path opacity="0.2" d="M225.427 83.9526L217.384 89.6097L218.931 91.0151L226.389 86.2438L225.427 83.9526Z" fill="white"/>
<path d="M32.3718 214.048H36.6412L46.485 124.975H42.2156L32.3718 214.048Z" fill="#263238"/>
<path opacity="0.1" d="M43.7746 149.44L40.3555 180.282L36.6412 213.764H32.3718L36.0861 180.259L39.83 146.446H39.8359L43.7746 149.44Z" fill="white"/>
<path d="M102.754 214.048H107.018L116.862 124.975H112.598L102.754 214.048Z" fill="#263238"/>
<path opacity="0.1" d="M108.783 197.956L107.018 213.764H102.754L104.845 194.939L108.783 197.956Z" fill="white"/>
<path d="M36.0859 180.448H110.762L120.978 88.0213H46.3017L36.0859 180.448Z" fill="#263238"/>
<path opacity="0.1" d="M85.1808 180.696H36.0859L39.8357 146.659L43.7744 149.67L85.1808 180.696Z" fill="white"/>
<path d="M135.15 214.048H130.88L121.037 124.975H125.3L135.15 214.048Z" fill="#263238"/>
<path opacity="0.2" d="M135.15 214.048H130.88L121.037 124.975H125.3L135.15 214.048Z" fill="white"/>
<path d="M64.7669 214.048H60.5035L50.6597 124.975H54.9231L64.7669 214.048Z" fill="#263238"/>
<path opacity="0.2" d="M64.7669 214.048H60.5035L50.6597 124.975H54.9231L64.7669 214.048Z" fill="white"/>
<path d="M131.436 180.448H56.7598L46.5439 88.0213H121.22L131.436 180.448Z" fill="#407BFF"/>
<path opacity="0.6" d="M131.436 180.448H56.7598L46.5439 88.0213H121.22L131.436 180.448Z" fill="white"/>
<path d="M121.196 87.9858L122.111 96.253H47.4651L46.5498 87.9858H121.196Z" fill="#407BFF"/>
<path opacity="0.2" d="M121.196 87.9858L122.111 96.253H47.4651L46.5498 87.9858H121.196Z" fill="white"/>
<path d="M53.3938 87.9858L51.7935 96.2116L51.7876 96.253H49.2957L49.3016 96.2116L50.9018 87.9858H53.3938Z" fill="#263238"/>
<path d="M61.218 87.9858L59.6119 96.2116L59.606 96.253H57.114L57.1199 96.2116L58.7261 87.9858H61.218Z" fill="#263238"/>
<path d="M69.0366 87.9858L67.4363 96.2116L67.4304 96.253H64.9385L64.9444 96.2116L66.5447 87.9858H69.0366Z" fill="#263238"/>
<path d="M76.8606 87.9858L75.2544 96.2116L75.2485 96.253H72.7625L72.7743 96.2116L74.3745 87.9858H76.8606Z" fill="#263238"/>
<path d="M84.685 87.9858L83.0848 96.2116L83.0789 96.253H80.5869L80.5928 96.2116L82.1931 87.9858H84.685Z" fill="#263238"/>
<path d="M92.509 87.9858L90.9028 96.2116L90.8969 96.253H88.4109L88.4168 96.2116L90.0171 87.9858H92.509Z" fill="#263238"/>
<path d="M100.328 87.9858L98.7273 96.2116L98.7214 96.253H96.2354L96.2413 96.2116L97.8415 87.9858H100.328Z" fill="#263238"/>
<path d="M108.158 87.9858L106.552 96.2116L106.546 96.253H104.06L104.065 96.2116L105.666 87.9858H108.158Z" fill="#263238"/>
<path d="M115.976 87.9858L114.376 96.2116L114.37 96.253H111.878L111.884 96.2116L113.49 87.9858H115.976Z" fill="#263238"/>
<path d="M121.302 88.9366L122.111 96.253H119.72L121.302 88.9366Z" fill="#263238"/>
<path d="M56.801 180.696L55.8857 172.429H130.532L131.441 180.696H56.801Z" fill="#407BFF"/>
<path opacity="0.2" d="M56.801 180.696L55.8857 172.429H130.532L131.441 180.696H56.801Z" fill="white"/>
<path d="M124.604 180.696L126.204 172.47L126.21 172.429H128.702L128.696 172.47L127.09 180.696H124.604Z" fill="#263238"/>
<path d="M116.779 180.696L118.385 172.47L118.391 172.429H120.877L120.871 172.47L119.271 180.696H116.779Z" fill="#263238"/>
<path d="M108.961 180.696L110.561 172.47L110.567 172.429H113.059L113.053 172.47L111.447 180.696H108.961Z" fill="#263238"/>
<path d="M101.137 180.696L102.743 172.47L102.749 172.429H105.229L105.223 172.47L103.623 180.696H101.137Z" fill="#263238"/>
<path d="M93.3123 180.696L94.9125 172.47L94.9184 172.429H97.4104L97.4045 172.47L95.7983 180.696H93.3123Z" fill="#263238"/>
<path d="M85.488 180.696L87.0942 172.47L87.1001 172.429H89.5862L89.5803 172.47L87.98 180.696H85.488Z" fill="#263238"/>
<path d="M77.6697 180.696L79.27 172.47L79.2759 172.429H81.7619L81.756 172.47L80.1498 180.696H77.6697Z" fill="#263238"/>
<path d="M69.8396 180.696L71.4399 172.47L71.4517 172.429H73.9377L73.9318 172.47L72.3315 180.696H69.8396Z" fill="#263238"/>
<path d="M62.021 180.696L63.6213 172.47L63.6272 172.429H66.1191L66.1073 172.47L64.507 180.696H62.021Z" fill="#263238"/>
<path d="M56.6947 179.745L55.8857 172.429H58.2773L56.6947 179.745Z" fill="#263238"/>
<path d="M75.3665 121.149L69.2548 135.557L70.7783 152.723L62.4875 165.343H64.265L73.4297 154.046L74.717 142.98L82.4054 154.123L81.6023 165.343H83.4624L85.417 151.678L78.514 137.27L83.7222 127.532L75.3665 121.149Z" fill="#407BFF"/>
<path d="M78.7324 125.188C78.7324 125.188 79.9489 118.899 82.4113 118.303C83.2852 118.09 86.3677 121.066 86.35 123.162C86.3323 125.259 79.7186 126.463 79.7186 126.463L78.7324 125.188Z" fill="#407BFF"/>
<path d="M75.3667 121.149C75.3667 121.149 67.8731 120.558 66.8279 120.859C65.7827 121.161 66.5681 128.843 66.5681 128.843L67.8081 129.18C67.8081 129.18 67.7314 122.855 68.1093 122.861C68.4872 122.867 74.9415 124.721 74.9415 124.721L75.3667 121.149Z" fill="#407BFF"/>
<path d="M83.7283 127.514C84.5727 128.14 81.9568 138.799 81.9568 138.799L84.5255 144.385L83.935 144.757C83.935 144.757 80.2325 140.033 79.8014 139C78.9274 136.957 80.5336 129.983 80.5336 129.983L83.7283 127.514Z" fill="#407BFF"/>
<path d="M95.2906 154.891L95.9165 154.017L58.8562 120.34L58.2302 121.208L95.2906 154.891Z" fill="#407BFF"/>
<path d="M95.7687 151.796L93.572 154.554C93.572 154.554 96.6663 157.896 99.235 157.701C99.235 157.701 99.2055 155.239 95.7687 151.796Z" fill="#407BFF"/>
<path d="M83.982 143.895C83.982 143.895 86.1314 144.527 86.037 145.106C85.9425 145.684 85.6177 146.582 85.2516 146.629C84.8855 146.677 83.9111 144.757 83.9111 144.757L83.982 143.895Z" fill="#407BFF"/>
<path d="M66.6684 128.14C66.6684 128.14 66.3259 129.144 67.4301 130.272C68.5344 131.4 69.0127 130.272 69.0127 130.272L66.6684 128.14Z" fill="#407BFF"/>
<path d="M59.3696 165.342H122.826L119.354 163.689C119.354 163.689 115.97 157.837 114.133 156.508C112.297 155.18 108.6 152.015 107.408 151.784C106.215 151.554 105.778 149.216 104.626 149.216C103.475 149.216 97.735 157.684 97.735 157.684C97.1532 158.565 96.3776 159.303 95.4674 159.839C94.2215 160.429 92.1311 163.66 92.1311 163.66C92.1311 163.66 73.2997 164.161 59.3696 165.342Z" fill="#407BFF"/>
<g opacity="0.2">
<path opacity="0.2" d="M75.3668 121.149L69.255 135.557L70.7785 152.723L62.4878 165.342H64.2652L73.4299 154.046L74.7172 142.98L82.4057 154.123L81.6026 165.342H83.4627L85.4172 151.678L78.5142 137.27L83.7225 127.532L75.3668 121.149Z" fill="black"/>
<path opacity="0.2" d="M78.7327 125.188C78.7327 125.188 79.9491 118.899 82.4115 118.303C83.2855 118.09 86.3679 121.066 86.3502 123.162C86.3325 125.259 79.7188 126.463 79.7188 126.463L78.7327 125.188Z" fill="black"/>
<path opacity="0.2" d="M75.3667 121.149C75.3667 121.149 67.8731 120.558 66.8279 120.859C65.7827 121.161 66.5681 128.843 66.5681 128.843L67.8081 129.18C67.8081 129.18 67.7314 122.855 68.1093 122.861C68.4872 122.867 74.9415 124.721 74.9415 124.721L75.3667 121.149Z" fill="black"/>
<path opacity="0.2" d="M83.7283 127.514C84.5727 128.14 81.9568 138.799 81.9568 138.799L84.5255 144.385L83.935 144.757C83.935 144.757 80.2325 140.033 79.8014 139C78.9274 136.957 80.5336 129.983 80.5336 129.983L83.7283 127.514Z" fill="black"/>
<path opacity="0.2" d="M95.2906 154.891L95.9165 154.017L58.8562 120.34L58.2302 121.208L95.2906 154.891Z" fill="black"/>
<path opacity="0.2" d="M95.769 151.796L93.5723 154.554C93.5723 154.554 96.6665 157.896 99.2352 157.701C99.2352 157.701 99.2057 155.239 95.769 151.796Z" fill="black"/>
<path opacity="0.2" d="M83.9825 143.895C83.9825 143.895 86.1319 144.527 86.0374 145.106C85.943 145.684 85.6182 146.582 85.2521 146.629C84.886 146.676 83.9116 144.757 83.9116 144.757L83.9825 143.895Z" fill="black"/>
<path opacity="0.2" d="M66.6684 128.14C66.6684 128.14 66.3259 129.144 67.4301 130.272C68.5344 131.4 69.0127 130.272 69.0127 130.272L66.6684 128.14Z" fill="black"/>
<path opacity="0.2" d="M59.3699 165.342H122.826L119.354 163.689C119.354 163.689 115.97 157.837 114.134 156.508C112.297 155.18 108.601 152.015 107.408 151.784C106.215 151.554 105.778 149.216 104.626 149.216C103.475 149.216 97.7352 157.684 97.7352 157.684C97.1535 158.565 96.3779 159.303 95.4677 159.839C94.2217 160.429 92.1313 163.66 92.1313 163.66C92.1313 163.66 73.3 164.161 59.3699 165.342Z" fill="black"/>
</g>
<path d="M153.757 196.64L147.923 204.133L145.832 203.814L151.985 196.64H153.757Z" fill="#407BFF"/>
<path opacity="0.3" d="M153.757 196.64L147.923 204.133L145.832 203.814L151.985 196.64H153.757Z" fill="black"/>
<path d="M151.985 189.553L146.151 197.047L144.061 196.728L150.214 189.553H151.985Z" fill="#407BFF"/>
<path opacity="0.3" d="M151.985 189.553L146.151 197.047L144.061 196.728L150.214 189.553H151.985Z" fill="black"/>
<path d="M135.208 185.715H110.011L115.922 201.322H141.119L135.208 185.715Z" fill="#407BFF"/>
<path opacity="0.3" d="M135.208 185.715H110.011L115.922 201.322H141.119L135.208 185.715Z" fill="black"/>
<path d="M154.773 195.417H114.742V197.431H154.773V195.417Z" fill="#407BFF"/>
<path opacity="0.2" d="M130.107 195.417H114.742V197.431H130.107V195.417Z" fill="black"/>
<path d="M152.41 189.506H112.38V191.52H152.41V189.506Z" fill="#407BFF"/>
<path opacity="0.2" d="M127.745 189.506H112.38V191.52H127.745V189.506Z" fill="black"/>
<path d="M110.053 185.821L108.654 187.445L113.968 201.364H116.047L110.053 185.821Z" fill="#407BFF"/>
<path d="M164.864 193.982L167.569 194.655C167.465 193.923 167.155 193.235 166.673 192.673C166.192 192.111 165.56 191.699 164.852 191.484C164.008 191.29 163.122 191.406 162.356 191.81C161.589 192.214 160.994 192.88 160.677 193.687C160.445 194.247 160.381 194.863 160.494 195.458L144.19 205.273C142.277 203.667 140.015 204.877 139.082 206.182L141.775 206.838C141.93 206.871 142.077 206.936 142.207 207.028C142.336 207.12 142.446 207.237 142.529 207.373C142.613 207.508 142.668 207.659 142.691 207.816C142.715 207.973 142.707 208.133 142.667 208.287C142.627 208.441 142.557 208.585 142.46 208.711C142.363 208.837 142.242 208.942 142.104 209.02C141.965 209.098 141.812 209.147 141.655 209.165C141.497 209.183 141.337 209.168 141.185 209.123L138.492 208.45C138.597 209.182 138.908 209.869 139.389 210.43C139.87 210.992 140.501 211.405 141.208 211.621C142.051 211.833 142.942 211.736 143.719 211.347C144.496 210.958 145.108 210.303 145.442 209.501C145.689 208.981 145.774 208.398 145.684 207.83L161.988 198.015C163.594 199.114 166.122 198.317 167.037 197.011L164.315 196.303C164.162 196.267 164.017 196.201 163.89 196.108C163.762 196.016 163.655 195.898 163.573 195.764C163.492 195.629 163.438 195.479 163.415 195.323C163.393 195.167 163.401 195.009 163.441 194.856C163.514 194.552 163.705 194.288 163.972 194.124C164.238 193.961 164.559 193.909 164.864 193.982Z" fill="#407BFF"/>
<path opacity="0.6" d="M164.864 193.982L167.569 194.655C167.465 193.923 167.155 193.235 166.673 192.673C166.192 192.111 165.56 191.699 164.852 191.484C164.008 191.29 163.122 191.406 162.356 191.81C161.589 192.214 160.994 192.88 160.677 193.687C160.445 194.247 160.381 194.863 160.494 195.458L144.19 205.273C142.277 203.667 140.015 204.877 139.082 206.182L141.775 206.838C141.93 206.871 142.077 206.936 142.207 207.028C142.336 207.12 142.446 207.237 142.529 207.373C142.613 207.508 142.668 207.659 142.691 207.816C142.715 207.973 142.707 208.133 142.667 208.287C142.627 208.441 142.557 208.585 142.46 208.711C142.363 208.837 142.242 208.942 142.104 209.02C141.965 209.098 141.812 209.147 141.655 209.165C141.497 209.183 141.337 209.168 141.185 209.123L138.492 208.45C138.597 209.182 138.908 209.869 139.389 210.43C139.87 210.992 140.501 211.405 141.208 211.621C142.051 211.833 142.942 211.736 143.719 211.347C144.496 210.958 145.108 210.303 145.442 209.501C145.689 208.981 145.774 208.398 145.684 207.83L161.988 198.015C163.594 199.114 166.122 198.317 167.037 197.011L164.315 196.303C164.162 196.267 164.017 196.201 163.89 196.108C163.762 196.016 163.655 195.898 163.573 195.764C163.492 195.629 163.438 195.479 163.415 195.323C163.393 195.167 163.401 195.009 163.441 194.856C163.514 194.552 163.705 194.288 163.972 194.124C164.238 193.961 164.559 193.909 164.864 193.982Z" fill="white"/>
<path d="M159.502 201.322H115.923V214.048H159.502V201.322Z" fill="#407BFF"/>
<path opacity="0.2" d="M133.059 201.322H115.923V214.048H133.059V201.322Z" fill="black"/>
<path d="M100.617 210.812L98.6504 208.839C98.3576 209.522 98.2666 210.274 98.388 211.006C98.5094 211.739 98.8381 212.421 99.3354 212.973C99.9599 213.577 100.781 213.936 101.648 213.984C102.515 214.033 103.371 213.769 104.059 213.239C104.546 212.877 104.917 212.383 105.128 211.816L124.154 211.845C124.963 214.207 127.526 214.343 129.003 213.705L127.03 211.751C126.812 211.53 126.69 211.231 126.69 210.921C126.69 210.61 126.812 210.312 127.03 210.091C127.252 209.871 127.551 209.748 127.863 209.748C128.175 209.748 128.474 209.871 128.695 210.091L130.668 212.064C130.96 211.381 131.05 210.628 130.927 209.896C130.805 209.163 130.475 208.481 129.977 207.93C129.366 207.31 128.552 206.932 127.684 206.864C126.817 206.795 125.953 207.042 125.253 207.558C124.771 207.876 124.399 208.333 124.184 208.869L105.152 208.839C104.343 207.068 101.786 206.477 100.31 207.068L102.276 209.081C102.388 209.191 102.476 209.322 102.537 209.467C102.597 209.611 102.628 209.766 102.628 209.923C102.628 210.08 102.597 210.235 102.537 210.379C102.476 210.524 102.388 210.655 102.276 210.764C102.061 210.989 101.767 211.12 101.456 211.129C101.146 211.138 100.844 211.024 100.617 210.812Z" fill="#407BFF"/>
<path opacity="0.6" d="M100.617 210.812L98.6504 208.839C98.3576 209.522 98.2666 210.274 98.388 211.006C98.5094 211.739 98.8381 212.421 99.3354 212.973C99.9599 213.577 100.781 213.936 101.648 213.984C102.515 214.033 103.371 213.769 104.059 213.239C104.546 212.877 104.917 212.383 105.128 211.816L124.154 211.845C124.963 214.207 127.526 214.343 129.003 213.705L127.03 211.751C126.812 211.53 126.69 211.231 126.69 210.921C126.69 210.61 126.812 210.312 127.03 210.091C127.252 209.871 127.551 209.748 127.863 209.748C128.175 209.748 128.474 209.871 128.695 210.091L130.668 212.064C130.96 211.381 131.05 210.628 130.927 209.896C130.805 209.163 130.475 208.481 129.977 207.93C129.366 207.31 128.552 206.932 127.684 206.864C126.817 206.795 125.953 207.042 125.253 207.558C124.771 207.876 124.399 208.333 124.184 208.869L105.152 208.839C104.343 207.068 101.786 206.477 100.31 207.068L102.276 209.081C102.388 209.191 102.476 209.322 102.537 209.467C102.597 209.611 102.628 209.766 102.628 209.923C102.628 210.08 102.597 210.235 102.537 210.379C102.476 210.524 102.388 210.655 102.276 210.764C102.061 210.989 101.767 211.12 101.456 211.129C101.146 211.138 100.844 211.024 100.617 210.812Z" fill="white"/>
</svg>
